<?xml version="1.0" encoding="UTF-8" standalone="no"?>
<!-- Created with Inkscape (http://www.inkscape.org/) -->

<svg
   width="176.51877mm"
   height="22.057793mm"
   viewBox="0 0 176.51877 22.057793"
   version="1.1"
   id="svg646"
   sodipodi:docname="bridgetown-bluegrass-logo.svg"
   inkscape:version="1.3 (0e150ed, 2023-07-21)"
   xml:space="preserve"
   inkscape:export-filename="bridgetown-bluegrass-header-small-words-only.png"
   inkscape:export-xdpi="300"
   inkscape:export-ydpi="300"
   xmlns:inkscape="http://www.inkscape.org/namespaces/inkscape"
   xmlns:sodipodi="http://sodipodi.sourceforge.net/DTD/sodipodi-0.dtd"
   xmlns="http://www.w3.org/2000/svg"
   xmlns:svg="http://www.w3.org/2000/svg"><sodipodi:namedview
     id="namedview579"
     pagecolor="#ffffff"
     bordercolor="#000000"
     borderopacity="0.25"
     inkscape:showpageshadow="2"
     inkscape:pageopacity="0.0"
     inkscape:pagecheckerboard="0"
     inkscape:deskcolor="#d1d1d1"
     inkscape:document-units="mm"
     showgrid="false"
     inkscape:zoom="0.74390084"
     inkscape:cx="311.86952"
     inkscape:cy="915.44459"
     inkscape:window-width="1712"
     inkscape:window-height="933"
     inkscape:window-x="86"
     inkscape:window-y="98"
     inkscape:window-maximized="0"
     inkscape:current-layer="svg646" /><defs
     id="defs643" /><path
     id="path1"
     style="display:inline;fill:#4a8fff;fill-opacity:1;stroke-width:0.180138"
     inkscape:label="bridgetown"
     d="M 86.250549,0.00155029 C 83.291942,0.04355025 81.08203,0.97171107 79.542432,2.0283 78.191403,2.955459 76.415924,5.2885543 75.627425,7.4372721 74.759596,9.8021898 74.058042,12.476917 73.109233,14.788245 72.370223,12.801327 71.680508,10.803278 71.095919,8.7648397 71.209439,8.5587599 71.817842,8.3814617 71.504163,8.1064819 70.526434,7.9456121 69.484879,7.957615 68.49401,8.0868449 c -0.244669,0.5894894 0.884484,0.3431364 0.705384,0.9126058 -0.67015,1.8722983 -1.250946,3.8114473 -1.947685,5.6911253 -0.705679,-1.952268 -1.439668,-3.921816 -1.912028,-5.9355548 0.15265,-0.1912998 0.76154,-0.4247066 0.357601,-0.6857463 -1.049709,-0.1113599 -2.114725,-0.1379113 -3.160014,0.027389 -0.0945,0.6273894 0.891508,0.425666 1.030428,0.9637655 0.812049,1.3227496 1.112147,2.9525986 1.691887,4.4085166 0.455329,1.321989 0.806863,2.718292 1.529622,3.91914 0.454809,0.27677 0.645159,-0.487846 0.789099,-0.776696 0.862129,-2.111088 1.566421,-4.28134 2.331641,-6.428548 0.895699,2.390858 1.517158,4.927219 2.717146,7.177855 0.49423,0.210541 0.657858,-0.562156 0.816488,-0.882116 1.179999,-2.888416 3.43782,-8.6558874 3.93206,-9.5957965 2.179348,-4.1445958 4.672026,-4.8954685 6.550504,-5.3169881 1.795689,-0.4029596 4.733665,-0.5071285 8.119401,0.4614705 1.622109,0.4640596 2.622396,1.2019517 3.078366,2.1559408 0.283029,0.5921694 0.135144,1.4171809 0.147794,2.2231201 0.0543,3.4575066 0.42175,9.5239412 -0.364319,11.0551392 -0.442069,0.86108 -1.627093,2.276383 -4.95732,1.657264 -2.310498,-0.42954 -3.061341,-1.392596 -3.61735,-2.859774 -0.877139,-1.905288 -0.573697,-4.071237 -0.882117,-6.095235 -0.19583,-1.1310801 -1.072961,-2.243658 -2.30942,-2.225188 -1.479118,-0.2013998 -2.903262,0.6145108 -3.748091,1.7967896 -0.26534,0.0221 -0.162607,-0.6115094 -0.08992,-1.1053589 0.0507,-0.3448697 0.174642,-0.8363635 -0.195337,-0.7420736 -0.761719,0.1941398 -1.6888,0.3655981 -2.252059,0.8691976 0.0577,0.6047294 0.89615,0.2875517 0.88315,1.2934613 -0.005,0.40395 0,6.370671 0,6.370671 -0.27974,0.33968 -0.955532,0.442548 -1.013891,0.904337 0.643719,0.135629 1.363305,0.02532 2.033984,0.08372 0.495639,-0.016 1.095055,0.004 1.506885,-0.218591 0.15136,-0.593169 -0.89651,-0.277627 -0.79375,-0.882118 -0.26845,-1.595327 -0.13416,-3.274448 0.12299,-4.858617 0.382329,-1.298919 1.568753,-2.5640414 2.973462,-2.5455815 1.109648,0.1783699 1.567186,1.4371055 1.429886,2.4380945 0.035,1.725448 -0.02542,3.45116 -0.04703,5.176427 -0.33147,0.2641 -0.968129,0.250632 -1.122929,0.657841 0.42627,0.302911 1.123276,0.163472 1.632975,0.357601 1.641579,0.23762 3.41645,1.809516 4.912879,2.338876 2.031728,0.718749 4.055323,0.955006 6.3531,-2.278931 0.29382,-0.41351 0.522674,-1.415674 1.144633,-0.920874 1.888028,1.502008 5.047565,0.882914 6.231145,-1.256254 0.77639,-1.403779 0.8002,-3.146062 0.3545,-4.658631 -0.53479,-1.7795577 -2.30335,-3.1982961 -4.206979,-3.0013662 -0.899209,0.0469 -1.773018,0.3919133 -2.458247,0.9673828 6.2e-4,-1.055919 0.0087,-1.7861627 -0.0083,-2.3745321 8e-5,-0.8266092 -0.114132,-1.832614 0.128158,-2.1890137 0.25808,-0.3796596 1.339287,-0.5418349 0.939477,-0.8185547 C 97.477879,3.0835819 96.337675,3.5948724 95.231396,2.8566732 94.333547,2.2575538 91.616061,0.67672646 89.461723,0.28318685 88.306294,0.07211706 87.236758,-0.01243969 86.250549,0.00155029 Z M 3.6586914,2.9176514 C 3.4618112,2.9061669 3.2614676,2.9316262 3.0768148,3.0003337 2.3010866,3.2889734 1.0881589,3.4584224 0.7053833,3.3119425 0.43753357,3.2094526 -0.06029276,3.3029355 0.00620117,3.4855754 0.10205108,3.7486251 0.62047783,4.3018945 1.460376,4.5382243 c 0.7251203,0.2040298 0.4771596,1.0390471 0.4898926,1.8500163 0.05614,3.5772464 -0.06787,7.1586244 0.1142049,10.7306114 -0.02339,0.365139 0.3807082,0.535571 0.631486,0.274402 0.3147947,-0.17395 0.4724423,-0.770611 0.8640299,-0.673861 1.9412351,1.457778 5.0789307,0.887985 6.2699016,-1.264522 0.781235,-1.412549 0.805573,-3.164994 0.357084,-4.687053 C 9.6488503,8.9771696 7.8691428,7.5491709 5.9536418,7.7473307 5.0488427,7.7944307 4.1693873,8.1413285 3.479891,8.7203979 3.4805149,7.657889 3.4889227,6.9234459 3.4716227,6.3313965 3.4717127,5.4996473 3.357012,4.4875766 3.6008138,4.1289469 3.8605145,3.7469373 4.8905462,3.5698734 4.5222046,3.2478638 4.3047242,3.0577452 3.9868251,2.9367921 3.6586914,2.9176514 Z M 106.17026,3.1920532 c -0.70411,0.1732898 -1.54422,0.1478386 -2.09186,0.677478 -0.15232,0.5053795 0.61484,0.5251806 0.7643,0.7953003 0.0332,3.8756762 0.0665,7.7510545 0.0997,11.6266805 -0.38002,0.30736 -0.76133,0.613518 -1.1405,0.921908 1.38725,0.107679 2.85974,0.301952 3.96514,1.226281 2.30013,1.563899 4.70416,3.251451 7.55871,3.51038 3.62027,0.46052 7.22239,-0.761047 10.32908,-2.642216 1.00515,-0.608599 1.99585,-1.512983 3.11454,-1.256254 -0.83997,0.843399 -0.47869,2.109851 -0.0129,2.718181 0.9769,1.322478 2.8392,1.446143 4.33152,1.163753 1.32315,-0.23024 2.72867,-1.165241 2.80758,-2.624129 0.33218,-2.505778 0.17708,-5.044929 0.2589,-7.565947 0.0122,-1.267148 0.067,-2.5500664 -0.11472,-3.8033852 -0.23011,-0.4158396 -0.74354,0.022793 -0.92553,0.2775025 -0.14702,0.1926898 -0.42608,0.571598 -0.66714,0.2733683 -0.83781,-0.5847094 -1.88981,-0.8212153 -2.9006,-0.7162354 -2.2277,0.1878699 -3.94802,2.3836508 -3.79873,4.5790488 -0.0694,1.751028 0.53323,3.751529 2.19831,4.596619 1.45051,0.805719 3.48438,0.77884 4.69997,-0.447518 -0.002,1.443288 0.0977,3.153541 -1.13946,4.14755 -1.04569,0.770639 -2.82896,0.622297 -3.47679,-0.625801 -0.28604,-0.56531 -0.39963,-1.104591 -0.1571,-1.63866 0.32971,-0.0612 0.58868,-0.170558 0.75345,-0.391708 -8.2e-4,-0.226819 -0.14294,-0.198634 -0.29766,-0.254764 -1.58619,-0.57526 -3.07921,-0.142587 -3.87728,0.277502 -3.46161,1.822108 -7.41644,2.84959 -11.34143,2.47065 -2.64997,-0.195159 -5.3902,-1.164975 -7.09569,-3.295923 -1.46856,-1.727898 -1.43238,-4.128226 -1.51825,-6.264733 -0.0777,-2.5502782 0.0756,-5.1206399 -0.20309,-7.6568974 -0.0274,-0.0392 -0.0682,-0.089231 -0.12248,-0.078031 z M 29.142407,3.2959229 c -0.626809,0.1717098 -1.428404,0.2361211 -1.855184,0.7441406 0.0087,0.5675994 0.976304,0.4148766 0.882634,1.037146 0.13784,1.1655988 0.104985,2.5406743 0.0646,3.6152832 -1.937717,-1.7804482 -5.422561,-0.7928457 -6.368603,1.5999023 -0.733232,1.708928 -0.520824,3.777199 0.371037,5.384167 0.812087,1.314669 2.420069,1.97019 3.928442,1.76165 0.837374,-0.005 1.601911,-0.45158 2.22312,-0.948779 0.37894,0.340949 0.632301,0.932295 1.25212,0.907955 0.556289,0.0521 1.413514,-0.188002 1.484664,-0.815971 -0.1254,-0.6034 -1.215403,-0.0615 -1.111043,-0.824239 -0.28445,-2.951317 -0.04569,-5.9510328 -0.165365,-8.9229698 -0.0199,-1.1120489 0.07359,-2.2871265 -0.296106,-3.3450155 -0.095,-0.1313599 -0.247961,-0.2055898 -0.410311,-0.1932698 z m -10.124963,0.037207 c -1.19103,0.008 -2.355839,0.8414717 -2.860291,1.7678507 -0.766843,1.4082186 -1.722213,3.1512454 -2.532145,4.536674 -0.02092,-0.5901794 0.133229,-1.3950585 -0.285254,-1.824178 -0.73593,0.0837 -1.635626,0.1963823 -2.173511,0.6624918 0.06096,0.6016294 1.117298,0.5958451 0.882634,1.2929444 V 16.31735 c -0.279744,0.33123 -0.949597,0.450997 -1.004073,0.896586 0.495826,0.16811 1.124046,0.008 1.664498,0.08837 0.613547,-0.004 1.330795,0.0405 1.865002,-0.209289 0.179026,-0.60417 -0.916812,-0.281351 -0.787032,-0.91519 -0.287052,-1.442789 -0.09313,-2.954471 0.0088,-4.387329 0.38075,-1.582989 1.383957,-2.9073611 2.189014,-4.3010297 0.521738,-0.7847892 1.32639,-2.0471701 2.129586,-2.5905395 0.23672,-0.1601099 0.661425,-0.3665721 1.159102,-0.3462321 1.254403,0.0513 1.441577,1.9318942 0.134359,2.102714 -0.223704,0.032 0.123986,-0.1340502 0.170532,-0.38809 C 19.7099,5.5509684 19.127928,5.14922 18.593697,5.22087 c -0.168771,0.0226 -0.420866,0.156404 -0.538468,0.2325439 -0.343005,0.2220898 -0.56094,1.2414518 0.310058,1.7006714 0.981294,0.5173695 2.813222,-0.2849954 2.870626,-1.5389242 0.07536,-1.6461883 -1.227577,-2.2888312 -2.218469,-2.2820312 z m 33.02124,1.92288 v 5.168e-4 c -0.0197,-0.008 -0.03846,-0.00801 -0.05426,0.018087 -0.863119,0.7981392 -0.892028,2.3421019 -2.167827,2.7068116 -0.339529,0.1079299 -0.66385,0.7046318 -0.146761,0.8030517 0.33741,0.2015598 0.896034,-0.1780127 1.109493,0.177767 0.0177,2.297258 -0.05237,4.617336 0.04703,6.900354 0.29465,0.281779 0.583145,0.587351 0.872815,0.889351 1.470158,1.630558 3.08615,3.199341 5.211568,3.936711 3.076077,1.067159 7.136768,0.0483 9.784416,-1.292945 1.065479,-0.539739 3.724319,-2.671309 7.331335,-0.06356 -3.240367,-2.813547 -5.414707,-1.618891 -7.698755,-0.702282 -1.768758,0.709809 -4.5815,1.263393 -6.607348,1.059883 -2.067738,-0.20772 -3.568948,-0.6707 -4.991427,-1.689819 -1.271579,-0.911009 -2.097913,-2.036999 -2.184363,-2.951758 -0.219829,-2.326258 -0.141101,-4.101976 -0.185001,-6.2151241 0.924489,-0.0682 1.923665,0.1781612 2.791044,-0.2030884 0.341239,-0.5303095 -0.525169,-0.7086615 -0.892969,-0.6433716 -0.632629,-0.008 -1.265386,-0.010302 -1.898075,-0.0093 -0.0744,-0.8831492 0.1826,-1.9018965 -0.262,-2.6933757 -0.0186,-0.004 -0.03921,-0.019905 -0.05891,-0.027905 z m 92.425886,0.5002279 c -1.39981,0.1050599 -2.26131,1.3934495 -3.08354,2.3734985 -0.36392,0.4677896 -0.7426,1.1434734 -1.01234,1.532723 -0.0227,-0.6113594 0.10771,-1.3639582 -0.22169,-1.8753377 -0.74326,-0.0202 -1.48091,0.2400387 -2.14974,0.5208984 -0.17807,0.4481696 0.4935,0.5936105 0.71779,0.8480103 0.30441,0.4558595 0.0312,1.0467327 0.1235,1.5632117 v 5.633765 c -0.42037,0.31285 -0.84027,0.625954 -1.2609,0.938444 1.23474,-0.0671 2.52551,0.160431 3.72225,-0.151929 0.23526,-0.328839 -0.33999,-0.465896 -0.55862,-0.508496 -0.47261,-0.491429 -0.27948,-1.248991 -0.34055,-1.857251 0.0311,-1.548438 -0.12408,-3.204883 0.74104,-4.578532 0.71958,-1.3508687 1.82557,-2.7917509 3.44527,-3.0039507 0.50726,-0.0681 1.00483,0.053784 1.48931,0.091984 0.43719,-0.3956896 -0.08,-1.033439 -0.44751,-1.2810588 -0.34091,-0.2146998 -0.77104,-0.2505598 -1.16427,-0.2459797 z M 59.664058,7.7302775 c -0.223319,-0.0197 -0.449578,-0.019233 -0.675927,0.00207 -2.211128,0.1465798 -3.82785,2.2957815 -3.84576,4.4255695 -0.21366,2.060118 0.687534,4.499732 2.800862,5.193482 1.755058,0.630659 4.004532,0.02989 4.856551,-1.72651 0.985239,-1.520398 1.021133,-3.516275 0.422714,-5.183663 -0.55996,-1.4728489 -1.995221,-2.572439 -3.55844,-2.7104288 z m 95.893892,0.00103 c -0.0985,-0.002 -0.19802,0.00399 -0.29818,0.014986 -1.44083,0.0509 -2.87468,1.3877395 -2.65616,2.8845785 0.42269,1.295428 1.84019,1.80398 2.88767,2.483569 0.82205,0.46564 1.90968,0.975008 2.07791,2.014347 0.0676,0.841789 -0.75155,1.45578 -1.5415,1.40715 -1.19158,0.172719 -2.47738,-0.384572 -3.0391,-1.483631 -0.10691,-0.22563 -0.51206,-0.651975 -0.57929,-0.190686 -0.13333,0.722089 -0.0292,1.452368 -0.0455,2.169377 0.0124,0.2599 0.23407,0.451821 0.41651,0.199471 0.34366,-0.49897 0.88661,0.0367 1.33428,0.0615 1.41524,0.361279 3.19525,0.280215 4.20853,-0.903304 0.61644,-0.902459 0.61699,-2.227631 -0.0119,-3.11919 -1.03748,-1.308838 -2.95231,-1.51144 -3.99614,-2.780709 -0.46445,-0.5452991 -0.2639,-1.4635 0.45578,-1.6608798 1.1778,-0.4847695 2.61356,0.3232418 2.9497,1.5218708 0.0647,0.26545 0.48091,0.528561 0.59014,0.146761 0.14445,-0.8521793 0.17284,-1.7436696 -0.006,-2.5874387 -0.30953,-0.3425197 -0.53668,0.2559913 -0.76791,0.3767212 -0.63903,-0.2371898 -1.28939,-0.5437882 -1.97869,-0.5544882 z m -44.79572,0.014469 c -0.0118,-0.006 -0.0234,-0.0099 -0.0372,0.0031 -0.73486,0.1159999 -1.49192,0.2372502 -2.14508,0.6164999 0.0755,0.5655694 0.97387,0.6229014 0.86661,1.2567708 0.18355,2.2511478 -0.25494,4.6443778 0.68988,6.7690958 0.42979,0.786519 1.35492,1.148128 2.21847,1.065568 1.36825,0.0485 2.71165,-0.663413 3.41736,-1.842782 0.23876,-0.29742 0.0483,0.459384 0.11111,0.617533 -0.0218,0.39557 -0.11622,1.197475 0.46612,1.189075 0.60247,-0.0499 1.16476,-0.338885 1.70997,-0.574125 0.32854,-0.15097 0.26584,-0.604542 -0.0816,-0.680062 -0.6566,-0.296639 -0.38925,-1.126017 -0.48886,-1.690335 -0.0842,-2.171868 0.0385,-4.360284 -0.23513,-6.5189825 -0.23385,-0.4299395 -0.79044,-0.050869 -1.14773,-0.014469 -0.39002,0.1343699 -0.9724,0.1885947 -1.16789,0.5694743 0.14035,0.4508296 0.90513,0.4743125 0.80719,1.0330119 0.0553,1.4124993 0.23798,2.8628653 -0.0408,4.2524533 -0.41287,1.407349 -1.62203,2.859485 -3.21945,2.725415 -0.80063,-0.0637 -1.20414,-0.84169 -1.30689,-1.550809 -0.25885,-1.476249 -0.078,-2.997215 -0.16485,-4.496883 -0.0254,-0.89837 0.0462,-1.8540264 -0.21498,-2.7078456 -0.0125,-0.004 -0.0244,-0.014387 -0.0362,-0.021187 z m 51.78961,5.168e-4 c -1.44108,0.0508 -2.87479,1.3877595 -2.65617,2.8845787 0.42369,1.295758 1.83923,1.804946 2.88871,2.484086 0.8215,0.466109 1.90958,0.975888 2.07532,2.015897 0.0672,0.8351 -0.75176,1.457869 -1.5415,1.405599 -1.1942,0.1699 -2.46854,-0.381398 -3.03754,-1.484147 -0.10798,-0.22581 -0.51293,-0.652605 -0.58085,-0.190686 -0.13503,0.722319 -0.0274,1.453458 -0.045,2.170927 0.0121,0.25871 0.23511,0.450951 0.41755,0.199471 0.34385,-0.501749 0.88698,0.03709 1.33584,0.06149 1.4142,0.35864 3.18583,0.276936 4.20439,-0.898653 0.63859,-0.935359 0.62007,-2.326813 -0.0816,-3.219442 -1.06688,-1.225359 -2.87571,-1.431711 -3.91397,-2.67994 -0.44417,-0.5086494 -0.32785,-1.3925674 0.35657,-1.6278071 1.22056,-0.5860494 2.72048,0.2884682 3.06958,1.5384071 0.10036,0.25264 0.45271,0.430029 0.54725,0.0832 0.20617,-0.6648294 0.0685,-1.3933106 0.1111,-2.0825599 0.004,-0.2793697 -0.17687,-0.8324555 -0.50694,-0.5069458 -0.16988,0.2372998 -0.39888,0.5400722 -0.69557,0.2775024 -0.60305,-0.2917697 -1.27135,-0.4875613 -1.94716,-0.4309814 z m -15.07815,0.00465 c -0.14778,0.004 -0.29288,0.011721 -0.43357,0.025321 -1.29928,0.0734 -2.82,0.8024413 -3.02617,2.2215699 -0.0977,0.7522098 0.7765,1.6060238 1.48983,1.1699548 0.28039,-0.62377 -0.33339,-1.4581821 0.3514,-1.9290816 0.93565,-0.998229 2.9609,-0.6650409 3.27319,0.7462076 0.17585,0.50134 -0.15896,0.995363 -0.64131,1.127063 -1.49054,0.861709 -3.39727,1.148607 -4.52117,2.548165 -0.69588,1.106819 -0.51492,2.893718 0.78031,3.480408 1.02717,0.474669 2.27076,0.443072 3.31711,0.04909 0.54423,-0.262209 0.97704,-0.692767 1.39888,-1.113627 1.89737,2.107918 3.95181,4.245953 6.7474,5.196582 3.65003,1.241169 8.46849,0.05619 11.61014,-1.503784 1.26429,-0.627749 4.41916,-3.106864 8.69921,-0.0739 -3.84499,-3.272327 -6.42458,-1.883073 -9.13484,-0.817005 -2.09879,0.82555 -3.50314,1.52257 -7.94784,1.44384 -2.4655,-0.0437 -3.75122,-0.201223 -6.40581,-1.807642 -1.46121,-0.884259 -2.1464,-2.76979 -2.14767,-4.472078 -0.19963,-1.687208 0.003,-3.494204 -0.68161,-5.0927127 -0.5378,-0.944609 -1.693,-1.2181564 -2.72748,-1.1983764 z M 123.1408,7.775236 c -0.18197,-0.003 -0.36427,0.00499 -0.54467,0.021187 -1.99802,0.2064098 -3.58475,2.0797042 -3.57342,4.070553 -0.17113,1.589708 0.0949,3.360839 1.31775,4.502567 0.69422,0.77338 1.72698,1.163635 2.75745,1.101225 1.38839,0.0631 2.84012,-0.466191 3.6959,-1.58905 0.16281,-0.22356 0.0384,-0.60115 -0.27543,-0.479041 -0.70153,0.15883 -1.32601,0.589689 -2.07275,0.576709 -1.12589,0.16714 -2.38573,-0.22182 -3.07423,-1.194759 -0.68076,-0.827779 -0.99934,-1.896432 -1.08779,-2.951241 h 6.48023 C 126.63948,10.405148 126.15889,8.7426966 124.72675,8.1168172 124.2311,7.8837975 123.68668,7.783506 123.1408,7.775236 Z m -103.562667,0.00517 -0.07596,0.010335 c -0.73834,0.1310499 -1.665434,0.2000927 -2.211235,0.6816122 0.05814,0.6027794 1.115659,0.6045691 0.88315,1.2970784 v 6.5505044 c -0.280696,0.34032 -0.953095,0.442128 -1.011824,0.904338 0.643676,0.13632 1.363284,0.02477 2.033984,0.08216 0.496483,-0.0146 1.075472,4.5e-4 1.502751,-0.209289 0.195521,-0.57621 -0.849623,-0.289678 -0.734322,-0.866097 C 19.592129,14.315163 19.843723,12.347078 19.73833,10.40815 19.73293,9.5298507 19.71119,8.6502795 19.578133,7.7809204 Z M 36.019507,7.80211 c -0.23349,-0.0128 -0.46838,-0.00703 -0.701249,0.01757 -2.318768,0.1913098 -4.02334,2.54705 -3.78995,4.805908 -0.0466,1.843778 0.81592,3.903254 2.669088,4.551143 1.353688,0.54128 3.068662,0.432506 4.152201,-0.619083 0.0101,1.436228 0.07329,3.273621 -1.328084,4.12998 -1.091119,0.656839 -2.910632,0.323711 -3.291272,-1.062467 -0.17454,-0.51565 0.0624,-1.051224 0.131258,-1.534274 -0.584079,-0.553509 -1.636431,0.01489 -1.767851,0.750342 -0.303489,1.389719 0.851433,2.719586 2.176612,2.992066 1.485068,0.377869 3.200317,0.143037 4.440555,-0.785482 1.033719,-0.819999 1.050768,-2.208912 1.080038,-3.408061 0.12313,-3.122127 0.15918,-6.254291 0.07028,-9.3751379 C 39.891433,7.7373823 39.219155,7.6925147 38.991935,8.0837443 38.756825,8.397694 38.3802,8.878198 38.0137,8.4056885 37.410271,8.0455888 36.719966,7.8405277 36.019507,7.8021077 Z m 9.695532,0.039791 c -0.30125,-0.0252 -0.605555,-0.019132 -0.906405,0.00517 -2.069567,0.2306398 -3.6243,2.247206 -3.54552,4.287594 -0.151149,1.613308 0.267087,3.367739 1.543575,4.452958 1.210589,1.118199 3.104303,1.056579 4.572331,0.54622 0.68185,-0.32526 1.492116,-0.802566 1.722376,-1.546676 -0.16429,-0.530379 -0.830205,-0.05532 -1.153935,0.04237 -1.488109,0.617939 -3.492896,0.432108 -4.418335,-1.044381 -0.568109,-0.778059 -0.845922,-1.734375 -0.927592,-2.685624 h 6.406327 C 48.905291,10.338884 48.263132,8.4971948 46.602323,8.0181152 46.314364,7.9222153 46.016289,7.8671186 45.715039,7.8418986 Z M 5.4859701,8.6604533 c 0.1385998,-0.006 0.2779208,0.00399 0.4149617,0.027388 1.980324,0.3214697 3.1850919,2.4443417 3.102653,4.3361687 0.07034,1.12797 0.029129,2.517539 -1.0541992,3.184819 -0.991086,0.66852 -2.3811515,0.457907 -3.1910197,-0.402042 C 3.8087098,14.965818 3.4591227,13.677306 3.5155477,12.454537 3.5004377,11.318418 3.3027563,9.8809792 4.3299683,9.10177 4.6603449,8.8256703 5.0701685,8.6771033 5.4859701,8.6604533 Z m 93.2992149,0.00413 c 0.13774,-0.006 0.276188,0.00399 0.412378,0.027388 1.968027,0.3194497 3.164947,2.4286827 3.083017,4.3087807 0.0699,1.120939 0.0291,2.502032 -1.04748,3.165181 -0.98496,0.66438 -2.366536,0.455161 -3.171385,-0.399459 -0.943779,-0.835749 -1.291137,-2.11637 -1.235067,-3.331579 -0.015,-1.129089 -0.211596,-2.5577068 0.809253,-3.3320961 0.32829,-0.2743797 0.736054,-0.4216761 1.149284,-0.4382156 z m 32.785595,0.014986 c 0.11946,8.2e-4 0.23843,0.011056 0.35605,0.029456 1.77421,0.3269497 2.8289,2.2371267 2.69544,3.9439447 -0.032,1.030019 0.23775,2.192824 -0.39532,3.085083 -0.67666,0.88945 -2.00622,1.183801 -2.93781,0.515731 -1.46937,-0.880309 -2.22996,-2.642103 -2.12545,-4.313432 -0.0424,-1.117568 0.14594,-2.6064178 1.35703,-3.0587274 0.33024,-0.1340698 0.69169,-0.2057748 1.05006,-0.2020553 z m -8.75244,0.019637 c 1.16583,0.1203099 1.98865,1.2359884 2.24018,2.2985677 -0.48314,0.13583 -1.02919,-0.04896 -1.5441,0.02584 -1.06224,-0.0107 -2.13037,0.07981 -3.17241,-0.127641 0.24514,-1.1458398 1.18645,-2.3380755 2.47633,-2.1967667 z m -64.025546,0.07028 c 1.885068,0.0362 3.031442,1.9691867 3.222542,3.6597247 0.21325,1.311799 0.161246,3.059964 -1.146183,3.826124 C 59.305714,17.024004 57.409669,15.809504 57.00634,14.217216 56.43526,12.688458 56.174978,10.754 57.291077,9.4076902 57.688556,9.0147806 58.230064,8.7682963 58.792794,8.7694863 Z m -33.58193,0.011885 c 0.125664,9e-5 0.250802,0.00897 0.373104,0.026872 1.65718,0.2876297 2.710785,2.0502827 2.656685,3.6571407 0.0421,1.210509 0.198815,2.633591 -0.695564,3.59668 -1.226996,1.018159 -3.043737,0.238162 -3.785299,-1.021127 -0.999025,-1.414908 -1.054536,-3.308703 -0.611332,-4.912361 0.269316,-0.9109294 1.182767,-1.3478245 2.062406,-1.3472047 z m 9.950297,0.00517 c 0.17295,-0.01 0.346955,-0.002 0.518315,0.021704 1.795588,0.3260397 2.824689,2.2982297 2.640149,4.0121577 0.0349,1.158009 0.266052,2.653173 -0.899687,3.364653 -0.939739,0.718209 -2.222372,0.325677 -2.968811,-0.451652 -1.253019,-1.124399 -1.601885,-2.822157 -1.436605,-4.434355 -0.002,-1.012869 0.483464,-2.2263919 1.635043,-2.4272417 0.166859,-0.0473 0.338646,-0.075266 0.511596,-0.085266 z m 9.676929,0.011886 c 1.262269,-0.0424 2.099272,1.144524 2.443262,2.2401737 -1.541389,-0.0467 -3.11521,0.115678 -4.627108,-0.130742 0.25438,-1.0061992 1.032477,-2.1306917 2.183846,-2.1094317 z m 104.31405,3.1367597 c 0.0141,0.17263 0.0279,0.345695 0.0419,0.518314 -0.0171,1.168619 -0.0867,2.466254 -0.82372,3.434933 -0.76825,0.837969 -2.41962,0.976527 -3.05253,-0.07958 -0.44627,-0.984599 0.0649,-2.258854 1.09813,-2.615344 0.87871,-0.4874 1.81838,-0.852032 2.73627,-1.258321 z" /></svg>
