<?xml version="1.0" encoding="UTF-8" standalone="no"?>
<!-- Created with Inkscape (http://www.inkscape.org/) -->

<svg
   width="197.76852mm"
   height="57.292145mm"
   viewBox="0 0 197.76852 57.292145"
   version="1.1"
   id="svg5"
   xml:space="preserve"
   xmlns="http://www.w3.org/2000/svg"
   xmlns:svg="http://www.w3.org/2000/svg"><defs
     id="defs2" /><path
     d="m 160.8201,36.564252 c 0,-0.0143 0.001,-0.0291 -0.001,-0.0433 -3e-4,-0.003 -0.02,-0.007 -0.022,-0.005 -0.01,0.0122 -0.012,0.0263 -0.018,0.0398 0.014,0.003 0.028,0.006 0.041,0.008 m 6.5137,0.0531 c 0.01,-0.004 0.025,-0.01 0.024,-0.0113 0,-0.0157 -0.012,-0.0306 -0.018,-0.0458 -0.01,0.004 -0.024,0.01 -0.024,0.0109 0,0.0158 0.011,0.031 0.017,0.0462 m -61.99,-7.84459 c -0.014,-0.0102 -0.028,-0.0203 -0.042,-0.0304 -0.01,0.0142 -0.028,0.0312 -0.025,0.0419 0,0.0132 0.026,0.0212 0.04,0.0315 0.01,-0.0143 0.018,-0.0286 0.027,-0.0431 m -37.163238,4.22938 c -0.0453,0.0424 -0.0968,0.079 -0.0923,0.0885 0.0189,0.0389 0.0507,0.076 0.087,0.0992 0.01,0.006 0.077,-0.0417 0.075,-0.0604 -0.004,-0.0376 -0.0371,-0.0722 -0.0697,-0.12731 m 23.45934,0.99922 c -0.082,-0.0694 -0.1253,-0.13639 -0.1752,-0.142 -0.1217,-0.0136 -0.1796,0.074 -0.1691,0.18419 0,0.0504 0.063,0.0958 0.098,0.1435 0.072,-0.0539 0.1429,-0.10766 0.2467,-0.18569 m -10.0584,1.95017 c -0.2106,-0.007 -0.3683,0.081 -0.3781,0.18842 -0.01,0.0967 0.036,0.14959 0.1384,0.14685 0.1746,-0.005 0.3616,-0.12196 0.3364,-0.22351 -0.013,-0.0519 -0.077,-0.0908 -0.097,-0.11176 m 5.1973,-1.04615 c 0.2028,-7e-4 0.2696,-0.047 0.2722,-0.18929 0,-0.15855 -0.076,-0.23359 -0.2397,-0.22762 -0.2013,0.007 -0.2983,0.0778 -0.2972,0.21605 10e-4,0.14424 0.076,0.20136 0.2647,0.20086 m 39.376898,3.2263 c 0.2206,-3.5e-4 0.3372,-0.0759 0.3295,-0.21319 -0.01,-0.12358 -0.1052,-0.17261 -0.3301,-0.16489 -0.2214,0.008 -0.3122,0.0637 -0.3136,0.19352 -10e-4,0.13117 0.091,0.18518 0.3142,0.18456 m -36.436598,-4.04442 c -0.1554,0.0279 -0.2842,0.0419 -0.4066,0.0779 -0.043,0.0126 -0.097,0.0799 -0.096,0.12084 10e-4,0.0353 0.068,0.0879 0.1149,0.0993 0.1332,0.0331 0.27,0.0587 0.4066,0.0678 0.068,0.005 0.1722,-0.0131 0.1986,-0.0572 0.033,-0.055 0.031,-0.17199 -0.01,-0.21829 -0.048,-0.0564 -0.1493,-0.0671 -0.2089,-0.0904 m -9.7231,2.6517 c 0.1506,-0.0567 0.2885,-0.0912 0.4051,-0.16092 0.05,-0.0297 0.08,-0.13577 0.073,-0.20235 0,-0.045 -0.098,-0.12346 -0.1362,-0.115 -0.1527,0.0335 -0.306,0.0819 -0.4439,0.15407 -0.042,0.022 -0.059,0.1425 -0.044,0.20809 0.011,0.0467 0.094,0.0769 0.1462,0.11611 m 8.2023,-2.44835 c 0,-0.006 0,-0.0108 0,-0.0163 -0.1155,0.0271 -0.2396,0.0371 -0.343,0.0885 -0.052,0.0258 -0.091,0.12744 -0.089,0.1939 7e-4,0.0473 0.084,0.1369 0.1207,0.13242 0.1753,-0.0213 0.3504,-0.0591 0.5183,-0.11338 0.038,-0.0123 0.069,-0.11574 0.063,-0.17286 0,-0.0412 -0.071,-0.0874 -0.1196,-0.10853 -0.042,-0.0182 -0.098,-0.004 -0.1473,-0.004 m -9.8653,2.95574 c 0.2514,-0.0917 0.4782,-0.16477 0.6946,-0.26098 0.049,-0.0219 0.062,-0.12432 0.092,-0.18978 -0.059,-0.0236 -0.1245,-0.0773 -0.1755,-0.0658 -0.2226,0.0497 -0.4418,0.11549 -0.6603,0.18157 -0.082,0.0248 -0.1524,0.0831 -0.1072,0.17622 0.029,0.0607 0.099,0.10231 0.1566,0.15881 m 44.695098,0.95952 c 0.062,0 0.082,7.1e-4 0.1015,-1.2e-4 0.2158,-0.008 0.2608,-0.0396 0.2731,-0.19029 0.015,-0.18431 -0.049,-0.26595 -0.2483,-0.29682 -0.087,-0.0134 -0.1773,-0.0125 -0.2659,-0.0103 -0.1459,0.004 -0.2085,0.0925 -0.2206,0.22825 -0.013,0.14511 0.062,0.22252 0.1963,0.24903 0.068,0.0133 0.137,0.017 0.1639,0.0203 m -48.573598,-0.30541 c -0.014,0.22239 0.035,0.25637 0.184,0.21518 0.2188,-0.0602 0.4404,-0.11052 0.6616,-0.16229 0.1014,-0.0236 0.2041,-0.0464 0.1827,-0.18381 -0.02,-0.13031 -0.1226,-0.14773 -0.227,-0.13317 -0.2161,0.0299 -0.4344,0.0558 -0.6442,0.11164 -0.074,0.0199 -0.1273,0.12184 -0.1571,0.15245 m -4.35765,0.30192 c 0.0589,0 0.11797,0.002 0.17684,-3.5e-4 0.11599,-0.005 0.21941,-0.0297 0.22526,-0.17511 0.006,-0.13615 -0.0534,-0.23048 -0.19302,-0.25201 -0.11612,-0.0181 -0.23422,-0.0297 -0.35171,-0.0314 -0.19377,-0.003 -0.24591,0.0444 -0.25077,0.20485 -0.005,0.17386 0.0548,0.23683 0.24604,0.25375 0.0487,0.004 0.0982,7.1e-4 0.14736,2.5e-4 m 14.35605,-2.90994 c 0,-0.21343 -0.071,-0.31611 -0.2239,-0.31337 -0.2521,0.005 -0.3939,0.12445 -0.3991,0.33801 0,0.22277 0.058,0.31275 0.219,0.31138 0.2456,-0.002 0.4018,-0.13204 0.404,-0.33602 m -12.7525,2.52327 c -0.1305,0.0104 -0.25,0.0113 -0.366,0.0319 -0.1133,0.0202 -0.1271,0.11724 -0.1111,0.20933 0.01,0.0373 0.05,0.0941 0.081,0.0973 0.2541,0.0264 0.5097,0.038 0.7641,0.0632 0.1067,0.0107 0.1751,-0.0136 0.1935,-0.1257 0.018,-0.11014 0,-0.20285 -0.1309,-0.22289 -0.1464,-0.0229 -0.2941,-0.0367 -0.4306,-0.0531 m 13.4254,-2.8507 c 0,0.21828 0.062,0.32444 0.2012,0.30553 0.1364,-0.0186 0.2718,-0.0596 0.4008,-0.1089 0.043,-0.0165 0.084,-0.0849 0.094,-0.13578 0.046,-0.23509 -0.07,-0.35232 -0.3161,-0.32606 -0.069,0.007 -0.1373,0.0223 -0.2049,0.038 -0.1238,0.0289 -0.188,0.10454 -0.1753,0.22725 m -11.7008,3.40995 c 0.085,-0.006 0.1753,-0.005 0.2615,-0.0223 0.043,-0.009 0.096,-0.0426 0.1144,-0.0799 0.053,-0.10392 -0.091,-0.40285 -0.2045,-0.40945 -0.1462,-0.008 -0.2967,0.002 -0.4407,0.0291 -0.112,0.0212 -0.2026,0.18991 -0.1906,0.30416 0.014,0.13503 0.1281,0.13466 0.2204,0.15469 0.077,0.0165 0.1569,0.0162 0.2395,0.0236 m 54.509098,-0.8276 c -0.1999,0.035 -0.3777,0.0559 -0.5498,0.0996 -0.1291,0.0327 -0.187,0.15046 -0.1637,0.27678 0.027,0.14498 0.1388,0.16652 0.2492,0.14262 0.2022,-0.0439 0.4053,-0.0945 0.5977,-0.16901 0.1365,-0.0528 0.1651,-0.21032 0.065,-0.28487 -0.057,-0.0428 -0.1429,-0.048 -0.1989,-0.0651 m -44.782798,-1.85757 c 0.01,-0.23745 -0.058,-0.3512 -0.1941,-0.3237 -0.1712,0.0345 -0.3428,0.0932 -0.4979,0.17299 -0.1213,0.0625 -0.1062,0.33664 0,0.41679 0.1135,0.0825 0.619,-0.0518 0.6709,-0.18058 0.014,-0.0355 0.015,-0.0764 0.017,-0.0855 m 24.216498,-1.33923 c 0.2074,-0.0352 0.2737,-0.0807 0.2947,-0.22962 0.023,-0.16577 -0.038,-0.26023 -0.2156,-0.29159 -0.1745,-0.0309 -0.3525,-0.0449 -0.5294,-0.0585 -0.089,-0.007 -0.2038,-0.002 -0.2109,0.1079 0,0.0728 0.046,0.18481 0.1059,0.21904 0.1759,0.10043 0.3689,0.17074 0.5553,0.25276 m -38.759958,3.85229 v -10e-4 c 0.0592,0 0.11836,10e-4 0.17759,-2.5e-4 0.13566,-0.003 0.22626,-0.0539 0.23348,-0.20634 0.008,-0.17087 -0.0586,-0.28002 -0.21269,-0.29632 -0.15644,-0.0167 -0.31574,-0.0209 -0.47267,-0.0118 -0.0579,0.004 -0.1364,0.0467 -0.1644,0.0953 -0.11114,0.1929 0.008,0.40048 0.2316,0.41953 0.0686,0.006 0.13802,7e-4 0.20709,7e-4 m 55.981458,-0.44728 c -0.094,0.009 -0.2137,0.009 -0.3282,0.0333 -0.114,0.0245 -0.1472,0.12172 -0.1429,0.22912 0,0.11026 0.049,0.19875 0.1723,0.19925 0.2153,7e-4 0.4313,-10e-4 0.6456,-0.019 0.1306,-0.0108 0.1763,-0.11077 0.1668,-0.23559 -0.01,-0.11998 -0.086,-0.17212 -0.1945,-0.18444 -0.098,-0.0111 -0.1964,-0.0143 -0.3191,-0.0226 m -9.3303,-1.85484 c 0.1618,10e-4 0.2514,-0.10205 0.3091,-0.34013 0.028,-0.11474 0.01,-0.20161 -0.1125,-0.23558 -0.143,-0.0411 -0.2886,-0.0737 -0.4346,-0.10268 -0.1193,-0.0236 -0.1844,0.0393 -0.2166,0.15134 -0.087,0.30204 0.1035,0.52431 0.4546,0.52705 m -6.5319,-1.93137 c -3e-4,0.002 -7e-4,0.004 -0.001,0.007 -0.03,-0.003 -0.059,-0.008 -0.089,-0.008 -0.1991,-0.004 -0.2488,0.0382 -0.2725,0.23023 -0.024,0.1888 0.017,0.25364 0.2057,0.29371 0.1456,0.031 0.2941,0.0494 0.4418,0.0699 0.1334,0.0186 0.2333,-0.0132 0.2633,-0.16801 0.036,-0.18543 -0.013,-0.3176 -0.1666,-0.35991 -0.1237,-0.0341 -0.2541,-0.0437 -0.3815,-0.0642 m 12.6634,3.52548 c -0.2237,-0.0118 -0.2715,0.0265 -0.3122,0.20708 -0.039,0.17536 -0.011,0.26111 0.1365,0.31325 0.1395,0.0493 0.2875,0.0765 0.4333,0.10616 0.203,0.0412 0.2601,0.0125 0.3015,-0.13665 0.06,-0.21618 0.01,-0.35543 -0.1712,-0.40771 -0.1423,-0.0417 -0.2909,-0.0622 -0.3879,-0.0821 m -44.970498,0.37834 c 0.3564,-0.12109 0.6848,-0.22675 1.0083,-0.34598 0.1084,-0.04 0.1109,-0.1486 0.04,-0.21866 -0.055,-0.0536 -0.1572,-0.10578 -0.2241,-0.0915 -0.2991,0.0637 -0.5937,0.14922 -0.8884,0.23185 -0.1228,0.0345 -0.1941,0.12682 -0.1392,0.2458 0.033,0.0723 0.1288,0.11586 0.2036,0.17846 m 34.141998,-3.03053 c 0.2407,0.0111 0.3072,-0.0302 0.3417,-0.17685 0.039,-0.1659 0,-0.27753 -0.1597,-0.33154 -0.1759,-0.0607 -0.3602,-0.10006 -0.5434,-0.13553 -0.05,-0.01 -0.1246,0.0111 -0.1611,0.0458 -0.1512,0.14362 -0.083,0.44131 0.1137,0.5008 0.1505,0.0455 0.3062,0.0734 0.4088,0.0973 m 1.6207,0.31275 c 0.1841,0.0122 0.2167,-0.0126 0.2526,-0.18432 0.053,-0.25513 -0.01,-0.37534 -0.2539,-0.45462 -0.1129,-0.0367 -0.2312,-0.0667 -0.3487,-0.0748 -0.057,-0.004 -0.1609,0.0407 -0.169,0.079 -0.032,0.15183 -0.064,0.31474 -0.039,0.46421 0.025,0.14822 0.1906,0.10665 0.3027,0.12768 0.088,0.0166 0.1766,0.0296 0.2556,0.0428 m 8.2407,2.1763 c -0.027,-0.034 -0.069,-0.13454 -0.1425,-0.17 -0.1963,-0.0947 -0.4032,-0.17 -0.6113,-0.23634 -0.1658,-0.0529 -0.2394,-0.004 -0.2932,0.15855 -0.049,0.14723 -0.023,0.21568 0.1262,0.28301 0.1901,0.0857 0.3842,0.16328 0.5774,0.24255 0.2344,0.0961 0.3339,0.0324 0.3434,-0.27777 m -2.0438,-0.28512 c 0.2222,0.0475 0.2817,-0.0457 0.3276,-0.16752 0.077,-0.20322 0.075,-0.29271 -0.051,-0.36601 -0.136,-0.079 -0.2832,-0.14013 -0.4292,-0.20012 -0.2542,-0.10454 -0.3245,-0.0662 -0.3923,0.20784 -0.026,0.10391 -0.075,0.23011 0.045,0.29632 0.1806,0.0997 0.3753,0.17348 0.5,0.22949 m -4.9322,-2.16784 c -0.2353,-0.0136 -0.2857,0.017 -0.3211,0.15818 -0.045,0.17884 -0.01,0.3527 0.1158,0.38917 0.2163,0.0645 0.4402,0.10553 0.6631,0.14374 0.048,0.008 0.1221,-0.0223 0.1547,-0.0602 0.1518,-0.17622 0.055,-0.4835 -0.1728,-0.5441 -0.1618,-0.0432 -0.3292,-0.0655 -0.4397,-0.0867 m 3.8165,1.12006 c -0.032,-0.0468 -0.062,-0.1466 -0.1252,-0.17473 -0.2063,-0.0926 -0.4228,-0.16303 -0.6383,-0.23384 -0.095,-0.0312 -0.1787,0.006 -0.2234,0.0978 -0.043,0.0885 -0.081,0.18008 -0.1111,0.27367 -0.035,0.10989 -4e-4,0.19663 0.1151,0.23509 0.2157,0.0717 0.4314,0.14349 0.649,0.20858 0.1242,0.0372 0.2123,-0.0128 0.2527,-0.13802 0.024,-0.0752 0.046,-0.15121 0.081,-0.26857 m -23.532698,-5.14447 c 0,7e-4 -0.01,0.002 -0.01,0.002 0.024,0.20534 0.027,0.41592 0.077,0.61479 0.054,0.2173 0.2517,0.33204 0.4499,0.30628 0.1896,-0.0248 0.3414,-0.16789 0.3528,-0.38294 0.015,-0.28599 0.01,-0.57398 -0.01,-0.86059 0,-0.0851 -0.041,-0.17448 -0.082,-0.25114 -0.093,-0.17125 -0.2739,-0.25251 -0.4496,-0.21717 -0.1908,0.0383 -0.3211,0.19178 -0.3315,0.40235 -0.01,0.12831 0,0.25725 0,0.38593 m 11.393898,-0.18606 c 0.01,-1.2e-4 0.012,-3.5e-4 0.018,-3.5e-4 -0.01,-0.19763 0,-0.39812 -0.036,-0.59226 -0.036,-0.21941 -0.2188,-0.36254 -0.4123,-0.36303 -0.1961,-3.6e-4 -0.3849,0.141 -0.4006,0.36775 -0.026,0.37436 -0.028,0.75281 0,1.12729 0.016,0.24467 0.2046,0.39115 0.4137,0.38891 0.2196,-0.002 0.3928,-0.16701 0.4173,-0.42301 0.016,-0.16689 0,-0.33664 0,-0.50515 M 64.731152,4.4382721 c -0.45387,0.0484 -0.92866,0.0927 -1.4017,0.15146 -0.43919,0.0545 -0.45823,0.1059 -0.18431,0.44902 0.83059,1.04029 1.66305,2.0791 2.49551,3.1179 0.0432,0.054 0.0865,0.11089 0.13988,0.15357 0.13952,0.11139 0.56191,0.74348 0.68623,0.64155 0.15582,-0.12781 -0.0172,-0.90626 -0.075,-1.05958 -0.0632,-0.16726 -0.12657,-0.3344 -0.19078,-0.5013 -0.33914,-0.88049 -0.67665,-1.76162 -1.01914,-2.64087 -0.114,-0.29284 -0.16142,-0.32034 -0.45065,-0.31175 m 70.926608,-1.24751 c -0.012,-0.007 -0.024,-0.013 -0.035,-0.0193 -0.01,-0.0492 -0.011,-0.0987 -0.02,-0.14723 -0.062,-0.32083 -0.1973,-0.43023 -0.5243,-0.44865 -0.2277,-0.0128 -0.4545,-0.0414 -0.6816,-0.0646 -0.7377,-0.0752 -1.127,0.14163 -1.4012,0.82188 -0.35,0.86831 -0.5752,1.77419 -0.762,2.68979 -0.01,0.0484 -0.015,0.0984 -0.016,0.14785 -0.01,0.26346 0.3474,0.59824 0.6102,0.56812 0.063,-0.007 0.1304,-0.0492 0.1774,-0.0943 0.085,-0.0823 0.1592,-0.17709 0.2336,-0.26994 0.4352,-0.54198 0.8693,-1.08472 1.3034,-1.62758 0.3039,-0.38008 0.6131,-0.75593 0.9069,-1.14359 0.092,-0.12097 0.141,-0.27405 0.2098,-0.41244 m -2.2657,4.92507 c 2e-4,-0.004 7e-4,-0.007 7e-4,-0.0107 0.4058,0.0312 0.8113,0.0701 1.2177,0.0917 0.5143,0.0274 1.0259,0.12507 1.5447,0.0449 0.3572,-0.0551 0.4416,-0.1186 0.4321,-0.46819 -0.013,-0.46595 -0.014,-0.93725 -0.089,-1.39511 -0.097,-0.596 -0.2576,-1.18204 -0.3997,-1.7702 -0.031,-0.12819 -0.032,-0.30354 -0.201,-0.33615 -0.1683,-0.0325 -0.2313,0.13092 -0.3121,0.23609 -0.8239,1.07116 -1.6444,2.14468 -2.4652,3.21808 -0.054,0.0708 -0.1115,0.14125 -0.1533,0.21928 -0.057,0.10604 -0.02,0.17834 0.098,0.18569 0.1081,0.007 0.2178,-0.009 0.3267,-0.0154 M 64.397722,10.685402 c -0.38618,0.0281 -0.77247,0.0523 -1.15815,0.086 -0.16739,0.0147 -0.78654,-0.14785 -0.84217,0.0251 -0.0585,0.18169 0.43882,0.58903 0.57796,0.73289 0.0275,0.0285 0.0595,0.0529 0.0913,0.0765 0.45015,0.3349 2.78213,3.48093 2.87385,3.55373 0.29496,0.23422 0.15582,-0.68871 0.26919,-1.04763 0.0386,-0.12197 0.053,-0.25252 0.0697,-0.38021 0.0295,-0.2265 0.0618,-0.45325 0.0758,-0.681 0.0217,-0.35618 0.0264,-0.71348 0.0434,-1.07004 0.009,-0.18593 0.0128,-0.37447 0.0475,-0.55642 0.0768,-0.40298 0.22812,-0.73178 -0.18357,-0.68636 -0.12532,0.0138 -0.57546,-0.0299 -0.73202,0 -0.36888,-0.0996 -0.75145,-0.0529 -1.13289,-0.0526 m 0.63384,-1.0401699 c 2.4e-4,0.005 3.5e-4,0.009 7e-4,0.0133 0.18867,0 0.37784,0.008 0.56601,-0.002 0.14362,-0.008 0.1771,-0.0739 0.11176,-0.19614 -0.0324,-0.0606 -0.0784,-0.11449 -0.12072,-0.16938 -0.21244,-0.27516 -0.4265,-0.54921 -0.63844,-0.82474 -0.82375,-1.07054 -1.6465,-2.14182 -2.47087,-3.21199 -0.0604,-0.0783 -0.1257,-0.15419 -0.19738,-0.22202 -0.06,-0.0566 -0.12844,-0.0544 -0.17324,0.0248 -0.0292,0.0515 -0.0533,0.10678 -0.0729,0.16266 -0.24069,0.68386 -0.49059,1.36462 -0.7166,2.05321 -0.20546,0.62637 -0.25686,1.28348 -0.33863,1.93349 -0.0192,0.15221 0.0407,0.25127 0.18805,0.29209 0.27678,0.0768 0.55032,0.18469 0.83246,0.21767 0.42264,0.0493 0.85225,0.0711 1.27725,0.0571 0.58505,-0.0193 1.16848,-0.083 1.75254,-0.12757 m 69.029748,-0.4876 c -0.3574,0.0184 -0.7149,0.0363 -1.0723,0.0556 -0.6548,0.0355 -0.8643,0.24554 -0.893,0.8990399 -0.049,1.11783 0.045,2.22384 0.2775,3.31815 0.012,0.0581 0.024,0.11748 0.044,0.17286 0.1313,0.34896 0.472,0.4545 0.7703,0.23322 0.095,-0.0704 0.179,-0.1583 0.2565,-0.24816 0.227,-0.26358 0.4442,-0.53551 0.6723,-0.79798 0.7658,-0.88137 1.2871,-1.93212 1.9868,-2.8595399 0.1822,-0.24156 0.056,-0.57037 -0.2383,-0.63583 -0.3179,-0.0709 -0.633,-0.16415 -0.9688,-0.14125 -0.2771,0.0188 -0.5565,0.004 -0.8353,0.004 M 61.636712,17.149382 c -0.66532,0.0243 -1.33064,0.0485 -1.99596,0.0729 -0.0397,0.001 -0.0815,-0.003 -0.1186,0.008 -0.0548,0.0159 -0.14848,0.0397 -0.15046,0.066 -0.004,0.0575 0.0217,0.13727 0.0643,0.17535 0.20038,0.17796 0.40423,0.35357 0.61853,0.51436 1.21665,0.91273 2.44848,1.80555 3.65043,2.73707 0.61915,0.47977 1.194,1.01803 1.77507,1.54508 0.27279,0.24741 0.41442,0.26882 0.66445,-0.004 0.0697,-0.076 0.12345,-0.18319 0.14374,-0.28425 0.0349,-0.17411 0.0503,-0.35469 0.052,-0.53265 0.008,-0.77509 0.007,-1.55018 0.0107,-2.32539 3.5e-4,-0.089 -0.0103,-0.18743 0.0227,-0.26521 0.15344,-0.36191 0.0487,-0.70303 -0.0642,-1.0449 -0.0962,-0.29171 -0.29408,-0.46782 -0.60459,-0.49968 -0.12793,-0.0132 -0.25762,-0.0179 -0.38617,-0.0153 -0.59613,0.0121 -3.15213,-0.16801 -3.68192,-0.14747 m 70.508368,3.34129 c 0,0.58654 -4e-4,1.17309 4e-4,1.75963 1e-4,0.0894 0,0.18045 0.013,0.26757 0.028,0.1547 0.1219,0.19502 0.2579,0.10678 0.1,-0.0645 0.1887,-0.14573 0.2797,-0.22277 1.1238,-0.95007 2.2472,-1.90063 3.3704,-2.85145 0.7665,-0.64889 1.5336,-1.29704 2.2975,-1.94892 0.2037,-0.17373 0.2344,-0.3232 0.1303,-0.5222 -0.1181,-0.226 -0.274,-0.31051 -0.5134,-0.23484 -0.9249,0.29284 -1.869,0.23957 -2.81,0.1476 -0.7647,-0.0747 -1.5281,-0.0901 -2.2941,-0.066 -0.079,0.002 -0.1593,0.0121 -0.2358,0.0314 -0.2387,0.0601 -0.3521,0.19502 -0.3737,0.43981 -0.012,0.12856 -0.015,0.25762 -0.025,0.3863 -0.032,0.44504 -0.078,0.88971 -0.094,1.33537 -0.016,0.45662 0,0.91448 0,1.37172 m -67.790108,-4.02736 c 1.2e-4,0.004 0.23957,0.0137 0.3588,0.009 0.43023,-0.0154 1.19536,0.16552 1.022,-0.22899 -0.28948,-0.65873 -1.3136,-1.68272 -1.85297,-2.14904 -0.60683,-0.92567 -2.22782,-2.57081 -2.385,-2.77603 -0.16167,-0.21107 -0.75916,-0.55319 -0.79861,-0.55083 -0.27566,0.0165 -0.5563,1.2612 -0.62052,1.5116 -0.33366,1.30053 -0.66906,2.60043 -0.99972,3.9017 -0.0788,0.31026 -0.0469,0.34859 0.27367,0.35083 0.53726,0.004 1.07477,3.5e-4 1.61203,-2.5e-4 0.17784,-1.2e-4 0.35904,-0.0239 0.5329,0.002 0.49644,0.0734 0.99114,0.0639 1.48857,0.0231 0.45574,-0.0372 0.91248,-0.0626 1.36885,-0.0932 m 38.322408,27.29647 c 0,-1.86019 1e-4,-3.7205 -1e-4,-5.58069 0,-0.0994 0,-0.19937 -0.01,-0.29819 0,-0.0454 -0.031,-0.0889 -0.047,-0.13328 -0.044,0.0315 -0.1065,0.0531 -0.1296,0.0959 -0.1225,0.22762 -0.2383,0.4591 -0.3507,0.69195 -0.7004,1.45111 -1.407,2.89936 -2.0954,4.35608 -0.364098,0.77073 -0.376198,1.56722 -0.011,2.3392 0.7018,1.48334 1.4255,2.95648 2.1434,4.43224 0.091,0.18618 0.2755,0.81217 0.5977,0.51934 -0.01,-0.25812 -0.1,-1.18043 -0.1001,-1.43867 0,-1.66131 -0.001,-3.32262 -0.001,-4.98394 m -68.976158,-8.47733 c -0.35706,0.0249 -0.71386,0.0661 -1.07116,0.0712 -0.58555,0.008 -1.11273,0.19427 -1.61465,0.47553 -0.45823,0.25675 -0.46931,0.29035 -0.21841,0.75705 0.7161,1.33188 1.43369,2.66302 2.15116,3.99417 0.16527,0.30652 0.70626,1.20917 0.89854,1.60779 0.1924,0.39862 2.0664,-3.84943 2.95761,-5.50514 0.15357,-0.28537 -0.18656,-0.56501 -0.47454,-0.73924 -0.34162,-0.20672 -0.69992,-0.37635 -1.08945,-0.47865 -0.50503,-0.13279 -1.01728,-0.18493 -1.5391,-0.18269 m 66.928458,0.55182 c -0.3395,0.0207 -0.656398,0.0427 -0.973698,0.059 -0.8333,0.0428 -1.6669,0.0823 -2.5003,0.12495 -0.2442,0.0125 -0.3423,0.0937 -0.3603,0.34286 -0.014,0.18631 -0.018,0.38443 0.03,0.56178 0.175,0.6413 0.3569,1.28185 0.5676,1.91221 0.3683,1.10214 0.7614,2.1962 1.1399,3.29499 0.052,0.14972 0.068,0.31138 0.1194,0.46122 0.074,0.21555 0.2915,0.26284 0.4451,0.0953 0.072,-0.0788 0.1247,-0.17958 0.1703,-0.27778 0.815198,-1.74668 1.629398,-3.49387 2.439198,-5.24317 0.1084,-0.23397 0.2006,-0.47653 0.2841,-0.7207 0.096,-0.28014 0.027,-0.40136 -0.2587,-0.49071 -0.085,-0.0266 -0.1736,-0.0477 -0.2619,-0.0556 -0.2866,-0.0258 -0.5738,-0.0444 -0.8406,-0.0643 M 64.791332,23.280062 c 0.17784,0.0441 0.29744,-0.0221 0.33776,-0.14748 0.0438,-0.13664 -0.026,-0.25126 -0.21069,-0.3446 -0.0265,-0.0134 -0.0558,-0.022 -0.0816,-0.0363 -0.28586,-0.15868 -0.59251,-0.2891 -0.85274,-0.48225 -0.84603,-0.62824 -1.6811,-1.27178 -2.50908,-1.92391 -0.86706,-0.68299 -1.7167,-1.38826 -2.58251,-2.07288 -0.37858,-0.2993 -0.44429,-0.27143 -0.56962,0.18394 -0.40658,1.47613 -0.81055,2.95301 -1.2134,4.43013 -0.0972,0.35631 -0.0693,0.38804 0.3125,0.39289 0.0895,10e-4 0.17908,3.5e-4 0.26856,3.5e-4 h 7.10087 m -26.25441,20.98724 c 0,-1.89864 0.0294,-6.7351 -0.11711,-6.94007 0.29284,-1.78627 -1.03058,0.75779 -1.05361,0.80172 -0.84142,1.60158 -2.77217,5.28959 -2.55873,5.50514 0.93737,2.13958 3.39405,6.14134 3.46599,6.25547 0.52705,0.84925 0.26346,-3.68391 0.26346,-5.62226 m -9.60472,-0.0586 c 0,1.96822 0.1135,3.24422 0.11711,5.21231 -0.0825,0.0755 0.034,0.55282 0.26359,0.32221 0.0275,0.008 1.15915,-1.57407 1.20059,-1.66916 1.37632,-2.10834 3.10396,-4.50952 2.37194,-5.0367 -0.076,-0.32146 -4.39242,-8.69696 -3.83612,-5.82722 -0.055,-0.10654 -0.17572,2.40118 -0.17572,2.40118 0,0 0.0582,2.68891 0.0586,4.59738 M 135.2246,16.352992 c 3e-4,0.009 7e-4,0.0187 10e-4,0.028 0.6951,-0.0324 1.3911,-0.0514 2.0848,-0.1018 0.4253,-0.0309 0.8513,-0.0884 1.2689,-0.17287 0.4295,-0.0869 0.5112,-0.27478 0.3582,-0.68299 -0.5267,-1.40569 -1.0547,-2.81087 -1.5762,-4.21843 -0.061,-0.1654 -0.076,-0.34747 -0.1288,-0.5166 -0.037,-0.11985 -0.093,-0.23658 -0.1572,-0.34486 -0.07,-0.11872 -0.1865,-0.15481 -0.3076,-0.0826 -0.1421,0.0847 -0.3072,0.16117 -0.4042,0.28624 -0.3837,0.49445 -0.7576,0.99761 -1.111,1.51396 -0.5784,0.84478 -1.1338,1.70537 -1.7079,2.55314 -0.2172,0.32071 -0.4688,0.61815 -0.6881,0.93762 -0.259,0.37747 -0.084,0.73713 0.3718,0.79201 0.049,0.006 0.099,0.009 0.1489,0.009 0.6158,7.1e-4 1.2316,3.6e-4 1.8474,3.6e-4 m -36.386898,35.45271 c 0.9355,0 1.871098,2.5e-4 2.806698,-2.5e-4 0.099,-1.2e-4 0.1998,0.003 0.2982,-0.008 0.211,-0.0235 0.2471,-0.081 0.1693,-0.2708 -0.045,-0.11015 -0.1019,-0.21593 -0.1573,-0.32159 -0.9328,-1.77992 -1.8658,-3.55958 -2.799698,-5.33888 -0.065,-0.1232 -0.1307,-0.24653 -0.2071,-0.36265 -0.082,-0.12532 -0.1421,-0.12669 -0.2234,-0.008 -0.062,0.0898 -0.1112,0.1883 -0.161,0.28562 -0.9476,1.85073 -1.8948,3.70158 -2.8406,5.55318 -0.2173,0.42538 -0.1918,0.46894 0.2782,0.47005 0.9455,0.002 1.8911,7.1e-4 2.8367,0.001 M 163.9093,36.248922 c -0.4206,0.0403 -0.949,0.0651 -1.4679,0.14897 -0.4298,0.0696 -0.8521,0.19689 -1.2707,0.32208 -0.2503,0.0749 -0.264,0.14125 -0.1636,0.37299 0.01,0.0182 0.017,0.0361 0.026,0.0538 0.9537,1.89242 1.9073,3.78483 2.8613,5.67701 0.027,0.0531 0.057,0.10553 0.091,0.15357 0.063,0.0869 0.1348,0.0813 0.1915,-0.003 0.055,-0.0821 0.1013,-0.171 0.1461,-0.25948 0.7322,-1.44701 1.4638,-2.89414 2.1948,-4.34189 0.2062,-0.40845 0.4126,-0.81703 0.6126,-1.22859 0.1489,-0.30603 0.1261,-0.3583 -0.2034,-0.47143 -0.2068,-0.0711 -0.4176,-0.13142 -0.6289,-0.18804 -0.7483,-0.20049 -1.5196,-0.16602 -2.3889,-0.23559 m -68.680698,13.64058 c 0.2342,0.26359 0.4199,-0.50602 0.5856,-0.87851 0.6269,-1.40842 1.3756,-2.74044 1.9994,-4.15023 0.2998,-0.67764 0.3078,-0.67988 0.1156,-1.36536 -0.5649,-2.01351 -1.2566,-3.98334 -2.0754,-5.90775 -0.1203,-0.28288 -0.2683,-0.55468 -0.4179,-0.82375 -0.038,-0.0684 -0.1312,-0.10628 -0.1991,-0.1583 -0.044,0.0712 -0.1008,0.13764 -0.1272,0.21468 -0.028,0.083 -0.035,0.1756 -0.039,0.26459 -0.023,0.50627 -0.06,1.01279 -0.059,1.51906 0,1.08348 0.026,2.16696 0.042,3.25044 0.018,1.17296 0.041,2.3458 0.057,3.51876 0.018,1.36188 -0.1165,4.25291 0.1178,4.51637 M 136.9145,23.146872 v -10e-4 c 1.2238,0 2.4477,0.004 3.6717,-0.002 0.4532,-0.002 0.5306,-0.11163 0.4134,-0.54709 -0.4187,-1.55553 -0.8399,-3.11043 -1.2603,-4.66558 -0.015,-0.0575 -0.027,-0.11749 -0.051,-0.17113 -0.065,-0.141 -0.1524,-0.1634 -0.2868,-0.0764 -0.041,0.027 -0.077,0.0626 -0.1158,0.0938 -2.0351,1.64414 -4.0707,3.28766 -6.1035,4.93453 -0.1097,0.089 -0.3179,0.15681 -0.2699,0.31698 0.056,0.18543 0.2716,0.11474 0.4201,0.11537 1.194,0.005 2.3881,0.003 3.5822,0.003 m 31.2853,21.66488 c 0,-1.91955 2e-4,-3.8391 -4e-4,-5.75853 -1e-4,-0.12918 7e-4,-0.2591 -0.012,-0.38742 -0.014,-0.14436 -0.06,-0.28051 -0.2225,-0.31847 -0.1573,-0.0368 -0.2648,0.0549 -0.3544,0.16988 -0.024,0.0311 -0.045,0.0662 -0.062,0.1018 -0.2604,0.53627 -0.5201,1.07278 -0.7797,1.60942 -0.1341,0.27715 -0.259,0.55916 -0.4038,0.83059 -0.2383,0.44703 -0.4934,0.88498 -0.7343,1.33064 -0.4684,0.86619 -0.5662,1.78913 -0.406,2.74865 0.1396,0.83657 0.4795,1.59598 0.8997,2.32452 0.134,0.23248 0.2657,0.4667 0.3887,0.70515 0.465,0.90128 0.9256,1.80493 1.3889,2.70708 0.036,0.0704 0.074,0.14237 0.1236,0.20323 0.062,0.0753 0.1323,0.0594 0.1495,-0.033 0.021,-0.11612 0.023,-0.23696 0.023,-0.35581 10e-4,-1.95925 7e-4,-3.9185 7e-4,-5.87775 m -8.2579,-0.0301 c 0,1.92975 0,3.85938 1e-4,5.78901 0,0.0994 -0.01,0.20025 0,0.29794 0.011,0.0825 0.049,0.16129 0.075,0.24181 0.057,-0.0619 0.1308,-0.11511 0.1699,-0.18705 0.2325,-0.42836 0.4576,-0.86058 0.684,-1.29219 0.5268,-1.00395 1.0728,-1.9987 1.5738,-3.01535 0.4966,-1.00744 0.674,-2.07499 0.4374,-3.18971 -0.1551,-0.73128 -0.4839,-1.38826 -0.8969,-2.00343 -0.2962,-0.44106 -0.5097,-0.9192 -0.7163,-1.40568 -0.2135,-0.50254 -0.4651,-0.9889 -0.7027,-1.48098 -0.025,-0.0528 -0.063,-0.10243 -0.1038,-0.14474 -0.191,-0.198 -0.4308,-0.14076 -0.4919,0.12706 -0.033,0.14325 -0.031,0.29607 -0.031,0.44455 0,1.93958 -0.001,3.87917 -0.001,5.81876 m 5.7185,7.61821 v 0.0163 c 0.6171,0 1.2342,0.004 1.8513,-0.002 0.2807,-0.003 0.3071,-0.0529 0.1824,-0.29358 -0.014,-0.0265 -0.029,-0.0523 -0.044,-0.078 -1.1212,-1.9147 -2.242,-3.82965 -3.3639,-5.74384 -0.1934,-0.32992 -0.2509,-0.32868 -0.4487,-0.003 -0.01,0.009 -0.01,0.0172 -0.015,0.0258 -1.1113,1.8974 -2.2228,3.79467 -3.3335,5.69231 -0.1942,0.33167 -0.1658,0.38045 0.219,0.38817 0.06,10e-4 0.1195,0.002 0.1792,3.6e-4 0.4173,-0.0144 0.8347,-0.0428 1.252,-0.0417 0.5865,0.002 1.1731,0.0302 1.7596,0.0372 0.5872,0.007 1.1743,0.002 1.7616,0.002 m -27.3684,-22.53954 v -0.0121 c 1.3434,0 2.6868,3.6e-4 4.0302,-2.4e-4 0.4969,-3.6e-4 0.5104,-0.013 0.3956,-0.48064 -0.3343,-1.36175 -0.673,-2.72239 -1.0107,-4.0834 -0.038,-0.15444 -0.073,-0.31026 -0.1216,-0.46147 -0.062,-0.19165 -0.1354,-0.25338 -0.3319,-0.20833 -0.1685,0.0386 -0.3362,0.11861 -0.4817,0.21443 -1.969,1.29729 -3.934,2.60068 -5.9002,3.9022 -0.3069,0.20311 -0.6179,0.40036 -0.9213,0.60857 -0.1577,0.10827 -0.1997,0.22513 -0.1518,0.35183 0.055,0.14585 0.1741,0.17049 0.3142,0.17025 1.3931,-0.002 2.7861,-0.001 4.1792,-0.001 m -78.508738,0.40584 c 1.33376,0 2.66739,3.5e-4 4.00114,-7.1e-4 0.10927,-1.2e-4 0.2214,0.005 0.32706,-0.0167 0.23957,-0.0492 0.30964,-0.27242 0.1415,-0.4479 -0.0677,-0.0707 -0.15519,-0.12383 -0.23832,-0.17797 -1.30874,-0.85312 -2.61798,-1.70537 -3.92759,-2.55724 -1.02598,-0.66744 -2.05221,-1.33438 -3.07882,-2.00082 -0.0917,-0.0596 -0.18568,-0.11599 -0.28089,-0.16988 -0.11387,-0.0646 -0.19228,-0.0248 -0.22899,0.0941 -0.0352,0.11388 -0.0645,0.22974 -0.0912,0.34598 -0.3425,1.48272 -0.68374,2.9657 -1.02611,4.44842 -0.10554,0.45699 -0.089,0.48188 0.37137,0.48225 1.34358,10e-4 2.68729,3.5e-4 4.03087,3.5e-4 m 72.379918,-3.48229 h 0.001 c 0,0.82574 -4e-4,1.65135 3e-4,2.47709 0,0.0993 0,0.20012 0.012,0.29781 0.024,0.15918 0.084,0.19029 0.2232,0.11674 0.096,-0.0509 0.1861,-0.11499 0.2765,-0.17659 1.7182,-1.17172 3.4362,-2.34381 5.1539,-3.5164 0.715,-0.4881 1.4285,-0.97844 2.1438,-1.46605 0.152,-0.10367 0.2523,-0.23048 0.2028,-0.42425 -0.049,-0.19241 -0.2028,-0.26397 -0.3794,-0.28562 -0.1376,-0.0168 -0.278,-0.0158 -0.4171,-0.0158 -2.1499,-0.001 -4.2998,-7.1e-4 -6.4497,-7.1e-4 -0.1594,-1.2e-4 -0.319,-0.0107 -0.4777,-0.001 -0.1836,0.0106 -0.2651,0.0963 -0.2865,0.27977 -0.01,0.059 0,0.11922 0,0.17883 -1e-4,0.84566 -1e-4,1.69119 -1e-4,2.53684 m -70.278148,-2.57579 c -1.32317,0 -2.64635,-1.2e-4 -3.96952,2.5e-4 -0.0993,1.2e-4 -0.19987,-0.004 -0.29782,0.01 -0.0531,0.007 -0.10192,0.0462 -0.15258,0.0708 0.0276,0.0478 0.0441,0.11076 0.0849,0.14088 0.19987,0.14772 0.4046,0.28923 0.61057,0.42837 2.52214,1.70362 5.04479,3.4065 7.56731,5.1095 0.0412,0.0279 0.0806,0.0585 0.12345,0.0835 0.17834,0.10442 0.24443,0.0716 0.26509,-0.14237 0.0133,-0.13827 0.008,-0.27828 0.0156,-0.41716 0.0516,-0.94223 0.10615,-1.88434 0.15643,-2.82669 0.0361,-0.67453 0.0614,-1.34981 0.10255,-2.02396 0.0214,-0.35121 -0.0309,-0.42152 -0.3873,-0.43148 -0.0596,-0.002 -0.11935,-0.001 -0.17908,-0.001 h -3.93954 m -28.0533,27.67162 c 1.14446,0 3.09463,-0.20361 3.73892,-0.11574 0.64416,0.0879 -1.90337,-4.18745 -1.90337,-4.18745 0,0 -0.99997,-1.95489 -1.5228,-2.69401 -0.18829,-0.26621 -0.56514,0.55667 -0.76463,0.81927 -0.0422,0.0554 -0.0833,0.11163 -0.12321,0.16863 -0.29694,0.42363 -0.45836,0.84092 -0.75194,1.26692 -0.39514,0.5731 -0.80782,1.25212 -1.17135,1.84476 -0.52518,0.8561 -1.15143,1.62323 -1.65434,2.49302 -0.0448,0.0774 -0.0932,0.15345 -0.13005,0.23472 -0.0478,0.10566 -0.004,0.1802 0.10628,0.19576 0.10741,0.0152 0.21804,0.0144 0.32694,0.0111 0.31785,-0.01 0.63558,-0.0336 0.95343,-0.0351 0.96525,-0.005 1.93075,-0.002 2.89612,-0.002 m 32.15769,-17.61272 h 3.5e-4 c 0,-0.70576 1.3e-4,-1.41153 -1.2e-4,-2.1173 0,-0.19875 0.004,-0.39775 -0.002,-0.59638 -0.0101,-0.32905 -0.0524,-0.36788 -0.37074,-0.31834 -0.40273,0.0628 -0.80496,0.1303 -1.20532,0.20708 -0.24916,0.0477 -0.49072,0.0428 -0.73825,-0.0138 -1.28036,-0.29246 -2.58151,-0.32183 -3.88614,-0.28735 -1.01304,0.0267 -2.02584,0.0657 -3.03875,0.0973 -0.12918,0.004 -0.25861,-0.002 -0.38779,-0.006 -0.14175,-0.005 -0.25725,0.0376 -0.31263,0.17784 -0.0592,0.14996 -0.0102,0.27553 0.11126,0.36987 0.10964,0.085 0.22401,0.16515 0.34262,0.23708 0.28051,0.17025 0.56576,0.33266 0.84739,0.50104 2.11643,1.26556 4.22789,2.53982 6.35179,3.79268 0.58107,0.34274 1.193,0.63583 1.80331,0.92555 0.41493,0.19701 0.48275,0.14138 0.4845,-0.31486 0.003,-0.88473 10e-4,-1.76946 10e-4,-2.65419 m 70.772918,-3.43152 v 7.1e-4 c -1.3831,0 -2.7664,-0.002 -4.1496,0.001 -0.39,0.001 -0.4524,0.0693 -0.4614,0.45026 -4e-4,0.0199 -7e-4,0.0398 -7e-4,0.0597 0,1.9096 -2e-4,3.81919 2e-4,5.72879 1e-4,0.0795 0,0.16004 0.01,0.2382 0.029,0.18531 0.1481,0.26072 0.3189,0.18954 0.1087,-0.0453 0.2083,-0.11562 0.3069,-0.1822 2.1609,-1.45771 4.3212,-2.91616 6.4814,-4.37499 0.6678,-0.45102 1.3349,-0.90303 2.0021,-1.35504 0.1481,-0.10031 0.2663,-0.22165 0.2091,-0.41915 -0.055,-0.19066 -0.1946,-0.29819 -0.3891,-0.32271 -0.1178,-0.0149 -0.2383,-0.0139 -0.3575,-0.0139 -1.3235,-7e-4 -2.647,-3.5e-4 -3.9704,-3.5e-4 m -76.236798,7.42407 c 0.33278,0 0.69145,0.0108 1.04938,-0.002 0.85474,-0.031 1.7091,-0.0711 2.56346,-0.11276 0.1313,-0.006 0.28301,0.0419 0.38244,-0.0981 -0.0932,-0.0834 -0.17746,-0.1807 -0.28113,-0.24815 -2.37741,-1.54719 -4.75681,-3.09139 -7.13621,-4.63547 -0.63458,-0.41169 -1.26892,-0.82375 -1.90661,-1.23071 -0.23857,-0.1522 -0.29221,-0.12831 -0.38505,0.13528 -0.0133,0.0375 -0.0229,0.0763 -0.0345,0.11425 -0.27977,0.91323 -0.55979,1.82634 -0.83918,2.73969 -0.12806,0.41866 -0.25687,0.83706 -0.38157,1.25659 -0.0942,0.31686 -0.0783,0.3522 0.20709,0.53266 0.0253,0.016 0.051,0.0312 0.0767,0.0465 1.03469,0.62126 2.14742,1.03855 3.33096,1.27003 1.09978,0.2153 2.21114,0.26981 3.35423,0.23223 m 126.027388,8.69846 c 0,-1.59212 0.001,-3.18436 0,-4.77648 -3e-4,-0.11113 -0.043,-0.22214 -0.066,-0.33328 -0.082,0.0769 -0.1829,0.14138 -0.2431,0.2326 -0.5648,0.85524 -1.1217,1.71582 -1.683,2.57367 -1.5092,2.30685 -3.0194,4.61295 -4.5288,6.91979 -0.076,0.11649 -0.1545,0.2326 -0.2185,0.35593 -0.083,0.16092 -0.051,0.21966 0.1209,0.24069 0.079,0.01 0.1591,0.007 0.2387,0.007 1.9614,3.6e-4 3.9228,7.1e-4 5.884,-1.2e-4 0.4905,-2.5e-4 0.4982,-0.008 0.4985,-0.50304 0.001,-1.5722 3e-4,-3.14453 3e-4,-4.71673 M 9.1362516,46.530642 v -4.62278 c 0,-0.10914 0.002,-0.21953 -0.0123,-0.32731 -0.0172,-0.12607 -0.0965,-0.15494 -0.18033,-0.0653 -0.0742,0.0791 -0.13416,0.17237 -0.19452,0.26322 -1.03445,1.5569 -2.06703,3.11504 -3.10184,4.67156 -1.00744,1.51521 -2.01725,3.02867 -3.02481,4.54375 -0.10454,0.15718 -0.2046,0.3176 -0.29993,0.48051 -0.0604,0.10292 -0.0182,0.17809 0.0946,0.19414 0.11736,0.0168 0.23758,0.0184 0.35668,0.0188 1.82011,0.006 3.64023,0.0112 5.46034,0.0128 0.19813,1.3e-4 0.39862,-0.01 0.59363,-0.0413 0.25513,-0.0412 0.29496,-0.0999 0.30666,-0.35631 0.004,-0.0993 0.002,-0.19875 0.002,-0.29818 1.3e-4,-1.49119 0,-2.98238 0,-4.47356 M 145.024,52.165502 c 0.9752,0 1.9505,0.002 2.9259,-0.002 0.1437,-3.5e-4 0.344,0.0571 0.4063,-0.0936 0.036,-0.0871 -0.072,-0.25214 -0.144,-0.3629 -2.0973,-3.21659 -4.1978,-6.43094 -6.3006,-9.6438 -0.066,-0.10081 -0.1007,-0.2448 -0.2596,-0.25637 -0.02,0.12258 -0.058,0.24505 -0.058,0.36763 0,3.16307 0,6.32628 0,9.48935 1e-4,0.48387 0.016,0.5003 0.5065,0.50129 0.9753,0.002 1.9507,3.6e-4 2.926,7.1e-4 M 5.9790216,39.255922 v -0.0144 c -0.53738,0 -1.40718,0.0926 -2.0791,0.43023 -0.67191,0.33764 -1.40556,1.20059 -1.46418,1.34695 -0.0585,0.14648 -0.66333,1.18291 -0.66793,1.91756 -0.0134,2.13858 -0.005,4.27742 -0.004,6.41613 0,0.0992 -0.01,0.2041 0.0189,0.29594 0.0233,0.0747 0.0874,0.17299 0.15108,0.18855 0.066,0.0161 0.17237,-0.0361 0.22688,-0.0918 0.0816,-0.0836 0.13615,-0.19477 0.19775,-0.29682 0.84777,-1.40569 1.69479,-2.81175 2.54219,-4.21756 1.11944,-1.85745 2.24026,-3.71427 3.35784,-5.57284 0.19464,-0.32383 0.15532,-0.38842 -0.21941,-0.40111 -0.0199,-7.1e-4 -0.0398,-7.1e-4 -0.0597,-7.1e-4 h -2.00031 m 5.3418604,7.3514 c 0,1.4821 0,2.96408 10e-4,4.44618 0,0.1191 0.004,0.23869 0.0148,0.3573 0.0104,0.11089 0.0762,0.18444 0.18841,0.20062 0.33267,0.0475 0.6657,0.12768 0.99911,0.13005 1.81115,0.013 3.62242,0.007 5.43358,0.004 0.14262,-2.5e-4 0.34473,0.0616 0.40273,-0.0957 0.0322,-0.0875 -0.0889,-0.24704 -0.16553,-0.35693 -0.88261,-1.26419 -1.7702,-2.52501 -2.65593,-3.78708 -1.28571,-1.83206 -2.57118,-3.66437 -3.85677,-5.49643 -0.04,-0.057 -0.0746,-0.1201 -0.12383,-0.16764 -0.0452,-0.0434 -0.10691,-0.0694 -0.16142,-0.10317 -0.024,0.0614 -0.061,0.12109 -0.0692,0.18456 -0.0126,0.0979 -0.006,0.1985 -0.006,0.29794 0,1.46219 -1.2e-4,2.92425 -1.2e-4,4.38644 m 65.15918,0.19875 c 0,1.47165 -4e-4,2.9433 2e-4,4.41507 3e-4,0.53925 10e-4,0.54037 0.5506,0.54049 2.0395,3.6e-4 4.0791,0.002 6.1186,-0.002 0.1501,-3.5e-4 0.3636,0.0775 0.4296,-0.0853 0.037,-0.0911 -0.091,-0.26533 -0.1703,-0.3848 -1.9422,-2.91243 -3.8877,-5.82274 -5.8329,-8.73318 -0.1272,-0.19017 -0.2533,-0.38108 -0.3856,-0.56763 -0.1436,-0.20248 -0.2271,-0.22737 -0.4556,-0.15345 -0.2097,0.068 -0.2438,0.11724 -0.2527,0.37747 0,0.0993 0,0.19887 0,0.2983 -2e-4,1.43183 0,2.86377 0,4.2956 m 63.035598,-8.23774 c 0.2277,-0.0209 0.6353,-0.0434 1.0387,-0.0978 1.3607,-0.18356 2.6463,-0.63321 3.9159,-1.13363 0.2924,-0.11537 0.3214,-0.18855 0.2388,-0.50789 -0.1271,-0.49072 -0.2578,-0.98056 -0.3874,-1.47053 -0.3205,-1.21067 -0.6372,-2.42246 -0.9642,-3.63139 -0.1234,-0.45649 -0.224,-0.4881 -0.6104,-0.22961 -1.1737,0.78517 -2.35,1.56635 -3.5188,2.35874 -1.0287,0.69743 -2.0494,1.40656 -3.0716,2.1137 -0.374,0.25861 -0.6721,0.58679 -0.8806,0.99449 -0.1373,0.26845 -0.1089,0.39227 0.1601,0.52967 0.2654,0.13565 0.5398,0.25376 0.8093,0.3817 0.9779,0.46458 2.0121,0.67589 3.2702,0.69257 m -73.677798,7.18599 h -0.0101 c 0,-1.3233 0.004,-2.64647 -0.003,-3.96965 -10e-4,-0.25699 -0.0213,-0.51896 -0.0747,-0.76961 -0.20161,-0.94733 -0.88075,-1.58066 -1.83305,-1.71433 -0.36403,-0.051 -0.73253,-0.0986 -1.09879,-0.0982 -1.23357,0.001 -2.46714,0.0251 -3.70071,0.0406 -0.0299,3.5e-4 -0.0599,7.1e-4 -0.0894,0.005 -0.17684,0.0238 -0.21393,0.0782 -0.14411,0.23459 0.0444,0.0994 0.10491,0.19191 0.16141,0.28562 1.99771,3.31504 3.99579,6.62994 5.99411,9.94472 0.0924,0.15333 0.18208,0.3089 0.28289,0.45662 0.10005,0.14698 0.2316,0.19639 0.35456,0.14387 0.14162,-0.0607 0.16266,-0.1817 0.16241,-0.32097 -0.002,-1.41265 -0.001,-2.82531 -0.001,-4.23796 m 64.850278,-1.38777 c 0.013,-2.5e-4 0.026,-3.5e-4 0.039,-7.1e-4 -0.029,-1.0037 -0.051,-2.00754 -0.088,-3.01087 -0.04,-1.08572 -0.7738,-1.95103 -1.8333,-2.07051 -0.9177,-0.10342 -1.8454,-0.12196 -2.7714,-0.0735 -0.3077,0.016 -0.6158,0.0256 -0.9238,0.0286 -0.2287,0.002 -0.4577,-0.006 -0.6861,-0.0179 -0.4979,-0.0255 -0.667,0.20858 -0.4698,0.66059 0.068,0.15494 0.14,0.30802 0.216,0.45898 0.7981,1.58453 1.7519,3.07596 2.7187,4.56055 0.9335,1.43369 1.857,2.8741 2.7774,4.3165 0.219,0.34349 0.4053,0.70776 0.6136,1.05834 0.03,0.0503 0.099,0.0775 0.1494,0.11537 0.024,-0.0515 0.065,-0.10168 0.069,-0.15482 0.017,-0.21804 0.022,-0.43695 0.034,-0.65549 0.051,-0.97247 0.1187,-1.94444 0.1501,-2.91766 0.025,-0.76513 0.01,-1.53163 0.01,-2.29751 m -74.359018,1.97386 c 0,-1.65173 0.001,-3.30334 -0.003,-4.95494 -2.5e-4,-0.1023 -0.0393,-0.20448 -0.0604,-0.30678 -0.0787,0.0658 -0.15917,0.12956 -0.23509,0.19826 -0.0289,0.0261 -0.0475,0.0636 -0.0704,0.0962 -0.53664,0.766 -1.07241,1.53275 -1.61004,2.29813 -1.78402,2.54082 -3.56954,5.08051 -5.35045,7.62344 -0.0694,0.0991 -0.0978,0.22688 -0.14536,0.34125 0.12284,0.022 0.24567,0.063 0.36863,0.0631 2.19994,0.004 4.40001,0.004 6.60007,0.003 0.49694,-2.5e-4 0.50528,-0.008 0.50553,-0.49582 10e-4,-1.62186 3.5e-4,-3.24372 2.5e-4,-4.86546 m 1.75066,0.11425 c 0,1.62186 -10e-4,3.24384 7.1e-4,4.86571 3.5e-4,0.41654 0.0239,0.44006 0.44056,0.44043 2.09067,10e-4 4.18134,7.1e-4 6.27201,3.6e-4 0.0795,-1.3e-4 0.15943,-0.002 0.23833,-0.0115 0.10205,-0.0118 0.14125,-0.076 0.10043,-0.16814 -0.0401,-0.0905 -0.0942,-0.1751 -0.1466,-0.25948 -2.03927,-3.29039 -4.07892,-6.58053 -6.11919,-9.87018 -0.0629,-0.10142 -0.13092,-0.19987 -0.20136,-0.29607 -0.0806,-0.11039 -0.18195,-0.19016 -0.32943,-0.15196 -0.14536,0.0376 -0.2046,0.15532 -0.22302,0.28886 -0.0204,0.1471 -0.0311,0.29669 -0.0314,0.44529 -0.002,1.5722 -10e-4,3.14441 -10e-4,4.71661 m 16.94728,0.005 c 0,-1.58104 1e-4,-3.16208 -4e-4,-4.74312 -1e-4,-0.10927 0,-0.21991 -0.012,-0.32756 -0.024,-0.17124 -0.2318,-0.29445 -0.3783,-0.21679 -0.074,0.0391 -0.1329,0.11785 -0.1811,0.19041 -0.3025,0.45562 -0.5997,0.91485 -0.8994,1.37233 -1.8695,2.85307 -3.7399,5.70564 -5.60668,8.56045 -0.0726,0.11101 -0.18182,0.26757 -0.15022,0.36116 0.0485,0.14374 0.24281,0.0882 0.37647,0.0884 2.11905,0.003 4.23823,0.003 6.35723,0.001 0.4717,-2.5e-4 0.4932,-0.023 0.4935,-0.48375 0.001,-1.60095 3e-4,-3.2019 3e-4,-4.80286 M 121.45,46.435052 c 0,-1.64115 1e-4,-3.2823 -2e-4,-4.92345 0,-0.0994 0,-0.1995 -0.01,-0.29806 0,-0.0423 -0.04,-0.0814 -0.062,-0.12197 -0.041,0.0231 -0.09,0.0389 -0.1224,0.0711 -0.049,0.0483 -0.089,0.10678 -0.13,0.16291 -0.2587,0.35307 -0.5272,0.69955 -0.773,1.06133 -1.0789,1.58801 -2.1477,3.18274 -3.2265,4.77075 -1.0062,1.48123 -2.0239,2.95437 -3.1702,4.3338 -0.07,0.0843 -0.1017,0.20024 -0.1512,0.30154 0.1121,0.0248 0.2243,0.0709 0.3365,0.0712 2.2789,0.004 4.5578,0.004 6.8368,0.002 0.444,-3.5e-4 0.4688,-0.0283 0.4692,-0.47802 10e-4,-1.6511 3e-4,-3.30221 3e-4,-4.95332 m -54.209588,-0.0126 h 7e-4 c 0,1.24353 -0.002,2.48693 0.003,3.73033 3.5e-4,0.10106 0.02,0.26483 0.0781,0.28997 0.12757,0.0551 0.16652,-0.10491 0.22377,-0.18692 0.59264,-0.84802 1.18404,-1.69691 1.76921,-2.55015 1.46878,-2.14182 2.89481,-4.31165 4.25291,-6.52528 0.1698,-0.27666 0.306,-0.58343 0.402,-0.89356 0.1259,-0.40634 -0.037,-0.71486 -0.4385,-0.84951 -0.2893,-0.0971 -0.5975,-0.17137 -0.9008,-0.18656 -0.834,-0.0421 -1.66986,-0.052 -2.50505,-0.0657 -0.41966,-0.007 -0.83433,0.0407 -1.23594,0.17449 -0.98392,0.32768 -1.5676,1.08734 -1.59933,2.11145 -0.0261,0.84441 -0.0402,1.68944 -0.0485,2.53422 -0.008,0.8057 -0.002,1.61153 -0.002,2.41723 m 121.000418,0.0153 c 0.01,0 0.039,1.52143 0.044,1.52143 0,1.50226 3e-4,1.68023 0,3.18249 3e-4,0.12881 0.01,0.26185 0.029,0.38817 0.086,0.48312 0.1735,0.5914 0.6564,0.67777 0.2819,0.0504 0.5729,0.0627 0.8602,0.0666 0.3077,0.004 0.6157,-0.0317 0.9236,-0.0325 1.4833,-0.004 2.2828,0 3.766,-0.005 0.1314,-3.6e-4 0.5055,-0.1471 0.637,-0.17075 -0.057,-0.12271 -0.1756,-0.67167 -0.2494,-0.78293 -2.2505,-3.39107 -3.9852,-6.26131 -6.2384,-9.65064 -0.033,-0.0497 -0.065,-0.10081 -0.1025,-0.14661 -0.076,-0.092 -0.183,-0.14822 -0.2893,-0.0925 -0.078,0.0408 -0.1556,0.12881 -0.1815,0.21194 -0.034,0.11015 -0.023,0.23597 -0.023,0.35507 -10e-4,1.49243 0.1656,2.98486 0.1656,4.47729 m -48.1669,-0.0461 h 0.014 c 0,-1.42199 -4e-4,-2.84386 3e-4,-4.26573 2e-4,-0.169 0.01,-0.33801 0.01,-0.50701 10e-4,-0.11998 -0.045,-0.21518 -0.1601,-0.26173 -0.1138,-0.0461 -0.2199,-0.0143 -0.3013,0.0694 -0.069,0.0707 -0.1261,0.15345 -0.1808,0.23596 -2.2585,3.39469 -4.5163,6.78974 -6.7715,10.18666 -0.057,0.0864 -0.084,0.19303 -0.1252,0.29035 0.1099,0.0288 0.2198,0.0819 0.3299,0.0825 1.92,0.01 3.84,0.0153 5.7601,0.0141 0.2065,-2.5e-4 0.4185,-0.0283 0.6189,-0.079 0.4228,-0.10715 0.6927,-0.37896 0.7694,-0.8169 0.025,-0.14586 0.036,-0.2962 0.036,-0.44455 0,-1.50139 0.001,-3.00278 0.001,-4.50404 m 56.0477,-0.0434 c 0,-0.71635 0.01,-1.43282 0,-2.14904 -0.013,-0.89482 -0.2941,-1.53985 -0.7627,-2.272 -0.2928,-0.57099 -1.9327,-1.14198 -1.9327,-1.14198 l -1.3543,-0.49046 c 0,0 -0.6076,-0.30018 -1.896,-0.5344 -1.4642,0 -1.5374,0.40994 -0.6735,1.4495 0.031,0.13117 0.5999,0.7777 0.6735,0.89306 1.3839,2.17393 1.6261,2.50771 3.0127,4.68003 0.7548,1.18254 1.5091,2.36558 2.2659,3.54688 0.069,0.10815 0.148,0.21257 0.2359,0.30603 0.079,0.084 0.185,0.11923 0.3,0.0681 0.1144,-0.0508 0.155,-0.1481 0.1516,-0.26707 0,-0.18892 -0.017,-0.37771 -0.017,-0.56651 0,-1.17408 -7e-4,-2.34804 -7e-4,-3.52212 m -64.0661,-0.0177 h -0.014 c 0,0.64678 0,1.29343 -4e-4,1.94009 0,0.70626 -0.01,1.4124 -0.017,2.11867 -0.001,0.12893 0.026,0.24119 0.1575,0.29209 0.1275,0.0494 0.2374,0.002 0.3215,-0.0947 0.072,-0.0821 0.1351,-0.17224 0.1938,-0.26422 1.4196,-2.22184 2.8382,-4.44443 4.2569,-6.66702 0.6745,-1.05672 1.3484,-2.11382 2.0242,-3.1698 0.1232,-0.1924 0.2573,-0.37809 0.3801,-0.57074 0.073,-0.11511 0.1003,-0.24006 0.016,-0.36439 -0.088,-0.12981 -0.2126,-0.16204 -0.3649,-0.14661 -0.1676,0.017 -0.3373,0.0231 -0.5059,0.0207 -0.9747,-0.0141 -1.9495,-0.0502 -2.9241,-0.0423 -0.5955,0.005 -1.1908,0.0716 -1.7857,0.11749 -0.2328,0.0179 -0.4419,0.10989 -0.6323,0.24641 -0.3115,0.22339 -0.5707,0.49594 -0.7685,0.82375 -0.1449,0.23994 -0.2637,0.49146 -0.2781,0.77907 -0.019,0.38717 -0.054,0.77422 -0.056,1.16139 -0.01,1.27339 0,2.54679 0,3.82018 m -9.2136,0.18593 c 0,1.69044 -4e-4,3.38075 2e-4,5.07106 3e-4,0.53141 0.001,0.5329 0.5278,0.53303 2.1987,7e-4 4.3973,2.4e-4 6.5959,1.2e-4 0.08,0 0.1597,0.003 0.2387,-0.004 0.2093,-0.0187 0.2378,-0.0762 0.1377,-0.27019 -0.018,-0.0353 -0.041,-0.0682 -0.062,-0.1018 -0.329,-0.52132 -0.6577,-1.04303 -0.9875,-1.56386 -1.7285,-2.73073 -3.4571,-5.46134 -5.1865,-8.19157 -0.2075,-0.32756 -0.4153,-0.65511 -0.6308,-0.97745 -0.085,-0.12694 -0.1992,-0.23533 -0.3722,-0.19053 -0.1782,0.0463 -0.2368,0.19937 -0.2762,0.3578 -0.012,0.0468 0,0.0986 0,0.14797 0.01,0.21854 0.017,0.43708 0.017,0.65562 0.001,1.51135 7e-4,3.02269 7e-4,4.53404 m 51.1264,5.7238 c 1.0353,0 2.0705,0 3.1057,-1.2e-4 0.09,0 0.1793,0.002 0.2687,-0.002 0.2404,-0.0132 0.2704,-0.0393 0.2628,-0.28997 -0.024,-0.80496 -0.05,-1.61004 -0.085,-2.41463 -0.047,-1.08236 -0.1067,-2.16409 -0.1566,-3.24633 -0.031,-0.67528 -0.051,-1.35118 -0.082,-2.02658 -0.05,-1.09219 -0.1039,-2.18413 -0.1584,-3.27608 -0.015,-0.3074 -0.036,-0.61479 -0.061,-0.92157 0,-0.0387 -0.048,-0.074 -0.074,-0.11088 -0.031,0.0224 -0.069,0.0393 -0.092,0.0686 -0.042,0.0551 -0.077,0.11599 -0.11,0.17709 -0.3175,0.58617 -0.6331,1.17334 -0.951,1.75913 -0.8064,1.48671 -1.6141,2.97267 -2.4207,4.45925 -0.982,1.81028 -1.9643,3.62031 -2.9443,5.43159 -0.1931,0.35718 -0.1703,0.39177 0.2422,0.3924 1.085,0.002 2.17,3.5e-4 3.2549,7e-4 m -19.7778,-0.0142 c 1.055,0 2.11,3.5e-4 3.165,-7e-4 0.1091,-1.3e-4 0.2194,-0.002 0.3273,-0.0163 0.1078,-0.0147 0.1593,-0.0791 0.1115,-0.19066 -0.027,-0.064 -0.058,-0.1267 -0.091,-0.18793 -0.26,-0.48138 -0.5206,-0.96239 -0.7816,-1.44327 -1.8558,-3.41808 -3.7111,-6.83653 -5.5702,-10.25287 -0.047,-0.0875 -0.1353,-0.15307 -0.2042,-0.22886 -0.026,0.0937 -0.07,0.18643 -0.076,0.28138 -0.032,0.54573 -0.057,1.09182 -0.079,1.63792 -0.029,0.71523 -0.049,1.43082 -0.081,2.1458 -0.049,1.08211 -0.1085,2.16373 -0.1586,3.24584 -0.031,0.67515 -0.051,1.35093 -0.08,2.02633 -0.038,0.89369 -0.081,1.78713 -0.1181,2.68082 -0.01,0.23945 0.03,0.2799 0.2619,0.29782 0.089,0.007 0.1789,0.005 0.2685,0.005 1.0351,2.5e-4 2.0702,2.5e-4 3.1052,1.2e-4 M 18.526242,44.376482 c 0,-1.73113 0.005,-3.46238 -0.005,-5.19364 -0.001,-0.24392 -0.0448,-0.49619 -0.11723,-0.72941 -0.12259,-0.39439 -0.41804,-0.61268 -0.82114,-0.69818 -0.27031,-0.0573 -0.53751,-0.0389 -0.79898,0.0244 -1.18939,0.28848 -2.3799,0.57335 -3.56294,0.88598 -0.37199,0.0982 -0.72531,0.27205 -1.08012,0.42724 -0.0924,0.0403 -0.19763,0.12607 -0.23024,0.21543 -0.18805,0.51436 -0.15581,1.04017 0.13167,1.4933 0.44716,0.7049 0.94547,1.37806 1.43655,2.05421 1.63779,2.25445 3.25542,4.52247 4.73715,6.88419 0.037,0.059 0.0711,0.12122 0.11698,0.17262 0.03,0.0335 0.0788,0.0503 0.11911,0.0746 0.0228,-0.0396 0.061,-0.0775 0.0652,-0.11898 0.0111,-0.10852 0.009,-0.21854 0.009,-0.32793 0,-1.72117 0,-3.44247 1.2e-4,-5.16377 m 30.18525,-0.0523 c 0,1.77108 -10e-4,3.54203 0.002,5.31311 2.5e-4,0.11164 0.0396,0.22327 0.0607,0.3349 0.0788,-0.0809 0.17436,-0.15096 0.23372,-0.24417 1.24751,-1.95502 2.54766,-3.87357 3.91751,-5.74571 0.73427,-1.00358 1.43966,-2.02845 2.14705,-3.05144 0.15693,-0.227 0.29433,-0.47603 0.39277,-0.73328 0.19252,-0.50291 0.0396,-0.9019 -0.43248,-1.16014 -0.23434,-0.12818 -0.48436,-0.23571 -0.73837,-0.3181 -1.27999,-0.41529 -2.59196,-0.70738 -3.90817,-0.97869 -0.21966,-0.0452 -0.45749,-0.0474 -0.681,-0.0203 -0.44405,0.0536 -0.75742,0.3059 -0.88585,0.7375 -0.0668,0.22514 -0.1028,0.46769 -0.10404,0.70266 -0.008,1.72117 -0.004,3.44247 -0.004,5.16365 m 129.935238,2.72114 0.1911,3.40962 c 0,0 0.025,0.39949 0.1723,0.46234 0.138,0.0587 0.2892,0.004 0.4346,-0.17909 0.1045,-0.13204 0.1954,-0.27578 0.2844,-0.41928 2.0164,-3.25417 5.9967,-9.23261 6.6483,-10.36736 0.3293,-0.81255 -3.3164,-1.5666 -4.0776,-1.77158 -0.7614,-0.20497 -1.2811,-0.3807 -2.4012,-0.5344 -0.9517,-0.25624 -1.23,-0.28549 -1.3397,0.65886 -0.1098,0.94434 0.081,1.68433 0.022,2.56956 -0.062,0.91758 -0.03,1.96485 0,2.87696 0.037,1.12144 0.066,3.29437 0.066,3.29437 m -29.3523,-4.88512 c -0.021,-0.30603 -0.058,-0.58368 -0.055,-0.86096 0.012,-0.99163 -0.2345,-1.95315 -0.3301,-2.93197 -0.026,-0.26533 -0.1858,-0.34187 -0.4481,-0.24828 -0.1592,0.0567 -0.3188,0.11363 -0.4802,0.1639 -1.806,0.56153 -3.6124,1.12182 -5.4186,1.68272 -0.076,0.0236 -0.1526,0.0463 -0.2268,0.0748 -0.1162,0.0446 -0.1508,0.12483 -0.087,0.23559 0.084,0.14661 0.1697,0.29271 0.2588,0.43658 1.2623,2.03915 2.5256,4.0778 3.7882,6.11695 0.7805,1.2607 1.5615,2.52115 2.338,3.78421 0.09,0.14561 0.2065,0.24181 0.3677,0.28164 0.1956,0.0485 0.3377,-0.0577 0.3479,-0.2565 0,-0.0589 0,-0.11972 -0.018,-0.17759 -0.3738,-1.72142 -0.2996,-3.46102 -0.2093,-5.20098 0.054,-1.04229 0.1158,-2.08433 0.1726,-3.1001 m -63.489598,3.65204 c 0.01,2.5e-4 0.017,3.6e-4 0.026,7.1e-4 -0.025,0.93414 -0.051,1.86815 -0.076,2.80229 -0.01,0.28823 -0.012,0.57659 -0.024,0.86457 -0.027,0.66519 -0.063,1.33014 -0.085,1.99546 -0.01,0.27268 0.049,0.32968 0.3298,0.3425 0.9038,0.0413 1.8077,0.0861 2.7121,0.1079 1.2538,0.0302 2.5063,-0.0161 3.7568,-0.11313 0.079,-0.006 0.1597,-0.008 0.2376,-0.023 0.2247,-0.0423 0.2558,-0.0974 0.1636,-0.3003 -0.053,-0.11736 -0.1187,-0.22962 -0.1812,-0.34287 -1.3493,-2.44785 -2.6992,-4.89558 -4.0487,-7.34342 -0.682,-1.23706 -1.3623,-2.47499 -2.045,-3.71154 -0.1727,-0.31288 -0.2374,-0.33901 -0.5413,-0.24219 -0.236,0.075 -0.2761,0.13118 -0.2736,0.39029 7e-4,0.0795 0.01,0.15892 0.01,0.23845 0.034,0.97334 0.087,1.94643 0.096,2.91989 0.01,0.80458 -0.036,1.60954 -0.057,2.41437 m -58.15231,-1.45241 c 0,-1.43219 0.005,-2.86451 -0.002,-4.29683 -0.004,-0.69557 -0.021,-1.39138 -0.0529,-2.08619 -0.013,-0.28612 -0.0574,-0.57559 -0.12744,-0.85337 -0.15457,-0.61318 -0.568,-0.94957 -1.19748,-0.97645 -0.31673,-0.0136 -0.63869,-0.007 -0.95255,0.0346 -0.72967,0.096 -1.45759,0.20833 -2.18302,0.33278 -0.70452,0.12097 -1.41776,0.20298 -2.08557,0.49283 -0.4876,0.2117 -0.4947,0.19651 -0.23385,0.66856 2.16472,3.91775 4.32907,7.83551 6.49641,11.75177 0.0642,0.11599 0.16017,0.21443 0.24131,0.32108 0.15768,-0.10516 0.0935,-0.26881 0.094,-0.40558 0.005,-1.66107 0.004,-3.32213 0.004,-4.9832 m 11.93322,-0.0442 c 0,1.65136 -3.6e-4,3.30271 0.001,4.95407 1.3e-4,0.11873 0.004,0.23932 0.0252,0.35556 0.0163,0.0895 0.089,0.11624 0.14872,0.0378 0.0778,-0.10217 0.14212,-0.21555 0.20447,-0.3283 1.98713,-3.59617 3.97326,-7.19272 5.95927,-10.78938 0.20684,-0.37448 0.41604,-0.74771 0.61591,-1.1258 0.10429,-0.19725 0.0847,-0.2611 -0.12482,-0.34075 -0.36203,-0.13776 -0.72257,-0.30391 -1.09929,-0.37435 -1.09518,-0.20472 -2.19683,-0.37584 -3.29848,-0.54348 -0.41156,-0.0627 -0.82798,-0.1079 -1.24751,-0.0254 -0.49532,0.0975 -0.84216,0.36527 -0.96798,0.85785 -0.0831,0.32556 -0.14773,0.66321 -0.16142,0.99773 -0.0357,0.8739 -0.0474,1.74905 -0.053,2.62383 -0.008,1.23344 -0.002,2.46701 -0.002,3.70058 m 68.689708,7.50746 v -7.1e-4 c 1.0747,0 2.1495,0.002 3.2242,-10e-4 0.3231,-10e-4 0.3607,-0.0371 0.3828,-0.35568 0.024,-0.34685 0.04,-0.69432 0.055,-1.04167 0.042,-0.98292 0.081,-1.96597 0.1208,-2.94902 0.039,-0.96313 0.079,-1.92627 0.1182,-2.88941 0.041,-0.99287 0.084,-1.98575 0.1203,-2.97876 0.032,-0.85436 0.055,-1.70885 0.082,-2.56334 0,-0.0595 0.011,-0.12034 0,-0.17834 -0.035,-0.23658 -0.2644,-0.33216 -0.44,-0.17174 -0.1002,0.0913 -0.1758,0.21543 -0.2436,0.3354 -0.2398,0.42425 -0.4715,0.85312 -0.7065,1.28011 -2.0384,3.7032 -4.0768,7.4064 -6.1156,11.10947 -0.1929,0.35046 -0.1648,0.40323 0.2354,0.40398 1.0548,0.002 2.1097,7e-4 3.1645,7e-4 M 84.280602,41.132022 h 0.039 c 0,-0.46707 0.013,-0.93464 0,-1.40109 -0.014,-0.37609 -0.031,-0.75766 -0.1063,-1.12467 -0.1296,-0.6306 -0.4994,-0.90377 -1.1421,-0.91497 -0.4335,-0.007 -0.8496,0.0917 -1.2621,0.20634 -1.1534,0.32046 -2.2585,0.77173 -3.3507,1.25547 -0.1898,0.0841 -0.3733,0.19054 -0.543,0.31014 -0.4348,0.30652 -0.5398,0.63893 -0.3741,1.14072 0.041,0.12234 0.088,0.24455 0.1504,0.35668 0.1546,0.27803 0.3088,0.5573 0.4823,0.82363 1.9003,2.91654 3.8039,5.83096 5.7095,8.74413 0.057,0.0872 0.1692,0.23111 0.2132,0.21692 0.1391,-0.0449 0.08,-0.19999 0.082,-0.30963 0.019,-1.44128 0.029,-2.88269 0.049,-4.32385 0.014,-1.01366 0.043,-2.02707 0.056,-3.04073 0.01,-0.64629 0,-1.29269 0,-1.93909 m 29.222098,8.18832 h 0.022 c 0,0.35793 -0.01,0.7161 0,1.0739 0,0.12047 -0.053,0.25862 0.07,0.3578 0.083,-0.0925 0.1811,-0.17547 0.2469,-0.27902 1.4399,-2.26702 2.9323,-4.49907 4.4646,-6.70473 0.6184,-0.89033 1.2421,-1.77718 1.844,-2.67871 0.1568,-0.23497 0.2716,-0.50988 0.3501,-0.78243 0.1065,-0.36938 0,-0.7039 -0.2785,-0.98342 -0.2008,-0.20448 -0.4416,-0.33826 -0.7072,-0.43061 -0.3288,-0.11424 -0.6586,-0.22638 -0.9914,-0.32843 -1.0847,-0.33303 -2.178,-0.63707 -3.2979,-0.82574 -0.8747,-0.14735 -1.5017,0.30802 -1.6671,1.1762 -0.02,0.1069 -0.032,0.21692 -0.034,0.32582 -0.018,1.07327 -0.045,2.14655 -0.046,3.2197 -7e-4,2.28656 0.013,4.57312 0.021,6.85967 m 56.2537,-0.71721 h -0.019 c 0,0.24853 0,0.49731 -7e-4,0.74584 -0.01,0.3079 -0.017,0.61579 -0.027,0.92356 0,0.13055 0.034,0.23696 0.1651,0.28748 0.1217,0.0472 0.2347,-0.004 0.3235,-0.14113 0.016,-0.025 0.028,-0.0525 0.042,-0.0789 0.6167,-1.15902 1.2327,-2.31829 1.8501,-3.47682 0.8747,-1.6414 1.7513,-3.28155 2.6249,-4.92332 0.4765,-0.89556 0.9549,-1.79025 1.4176,-2.6929 0.1164,-0.22713 0.2071,-0.4774 0.255,-0.72742 0.097,-0.50938 -0.1002,-0.86967 -0.5665,-1.09481 -0.1332,-0.0642 -0.2772,-0.11399 -0.4217,-0.14585 -0.5534,-0.12209 -1.1057,-0.25376 -1.6645,-0.34486 -0.647,-0.10541 -1.2984,-0.21605 -1.9515,-0.24555 -1.1862,-0.0536 -1.8182,0.47927 -2.0452,1.63879 -0.1407,0.71871 -0.1295,1.44365 -0.091,2.1697 0.048,0.91273 0.1354,1.82509 0.1418,2.73807 0.012,1.78925 -0.019,3.57875 -0.033,5.36812 m -11.2173,-8.62285 c 0.021,-0.92294 -0.061,-1.61029 -0.2143,-2.08619 -0.2406,-0.74759 -0.747,-1.14459 -1.5259,-1.22101 -0.41,-0.0403 -0.8161,-0.0144 -1.2183,0.0448 -0.679,0.10007 -1.3563,0.21469 -2.0304,0.34324 -0.3607,0.0687 -0.7214,0.15607 -1.0678,0.27604 -0.5953,0.20634 -0.8364,0.66009 -0.684,1.2709 0.06,0.23858 0.1568,0.47305 0.2708,0.69183 0.5145,0.98815 1.0395,1.97083 1.5637,2.95375 1.1981,2.24699 2.4002,4.49173 3.5954,6.74021 0.2283,0.42936 0.4384,0.8688 0.6457,1.30874 0.099,0.2097 0.2154,0.31984 0.363,0.29271 0.1524,-0.0281 0.2029,-0.13914 0.1984,-0.40833 -0.023,-1.41154 -0.048,-2.8232 -0.064,-4.23486 -0.01,-0.81553 0,-1.63132 -0.001,-2.44698 4e-4,-0.24853 0,-0.49768 0.01,-0.74572 0.055,-1.01216 0.1165,-2.02396 0.1605,-2.77914 M 43.701012,51.640632 c 1.07515,0 2.15016,3.6e-4 3.22531,-1.2e-4 0.55779,-3.5e-4 0.55866,-10e-4 0.55878,-0.56265 3.6e-4,-2.79557 -0.004,-5.59126 0.002,-8.38683 0.002,-0.93451 0.0302,-1.86902 0.0518,-2.80341 0.008,-0.32768 0.0332,-0.65499 0.0471,-0.98267 0.005,-0.11898 0.0121,-0.24007 -0.004,-0.35706 -0.0208,-0.15058 -0.14299,-0.26657 -0.27279,-0.27964 -0.14947,-0.0149 -0.24356,0.0645 -0.30528,0.19215 -0.0563,0.11637 -0.10728,0.23547 -0.16889,0.34897 -0.94098,1.73063 -1.88358,3.46051 -2.82519,5.1909 -1.30288,2.39458 -2.6049,4.78966 -3.90841,7.184 -0.21804,0.40061 -0.19129,0.45487 0.25437,0.45562 1.11497,0.002 2.22981,3.5e-4 3.34478,7e-4 m -23.9757,-5.27515 c 0,1.58191 -1.3e-4,3.16382 0,4.74561 0,0.10939 0.004,0.21878 0.006,0.32818 0.002,0.14436 0.0809,0.22053 0.21941,0.23235 0.11885,0.0101 0.23845,0.0141 0.35768,0.0141 2.1402,7.1e-4 4.2804,7.1e-4 6.42073,3.5e-4 0.0994,-1.2e-4 0.19962,0.003 0.29831,-0.007 0.22788,-0.0239 0.26658,-0.0828 0.1654,-0.28848 -0.13142,-0.26769 -0.27889,-0.52755 -0.42139,-0.7899 -0.93514,-1.72241 -1.87288,-3.44359 -2.80578,-5.16738 -1.23593,-2.28332 -2.46801,-4.56876 -3.70245,-6.85283 -0.033,-0.061 -0.0717,-0.11972 -0.11437,-0.17435 -0.085,-0.10865 -0.19016,-0.18034 -0.33552,-0.13217 -0.13055,0.0431 -0.1827,0.15121 -0.19017,0.27715 -0.008,0.12881 -0.003,0.25849 0.002,0.38754 0.0326,0.9039 0.0866,1.80742 0.0957,2.71157 0.016,1.57171 0.004,3.14379 0.005,4.71562 m 73.92276,-2.41749 c 0,-1.95925 0,-3.91862 0,-5.87787 -0.001,-0.27405 -0.049,-0.55531 -0.1238,-0.81952 -0.1087,-0.38543 -0.3736,-0.65337 -0.7559,-0.78691 -0.2743,-0.0958 -0.5571,-0.1415 -0.8506,-0.10902 -1.1763,0.13043 -2.3534,0.25463 -3.5295,0.38729 -0.6126,0.0691 -1.2246,0.14686 -1.8356,0.22912 -0.2097,0.0283 -0.2324,0.0861 -0.1464,0.28076 0.016,0.0363 0.037,0.0704 0.055,0.10592 1.0552,2.06316 2.1115,4.12583 3.1652,6.18987 1.1035,2.16136 2.2044,4.32409 3.3071,6.48595 0.041,0.0795 0.083,0.15905 0.134,0.23223 0.1039,0.14909 0.2607,0.12619 0.4077,0.10416 0.1547,-0.0233 0.1629,-0.15631 0.1714,-0.27578 0.01,-0.11885 0.01,-0.23845 0.01,-0.3578 2e-4,-1.92951 2e-4,-3.85889 1e-4,-5.7884 m 10.605298,0.12781 c 0,1.98875 -0.001,3.97762 0,5.96637 3e-4,0.11872 -0.059,0.2601 0.077,0.35282 0.073,-0.0896 0.1596,-0.171 0.2154,-0.27006 1.3276,-2.35675 2.652,-4.71512 3.9764,-7.07361 1.0566,-1.88147 2.1137,-3.76282 3.1679,-5.64578 0.1993,-0.35581 0.1771,-0.39787 -0.2339,-0.46881 -1.5192,-0.26234 -3.0385,-0.52494 -4.559,-0.78019 -0.4617,-0.0775 -0.9263,-0.12669 -1.3936,-0.0201 -0.5184,0.11811 -0.8704,0.42401 -1.047,0.92144 -0.066,0.18619 -0.1259,0.38245 -0.1397,0.57759 -0.037,0.51498 -0.062,1.03171 -0.064,1.54781 -0.01,1.63082 0,3.26164 0,4.89259 M 2.3224316,38.967582 c 1.08348,-0.73215 2.25283,-1.18479 3.7775,-1.31783 1.65944,-0.14461 3.57252,0.0879 6.4740004,-0.43209 0.20621,-0.0992 4.457,-1.08859 5.054,-1.19773 3.16245,-0.57808 6.32279,-1.16711 9.4881,-1.72852 1.40096,-0.2484 2.81038,-0.45164 4.21931,-0.65225 0.49083,-0.0699 0.99113,-0.0777 1.48782,-0.10068 0.50627,-0.0233 1.01404,-0.0546 1.51968,-0.0383 0.5858,0.0188 1.17458,0.0533 1.75403,0.13677 4.1582,0.59899 8.29163,1.34284 12.41572,2.14083 0.94783,0.18331 1.8969,0.35929 2.8461,0.53539 0.1069,0.0198 0.21767,0.0244 0.32681,0.0261 0.6474,0.0101 1.11136,-0.2723 1.35192,-0.88 0.10579,-0.26745 0.19291,-0.54398 0.2677,-0.82201 0.79089,-2.9398 1.57457,-5.88173 2.36596,-8.82154 0.89481,-3.32399 1.79858,-6.64562 2.69252,-9.96999 0.93277,-3.46835 1.8582,-6.9386999 2.78723,-10.4080499 0.2046,-0.76402 0.1486,-1.53948 0.10828,-2.31457 -0.0156,-0.29781 -0.0342,-0.59587 -0.035,-0.89394 -3.6e-4,-0.25599 0.0446,-0.3171 0.30727,-0.35095 0.39377,-0.0505 0.79139,-0.0718 1.18727,-0.10566 0.39588,-0.0339 0.79587,-0.0432 1.18678,-0.10715 0.64255,-0.10542 1.18379,-0.42065 1.58477,-0.93377 0.26422,-0.33826 0.60086,-0.50627 1.00744,-0.57683 0.35681,-0.0621 0.71262,-0.0724 1.06743,0.008 0.71112,0.16116 1.10949,0.80756 0.9986,1.47351 -0.0565,0.33925 -0.17386,0.65175 -0.3283,0.95467 -0.27803,0.5451 -0.4718,1.1177 -0.55431,1.72528 -0.0174,0.12794 -0.0328,0.25712 -0.0351,0.38605 -0.0226,1.3126 -0.0428,2.6252 -0.063,3.93779 -0.0209,1.3623799 -0.0407,2.7247599 -0.062,4.0870099 -0.0186,1.19325 -0.0397,2.3865 -0.0572,3.57962 -0.0219,1.49168 -0.0407,2.98349 -0.0621,4.47517 -0.0184,1.28273 -0.0402,2.56546 -0.0572,3.84831 -0.0223,1.68073 -0.0396,3.36146 -0.0629,5.04218 -0.009,0.6362 -0.035,1.27215 -0.0385,1.90835 -10e-4,0.18593 0.0301,0.37747 0.0805,0.55693 0.0627,0.22364 0.14524,0.26496 0.37585,0.24168 0.16826,-0.017 0.33503,-0.0507 0.50341,-0.0639 0.17809,-0.0139 0.35904,-0.0301 0.53564,-0.0134 0.2382,0.0225 0.36166,0.17461 0.33217,0.40846 -0.0349,0.27553 -0.0938,0.54821 -0.14636,0.82138 -0.0371,0.19352 -0.0945,0.38419 -0.11811,0.57908 -0.03,0.24778 -0.0743,0.48399 -0.1761,0.71808 -0.12968,0.29832 -0.16091,0.62177 0.001,0.92431 0.15868,0.29632 0.33789,0.58157 0.50851,0.87129 0.0101,0.017 0.0317,0.0295 0.036,0.047 0.0794,0.32495 0.33266,0.33353 0.60123,0.35693 1.14098,0.0994 2.2842,0.1924 3.4283,0.14138 1.2851,-0.0574 2.5565,-0.24978 3.7937,-0.61455 0.9445,-0.27852 1.8799,-0.58841 2.8218,-0.87651 0.3518,-0.10753 0.7126,-0.18569 1.0649,-0.29184 0.1882,-0.0567 0.3678,-0.14275 0.5497,-0.21916 0.091,-0.0385 0.1764,-0.0946 0.2697,-0.12657 1.1587,-0.39725 2.3179,-0.79911 3.5317,-0.99313 1.2774,-0.20423 2.56,-0.37547 3.8405,-0.56053 0.4038,-0.0584 0.8091,-0.1079 1.2115,-0.17473 0.2911,-0.0484 0.3372,-0.096 0.3276,-0.39564 -0.02,-0.63595 -0.051,-1.2719 -0.093,-1.90685 -0.08,-1.20993 -0.2753,-2.41288 -0.2154,-3.63127 0.014,-0.27815 0.021,-0.55655 0.039,-0.83445 0.01,-0.12694 -0.2667,-0.091 -0.3809,-0.16888 0.1464,-0.46844 -0.6099,0.26682 -0.5856,0.0586 0.017,-0.14735 0.6838,-1.02686 0.7258,-1.16898 0.1399,-0.47391 0.1367,-0.94148 -0.037,-1.40594 -0.017,-0.0465 -0.035,-0.0933 -0.049,-0.141 -0.072,-0.2443 -0.05,-0.35233 0.1613,-0.484 0.1488,-0.0927 0.1909,-0.21007 0.2015,-0.369 0.011,-0.16801 0.036,-0.33614 0.068,-0.50166 0.038,-0.19614 0.071,-0.3746 -0.03,-0.57721 -0.1184,-0.23671 0.055,-0.46085 0.3207,-0.47055 0.2938,-0.0108 0.5113,0.22824 0.4699,0.51871 -0.042,0.29458 -0.1123,0.58804 -0.1223,0.88374 -0.011,0.31498 0.013,0.63532 0.061,0.9472 0.069,0.4443 0.4998,0.79712 0.4701,1.24601 -0.016,0.23783 -0.4187,0.56713 -0.4613,0.80135 -0.2331,1.2841 -0.2165,2.56932 -0.082,3.86362 0.1073,1.02798 0.1594,2.06192 0.2243,3.094 0.028,0.45065 0.082,0.49968 0.5245,0.3756 0.2522,-0.0706 0.3007,-0.12544 0.266,-0.37908 -0.046,-0.3344 -0.1113,-0.66607 -0.1663,-0.99935 -0.045,-0.27068 -0.034,-0.54535 0.087,-0.78828 0.2529,-0.50764 0.2336,-1.0383 0.1889,-1.57693 -0.012,-0.13815 -0.027,-0.27915 -0.012,-0.41592 0.025,-0.23945 0.1469,-0.32993 0.3805,-0.38979 0.5969,-0.15295 1.1904,-0.31959 1.7829,-0.48872 0.1032,-0.0294 0.197,-0.0942 0.2922,-0.14785 0.8944,-0.50416 1.8546,-0.76426 2.8813,-0.77098 0.4081,-0.003 0.8164,0.0172 1.2243,0.0103 0.8454,-0.0139 1.691098,-0.026 2.535698,-0.0628 0.8599,-0.0375 1.6614,0.1476 2.4072,0.569 0.1898,0.10728 0.3638,0.12632 0.5866,0.11163 0.3712,-0.0244 0.7574,0.013 1.1215,0.0947 0.3206,0.0718 0.4936,0.35656 0.5978,0.65885 0.1577,0.45749 0.2233,0.9329 0.1608,1.41204 -0.067,0.51174 0.028,1.0108 0.065,1.51495 0.011,0.14773 0.017,0.2957 0.027,0.44367 0.019,0.3074 0.04,0.61467 0.058,0.92219 0.01,0.16764 0.1052,0.25115 0.2627,0.27156 0.2171,0.028 0.435,0.0494 0.652,0.0774 1.0757,0.13827 2.151,0.2789 3.2268,0.41629 0.3054,0.0389 0.6172,0.0455 0.917,0.10952 0.505,0.1079 1.0012,0.256 1.5039,0.37585 0.6966,0.16601 1.3959,0.32083 2.0939,0.48175 0.4558,0.10516 0.9118,0.20958 1.3664,0.32009 0.5537,0.13453 1.0748,0.35556 1.5951,0.58542 0.8736,0.38605 1.7556,0.75331 2.6392,1.11597 0.7158,0.2937 1.4717,0.41778 2.2385,0.48722 1.1727,0.10629 2.3485,0.0917 3.5212,0.0438 0.6833,-0.0279 1.3632,-0.15855 2.0426,-0.25724 0.3061,-0.0444 0.3595,-0.1349 0.3271,-0.45064 -0.019,-0.18805 -0.053,-0.37485 -0.066,-0.56315 -0.01,-0.14759 0,-0.29681 0.01,-0.44516 0.01,-0.15681 0.034,-0.31362 0.031,-0.47006 0,-0.17 0.044,-0.30889 0.1611,-0.43284 0.081,-0.085 0.1615,-0.17747 0.2126,-0.28126 0.1234,-0.25127 0.3222,-0.40062 0.584,-0.4718 0.1535,-0.0417 0.31,-0.0737 0.4668,-0.10106 0.2288,-0.0398 0.3706,-0.16751 0.4489,-0.38592 0.084,-0.23298 0.1898,-0.45811 0.2751,-0.69059 0.03,-0.0811 0.047,-0.17697 0.035,-0.2616 -0.1076,-0.80209 -0.089,-1.60829 -0.084,-2.41362 0.018,-3.06389 0.039,-6.12778 0.06,-9.19154 0.015,-2.26802 0.035,-4.53591 0.044,-6.8038 0.01,-2.6069 0.01,-5.2137999 0.017,-7.8206999 3e-4,-0.17846 0.02,-0.35693 0.031,-0.53552 0.036,-0.57895 0,-1.15329 -0.1302,-1.71905 -0.096,-0.40385 -0.281,-0.76725 -0.5456,-1.08411 -0.1505,-0.18008 -0.2157,-0.3731 -0.2061,-0.60272 0.024,-0.56302 0.2046,-1.07551 0.5263,-1.53088 0.2225,-0.31512 0.5547,-0.48736 0.9359,-0.52855 0.423,-0.0458 0.7447,0.13316 0.9905,0.48412 0.1872,0.26695 0.3828,0.53738 0.6197,0.75816 0.5239,0.48897 1.1878,0.62823 1.8793,0.63757 0.4867,0.007 0.9745,-0.0453 1.4609,-0.0332 0.3256,0.008 0.6513,0.0734 0.9738,0.13067 0.1734,0.0307 0.1925,0.0919 0.1253,0.25364 -0.015,0.0367 -0.035,0.0716 -0.054,0.10665 -0.4626,0.85822 -0.5775,1.77145 -0.4032,2.72053 0.086,0.46893 0.1993,0.93401 0.3239,1.39448 0.6158,2.27598 1.2418,4.5493499 1.8599,6.8248399 1.2624,4.64704 2.5216,9.29495 3.7829,13.94225 0.7036,2.59246 1.4029,5.18617 2.119,7.77514 0.1508,0.5451 0.3607,1.0744 0.5549,1.60681 0.1026,0.28188 0.1534,0.30316 0.4503,0.23384 0.8142,-0.18991 1.6255,-0.39252 2.4409,-0.57696 2.7207,-0.61554 5.4666,-1.08672 8.2396,-1.38901 1.0579,-0.11537 2.1208,-0.18506 3.1823,-0.2662 1.9073,-0.14611 3.8187,-0.14909 5.7287,-0.0967 1.1725,0.0321 2.3439,0.12532 3.5145,0.20907 2.4546,0.17586 4.8871,0.52494 7.3062,0.97086 1.7723,0.32668 3.5313,0.7146 5.2786,1.15591 0.1253,0.0318 4.0515,1.16101 5.4572,1.3859 1.6369,0.26197 2.6356,0.3222 2.6356,0.3222 1.8832,0.37075 3.6602,0.64417 4.2753,1.05412 1.0248,0.38069 2.1375,0.8785 2.4304,1.31769 0.2928,0.43932 0.2576,0.5405 0.4099,1.20059 -0.015,1.48235 0.3596,3.03751 0.3906,4.51923 0.025,1.22212 0.091,2.44487 0.1912,3.66288 0.033,0.39277 0.1046,0.78368 0.1008,1.1818 0,0.51648 0,1.03295 -0.001,1.54943 7e-4,0.19315 -0.044,0.36278 -0.1453,0.53576 -0.086,0.1476 -0.1281,0.33366 -0.1448,0.50702 -0.095,0.98989 -0.1766,1.98103 -0.2639,2.97155 -0.01,0.0786 -0.024,0.15631 -0.036,0.23446 h -0.2391 c -0.1973,-0.0798 -0.2876,-0.23123 -0.3024,-0.43856 -0.01,-0.0789 -0.026,-0.15681 -0.04,-0.23522 -0.1482,-0.85262 -0.2946,-1.70574 -0.4454,-2.55787 -0.07,-0.39302 -0.098,-0.41218 -0.5087,-0.41691 -0.09,-0.001 -0.1792,-3.5e-4 -0.2688,-3.5e-4 -1.2742,-1.2e-4 -2.5485,0.007 -3.8228,-10e-4 -8.9878,-0.0597 -17.9766,0.13266 -26.9638,-0.1135 -0.8343,-0.0228 -1.6705,0.0238 -2.5058,0.0387 -1.1342,0.0203 -2.2682,0.0585 -3.4023,0.0591 -8.651,0.005 -17.3021,0.003 -25.9531,0.003 -0.1394,0 -0.2788,0.004 -0.4181,0.005 -0.1413,7.1e-4 -0.2207,0.0742 -0.2502,0.20796 -0.017,0.0777 -0.035,0.15519 -0.049,0.23359 -0.1282,0.73502 -0.2548,1.47028 -0.3835,2.20517 -0.043,0.24493 -0.08,0.49134 -0.1386,0.73265 -0.037,0.15457 -0.1606,0.21518 -0.322,0.19962 -0.1482,-0.0142 -0.2028,-0.10703 -0.2125,-0.24131 0,-0.0496 -0.01,-0.0992 -0.012,-0.14872 -0.063,-0.70328 -0.1237,-1.40668 -0.1888,-2.10971 -0.027,-0.28687 -0.061,-0.57311 -0.094,-0.85947 -0.016,-0.13802 -0.092,-0.21157 -0.2354,-0.21953 -0.2482,-0.0139 -0.4959,-0.0427 -0.7442,-0.0489 -0.9349,-0.0235 -1.8699,-0.0414 -2.8049,-0.0596 -1.1141,-0.0215 -2.2283,-0.0418 -3.3424,-0.0612 -1.1839,-0.0205 -2.3677,-0.0407 -3.5516,-0.0586 -1.4327,-0.0217 -2.8654,-0.0424 -4.2982,-0.0606 -1.6915,-0.0215 -3.383,-0.0434 -5.0747,-0.0589 -2.5377,-0.0233 -5.0754,-0.0432 -7.6132,-0.0605 -1.3439,-0.009 -2.6878,-0.008 -4.031598,-0.0151 -2.5777,-0.0137 -5.1554,-0.0413 -7.733,-0.0432 -7.8447,-0.006 -15.6893,-0.002 -23.53404,-0.002 -0.0994,0 -0.199,0.005 -0.29819,0.0111 -0.13702,0.008 -0.22015,0.0809 -0.24567,0.21679 -0.0128,0.0683 -0.0261,0.13665 -0.0366,0.20547 -0.142,0.93427 -0.28325,1.86853 -0.42613,2.80267 -0.0104,0.0684 -0.0271,0.13677 -0.0488,0.20248 -0.0342,0.10367 -0.10542,0.16938 -0.21891,0.17099 -0.12035,0.002 -0.17436,-0.0803 -0.20722,-0.1812 -0.0123,-0.0377 -0.0207,-0.0769 -0.0281,-0.11586 -0.1038,-0.54697 -0.22128,-1.09182 -0.30603,-1.64177 -0.0621,-0.40211 -0.0773,-0.81143 -0.12072,-1.21665 -0.0279,-0.26085 -0.0798,-0.31461 -0.33204,-0.32967 -0.76451,-0.0454 -1.52939,-0.11836 -2.29415,-0.1196 -8.37227,-0.0132 -16.74454,-0.0208 -25.11681,-0.0164 -3.39393,0.002 -6.78774,0.0504 -10.18168,0.054 -7.93432,0.009 -15.86864,0.001 -23.8029604,0.006 -0.61617,3.5e-4 -1.23282,0.0439 -1.84836,0.0811 -0.35967,0.0218 -0.39614,0.0679 -0.46322,0.42028 -0.004,0.0196 -0.007,0.0393 -0.01,0.0589 -0.14188,0.8235 -0.28313,1.64712 -0.42626,2.47037 -0.0169,0.0977 -0.0322,0.19801 -0.0676,0.28973 -0.0567,0.1476 -0.29346001,0.27728 -0.43857001,0.25264 -0.17896,-0.0305 -0.18979,-0.18109 -0.22115,-0.31549 -0.009,-0.0386 -0.0108,-0.0788 -0.0168,-0.11811 -0.11637,-0.75704 -0.22912,-1.5147 -0.35345,-2.27038 -0.0179,-0.10952 -0.22999,-1.58763 -0.11287,-2.67112 0.11723,-1.08335 -0.1201,-1.74183 -0.0615,-2.67883 0.0585,-0.937 0.17872,-2.40118 0.29284,-3.1332 0.114,-0.73216 0.0615,-1.89902 0.0615,-4.05627 0.0439,-1.56661 1.96199001,-2.57679 1.96199001,-2.57679"
     style="fill:#000000;fill-opacity:1;fill-rule:nonzero;stroke:none;stroke-width:0.352778"
     id="path524" /></svg>
