<?xml version="1.0" encoding="UTF-8" standalone="no"?>
<!-- Created with Inkscape (http://www.inkscape.org/) -->

<svg
   width="90mm"
   height="20mm"
   viewBox="0 0 90 20"
   version="1.1"
   id="svg646"
   xmlns="http://www.w3.org/2000/svg"
   xmlns:svg="http://www.w3.org/2000/svg">
  <defs
     id="defs643" />
  <g
     id="layer1"
     transform="translate(-53.617934,-109.86603)">
    <path
       id="path2576"
       style="display:inline;fill:#b5adff;fill-opacity:1;stroke-width:0.0846667"
       d="m 60.542698,112.48533 c -0.195773,0 -0.937927,0.2049 -0.937927,0.2589 0,0.0332 0.09546,0.12266 0.211873,0.19896 l 0.211357,0.139 v 2.96106 c 0,2.50897 0.01853,2.96158 0.120923,2.96158 0.06647,0 0.202063,-0.10332 0.301273,-0.22944 0.151945,-0.1932 0.203324,-0.21266 0.324011,-0.12506 1.016471,0.73796 2.533625,0.27225 2.933155,-0.9002 0.200803,-0.58936 0.170058,-1.49384 -0.06821,-2.00557 -0.229545,-0.49293 -0.670922,-0.91171 -1.115178,-1.05833 -0.502448,-0.16582 -1.239556,-0.0732 -1.598352,0.2005 l -0.304891,0.23203 v -1.31671 c 0,-0.74881 -0.03355,-1.31672 -0.07803,-1.31672 z m 12.197705,0 c -0.09031,-0.001 -0.214044,0.0511 -0.383439,0.0992 -0.468224,0.13293 -0.545384,0.21721 -0.288871,0.31472 0.293526,0.1116 0.321427,0.22529 0.321427,1.3012 v 0.93948 l -0.190686,-0.1788 c -0.620325,-0.58111 -1.866304,-0.45402 -2.487703,0.25373 -0.420135,0.47851 -0.567216,0.96833 -0.521416,1.73529 0.0577,0.96622 0.441319,1.59878 1.167888,1.92443 0.197446,0.0885 0.482864,0.12431 0.855761,0.10801 0.459058,-0.0201 0.61541,-0.0666 0.868165,-0.25942 l 0.307991,-0.23512 0.229762,0.29242 c 0.150995,0.19217 0.37943,0.25528 0.738208,0.11685 0.118749,-0.0458 0.229071,-0.11962 0.238427,-0.22184 0.01001,-0.10938 -0.247906,-0.11302 -0.347075,-0.11718 -0.190221,-0.008 -0.201838,-0.31862 -0.212875,-0.4234 -0.05916,-0.56163 -0.03356,-2.66738 -0.03356,-2.66738 -0.03143,-2.49804 0.0089,-2.97912 -0.262,-2.98225 z m -4.911328,0.0315 c -0.233897,-0.009 -0.563314,0.04 -0.775663,0.24237 -0.256514,0.24445 -1.109158,1.90981 -1.430404,2.46083 l -0.256832,0.4408 -0.0021,-0.52969 c -10e-4,-0.29104 -0.03709,-0.52865 -0.0801,-0.52865 -0.195773,0 -0.937928,0.20439 -0.937928,0.25839 0,0.0332 0.09546,0.12317 0.211874,0.19947 l 0.211356,0.13849 v 1.68414 1.68465 l -0.232544,0.17363 v -5.2e-4 l -0.23306,0.17364 0.788582,0.003 c 0.504522,0.002 0.769372,-0.0275 0.735872,-0.0817 -0.02878,-0.0466 -0.106105,-0.0847 -0.171565,-0.0847 -0.245078,0 -0.311566,-0.34043 -0.278536,-1.42834 0.0304,-1.00137 0.04953,-1.10211 0.297139,-1.57768 0.63961,-1.22849 1.552696,-2.86558 2.456181,-2.6293 0.09898,0.0259 0.196566,0.0941 0.256315,0.19276 0.132887,0.21926 0.18928,0.5018 -0.0083,0.65009 -0.164458,0.12364 -0.291807,0.1472 -0.437699,0.0584 -0.116395,-0.0709 0.241944,0.008 0.223242,-0.33021 -0.0149,-0.26952 -0.158359,-0.38864 -0.380856,-0.38137 -0.356347,0.0117 -0.440366,0.44665 -0.248046,0.6289 0.237686,0.22525 0.586796,0.32683 0.907954,0.20102 0.176012,-0.069 0.407073,-0.25344 0.36897,-0.57774 -0.08386,-0.71377 -0.422945,-1.01927 -0.983919,-1.04077 z m 15.656409,0.90021 c -0.04396,0 -0.183334,0.23128 -0.310059,0.51366 -0.182335,0.40629 -0.298075,0.54795 -0.555005,0.67903 -0.417555,0.21303 -0.412571,0.33124 0.01395,0.33124 h 0.33848 v 1.66244 1.66243 l 0.783415,0.80046 c 0.779157,0.79642 1.237841,1.13371 1.828312,1.34463 0.538045,0.19221 1.357681,0.14905 1.853634,-0.0982 0.41006,-0.20435 1.101044,-0.84976 1.008724,-0.94206 -0.02341,-0.0234 -0.321909,0.0937 -0.663009,0.25993 -0.733594,0.35757 -1.514424,0.50157 -2.107365,0.38912 -1.509053,-0.28619 -2.100781,-1.409 -2.107881,-3.99923 l -0.0031,-1.07953 h 0.677478 c 0.54563,0 0.676961,-0.0248 0.676961,-0.12712 0,-0.1023 -0.131331,-0.12661 -0.676961,-0.12661 H 83.56558 v -0.6351 c 0,-0.34925 -0.03615,-0.6351 -0.0801,-0.6351 z m 12.861974,-0.41588 c -0.696016,0.23203 -1.354364,1.14372 -1.733988,1.97514 -0.379624,0.83142 -0.802669,1.94785 -0.978735,2.44077 -0.112276,0.31433 -0.223313,0.57154 -0.247013,0.57154 -0.05117,-2e-5 -1.02611,-2.87894 -1.02061,-3.01377 0.0021,-0.0511 0.08953,-0.1345 0.194303,-0.185 0.151174,-0.0729 0.02437,-0.0914 -0.613916,-0.0904 -0.760882,0.001 -0.789921,0.007 -0.534851,0.11885 l 0.269751,0.11834 -0.500228,1.49552 c -0.275132,0.82257 -0.516224,1.51147 -0.535884,1.53117 -0.04545,0.0455 -0.984953,-2.76461 -0.984953,-2.94607 0,-0.0743 0.08591,-0.17688 0.190686,-0.22738 0.152387,-0.0735 0.03375,-0.0927 -0.592729,-0.0977 -0.43073,-0.003 -0.782898,0.0156 -0.782898,0.0413 0,0.0257 0.110721,0.0852 0.24598,0.13229 0.301359,0.10506 0.392714,0.31088 1.117761,2.50889 0.385239,1.16791 0.574437,1.62987 0.666626,1.62936 0.09109,-4.8e-4 0.311893,-0.52327 0.756027,-1.78955 l 0.627352,-1.78904 0.609781,1.76837 c 0.365923,1.0606 0.657315,1.77729 0.727605,1.79059 0.07838,0.0148 0.215156,-0.25184 0.412894,-0.80461 0.317653,-0.88792 0.794597,-2.08878 1.252193,-3.01965 0.457596,-0.93087 1.184837,-1.51797 2.03928,-1.64579 0.605634,-0.0906 0.826261,0.3195 1.005593,0.25723 0.445955,-0.15483 -0.05933,-0.6044 -0.447532,-0.78859 -0.368254,-0.17474 -0.899452,-0.0628 -1.142495,0.0182 z m -20.518355,1.6001 c -0.518194,0.008 -1.029172,0.21815 -1.37666,0.61392 -0.420124,0.47851 -0.567225,0.96822 -0.521415,1.73529 0.04321,0.72359 0.227497,1.18027 0.630969,1.56321 0.637252,0.60482 1.804915,0.66967 2.378666,0.1323 l 0.19017,-0.17881 -5.17e-4,0.54416 c -6.04e-4,0.69583 -0.120945,1.12291 -0.406694,1.44177 -0.400745,0.4472 -1.234746,0.48123 -1.673799,0.0693 -0.242714,-0.22802 -0.346341,-0.69094 -0.217558,-0.97359 0.08613,-0.18898 0.07595,-0.20515 -0.130741,-0.20515 -0.801035,0 -0.673973,1.2304 0.166398,1.61178 0.704013,0.31958 1.836474,0.18215 2.332674,-0.28267 0.447521,-0.41912 0.470782,-0.57763 0.504362,-3.42459 0.02726,-2.31142 0.01555,-2.64584 -0.0956,-2.64584 -0.06998,0 -0.208781,0.10333 -0.307991,0.22945 -0.151945,0.1932 -0.202808,0.21265 -0.323495,0.12505 -0.338282,-0.24559 -0.745719,-0.36171 -1.148767,-0.35553 z m 20.351167,0.0487 c -0.145994,0 -0.959632,0.29176 -0.959632,0.34416 0,0.0327 0.09494,0.12214 0.211357,0.19844 l 0.211873,0.13849 v 1.64228 1.64176 l -0.23306,0.17363 -0.232544,0.17364 0.788065,0.003 c 0.504521,0.002 0.769373,-0.0269 0.735873,-0.0811 -0.02878,-0.0466 -0.106106,-0.0832 -0.171566,-0.0832 -0.244975,0 -0.311276,-0.34055 -0.278536,-1.42834 0.03589,-1.19262 0.141334,-1.50542 0.681095,-2.02365 0.551016,-0.52904 1.215857,-0.50023 1.518254,0.0651 0.140331,0.26245 0.155869,0.46555 0.135909,1.77715 l -0.02274,1.48053 -0.253731,0.12195 -0.254248,0.12299 0.56534,0.0925 c 0.459276,0.0752 0.689264,0.15648 1.164787,0.51263 0.828834,0.62078 1.462934,0.98415 2.394174,0.94465 0.58531,-0.0248 0.92644,-0.22856 1.11931,-0.33848 0.25538,-0.14554 0.62457,-0.54276 0.8823,-0.92129 0.22959,-0.3372 0.54773,-0.75946 0.61864,-0.8843 -0.0869,-0.10301 -0.49692,-1.23996 -0.72437,-1.29734 -0.0216,0.25523 0.0307,1.41558 -0.0894,1.85582 -0.0796,0.29196 -0.26036,0.53775 -0.59779,0.72931 -0.66044,0.37492 -1.50885,0.47953 -2.10065,0.36897 -1.33004,-0.24848 -2.088595,-1.45852 -2.089795,-3.33468 -5.66e-4,-0.91836 -0.100564,-1.32135 -0.415479,-1.6738 -0.203761,-0.22804 -0.30547,-0.27019 -0.742073,-0.30179 -0.613689,-0.0444 -1.026326,0.13613 -1.493449,0.65319 l -0.311609,0.3452 v -0.50798 c 0,-0.27885 -0.0256,-0.50685 -0.05633,-0.50798 z m -28.017365,-0.0476 c -0.195773,0 -0.937928,0.20439 -0.937928,0.25839 0,0.0332 0.09494,0.12317 0.211357,0.19947 l 0.211873,0.13849 v 1.68414 1.68465 l -0.23306,0.17363 v -5.2e-4 l -0.232544,0.17364 0.788065,0.003 c 0.504521,0.002 0.769373,-0.0269 0.735873,-0.0811 -0.02878,-0.0466 -0.106106,-0.0832 -0.171566,-0.0832 -0.249825,0 -0.294039,-0.33839 -0.294039,-2.23811 0,-1.11045 -0.03262,-1.90762 -0.07803,-1.90996 z m 12.146028,0.011 v 5.1e-4 c -0.773047,0.013 -1.436754,0.49347 -1.691369,1.24075 -0.169144,0.49645 -0.168977,1.40319 5.16e-4,1.90066 0.149421,0.43852 0.611889,0.95935 1.00304,1.12965 0.32358,0.14091 1.06544,0.15232 1.495516,0.0238 0.369074,-0.11058 0.925008,-0.53658 0.925008,-0.709 0,-0.0895 -0.09166,-0.0756 -0.402043,0.062 -0.484514,0.21479 -1.223499,0.23602 -1.5875,0.0455 -0.535095,-0.28044 -0.939254,-0.88642 -1.029394,-1.54409 l -0.05219,-0.38241 h 1.503784 1.504301 l -0.05684,-0.3545 c -0.13719,-0.85795 -0.653539,-1.3574 -1.456759,-1.4087 -0.05242,-0.003 -0.104526,-0.004 -0.156063,-0.004 z m 6.578455,-0.0479 c -0.337537,0.005 -0.686797,0.10232 -1.011353,0.33367 -0.528412,0.37669 -0.808161,0.94761 -0.854211,1.74304 -0.06165,1.065 0.354715,1.90149 1.118278,2.24689 0.166569,0.0753 0.494139,0.17821 0.881577,0.16318 0.789886,-0.0306 1.209621,-0.37711 1.575121,-1.09179 0.21328,-0.41706 0.24908,-0.58379 0.24908,-1.14929 0,-0.87176 -0.276132,-1.4935 -0.862997,-1.89135 -0.461979,-0.31319 -0.789828,-0.35912 -1.095495,-0.35435 z m -25.256901,0.34194 c 0.529588,-0.008 1.11969,0.3682 1.435054,1.04076 0.185675,0.39596 0.222209,0.5945 0.222209,1.19476 0,0.59995 -0.03177,0.77043 -0.191203,1.02681 -0.105187,0.16914 -0.295584,0.34797 -0.42323,0.39687 -0.605529,0.23208 -1.000653,0.16296 -1.435571,-0.25063 -0.486901,-0.46302 -0.61285,-0.83534 -0.61495,-1.81694 -0.0016,-0.75252 0.02139,-0.88997 0.19172,-1.14308 0.202238,-0.30053 0.498212,-0.44373 0.815971,-0.44855 z m 25.035164,0.002 c 0.29097,-0.002 0.600516,0.10748 0.880567,0.34313 0.862872,0.72607 1.026283,2.70225 0.267167,3.23185 -0.484251,0.33784 -1.150032,0.25522 -1.626774,-0.20154 -0.518359,-0.49662 -0.80431,-1.70041 -0.591179,-2.48822 0.152824,-0.56487 0.585274,-0.8814 1.070219,-0.88522 z m -15.748909,0.004 c 0.531819,0.0122 1.018038,0.37055 1.311548,1.00252 0.230168,0.49558 0.227934,1.92162 -0.0036,2.30167 -0.09047,0.14837 -0.233313,0.30585 -0.317293,0.34985 -0.703387,0.36876 -1.507226,-0.001 -1.945101,-0.89452 -0.204995,-0.41825 -0.238838,-0.58976 -0.239262,-1.20716 -5.27e-4,-0.83493 0.188594,-1.25492 0.652157,-1.44694 0.181913,-0.0753 0.364292,-0.10949 0.541569,-0.10542 z m 4.741312,0 c 0.53183,0.0122 1.018555,0.37055 1.312065,1.00252 0.120978,0.26048 0.157763,0.54246 0.159163,1.22008 0.0017,0.81257 -0.01516,0.90224 -0.211873,1.16014 -0.129348,0.16959 -0.337591,0.3137 -0.529167,0.3669 -0.355843,0.0993 -0.318568,0.0997 -0.63872,0.003 -0.414829,-0.12452 -0.799171,-0.4892 -1.045931,-0.9927 -0.204995,-0.41825 -0.238838,-0.58976 -0.239262,-1.20716 -5.27e-4,-0.83493 0.188605,-1.25441 0.652156,-1.44643 0.181914,-0.0753 0.364303,-0.11 0.541569,-0.10593 z m 4.447274,0.009 c 0.490605,-0.0149 0.927115,0.33265 1.167371,0.97204 l 0.08733,0.23306 h -1.18339 c -0.855123,0 -1.182874,-0.0283 -1.182874,-0.10077 0,-0.24882 0.375872,-0.84568 0.608232,-0.96584 0.170407,-0.0881 0.339793,-0.13352 0.503328,-0.13849 z" />
    <path
       id="path2580"
       style="display:inline;fill:#b5adff;fill-opacity:1;stroke-width:0.0771819"
       d="m 86.756037,115.62279 c -0.0392,0 -0.24759,0.0407 -0.463073,0.0904 -0.420912,0.0972 -0.496291,0.21336 -0.218109,0.33541 l 0.173824,0.0759 0.101474,6.27932 0.02124,2.55665 -0.214344,0.17335 -0.213869,0.17336 0.718401,4.8e-4 c 0.459427,2.7e-4 0.701319,-0.0274 0.670817,-0.0768 -0.02625,-0.0425 -0.09673,-0.0772 -0.156403,-0.0772 -0.240989,0 -0.268036,-0.35392 -0.268036,-3.05317 0,-1.6038 -0.111595,-6.46509 -0.151794,-6.47766 z m 29.402843,3.74373 c -0.0398,1.6e-4 -0.24801,0.0408 -0.46307,0.0904 -0.42092,0.0972 -0.49631,0.21289 -0.21811,0.33495 l 0.17383,0.0763 0.0212,2.50804 0.0212,2.5085 -0.20115,0.16252 -0.20115,0.16206 0.43715,0.0513 c 0.52374,0.0615 0.71189,0.15286 1.63277,0.79331 0.84606,0.58845 1.53289,0.92182 2.19759,1.06604 1.20483,0.26143 2.57507,0.10926 3.72814,-0.41361 0.57069,-0.25876 1.74205,-0.99541 1.74205,-1.09573 0,-0.0975 0.0157,-0.10296 -0.71086,0.23272 -1.28731,0.59474 -2.49505,0.87747 -3.72718,0.87291 -1.50078,-0.005 -2.66244,-0.39277 -3.40498,-1.13531 -0.83663,-0.83663 -0.95258,-1.34229 -0.95441,-4.15021 -8.2e-4,-1.2103 -0.0312,-2.06429 -0.073,-2.06429 z m -34.879276,0.0717 c -0.85608,0 -1.290073,0.45256 -1.363302,1.42079 l -0.0443,0.58602 h -0.259094 c -0.178764,0 -0.259094,0.0359 -0.259094,0.11589 0,0.0809 0.08122,0.11588 0.269933,0.11588 h 0.270397 v 2.24046 c 0,2.39298 -0.0247,2.57767 -0.391941,2.91976 -0.135809,0.12656 -0.275192,0.16535 -0.593558,0.16535 -0.356744,0 -0.447621,-0.0321 -0.641144,-0.22565 -0.224089,-0.22408 -0.301055,-0.56751 -0.14839,-0.66187 0.130522,-0.0807 0.08542,-0.19314 -0.07721,-0.19314 -0.236705,0 -0.463073,0.27442 -0.463073,0.56153 0,0.31766 0.181034,0.58152 0.49228,0.71698 0.344639,0.15003 1.031946,0.13405 1.39911,-0.033 0.389105,-0.17677 0.776971,-0.61316 0.882334,-0.99257 0.04731,-0.17041 0.08131,-1.16555 0.0815,-2.39497 l 4.74e-4,-2.10291 h 0.732996 c 0.600295,0 0.733471,-0.0211 0.733471,-0.11588 0,-0.0949 -0.134525,-0.11589 -0.744775,-0.11589 h -0.744309 l 0.04476,-0.5342 c 0.05588,-0.66681 0.216012,-0.98747 0.56529,-1.13342 0.330773,-0.1382 0.630725,-0.0256 0.784356,0.29489 0.08341,0.17408 0.08013,0.25442 -0.01887,0.49134 -0.150851,0.36103 -0.15705,0.34106 0.11353,0.34106 0.493183,0 0.715057,-0.60555 0.378751,-1.03308 -0.233661,-0.29706 -0.548071,-0.4334 -1.000104,-0.4334 z m 7.292906,-0.32374 c -0.04136,0.0306 -0.326697,0.27354 -0.716179,0.49281 0.04466,0.0796 0.113727,0.18866 0.293828,0.12626 0.391446,-0.29501 0.3497,0.20638 0.3497,0.20638 l 0.02115,2.5085 0.02124,2.50851 -0.21387,0.17336 -0.214344,0.17335 0.718393,4.8e-4 c 0.459417,1.8e-4 0.701328,-0.028 0.670826,-0.0772 -0.02625,-0.0425 -0.09673,-0.0768 -0.156403,-0.0768 -0.189193,0 -0.268046,-0.27945 -0.268046,-0.94782 0,-0.54003 0.02434,-0.67144 0.146512,-0.78198 0.141489,-0.12805 0.167998,-0.10687 0.719341,0.58602 0.31471,0.39549 0.637461,0.72357 0.86773,0.95394 0.589885,0.59018 1.187482,1.21577 1.666946,1.48445 0.375067,0.21018 0.592775,0.32209 1.096942,0.45243 0.282814,0.0731 0.624106,0.0738 1.057689,0.006 0.438287,-0.0682 1.357458,-0.28875 1.545557,-1.22669 0.03473,-0.17341 0.214517,-0.66251 0.214699,-1.89193 l 4.65e-4,-2.1029 h 0.733006 c 0.600295,0 0.733471,-0.0211 0.733471,-0.11589 0,-0.0949 -0.13406,-0.11588 -0.74431,-0.11588 h -0.744774 l 0.04476,-0.53421 c 0.05588,-0.6668 0.216012,-0.98747 0.565299,-1.13342 0.330755,-0.1382 0.630725,-0.0256 0.784347,0.2949 0.08341,0.17408 0.08013,0.25441 -0.01887,0.49133 -0.150842,0.36103 -0.157068,0.34107 0.11353,0.34107 0.493174,0 0.715522,-0.60556 0.379224,-1.03309 -0.23366,-0.29706 -0.548553,-0.43339 -1.000577,-0.43339 -0.856071,0 -1.290082,0.45256 -1.363311,1.42078 l -0.04476,0.58603 h -0.259094 c -0.178755,0 -0.259094,0.0359 -0.259094,0.11588 0,0.0809 0.08177,0.11589 0.270398,0.11589 h 0.269933 v 2.24046 c 0,2.33337 -0.569703,2.55365 -1.096633,2.699 -0.413181,0.11398 -0.874157,0.13185 -1.389391,-0.0778 -0.454194,-0.18477 -0.743371,-0.36697 -1.536068,-1.23205 -0.517768,-0.56504 -2.058622,-2.28226 -2.058622,-2.40156 0,-0.0266 0.270571,-0.31148 0.601098,-0.63313 0.44196,-0.43009 0.686979,-0.60835 0.926145,-0.67271 0.178865,-0.0481 0.325522,-0.10335 0.325522,-0.12295 0,-0.0196 -0.321501,-0.0339 -0.714163,-0.033 -0.639904,0.002 -0.698565,0.0138 -0.566238,0.114 0.139784,0.10578 0.109948,0.14968 -0.558699,0.82722 l -0.70615,0.71557 -9.12e-4,-1.83298 c -3.39e-4,-0.6815 -0.06877,-1.70374 -0.170544,-2.05011 -0.02919,-0.0993 -0.08602,-0.29257 -0.336699,-0.10717 z m 18.89777,0.63796 c -0.32503,0 -0.45925,0.34018 -0.22613,0.5733 0.23312,0.23312 0.57331,0.0989 0.57331,-0.22612 0,-0.20689 -0.14029,-0.34718 -0.34718,-0.34718 z m -2.0412,0.61759 c -0.0401,0 -0.16713,0.21036 -0.28265,0.46777 -0.16622,0.37038 -0.27172,0.49952 -0.50593,0.61901 -0.38064,0.19419 -0.37653,0.30244 0.0122,0.30244 h 0.30855 v 1.51546 1.51547 l 0.71417,0.72969 c 0.71027,0.72603 1.12841,1.03349 1.66668,1.22576 0.49048,0.17522 1.23766,0.1353 1.68976,-0.09 0.37382,-0.18629 1.0037,-0.77417 0.91956,-0.85831 -0.0213,-0.0213 -0.29346,0.085 -0.6044,0.23648 -0.66876,0.32596 -1.38054,0.4577 -1.92107,0.3552 -1.37565,-0.26088 -1.91516,-1.28436 -1.92154,-3.64569 l -0.003,-0.98408 h 0.61759 c 0.49738,0 0.61711,-0.0226 0.61711,-0.1159 0,-0.0932 -0.11973,-0.11588 -0.61711,-0.11588 h -0.61759 v -0.57896 c 0,-0.31837 -0.0329,-0.57848 -0.073,-0.57848 z m 7.20361,0.15622 c -0.25664,0 -0.32475,-0.0242 -0.61178,0.24045 -0.57724,0.53208 -1.34357,1.92408 -1.85229,3.36493 l -0.14273,0.40465 -0.52526,-1.40004 c -0.28892,-0.77002 -0.52525,-1.442 -0.52525,-1.49286 0,-0.0509 0.0778,-0.13015 0.17335,-0.17619 0.13883,-0.0669 0.0298,-0.0845 -0.54457,-0.0891 -0.46058,-0.004 -0.70135,0.0226 -0.67081,0.0721 0.0262,0.0425 0.11319,0.0772 0.19314,0.0772 0.0799,0 0.19323,0.0687 0.25203,0.15263 0.0587,0.0839 0.39892,0.93478 0.75561,1.89091 0.45548,1.22096 0.68357,1.73805 0.76598,1.73782 0.0789,-2.6e-4 0.20255,-0.24604 0.37827,-0.75232 0.49664,-1.4308 1.40851,-3.03734 1.93803,-3.41439 0.28714,-0.20445 0.56298,-0.135 0.91626,-0.16063 0.16215,-0.0118 0.16487,0.0676 0.16487,-0.0688 -0.15041,-0.30815 -0.39247,-0.38043 -0.66485,-0.38636 z m -28.914775,0.7299 c -0.03984,-9.1e-4 -0.08013,-6.5e-4 -0.122008,9.1e-4 -0.262467,0.01 -0.604844,0.0934 -0.900703,0.30432 -0.481697,0.34339 -0.736716,0.86385 -0.778695,1.58896 -0.05625,0.97085 0.323334,1.73391 1.01942,2.04873 0.151818,0.0686 0.460849,0.15166 0.814019,0.13802 0.720061,-0.0278 1.091856,-0.33314 1.425026,-0.98456 0.194444,-0.38018 0.227526,-0.53264 0.227526,-1.04815 0,-0.79469 -0.238492,-1.38181 -0.786699,-1.72416 -0.37576,-0.23464 -0.618846,-0.316 -0.897886,-0.3241 z m 18.967585,0.0344 c -0.45229,0.005 -0.86912,0.2376 -1.06793,0.64303 -0.28102,0.57309 -0.049,0.90071 1.06652,1.50604 0.78196,0.42434 1.01432,0.7002 0.92662,1.0995 -0.0711,0.32386 -0.34673,0.4838 -0.83428,0.4838 -0.58588,0 -0.89154,-0.18552 -1.26391,-0.76645 -0.0755,-0.11778 -0.0924,-0.0331 -0.0942,0.47391 -0.002,0.541 0.0113,0.60028 0.10458,0.47721 0.1,-0.13196 0.12787,-0.13302 0.46307,-0.0193 0.78417,0.26624 1.6792,0.0737 1.93237,-0.41596 0.15672,-0.303 0.14958,-0.84828 -0.0141,-1.08584 -0.18684,-0.27112 -0.29635,-0.35023 -0.96005,-0.69155 -0.32452,-0.16688 -0.66336,-0.39609 -0.75279,-0.50971 -0.28794,-0.36607 -0.17179,-0.75195 0.26192,-0.86914 0.48293,-0.13049 1.00142,0.1348 1.19984,0.61381 0.15381,0.37136 0.228,0.25523 0.228,-0.35519 0,-0.6002 -0.0314,-0.67101 -0.19644,-0.44517 -0.0926,0.12662 -0.11226,0.12662 -0.3778,0 -0.20298,-0.0968 -0.41577,-0.14129 -0.62136,-0.13897 z m 4.98357,0.005 c -0.17848,0 -0.85501,0.18677 -0.85501,0.236 0,0.0303 0.0871,0.11182 0.19314,0.18137 l 0.19268,0.12672 v 1.53525 1.53573 l -0.21199,0.15828 v -4.7e-4 l -0.21246,0.15828 0.7184,0.003 c 0.45993,0.002 0.70136,-0.0251 0.67082,-0.0744 -0.0262,-0.0425 -0.0962,-0.0772 -0.15593,-0.0772 -0.22773,0 -0.26852,-0.30846 -0.26852,-2.04025 0,-1.01178 -0.0298,-1.73876 -0.0711,-1.74158 z m 5.56205,0.002 c -0.38612,-0.011 -0.81422,0.076 -1.07171,0.24637 -0.40256,0.26638 -0.55898,0.66644 -0.37215,0.95159 0.0764,0.11663 0.19782,0.18984 0.31421,0.18984 0.17882,0 0.1871,-0.0188 0.14462,-0.32882 -0.039,-0.28468 -0.0179,-0.35612 0.15781,-0.53184 0.23169,-0.23171 0.58063,-0.30729 0.9497,-0.20539 0.39335,0.10864 0.66973,0.6586 0.46825,0.93179 -0.055,0.0745 -0.44594,0.27657 -0.86914,0.44989 -1.18314,0.48453 -1.43243,0.72814 -1.42878,1.39769 0.002,0.37311 0.14967,0.60857 0.49981,0.79518 0.16393,0.0874 0.38231,0.11547 0.74807,0.0975 0.44033,-0.0216 0.55944,-0.0598 0.80744,-0.2605 l 0.29113,-0.23507 0.15969,0.23789 c 0.18127,0.26964 0.41406,0.33121 0.74054,0.19598 0.29753,-0.12308 0.29231,-0.30573 -0.005,-0.30573 -0.29337,0 -0.2993,-0.0284 -0.32692,-1.58236 -0.0249,-1.397 -0.10646,-1.65608 -0.60346,-1.91447 -0.15505,-0.0806 -0.3714,-0.12281 -0.60298,-0.12955 z m -13.784765,0.008 v 4.7e-4 c -0.704719,0.0119 -1.310192,0.44985 -1.542312,1.13107 -0.154187,0.45256 -0.15406,1.27914 4.65e-4,1.73263 0.136211,0.39975 0.557797,0.87454 0.914368,1.02978 0.294965,0.12846 0.971734,0.13884 1.363774,0.0217 0.33644,-0.10081 0.84277,-0.48915 0.84277,-0.64632 0,-0.0816 -0.0836,-0.0689 -0.3665,0.0565 -0.44169,0.19589 -1.115343,0.21514 -1.447164,0.0415 -0.487796,-0.25565 -0.855743,-0.80815 -0.937915,-1.40758 l -0.04804,-0.34861 h 1.371315 1.370844 l -0.0513,-0.32316 c -0.12506,-0.78209 -0.59623,-1.2374 -1.328446,-1.28416 -0.04777,-0.003 -0.09481,-0.004 -0.141799,-0.004 z m -16.03181,0.26428 c 0.265247,-0.002 0.547906,0.098 0.803189,0.31279 0.786589,0.66188 0.935553,2.46336 0.243551,2.94614 -0.44144,0.30798 -1.048354,0.23266 -1.482967,-0.18372 -0.472516,-0.45272 -0.733206,-1.55009 -0.538908,-2.26825 0.139319,-0.51492 0.533056,-0.80348 0.975135,-0.80696 z m 15.845735,0.0169 h 4.74e-4 c 0.447229,-0.0136 0.844686,0.30323 1.063696,0.8861 l 0.0791,0.21246 h -1.078309 c -0.779516,0 -1.078775,-0.0254 -1.078775,-0.0914 0,-0.22682 0.34266,-0.77138 0.554461,-0.88092 0.155345,-0.0803 0.310225,-0.12172 0.459308,-0.12625 z m 14.61622,1.34682 0.0231,0.29819 c 0.0311,0.39154 -0.10885,1.13172 -0.25627,1.35671 -0.0644,0.0982 -0.1948,0.22669 -0.28971,0.28594 -0.41671,0.25997 -1.01095,0.16911 -1.19608,-0.18277 -0.14357,-0.2729 -0.0675,-0.75741 0.15358,-0.97843 0.10081,-0.10081 0.49393,-0.31743 0.87385,-0.48145 z" />
    <path
       d="m 104.56657,112.50526 c -0.19577,0 -0.93741,0.2049 -0.93741,0.25891 0,0.0332 0.0949,0.12265 0.21136,0.19895 l 0.21187,0.13901 v 2.96106 c 0,2.50897 0.0185,2.96158 0.12092,2.96158 0.0665,0 0.20207,-0.10332 0.30128,-0.22944 0.15194,-0.1932 0.2028,-0.21266 0.32349,-0.12506 1.01647,0.73796 2.53415,0.27225 2.93367,-0.9002 0.20078,-0.58936 0.16957,-1.49384 -0.0687,-2.00557 -0.22955,-0.49293 -0.6704,-0.91171 -1.11466,-1.05833 -0.50244,-0.16582 -1.24007,-0.0732 -1.59887,0.2005 l -0.30437,0.23203 v -1.31671 c 0,-0.74882 -0.0341,-1.31673 -0.0786,-1.31673 z m 4.48758,5.2e-4 c -0.043,0 -0.2716,0.0446 -0.50798,0.0992 -0.46174,0.10658 -0.54444,0.23354 -0.23926,0.36743 l 0.19069,0.0837 0.0232,2.75177 0.0233,2.75125 -0.22066,0.17829 -0.22118,0.17777 0.48008,0.0568 c 0.57453,0.0675 0.78042,0.16716 1.79059,0.86971 0.9282,0.64553 1.68207,1.01123 2.41122,1.16944 1.32167,0.28678 2.82469,0.12038 4.08968,-0.4532 0.62593,-0.28386 1.91047,-1.09247 1.91047,-1.20251 0,-0.10702 0.0172,-0.11243 -0.77979,0.2558 -1.41215,0.65242 -2.73712,0.96204 -4.08864,0.95704 -1.64635,-0.006 -2.92011,-0.43085 -3.73466,-1.2454 -0.91776,-0.91777 -1.04548,-1.47246 -1.04748,-4.55269 -9e-4,-1.32768 -0.0338,-2.26447 -0.0796,-2.26447 z m 17.89659,1.1906 c -0.18191,-0.005 -0.37796,0.0343 -0.5395,0.11782 -0.31474,0.16276 -0.94896,0.87474 -1.27021,1.42576 l -0.25683,0.4408 -0.002,-0.52969 c -10e-4,-0.29104 -0.0371,-0.52865 -0.0801,-0.52865 -0.19578,0 -0.93792,0.20439 -0.93792,0.25839 0,0.0332 0.0954,0.12317 0.21187,0.19947 l 0.21187,0.13849 v 1.68414 1.68465 l -0.23306,0.17363 v -5.2e-4 l -0.23254,0.17364 0.78806,0.003 c 0.50452,0.002 0.76938,-0.0275 0.73588,-0.0817 -0.0288,-0.0466 -0.10607,-0.0847 -0.17157,-0.0847 -0.24504,0 -0.31102,-0.34043 -0.27802,-1.42834 0.0304,-1.00137 0.049,-1.10211 0.29662,-1.57768 0.6396,-1.22849 1.41117,-1.72005 2.31201,-1.47381 0.18535,0.0507 0.11541,-0.26976 -0.0987,-0.45217 -0.10584,-0.0902 -0.27388,-0.13811 -0.45579,-0.14263 z m 5.00021,0.91984 c -0.49617,0.006 -0.95393,0.26064 -1.17202,0.70539 -0.30828,0.62867 -0.0537,0.98804 1.16995,1.65209 0.8578,0.46549 1.1132,0.76811 1.017,1.20613 -0.078,0.35527 -0.38087,0.53072 -0.91571,0.53072 -0.64269,0 -0.97799,-0.20351 -1.38648,-0.84078 -0.0828,-0.1292 -0.10084,-0.0363 -0.10284,0.51987 -0.002,0.59356 0.0119,0.65848 0.11421,0.52348 0.1097,-0.14476 0.1408,-0.14593 0.5085,-0.0212 0.86024,0.29205 1.84151,0.0808 2.11925,-0.4563 0.1719,-0.33237 0.164,-0.93054 -0.0155,-1.19114 -0.20498,-0.29741 -0.32508,-0.38418 -1.05316,-0.75861 -0.35597,-0.18307 -0.72769,-0.43449 -0.82579,-0.55914 -0.31587,-0.40157 -0.18794,-0.82487 0.28784,-0.95343 0.52977,-0.14314 1.09802,0.14788 1.31568,0.67334 0.16873,0.40737 0.25063,0.27997 0.25063,-0.38964 0,-0.65842 -0.0343,-0.73607 -0.21549,-0.48834 -0.10156,0.13891 -0.12317,0.13891 -0.41445,0 -0.22267,-0.10619 -0.45608,-0.15498 -0.68161,-0.15245 z m 3.38636,0 c -0.49617,0.006 -0.95341,0.26064 -1.17151,0.70539 -0.30828,0.62867 -0.0537,0.98804 1.16996,1.65209 0.8578,0.46549 1.11267,0.76811 1.01647,1.20613 -0.078,0.35527 -0.38035,0.53072 -0.91519,0.53072 -0.6427,0 -0.97799,-0.20351 -1.38648,-0.84078 -0.0828,-0.1292 -0.10135,-0.0363 -0.10335,0.51987 -0.002,0.59356 0.0124,0.65848 0.11472,0.52348 0.1097,-0.14476 0.14027,-0.14593 0.50798,-0.0212 0.86024,0.29205 1.84203,0.0808 2.11977,-0.4563 0.17191,-0.33237 0.16411,-0.93054 -0.0155,-1.19114 -0.20498,-0.29741 -0.32508,-0.38418 -1.05317,-0.75861 -0.35597,-0.18307 -0.72769,-0.43449 -0.82579,-0.55914 -0.31586,-0.40157 -0.18847,-0.82487 0.28732,-0.95343 0.52977,-0.14314 1.09803,0.14788 1.31568,0.67334 0.16874,0.40737 0.25064,0.27997 0.25064,-0.38964 0,-0.65842 -0.0344,-0.73607 -0.2155,-0.48834 -0.10157,0.13891 -0.12315,0.13891 -0.41444,0 -0.22268,-0.10619 -0.45608,-0.15498 -0.68161,-0.15245 z m -14.29835,0.005 c -0.51821,0.008 -1.02928,0.21815 -1.37666,0.61392 -0.42014,0.4785 -0.56722,0.96822 -0.52142,1.73529 0.0432,0.72358 0.22749,1.18027 0.63097,1.56321 0.63726,0.60482 1.80438,0.66967 2.37815,0.1323 l 0.19068,-0.17881 -0.001,0.54416 c -6e-4,0.69584 -0.12094,1.12291 -0.40669,1.44177 -0.40076,0.4472 -1.23474,0.48123 -1.6738,0.0693 -0.24274,-0.22802 -0.34582,-0.69094 -0.21704,-0.97359 0.0861,-0.18899 0.0754,-0.20515 -0.13126,-0.20515 -0.80103,0 -0.67398,1.23041 0.1664,1.61178 h 5.1e-4 c 0.70402,0.31959 1.83648,0.18215 2.33268,-0.28267 0.44758,-0.41912 0.47076,-0.57762 0.50436,-3.42459 0.0273,-2.31141 0.015,-2.64584 -0.0961,-2.64584 -0.07,0 -0.20827,0.10333 -0.30747,0.22945 -0.15194,0.1932 -0.20281,0.21265 -0.3235,0.12505 -0.33829,-0.24559 -0.74572,-0.36171 -1.14876,-0.35553 z m -9.86814,6e-4 c -0.19577,0 -0.93793,0.2049 -0.93793,0.2589 0,0.0332 0.0954,0.12265 0.21188,0.19895 0.20866,0.13647 0.21135,0.1573 0.21135,1.26866 0,1.70023 0.15743,2.29025 0.68575,2.574 0.12396,0.0666 0.40817,0.0983 0.72709,0.0811 0.58529,-0.0316 0.97618,-0.24859 1.34255,-0.74517 l 0.20826,-0.28267 v 0.52451 c 0,0.58735 -0.002,0.58678 0.61288,0.37001 0.45262,-0.15964 0.50168,-0.24628 0.21808,-0.38758 -0.19482,-0.097 -0.19589,-0.10804 -0.21859,-1.9792 -0.0172,-1.42183 -0.0483,-1.88048 -0.12713,-1.87948 -0.23034,0.004 -0.91881,0.21716 -0.91881,0.28526 -1.6e-4,0.04 0.0876,0.11693 0.19534,0.17053 0.18673,0.093 0.19682,0.14573 0.21962,1.1467 0.0224,0.98488 0.0104,1.0774 -0.19689,1.5012 -0.35041,0.71623 -0.97114,1.09366 -1.54719,0.94051 -0.21725,-0.0577 -0.31798,-0.15538 -0.44286,-0.43046 -0.14082,-0.31015 -0.1613,-0.56554 -0.1633,-1.98593 -10e-4,-0.93903 -0.035,-1.62987 -0.0801,-1.62987 z m 17.19327,0.002 c -0.4237,-0.0122 -0.89357,0.0833 -1.17616,0.27027 -0.44159,0.29222 -0.61319,0.73056 -0.40824,1.04335 0.0838,0.12795 0.217,0.20877 0.34468,0.20877 0.19616,0 0.20525,-0.0206 0.15865,-0.3607 -0.0428,-0.31229 -0.0196,-0.39066 0.17311,-0.58343 0.25416,-0.25417 0.63694,-0.3371 1.0418,-0.22531 0.43161,0.11918 0.73469,0.72197 0.51367,1.02165 -0.0603,0.0817 -0.48929,0.30389 -0.95343,0.49402 -1.30089,0.53276 -1.56942,0.79634 -1.56942,1.54203 0,0.62937 0.46302,0.99012 1.27021,0.99012 0.51858,0 0.81934,-0.11237 1.14773,-0.42891 l 0.25838,-0.2496 0.59945,0.66094 c 0.6411,0.70657 1.28062,1.23303 1.78814,1.48505 0.49938,0.24797 0.89207,0.38541 1.58225,0.39021 0.60635,0.004 1.44088,-0.14771 1.79811,-0.32602 0.48685,-0.24301 0.87132,-0.5443 1.08647,-0.8736 0.33859,-0.51823 0.30896,-0.61651 -0.18397,-0.25632 -0.89157,0.65149 -1.70364,0.84389 -2.49983,0.86698 -0.7275,0.0211 -1.06256,0.0335 -2.0369,-0.36336 -0.62635,-0.2551 -1.20356,-0.94738 -1.44125,-1.70739 -0.0441,-0.14103 -0.10973,-0.81458 -0.14573,-1.49706 -0.0739,-1.4002 -0.17712,-1.69515 -0.68575,-1.95958 -0.1701,-0.0885 -0.40775,-0.13476 -0.66197,-0.14211 z m -11.48199,0.009 v 5.1e-4 c -0.77305,0.013 -1.43674,0.49346 -1.69137,1.24075 -0.16898,0.49645 -0.16898,1.40319 5.2e-4,1.90066 0.14942,0.43853 0.61189,0.95936 1.00304,1.12965 0.32358,0.14091 1.06544,0.15232 1.49552,0.0238 0.36908,-0.11058 0.925,-0.53657 0.925,-0.709 0,-0.0895 -0.0917,-0.0751 -0.40204,0.0625 -0.48452,0.21479 -1.2235,0.23532 -1.5875,0.045 -0.5351,-0.28044 -0.93878,-0.88642 -1.02888,-1.54409 l -0.0527,-0.38241 h 1.5043 1.50379 l -0.0568,-0.3545 c -0.13719,-0.85794 -0.65352,-1.3574 -1.45675,-1.4087 -0.0524,-0.003 -0.10453,-0.004 -0.15607,-0.004 z m -11.22722,0.29454 c 0.52959,-0.008 1.11918,0.3682 1.43453,1.04076 0.18571,0.39596 0.22273,0.5945 0.22273,1.19476 0,0.59995 -0.0318,0.77043 -0.1912,1.02681 -0.10519,0.16914 -0.29611,0.34797 -0.42375,0.39687 -0.60553,0.23208 -1.00015,0.16296 -1.43506,-0.25063 -0.4869,-0.46302 -0.61336,-0.83534 -0.61546,-1.81694 -0.002,-0.75252 0.0214,-0.88997 0.19172,-1.14308 0.20223,-0.30053 0.49873,-0.44373 0.81649,-0.44855 z m 15.21251,0.006 c 0.53183,0.0122 1.01856,0.37055 1.31206,1.00252 0.12095,0.26049 0.15817,0.54246 0.15917,1.22008 0.002,0.81257 -0.0147,0.90224 -0.21136,1.16014 -0.12935,0.16958 -0.33759,0.3137 -0.52917,0.3669 -0.35585,0.0992 -0.31908,0.0997 -0.63923,0.003 -0.41484,-0.12451 -0.79865,-0.48921 -1.04542,-0.9927 -0.205,-0.41825 -0.23978,-0.58976 -0.23978,-1.20716 -5.3e-4,-0.83493 0.18912,-1.25441 0.65268,-1.44643 0.18191,-0.0753 0.36377,-0.11 0.54105,-0.10593 z m -4.18838,0.009 c 0.49061,-0.0149 0.9266,0.33265 1.16686,0.97204 l 0.0879,0.23306 h -1.18339 c -0.85511,0 -1.18339,-0.0277 -1.18339,-0.10026 0,-0.24882 0.37639,-0.84619 0.60875,-0.96635 0.17041,-0.0881 0.33989,-0.13352 0.50332,-0.13849 z m 12.39253,1.47743 0.0258,0.32711 c 0.034,0.4296 -0.1194,1.24147 -0.28112,1.48828 -0.0706,0.10774 -0.21369,0.24868 -0.31781,0.31368 -0.45713,0.28518 -1.109,0.18541 -1.31207,-0.2005 -0.15749,-0.29935 -0.074,-0.83087 0.16847,-1.07332 0.11058,-0.11059 0.54182,-0.34822 0.9586,-0.52814 z"
       style="display:inline;fill:#b5adff;fill-opacity:1;stroke-width:0.0846667"
       id="path2582" />
  </g>
</svg>
