<?xml version="1.0" encoding="UTF-8" standalone="no"?>
<!-- Created with Inkscape (http://www.inkscape.org/) -->

<svg
   width="108.7515mm"
   height="60.136478mm"
   viewBox="0 0 108.75151 60.136478"
   version="1.1"
   id="svg1"
   xml:space="preserve"
   inkscape:version="1.3 (0e150ed, 2023-07-21)"
   sodipodi:docname="bbff-homepage-baners.svg"
   xmlns:inkscape="http://www.inkscape.org/namespaces/inkscape"
   xmlns:sodipodi="http://sodipodi.sourceforge.net/DTD/sodipodi-0.dtd"
   xmlns="http://www.w3.org/2000/svg"
   xmlns:svg="http://www.w3.org/2000/svg"><sodipodi:namedview
     id="namedview1"
     pagecolor="#ffffff"
     bordercolor="#000000"
     borderopacity="0.25"
     inkscape:showpageshadow="2"
     inkscape:pageopacity="0.0"
     inkscape:pagecheckerboard="0"
     inkscape:deskcolor="#d1d1d1"
     inkscape:document-units="mm"
     inkscape:zoom="1.3275696"
     inkscape:cx="455.72"
     inkscape:cy="705.80106"
     inkscape:window-width="1872"
     inkscape:window-height="1027"
     inkscape:window-x="0"
     inkscape:window-y="25"
     inkscape:window-maximized="0"
     inkscape:current-layer="layer1" /><defs
     id="defs1" /><g
     inkscape:label="Layer 1"
     inkscape:groupmode="layer"
     id="layer1"
     transform="translate(-3.1957712,-136.23022)"><path
       style="fill:#000000;stroke-width:0.999998"
       d="m 15.525171,194.66764 c -0.396478,-1.77052 -0.228514,-4.52666 0.357973,-5.87408 0.397879,-0.91411 0.44914,-1.38432 0.163342,-1.49845 -0.229065,-0.0915 -0.723134,-0.56061 -1.097933,-1.04255 -0.431483,-0.55484 -1.312834,-0.93787 -2.402821,-1.04428 -2.013457,-0.19654 -2.471196,-0.46319 -2.471196,-1.43956 0,-0.80964 -2.5503095,-3.70021 -3.2651064,-3.70074 -0.2565444,-1.9e-4 -0.466441,-0.20151 -0.466441,-0.44737 0,-0.24587 -0.3358439,-0.44703 -0.7463187,-0.44703 -1.0181013,0 -0.9466449,-0.78565 0.093277,-1.0256 0.8330411,-0.19221 0.8327236,-0.1942 -0.041363,-0.25459 l -0.8809402,-0.0609 0.8650019,-0.83909 c 0.6335833,-0.61461 1.2436,-0.77825 2.2802726,-0.61167 0.8737693,0.1404 1.4152708,0.0447 1.4152708,-0.25031 0,-0.30825 -0.8406975,-0.41193 -2.3698989,-0.2923 l -2.3699082,0.1854 -0.068627,-2.74015 c -0.037722,-1.50708 -0.1573758,-2.91218 -0.2658348,-3.1224 -0.1084591,-0.21023 0.079365,-0.5094 0.4174777,-0.6648 0.338066,-0.15541 0.4580656,-0.40545 0.2666564,-0.55563 -0.5153485,-0.40436 -0.9277747,-10.65598 -0.4431265,-11.01479 0.2717171,-0.20118 0.2676649,-0.46893 -0.013258,-0.87441 -0.341138,-0.49242 -0.4218007,-2.07221 -0.3315115,-6.49245 0.00747,-0.37103 -0.036228,-0.87394 -0.097404,-1.11755 -0.061158,-0.24363 0.084594,-1.09672 0.3237897,-1.89579 l 0.4349566,-1.45282 h 3.1313343 c 2.9933982,0 3.1504102,-0.0501 3.5643862,-1.13859 0.238179,-0.62623 0.433052,-1.53146 0.433052,-2.01162 0,-0.69017 0.253995,-0.86969 1.21276,-0.85718 0.667009,0.009 1.632552,0.30332 2.145641,0.6547 0.990651,0.67842 4.477866,0.91901 4.477866,0.30895 0,-0.19887 0.240308,-0.75205 0.534014,-1.22931 0.519167,-0.8436 0.544451,-0.83666 0.909231,0.24982 0.325461,0.96934 0.381838,0.99899 0.425105,0.22351 l 0.04986,-0.89404 0.320699,0.89404 c 0.274238,0.76452 0.3245,0.7807 0.346927,0.11175 0.02568,-0.767 0.772537,-1.15218 0.772537,-0.39844 0,0.59033 4.053535,2.25872 4.200911,1.72905 0.08188,-0.29415 0.411268,-0.27014 0.939418,0.0685 0.702948,0.45067 0.780678,0.41941 0.572557,-0.2303 -0.205817,-0.64252 -0.06228,-0.70898 0.987932,-0.45736 0.675806,0.16191 1.385579,0.29439 1.577269,0.29439 0.191699,0 0.228337,0.23297 0.08142,0.51773 -0.363453,0.70452 4.069249,0.19919 8.147163,-0.92877 1.696184,-0.46916 4.648985,-1.07734 6.561771,-1.35149 1.912785,-0.27417 5.439105,-0.90163 7.836268,-1.39437 9.223405,-1.8959 15.877679,-1.68769 30.18229,0.94432 7.353114,1.35296 10.44105,1.65435 8.786349,0.85758 -1.289342,-0.62085 -0.996804,-1.01496 0.503182,-0.67784 0.738523,0.16596 1.256392,0.13433 1.150809,-0.0703 -0.105574,-0.20466 0.707925,-0.4036 1.807773,-0.4421 1.47571,-0.0517 2.850018,-0.54734 5.244485,-1.89154 4.11082,-2.30775 4.52499,-2.30333 0.9025,0.01 -2.92669,1.8687 -2.682216,2.02306 0.68058,0.42971 1.09265,-0.51772 1.88035,-0.73532 1.75047,-0.48355 -0.36868,0.71461 0.094,0.55107 1.98037,-0.7 l 1.74566,-1.15773 -1.11947,1.2018 -1.11947,1.20182 1.11947,-0.28009 c 1.19293,-0.29847 1.31837,-0.41106 -3.63828,3.26552 -0.76962,0.57088 -1.39933,1.10496 -1.39933,1.18681 0,0.44992 3.49563,-0.55484 4.92086,-1.41441 0.97682,-0.58913 0.99129,-0.57864 0.55975,0.40604 -0.24365,0.55595 -1.11468,1.7737 -1.93563,2.70612 -1.39396,1.58325 -1.41862,1.65247 -0.37315,1.04737 1.80008,-1.04183 4.17113,-2.1059 3.37285,-1.51365 -0.40252,0.29865 -1.19261,1.07168 -1.75575,1.71786 -0.56313,0.64617 -1.08611,1.10033 -1.16216,1.00922 -0.0761,-0.091 -0.0645,0.4363 0.0256,1.172 0.0901,0.73571 0.31274,1.36281 0.49468,1.39354 0.18194,0.0308 0.49873,0.10613 0.70396,0.16764 0.20524,0.0614 0.48921,0.1369 0.63106,0.16763 0.14184,0.0308 0.006,0.30732 -0.30311,0.61465 -0.30855,0.30734 -0.76363,1.12982 -1.01129,1.82774 -0.39253,1.10621 -0.3656,1.29548 0.20994,1.47579 0.71907,0.22526 1.69353,2.2863 1.37389,2.90587 -0.10902,0.21132 0.0216,0.3873 0.29024,0.39107 0.35494,0.004 0.33547,0.1253 -0.0712,0.44018 -0.30785,0.23833 -0.39181,0.43731 -0.18657,0.44218 0.48524,0.0115 0.62275,3.13402 0.13803,3.13402 -0.20276,0 -0.27008,0.19107 -0.1496,0.4246 0.12047,0.23353 -0.16347,0.68069 -0.631,0.9937 -0.83133,0.55657 -0.82127,0.57462 0.45598,0.81903 0.77744,0.14875 1.26604,0.47837 1.2072,0.81436 -0.0544,0.31047 -0.13296,1.05838 -0.17467,1.66206 -0.0417,0.60366 -0.20713,1.09758 -0.36759,1.09758 -0.16048,0 -0.29178,0.29465 -0.29178,0.6548 0,0.36014 -0.35853,0.88467 -0.79672,1.16561 -0.62454,0.40041 -0.68711,0.59197 -0.28947,0.88637 0.33076,0.24488 0.9411,-0.0208 1.75413,-0.76373 0.68577,-0.62662 1.32946,-1.04036 1.43041,-0.9194 0.10095,0.12093 -0.3268,0.65523 -0.95054,1.18731 -0.62377,0.53207 -1.09522,1.14342 -1.04767,1.35854 0.0476,0.21512 -0.45687,1.08887 -1.12092,1.94166 -0.96935,1.24485 -1.09436,1.60248 -0.63414,1.81404 0.85283,0.39204 -0.15572,1.53651 -1.13272,1.28537 -0.57036,-0.14661 -0.63111,-0.0876 -0.24612,0.23891 0.41779,0.35433 0.38367,0.52235 -0.18658,0.91923 -0.62012,0.43161 -0.57848,0.48718 0.37409,0.49925 0.90998,0.0115 1.0017,0.11488 0.60732,0.68414 -0.39842,0.57512 -0.25889,0.68007 0.98049,0.73751 1.17246,0.0543 1.24593,0.10283 0.38952,0.2566 -0.64703,0.11623 -0.9866,0.40473 -0.87745,0.74547 0.0979,0.30572 -0.38508,1.21548 -1.07337,2.02168 -1.1792,1.38121 -1.43013,1.47476 -4.34673,1.62063 -2.41995,0.12101 -3.09637,0.29884 -3.100186,0.81501 -0.0098,1.32276 -2.008887,2.58449 -5.128663,3.23694 -2.023672,0.42322 -3.114135,0.48672 -3.197748,0.18619 -0.06974,-0.25081 -1.246363,-0.4624 -2.614595,-0.4702 -2.835079,-0.0161 -8.392204,-0.92176 -12.083069,-1.96911 -3.050691,-0.86568 -6.97107,-1.34756 -6.449867,-0.79278 0.563275,0.59954 12.523246,3.1368 16.978124,3.60184 l 3.918129,0.409 -4.664449,-0.21404 c -2.565444,-0.11771 -5.755918,-0.507 -7.089948,-0.86509 -1.334029,-0.35809 -4.98089,-1.23908 -8.104129,-1.95774 -5.612624,-1.29148 -5.790438,-1.30379 -15.29938,-1.05843 -5.291411,0.13654 -9.956597,0.42225 -10.367062,0.63492 -0.943451,0.4888 -10.635735,1.54299 -12.87386,1.40023 -1.916811,-0.12226 -6.34365,0.8131 -6.34365,1.34038 0,0.19304 -0.279419,0.22254 -0.62095,0.0655 -0.417515,-0.19193 -0.532547,-0.11412 -0.351128,0.23754 0.163538,0.317 0.03202,0.523 -0.333967,0.523 -0.332072,0 -0.511372,0.1791 -0.39844,0.39801 0.209141,0.40537 -1.412899,0.88568 -4.05473,1.20063 -1.867313,0.22262 -2.306342,0.74495 -1.469127,1.7479 0.62576,0.74963 0.622575,0.81443 -0.06928,1.41023 -0.39886,0.34347 -1.003405,0.90439 -1.343441,1.24649 -0.541894,0.54518 -0.644956,0.50274 -0.834507,-0.34375 z m -5.82379,-19.96431 c 0.400717,-0.31022 0.0028,-0.43528 -1.3993326,-0.44018 -1.0774847,-0.003 -1.9590598,0.19432 -1.9590598,0.44018 0,0.57171 2.6199261,0.57171 3.3583924,0 z m 95.799739,-15.02207 c -0.26116,-0.31287 -1.39141,0.3214 -1.39141,0.78083 0,0.22836 0.34995,0.19056 0.77828,-0.084 0.42805,-0.27444 0.70395,-0.58799 0.61313,-0.6968 z m 0.75535,-8.03563 c -0.12889,-0.15439 -0.70661,-0.0745 -1.28383,0.17758 -0.64745,0.28272 -0.79933,0.47182 -0.39648,0.49359 0.35916,0.0195 0.65302,0.27955 0.65302,0.5781 0,0.3418 0.23361,0.26296 0.63081,-0.21287 0.34695,-0.41562 0.52536,-0.88201 0.39648,-1.0364 z m 0.34688,-12.10115 c -0.10493,-0.12571 -0.52997,-0.0112 -0.94452,0.2547 -0.94098,0.60329 -1.28851,0.616 -0.98938,0.0362 0.36767,-0.71265 -0.42003,-0.51678 -0.93998,0.23374 -0.40046,0.57803 -0.36512,0.63287 0.23417,0.36333 0.64342,-0.28938 0.65661,-0.2451 0.14921,0.50098 -0.48396,0.71161 -0.34532,0.68929 1.06234,-0.171 0.89042,-0.54419 1.53309,-1.09227 1.42816,-1.21797 z m 0.0252,37.54494 c 0.25655,-0.124 0.67634,-0.124 0.93288,0 0.25655,0.12401 0.0467,0.22548 -0.46643,0.22548 -0.51309,0 -0.72299,-0.10144 -0.46645,-0.22548 z m 2.5188,-6.40931 c 0.12684,-0.24586 0.39854,-0.44703 0.60378,-0.44703 0.20524,0 0.26937,0.20117 0.14253,0.44703 -0.12685,0.24586 -0.39854,0.44702 -0.60378,0.44702 -0.20523,0 -0.26937,-0.20116 -0.14253,-0.44702 z M 28.359153,138.46794 c 0,-0.26038 0.167928,-0.34909 0.373155,-0.19714 0.205238,0.15197 0.373155,0.36499 0.373155,0.47342 0,0.10839 -0.167917,0.19713 -0.373155,0.19713 -0.205227,0 -0.373155,-0.21303 -0.373155,-0.47341 z"
       id="path7" /><path
       style="font-size:20.2883px;line-height:1;font-family:'Della Respira';-inkscape-font-specification:'Della Respira';text-align:center;letter-spacing:0.317003px;text-anchor:middle;fill:#ffffff;stroke-width:0;stroke-linecap:round;paint-order:fill markers stroke"
       d="m 18.701101,161.62571 q -0.624103,-0.20803 -0.980733,-0.20803 -0.534946,0 -0.85195,0.0594 -0.317005,0.0495 -0.346724,0 -0.02972,-0.0495 -0.02972,-0.1486 0,-0.0991 0.06935,-0.20803 0.06934,-0.10897 0.168409,-0.12879 1.476053,-0.33681 4.04181,-0.33681 l 4.973011,8.12324 h 0.09906 l 4.75507,-8.12324 q 2.565756,0 4.041809,0.33681 0.237754,0.0495 0.237754,0.36654 0,0.17831 -0.317005,0.12878 -0.317004,-0.0594 -0.842043,-0.0594 -0.525039,0 -1.119423,0.22785 l 1.892122,13.53214 q 0.138689,1.05998 0.643915,1.29774 0.128783,0.0594 0.128783,0.24766 0,0.18822 -0.128783,0.18822 h -3.29883 q -0.128783,0 -0.128783,-0.16841 0,-0.17832 0.03963,-0.20803 0.04953,-0.0396 0.128783,-0.0793 0.257566,-0.10897 0.445788,-0.57457 0.198128,-0.4755 0.198128,-0.64391 0,-0.17832 -0.0099,-0.23776 l -1.59493,-11.76879 h -0.04953 l -4.893759,8.55912 q -0.02972,0.0495 -0.366537,0.0396 -0.326911,-0.01 -0.346724,-0.0396 l -5.101794,-8.55912 h -0.08916 l -1.456241,11.76879 q -0.04953,0.31701 0.128783,0.75289 0.178316,0.42598 0.297192,0.54485 0.118877,0.11888 0.24766,0.17832 0.128783,0.0594 0.128783,0.24766 0,0.18822 -0.128783,0.18822 h -3.021451 q -0.128783,0 -0.128783,-0.16841 0,-0.17832 0.03963,-0.20803 0.04953,-0.0396 0.128783,-0.0793 0.465601,-0.19812 0.60429,-1.27792 z m 19.357096,13.7798 q 0,0 6.518409,-14.59212 0.04953,-0.11888 0.485413,-0.11888 0.435881,0 0.49532,0.11888 l 6.716536,14.59212 q 0.38635,0.90148 0.762793,1.0798 0.128783,0.0594 0.128783,0.24766 0,0.18822 -0.128783,0.18822 h -3.586115 q -0.128784,0 -0.128784,-0.16841 0,-0.17832 0.03963,-0.20803 0.04953,-0.0396 0.128783,-0.0693 0.07925,-0.0396 0.128783,-0.0892 0.376443,-0.37644 0.376443,-0.69344 0,-0.32692 -0.06934,-0.53495 l -1.436428,-3.39789 h -7.14252 l -1.406708,3.39789 q -0.06935,0.20803 -0.06935,0.317 v 0.10897 q 0,0.01 0,0.0198 0,0.40616 0.376443,0.7826 0.03963,0.0396 0.168409,0.0991 0.128783,0.0594 0.128783,0.24766 0,0.18822 -0.128783,0.18822 h -3.120515 q -0.128783,0 -0.128783,-0.16841 0,-0.17832 0.03963,-0.20803 0.04953,-0.0396 0.128783,-0.0793 0.326911,-0.13869 0.723167,-1.05998 z m 3.992278,-5.22067 q -0.01981,0.0297 -0.0099,0.0793 0.0099,0.0396 0.03963,0.0396 h 5.656552 q 0.02972,0 0.03963,-0.0396 0.0099,-0.0495 -0.0099,-0.0793 l -2.862948,-6.22122 h -0.06934 z m 16.702182,-0.10897 -5.85468,-7.86568 q -0.277379,-0.37644 -0.614197,-0.66373 -0.336817,-0.29719 -0.366536,-0.32691 -0.02972,-0.0297 -0.158503,-0.0892 -0.128783,-0.0594 -0.128783,-0.24766 0,-0.18822 0.128783,-0.18822 h 3.586116 q 0.128783,0 0.128783,0.17832 0,0.16841 -0.04953,0.20803 -0.03963,0.0297 -0.118877,0.0693 -0.366537,0.1585 -0.317005,0.48541 0.05944,0.317 0.435882,0.82223 l 4.368721,5.84477 h 0.07925 l 4.487597,-5.84477 q 0.643916,-0.80242 0.614197,-0.96092 -0.01981,-0.16841 -0.08916,-0.23775 -0.06934,-0.0693 -0.198128,-0.12879 -0.128783,-0.0594 -0.128783,-0.24766 0,-0.18822 0.128783,-0.18822 h 3.120515 q 0.128783,0 0.128783,0.17832 0,0.16841 -0.04953,0.20803 -0.03963,0.0297 -0.118876,0.0693 -0.07925,0.0297 -0.108971,0.0594 -0.02972,0.0297 -0.158502,0.11888 l -0.267473,0.20803 q -0.396256,0.31701 -0.653822,0.67364 l -5.785335,7.50905 v 5.46833 q 0,0.72317 0.475507,1.19867 0.03963,0.0396 0.168408,0.0991 0.128784,0.0594 0.128784,0.24766 0,0.18822 -0.128784,0.18822 h -3.338455 q -0.128783,0 -0.128783,-0.16841 0,-0.17832 0.03963,-0.20803 0.04953,-0.0396 0.128783,-0.0693 0.07925,-0.0396 0.208035,-0.16841 0.128783,-0.12878 0.267472,-0.45569 0.13869,-0.32691 0.13869,-0.66373 z m 20.347733,1.00054 q 0,0 -4.992824,0 -0.07925,0 -0.07925,-0.0594 0,0 0,-1.04018 0,0 5.557488,-9.15351 0.108971,-0.11887 0.13869,-0.12878 h 1.198674 q 0.09906,0 0.09906,0.12878 0,0 0,8.91576 0,0 0.02972,0.0198 0.614197,-0.26747 0.901482,-0.7727 0.03963,-0.0693 0.07925,-0.0495 l 0.455695,0.21794 q 0.01981,0.0198 -0.227848,0.6142 -0.237753,0.59438 -0.683541,1.3869 -0.05944,0.0991 -0.208034,0.01 -0.13869,-0.0892 -0.307098,-0.0892 -0.03963,0 -0.03963,0.10897 v 4.00219 q 0,1.04017 0.485413,1.22839 0.287286,0.10897 0.287286,0.22785 0,0.27738 -0.128783,0.27738 h -3.219579 q -0.128783,0 -0.128783,-0.17832 0,-0.17831 0.07925,-0.22784 0.07925,-0.0495 0.208034,-0.0991 0.287286,-0.10897 0.38635,-0.39625 0.10897,-0.2972 0.10897,-0.83214 z m -3.596022,-1.26801 h 3.596022 v -6.06272 h -0.03963 l -3.556396,5.95375 q -0.06934,0.10897 0,0.10897 z m 10.163963,-4.09135 q 0.02972,-0.19812 0.35663,-0.19812 0.336817,0 0.336817,0.19812 v 1.76334 h 1.753433 q 0.505226,0 0.505226,0.12879 v 0.87176 q 0,0.12878 -0.505226,0.12878 h -1.753433 v 6.15187 q 0,1.17887 0.693448,1.31755 0.525039,0.10898 1.089704,-0.39625 0.227847,-0.20804 0.317004,-0.0991 0.09906,0.10898 0.13869,0.16841 0.03963,0.0594 0.03963,0.11888 0,0.0495 0,0.0793 0.0099,0.0495 -0.108971,0.16841 l -0.208034,0.17832 q -1.030265,0.89157 -2.010999,0.81232 -0.970826,-0.0793 -1.367082,-1.13924 -0.217941,-0.57457 -0.217941,-1.3968 v -5.96365 h -0.455694 q -0.505226,0 -0.505226,-0.12878 v -0.87176 q 0,-0.12879 0.416068,-0.12879 0.733074,0 1.050078,-0.51513 0.326911,-0.51513 0.435882,-1.24821 z m 4.358811,-3.36817 0.0099,-0.17832 q 0,-0.0297 0.118877,-0.12878 l 1.783151,-1.31755 q 0.03963,-0.0297 0.217941,-0.0297 0.178315,0 0.24766,0.0495 0.06934,0.0396 0.06934,0.25757 v 7.51895 q 0.336818,-0.19812 0.505227,-0.28728 l 0.307098,-0.1585 q 1.396802,-0.69345 2.585569,-0.69345 1.198674,0 2.357723,0.85195 0.525039,0.38635 0.85195,0.94111 0.336817,0.54485 0.336817,1.13923 v 4.87395 q 0,0.0495 -0.0099,0.21794 0,0.1585 0.0099,0.20803 0.06934,0.63401 0.416069,0.78261 0.356626,0.13869 0.356626,0.24766 0,0.27738 -0.12878,0.27738 h -2.922386 q -0.128783,0 -0.128783,-0.17832 0,-0.17831 0.07925,-0.22784 0.07925,-0.0495 0.208034,-0.0991 0.128784,-0.0495 0.208035,-0.12878 0.07925,-0.0793 0.138689,-0.17832 0.06934,-0.0991 0.08916,-0.22784 0.02972,-0.12879 0.02972,-0.18822 0.0099,-0.0694 0,-0.25757 0,-0.18822 0,-0.24766 v -4.62629 q 0,-0.60429 -0.406162,-1.05008 -0.752886,-0.82223 -2.129875,-0.82223 -1.367083,0 -2.753979,0.69345 v 5.80515 q 0,0.0495 -0.0099,0.21794 0,0.1585 0,0.20803 0.07925,0.63401 0.425975,0.78261 0.35663,0.13869 0.35663,0.24766 0,0.27738 -0.128783,0.27738 H 90.19555 q -0.128783,0 -0.128783,-0.17832 0,-0.17831 0.07925,-0.22784 0.07925,-0.0495 0.208035,-0.0991 0.128783,-0.0495 0.198128,-0.11887 0.307098,-0.3071 0.297191,-0.68355 0,-0.38635 0,-0.42597 v -12.0263 q 0,-0.317 -0.158502,-0.45569 -0.158502,-0.13869 -0.336817,-0.1486 -0.178315,-0.01 -0.237754,-0.0594 -0.08916,-0.0594 -0.08916,-0.1486 z"
       id="text3"
       transform="scale(0.98401218,1.0162476)"
       aria-label="MAY 4th"
       inkscape:label="may 4th" /><path
       style="font-size:13.6227px;line-height:1;font-family:'Della Respira';-inkscape-font-specification:'Della Respira';text-align:center;letter-spacing:0.378406px;text-anchor:middle;fill:#ffffff;stroke-width:0;stroke-linecap:round;paint-order:fill markers stroke"
       d="m 22.145875,155.2353 q -0.199551,-0.0466 -0.439013,-0.11973 -0.239461,-0.0798 -0.305978,-0.0798 h -0.07982 q -0.232809,0 -0.359192,0.26607 -0.0067,0.0133 -0.0133,0.0133 h -0.1929 q -0.03991,0 -0.04656,-0.0333 l -0.572047,-1.96226 q -0.03326,-0.13968 0.199551,-0.13968 0.09312,0 0.126383,0.0399 0.03326,0.0332 0.04656,0.0466 0.0133,0.0133 0.05987,0.0931 0.878026,1.08423 2.574212,1.08423 0.891329,0 1.476679,-0.46562 0.592002,-0.47227 0.592002,-1.38355 0,-0.61196 -0.199551,-0.91129 -0.1929,-0.30598 -0.319282,-0.45897 -0.266069,-0.32593 -1.277128,-0.89798 -1.004408,-0.57204 -1.629669,-1.02436 -1.59641,-1.15075 -1.59641,-2.36801 0,-1.21726 0.758295,-1.88243 0.764946,-0.66517 2.022119,-0.66517 0.705081,0 1.489983,0.37914 0.372496,0.1796 0.54544,0.23947 0.172945,0.0599 0.239462,-0.0665 0.06652,-0.13304 0.07982,-0.13304 0.299327,-0.0333 0.299327,0.0931 l 0.199551,2.1352 q 0,0.0599 -0.305978,0.0599 -0.04656,0 -0.07982,-0.11973 -0.206203,-0.67847 -0.964498,-1.12414 -0.758294,-0.45231 -1.516589,-0.45231 -1.609714,0 -1.609714,1.33034 0,0.9645 1.742748,1.92234 l 1.263825,0.67848 q 1.164049,0.64521 1.629668,1.39686 0.472272,0.74499 0.472272,1.59641 v 0.0665 q -0.166293,1.1441 -0.399103,1.5565 -0.385799,0.67848 -1.097532,1.09088 -0.711733,0.40576 -1.616365,0.40576 -0.498878,-0.02 -0.81816,-0.0998 z m 5.480267,-0.93789 q 0,0 4.376824,-9.79796 0.03326,-0.0798 0.325934,-0.0798 0.292675,0 0.332585,0.0798 l 4.509859,9.79796 q 0.259416,0.60531 0.512181,0.72504 0.08647,0.0399 0.08647,0.16629 0,0.12638 -0.08647,0.12638 h -2.407918 q -0.08647,0 -0.08647,-0.11307 0,-0.11974 0.02661,-0.13969 0.03326,-0.0266 0.08647,-0.0466 0.05321,-0.0266 0.08647,-0.0599 0.252765,-0.25276 0.252765,-0.46562 0,-0.2195 -0.04656,-0.35919 l -0.964498,-2.28154 h -4.795882 l -0.944543,2.28154 q -0.04656,0.13969 -0.04656,0.21286 v 0.0732 q 0,0.007 0,0.0133 0,0.27272 0.252765,0.52548 0.02661,0.0266 0.113079,0.0665 0.08647,0.0399 0.08647,0.16629 0,0.12638 -0.08647,0.12638 H 27.11396 q -0.08647,0 -0.08647,-0.11307 0,-0.11974 0.02661,-0.13969 0.03326,-0.0266 0.08647,-0.0532 0.219506,-0.0931 0.485575,-0.71174 z m 2.680638,-3.50545 q -0.0133,0.02 -0.0067,0.0532 0.0067,0.0266 0.02661,0.0266 h 3.798126 q 0.01995,0 0.02661,-0.0266 0.0067,-0.0333 -0.0067,-0.0532 l -1.922344,-4.17727 h -0.04656 z m 17.340264,-6.37233 q 0.06652,0 0.113079,0.17294 0.04656,0.16629 0.166293,0.47227 0,0 0.212855,0.53879 0.09312,0.23281 0.09312,0.25942 0,0.0266 -0.09978,0.0599 -0.09312,0.0333 -0.119731,0.0333 -0.04656,0 -0.119731,-0.0931 -0.06652,-0.0998 -0.239461,-0.23281 -0.166293,-0.13304 -0.917936,-0.13304 H 42.99084 v 8.65388 q 0,0.48557 0.319282,0.80485 0.02661,0.0266 0.113079,0.0665 0.08647,0.0399 0.08647,0.16629 0,0.12638 -0.08647,0.12638 h -2.155154 q -0.08647,0 -0.08647,-0.11307 0,-0.11974 0.02661,-0.13969 0.03326,-0.0266 0.08647,-0.0466 0.05321,-0.0266 0.133034,-0.10643 0.08647,-0.0865 0.179597,-0.30598 0.09312,-0.22616 0.09312,-0.45231 v -8.65388 h -3.744913 q -0.93789,0 -1.13079,0.31928 -0.09312,0.13304 -0.133034,0.13969 -0.03991,0 -0.139686,-0.0333 -0.09312,-0.0333 -0.09312,-0.0599 0,-0.0266 0.09312,-0.25942 l 0.212855,-0.53879 q 0.11973,-0.29933 0.159641,-0.45232 0.04656,-0.15964 0.11973,-0.19289 z m 2.427133,1.16404 q 0,-0.47227 -0.332586,-0.80485 -0.02661,-0.0266 -0.113079,-0.0665 -0.08647,-0.0399 -0.08647,-0.16629 0,-0.12638 0.08647,-0.12638 h 2.234974 q 0.08647,0 0.08647,0.11973 0,0.11308 -0.03326,0.13968 -0.02661,0.02 -0.07982,0.0466 -0.05321,0.02 -0.139685,0.10643 -0.07982,0.0798 -0.172945,0.30598 -0.09312,0.21951 -0.09312,0.44566 v 5.51427 q 0,1.53655 0.944543,2.38796 0.951194,0.84477 2.321446,0.84477 0.804857,0 1.509938,-0.40575 0.711733,-0.41241 1.124139,-1.08423 0.419058,-0.67848 0.419058,-1.43677 v -5.82025 q 0,-0.48557 -0.319282,-0.80485 -0.02661,-0.0266 -0.113079,-0.0665 -0.08647,-0.0399 -0.08647,-0.16629 0,-0.12638 0.08647,-0.12638 h 2.075333 q 0.08647,0 0.08647,0.11973 0,0.11308 -0.03326,0.13968 -0.02661,0.02 -0.07982,0.0466 -0.05321,0.02 -0.139686,0.10643 -0.07982,0.0798 -0.172944,0.30598 -0.09312,0.21951 -0.09312,0.44566 v 5.82025 q 0,1.14409 -0.592002,2.10194 -0.585351,0.95785 -1.576455,1.50329 -0.984453,0.54544 -2.188413,0.54544 -1.197307,0 -2.241626,-0.55875 -1.037666,-0.55874 -1.662927,-1.5831 -0.62526,-1.03102 -0.62526,-2.3148 z m 13.548788,-0.0732 q -0.139686,0 -0.239462,0.0998 -0.09978,0.0931 -0.09978,0.23281 v 8.30799 q 0,0.48557 0.319282,0.80485 0.02661,0.0266 0.113079,0.0665 0.08647,0.0399 0.08647,0.16629 0,0.12638 -0.08647,0.12638 h -2.155153 q -0.08647,0 -0.08647,-0.11307 0,-0.11974 0.02661,-0.13969 0.03326,-0.0266 0.08647,-0.0466 0.05321,-0.0266 0.133034,-0.10643 0.08647,-0.0865 0.179596,-0.30598 0.09312,-0.22616 0.09312,-0.45231 v -8.56741 q 0,-0.48557 -0.319282,-0.80485 -0.02661,-0.0266 -0.113079,-0.0665 -0.08647,-0.0399 -0.08647,-0.15964 0,-0.11973 0.08647,-0.11973 h 3.412326 q 1.463376,0.0133 2.447829,0.63191 0.991105,0.61196 0.991105,1.99551 0,1.62967 -1.702838,2.38797 -0.62526,0.27937 -0.951194,0.31263 -0.325934,0.0266 -0.325934,0.0466 l 0.212855,0.11973 q 0.133034,0.0798 0.54544,0.40575 0.412406,0.32594 0.81816,0.73834 0.405755,0.40576 0.964498,1.13079 0.558744,0.72504 0.824812,1.18401 l 0.54544,0.97115 q 0.299327,0.54544 0.498878,0.59865 0.199552,0.0532 0.199552,0.20621 0,0.15298 -0.08647,0.15298 h -2.155153 q -0.08647,0 -0.08647,-0.11307 0,-0.11974 0.02661,-0.13969 0.03326,-0.0266 0.08647,-0.0466 0.05321,-0.0266 0.08647,-0.0665 0.03991,-0.0399 0.03326,-0.15299 0,-0.11973 -0.02661,-0.18625 -0.485574,-1.25052 -1.32369,-2.38131 -1.5565,-2.10194 -2.680638,-2.26158 -0.159641,-0.0266 -0.159641,-0.0333 -0.0133,-0.11973 -0.0133,-0.32593 v -0.40576 q 0,-0.0665 0.06652,-0.0665 1.636321,0 2.554257,-0.65852 0.705081,-0.49888 0.705081,-1.34365 0,-0.84476 -0.678475,-1.23056 -0.678474,-0.39245 -1.536544,-0.39245 z m 11.160828,9.80461 h -3.34581 q -0.08647,0 -0.08647,-0.11307 0,-0.11974 0.02661,-0.13969 0.03326,-0.0266 0.08647,-0.0466 0.05321,-0.0266 0.133034,-0.10643 0.08647,-0.0865 0.179596,-0.30598 0.09312,-0.22616 0.09312,-0.45231 v -8.56741 q 0,-0.48557 -0.319282,-0.80485 -0.02661,-0.0266 -0.113079,-0.0665 -0.08647,-0.0399 -0.08647,-0.16629 0,-0.12638 0.08647,-0.12638 h 3.013224 q 1.623017,0 3.106348,0.87802 1.05097,0.62526 1.742748,1.76936 0.691778,1.13744 0.691778,2.76711 0,1.03766 -0.385799,2.02877 -0.385799,0.98445 -1.057622,1.7494 -0.665171,0.76494 -1.656275,1.23721 -0.984453,0.46562 -2.108592,0.46562 z m -1.623017,-1.29043 q 0,0.24612 0.405754,0.24612 h 0.744991 q 2.700594,-0.007 3.751564,-1.84253 0.611957,-1.07092 0.611957,-2.59416 0,-1.85583 -1.024363,-3.06644 -0.512181,-0.60531 -1.3636,-0.94454 -0.851419,-0.34589 -1.962254,-0.34589 h -1.024363 q -0.05321,0 -0.09978,0.0399 -0.03991,0.0399 -0.03991,0.0998 z m 7.841622,0.27272 q 0,0 4.376824,-9.79796 0.03326,-0.0798 0.325934,-0.0798 0.292675,0 0.332585,0.0798 l 4.509859,9.79796 q 0.259416,0.60531 0.512181,0.72504 0.08647,0.0399 0.08647,0.16629 0,0.12638 -0.08647,0.12638 h -2.407918 q -0.08647,0 -0.08647,-0.11307 0,-0.11974 0.02661,-0.13969 0.03326,-0.0266 0.08647,-0.0466 0.05321,-0.0266 0.08647,-0.0599 0.252765,-0.25276 0.252765,-0.46562 0,-0.2195 -0.04656,-0.35919 l -0.964498,-2.28154 h -4.795882 l -0.944543,2.28154 q -0.04656,0.13969 -0.04656,0.21286 v 0.0732 q 0,0.007 0,0.0133 0,0.27272 0.252765,0.52548 0.02661,0.0266 0.113079,0.0665 0.08647,0.0399 0.08647,0.16629 0,0.12638 -0.08647,0.12638 h -2.095288 q -0.08647,0 -0.08647,-0.11307 0,-0.11974 0.02661,-0.13969 0.03326,-0.0266 0.08647,-0.0532 0.219506,-0.0931 0.485575,-0.71174 z m 2.680638,-3.50545 q -0.0133,0.02 -0.0067,0.0532 0.0067,0.0266 0.02661,0.0266 h 3.798126 q 0.01996,0 0.02661,-0.0266 0.0067,-0.0333 -0.0067,-0.0532 l -1.922344,-4.17727 h -0.04656 z m 11.380331,-0.0732 -3.93116,-5.28145 q -0.186248,-0.25277 -0.412406,-0.44567 -0.226158,-0.19955 -0.246113,-0.2195 -0.01995,-0.02 -0.106427,-0.0599 -0.08647,-0.0399 -0.08647,-0.16629 0,-0.12638 0.08647,-0.12638 h 2.407918 q 0.08647,0 0.08647,0.11973 0,0.11308 -0.03326,0.13968 -0.02661,0.02 -0.07982,0.0466 -0.246113,0.10643 -0.212854,0.32594 0.03991,0.21285 0.292675,0.55209 l 2.933404,3.92451 h 0.05321 l 3.013224,-3.92451 q 0.432361,-0.53879 0.412406,-0.64522 -0.0133,-0.11308 -0.05987,-0.15964 -0.04656,-0.0466 -0.133034,-0.0865 -0.08647,-0.0399 -0.08647,-0.16629 0,-0.12638 0.08647,-0.12638 h 2.09529 q 0.0865,0 0.0865,0.11973 0,0.11308 -0.0333,0.13968 -0.0266,0.02 -0.0798,0.0466 -0.0532,0.02 -0.0732,0.0399 -0.0199,0.02 -0.10642,0.0798 l -0.1796,0.13969 q -0.26607,0.21286 -0.43901,0.45232 l -3.884602,5.04199 v 3.67175 q 0,0.48557 0.319282,0.80485 0.02661,0.0266 0.113079,0.0665 0.08647,0.0399 0.08647,0.16629 0,0.12638 -0.08647,0.12638 h -2.241626 q -0.08647,0 -0.08647,-0.11307 0,-0.11974 0.02661,-0.13969 0.03326,-0.0266 0.08647,-0.0466 0.05321,-0.0266 0.139686,-0.11308 0.08647,-0.0865 0.179596,-0.30598 0.09312,-0.21951 0.09312,-0.44566 z"
       id="text5"
       transform="scale(0.97998818,1.0204205)"
       aria-label=" SATURDAY"
       inkscape:label="saturday" /><rect
       style="display:none;fill:#ffffff;stroke-width:0;stroke-linecap:round;paint-order:fill markers stroke"
       id="rect15"
       width="108.7515"
       height="60.136478"
       x="3.1957712"
       y="136.23022"
       rx="0"
       ry="0" /></g></svg>
