<?xml version="1.0" encoding="UTF-8" standalone="no"?>
<!-- Created with Inkscape (http://www.inkscape.org/) -->

<svg
   width="108.7515mm"
   height="60.136478mm"
   viewBox="0 0 108.75151 60.136478"
   version="1.1"
   id="svg1"
   xml:space="preserve"
   inkscape:version="1.3 (0e150ed, 2023-07-21)"
   sodipodi:docname="bbff-homepage-baners.svg"
   inkscape:export-filename="homepage-banner-date.svg"
   inkscape:export-xdpi="300"
   inkscape:export-ydpi="300"
   xmlns:inkscape="http://www.inkscape.org/namespaces/inkscape"
   xmlns:sodipodi="http://sodipodi.sourceforge.net/DTD/sodipodi-0.dtd"
   xmlns="http://www.w3.org/2000/svg"
   xmlns:svg="http://www.w3.org/2000/svg"><sodipodi:namedview
     id="namedview1"
     pagecolor="#ffffff"
     bordercolor="#000000"
     borderopacity="0.25"
     inkscape:showpageshadow="2"
     inkscape:pageopacity="0.0"
     inkscape:pagecheckerboard="0"
     inkscape:deskcolor="#d1d1d1"
     inkscape:document-units="mm"
     inkscape:zoom="1.3275696"
     inkscape:cx="455.72"
     inkscape:cy="705.80106"
     inkscape:window-width="1872"
     inkscape:window-height="1027"
     inkscape:window-x="0"
     inkscape:window-y="25"
     inkscape:window-maximized="0"
     inkscape:current-layer="layer1" /><defs
     id="defs1" /><g
     inkscape:label="Layer 1"
     inkscape:groupmode="layer"
     id="layer1"
     transform="translate(-115.88144,-136.51125)"><path
       style="fill:#000000;stroke-width:0.999998"
       d="m 211.61895,195.06624 c 0.39648,-1.77052 0.22852,-4.52666 -0.35797,-5.87408 -0.39788,-0.91411 -0.44914,-1.38432 -0.16334,-1.49845 0.22906,-0.0915 0.72313,-0.56061 1.09793,-1.04255 0.43149,-0.55484 1.31284,-0.93787 2.40282,-1.04428 2.01346,-0.19654 2.4712,-0.46319 2.4712,-1.43956 0,-0.80964 2.55031,-3.70021 3.26511,-3.70074 0.25654,-1.9e-4 0.46644,-0.20151 0.46644,-0.44737 0,-0.24587 0.33584,-0.44703 0.74632,-0.44703 1.0181,0 0.94664,-0.78565 -0.0933,-1.0256 -0.83304,-0.19221 -0.83272,-0.1942 0.0414,-0.25459 l 0.88094,-0.0609 -0.865,-0.83909 c -0.63358,-0.61461 -1.2436,-0.77825 -2.28027,-0.61167 -0.87377,0.1404 -1.41527,0.0447 -1.41527,-0.25031 0,-0.30825 0.84069,-0.41193 2.3699,-0.2923 l 2.3699,0.1854 0.0686,-2.74015 c 0.0377,-1.50708 0.15738,-2.91218 0.26584,-3.1224 0.10845,-0.21023 -0.0794,-0.5094 -0.41748,-0.6648 -0.33807,-0.15541 -0.45807,-0.40545 -0.26666,-0.55563 0.51535,-0.40436 0.92778,-10.65598 0.44313,-11.01479 -0.27172,-0.20118 -0.26767,-0.46893 0.0133,-0.87441 0.34113,-0.49242 0.4218,-2.07221 0.33151,-6.49245 -0.007,-0.37103 0.0362,-0.87394 0.0974,-1.11755 0.0612,-0.24363 -0.0846,-1.09672 -0.32379,-1.89579 l -0.43495,-1.45282 h -3.13134 c -2.9934,0 -3.15041,-0.0501 -3.56439,-1.13859 -0.23817,-0.62623 -0.43305,-1.53146 -0.43305,-2.01162 0,-0.69017 -0.25399,-0.86969 -1.21276,-0.85718 -0.66701,0.009 -1.63255,0.30332 -2.14564,0.6547 -0.99065,0.67842 -4.47787,0.91901 -4.47787,0.30895 0,-0.19887 -0.24031,-0.75205 -0.53401,-1.22931 -0.51917,-0.8436 -0.54445,-0.83666 -0.90923,0.24982 -0.32546,0.96934 -0.38184,0.99899 -0.42511,0.22351 l -0.0499,-0.89404 -0.3207,0.89404 c -0.27423,0.76452 -0.3245,0.7807 -0.34692,0.11175 -0.0257,-0.767 -0.77254,-1.15218 -0.77254,-0.39844 0,0.59033 -4.05354,2.25872 -4.20091,1.72905 -0.0819,-0.29415 -0.41127,-0.27014 -0.93942,0.0685 -0.70295,0.45067 -0.78068,0.41941 -0.57256,-0.2303 0.20582,-0.64252 0.0623,-0.70898 -0.98793,-0.45736 -0.6758,0.16191 -1.38558,0.29439 -1.57727,0.29439 -0.1917,0 -0.22833,0.23297 -0.0814,0.51773 0.36346,0.70452 -4.06925,0.19919 -8.14716,-0.92877 -1.69618,-0.46916 -4.64899,-1.07734 -6.56177,-1.35149 -1.91279,-0.27417 -5.43911,-0.90163 -7.83627,-1.39437 -9.2234,-1.8959 -15.87768,-1.68769 -30.18229,0.94432 -7.35311,1.35296 -10.44105,1.65435 -8.78635,0.85758 1.28934,-0.62085 0.99681,-1.01496 -0.50318,-0.67784 -0.73852,0.16596 -1.25639,0.13433 -1.15081,-0.0703 0.10557,-0.20466 -0.70792,-0.4036 -1.80777,-0.4421 -1.47571,-0.0517 -2.85002,-0.54734 -5.24449,-1.89154 -4.11082,-2.30775 -4.52499,-2.30333 -0.9025,0.01 2.92669,1.8687 2.68222,2.02306 -0.68058,0.42971 -1.09265,-0.51772 -1.88035,-0.73532 -1.75047,-0.48355 0.36868,0.71461 -0.094,0.55107 -1.98037,-0.7 l -1.74566,-1.15773 1.11947,1.2018 1.11947,1.20182 -1.11947,-0.28009 c -1.19293,-0.29847 -1.31837,-0.41106 3.63828,3.26552 0.76962,0.57088 1.39933,1.10496 1.39933,1.18681 0,0.44992 -3.49563,-0.55484 -4.92086,-1.41441 -0.97682,-0.58913 -0.99129,-0.57864 -0.55975,0.40604 0.24365,0.55595 1.11468,1.7737 1.93563,2.70612 1.39396,1.58325 1.41862,1.65247 0.37315,1.04737 -1.80008,-1.04183 -4.17113,-2.1059 -3.37285,-1.51365 0.40252,0.29865 1.19261,1.07168 1.75575,1.71786 0.56313,0.64617 1.08611,1.10033 1.16216,1.00922 0.0761,-0.091 0.0645,0.4363 -0.0256,1.172 -0.0901,0.73571 -0.31274,1.36281 -0.49468,1.39354 -0.18194,0.0308 -0.49873,0.10613 -0.70396,0.16764 -0.20524,0.0614 -0.48921,0.1369 -0.63106,0.16763 -0.14184,0.0308 -0.006,0.30732 0.30311,0.61465 0.30855,0.30734 0.76363,1.12982 1.01129,1.82774 0.39253,1.10621 0.3656,1.29548 -0.20994,1.47579 -0.71907,0.22526 -1.69353,2.2863 -1.37389,2.90587 0.10902,0.21132 -0.0216,0.3873 -0.29024,0.39107 -0.35494,0.004 -0.33547,0.1253 0.0712,0.44018 0.30785,0.23833 0.39181,0.43731 0.18657,0.44218 -0.48524,0.0115 -0.62275,3.13402 -0.13803,3.13402 0.20276,0 0.27008,0.19107 0.1496,0.4246 -0.12047,0.23353 0.16347,0.68069 0.631,0.9937 0.83133,0.55657 0.82127,0.57462 -0.45598,0.81903 -0.77744,0.14875 -1.26604,0.47837 -1.2072,0.81436 0.0544,0.31047 0.13296,1.05838 0.17467,1.66206 0.0417,0.60366 0.20713,1.09758 0.36759,1.09758 0.16048,0 0.29178,0.29465 0.29178,0.6548 0,0.36014 0.35853,0.88467 0.79672,1.16561 0.62454,0.40041 0.68711,0.59197 0.28947,0.88637 -0.33076,0.24488 -0.9411,-0.0208 -1.75413,-0.76373 -0.68577,-0.62662 -1.32946,-1.04036 -1.43041,-0.9194 -0.10095,0.12093 0.3268,0.65523 0.95054,1.18731 0.62377,0.53207 1.09522,1.14342 1.04767,1.35854 -0.0476,0.21512 0.45687,1.08887 1.12092,1.94166 0.96935,1.24485 1.09436,1.60248 0.63414,1.81404 -0.85283,0.39204 0.15572,1.53651 1.13272,1.28537 0.57036,-0.14661 0.63111,-0.0876 0.24612,0.23891 -0.41779,0.35433 -0.38367,0.52235 0.18658,0.91923 0.62012,0.43161 0.57848,0.48718 -0.37409,0.49925 -0.90998,0.0115 -1.0017,0.11488 -0.60732,0.68414 0.39842,0.57512 0.25889,0.68007 -0.98049,0.73751 -1.17246,0.0543 -1.24593,0.10283 -0.38952,0.2566 0.64703,0.11623 0.9866,0.40473 0.87745,0.74547 -0.0979,0.30572 0.38508,1.21548 1.07337,2.02168 1.1792,1.38121 1.43013,1.47476 4.34673,1.62063 2.41995,0.12101 3.09637,0.29884 3.10019,0.81501 0.01,1.32276 2.00889,2.58449 5.12866,3.23694 2.02367,0.42322 3.11414,0.48672 3.19775,0.18619 0.0697,-0.25081 1.24636,-0.4624 2.61459,-0.4702 2.83508,-0.0161 8.39221,-0.92176 12.08307,-1.96911 3.05069,-0.86568 6.97107,-1.34756 6.44987,-0.79278 -0.56327,0.59954 -12.52325,3.1368 -16.97812,3.60184 l -3.91813,0.409 4.66445,-0.21404 c 2.56544,-0.11771 5.75591,-0.507 7.08994,-0.86509 1.33403,-0.35809 4.98089,-1.23908 8.10413,-1.95774 5.61263,-1.29148 5.79044,-1.30379 15.29938,-1.05843 5.29141,0.13654 9.9566,0.42225 10.36707,0.63492 0.94345,0.4888 10.63573,1.54299 12.87386,1.40023 1.91681,-0.12226 6.34365,0.8131 6.34365,1.34038 0,0.19304 0.27941,0.22254 0.62095,0.0655 0.41751,-0.19193 0.53254,-0.11412 0.35112,0.23754 -0.16353,0.317 -0.032,0.523 0.33397,0.523 0.33207,0 0.51137,0.1791 0.39844,0.39801 -0.20914,0.40537 1.4129,0.88568 4.05473,1.20063 1.86731,0.22262 2.30634,0.74495 1.46913,1.7479 -0.62576,0.74963 -0.62258,0.81443 0.0693,1.41023 0.39886,0.34347 1.0034,0.90439 1.34344,1.24649 0.54189,0.54518 0.64495,0.50274 0.83451,-0.34375 z m 5.82379,-19.96431 c -0.40071,-0.31022 -0.003,-0.43528 1.39934,-0.44018 1.07748,-0.003 1.95906,0.19432 1.95906,0.44018 0,0.57171 -2.61993,0.57171 -3.3584,0 z M 121.643,160.07986 c 0.26116,-0.31287 1.39141,0.3214 1.39141,0.78083 0,0.22836 -0.34995,0.19056 -0.77828,-0.084 -0.42805,-0.27444 -0.70395,-0.58799 -0.61313,-0.6968 z m -0.75535,-8.03563 c 0.12889,-0.15439 0.70661,-0.0745 1.28383,0.17758 0.64745,0.28272 0.79933,0.47182 0.39648,0.49359 -0.35916,0.0195 -0.65302,0.27955 -0.65302,0.5781 0,0.3418 -0.23361,0.26296 -0.63081,-0.21287 -0.34695,-0.41562 -0.52536,-0.88201 -0.39648,-1.0364 z m -0.34688,-12.10115 c 0.10493,-0.12571 0.52997,-0.0112 0.94452,0.2547 0.94098,0.60329 1.28851,0.616 0.98938,0.0362 -0.36767,-0.71265 0.42003,-0.51678 0.93998,0.23374 0.40046,0.57803 0.36512,0.63287 -0.23417,0.36333 -0.64342,-0.28938 -0.65661,-0.2451 -0.14921,0.50098 0.48396,0.71161 0.34532,0.68929 -1.06234,-0.171 -0.89042,-0.54419 -1.53309,-1.09227 -1.42816,-1.21797 z m -0.0252,37.54494 c -0.25655,-0.124 -0.67634,-0.124 -0.93288,0 -0.25655,0.12401 -0.0467,0.22548 0.46643,0.22548 0.51309,0 0.72299,-0.10144 0.46645,-0.22548 z m -2.5188,-6.40931 c -0.12684,-0.24586 -0.39854,-0.44703 -0.60378,-0.44703 -0.20524,0 -0.26937,0.20117 -0.14253,0.44703 0.12685,0.24586 0.39854,0.44702 0.60378,0.44702 0.20523,0 0.26937,-0.20116 0.14253,-0.44702 z m 80.7882,-32.21217 c 0,-0.26038 -0.16793,-0.34909 -0.37316,-0.19714 -0.20523,0.15197 -0.37315,0.36499 -0.37315,0.47342 0,0.10839 0.16792,0.19713 0.37315,0.19713 0.20523,0 0.37316,-0.21303 0.37316,-0.47341 z"
       id="path8" /><path
       style="font-size:8.0932px;line-height:1;font-family:'Della Respira';-inkscape-font-specification:'Della Respira';text-align:center;letter-spacing:0.224809px;text-anchor:middle;fill:#ffffff;stroke-width:0;stroke-linecap:round;paint-order:fill markers stroke"
       d="m 182.79094,115.41449 q 0.89309,0 1.59651,-0.40308 0.70736,-0.40308 1.16181,-1.08278 0.0514,-0.083 0.0751,-0.0514 0.0277,0.0316 0.0672,0.0869 l 0.1225,0.17783 q 0.0593,0.0988 0.0435,0.12251 -0.23711,0.48211 -0.7943,0.94447 -1.03141,0.86148 -2.27226,0.86148 -0.71922,0 -1.34755,-0.27662 -0.62833,-0.28058 -1.05907,-0.74688 -0.43075,-0.46631 -0.67971,-1.09069 -0.24501,-0.62833 -0.24501,-1.30013 0,-0.6718 0.26477,-1.28432 0.26872,-0.61647 0.71527,-1.06302 0.44655,-0.4505 1.05907,-0.71922 0.61252,-0.27267 1.2369,-0.27267 0.74293,0 1.49772,0.28848 l 0.18178,0.0672 q 0.0395,0.0158 0.11065,-0.0316 0.0711,-0.0474 0.15016,-0.0474 0.079,0 0.12251,0.0751 0.0158,0.0119 0.0119,0.083 -0.008,0.1146 0.0949,0.52558 l 0.0988,0.4347 q 0.0395,0.16992 0.0395,0.21734 0,0.0237 -0.10275,0.0751 -0.0988,0.0474 -0.1146,0.0198 -0.32799,-0.57301 -0.82592,-0.79035 -0.49397,-0.21735 -1.2369,-0.21735 -0.73897,0 -1.33569,0.3359 -0.59672,0.3359 -0.92076,0.93656 -0.32404,0.59672 -0.32404,1.35546 0,0.49792 0.2292,1.0077 0.2292,0.50582 0.58881,0.89309 0.36356,0.38332 0.84172,0.62833 0.47817,0.24106 0.94843,0.24106 z m 6.49624,-0.2213 q 0.38728,0.15412 0.75874,0.15412 1.26456,0 2.01145,-0.73898 0.75083,-0.74293 0.75083,-1.99168 0,-0.43075 -0.2213,-0.90496 -0.21734,-0.47421 -0.58486,-0.86543 -0.36751,-0.39518 -0.901,-0.65204 -0.52953,-0.25687 -1.20133,-0.25687 -0.6718,0 -1.26852,0.33985 -0.59671,0.33986 -0.92076,0.94052 -0.32404,0.60067 -0.32404,1.39497 0,0.79036 0.57696,1.53724 0.5809,0.74688 1.32383,1.04326 z m -1.65578,-0.18573 q -0.4426,-0.46236 -0.70341,-1.09464 -0.26082,-0.63623 -0.26082,-1.31198 0,-0.6797 0.27267,-1.29223 0.27662,-0.61647 0.72712,-1.06302 0.45446,-0.4505 1.06698,-0.71922 0.61647,-0.26872 1.22109,-0.26872 0.60462,0 1.1302,0.15807 1.03932,0.31219 1.73087,1.16577 0.69551,0.84963 0.69551,1.99959 0,0.67575 -0.24501,1.29222 -0.245,0.61648 -0.6876,1.09464 -0.43865,0.47421 -1.11045,0.75874 -0.66784,0.28453 -1.41077,0.28453 -0.74293,0 -1.36336,-0.27268 -0.62043,-0.27267 -1.06302,-0.73107 z m 7.91098,-5.61545 q 0.0356,0 0.0672,0.0316 l 4.41806,4.68678 h 0.0277 v -4.02684 q 0,-0.28453 -0.19363,-0.47816 -0.0158,-0.0158 -0.0672,-0.0395 -0.0514,-0.0237 -0.0514,-0.0988 0,-0.0751 0.0514,-0.0751 h 1.29222 q 0.0514,0 0.0514,0.0711 0,0.0672 -0.0197,0.083 -0.0158,0.0118 -0.0474,0.0277 -0.0316,0.0119 -0.083,0.0632 -0.0514,0.0514 -0.11065,0.18178 -0.0553,0.13041 -0.0553,0.26477 v 5.57198 q 0,0.14621 -0.0395,0.17783 -0.0356,0.0316 -0.11856,0.0316 -0.083,0 -0.13436,-0.0474 l -4.96736,-5.27165 v 4.62751 q 0,0.30429 0.17388,0.47817 0.0158,0.0158 0.0672,0.0395 0.0514,0.0237 0.0514,0.0988 0,0.0751 -0.0514,0.0751 h -1.27246 q -0.0514,0 -0.0514,-0.0672 0,-0.0711 0.0158,-0.083 0.0198,-0.0158 0.0514,-0.0277 0.0316,-0.0158 0.0514,-0.0356 0.19758,-0.19759 0.19758,-0.47817 v -5.08986 q 0,-0.29243 -0.18573,-0.47816 -0.0158,-0.0158 -0.0672,-0.0395 -0.0514,-0.0237 -0.0514,-0.0988 0,-0.0751 0.0514,-0.0751 z m 12.35275,5.75771 q 0,0.0395 -0.0593,0.0395 -0.0553,0 -0.0751,0.008 -0.41889,0.3359 -1.01955,0.58091 -0.60067,0.24106 -1.27247,0.24106 -0.6718,0 -1.30013,-0.27662 -0.62833,-0.28058 -1.05907,-0.74689 -0.43074,-0.4663 -0.6797,-1.09068 -0.24501,-0.62833 -0.24501,-1.30013 0,-0.6718 0.26477,-1.28432 0.26872,-0.61648 0.71527,-1.06302 0.44654,-0.4505 1.05907,-0.71922 0.61252,-0.27268 1.2369,-0.27268 0.74293,0 1.49771,0.28453 l 0.18178,0.0711 q 0.0395,0.0158 0.11065,-0.0316 0.0711,-0.0474 0.15017,-0.0474 0.083,0 0.1225,0.0751 0.0158,0.0119 0.0119,0.083 -0.008,0.11065 0.0948,0.52953 l 0.0988,0.42679 q 0.0395,0.17388 0.0395,0.2213 0,0.0237 -0.10274,0.0751 -0.0988,0.0474 -0.1146,0.0198 -0.328,-0.573 -0.82592,-0.79035 -0.49397,-0.21734 -1.2369,-0.21734 -0.73898,0 -1.3357,0.3359 -0.59671,0.33589 -0.92075,0.93656 -0.32405,0.59672 -0.32405,1.35545 0,0.49793 0.2292,1.0077 0.2292,0.50583 0.58881,0.88915 0.36357,0.38332 0.84173,0.62833 0.47816,0.24106 0.92076,0.24106 0.4426,0 0.97608,-0.2213 0.53349,-0.22525 0.6639,-0.37937 v -1.61627 q 0,-0.28848 -0.18969,-0.47816 -0.0158,-0.0158 -0.0672,-0.0395 -0.0514,-0.0237 -0.0514,-0.0988 0,-0.0751 0.0514,-0.0751 h 1.28037 q 0.0514,0 0.0514,0.0711 0,0.0672 -0.0198,0.083 -0.0158,0.0119 -0.0474,0.0277 -0.0316,0.0119 -0.083,0.0632 -0.0474,0.0474 -0.10275,0.18178 -0.0553,0.13041 -0.0553,0.26477 z m 2.69071,-5.10962 q -0.083,0 -0.14227,0.0593 -0.0593,0.0553 -0.0593,0.13831 v 4.93574 q 0,0.28848 0.18968,0.47817 0.0158,0.0158 0.0672,0.0395 0.0514,0.0237 0.0514,0.0988 0,0.0751 -0.0514,0.0751 h -1.28037 q -0.0514,0 -0.0514,-0.0672 0,-0.0711 0.0158,-0.083 0.0198,-0.0158 0.0514,-0.0277 0.0316,-0.0158 0.079,-0.0632 0.0514,-0.0514 0.1067,-0.18178 0.0553,-0.13436 0.0553,-0.26872 v -5.08986 q 0,-0.28848 -0.18969,-0.47816 -0.0158,-0.0158 -0.0672,-0.0395 -0.0514,-0.0237 -0.0514,-0.0948 0,-0.0711 0.0514,-0.0711 h 2.02725 q 0.86939,0.008 1.45425,0.37542 0.58881,0.36356 0.58881,1.18553 0,0.96818 -1.01165,1.41868 -0.37146,0.16597 -0.5651,0.18573 -0.19364,0.0158 -0.19364,0.0277 l 0.12646,0.0711 q 0.079,0.0474 0.32404,0.24105 0.24501,0.19364 0.48607,0.43865 0.24106,0.24106 0.57301,0.6718 0.33194,0.43074 0.49001,0.70341 l 0.32405,0.57696 q 0.17783,0.32404 0.29638,0.35566 0.11855,0.0316 0.11855,0.1225 0,0.0909 -0.0514,0.0909 h -1.28037 q -0.0514,0 -0.0514,-0.0672 0,-0.0711 0.0158,-0.083 0.0198,-0.0158 0.0514,-0.0277 0.0316,-0.0158 0.0514,-0.0395 0.0237,-0.0237 0.0198,-0.0909 0,-0.0711 -0.0158,-0.11065 -0.28848,-0.74293 -0.7864,-1.41473 -0.92471,-1.24875 -1.59256,-1.34359 -0.0948,-0.0158 -0.0948,-0.0198 -0.008,-0.0711 -0.008,-0.19364 v -0.24106 q 0,-0.0395 0.0395,-0.0395 0.97214,0 1.51748,-0.39123 0.41889,-0.29638 0.41889,-0.79825 0,-0.50187 -0.40308,-0.73108 -0.40308,-0.23315 -0.91286,-0.23315 z m 8.12042,1.95217 q 0.28848,0 0.47816,-0.18969 0.0158,-0.0158 0.0395,-0.0672 0.0237,-0.0514 0.0988,-0.0514 0.0751,0 0.0751,0.0514 v 1.14601 q 0,0.0514 -0.0711,0.0514 -0.0672,0 -0.083,-0.0158 -0.0119,-0.0198 -0.0277,-0.0514 -0.0118,-0.0316 -0.0632,-0.079 -0.0474,-0.0514 -0.18178,-0.10274 -0.13041,-0.0514 -0.26477,-0.0514 h -2.49356 v 2.59236 h 2.62397 q 0.44654,0 0.54534,-0.0751 0.10274,-0.079 0.14226,-0.13831 0.0435,-0.0593 0.0632,-0.0593 0.0237,0 0.079,0.0198 0.0593,0.0198 0.0593,0.0356 0,0.0158 -0.0553,0.15412 l -0.12646,0.32009 q -0.0711,0.18178 -0.0988,0.27662 -0.0237,0.0909 -0.0672,0.1067 h -4.18887 q -0.0514,0 -0.0514,-0.0672 0,-0.0711 0.0158,-0.083 0.0198,-0.0158 0.0514,-0.0277 0.0316,-0.0158 0.079,-0.0632 0.0514,-0.0514 0.10669,-0.18178 0.0553,-0.13436 0.0553,-0.26872 v -5.08986 q 0,-0.28848 -0.18969,-0.47816 -0.0158,-0.0158 -0.0672,-0.0395 -0.0514,-0.0237 -0.0514,-0.0988 0,-0.0751 0.0514,-0.0751 h 4.18887 q 0.0395,0 0.0672,0.10275 0.0277,0.0988 0.0988,0.28057 l 0.12646,0.32009 q 0.0553,0.13832 0.0553,0.15412 0,0.0158 -0.0593,0.0356 -0.0553,0.0198 -0.0751,0.0198 -0.0158,0 -0.0356,-0.0198 -0.0198,-0.0237 -0.0474,-0.0593 -0.0237,-0.0395 -0.12645,-0.1146 -0.0988,-0.079 -0.54534,-0.079 h -2.62397 v 1.96007 z m 7.5316,3.15745 q 0,0.0395 -0.0593,0.0395 -0.0553,0 -0.0751,0.008 -0.41888,0.3359 -1.01955,0.58091 -0.60067,0.24106 -1.27246,0.24106 -0.6718,0 -1.30013,-0.27662 -0.62833,-0.28058 -1.05907,-0.74689 -0.43075,-0.4663 -0.67971,-1.09068 -0.24501,-0.62833 -0.24501,-1.30013 0,-0.6718 0.26477,-1.28432 0.26872,-0.61648 0.71527,-1.06302 0.44655,-0.4505 1.05907,-0.71922 0.61252,-0.27268 1.2369,-0.27268 0.74293,0 1.49772,0.28453 l 0.18178,0.0711 q 0.0395,0.0158 0.11065,-0.0316 0.0711,-0.0474 0.15016,-0.0474 0.083,0 0.12251,0.0751 0.0158,0.0119 0.0119,0.083 -0.008,0.11065 0.0948,0.52953 l 0.0988,0.42679 q 0.0395,0.17388 0.0395,0.2213 0,0.0237 -0.10275,0.0751 -0.0988,0.0474 -0.1146,0.0198 -0.32799,-0.573 -0.82592,-0.79035 -0.49397,-0.21734 -1.2369,-0.21734 -0.73897,0 -1.33569,0.3359 -0.59672,0.33589 -0.92076,0.93656 -0.32404,0.59672 -0.32404,1.35545 0,0.49793 0.2292,1.0077 0.2292,0.50583 0.58881,0.88915 0.36356,0.38332 0.84172,0.62833 0.47817,0.24106 0.92076,0.24106 0.4426,0 0.97609,-0.2213 0.53349,-0.22525 0.66389,-0.37937 v -1.61627 q 0,-0.28848 -0.18968,-0.47816 -0.0158,-0.0158 -0.0672,-0.0395 -0.0514,-0.0237 -0.0514,-0.0988 0,-0.0751 0.0514,-0.0751 h 1.28037 q 0.0514,0 0.0514,0.0711 0,0.0672 -0.0198,0.083 -0.0158,0.0119 -0.0474,0.0277 -0.0316,0.0119 -0.083,0.0632 -0.0474,0.0474 -0.10274,0.18178 -0.0553,0.13041 -0.0553,0.26477 z m 1.29969,0.11065 q 0,0 2.60026,-5.82094 0.0198,-0.0474 0.19363,-0.0474 0.17388,0 0.19759,0.0474 l 2.67929,5.82094 q 0.15412,0.35961 0.30429,0.43074 0.0514,0.0237 0.0514,0.0988 0,0.0751 -0.0514,0.0751 h -1.43054 q -0.0514,0 -0.0514,-0.0672 0,-0.0711 0.0158,-0.083 0.0198,-0.0158 0.0514,-0.0277 0.0316,-0.0158 0.0514,-0.0356 0.15017,-0.15017 0.15017,-0.27663 0,-0.13041 -0.0277,-0.21339 l -0.57301,-1.35546 h -2.84921 l -0.56115,1.35546 q -0.0277,0.083 -0.0277,0.12645 v 0.0435 q 0,0.004 0,0.008 0,0.16202 0.15017,0.31219 0.0158,0.0158 0.0672,0.0395 0.0514,0.0237 0.0514,0.0988 0,0.0751 -0.0514,0.0751 h -1.2448 q -0.0514,0 -0.0514,-0.0672 0,-0.0711 0.0158,-0.083 0.0198,-0.0158 0.0514,-0.0316 0.13041,-0.0553 0.28848,-0.42284 z m 1.59256,-2.08257 q -0.008,0.0118 -0.004,0.0316 0.004,0.0158 0.0158,0.0158 h 2.25645 q 0.0119,0 0.0158,-0.0158 0.004,-0.0198 -0.004,-0.0316 l -1.14205,-2.48171 h -0.0277 z m 10.30179,-3.78579 q 0.0395,0 0.0672,0.10275 0.0277,0.0988 0.0988,0.28057 0,0 0.12646,0.32009 0.0553,0.13832 0.0553,0.15412 0,0.0158 -0.0593,0.0356 -0.0553,0.0198 -0.0711,0.0198 -0.0277,0 -0.0711,-0.0553 -0.0395,-0.0593 -0.14226,-0.13831 -0.0988,-0.079 -0.54534,-0.079 h -2.22484 v 5.14123 q 0,0.28848 0.18968,0.47817 0.0158,0.0158 0.0672,0.0395 0.0514,0.0237 0.0514,0.0988 0,0.0751 -0.0514,0.0751 h -1.28037 q -0.0514,0 -0.0514,-0.0672 0,-0.0711 0.0158,-0.083 0.0198,-0.0158 0.0514,-0.0277 0.0316,-0.0158 0.079,-0.0632 0.0514,-0.0514 0.10669,-0.18178 0.0553,-0.13436 0.0553,-0.26872 v -5.14123 h -2.22484 q -0.5572,0 -0.6718,0.18968 -0.0553,0.079 -0.079,0.083 -0.0237,0 -0.083,-0.0198 -0.0553,-0.0198 -0.0553,-0.0356 0,-0.0158 0.0553,-0.15412 l 0.12645,-0.32009 q 0.0711,-0.17783 0.0948,-0.26872 0.0277,-0.0948 0.0711,-0.1146 z m 1.17718,0 h 1.28037 q 0.0514,0 0.0514,0.0711 0,0.0672 -0.0198,0.083 -0.0158,0.0118 -0.0474,0.0277 -0.0316,0.0119 -0.083,0.0632 -0.0474,0.0474 -0.10275,0.18178 -0.0553,0.13041 -0.0553,0.26477 v 5.08986 q 0,0.28848 0.18968,0.47817 0.0158,0.0158 0.0672,0.0395 0.0514,0.0237 0.0514,0.0988 0,0.0751 -0.0514,0.0751 h -1.28037 q -0.0514,0 -0.0514,-0.0672 0,-0.0711 0.0158,-0.083 0.0197,-0.0158 0.0514,-0.0277 0.0316,-0.0158 0.079,-0.0632 0.0514,-0.0514 0.1067,-0.18178 0.0553,-0.13436 0.0553,-0.26872 v -5.08986 q 0,-0.28848 -0.18969,-0.47816 -0.0158,-0.0158 -0.0672,-0.0395 -0.0514,-0.0237 -0.0514,-0.0988 0,-0.0751 0.0514,-0.0751 z m 5.0262,5.80118 q 0.38727,0.15412 0.75873,0.15412 1.26457,0 2.01145,-0.73898 0.75083,-0.74293 0.75083,-1.99168 0,-0.43075 -0.2213,-0.90496 -0.21734,-0.47421 -0.58486,-0.86543 -0.36751,-0.39518 -0.901,-0.65204 -0.52953,-0.25687 -1.20133,-0.25687 -0.6718,0 -1.26852,0.33985 -0.59671,0.33986 -0.92076,0.94052 -0.32404,0.60067 -0.32404,1.39497 0,0.79036 0.57696,1.53724 0.58091,0.74688 1.32384,1.04326 z m -1.65579,-0.18573 q -0.4426,-0.46236 -0.70341,-1.09464 -0.26082,-0.63623 -0.26082,-1.31198 0,-0.6797 0.27267,-1.29223 0.27663,-0.61647 0.72713,-1.06302 0.45445,-0.4505 1.06697,-0.71922 0.61647,-0.26872 1.22109,-0.26872 0.60462,0 1.13021,0.15807 1.03931,0.31219 1.73087,1.16577 0.69551,0.84963 0.69551,1.99959 0,0.67575 -0.24501,1.29222 -0.24501,0.61648 -0.68761,1.09464 -0.43864,0.47421 -1.11044,0.75874 -0.66785,0.28453 -1.41078,0.28453 -0.74293,0 -1.36336,-0.27268 -0.62042,-0.27267 -1.06302,-0.73107 z m 7.91098,-5.61545 q 0.0356,0 0.0672,0.0316 l 4.41807,4.68678 h 0.0277 v -4.02684 q 0,-0.28453 -0.19364,-0.47816 -0.0158,-0.0158 -0.0672,-0.0395 -0.0514,-0.0237 -0.0514,-0.0988 0,-0.0751 0.0514,-0.0751 h 1.29223 q 0.0514,0 0.0514,0.0711 0,0.0672 -0.0198,0.083 -0.0158,0.0118 -0.0474,0.0277 -0.0316,0.0119 -0.083,0.0632 -0.0514,0.0514 -0.11065,0.18178 -0.0553,0.13041 -0.0553,0.26477 v 5.57198 q 0,0.14621 -0.0395,0.17783 -0.0356,0.0316 -0.11855,0.0316 -0.083,0 -0.13436,-0.0474 l -4.96736,-5.27165 v 4.62751 q 0,0.30429 0.17388,0.47817 0.0158,0.0158 0.0672,0.0395 0.0514,0.0237 0.0514,0.0988 0,0.0751 -0.0514,0.0751 h -1.27247 q -0.0514,0 -0.0514,-0.0672 0,-0.0711 0.0158,-0.083 0.0198,-0.0158 0.0514,-0.0277 0.0316,-0.0158 0.0514,-0.0356 0.19759,-0.19759 0.19759,-0.47817 v -5.08986 q 0,-0.29243 -0.18573,-0.47816 -0.0158,-0.0158 -0.0672,-0.0395 -0.0514,-0.0237 -0.0514,-0.0988 0,-0.0751 0.0514,-0.0751 z m 6.78077,5.86836 q 0,0 2.60026,-5.82094 0.0198,-0.0474 0.19363,-0.0474 0.17388,0 0.19759,0.0474 l 2.67929,5.82094 q 0.15412,0.35961 0.30429,0.43074 0.0514,0.0237 0.0514,0.0988 0,0.0751 -0.0514,0.0751 h -1.43054 q -0.0514,0 -0.0514,-0.0672 0,-0.0711 0.0158,-0.083 0.0198,-0.0158 0.0514,-0.0277 0.0316,-0.0158 0.0514,-0.0356 0.15017,-0.15017 0.15017,-0.27663 0,-0.13041 -0.0277,-0.21339 l -0.57301,-1.35546 h -2.84921 l -0.56115,1.35546 q -0.0277,0.083 -0.0277,0.12645 v 0.0435 q 0,0.004 0,0.008 0,0.16202 0.15017,0.31219 0.0158,0.0158 0.0672,0.0395 0.0514,0.0237 0.0514,0.0988 0,0.0751 -0.0514,0.0751 h -1.2448 q -0.0514,0 -0.0514,-0.0672 0,-0.0711 0.0158,-0.083 0.0198,-0.0158 0.0514,-0.0316 0.13041,-0.0553 0.28848,-0.42284 z m 1.59256,-2.08257 q -0.008,0.0118 -0.004,0.0316 0.004,0.0158 0.0158,0.0158 h 2.25645 q 0.0119,0 0.0158,-0.0158 0.004,-0.0198 -0.004,-0.0316 l -1.14205,-2.48171 h -0.0277 z m 5.52017,1.99563 v -5.08986 q 0,-0.28848 -0.18969,-0.47816 -0.0158,-0.0158 -0.0672,-0.0395 -0.0514,-0.0237 -0.0514,-0.0988 0,-0.0751 0.0514,-0.0751 h 1.28037 q 0.0514,0 0.0514,0.0711 0,0.0672 -0.0198,0.083 -0.0158,0.0118 -0.0474,0.0277 -0.0316,0.0119 -0.083,0.0632 -0.0474,0.0474 -0.10275,0.18178 -0.0553,0.13041 -0.0553,0.26477 v 5.14124 h 2.62397 q 0.44654,0 0.5809,-0.10275 0.0711,-0.0474 0.11065,-0.1067 0.0395,-0.0593 0.0593,-0.0593 0.0237,-0.004 0.079,0.0158 0.0593,0.0198 0.0593,0.0356 0,0.0158 -0.0553,0.15412 l -0.12646,0.32009 q -0.0711,0.17783 -0.0988,0.27267 -0.0237,0.0909 -0.0672,0.11065 h -4.18887 q -0.0514,0 -0.0514,-0.0672 0,-0.0711 0.0158,-0.083 0.0198,-0.0158 0.0514,-0.0277 0.0316,-0.0158 0.079,-0.0632 0.0514,-0.0514 0.10669,-0.18178 0.0553,-0.13436 0.0553,-0.26872 z m 10.24207,0.24106 q 0.8931,0 1.59651,-0.40308 0.70737,-0.40308 1.16182,-1.08278 0.0514,-0.083 0.0751,-0.0514 0.0277,0.0316 0.0672,0.0869 l 0.12251,0.17783 q 0.0593,0.0988 0.0435,0.12251 -0.23711,0.48211 -0.79431,0.94447 -1.0314,0.86148 -2.27226,0.86148 -0.71922,0 -1.34755,-0.27662 -0.62833,-0.28058 -1.05907,-0.74688 -0.43074,-0.46631 -0.6797,-1.09069 -0.24501,-0.62833 -0.24501,-1.30013 0,-0.6718 0.26477,-1.28432 0.26872,-0.61647 0.71527,-1.06302 0.44655,-0.4505 1.05907,-0.71922 0.61252,-0.27267 1.2369,-0.27267 0.74293,0 1.49772,0.28848 l 0.18178,0.0672 q 0.0395,0.0158 0.11065,-0.0316 0.0711,-0.0474 0.15016,-0.0474 0.079,0 0.12251,0.0751 0.0158,0.0119 0.0118,0.083 -0.008,0.1146 0.0948,0.52558 l 0.0988,0.4347 q 0.0395,0.16992 0.0395,0.21734 0,0.0237 -0.10275,0.0751 -0.0988,0.0474 -0.1146,0.0198 -0.328,-0.57301 -0.82592,-0.79035 -0.49397,-0.21735 -1.2369,-0.21735 -0.73898,0 -1.33569,0.3359 -0.59672,0.3359 -0.92076,0.93656 -0.32405,0.59672 -0.32405,1.35546 0,0.49792 0.22921,1.0077 0.2292,0.50582 0.58881,0.89309 0.36356,0.38332 0.84172,0.62833 0.47816,0.24106 0.94842,0.24106 z m 4.06592,-6.02248 h 1.28037 q 0.0514,0 0.0514,0.0711 0,0.0672 -0.0198,0.083 -0.0158,0.0118 -0.0474,0.0277 -0.0316,0.0119 -0.083,0.0632 -0.0474,0.0474 -0.10275,0.18178 -0.0553,0.13041 -0.0553,0.26477 v 1.79805 h 4.48129 v -1.79805 q 0,-0.28848 -0.18968,-0.47816 -0.0158,-0.0158 -0.0672,-0.0395 -0.0514,-0.0237 -0.0514,-0.0988 0,-0.0751 0.0514,-0.0751 h 1.28037 q 0.0514,0 0.0514,0.0711 0,0.0672 -0.0198,0.083 -0.0158,0.0118 -0.0474,0.0277 -0.0316,0.0119 -0.083,0.0632 -0.0474,0.0474 -0.10274,0.18178 -0.0553,0.13041 -0.0553,0.26477 v 5.08986 q 0,0.28848 0.18969,0.47817 0.0158,0.0158 0.0672,0.0395 0.0514,0.0237 0.0514,0.0988 0,0.0751 -0.0514,0.0751 h -1.28037 q -0.0514,0 -0.0514,-0.0672 0,-0.0711 0.0158,-0.083 0.0198,-0.0158 0.0514,-0.0277 0.0316,-0.0158 0.079,-0.0632 0.0514,-0.0514 0.1067,-0.18178 0.0553,-0.13436 0.0553,-0.26872 v -2.63582 h -4.48129 v 2.63582 q 0,0.28848 0.18968,0.47817 0.0158,0.0158 0.0672,0.0395 0.0514,0.0237 0.0514,0.0988 0,0.0751 -0.0514,0.0751 h -1.28037 q -0.0514,0 -0.0514,-0.0672 0,-0.0711 0.0158,-0.083 0.0197,-0.0158 0.0514,-0.0277 0.0316,-0.0158 0.079,-0.0632 0.0514,-0.0514 0.1067,-0.18178 0.0553,-0.13436 0.0553,-0.26872 v -5.08986 q 0,-0.28848 -0.18969,-0.47816 -0.0158,-0.0158 -0.0672,-0.0395 -0.0514,-0.0237 -0.0514,-0.0988 0,-0.0751 0.0514,-0.0751 z m 8.10856,0.69156 q 0,-0.28058 -0.19758,-0.47816 -0.0158,-0.0158 -0.0672,-0.0395 -0.0514,-0.0237 -0.0514,-0.0988 0,-0.0751 0.0514,-0.0751 h 1.32779 q 0.0514,0 0.0514,0.0711 0,0.0672 -0.0198,0.083 -0.0158,0.0118 -0.0474,0.0277 -0.0316,0.0119 -0.083,0.0632 -0.0474,0.0474 -0.10274,0.18178 -0.0553,0.13041 -0.0553,0.26477 v 3.27601 q 0,0.91285 0.56115,1.41868 0.5651,0.50187 1.37917,0.50187 0.47816,0 0.89705,-0.24106 0.42283,-0.24501 0.66784,-0.64413 0.24896,-0.40308 0.24896,-0.85358 v -3.45779 q 0,-0.28848 -0.18968,-0.47816 -0.0158,-0.0158 -0.0672,-0.0395 -0.0514,-0.0237 -0.0514,-0.0988 0,-0.0751 0.0514,-0.0751 h 1.23295 q 0.0514,0 0.0514,0.0711 0,0.0672 -0.0198,0.083 -0.0158,0.0118 -0.0474,0.0277 -0.0316,0.0119 -0.083,0.0632 -0.0474,0.0474 -0.10274,0.18178 -0.0553,0.13041 -0.0553,0.26477 v 3.45779 q 0,0.6797 -0.3517,1.24875 -0.34776,0.56906 -0.93657,0.8931 -0.58486,0.32404 -1.30013,0.32404 -0.71131,0 -1.33174,-0.33194 -0.61647,-0.33195 -0.98794,-0.94052 -0.37147,-0.61252 -0.37147,-1.37521 z m 8.04929,-0.0435 q -0.083,0 -0.14226,0.0593 -0.0593,0.0553 -0.0593,0.13831 v 4.93574 q 0,0.28848 0.18969,0.47817 0.0158,0.0158 0.0672,0.0395 0.0514,0.0237 0.0514,0.0988 0,0.0751 -0.0514,0.0751 h -1.28037 q -0.0514,0 -0.0514,-0.0672 0,-0.0711 0.0158,-0.083 0.0198,-0.0158 0.0514,-0.0277 0.0316,-0.0158 0.079,-0.0632 0.0514,-0.0514 0.1067,-0.18178 0.0553,-0.13436 0.0553,-0.26872 v -5.08986 q 0,-0.28848 -0.18968,-0.47816 -0.0158,-0.0158 -0.0672,-0.0395 -0.0514,-0.0237 -0.0514,-0.0948 0,-0.0711 0.0514,-0.0711 h 2.02725 q 0.86939,0.008 1.45425,0.37542 0.58881,0.36356 0.58881,1.18553 0,0.96818 -1.01165,1.41868 -0.37147,0.16597 -0.5651,0.18573 -0.19364,0.0158 -0.19364,0.0277 l 0.12646,0.0711 q 0.079,0.0474 0.32404,0.24105 0.24501,0.19364 0.48607,0.43865 0.24106,0.24106 0.573,0.6718 0.33195,0.43074 0.49002,0.70341 l 0.32405,0.57696 q 0.17782,0.32404 0.29638,0.35566 0.11855,0.0316 0.11855,0.1225 0,0.0909 -0.0514,0.0909 h -1.28037 q -0.0514,0 -0.0514,-0.0672 0,-0.0711 0.0158,-0.083 0.0198,-0.0158 0.0514,-0.0277 0.0316,-0.0158 0.0514,-0.0395 0.0237,-0.0237 0.0198,-0.0909 0,-0.0711 -0.0158,-0.11065 -0.28848,-0.74293 -0.7864,-1.41473 -0.92471,-1.24875 -1.59256,-1.34359 -0.0948,-0.0158 -0.0948,-0.0198 -0.008,-0.0711 -0.008,-0.19364 v -0.24106 q 0,-0.0395 0.0395,-0.0395 0.97214,0 1.51748,-0.39123 0.41888,-0.29638 0.41888,-0.79825 0,-0.50187 -0.40307,-0.73108 -0.40308,-0.23315 -0.91286,-0.23315 z m 7.66202,5.37439 q 0.8931,0 1.59651,-0.40308 0.70737,-0.40308 1.16182,-1.08278 0.0514,-0.083 0.0751,-0.0514 0.0277,0.0316 0.0672,0.0869 l 0.12251,0.17783 q 0.0593,0.0988 0.0435,0.12251 -0.23711,0.48211 -0.79431,0.94447 -1.03141,0.86148 -2.27226,0.86148 -0.71922,0 -1.34755,-0.27662 -0.62833,-0.28058 -1.05907,-0.74688 -0.43074,-0.46631 -0.6797,-1.09069 -0.24501,-0.62833 -0.24501,-1.30013 0,-0.6718 0.26477,-1.28432 0.26872,-0.61647 0.71527,-1.06302 0.44654,-0.4505 1.05907,-0.71922 0.61252,-0.27267 1.2369,-0.27267 0.74293,0 1.49771,0.28848 l 0.18178,0.0672 q 0.0395,0.0158 0.11065,-0.0316 0.0711,-0.0474 0.15017,-0.0474 0.079,0 0.1225,0.0751 0.0158,0.0119 0.0119,0.083 -0.008,0.1146 0.0948,0.52558 l 0.0988,0.4347 q 0.0395,0.16992 0.0395,0.21734 0,0.0237 -0.10274,0.0751 -0.0988,0.0474 -0.1146,0.0198 -0.328,-0.57301 -0.82592,-0.79035 -0.49397,-0.21735 -1.2369,-0.21735 -0.73898,0 -1.33569,0.3359 -0.59672,0.3359 -0.92076,0.93656 -0.32405,0.59672 -0.32405,1.35546 0,0.49792 0.2292,1.0077 0.22921,0.50582 0.58882,0.89309 0.36356,0.38332 0.84172,0.62833 0.47816,0.24106 0.94842,0.24106 z m 4.06592,-6.02248 h 1.28037 q 0.0514,0 0.0514,0.0711 0,0.0672 -0.0198,0.083 -0.0158,0.0118 -0.0474,0.0277 -0.0316,0.0119 -0.083,0.0632 -0.0474,0.0474 -0.10274,0.18178 -0.0553,0.13041 -0.0553,0.26477 v 1.79805 h 4.4813 v -1.79805 q 0,-0.28848 -0.18969,-0.47816 -0.0158,-0.0158 -0.0672,-0.0395 -0.0514,-0.0237 -0.0514,-0.0988 0,-0.0751 0.0514,-0.0751 h 1.28037 q 0.0514,0 0.0514,0.0711 0,0.0672 -0.0198,0.083 -0.0158,0.0118 -0.0474,0.0277 -0.0316,0.0119 -0.083,0.0632 -0.0474,0.0474 -0.10275,0.18178 -0.0553,0.13041 -0.0553,0.26477 v 5.08986 q 0,0.28848 0.18968,0.47817 0.0158,0.0158 0.0672,0.0395 0.0514,0.0237 0.0514,0.0988 0,0.0751 -0.0514,0.0751 h -1.28037 q -0.0514,0 -0.0514,-0.0672 0,-0.0711 0.0158,-0.083 0.0198,-0.0158 0.0514,-0.0277 0.0316,-0.0158 0.079,-0.0632 0.0514,-0.0514 0.10669,-0.18178 0.0553,-0.13436 0.0553,-0.26872 v -2.63582 h -4.4813 v 2.63582 q 0,0.28848 0.18969,0.47817 0.0158,0.0158 0.0672,0.0395 0.0514,0.0237 0.0514,0.0988 0,0.0751 -0.0514,0.0751 h -1.28037 q -0.0514,0 -0.0514,-0.0672 0,-0.0711 0.0158,-0.083 0.0198,-0.0158 0.0514,-0.0277 0.0316,-0.0158 0.079,-0.0632 0.0514,-0.0514 0.1067,-0.18178 0.0553,-0.13436 0.0553,-0.26872 v -5.08986 q 0,-0.28848 -0.18968,-0.47816 -0.0158,-0.0158 -0.0672,-0.0395 -0.0514,-0.0237 -0.0514,-0.0988 0,-0.0751 0.0514,-0.0751 z"
       id="text11"
       transform="scale(0.69773854,1.4332016)"
       aria-label="CONGREGATIONAL CHURCH" /><path
       style="font-size:10.0171px;line-height:1;font-family:'Della Respira';-inkscape-font-specification:'Della Respira';text-align:center;letter-spacing:0.278252px;text-anchor:middle;fill:#ffffff;stroke-width:0;stroke-linecap:round;paint-order:fill markers stroke"
       d="m 174.63176,132.50968 q -0.14674,-0.0342 -0.32282,-0.088 -0.17608,-0.0587 -0.22499,-0.0587 h -0.0587 q -0.17119,0 -0.26412,0.19564 -0.005,0.01 -0.01,0.01 h -0.14185 q -0.0293,0 -0.0342,-0.0244 l -0.42064,-1.44289 q -0.0245,-0.10272 0.14674,-0.10272 0.0685,0 0.0929,0.0293 0.0245,0.0245 0.0342,0.0342 0.01,0.01 0.044,0.0685 0.64563,0.79726 1.89288,0.79726 0.65542,0 1.08584,-0.34238 0.43531,-0.34727 0.43531,-1.01736 0,-0.44999 -0.14673,-0.67009 -0.14185,-0.22499 -0.23478,-0.33749 -0.19565,-0.23967 -0.9391,-0.66031 -0.73857,-0.42064 -1.19834,-0.75324 -1.17388,-0.84617 -1.17388,-1.74125 0,-0.89508 0.5576,-1.3842 0.56248,-0.48911 1.48691,-0.48911 0.51846,0 1.09562,0.27879 0.27391,0.13206 0.40108,0.17608 0.12717,0.044 0.17608,-0.0489 0.0489,-0.0978 0.0587,-0.0978 0.2201,-0.0245 0.2201,0.0685 l 0.14674,1.57007 q 0,0.044 -0.225,0.044 -0.0342,0 -0.0587,-0.088 -0.15163,-0.4989 -0.70922,-0.82661 -0.55759,-0.3326 -1.11518,-0.3326 -1.18366,0 -1.18366,0.97823 0,0.70922 1.28148,1.41355 l 0.92932,0.4989 q 0.85595,0.47444 1.19834,1.02714 0.34727,0.54781 0.34727,1.17388 v 0.0489 q -0.12228,0.84128 -0.29347,1.14454 -0.28369,0.49889 -0.80704,0.80215 -0.52336,0.29836 -1.18856,0.29836 -0.36683,-0.0147 -0.60161,-0.0734 z m 10.54969,-6.61774 h -0.0391 q -0.40108,0.94399 -1.2717,3.17925 -0.86574,2.23526 -1.40377,3.43849 -0.0245,0.0587 -0.23966,0.0587 -0.21521,0 -0.24456,-0.0587 0,0 -0.73857,-1.51626 l -1.28148,-2.7684 q 0,0 -1.29616,-2.92002 -0.19075,-0.4451 -0.37662,-0.53314 -0.0636,-0.0294 -0.0636,-0.12228 0,-0.0929 0.0636,-0.0929 h 1.7706 q 0.0636,0 0.0636,0.088 0,0.0832 -0.0245,0.10272 -0.0196,0.0147 -0.0587,0.0342 -0.0391,0.0147 -0.0636,0.0391 -0.26901,0.26902 -0.15162,0.60651 l 2.47982,5.52701 h 0.0342 l 2.12766,-5.52701 q 0.01,-0.0342 0.0391,-0.1125 0.0293,-0.0783 0.0391,-0.1076 0.01,-0.0342 0.0293,-0.0929 0.0196,-0.0587 0.0196,-0.088 v -0.0783 q 0,-0.11249 -0.10272,-0.15651 -0.10271,-0.0489 -0.10271,-0.0978 0,-0.13695 0.0636,-0.13695 h 1.61897 q 0.0636,0 0.0636,0.088 0,0.0832 -0.0245,0.10272 -0.0196,0.0147 -0.0587,0.0342 -0.0391,0.0147 -0.0734,0.0489 -0.0293,0.0293 -0.044,0.0734 -0.01,0.044 0.005,0.1125 0.0147,0.0978 0.0783,0.25434 l 0.0587,0.15652 2.47982,5.52701 h 0.0342 l 2.13744,-5.52701 q 0.11738,-0.33749 -0.15163,-0.60651 -0.0196,-0.0196 -0.0832,-0.0489 -0.0636,-0.0294 -0.0636,-0.12228 0,-0.0929 0.0636,-0.0929 h 1.54072 q 0.0636,0 0.0636,0.088 0,0.0832 -0.0245,0.10272 -0.0196,0.0147 -0.0587,0.0342 -0.16141,0.0734 -0.35705,0.52336 -0.52825,1.18855 -1.46246,3.59011 -0.93421,2.39667 -1.47713,3.61457 -0.0245,0.0587 -0.23967,0.0587 -0.21521,0 -0.24456,-0.0587 l -1.11518,-2.30863 z m 11.53227,-0.28858 v 6.10906 q 0,0.35706 0.23478,0.59183 0.0196,0.0196 0.0832,0.0489 0.0636,0.0293 0.0636,0.12228 0,0.0929 -0.0636,0.0929 h -1.58474 q -0.0636,0 -0.0636,-0.0831 0,-0.088 0.0196,-0.10271 0.0244,-0.0196 0.0636,-0.0342 0.0391,-0.0196 0.0978,-0.0783 0.0636,-0.0636 0.13206,-0.22499 0.0685,-0.1663 0.0685,-0.3326 v -6.29982 q 0,-0.35705 -0.23477,-0.59183 -0.0196,-0.0196 -0.0831,-0.0489 -0.0636,-0.0294 -0.0636,-0.12228 0,-0.0929 0.0636,-0.0929 h 2.67057 q 0.66031,0 1.22769,0.25923 0.57226,0.25434 0.92932,0.75813 0.35705,0.4989 0.35705,1.19345 0,0.69454 -0.32282,1.16409 -0.63585,0.90976 -2.62655,0.90487 h -0.65542 q -0.0636,0 -0.0636,-0.13695 v -0.41086 q 0,-0.13695 0.0636,-0.13695 h 0.65542 q 2.02005,0 2.02005,-1.43312 0,-0.52335 -0.30325,-0.81682 -0.4989,-0.48422 -1.26192,-0.5527 h -1.12497 q -0.1076,0 -0.20543,0.088 -0.0929,0.0832 -0.0929,0.1663 z m 4.20096,6.21667 q 0,0 3.21839,-7.20469 0.0245,-0.0587 0.23967,-0.0587 0.21521,0 0.24455,0.0587 l 3.31621,7.20469 q 0.19076,0.44509 0.37662,0.53313 0.0636,0.0293 0.0636,0.12228 0,0.0929 -0.0636,0.0929 h -1.7706 q -0.0636,0 -0.0636,-0.0831 0,-0.088 0.0196,-0.10271 0.0245,-0.0196 0.0636,-0.0342 0.0391,-0.0196 0.0636,-0.044 0.18587,-0.18586 0.18587,-0.34238 0,-0.16141 -0.0342,-0.26412 l -0.70922,-1.67767 h -3.52653 l -0.69454,1.67767 q -0.0342,0.10271 -0.0342,0.15651 v 0.0538 q 0,0.005 0,0.01 0,0.20054 0.18586,0.3864 0.0196,0.0196 0.0831,0.0489 0.0636,0.0293 0.0636,0.12228 0,0.0929 -0.0636,0.0929 h -1.54071 q -0.0636,0 -0.0636,-0.0831 0,-0.088 0.0196,-0.10271 0.0245,-0.0196 0.0636,-0.0391 0.16141,-0.0685 0.35705,-0.52335 z m 1.97114,-2.57765 q -0.01,0.0147 -0.005,0.0391 0.005,0.0196 0.0196,0.0196 h 2.79285 q 0.0147,0 0.0196,-0.0196 0.005,-0.0245 -0.005,-0.0391 l -1.41354,-3.07165 h -0.0342 z m 8.03075,-3.88358 q -0.10272,0 -0.17608,0.0734 -0.0734,0.0685 -0.0734,0.17119 v 6.10906 q 0,0.35706 0.23478,0.59183 0.0196,0.0196 0.0831,0.0489 0.0636,0.0293 0.0636,0.12228 0,0.0929 -0.0636,0.0929 h -1.58474 q -0.0636,0 -0.0636,-0.0831 0,-0.088 0.0196,-0.10271 0.0245,-0.0196 0.0636,-0.0342 0.0391,-0.0196 0.0978,-0.0783 0.0636,-0.0636 0.13206,-0.22499 0.0685,-0.1663 0.0685,-0.3326 v -6.29982 q 0,-0.35705 -0.23477,-0.59183 -0.0196,-0.0196 -0.0832,-0.0489 -0.0636,-0.0294 -0.0636,-0.11739 0,-0.088 0.0636,-0.088 h 2.50917 q 1.07605,0.01 1.79994,0.46466 0.72879,0.44999 0.72879,1.46735 0,1.19834 -1.25214,1.75593 -0.45977,0.20543 -0.69944,0.22988 -0.23966,0.0196 -0.23966,0.0342 l 0.15651,0.088 q 0.0978,0.0587 0.40108,0.29836 0.30325,0.23967 0.60161,0.54292 0.29836,0.29836 0.70922,0.8315 0.41086,0.53314 0.6065,0.87063 l 0.40108,0.71411 q 0.2201,0.40107 0.36684,0.4402 0.14673,0.0391 0.14673,0.15163 0,0.11249 -0.0636,0.11249 h -1.58474 q -0.0636,0 -0.0636,-0.0831 0,-0.088 0.0196,-0.10271 0.0245,-0.0196 0.0636,-0.0342 0.0391,-0.0196 0.0636,-0.0489 0.0293,-0.0293 0.0245,-0.1125 0,-0.088 -0.0196,-0.13695 -0.35705,-0.91954 -0.97334,-1.75103 -1.14453,-1.54561 -1.97114,-1.663 -0.11739,-0.0196 -0.11739,-0.0245 -0.01,-0.088 -0.01,-0.23966 v -0.29836 q 0,-0.0489 0.0489,-0.0489 1.20323,0 1.87821,-0.48422 0.51846,-0.36684 0.51846,-0.98801 0,-0.62118 -0.4989,-0.90487 -0.4989,-0.28858 -1.12986,-0.28858 z m 7.74705,2.63634 3.09122,3.82489 q 0.13695,0.18586 0.30325,0.3326 0.1663,0.14184 0.18097,0.15651 0.0147,0.0147 0.0783,0.044 0.0636,0.0293 0.0636,0.12228 0,0.0929 -0.0636,0.0929 h -1.7706 q -0.0636,0 -0.0636,-0.0831 0,-0.088 0.0196,-0.10271 0.0245,-0.0196 0.0636,-0.0391 0.18097,-0.0783 0.15162,-0.23477 -0.0245,-0.16141 -0.21032,-0.41086 l -2.49449,-3.08633 h -0.0832 v 3.101 q 0,0.35706 0.23477,0.59183 0.0196,0.0196 0.0832,0.0489 0.0636,0.0293 0.0636,0.12228 0,0.0929 -0.0636,0.0929 h -1.58473 q -0.0636,0 -0.0636,-0.0831 0,-0.088 0.0196,-0.10271 0.0245,-0.0196 0.0636,-0.0342 0.0391,-0.0196 0.0978,-0.0783 0.0636,-0.0636 0.13206,-0.22499 0.0685,-0.1663 0.0685,-0.3326 v -6.29982 q 0,-0.35705 -0.23477,-0.59183 -0.0196,-0.0196 -0.0831,-0.0489 -0.0636,-0.0294 -0.0636,-0.12228 0,-0.0929 0.0636,-0.0929 h 1.58473 q 0.0636,0 0.0636,0.088 0,0.0832 -0.0245,0.10272 -0.0196,0.0147 -0.0587,0.0342 -0.0391,0.0147 -0.10271,0.0783 -0.0587,0.0587 -0.12717,0.225 -0.0685,0.1614 -0.0685,0.3277 v 2.04451 h 0.0832 l 2.2157,-2.11298 q 0.31303,-0.29836 0.33259,-0.32282 0.13207,-0.15652 -0.0782,-0.24945 -0.0636,-0.0294 -0.0636,-0.12228 0,-0.0929 0.0636,-0.0929 h 1.54071 q 0.0636,0 0.0636,0.088 0,0.088 -0.0147,0.10761 -0.01,0.0147 -0.12228,0.0636 -0.11249,0.044 -0.36194,0.30325 l -2.92492,2.79775 z m 10.65187,-0.55759 q 0,0.13695 -0.0636,0.13695 h -0.58694 q -0.57226,0 -1.08583,0.37173 -0.89509,0.65052 -0.89998,1.72658 0,0.4402 0.2201,0.85595 0.22011,0.41086 0.56738,0.70922 0.34727,0.29347 0.79237,0.47444 0.44998,0.17608 0.81682,0.17608 0.36684,0 0.62118,-0.0783 0.25434,-0.0782 0.43042,-0.20542 0.18097,-0.12717 0.32771,-0.29837 0.24945,-0.29346 0.36684,-0.65541 0.12227,-0.36684 0.11738,-0.57227 0,-0.21032 -0.18586,-0.22988 h -1.65321 q -0.5527,0 -0.67987,0.0978 -0.12228,0.0929 -0.17609,0.1663 -0.0489,0.0734 -0.0783,0.0734 -0.0245,0 -0.0978,-0.0245 -0.0685,-0.0245 -0.0685,-0.044 0,-0.0196 0.0685,-0.17119 l 0.15652,-0.36194 q 0.088,-0.20543 0.12228,-0.32282 0.0342,-0.12228 0.0832,-0.13695 h 4.539 q 0.35216,0 0.58694,-0.23478 0.0196,-0.0196 0.0489,-0.0831 0.0342,-0.0636 0.12228,-0.0636 0.0929,0 0.0929,0.0685 -0.0831,0.57227 -0.21032,0.91465 -0.044,0.1125 -0.17608,0.12228 -0.29347,0.0196 -0.79726,-0.005 -0.50379,-0.0293 -0.76302,0 -0.25924,0.0293 -0.25924,0.18097 0,0.67987 -0.3864,1.40865 -0.69454,1.31084 -2.34776,1.31084 -0.52335,0 -1.07605,-0.21521 -0.5527,-0.21522 -0.96356,-0.59673 -0.40597,-0.38151 -0.64563,-0.9391 -0.23967,-0.56248 -0.23967,-1.08584 0,-0.52824 0.0978,-0.88041 0.17608,-0.63585 0.5527,-1.03692 0.37662,-0.40108 0.86574,-0.73368 v -0.0293 q -0.44999,-0.35217 -0.57716,-0.60651 -0.12717,-0.25923 -0.12717,-0.6065 0,-0.72879 0.45488,-1.18366 0.45977,-0.45488 1.15431,-0.45488 0.24456,0 0.6114,0.13206 0.0734,0.0294 0.16141,-0.0293 0.088,-0.0587 0.18586,-0.0587 0.10272,0 0.15163,0.0929 0.0196,0.0147 0.0147,0.10271 -0.005,0.1125 0.11739,0.65053 l 0.12228,0.53314 q 0.0489,0.21521 0.0489,0.2739 0,0.0294 -0.12717,0.0929 -0.12228,0.0587 -0.14184,0.0245 l -0.32282,-0.70922 q -0.24456,-0.43042 -0.72389,-0.43042 -0.47444,0 -0.72879,0.25434 -0.25434,0.24945 -0.25434,0.69454 0,0.24945 0.17609,0.46466 0.36683,0.4451 0.99779,0.4451 h 0.58694 q 0.0636,0 0.0636,0.13695 z m 9.747,-2.42113 q -0.30815,-0.10271 -0.48423,-0.10271 -0.26412,0 -0.42064,0.0293 -0.15652,0.0245 -0.17119,0 -0.0147,-0.0245 -0.0147,-0.0734 0,-0.0489 0.0342,-0.10272 0.0342,-0.0538 0.0831,-0.0636 0.72878,-0.1663 1.99559,-0.1663 l 2.45536,4.01075 h 0.0489 l 2.34776,-4.01075 q 1.26681,0 1.9956,0.1663 0.11738,0.0245 0.11738,0.18097 0,0.088 -0.15651,0.0636 -0.15652,-0.0293 -0.41575,-0.0293 -0.25923,0 -0.5527,0.11249 l 0.93421,6.68133 q 0.0685,0.52336 0.31792,0.64074 0.0636,0.0293 0.0636,0.12228 0,0.0929 -0.0636,0.0929 h -1.62875 q -0.0636,0 -0.0636,-0.0831 0,-0.088 0.0196,-0.10271 0.0245,-0.0196 0.0636,-0.0391 0.12717,-0.0538 0.2201,-0.28369 0.0978,-0.23477 0.0978,-0.31792 0,-0.088 -0.005,-0.11739 l -0.78748,-5.8107 h -0.0245 l -2.41623,4.22596 q -0.0147,0.0245 -0.18097,0.0196 -0.16141,-0.005 -0.17119,-0.0196 l -2.51895,-4.22596 h -0.044 l -0.719,5.8107 q -0.0245,0.15652 0.0636,0.37173 0.088,0.21032 0.14674,0.26901 0.0587,0.0587 0.12228,0.088 0.0636,0.0293 0.0636,0.12228 0,0.0929 -0.0636,0.0929 h -1.49181 q -0.0636,0 -0.0636,-0.0831 0,-0.088 0.0196,-0.10271 0.0245,-0.0196 0.0636,-0.0391 0.22988,-0.0978 0.29836,-0.63096 z m 9.67906,6.80361 q 0,0 3.21839,-7.20469 0.0245,-0.0587 0.23966,-0.0587 0.21521,0 0.24456,0.0587 l 3.31621,7.20469 q 0.19075,0.44509 0.37662,0.53313 0.0636,0.0293 0.0636,0.12228 0,0.0929 -0.0636,0.0929 h -1.7706 q -0.0636,0 -0.0636,-0.0831 0,-0.088 0.0196,-0.10271 0.0245,-0.0196 0.0636,-0.0342 0.0391,-0.0196 0.0636,-0.044 0.18586,-0.18586 0.18586,-0.34238 0,-0.16141 -0.0342,-0.26412 l -0.70922,-1.67767 h -3.52652 l -0.69455,1.67767 q -0.0342,0.10271 -0.0342,0.15651 v 0.0538 q 0,0.005 0,0.01 0,0.20054 0.18587,0.3864 0.0196,0.0196 0.0832,0.0489 0.0636,0.0293 0.0636,0.12228 0,0.0929 -0.0636,0.0929 h -1.54072 q -0.0636,0 -0.0636,-0.0831 0,-0.088 0.0196,-0.10271 0.0245,-0.0196 0.0636,-0.0391 0.1614,-0.0685 0.35705,-0.52335 z m 1.97114,-2.57765 q -0.01,0.0147 -0.005,0.0391 0.005,0.0196 0.0196,0.0196 h 2.79286 q 0.0147,0 0.0196,-0.0196 0.005,-0.0245 -0.005,-0.0391 l -1.41355,-3.07165 h -0.0342 z m 8.97474,3.32599 h -2.46026 q -0.0636,0 -0.0636,-0.0831 0,-0.088 0.0196,-0.10271 0.0245,-0.0196 0.0636,-0.0342 0.0391,-0.0196 0.0978,-0.0783 0.0636,-0.0636 0.13206,-0.22499 0.0685,-0.1663 0.0685,-0.3326 v -6.29982 q 0,-0.35705 -0.23478,-0.59183 -0.0196,-0.0196 -0.0831,-0.0489 -0.0636,-0.0294 -0.0636,-0.12228 0,-0.0929 0.0636,-0.0929 h 2.2157 q 1.19344,0 2.28417,0.64563 0.7728,0.45977 1.28149,1.30105 0.50868,0.83639 0.50868,2.03473 0,0.76302 -0.28369,1.4918 -0.28369,0.72389 -0.7777,1.28638 -0.48911,0.56248 -1.2179,0.90975 -0.72389,0.34238 -1.55049,0.34238 z m -1.19345,-0.94888 q 0,0.18097 0.29836,0.18097 h 0.54781 q 1.98582,-0.005 2.75862,-1.35485 0.44999,-0.78748 0.44999,-1.90755 0,-1.36464 -0.75324,-2.25483 -0.37662,-0.44509 -1.00269,-0.69454 -0.62607,-0.25434 -1.44289,-0.25434 h -0.75324 q -0.0391,0 -0.0734,0.0293 -0.0293,0.0293 -0.0293,0.0734 z m 6.26015,-7.06284 h 1.58473 q 0.0636,0 0.0636,0.088 0,0.0832 -0.0245,0.10272 -0.0196,0.0147 -0.0587,0.0342 -0.0391,0.0147 -0.10272,0.0783 -0.0587,0.0587 -0.12717,0.225 -0.0685,0.1614 -0.0685,0.3277 v 6.29982 q 0,0.35706 0.23477,0.59183 0.0196,0.0196 0.0831,0.0489 0.0636,0.0293 0.0636,0.12228 0,0.0929 -0.0636,0.0929 h -1.58473 q -0.0636,0 -0.0636,-0.0831 0,-0.088 0.0196,-0.10271 0.0245,-0.0196 0.0636,-0.0342 0.0391,-0.0196 0.0978,-0.0783 0.0636,-0.0636 0.13207,-0.22499 0.0685,-0.1663 0.0685,-0.3326 v -6.29982 q 0,-0.35705 -0.23477,-0.59183 -0.0196,-0.0196 -0.0832,-0.0489 -0.0636,-0.0294 -0.0636,-0.12228 0,-0.0929 0.0636,-0.0929 z m 4.28411,7.95303 q -0.14673,-0.0342 -0.32281,-0.088 -0.17609,-0.0587 -0.225,-0.0587 h -0.0587 q -0.17119,0 -0.26412,0.19564 -0.005,0.01 -0.01,0.01 h -0.14184 q -0.0293,0 -0.0342,-0.0244 l -0.42064,-1.44289 q -0.0245,-0.10272 0.14674,-0.10272 0.0685,0 0.0929,0.0293 0.0245,0.0245 0.0342,0.0342 0.01,0.01 0.044,0.0685 0.64563,0.79726 1.89288,0.79726 0.65541,0 1.08583,-0.34238 0.43532,-0.34727 0.43532,-1.01736 0,-0.44999 -0.14674,-0.67009 -0.14184,-0.22499 -0.23477,-0.33749 -0.19565,-0.23967 -0.93911,-0.66031 -0.73856,-0.42064 -1.19833,-0.75324 -1.17388,-0.84617 -1.17388,-1.74125 0,-0.89508 0.55759,-1.3842 0.56249,-0.48911 1.48692,-0.48911 0.51846,0 1.09562,0.27879 0.2739,0.13206 0.40107,0.17608 0.12717,0.044 0.17608,-0.0489 0.0489,-0.0978 0.0587,-0.0978 0.2201,-0.0245 0.2201,0.0685 l 0.14673,1.57007 q 0,0.044 -0.22499,0.044 -0.0342,0 -0.0587,-0.088 -0.15163,-0.4989 -0.70922,-0.82661 -0.55759,-0.3326 -1.11519,-0.3326 -1.18366,0 -1.18366,0.97823 0,0.70922 1.28149,1.41355 l 0.92932,0.4989 q 0.85595,0.47444 1.19833,1.02714 0.34728,0.54781 0.34728,1.17388 v 0.0489 q -0.12228,0.84128 -0.29347,1.14454 -0.28369,0.49889 -0.80705,0.80215 -0.52335,0.29836 -1.18855,0.29836 -0.36684,-0.0147 -0.60161,-0.0734 z m 7.26773,-0.7728 q 0.47933,0.19075 0.9391,0.19075 1.56517,0 2.4896,-0.91464 0.92932,-0.91954 0.92932,-2.46515 0,-0.53314 -0.2739,-1.12008 -0.26902,-0.58694 -0.72389,-1.07116 -0.45488,-0.48912 -1.11519,-0.80704 -0.65541,-0.31793 -1.48691,-0.31793 -0.8315,0 -1.57006,0.42064 -0.73857,0.42064 -1.13965,1.1641 -0.40107,0.74345 -0.40107,1.72658 0,0.97823 0.71411,1.90266 0.719,0.92443 1.63854,1.29127 z m -2.0494,-0.22989 q -0.54781,-0.57226 -0.87063,-1.35485 -0.32281,-0.78748 -0.32281,-1.62387 0,-0.84128 0.33749,-1.59941 0.34238,-0.76302 0.89997,-1.31572 0.56249,-0.55759 1.32062,-0.89019 0.76302,-0.3326 1.51136,-0.3326 0.74835,0 1.39888,0.19565 1.28637,0.3864 2.14233,1.44289 0.86084,1.0516 0.86084,2.47493 0,0.83639 -0.30325,1.59941 -0.30325,0.76302 -0.85106,1.35485 -0.54292,0.58694 -1.37442,0.9391 -0.82661,0.35217 -1.74615,0.35217 -0.91953,0 -1.68745,-0.33749 -0.76791,-0.33749 -1.31572,-0.90487 z m 9.79156,-6.95034 q 0.044,0 0.0831,0.0391 l 5.46832,5.80092 h 0.0342 v -4.9841 q 0,-0.35216 -0.23967,-0.59183 -0.0196,-0.0196 -0.0831,-0.0489 -0.0636,-0.0294 -0.0636,-0.12228 0,-0.0929 0.0636,-0.0929 h 1.59941 q 0.0636,0 0.0636,0.088 0,0.0832 -0.0245,0.10272 -0.0196,0.0147 -0.0587,0.0342 -0.0391,0.0147 -0.10271,0.0783 -0.0636,0.0636 -0.13695,0.225 -0.0685,0.1614 -0.0685,0.3277 v 6.89654 q 0,0.18098 -0.0489,0.22011 -0.044,0.0391 -0.14674,0.0391 -0.10271,0 -0.16629,-0.0587 l -6.1482,-6.52481 v 5.72755 q 0,0.37662 0.21522,0.59183 0.0196,0.0196 0.0831,0.0489 0.0636,0.0293 0.0636,0.12228 0,0.0929 -0.0636,0.0929 h -1.57496 q -0.0636,0 -0.0636,-0.0831 0,-0.088 0.0196,-0.10271 0.0245,-0.0196 0.0636,-0.0342 0.0391,-0.0196 0.0636,-0.044 0.24456,-0.24456 0.24456,-0.59183 v -6.29982 q 0,-0.36194 -0.22989,-0.59183 -0.0196,-0.0196 -0.0831,-0.0489 -0.0636,-0.0294 -0.0636,-0.12228 0,-0.0929 0.0636,-0.0929 z"
       id="text13"
       transform="scale(0.73774299,1.3554856)"
       aria-label="SW PARK &amp; MADISON"
       inkscape:label="sw park" /><path
       d="m 137.58546,147.65254 q 0,-0.33022 -0.23254,-0.56276 -0.0186,-0.0186 -0.0791,-0.0465 -0.0605,-0.0279 -0.0605,-0.11627 0,-0.0884 0.0605,-0.0884 h 1.5627 q 0.0605,0 0.0605,0.0837 0,0.0791 -0.0232,0.0977 -0.0186,0.014 -0.0558,0.0326 -0.0372,0.014 -0.0977,0.0744 -0.0558,0.0558 -0.12093,0.21394 -0.0651,0.15348 -0.0651,0.31161 v 3.85557 q 0,1.07436 0.66043,1.66967 0.66507,0.59066 1.62315,0.59066 0.56276,0 1.05575,-0.2837 0.49765,-0.28836 0.786,-0.7581 0.29301,-0.47438 0.29301,-1.00458 v -4.06952 q 0,-0.33952 -0.22324,-0.56276 -0.0186,-0.0186 -0.0791,-0.0465 -0.0605,-0.0279 -0.0605,-0.11627 0,-0.0884 0.0605,-0.0884 h 1.45107 q 0.0605,0 0.0605,0.0837 0,0.0791 -0.0233,0.0977 -0.0186,0.014 -0.0558,0.0326 -0.0372,0.014 -0.0977,0.0744 -0.0558,0.0558 -0.12092,0.21394 -0.0651,0.15348 -0.0651,0.31161 v 4.06952 q 0,0.79995 -0.41393,1.46967 -0.40928,0.66973 -1.10226,1.0511 -0.68833,0.38137 -1.53014,0.38137 -0.83716,0 -1.56734,-0.39067 -0.72554,-0.39067 -1.16272,-1.10691 -0.43719,-0.72089 -0.43719,-1.61851 z m 11.729,6.27403 q 1.0511,0 1.87896,-0.47439 0.8325,-0.47439 1.36736,-1.27434 0.0605,-0.0977 0.0884,-0.0605 0.0326,0.0372 0.0791,0.10232 l 0.14417,0.20929 q 0.0698,0.11627 0.0512,0.14418 -0.27905,0.5674 -0.93482,1.11156 -1.21388,1.01389 -2.67426,1.01389 -0.84646,0 -1.58595,-0.32556 -0.73949,-0.33022 -1.24643,-0.87902 -0.50695,-0.5488 -0.79995,-1.28364 -0.28836,-0.73949 -0.28836,-1.53014 0,-0.79065 0.31161,-1.51154 0.31626,-0.72553 0.84181,-1.25108 0.52555,-0.5302 1.24643,-0.84646 0.72089,-0.32091 1.45573,-0.32091 0.87436,0 1.76268,0.33951 l 0.21394,0.0791 q 0.0465,0.0186 0.13023,-0.0372 0.0837,-0.0558 0.17673,-0.0558 0.093,0 0.14418,0.0884 0.0186,0.014 0.0139,0.0977 -0.009,0.13488 0.11162,0.61857 l 0.11627,0.5116 q 0.0465,0.19998 0.0465,0.25579 0,0.0279 -0.12092,0.0884 -0.11627,0.0558 -0.13488,0.0233 -0.38602,-0.67438 -0.97203,-0.93018 -0.58136,-0.2558 -1.45572,-0.2558 -0.86972,0 -1.572,0.39533 -0.70228,0.39532 -1.08366,1.10225 -0.38137,0.70229 -0.38137,1.59526 0,0.58601 0.26975,1.18597 0.26975,0.59531 0.69298,1.0511 0.42788,0.45113 0.99064,0.73949 0.56276,0.2837 1.11621,0.2837 z m 8.48269,0 q 1.0511,0 1.87895,-0.47439 0.83251,-0.47439 1.36736,-1.27434 0.0605,-0.0977 0.0884,-0.0605 0.0325,0.0372 0.0791,0.10232 l 0.14418,0.20929 q 0.0698,0.11627 0.0512,0.14418 -0.27905,0.5674 -0.93483,1.11156 -1.21388,1.01389 -2.67425,1.01389 -0.84646,0 -1.58595,-0.32556 -0.73949,-0.33022 -1.24644,-0.87902 -0.50694,-0.5488 -0.79995,-1.28364 -0.28835,-0.73949 -0.28835,-1.53014 0,-0.79065 0.3116,-1.51154 0.31626,-0.72553 0.84181,-1.25108 0.52555,-0.5302 1.24644,-0.84646 0.72089,-0.32091 1.45572,-0.32091 0.87437,0 1.76269,0.33951 l 0.21394,0.0791 q 0.0465,0.0186 0.13022,-0.0372 0.0837,-0.0558 0.17674,-0.0558 0.093,0 0.14417,0.0884 0.0186,0.014 0.014,0.0977 -0.009,0.13488 0.11162,0.61857 l 0.11627,0.5116 q 0.0465,0.19998 0.0465,0.25579 0,0.0279 -0.12093,0.0884 -0.11627,0.0558 -0.13487,0.0233 -0.38602,-0.67438 -0.97203,-0.93018 -0.58136,-0.2558 -1.45573,-0.2558 -0.86971,0 -1.572,0.39533 -0.70228,0.39532 -1.08365,1.10225 -0.38137,0.70229 -0.38137,1.59526 0,0.58601 0.26975,1.18597 0.26975,0.59531 0.69298,1.0511 0.42788,0.45113 0.99064,0.73949 0.56275,0.2837 1.11621,0.2837 z m 4.92011,-6.21357 q -0.19999,-0.18139 -0.12092,-0.28836 l 0.5209,-0.56275 q 0.0605,-0.0512 0.12092,0 l 0.5395,0.56275 q 0.0512,0.0744 0,0.14418 0,0 -0.30696,0.33021 l -0.84646,1.01389 q -0.0977,0.11628 -0.26975,-0.0651 -0.0325,-0.0326 0.17208,-0.30231 0.20929,-0.2744 0.27441,-0.36741 0.13022,-0.18139 0.009,-0.38138 -0.009,-0.005 -0.093,-0.0837 z m 3.35742,6.68796 q -0.13953,-0.0325 -0.30696,-0.0837 -0.16743,-0.0558 -0.21394,-0.0558 h -0.0558 q -0.16278,0 -0.25115,0.18604 -0.005,0.009 -0.009,0.009 h -0.13488 q -0.0279,0 -0.0326,-0.0233 l -0.39998,-1.37201 q -0.0232,-0.0977 0.13953,-0.0977 0.0651,0 0.0884,0.0279 0.0233,0.0232 0.0326,0.0326 0.009,0.009 0.0419,0.0651 0.61391,0.7581 1.79989,0.7581 0.62322,0 1.03249,-0.32556 0.41393,-0.33022 0.41393,-0.96739 0,-0.42788 -0.13952,-0.63717 -0.13488,-0.21394 -0.22325,-0.32091 -0.18603,-0.22789 -0.89297,-0.62787 -0.70228,-0.39997 -1.13946,-0.71623 -1.11621,-0.8046 -1.11621,-1.65572 0,-0.85111 0.5302,-1.31619 0.53485,-0.46509 1.41387,-0.46509 0.49299,0 1.04179,0.2651 0.26045,0.12557 0.38137,0.16743 0.12093,0.0419 0.16744,-0.0465 0.0465,-0.093 0.0558,-0.093 0.20929,-0.0233 0.20929,0.0651 l 0.13952,1.49293 q 0,0.0419 -0.21394,0.0419 -0.0326,0 -0.0558,-0.0837 -0.14418,-0.47439 -0.67438,-0.786 -0.5302,-0.31626 -1.0604,-0.31626 -1.12551,0 -1.12551,0.93018 0,0.67437 1.21853,1.3441 l 0.88367,0.47439 q 0.8139,0.45114 1.13946,0.97669 0.33022,0.52089 0.33022,1.11621 v 0.0465 q -0.11628,0.79995 -0.27906,1.0883 -0.26975,0.47439 -0.76739,0.76274 -0.49765,0.28371 -1.13016,0.28371 -0.34882,-0.0139 -0.57206,-0.0698 z m 6.69623,0.0558 q -0.0605,0 -0.0605,-0.0791 0,-0.0837 0.0186,-0.0977 0.0233,-0.0186 0.0605,-0.0326 0.0372,-0.0186 0.093,-0.0744 0.0605,-0.0605 0.12557,-0.21394 0.0651,-0.15813 0.0651,-0.31626 v -5.99033 q 0,-0.33952 -0.22325,-0.56276 -0.0186,-0.0186 -0.0791,-0.0465 -0.0605,-0.0279 -0.0605,-0.11627 0,-0.0884 0.0605,-0.0884 h 4.92993 q 0.0465,0 0.0791,0.12093 0.0325,0.11627 0.11627,0.33021 l 0.14883,0.37672 q 0.0651,0.16278 0.0651,0.18138 0,0.0186 -0.0698,0.0419 -0.0651,0.0233 -0.0884,0.0233 -0.0326,0 -0.0791,-0.0651 -0.0418,-0.0698 -0.16278,-0.16278 -0.11627,-0.093 -0.64647,-0.093 h -3.08818 v 2.30684 h 2.9347 q 0.33952,0 0.56276,-0.22324 0.0186,-0.0186 0.0465,-0.0791 0.0279,-0.0605 0.11627,-0.0605 0.0884,0 0.0884,0.0605 v 1.34876 q 0,0.0605 -0.0837,0.0605 -0.0791,0 -0.0977,-0.0186 -0.0139,-0.0233 -0.0326,-0.0605 -0.014,-0.0372 -0.0744,-0.093 -0.0558,-0.0605 -0.21394,-0.12093 -0.15348,-0.0605 -0.31161,-0.0605 h -2.9347 v 2.99052 q 0,0.33951 0.22324,0.56275 0.0186,0.0186 0.0791,0.0465 0.0605,0.0279 0.0605,0.11628 0,0.0884 -0.0605,0.0884 z m 6.51536,-7.61814 h 1.50689 q 0.0605,0 0.0605,0.0837 0,0.0791 -0.0233,0.0977 -0.0186,0.014 -0.0558,0.0326 -0.0372,0.014 -0.0977,0.0744 -0.0558,0.0558 -0.12092,0.21394 -0.0651,0.15348 -0.0651,0.31161 v 5.99033 q 0,0.33951 0.22324,0.56275 0.0186,0.0186 0.0791,0.0465 0.0605,0.0279 0.0605,0.11628 0,0.0884 -0.0605,0.0884 h -1.50689 q -0.0605,0 -0.0605,-0.0791 0,-0.0837 0.0186,-0.0977 0.0233,-0.0186 0.0605,-0.0326 0.0372,-0.0186 0.093,-0.0744 0.0605,-0.0605 0.12558,-0.21394 0.0651,-0.15813 0.0651,-0.31626 v -5.99033 q 0,-0.33952 -0.22324,-0.56276 -0.0186,-0.0186 -0.0791,-0.0465 -0.0605,-0.0279 -0.0605,-0.11627 0,-0.0884 0.0605,-0.0884 z m 4.49688,0.76275 q -0.0977,0 -0.16743,0.0698 -0.0698,0.0651 -0.0698,0.16278 v 5.80895 q 0,0.33951 0.22324,0.56275 0.0186,0.0186 0.0791,0.0465 0.0605,0.0279 0.0605,0.11628 0,0.0884 -0.0605,0.0884 h -1.50689 q -0.0605,0 -0.0605,-0.0791 0,-0.0837 0.0186,-0.0977 0.0233,-0.0186 0.0605,-0.0326 0.0372,-0.0186 0.093,-0.0744 0.0605,-0.0605 0.12558,-0.21394 0.0651,-0.15813 0.0651,-0.31626 v -5.99033 q 0,-0.33952 -0.22324,-0.56276 -0.0186,-0.0186 -0.0791,-0.0465 -0.0605,-0.0279 -0.0605,-0.11162 0,-0.0837 0.0605,-0.0837 h 2.3859 q 1.0232,0.009 1.71153,0.44184 0.69298,0.42788 0.69298,1.39526 0,1.13947 -1.19063,1.66967 -0.43718,0.19533 -0.66507,0.21859 -0.2279,0.0186 -0.2279,0.0326 l 0.14883,0.0837 q 0.093,0.0558 0.38137,0.2837 0.28836,0.2279 0.57206,0.51625 0.28371,0.2837 0.67438,0.79065 0.39067,0.50695 0.57671,0.82786 l 0.38137,0.67903 q 0.20929,0.38137 0.34882,0.41857 0.13952,0.0372 0.13952,0.14418 0,0.10697 -0.0605,0.10697 h -1.50688 q -0.0605,0 -0.0605,-0.0791 0,-0.0837 0.0186,-0.0977 0.0233,-0.0186 0.0605,-0.0326 0.0372,-0.0186 0.0605,-0.0465 0.0279,-0.0279 0.0233,-0.10697 0,-0.0837 -0.0186,-0.13022 -0.33951,-0.87437 -0.92552,-1.66502 -1.08831,-1.46967 -1.87431,-1.58129 -0.11162,-0.0186 -0.11162,-0.0233 -0.009,-0.0837 -0.009,-0.22789 v -0.28371 q 0,-0.0465 0.0465,-0.0465 1.14412,0 1.78594,-0.46044 0.49299,-0.34882 0.49299,-0.93948 0,-0.59066 -0.47439,-0.86041 -0.47439,-0.2744 -1.07435,-0.2744 z m 6.48281,6.79958 q -0.13953,-0.0325 -0.30696,-0.0837 -0.16743,-0.0558 -0.21394,-0.0558 h -0.0558 q -0.16278,0 -0.25115,0.18604 -0.005,0.009 -0.009,0.009 h -0.13487 q -0.0279,0 -0.0326,-0.0233 l -0.39997,-1.37201 q -0.0233,-0.0977 0.13952,-0.0977 0.0651,0 0.0884,0.0279 0.0232,0.0232 0.0325,0.0326 0.009,0.009 0.0419,0.0651 0.61392,0.7581 1.79989,0.7581 0.62322,0 1.0325,-0.32556 0.41393,-0.33022 0.41393,-0.96739 0,-0.42788 -0.13953,-0.63717 -0.13488,-0.21394 -0.22324,-0.32091 -0.18604,-0.22789 -0.89297,-0.62787 -0.70228,-0.39997 -1.13947,-0.71623 -1.11621,-0.8046 -1.11621,-1.65572 0,-0.85111 0.5302,-1.31619 0.53485,-0.46509 1.41387,-0.46509 0.49299,0 1.0418,0.2651 0.26045,0.12557 0.38137,0.16743 0.12092,0.0419 0.16743,-0.0465 0.0465,-0.093 0.0558,-0.093 0.20929,-0.0233 0.20929,0.0651 l 0.13953,1.49293 q 0,0.0419 -0.21394,0.0419 -0.0326,0 -0.0558,-0.0837 -0.14418,-0.47439 -0.67438,-0.786 -0.5302,-0.31626 -1.0604,-0.31626 -1.12551,0 -1.12551,0.93018 0,0.67437 1.21853,1.3441 l 0.88366,0.47439 q 0.81391,0.45114 1.13947,0.97669 0.33021,0.52089 0.33021,1.11621 v 0.0465 q -0.11627,0.79995 -0.27905,1.0883 -0.26975,0.47439 -0.7674,0.76274 -0.49764,0.28371 -1.13016,0.28371 -0.34882,-0.0139 -0.57206,-0.0698 z m 11.33833,-7.56233 q 0.0465,0 0.0791,0.12093 0.0326,0.11627 0.11627,0.33021 0,0 0.14883,0.37672 0.0651,0.16278 0.0651,0.18138 0,0.0186 -0.0698,0.0419 -0.0651,0.0233 -0.0837,0.0233 -0.0326,0 -0.0837,-0.0651 -0.0465,-0.0698 -0.16743,-0.16278 -0.11627,-0.093 -0.64182,-0.093 h -2.61845 v 6.0508 q 0,0.33951 0.22324,0.56275 0.0186,0.0186 0.0791,0.0465 0.0605,0.0279 0.0605,0.11628 0,0.0884 -0.0605,0.0884 h -1.50689 q -0.0605,0 -0.0605,-0.0791 0,-0.0837 0.0186,-0.0977 0.0233,-0.0186 0.0605,-0.0326 0.0372,-0.0186 0.093,-0.0744 0.0605,-0.0605 0.12558,-0.21394 0.0651,-0.15813 0.0651,-0.31626 v -6.0508 h -2.61844 q -0.65578,0 -0.79065,0.22325 -0.0651,0.093 -0.093,0.0977 -0.0279,0 -0.0977,-0.0233 -0.0651,-0.0232 -0.0651,-0.0419 0,-0.0186 0.0651,-0.18138 l 0.14883,-0.37672 q 0.0837,-0.20929 0.11162,-0.31626 0.0326,-0.11162 0.0837,-0.13488 z"
       id="text14"
       style="font-size:9.525px;line-height:1;font-family:'Della Respira';-inkscape-font-specification:'Della Respira';text-align:center;letter-spacing:0.264583px;text-anchor:middle;fill:#ffffff;stroke-width:0;stroke-linecap:round;paint-order:fill markers stroke"
       aria-label="UCC'S FIRST"
       inkscape:label="uccs" /><rect
       style="display:none;fill:#ffffff;fill-opacity:0.566929;stroke-width:0;stroke-linecap:round;paint-order:fill markers stroke"
       id="rect15"
       width="108.7515"
       height="60.136478"
       x="115.88144"
       y="136.51125"
       rx="0"
       ry="0" /></g></svg>
