<?xml version="1.0" encoding="UTF-8" standalone="no"?>
<!-- Created with Inkscape (http://www.inkscape.org/) -->

<svg
   width="108.7515mm"
   height="60.136478mm"
   viewBox="0 0 108.75151 60.136478"
   version="1.1"
   id="svg1"
   xml:space="preserve"
   inkscape:version="1.3 (0e150ed, 2023-07-21)"
   sodipodi:docname="homepage-banner-location.svg"
   inkscape:export-filename="homepage-banner-location.svg"
   inkscape:export-xdpi="300"
   inkscape:export-ydpi="300"
   xmlns:inkscape="http://www.inkscape.org/namespaces/inkscape"
   xmlns:sodipodi="http://sodipodi.sourceforge.net/DTD/sodipodi-0.dtd"
   xmlns:xlink="http://www.w3.org/1999/xlink"
   xmlns="http://www.w3.org/2000/svg"
   xmlns:svg="http://www.w3.org/2000/svg"><sodipodi:namedview
     id="namedview1"
     pagecolor="#ffffff"
     bordercolor="#000000"
     borderopacity="0.25"
     inkscape:showpageshadow="2"
     inkscape:pageopacity="0.0"
     inkscape:pagecheckerboard="0"
     inkscape:deskcolor="#d1d1d1"
     inkscape:document-units="mm"
     inkscape:zoom="1.8718731"
     inkscape:cx="224.37418"
     inkscape:cy="99.098598"
     inkscape:window-width="1872"
     inkscape:window-height="968"
     inkscape:window-x="1968"
     inkscape:window-y="25"
     inkscape:window-maximized="0"
     inkscape:current-layer="layer1" /><defs
     id="defs1"><linearGradient
       id="linearGradient1"
       inkscape:collect="always"><stop
         style="stop-color:#00285e;stop-opacity:1;"
         offset="0"
         id="stop1" /><stop
         style="stop-color:#00012b;stop-opacity:1;"
         offset="1"
         id="stop2" /></linearGradient><radialGradient
       inkscape:collect="always"
       xlink:href="#linearGradient1"
       id="radialGradient3"
       cx="169.77441"
       cy="166.62114"
       fx="169.77441"
       fy="166.62114"
       r="53.330948"
       gradientTransform="matrix(1,0,0,0.54657367,0,75.550412)"
       gradientUnits="userSpaceOnUse" /><filter
       inkscape:collect="always"
       style="color-interpolation-filters:sRGB"
       id="filter4"
       x="-0.019918585"
       y="-0.034454082"
       width="1.0415766"
       height="1.0708808"><feGaussianBlur
         inkscape:collect="always"
         stdDeviation="0.5938577"
         id="feGaussianBlur4" /></filter></defs><g
     inkscape:label="Layer 1"
     inkscape:groupmode="layer"
     id="layer1"
     transform="translate(-115.88144,-136.51125)"><rect
       style="display:none;opacity:1;fill:#2b1100;fill-opacity:1;stroke:none;stroke-width:0.600001;stroke-linecap:round;stroke-dasharray:none;stroke-opacity:1;paint-order:markers stroke fill"
       id="rect4"
       width="122.5477"
       height="72.086884"
       x="111.217"
       y="131.70546"
       transform="translate(-1.0416666e-6)" /><path
       style="display:inline;opacity:0.2;fill:none;stroke:#00aaff;stroke-width:1.4;stroke-dasharray:none;stroke-opacity:1;paint-order:markers fill stroke;filter:url(#filter4)"
       d="m 212.18009,195.34469 c 0.39648,-1.77052 0.22852,-4.52666 -0.35797,-5.87408 -0.39788,-0.91411 -0.44914,-1.38432 -0.16334,-1.49845 0.22906,-0.0915 0.72313,-0.56061 1.09793,-1.04255 0.43149,-0.55484 1.31284,-0.93787 2.40282,-1.04428 2.01346,-0.19654 2.4712,-0.46319 2.4712,-1.43956 0,-0.80964 2.55031,-3.70021 3.26511,-3.70074 0.25654,-1.9e-4 0.46644,-0.20151 0.46644,-0.44737 0,-0.24587 0.33584,-0.44703 0.74632,-0.44703 1.0181,0 0.94664,-0.78565 -0.0933,-1.0256 -0.83304,-0.19221 -0.83272,-0.1942 0.0414,-0.25459 l 0.88094,-0.0609 -0.865,-0.83909 c -0.63358,-0.61461 -1.2436,-0.77825 -2.28027,-0.61167 -0.87377,0.1404 -1.41527,0.0447 -1.41527,-0.25031 0,-0.30825 0.84069,-0.41193 2.3699,-0.2923 l 2.3699,0.1854 0.0686,-2.74015 c 0.0377,-1.50708 0.15738,-2.91218 0.26584,-3.1224 0.10845,-0.21023 -0.0794,-0.5094 -0.41748,-0.6648 -0.33807,-0.15541 -0.45807,-0.40545 -0.26666,-0.55563 0.51535,-0.40436 0.92778,-10.65598 0.44313,-11.01479 -0.27172,-0.20118 -0.26767,-0.46893 0.0133,-0.87441 0.34113,-0.49242 0.4218,-2.07221 0.33151,-6.49245 -0.007,-0.37103 0.0362,-0.87394 0.0974,-1.11755 0.0612,-0.24363 -0.0846,-1.09672 -0.32379,-1.89579 l -0.43495,-1.45282 h -3.13134 c -2.9934,0 -3.15041,-0.0501 -3.56439,-1.13859 -0.23817,-0.62623 -0.43305,-1.53146 -0.43305,-2.01162 0,-0.69017 -0.25399,-0.86969 -1.21276,-0.85718 -0.66701,0.009 -1.63255,0.30332 -2.14564,0.6547 -0.99065,0.67842 -4.47787,0.91901 -4.47787,0.30895 0,-0.19887 -0.24031,-0.75205 -0.53401,-1.22931 -0.51917,-0.8436 -0.54445,-0.83666 -0.90923,0.24982 -0.32546,0.96934 -0.38184,0.99899 -0.42511,0.22351 l -0.0499,-0.89404 -0.3207,0.89404 c -0.27423,0.76452 -0.3245,0.7807 -0.34692,0.11175 -0.0257,-0.767 -0.77254,-1.15218 -0.77254,-0.39844 0,0.59033 -4.05354,2.25872 -4.20091,1.72905 -0.0819,-0.29415 -0.41127,-0.27014 -0.93942,0.0685 -0.70295,0.45067 -0.78068,0.41941 -0.57256,-0.2303 0.20582,-0.64252 0.0623,-0.70898 -0.98793,-0.45736 -0.6758,0.16191 -1.38558,0.29439 -1.57727,0.29439 -0.1917,0 -0.22833,0.23297 -0.0814,0.51773 0.36346,0.70452 -4.06925,0.19919 -8.14716,-0.92877 -1.69618,-0.46916 -4.64899,-1.07734 -6.56177,-1.35149 -1.91279,-0.27417 -5.43911,-0.90163 -7.83627,-1.39437 -9.2234,-1.8959 -15.87768,-1.68769 -30.18229,0.94432 -7.35311,1.35296 -10.44105,1.65435 -8.78635,0.85758 1.28934,-0.62085 0.99681,-1.01496 -0.50318,-0.67784 -0.73852,0.16596 -1.25639,0.13433 -1.15081,-0.0703 0.10557,-0.20466 -0.70792,-0.4036 -1.80777,-0.4421 -1.47571,-0.0517 -2.85002,-0.54734 -5.24449,-1.89154 -4.11082,-2.30775 -4.52499,-2.30333 -0.9025,0.01 2.92669,1.8687 2.68222,2.02306 -0.68058,0.42971 -1.09265,-0.51772 -1.88035,-0.73532 -1.75047,-0.48355 0.36868,0.71461 -0.094,0.55107 -1.98037,-0.7 l -1.74566,-1.15773 1.11947,1.2018 1.11947,1.20182 -1.11947,-0.28009 c -1.19293,-0.29847 -1.31837,-0.41106 3.63828,3.26552 0.76962,0.57088 1.39933,1.10496 1.39933,1.18681 0,0.44992 -3.49563,-0.55484 -4.92086,-1.41441 -0.97682,-0.58913 -0.99129,-0.57864 -0.55975,0.40604 0.24365,0.55595 1.11468,1.7737 1.93563,2.70612 1.39396,1.58325 1.41862,1.65247 0.37315,1.04737 -1.80008,-1.04183 -4.17113,-2.1059 -3.37285,-1.51365 0.40252,0.29865 1.19261,1.07168 1.75575,1.71786 0.56313,0.64617 1.08611,1.10033 1.16216,1.00922 0.0761,-0.091 0.0645,0.4363 -0.0256,1.172 -0.0901,0.73571 -0.31274,1.36281 -0.49468,1.39354 -0.18194,0.0308 -0.49873,0.10613 -0.70396,0.16764 -0.20524,0.0614 -0.48921,0.1369 -0.63106,0.16763 -0.14184,0.0308 -0.006,0.30732 0.30311,0.61465 0.30855,0.30734 0.76363,1.12982 1.01129,1.82774 0.39253,1.10621 0.3656,1.29548 -0.20994,1.47579 -0.71907,0.22526 -1.69353,2.2863 -1.37389,2.90587 0.10902,0.21132 -0.0216,0.3873 -0.29024,0.39107 -0.35494,0.004 -0.33547,0.1253 0.0712,0.44018 0.30785,0.23833 0.39181,0.43731 0.18657,0.44218 -0.48524,0.0115 -0.62275,3.13402 -0.13803,3.13402 0.20276,0 0.27008,0.19107 0.1496,0.4246 -0.12047,0.23353 0.16347,0.68069 0.631,0.9937 0.83133,0.55657 0.82127,0.57462 -0.45598,0.81903 -0.77744,0.14875 -1.26604,0.47837 -1.2072,0.81436 0.0544,0.31047 0.13296,1.05838 0.17467,1.66206 0.0417,0.60366 0.20713,1.09758 0.36759,1.09758 0.16048,0 0.29178,0.29465 0.29178,0.6548 0,0.36014 0.35853,0.88467 0.79672,1.16561 0.62454,0.40041 0.68711,0.59197 0.28947,0.88637 -0.33076,0.24488 -0.9411,-0.0208 -1.75413,-0.76373 -0.68577,-0.62662 -1.32946,-1.04036 -1.43041,-0.9194 -0.10095,0.12093 0.3268,0.65523 0.95054,1.18731 0.62377,0.53207 1.09522,1.14342 1.04767,1.35854 -0.0476,0.21512 0.45687,1.08887 1.12092,1.94166 0.96935,1.24485 1.09436,1.60248 0.63414,1.81404 -0.85283,0.39204 0.15572,1.53651 1.13272,1.28537 0.57036,-0.14661 0.63111,-0.0876 0.24612,0.23891 -0.41779,0.35433 -0.38367,0.52235 0.18658,0.91923 0.62012,0.43161 0.57848,0.48718 -0.37409,0.49925 -0.90998,0.0115 -1.0017,0.11488 -0.60732,0.68414 0.39842,0.57512 0.25889,0.68007 -0.98049,0.73751 -1.17246,0.0543 -1.24593,0.10283 -0.38952,0.2566 0.64703,0.11623 0.9866,0.40473 0.87745,0.74547 -0.0979,0.30572 0.38508,1.21548 1.07337,2.02168 1.1792,1.38121 1.43013,1.47476 4.34673,1.62063 2.41995,0.12101 3.09637,0.29884 3.10019,0.81501 0.01,1.32276 2.00889,2.58449 5.12866,3.23694 2.02367,0.42322 3.11414,0.48672 3.19775,0.18619 0.0697,-0.25081 1.24636,-0.4624 2.61459,-0.4702 2.83508,-0.0161 8.39221,-0.92176 12.08307,-1.96911 3.05069,-0.86568 6.97107,-1.34756 6.44987,-0.79278 -0.56327,0.59954 -12.52325,3.1368 -16.97812,3.60184 l -3.91813,0.409 4.66445,-0.21404 c 2.56544,-0.11771 5.75591,-0.507 7.08994,-0.86509 1.33403,-0.35809 4.98089,-1.23908 8.10413,-1.95774 5.61263,-1.29148 5.79044,-1.30379 15.29938,-1.05843 5.29141,0.13654 9.9566,0.42225 10.36707,0.63492 0.94345,0.4888 10.63573,1.54299 12.87386,1.40023 1.91681,-0.12226 6.34365,0.8131 6.34365,1.34038 0,0.19304 0.27941,0.22254 0.62095,0.0655 0.41751,-0.19193 0.53254,-0.11412 0.35112,0.23754 -0.16353,0.317 -0.032,0.523 0.33397,0.523 0.33207,0 0.51137,0.1791 0.39844,0.39801 -0.20914,0.40537 1.4129,0.88568 4.05473,1.20063 1.86731,0.22262 2.30634,0.74495 1.46913,1.7479 -0.62576,0.74963 -0.62258,0.81443 0.0693,1.41023 0.39886,0.34347 1.0034,0.90439 1.34344,1.24649 0.54189,0.54518 0.64495,0.50274 0.83451,-0.34375 z m 5.82379,-19.96431 c -0.40071,-0.31022 -0.003,-0.43528 1.39934,-0.44018 1.07748,-0.003 1.95906,0.19432 1.95906,0.44018 0,0.57171 -2.61993,0.57171 -3.3584,0 z m -95.79974,-15.02207 c 0.26116,-0.31287 1.39141,0.3214 1.39141,0.78083 0,0.22836 -0.34995,0.19056 -0.77828,-0.084 -0.42805,-0.27444 -0.70395,-0.58799 -0.61313,-0.6968 z m -0.75535,-8.03563 c 0.12889,-0.15439 0.70661,-0.0745 1.28383,0.17758 0.64745,0.28272 0.79933,0.47182 0.39648,0.49359 -0.35916,0.0195 -0.65302,0.27955 -0.65302,0.5781 0,0.3418 -0.23361,0.26296 -0.63081,-0.21287 -0.34695,-0.41562 -0.52536,-0.88201 -0.39648,-1.0364 z m -0.34688,-12.10115 c 0.10493,-0.12571 0.52997,-0.0112 0.94452,0.2547 0.94098,0.60329 1.28851,0.616 0.98938,0.0362 -0.36767,-0.71265 0.42003,-0.51678 0.93998,0.23374 0.40046,0.57803 0.36512,0.63287 -0.23417,0.36333 -0.64342,-0.28938 -0.65661,-0.2451 -0.14921,0.50098 0.48396,0.71161 0.34532,0.68929 -1.06234,-0.171 -0.89042,-0.54419 -1.53309,-1.09227 -1.42816,-1.21797 z m -0.0252,37.54494 c -0.25655,-0.124 -0.67634,-0.124 -0.93288,0 -0.25655,0.12401 -0.0467,0.22548 0.46643,0.22548 0.51309,0 0.72299,-0.10144 0.46645,-0.22548 z m -2.5188,-6.40931 c -0.12684,-0.24586 -0.39854,-0.44703 -0.60378,-0.44703 -0.20524,0 -0.26937,0.20117 -0.14253,0.44703 0.12685,0.24586 0.39854,0.44702 0.60378,0.44702 0.20523,0 0.26937,-0.20116 0.14253,-0.44702 z"
       id="path4"
       inkscape:label="glow"
       sodipodi:nodetypes="cscscsssssccssssccssssccsccssscsscsscsssccssscscccccccccccccccscssccccscsccccccscccscscccsssscccccsssccccccsccsccscsccsssssscsssssssccscsscsccccccsccccscccccccsscsscss" /><path
       style="fill:url(#radialGradient3);stroke:none;stroke-width:0.4;stroke-dasharray:none;stroke-opacity:1;paint-order:markers fill stroke"
       d="m 211.61895,195.06624 c 0.39648,-1.77052 0.22852,-4.52666 -0.35797,-5.87408 -0.39788,-0.91411 -0.44914,-1.38432 -0.16334,-1.49845 0.22906,-0.0915 0.72313,-0.56061 1.09793,-1.04255 0.43149,-0.55484 1.31284,-0.93787 2.40282,-1.04428 2.01346,-0.19654 2.4712,-0.46319 2.4712,-1.43956 0,-0.80964 2.55031,-3.70021 3.26511,-3.70074 0.25654,-1.9e-4 0.46644,-0.20151 0.46644,-0.44737 0,-0.24587 0.33584,-0.44703 0.74632,-0.44703 1.0181,0 0.94664,-0.78565 -0.0933,-1.0256 -0.83304,-0.19221 -0.83272,-0.1942 0.0414,-0.25459 l 0.88094,-0.0609 -0.865,-0.83909 c -0.63358,-0.61461 -1.2436,-0.77825 -2.28027,-0.61167 -0.87377,0.1404 -1.41527,0.0447 -1.41527,-0.25031 0,-0.30825 0.84069,-0.41193 2.3699,-0.2923 l 2.3699,0.1854 0.0686,-2.74015 c 0.0377,-1.50708 0.15738,-2.91218 0.26584,-3.1224 0.10845,-0.21023 -0.0794,-0.5094 -0.41748,-0.6648 -0.33807,-0.15541 -0.45807,-0.40545 -0.26666,-0.55563 0.51535,-0.40436 0.92778,-10.65598 0.44313,-11.01479 -0.27172,-0.20118 -0.26767,-0.46893 0.0133,-0.87441 0.34113,-0.49242 0.4218,-2.07221 0.33151,-6.49245 -0.007,-0.37103 0.0362,-0.87394 0.0974,-1.11755 0.0612,-0.24363 -0.0846,-1.09672 -0.32379,-1.89579 l -0.43495,-1.45282 h -3.13134 c -2.9934,0 -3.15041,-0.0501 -3.56439,-1.13859 -0.23817,-0.62623 -0.43305,-1.53146 -0.43305,-2.01162 0,-0.69017 -0.25399,-0.86969 -1.21276,-0.85718 -0.66701,0.009 -1.63255,0.30332 -2.14564,0.6547 -0.99065,0.67842 -4.47787,0.91901 -4.47787,0.30895 0,-0.19887 -0.24031,-0.75205 -0.53401,-1.22931 -0.51917,-0.8436 -0.54445,-0.83666 -0.90923,0.24982 -0.32546,0.96934 -0.38184,0.99899 -0.42511,0.22351 l -0.0499,-0.89404 -0.3207,0.89404 c -0.27423,0.76452 -0.3245,0.7807 -0.34692,0.11175 -0.0257,-0.767 -0.77254,-1.15218 -0.77254,-0.39844 0,0.59033 -4.05354,2.25872 -4.20091,1.72905 -0.0819,-0.29415 -0.41127,-0.27014 -0.93942,0.0685 -0.70295,0.45067 -0.78068,0.41941 -0.57256,-0.2303 0.20582,-0.64252 0.0623,-0.70898 -0.98793,-0.45736 -0.6758,0.16191 -1.38558,0.29439 -1.57727,0.29439 -0.1917,0 -0.22833,0.23297 -0.0814,0.51773 0.36346,0.70452 -4.06925,0.19919 -8.14716,-0.92877 -1.69618,-0.46916 -4.64899,-1.07734 -6.56177,-1.35149 -1.91279,-0.27417 -5.43911,-0.90163 -7.83627,-1.39437 -9.2234,-1.8959 -15.87768,-1.68769 -30.18229,0.94432 -7.35311,1.35296 -10.44105,1.65435 -8.78635,0.85758 1.28934,-0.62085 0.99681,-1.01496 -0.50318,-0.67784 -0.73852,0.16596 -1.25639,0.13433 -1.15081,-0.0703 0.10557,-0.20466 -0.70792,-0.4036 -1.80777,-0.4421 -1.47571,-0.0517 -2.85002,-0.54734 -5.24449,-1.89154 -4.11082,-2.30775 -4.52499,-2.30333 -0.9025,0.01 2.92669,1.8687 2.68222,2.02306 -0.68058,0.42971 -1.09265,-0.51772 -1.88035,-0.73532 -1.75047,-0.48355 0.36868,0.71461 -0.094,0.55107 -1.98037,-0.7 l -1.74566,-1.15773 1.11947,1.2018 1.11947,1.20182 -1.11947,-0.28009 c -1.19293,-0.29847 -1.31837,-0.41106 3.63828,3.26552 0.76962,0.57088 1.39933,1.10496 1.39933,1.18681 0,0.44992 -3.49563,-0.55484 -4.92086,-1.41441 -0.97682,-0.58913 -0.99129,-0.57864 -0.55975,0.40604 0.24365,0.55595 1.11468,1.7737 1.93563,2.70612 1.39396,1.58325 1.41862,1.65247 0.37315,1.04737 -1.80008,-1.04183 -4.17113,-2.1059 -3.37285,-1.51365 0.40252,0.29865 1.19261,1.07168 1.75575,1.71786 0.56313,0.64617 1.08611,1.10033 1.16216,1.00922 0.0761,-0.091 0.0645,0.4363 -0.0256,1.172 -0.0901,0.73571 -0.31274,1.36281 -0.49468,1.39354 -0.18194,0.0308 -0.49873,0.10613 -0.70396,0.16764 -0.20524,0.0614 -0.48921,0.1369 -0.63106,0.16763 -0.14184,0.0308 -0.006,0.30732 0.30311,0.61465 0.30855,0.30734 0.76363,1.12982 1.01129,1.82774 0.39253,1.10621 0.3656,1.29548 -0.20994,1.47579 -0.71907,0.22526 -1.69353,2.2863 -1.37389,2.90587 0.10902,0.21132 -0.0216,0.3873 -0.29024,0.39107 -0.35494,0.004 -0.33547,0.1253 0.0712,0.44018 0.30785,0.23833 0.39181,0.43731 0.18657,0.44218 -0.48524,0.0115 -0.62275,3.13402 -0.13803,3.13402 0.20276,0 0.27008,0.19107 0.1496,0.4246 -0.12047,0.23353 0.16347,0.68069 0.631,0.9937 0.83133,0.55657 0.82127,0.57462 -0.45598,0.81903 -0.77744,0.14875 -1.26604,0.47837 -1.2072,0.81436 0.0544,0.31047 0.13296,1.05838 0.17467,1.66206 0.0417,0.60366 0.20713,1.09758 0.36759,1.09758 0.16048,0 0.29178,0.29465 0.29178,0.6548 0,0.36014 0.35853,0.88467 0.79672,1.16561 0.62454,0.40041 0.68711,0.59197 0.28947,0.88637 -0.33076,0.24488 -0.9411,-0.0208 -1.75413,-0.76373 -0.68577,-0.62662 -1.32946,-1.04036 -1.43041,-0.9194 -0.10095,0.12093 0.3268,0.65523 0.95054,1.18731 0.62377,0.53207 1.09522,1.14342 1.04767,1.35854 -0.0476,0.21512 0.45687,1.08887 1.12092,1.94166 0.96935,1.24485 1.09436,1.60248 0.63414,1.81404 -0.85283,0.39204 0.15572,1.53651 1.13272,1.28537 0.57036,-0.14661 0.63111,-0.0876 0.24612,0.23891 -0.41779,0.35433 -0.38367,0.52235 0.18658,0.91923 0.62012,0.43161 0.57848,0.48718 -0.37409,0.49925 -0.90998,0.0115 -1.0017,0.11488 -0.60732,0.68414 0.39842,0.57512 0.25889,0.68007 -0.98049,0.73751 -1.17246,0.0543 -1.24593,0.10283 -0.38952,0.2566 0.64703,0.11623 0.9866,0.40473 0.87745,0.74547 -0.0979,0.30572 0.38508,1.21548 1.07337,2.02168 1.1792,1.38121 1.43013,1.47476 4.34673,1.62063 2.41995,0.12101 3.09637,0.29884 3.10019,0.81501 0.01,1.32276 2.00889,2.58449 5.12866,3.23694 2.02367,0.42322 3.11414,0.48672 3.19775,0.18619 0.0697,-0.25081 1.24636,-0.4624 2.61459,-0.4702 2.83508,-0.0161 8.39221,-0.92176 12.08307,-1.96911 3.05069,-0.86568 6.97107,-1.34756 6.44987,-0.79278 -0.56327,0.59954 -12.52325,3.1368 -16.97812,3.60184 l -3.91813,0.409 4.66445,-0.21404 c 2.56544,-0.11771 5.75591,-0.507 7.08994,-0.86509 1.33403,-0.35809 4.98089,-1.23908 8.10413,-1.95774 5.61263,-1.29148 5.79044,-1.30379 15.29938,-1.05843 5.29141,0.13654 9.9566,0.42225 10.36707,0.63492 0.94345,0.4888 10.63573,1.54299 12.87386,1.40023 1.91681,-0.12226 6.34365,0.8131 6.34365,1.34038 0,0.19304 0.27941,0.22254 0.62095,0.0655 0.41751,-0.19193 0.53254,-0.11412 0.35112,0.23754 -0.16353,0.317 -0.032,0.523 0.33397,0.523 0.33207,0 0.51137,0.1791 0.39844,0.39801 -0.20914,0.40537 1.4129,0.88568 4.05473,1.20063 1.86731,0.22262 2.30634,0.74495 1.46913,1.7479 -0.62576,0.74963 -0.62258,0.81443 0.0693,1.41023 0.39886,0.34347 1.0034,0.90439 1.34344,1.24649 0.54189,0.54518 0.64495,0.50274 0.83451,-0.34375 z m 5.82379,-19.96431 c -0.40071,-0.31022 -0.003,-0.43528 1.39934,-0.44018 1.07748,-0.003 1.95906,0.19432 1.95906,0.44018 0,0.57171 -2.61993,0.57171 -3.3584,0 z M 121.643,160.07986 c 0.26116,-0.31287 1.39141,0.3214 1.39141,0.78083 0,0.22836 -0.34995,0.19056 -0.77828,-0.084 -0.42805,-0.27444 -0.70395,-0.58799 -0.61313,-0.6968 z m -0.75535,-8.03563 c 0.12889,-0.15439 0.70661,-0.0745 1.28383,0.17758 0.64745,0.28272 0.79933,0.47182 0.39648,0.49359 -0.35916,0.0195 -0.65302,0.27955 -0.65302,0.5781 0,0.3418 -0.23361,0.26296 -0.63081,-0.21287 -0.34695,-0.41562 -0.52536,-0.88201 -0.39648,-1.0364 z m -0.34688,-12.10115 c 0.10493,-0.12571 0.52997,-0.0112 0.94452,0.2547 0.94098,0.60329 1.28851,0.616 0.98938,0.0362 -0.36767,-0.71265 0.42003,-0.51678 0.93998,0.23374 0.40046,0.57803 0.36512,0.63287 -0.23417,0.36333 -0.64342,-0.28938 -0.65661,-0.2451 -0.14921,0.50098 0.48396,0.71161 0.34532,0.68929 -1.06234,-0.171 -0.89042,-0.54419 -1.53309,-1.09227 -1.42816,-1.21797 z m -0.0252,37.54494 c -0.25655,-0.124 -0.67634,-0.124 -0.93288,0 -0.25655,0.12401 -0.0467,0.22548 0.46643,0.22548 0.51309,0 0.72299,-0.10144 0.46645,-0.22548 z m -2.5188,-6.40931 c -0.12684,-0.24586 -0.39854,-0.44703 -0.60378,-0.44703 -0.20524,0 -0.26937,0.20117 -0.14253,0.44703 0.12685,0.24586 0.39854,0.44702 0.60378,0.44702 0.20523,0 0.26937,-0.20116 0.14253,-0.44702 z"
       id="path8"
       sodipodi:nodetypes="cscscsssssccssssccssssccsccssscsscsscsssccssscscccccccccccccccscssccccscsccccccscccscscccsssscccccsssccccccsccsccscsccsssssscsssssssccscsscsccccccsccccscccccccsscsscss" /><path
       style="font-size:8.0932px;line-height:1;font-family:'Della Respira';-inkscape-font-specification:'Della Respira';text-align:center;letter-spacing:0.224809px;text-anchor:middle;fill:#ffffff;stroke:none;stroke-width:0.6;stroke-linecap:round;stroke-dasharray:none;stroke-opacity:1;paint-order:markers stroke fill"
       d="m 127.54028,165.41223 c 1.12637,0.40747 2.34498,-3.34764 1.88422,-0.95205 -0.21981,1.88296 -2.84696,2.62549 -3.48774,0.61209 -0.94354,-2.23774 -1.00164,-4.95082 0.0412,-7.16411 0.63906,-2.11829 3.96786,-1.01968 3.00604,1.06094 -0.48266,-2.04082 -2.82015,-1.28723 -3.0276,0.50578 -0.50253,1.86812 -0.29894,4.11577 0.96892,5.63881 l 0.29844,0.21053 z m 4.53268,-0.31717 c 1.65589,0.8847 2.42473,-1.70468 2.45291,-2.97278 0.0498,-1.60875 -0.17038,-3.69406 -1.76456,-4.51466 -1.70033,-0.0945 -1.96546,2.19275 -2.0168,3.48608 0.0285,1.40088 0.26817,2.98885 1.32845,4.00136 z m -1.1553,-0.26618 c -0.97178,-2.27959 -0.91672,-5.08021 0.25697,-7.27549 1.05167,-2.02597 3.2457,-0.34074 3.48369,1.28389 0.61944,2.22367 0.59986,4.92927 -0.88609,6.81524 -1.02054,1.28985 -2.38853,0.36286 -2.85457,-0.82364 z m 5.51979,-8.04808 c 1.0982,2.23136 2.05998,4.52662 3.14887,6.76239 -0.0215,-2.04876 0.0436,-4.0984 -0.0338,-6.14648 -0.56134,-1.0793 1.38739,-0.67031 0.60095,0.25467 -0.0945,2.78348 0.0283,5.57509 -0.0598,8.36116 -0.86639,-1.04694 -1.20881,-2.51157 -1.87377,-3.72259 -0.58954,-1.28513 -1.17908,-2.57026 -1.76862,-3.85539 0.019,2.34047 -0.0389,4.68155 0.0303,7.02154 0.40322,1.20635 -1.35564,0.46791 -0.57704,-0.47617 0.007,-2.52828 0.044,-5.06022 -0.0206,-7.58903 -0.41911,-0.68142 -0.0125,-0.66599 0.55347,-0.6101 z m 8.61899,8.25196 c -0.85148,2.06123 -3.38451,1.07132 -3.57742,-0.82168 -0.67171,-2.26371 -0.58964,-4.94746 0.73599,-6.96274 1.07453,-1.48617 3.43832,0.0323 2.60869,1.59671 -0.46637,-1.69743 -2.3695,-1.69179 -2.82068,0.0282 -0.67108,1.98557 -0.65676,4.47676 0.74654,6.13816 2.10998,1.16595 2.03758,-2.53418 1.55683,-3.73906 1.72263,-0.60045 0.29944,2.15538 0.75844,3.10181 0.002,0.21955 2.3e-4,0.43918 -0.008,0.65859 z m 1.87742,-7.32311 c -0.32331,2.00523 -0.0438,4.09408 -0.14463,6.13288 -0.26698,0.77026 0.82366,2.79743 -0.746,2.11909 0.46772,-1.77807 0.0821,-3.65483 0.2154,-5.47231 0.20758,-1.17547 -0.33665,-2.85991 0.0979,-3.72591 1.82532,-0.45529 2.95184,1.25283 2.55472,2.93601 -0.083,1.15097 -1.91139,1.74172 -0.52337,2.82332 0.32245,1.09502 1.20198,2.63342 0.97444,3.5202 -1.35187,0.21211 -0.48013,-2.20467 -1.32447,-2.95165 -0.45058,-1.07691 -1.69528,-2.17153 -0.0701,-2.86987 0.82836,-0.8076 0.42525,-2.88529 -1.03392,-2.51176 z m 5.66593,2.79785 c 0.71158,-1.2629 0.83264,2.4223 -0.17714,0.90855 -1.0785,-0.1694 -1.96807,-0.0346 -1.56037,1.33272 -0.19368,1.43552 -0.18245,2.99286 1.71007,2.38491 1.4217,-0.63293 0.35187,1.66187 -0.69579,0.92427 -0.57693,0 -1.15387,0 -1.7308,0 0.3743,-2.49615 0.0968,-5.04341 0.1753,-7.56067 -0.12445,-1.04387 -0.39179,-2.10288 1.00589,-1.71648 0.58049,0 1.16098,0 1.74147,0 0.84214,1.66369 -0.83259,0.74332 -1.75019,0.91758 -0.80116,-0.20638 -0.3362,0.85337 -0.45843,1.32592 0.11756,0.59435 -0.39273,1.81658 0.65249,1.48323 0.3625,-1e-5 0.725,-2e-5 1.0875,-3e-5 z m 5.25508,4.52526 c -0.85147,2.06124 -3.38451,1.07132 -3.57742,-0.82168 -0.67171,-2.26371 -0.58963,-4.94745 0.73599,-6.96274 1.07453,-1.48617 3.43834,0.0323 2.6087,1.59672 -0.46638,-1.69744 -2.36951,-1.69181 -2.82069,0.0282 -0.67108,1.98558 -0.65675,4.47676 0.74655,6.13816 2.10997,1.16595 2.03755,-2.53418 1.55683,-3.73906 1.72263,-0.60045 0.29945,2.15538 0.75844,3.1018 0.002,0.21956 2.2e-4,0.43919 -0.008,0.6586 z m 0.90685,0.15859 c 0.60476,-2.78086 1.20953,-5.56172 1.8143,-8.34258 0.87741,1.08526 0.77074,2.98225 1.25694,4.38973 0.31862,1.59174 0.77526,3.18644 1.03744,4.76914 -1.92534,0.81084 0.0556,-3.22638 -1.89908,-2.87507 -1.96685,-0.7616 -1.46463,2.14258 -1.77242,2.91561 -0.93727,0.28775 -0.54168,-0.37655 -0.43718,-0.85683 z m 1.11119,-2.98475 c 1.01037,0.26422 2.03169,0.13404 1.34592,-1.09262 -0.24555,-0.88321 -0.5653,-3.58452 -0.81332,-1.35266 -0.17753,0.81509 -0.35507,1.63022 -0.5326,2.44528 z m 7.18795,-5.4258 c 1.24813,2.25434 -2.45412,-0.26001 -1.92609,1.76688 0.007,2.29907 -0.0404,4.59877 0.0291,6.8973 0.55564,1.09261 -1.38265,0.643 -0.59779,-0.28843 0.0612,-2.48333 0.015,-4.97204 0.0298,-7.45808 -1.00426,-0.17813 -2.97906,0.738 -1.75951,-0.9804 1.28297,0.10803 2.8318,0.0488 4.22453,0.0627 z m 0.82137,0 c 1.69884,-0.28869 0.28195,2.22043 0.70873,3.24318 0.0534,1.75424 -0.0939,3.54926 0.0922,5.27767 0.52712,1.15595 -1.436,0.94481 -0.65833,-0.17328 0.0581,-2.63412 0.073,-5.27687 -0.014,-7.91111 -0.0629,-0.13485 -0.24937,-0.26566 -0.12858,-0.43646 z m 3.50697,8.31426 c 1.65589,0.8847 2.42473,-1.70468 2.45291,-2.97278 0.0498,-1.60875 -0.17038,-3.69406 -1.76456,-4.51466 -1.70033,-0.0945 -1.96546,2.19276 -2.0168,3.48609 0.0285,1.40087 0.26817,2.98885 1.32845,4.00135 z m -1.15531,-0.26618 c -0.97178,-2.27959 -0.91672,-5.08021 0.25698,-7.27549 1.05167,-2.02597 3.2457,-0.34074 3.48368,1.28389 0.61945,2.22366 0.59987,4.92926 -0.88608,6.81524 -1.02055,1.28985 -2.38853,0.36285 -2.85458,-0.82364 z m 5.5198,-8.04808 c 1.09819,2.23136 2.05998,4.52662 3.14887,6.76239 -0.0215,-2.04876 0.0437,-4.09842 -0.0338,-6.1465 -0.56134,-1.07928 1.3874,-0.67028 0.60088,0.25466 -0.0945,2.78349 0.0283,5.57512 -0.0598,8.36119 -0.86639,-1.04695 -1.20881,-2.51157 -1.87377,-3.72259 -0.58954,-1.28513 -1.17908,-2.57026 -1.76862,-3.85539 0.019,2.34047 -0.0389,4.68155 0.0303,7.02154 0.40322,1.20635 -1.35565,0.46792 -0.57704,-0.47617 0.007,-2.52828 0.044,-5.06022 -0.0206,-7.58904 -0.41916,-0.68149 -0.0124,-0.66593 0.55353,-0.61009 z m 4.7312,8.41055 c 0.60477,-2.78086 1.20954,-5.56172 1.8143,-8.34258 0.87742,1.08525 0.77075,2.98225 1.25694,4.38973 0.31863,1.59174 0.77525,3.18644 1.03744,4.76914 -1.92532,0.81083 0.0556,-3.22638 -1.89907,-2.87507 -1.96685,-0.7616 -1.46464,2.14258 -1.77243,2.91561 -0.93726,0.28775 -0.54168,-0.37655 -0.43718,-0.85683 z m 1.11119,-2.98475 c 1.01037,0.26422 2.03169,0.13404 1.34593,-1.09262 -0.24555,-0.88321 -0.56531,-3.58452 -0.81332,-1.35266 -0.17753,0.81509 -0.35507,1.63023 -0.53261,2.44528 z m 3.85164,2.86014 c -0.0212,-2.55756 0.0429,-5.1158 -0.0331,-7.67284 -0.55438,-1.0968 1.38236,-0.63612 0.59721,0.29379 -0.06,2.48154 -0.0147,4.96843 -0.0292,7.45268 1.01384,0.24946 3.3222,-0.83798 2.03832,0.98117 -0.53321,-0.0537 -1.24084,-0.086 -1.87405,-0.0637 -0.96651,0.0347 -0.99252,0.13167 -0.69917,-0.99113 z m 7.14629,0.34549 c 1.12637,0.40747 2.34498,-3.34763 1.88422,-0.95205 -0.21981,1.88296 -2.84696,2.62549 -3.48773,0.61209 -0.94354,-2.23775 -1.00163,-4.95082 0.0412,-7.16411 0.63906,-2.11831 3.9678,-1.01968 3.0059,1.06094 -0.48265,-2.04083 -2.82015,-1.28721 -3.0276,0.50579 -0.50252,1.86808 -0.29893,4.11572 0.96889,5.63875 l 0.2985,0.21055 z m 2.83695,-8.63143 c 1.7603,-0.33846 0.2178,2.21258 0.71798,3.19834 -0.041,0.72495 1.16058,0.22014 1.70091,0.36976 0.58261,-0.11472 1.78925,0.39471 1.4117,-0.6668 0.35375,-0.9117 -0.80355,-3.49012 0.70202,-2.74271 -0.34384,2.39798 -0.0622,4.84136 -0.15996,7.25835 -0.17379,0.72817 0.71096,2.43208 -0.7468,1.76382 0.43571,-1.3908 0.10235,-2.87489 0.2399,-4.30118 -0.29729,-0.77073 -1.41075,-0.20223 -2.07813,-0.37137 -1.36438,-0.39639 -1.11555,0.80437 -1.07576,1.82119 -0.40876,0.90921 0.95333,3.45809 -0.74772,2.85132 0.46772,-1.77807 0.0821,-3.65483 0.2154,-5.47231 -0.0322,-1.22035 0.1162,-2.57077 -0.17954,-3.70841 z m 5.65765,0.99115 c -0.88963,-1.16726 1.39839,-1.44772 0.60456,-0.1088 0.003,2.09081 -0.22947,4.22417 0.15438,6.29162 0.28827,2.23798 2.67226,0.89067 2.41184,-0.78271 0.012,-1.92381 0.0413,-3.85333 -0.022,-5.77818 -0.55451,-1.09101 1.33994,-0.6286 0.56413,0.29381 -0.19915,2.45339 0.34811,5.01352 -0.46115,7.38602 -0.68753,2.19579 -3.04533,0.7271 -3.09592,-0.9894 -0.33981,-2.06803 -0.0701,-4.21982 -0.15589,-6.31236 z m 5.6163,-0.0624 c -0.3233,2.00524 -0.0438,4.09408 -0.14462,6.13289 -0.26699,0.77026 0.82368,2.79743 -0.74599,2.11909 0.46772,-1.77808 0.0821,-3.65484 0.2154,-5.47231 0.20758,-1.17548 -0.33667,-2.85992 0.098,-3.72591 1.82532,-0.45531 2.95184,1.25284 2.55472,2.93601 -0.083,1.15097 -1.91139,1.74171 -0.52338,2.82332 0.32245,1.09502 1.20199,2.63342 0.97445,3.5202 -1.35187,0.2121 -0.48013,-2.20468 -1.32448,-2.95166 -0.45058,-1.0769 -1.69526,-2.17152 -0.0701,-2.86987 0.82835,-0.8076 0.42526,-2.88528 -1.03395,-2.51176 z m 5.34609,7.70259 c 1.12636,0.40747 2.34498,-3.34763 1.88423,-0.95205 -0.21981,1.88295 -2.84697,2.6255 -3.48774,0.6121 -0.94354,-2.23775 -1.00163,-4.95082 0.0412,-7.16412 0.63907,-2.11829 3.96784,-1.01969 3.00596,1.06093 -0.48265,-2.04083 -2.82015,-1.28721 -3.02758,0.50579 -0.50252,1.86809 -0.29894,4.11573 0.96888,5.63877 l 0.29847,0.21055 z m 2.83695,-8.63143 c 1.76031,-0.33848 0.21782,2.21258 0.71799,3.19834 -0.041,0.72495 1.16058,0.22014 1.70091,0.36976 0.58262,-0.11472 1.78926,0.39471 1.41171,-0.66681 0.35374,-0.91169 -0.80355,-3.49011 0.702,-2.7427 -0.34385,2.39798 -0.0622,4.84135 -0.15996,7.25834 -0.17378,0.72817 0.71094,2.43207 -0.74681,1.76383 0.4357,-1.3908 0.10236,-2.87489 0.2399,-4.30119 -0.29729,-0.77072 -1.41075,-0.20222 -2.07813,-0.37136 -1.3644,-0.39639 -1.1155,0.80436 -1.07573,1.82119 -0.40879,0.90921 0.95329,3.45809 -0.74775,2.85132 0.46772,-1.77808 0.0821,-3.65484 0.2154,-5.47231 -0.0322,-1.22036 0.1162,-2.57074 -0.17953,-3.70841 z"
       id="text11"
       aria-label="CONGREGATIONAL CHURCH" /><path
       style="font-size:10.0171px;line-height:1;font-family:'Della Respira';-inkscape-font-specification:'Della Respira';text-align:center;letter-spacing:0.278252px;text-anchor:middle;fill:#ffffff;stroke:none;stroke-width:0.6;stroke-linecap:round;stroke-dasharray:none;stroke-opacity:1;paint-order:markers stroke fill"
       d="m 128.83336,179.61496 c -1.29096,0.64152 -1.3711,-3.16242 -0.44215,-1.28828 1.3778,1.69995 2.45847,-0.91795 2.01351,-2.1746 -0.48948,-1.68146 -2.60957,-2.54848 -2.61123,-4.5181 -0.21331,-1.19326 0.42295,-3.32415 1.98778,-2.68482 1.16631,0.11996 1.20946,1.61332 0.85594,2.3491 -0.12707,-1.30261 -2.08084,-2.34337 -2.16898,-0.44707 -0.38733,2.04163 1.97782,2.56889 2.44799,4.28637 0.42581,1.47767 0.44042,3.53043 -0.91211,4.54454 -0.36052,0.21963 -0.83632,0.1877 -1.17075,-0.0671 z m 7.78296,-8.97025 c -0.78045,2.98807 -1.2258,6.05392 -2.05589,9.02992 -0.98006,-1.14012 -0.94189,-3.19828 -1.50057,-4.69618 -0.50034,-2.01782 -0.97462,-4.06578 -1.51574,-6.05809 0.77295,-0.31437 1.73018,-0.10123 1.11111,0.94966 0.57777,2.53897 1.20353,5.10359 1.86455,7.63654 0.54853,-2.67967 1.14689,-5.34913 1.66344,-8.03533 -0.57295,-1.11446 1.83989,-0.84332 1.03882,0.31251 0.63847,2.56465 1.22627,5.16164 1.90932,7.72285 0.52738,-2.57297 1.10922,-5.13476 1.60236,-7.71472 -1.03282,-1.26018 1.75879,-1.35905 0.75032,-0.0164 -0.64193,1.72925 -0.8147,3.58537 -1.25942,5.37483 -0.41081,1.45076 -0.49548,3.3796 -1.22043,4.50997 -0.64675,-1.37047 -0.83497,-2.99004 -1.27685,-4.46636 -0.37371,-1.51559 -0.7339,-3.03449 -1.11102,-4.54924 z m 8.50785,-0.39116 c 0,2.76025 0,5.52049 0,8.28074 1.21144,1.1625 -1.50007,1.83045 -0.80312,0.41497 0.20612,-1.71879 0.0584,-3.47768 0.10315,-5.21511 0,-1.24639 0,-2.49277 0,-3.73916 -1.0178,-1.70954 1.70628,-1.27265 2.55477,-0.86413 1.35663,1.22942 1.43388,3.66641 0.23418,5.04275 -0.51217,0.80584 -2.56358,0.74674 -1.7286,-0.46581 1.71183,0.35371 2.33886,-2.03813 1.51689,-3.2056 -0.24899,-0.58843 -1.65005,-0.95252 -1.87727,-0.24865 z m 3.09923,8.4266 c 0.79145,-3.25528 1.58289,-6.51057 2.37434,-9.76585 1.04625,0.84144 0.91761,3.18275 1.50755,4.59006 0.50674,2.0356 1.0106,4.09558 1.56199,6.10455 -0.83161,0.3508 -1.71528,0.0325 -1.11932,-1.03237 -0.29403,-0.89556 -0.0913,-2.71963 -1.50747,-2.33609 -0.53968,0 -1.07935,0 -1.61903,0 -0.36905,1.12929 -0.47259,2.4137 -0.46992,3.43753 -1.16253,0.11016 -1.18622,0.1187 -0.72814,-0.99783 z m 1.45419,-3.49397 c 0.82213,0.0607 2.69359,0.53012 1.83841,-0.95791 -0.27952,-0.82303 -0.56804,-2.9959 -0.88789,-2.94541 -0.31684,1.30109 -0.63369,2.60233 -0.95052,3.90332 z m 5.92463,-5.26413 c -0.41933,1.485 -0.0641,3.11314 -0.18322,4.65808 -0.009,1.46561 -0.0218,2.93209 0.0425,4.39675 0.88951,1.14533 -1.88809,0.95259 -0.81065,-0.25289 0.14286,-1.46015 0.0323,-2.9594 0.0673,-4.43882 0,-1.43005 0,-2.86009 0,-4.29014 -1.00135,-1.68146 1.58493,-1.20925 2.45557,-0.9281 1.73723,1.26173 1.21988,4.18826 -0.47458,5.25738 1.22768,1.51708 1.63174,3.49072 2.34272,5.24599 -1.83674,0.894 -0.88055,-1.86212 -1.66734,-2.72049 -0.2091,-1.08547 -1.90496,-2.37079 -1.51561,-3.16429 1.69581,-0.21628 2.35621,-3.47116 0.40691,-3.76343 l -0.3326,4e-4 -0.33097,-4.4e-4 z m 5.71533,3.57352 c 0.88632,2.01944 1.77698,4.05168 2.68219,6.05297 -0.67124,0.47736 -1.73268,0.0827 -1.27726,-0.97413 -0.63782,-1.18862 -1.37404,-3.48398 -1.92665,-4.03891 0.021,1.50795 -0.12619,3.03832 0.0739,4.53664 0.68505,1.09255 -1.84204,0.77829 -0.87749,-0.36444 0.22094,-1.57344 10e-4,-3.18383 0.0871,-4.77489 -0.0536,-1.51175 0.13165,-3.09293 -0.14666,-4.56056 -0.45125,-1.03829 1.93378,-0.61625 0.91058,0.43477 -0.0217,0.64499 -0.32114,2.85789 0.15754,2.66371 0.75348,-1.13282 1.46475,-2.7061 1.95148,-3.66508 1.89233,-0.0593 -0.4991,1.9901 -0.68374,2.91274 -0.29689,0.5958 -0.74226,1.15883 -0.95099,1.77718 z m 7.85835,-0.75581 c -1.72976,0.36128 -2.19082,2.29257 -1.87828,3.80192 -0.002,1.30887 1.85869,3.25522 2.71352,1.44873 0.95864,-1.16705 -0.13925,-2.83408 -1.44201,-1.74105 -0.77891,-0.0301 0.0721,-1.8345 0.98839,-1.22235 0.95852,-0.0321 2.25068,0.17907 2.89956,-0.35643 0.16889,0.90132 -0.3511,1.92793 -1.23138,1.34396 -0.95661,1.02403 -0.20019,3.15021 -1.67776,3.74498 -1.65773,0.76738 -2.65353,-1.47198 -2.8011,-2.80009 -0.4436,-1.69975 0.41679,-3.17379 0.95468,-4.67059 -0.78996,-1.17661 -0.60889,-3.30887 0.93903,-3.77163 1.23409,-0.0621 0.81804,3.77038 0.40626,1.47396 -1.11168,-1.78043 -1.9805,2.60353 -0.0357,2.02465 0.29927,0.0813 0.15411,0.52658 0.16481,0.72394 z m 7.19078,-3.2818 c -1.97281,-0.35431 1.41636,-1.38713 1.11935,0.3359 0.45662,1.32539 0.97648,3.55793 1.53635,4.28086 0.5593,-1.75554 1.1186,-3.51108 1.67791,-5.26662 0.71922,-0.26674 2.13444,0.50732 0.81769,0.69803 -0.082,1.62287 0.23368,3.2747 0.28674,4.91256 0.11137,1.5641 0.2223,3.12885 0.39757,4.68737 0.68174,1.06237 -1.94353,0.73811 -0.8771,-0.36165 0.15302,-1.3788 -0.19985,-2.79158 -0.212,-4.18944 -0.12577,-1.15725 -0.15062,-3.29174 -0.37129,-3.83731 -0.57562,1.84973 -1.15124,3.69947 -1.72685,5.54921 -0.98049,-1.13761 -1.08354,-3.0768 -1.72255,-4.5227 -0.20737,-0.63073 -0.52671,-1.74958 -0.47703,-0.44532 -0.16121,2.44927 -0.35226,4.89671 -0.47877,7.34816 1.18615,1.23533 -1.6465,1.5492 -0.68581,0.14276 0.31766,-2.91296 0.43406,-5.87592 0.67814,-8.80871 l 0.0188,-0.26155 z m 7.14065,9.22219 c 0.79146,-3.25528 1.5829,-6.51057 2.37435,-9.76585 1.04623,0.84145 0.91761,3.18275 1.50755,4.59006 0.50675,2.03559 1.01058,4.09559 1.56199,6.10455 -0.83161,0.3508 -1.71528,0.0325 -1.11932,-1.03237 -0.29404,-0.89556 -0.0913,-2.71963 -1.50748,-2.33609 -0.53968,0 -1.07935,0 -1.61902,0 -0.36901,1.12931 -0.47269,2.41367 -0.46983,3.43752 -1.16255,0.11016 -1.1862,0.11881 -0.72824,-0.99782 z m 1.4542,-3.49397 c 0.82213,0.0607 2.6936,0.53013 1.83842,-0.95791 -0.27953,-0.82303 -0.56805,-2.9959 -0.8879,-2.94541 -0.31684,1.30109 -0.63369,2.60233 -0.95052,3.90332 z m 6.62105,4.50834 c -0.83524,-0.0781 -2.3641,0.40608 -1.63178,-0.93681 0.10859,-2.75494 0.0416,-5.52066 0.0369,-8.27945 -0.0364,-0.93931 -0.5916,-2.05836 0.92429,-1.66681 1.98083,-0.14838 3.11742,1.89714 3.3605,3.60315 0.34039,2.28795 0.1189,4.93437 -1.45315,6.74831 -0.32594,0.32803 -0.7687,0.54391 -1.23675,0.53161 z m -0.88046,-1.2862 c 1.94676,1.03692 3.01657,-1.81187 2.97819,-3.35505 0.0588,-1.65684 0.0134,-3.66217 -1.30942,-4.85469 -0.8793,-0.60509 -2.08879,-0.38455 -1.66875,0.93823 -1e-5,2.42383 -1e-5,4.84767 -2e-5,7.27151 z m 4.61838,-9.57357 c 2.0117,-0.53759 0.5507,1.76104 0.93672,2.93714 0.0196,2.40156 -0.0539,4.80424 0.0411,7.20489 0.8895,1.14534 -1.88811,0.95258 -0.81062,-0.2529 0.14297,-1.46014 0.0324,-2.9594 0.0673,-4.43882 0.001,-1.54149 -0.003,-3.09154 0.003,-4.62727 -0.0395,-0.27635 -0.36203,-0.52858 -0.23797,-0.82304 z m 3.16058,10.78021 c -1.29095,0.64151 -1.37109,-3.16242 -0.44214,-1.28828 1.37779,1.69995 2.45847,-0.91795 2.0135,-2.1746 -0.48948,-1.68146 -2.60956,-2.54849 -2.61123,-4.5181 -0.21331,-1.19326 0.42295,-3.32414 1.98778,-2.68482 1.1663,0.11996 1.20946,1.61332 0.85593,2.3491 -0.12706,-1.30261 -2.08085,-2.34337 -2.16898,-0.44707 -0.38733,2.04163 1.97782,2.56889 2.44799,4.28637 0.42581,1.47767 0.44042,3.53043 -0.91212,4.54454 -0.36051,0.21964 -0.83634,0.18769 -1.17073,-0.0671 z m 5.36171,-1.04752 c 1.61073,0.97505 2.8892,-1.15455 3.08043,-2.53504 0.35337,-2.12655 0.0925,-4.84871 -1.86898,-6.12987 -1.58329,-0.69997 -2.58803,1.24855 -2.78319,2.53526 -0.38496,2.10836 -0.12908,4.6351 1.57174,6.12965 z m -1.51193,-0.31161 c -1.18088,-2.43994 -1.17175,-5.47004 -0.0208,-7.91924 0.52093,-1.28275 2.14258,-2.32918 3.38867,-1.30726 2.06595,1.67139 2.24396,4.69788 1.81955,7.13049 -0.34674,1.56048 -1.09083,3.70259 -2.9871,3.78497 -1.00929,-0.0106 -1.77058,-0.85617 -2.20028,-1.68896 z m 7.22366,-9.42108 c 1.41925,2.61045 2.72116,5.28214 4.09552,7.91606 0.043,-2.1627 0.0271,-4.34098 0.0229,-6.49343 -0.46207,-0.87295 -0.14189,-1.89904 0.92413,-1.33844 -0.36961,1.22377 -0.16673,2.61541 -0.22607,3.91847 -0.007,2.26799 0.0439,4.53672 -0.0318,6.80405 -1.04846,-1.04965 -1.47164,-2.73868 -2.2849,-4.03157 -0.82727,-1.61309 -1.65455,-3.22619 -2.48182,-4.83928 0.0252,2.73974 -0.0512,5.48039 0.0397,8.21942 0.80304,1.19992 -1.87925,0.85029 -0.80291,-0.34077 0.18497,-1.50616 -0.0158,-3.05764 0.0661,-4.58408 -0.0535,-1.55698 0.13102,-3.18236 -0.14467,-4.69597 -0.42127,-0.72821 0.4327,-0.52055 0.82384,-0.53446 z"
       id="text13"
       aria-label="SW PARK &amp; MADISON"
       inkscape:label="sw park" /><path
       d="m 137.58546,147.65254 c -0.48392,-0.59707 -0.20959,-1.03179 0.5093,-0.80042 1.42176,-0.34742 0.0363,1.04852 0.45257,1.79905 0.0489,1.29796 -0.19027,2.64941 0.1888,3.91015 0.72433,1.64114 3.53237,1.59125 4.07511,-0.17315 0.31266,-1.24109 0.0473,-2.54017 0.14746,-3.80663 0.32705,-0.77441 -0.95287,-2.03435 0.47506,-1.74291 1.30423,-0.2163 -0.0265,1.14421 0.35998,1.85899 -0.0326,1.319 0.12995,2.66842 -0.1463,3.96522 -0.70459,2.10885 -3.80516,2.63871 -5.24522,0.97876 -1.12165,-1.18938 -0.75786,-2.86931 -0.81674,-4.34895 -1e-5,-0.5467 3e-5,-1.09345 -2e-5,-1.64011 z m 11.729,6.27403 c 1.38739,0.19381 2.4182,-0.93973 3.41382,-1.70691 0.31005,1.25033 -1.35081,1.86816 -2.25185,2.31715 -2.09912,0.68743 -4.58217,-0.72568 -4.99157,-2.91628 -0.63364,-2.42638 1.54304,-5.15675 4.08433,-4.85063 0.96489,0.20254 2.57717,0.12164 2.30566,1.55135 0.019,0.8848 -0.97074,-0.75012 -1.60577,-0.64789 -1.47774,-0.45937 -3.26283,0.27115 -3.81255,1.76498 -0.82779,1.93149 0.77579,4.40132 2.85793,4.48823 z m 8.48269,0 c 1.38739,0.19381 2.41819,-0.93973 3.41381,-1.70691 0.31008,1.25033 -1.35081,1.86816 -2.25185,2.31715 -2.09912,0.68743 -4.58217,-0.72568 -4.99156,-2.91628 -0.63364,-2.42638 1.54303,-5.15675 4.08432,-4.85062 0.96489,0.20255 2.57723,0.12162 2.30577,1.55134 0.019,0.88479 -0.97075,-0.75013 -1.60578,-0.6479 -1.47775,-0.45935 -3.26283,0.27115 -3.81255,1.76499 -0.82779,1.93147 0.77575,4.40124 2.85784,4.48823 z m 4.92011,-6.21357 c -0.46237,-1.05472 1.46785,-0.87 0.90798,0.0721 -0.29701,0.20262 -1.35908,1.75871 -1.121,0.76024 0.17308,-0.20859 0.61833,-0.60763 0.21302,-0.83229 z m 3.35742,6.68796 c -0.61354,-0.0889 -1.28817,0.13467 -1.24228,-0.76871 -0.45351,-1.38505 0.88236,0.37208 1.5149,0.19957 1.54163,0.49241 2.63526,-1.66301 1.18654,-2.50436 -1.02539,-0.7552 -2.59127,-1.21768 -2.82623,-2.65841 -0.1845,-1.68155 2.02406,-2.34238 3.21149,-1.48423 1.04662,-0.54547 0.81089,2.47194 0.21742,1.00582 -0.62122,-0.86184 -2.69761,-1.04136 -2.59631,0.38121 0.43377,1.32009 2.13642,1.37782 2.95748,2.36239 1.29227,1.17974 0.32395,3.64045 -1.42948,3.60623 -0.33655,0.0206 -0.67325,-0.04 -0.99353,-0.13951 z m 6.69623,0.0558 c 0.51931,-1.07017 0.22893,-2.259 0.30199,-3.40051 0.003,-1.18877 0.008,-2.37766 -0.0136,-3.56631 -0.80394,-0.83911 0.49246,-0.64395 1.01546,-0.65144 1.20869,0 2.41738,0 3.62607,0 0.34956,0.35834 0.5083,1.51681 -0.21053,0.77681 -1.09595,0.09 -2.74771,-0.28446 -3.5149,0.17215 0,0.70383 0,1.40766 0,2.11149 1.16549,-0.15376 2.56425,0.34314 3.56154,-0.32258 0.41782,0.35484 0.35525,1.89703 -0.54105,1.12597 -0.99603,-0.11144 -2.01514,-0.0205 -3.02051,-0.05 0.15566,1.18358 -0.34601,2.60215 0.32258,3.61735 -0.23879,0.43115 -1.09989,0.0759 -1.52703,0.18706 z m 6.51536,-7.61814 c 0.73228,0.0574 1.99327,-0.31833 1.24211,0.75209 -0.0785,2.06376 -0.031,4.14427 -0.0235,6.21466 1.18302,0.94576 -2.12182,0.99842 -0.96191,0.0194 0.088,-1.95087 0.0343,-3.92126 0.0394,-5.88064 0.20325,-0.50887 -0.32818,-0.75545 -0.29604,-1.10552 z m 4.49688,0.76275 c -0.53311,0.78163 -0.0893,1.97869 -0.23693,2.92811 -0.003,1.09197 -0.008,2.18407 0.0136,3.27591 1.18302,0.94576 -2.12182,0.99842 -0.96191,0.0194 0.088,-1.95087 0.0343,-3.92126 0.0394,-5.88064 0.0957,-0.47588 -0.72957,-1.31588 0.29159,-1.09624 1.39649,0.0542 3.45717,-0.354 4.13107,1.25292 0.52765,1.37589 -0.94553,2.27104 -1.86612,2.62277 1.27229,0.7729 2.04314,2.10808 2.78086,3.35879 0.82697,0.50946 -1.68145,0.75176 -1.25228,-0.13977 -0.44787,-1.43604 -1.55615,-2.69797 -2.82715,-3.39518 0.18356,-0.9235 2.2866,-0.20241 2.28685,-1.63801 0.0702,-1.32256 -1.43484,-1.4035 -2.39896,-1.30803 z m 6.48281,6.79958 c -0.61354,-0.0889 -1.28814,0.13466 -1.24226,-0.76871 -0.45355,-1.38502 0.88226,0.37209 1.5148,0.19957 1.54163,0.49241 2.63528,-1.66301 1.18655,-2.50436 -1.02539,-0.7552 -2.59128,-1.21767 -2.82624,-2.65841 -0.1845,-1.68155 2.02407,-2.34238 3.2115,-1.48423 1.04661,-0.54546 0.81089,2.47194 0.21742,1.00582 -0.62122,-0.86184 -2.69762,-1.04136 -2.59631,0.38121 0.43377,1.32009 2.13642,1.37782 2.95748,2.36239 1.29226,1.17975 0.32394,3.64045 -1.42949,3.60623 -0.33652,0.0206 -0.67317,-0.04 -0.99345,-0.13951 z m 11.33833,-7.56233 c 0.3516,0.3614 0.5074,1.51781 -0.21392,0.77681 -0.95172,0.0762 -2.41225,-0.26463 -3.04094,0.17095 0.007,2.00637 -0.0182,4.01289 0.0132,6.01914 1.18302,0.94576 -2.12182,0.99842 -0.96191,0.0194 0.0887,-2.06902 0.0273,-4.15542 0.0457,-6.23277 -1.14095,0.12732 -2.4593,-0.29114 -3.46933,0.28772 -0.40575,-0.67436 0.46839,-1.2475 1.12583,-1.04122 2.16714,-3e-5 4.3343,5e-5 6.50142,-4e-5 z"
       id="text14"
       style="font-size:9.525px;line-height:1;font-family:'Della Respira';-inkscape-font-specification:'Della Respira';text-align:center;letter-spacing:0.264583px;text-anchor:middle;opacity:1;fill:#ffffff;fill-opacity:1;stroke:none;stroke-width:0.6;stroke-linecap:round;stroke-dasharray:none;stroke-opacity:1;paint-order:stroke markers fill"
       aria-label="UCC'S FIRST"
       inkscape:label="uccs" /><rect
       style="display:none;fill:#ffffff;fill-opacity:0.566929;stroke-width:0;stroke-linecap:round;paint-order:fill markers stroke"
       id="rect15"
       width="108.7515"
       height="60.136478"
       x="115.88144"
       y="136.51125"
       rx="0"
       ry="0" /></g></svg>
