<?xml version="1.0" encoding="UTF-8" standalone="no"?>
<!-- Created with Inkscape (http://www.inkscape.org/) -->

<svg
   width="108.7515mm"
   height="60.136478mm"
   viewBox="0 0 108.75151 60.136478"
   version="1.1"
   id="svg1"
   xml:space="preserve"
   inkscape:version="1.3 (0e150ed, 2023-07-21)"
   sodipodi:docname="homepage-banner-location.svg"
   inkscape:export-filename="homepage-banner-location.svg"
   inkscape:export-xdpi="300"
   inkscape:export-ydpi="300"
   xmlns:inkscape="http://www.inkscape.org/namespaces/inkscape"
   xmlns:sodipodi="http://sodipodi.sourceforge.net/DTD/sodipodi-0.dtd"
   xmlns:xlink="http://www.w3.org/1999/xlink"
   xmlns="http://www.w3.org/2000/svg"
   xmlns:svg="http://www.w3.org/2000/svg"><sodipodi:namedview
     id="namedview1"
     pagecolor="#ffffff"
     bordercolor="#000000"
     borderopacity="0.25"
     inkscape:showpageshadow="2"
     inkscape:pageopacity="0.0"
     inkscape:pagecheckerboard="0"
     inkscape:deskcolor="#d1d1d1"
     inkscape:document-units="mm"
     inkscape:zoom="1.8718731"
     inkscape:cx="220.63461"
     inkscape:cy="22.170306"
     inkscape:window-width="1872"
     inkscape:window-height="968"
     inkscape:window-x="1968"
     inkscape:window-y="25"
     inkscape:window-maximized="0"
     inkscape:current-layer="layer1" /><defs
     id="defs1"><inkscape:path-effect
       effect="bend_path"
       id="path-effect11"
       is_visible="true"
       lpeversion="1"
       bendpath="m 125.63643,165.46003 c 0,0 19.71292,-3.44256 29.68078,-3.95771 11.76432,-0.60799 22.02735,0.66389 33.77009,1.60037 9.31212,0.74264 28.77847,5.04293 28.77847,5.04293"
       prop_scale="1"
       scale_y_rel="false"
       vertical="false"
       hide_knot="false"
       bendpath-nodetypes="cssc" /><linearGradient
       id="linearGradient1"
       inkscape:collect="always"><stop
         style="stop-color:#00285e;stop-opacity:1;"
         offset="0"
         id="stop1" /><stop
         style="stop-color:#00012b;stop-opacity:1;"
         offset="1"
         id="stop2" /></linearGradient><radialGradient
       inkscape:collect="always"
       xlink:href="#linearGradient1"
       id="radialGradient3"
       cx="169.77441"
       cy="166.62114"
       fx="169.77441"
       fy="166.62114"
       r="53.330948"
       gradientTransform="matrix(1,0,0,0.54657367,0,75.550412)"
       gradientUnits="userSpaceOnUse" /><filter
       inkscape:collect="always"
       style="color-interpolation-filters:sRGB"
       id="filter4"
       x="-0.019918585"
       y="-0.034454082"
       width="1.0415766"
       height="1.0708808"><feGaussianBlur
         inkscape:collect="always"
         stdDeviation="0.5938577"
         id="feGaussianBlur4" /></filter></defs><g
     inkscape:label="Layer 1"
     inkscape:groupmode="layer"
     id="layer1"
     transform="translate(-115.88144,-136.51125)"><rect
       style="display:none;opacity:1;fill:#2b1100;fill-opacity:1;stroke:none;stroke-width:0.600001;stroke-linecap:round;stroke-dasharray:none;stroke-opacity:1;paint-order:markers stroke fill"
       id="rect4"
       width="122.5477"
       height="72.086884"
       x="111.217"
       y="131.70546"
       transform="translate(-1.0416666e-6)" /><path
       style="display:inline;opacity:0.2;fill:none;stroke:#00aaff;stroke-width:1.4;stroke-dasharray:none;stroke-opacity:1;paint-order:markers fill stroke;filter:url(#filter4)"
       d="m 212.18009,195.34469 c 0.39648,-1.77052 0.22852,-4.52666 -0.35797,-5.87408 -0.39788,-0.91411 -0.44914,-1.38432 -0.16334,-1.49845 0.22906,-0.0915 0.72313,-0.56061 1.09793,-1.04255 0.43149,-0.55484 1.31284,-0.93787 2.40282,-1.04428 2.01346,-0.19654 2.4712,-0.46319 2.4712,-1.43956 0,-0.80964 2.55031,-3.70021 3.26511,-3.70074 0.25654,-1.9e-4 0.46644,-0.20151 0.46644,-0.44737 0,-0.24587 0.33584,-0.44703 0.74632,-0.44703 1.0181,0 0.94664,-0.78565 -0.0933,-1.0256 -0.83304,-0.19221 -0.83272,-0.1942 0.0414,-0.25459 l 0.88094,-0.0609 -0.865,-0.83909 c -0.63358,-0.61461 -1.2436,-0.77825 -2.28027,-0.61167 -0.87377,0.1404 -1.41527,0.0447 -1.41527,-0.25031 0,-0.30825 0.84069,-0.41193 2.3699,-0.2923 l 2.3699,0.1854 0.0686,-2.74015 c 0.0377,-1.50708 0.15738,-2.91218 0.26584,-3.1224 0.10845,-0.21023 -0.0794,-0.5094 -0.41748,-0.6648 -0.33807,-0.15541 -0.45807,-0.40545 -0.26666,-0.55563 0.51535,-0.40436 0.92778,-10.65598 0.44313,-11.01479 -0.27172,-0.20118 -0.26767,-0.46893 0.0133,-0.87441 0.34113,-0.49242 0.4218,-2.07221 0.33151,-6.49245 -0.007,-0.37103 0.0362,-0.87394 0.0974,-1.11755 0.0612,-0.24363 -0.0846,-1.09672 -0.32379,-1.89579 l -0.43495,-1.45282 h -3.13134 c -2.9934,0 -3.15041,-0.0501 -3.56439,-1.13859 -0.23817,-0.62623 -0.43305,-1.53146 -0.43305,-2.01162 0,-0.69017 -0.25399,-0.86969 -1.21276,-0.85718 -0.66701,0.009 -1.63255,0.30332 -2.14564,0.6547 -0.99065,0.67842 -4.47787,0.91901 -4.47787,0.30895 0,-0.19887 -0.24031,-0.75205 -0.53401,-1.22931 -0.51917,-0.8436 -0.54445,-0.83666 -0.90923,0.24982 -0.32546,0.96934 -0.38184,0.99899 -0.42511,0.22351 l -0.0499,-0.89404 -0.3207,0.89404 c -0.27423,0.76452 -0.3245,0.7807 -0.34692,0.11175 -0.0257,-0.767 -0.77254,-1.15218 -0.77254,-0.39844 0,0.59033 -4.05354,2.25872 -4.20091,1.72905 -0.0819,-0.29415 -0.41127,-0.27014 -0.93942,0.0685 -0.70295,0.45067 -0.78068,0.41941 -0.57256,-0.2303 0.20582,-0.64252 0.0623,-0.70898 -0.98793,-0.45736 -0.6758,0.16191 -1.38558,0.29439 -1.57727,0.29439 -0.1917,0 -0.22833,0.23297 -0.0814,0.51773 0.36346,0.70452 -4.06925,0.19919 -8.14716,-0.92877 -1.69618,-0.46916 -4.64899,-1.07734 -6.56177,-1.35149 -1.91279,-0.27417 -5.43911,-0.90163 -7.83627,-1.39437 -9.2234,-1.8959 -15.87768,-1.68769 -30.18229,0.94432 -7.35311,1.35296 -10.44105,1.65435 -8.78635,0.85758 1.28934,-0.62085 0.99681,-1.01496 -0.50318,-0.67784 -0.73852,0.16596 -1.25639,0.13433 -1.15081,-0.0703 0.10557,-0.20466 -0.70792,-0.4036 -1.80777,-0.4421 -1.47571,-0.0517 -2.85002,-0.54734 -5.24449,-1.89154 -4.11082,-2.30775 -4.52499,-2.30333 -0.9025,0.01 2.92669,1.8687 2.68222,2.02306 -0.68058,0.42971 -1.09265,-0.51772 -1.88035,-0.73532 -1.75047,-0.48355 0.36868,0.71461 -0.094,0.55107 -1.98037,-0.7 l -1.74566,-1.15773 1.11947,1.2018 1.11947,1.20182 -1.11947,-0.28009 c -1.19293,-0.29847 -1.31837,-0.41106 3.63828,3.26552 0.76962,0.57088 1.39933,1.10496 1.39933,1.18681 0,0.44992 -3.49563,-0.55484 -4.92086,-1.41441 -0.97682,-0.58913 -0.99129,-0.57864 -0.55975,0.40604 0.24365,0.55595 1.11468,1.7737 1.93563,2.70612 1.39396,1.58325 1.41862,1.65247 0.37315,1.04737 -1.80008,-1.04183 -4.17113,-2.1059 -3.37285,-1.51365 0.40252,0.29865 1.19261,1.07168 1.75575,1.71786 0.56313,0.64617 1.08611,1.10033 1.16216,1.00922 0.0761,-0.091 0.0645,0.4363 -0.0256,1.172 -0.0901,0.73571 -0.31274,1.36281 -0.49468,1.39354 -0.18194,0.0308 -0.49873,0.10613 -0.70396,0.16764 -0.20524,0.0614 -0.48921,0.1369 -0.63106,0.16763 -0.14184,0.0308 -0.006,0.30732 0.30311,0.61465 0.30855,0.30734 0.76363,1.12982 1.01129,1.82774 0.39253,1.10621 0.3656,1.29548 -0.20994,1.47579 -0.71907,0.22526 -1.69353,2.2863 -1.37389,2.90587 0.10902,0.21132 -0.0216,0.3873 -0.29024,0.39107 -0.35494,0.004 -0.33547,0.1253 0.0712,0.44018 0.30785,0.23833 0.39181,0.43731 0.18657,0.44218 -0.48524,0.0115 -0.62275,3.13402 -0.13803,3.13402 0.20276,0 0.27008,0.19107 0.1496,0.4246 -0.12047,0.23353 0.16347,0.68069 0.631,0.9937 0.83133,0.55657 0.82127,0.57462 -0.45598,0.81903 -0.77744,0.14875 -1.26604,0.47837 -1.2072,0.81436 0.0544,0.31047 0.13296,1.05838 0.17467,1.66206 0.0417,0.60366 0.20713,1.09758 0.36759,1.09758 0.16048,0 0.29178,0.29465 0.29178,0.6548 0,0.36014 0.35853,0.88467 0.79672,1.16561 0.62454,0.40041 0.68711,0.59197 0.28947,0.88637 -0.33076,0.24488 -0.9411,-0.0208 -1.75413,-0.76373 -0.68577,-0.62662 -1.32946,-1.04036 -1.43041,-0.9194 -0.10095,0.12093 0.3268,0.65523 0.95054,1.18731 0.62377,0.53207 1.09522,1.14342 1.04767,1.35854 -0.0476,0.21512 0.45687,1.08887 1.12092,1.94166 0.96935,1.24485 1.09436,1.60248 0.63414,1.81404 -0.85283,0.39204 0.15572,1.53651 1.13272,1.28537 0.57036,-0.14661 0.63111,-0.0876 0.24612,0.23891 -0.41779,0.35433 -0.38367,0.52235 0.18658,0.91923 0.62012,0.43161 0.57848,0.48718 -0.37409,0.49925 -0.90998,0.0115 -1.0017,0.11488 -0.60732,0.68414 0.39842,0.57512 0.25889,0.68007 -0.98049,0.73751 -1.17246,0.0543 -1.24593,0.10283 -0.38952,0.2566 0.64703,0.11623 0.9866,0.40473 0.87745,0.74547 -0.0979,0.30572 0.38508,1.21548 1.07337,2.02168 1.1792,1.38121 1.43013,1.47476 4.34673,1.62063 2.41995,0.12101 3.09637,0.29884 3.10019,0.81501 0.01,1.32276 2.00889,2.58449 5.12866,3.23694 2.02367,0.42322 3.11414,0.48672 3.19775,0.18619 0.0697,-0.25081 1.24636,-0.4624 2.61459,-0.4702 2.83508,-0.0161 8.39221,-0.92176 12.08307,-1.96911 3.05069,-0.86568 6.97107,-1.34756 6.44987,-0.79278 -0.56327,0.59954 -12.52325,3.1368 -16.97812,3.60184 l -3.91813,0.409 4.66445,-0.21404 c 2.56544,-0.11771 5.75591,-0.507 7.08994,-0.86509 1.33403,-0.35809 4.98089,-1.23908 8.10413,-1.95774 5.61263,-1.29148 5.79044,-1.30379 15.29938,-1.05843 5.29141,0.13654 9.9566,0.42225 10.36707,0.63492 0.94345,0.4888 10.63573,1.54299 12.87386,1.40023 1.91681,-0.12226 6.34365,0.8131 6.34365,1.34038 0,0.19304 0.27941,0.22254 0.62095,0.0655 0.41751,-0.19193 0.53254,-0.11412 0.35112,0.23754 -0.16353,0.317 -0.032,0.523 0.33397,0.523 0.33207,0 0.51137,0.1791 0.39844,0.39801 -0.20914,0.40537 1.4129,0.88568 4.05473,1.20063 1.86731,0.22262 2.30634,0.74495 1.46913,1.7479 -0.62576,0.74963 -0.62258,0.81443 0.0693,1.41023 0.39886,0.34347 1.0034,0.90439 1.34344,1.24649 0.54189,0.54518 0.64495,0.50274 0.83451,-0.34375 z m 5.82379,-19.96431 c -0.40071,-0.31022 -0.003,-0.43528 1.39934,-0.44018 1.07748,-0.003 1.95906,0.19432 1.95906,0.44018 0,0.57171 -2.61993,0.57171 -3.3584,0 z m -95.79974,-15.02207 c 0.26116,-0.31287 1.39141,0.3214 1.39141,0.78083 0,0.22836 -0.34995,0.19056 -0.77828,-0.084 -0.42805,-0.27444 -0.70395,-0.58799 -0.61313,-0.6968 z m -0.75535,-8.03563 c 0.12889,-0.15439 0.70661,-0.0745 1.28383,0.17758 0.64745,0.28272 0.79933,0.47182 0.39648,0.49359 -0.35916,0.0195 -0.65302,0.27955 -0.65302,0.5781 0,0.3418 -0.23361,0.26296 -0.63081,-0.21287 -0.34695,-0.41562 -0.52536,-0.88201 -0.39648,-1.0364 z m -0.34688,-12.10115 c 0.10493,-0.12571 0.52997,-0.0112 0.94452,0.2547 0.94098,0.60329 1.28851,0.616 0.98938,0.0362 -0.36767,-0.71265 0.42003,-0.51678 0.93998,0.23374 0.40046,0.57803 0.36512,0.63287 -0.23417,0.36333 -0.64342,-0.28938 -0.65661,-0.2451 -0.14921,0.50098 0.48396,0.71161 0.34532,0.68929 -1.06234,-0.171 -0.89042,-0.54419 -1.53309,-1.09227 -1.42816,-1.21797 z m -0.0252,37.54494 c -0.25655,-0.124 -0.67634,-0.124 -0.93288,0 -0.25655,0.12401 -0.0467,0.22548 0.46643,0.22548 0.51309,0 0.72299,-0.10144 0.46645,-0.22548 z m -2.5188,-6.40931 c -0.12684,-0.24586 -0.39854,-0.44703 -0.60378,-0.44703 -0.20524,0 -0.26937,0.20117 -0.14253,0.44703 0.12685,0.24586 0.39854,0.44702 0.60378,0.44702 0.20523,0 0.26937,-0.20116 0.14253,-0.44702 z"
       id="path4"
       inkscape:label="glow"
       sodipodi:nodetypes="cscscsssssccssssccssssccsccssscsscsscsssccssscscccccccccccccccscssccccscsccccccscccscscccsssscccccsssccccccsccsccscsccsssssscsssssssccscsscsccccccsccccscccccccsscsscss" /><path
       style="fill:url(#radialGradient3);stroke:none;stroke-width:0.4;stroke-dasharray:none;stroke-opacity:1;paint-order:markers fill stroke"
       d="m 211.61895,195.06624 c 0.39648,-1.77052 0.22852,-4.52666 -0.35797,-5.87408 -0.39788,-0.91411 -0.44914,-1.38432 -0.16334,-1.49845 0.22906,-0.0915 0.72313,-0.56061 1.09793,-1.04255 0.43149,-0.55484 1.31284,-0.93787 2.40282,-1.04428 2.01346,-0.19654 2.4712,-0.46319 2.4712,-1.43956 0,-0.80964 2.55031,-3.70021 3.26511,-3.70074 0.25654,-1.9e-4 0.46644,-0.20151 0.46644,-0.44737 0,-0.24587 0.33584,-0.44703 0.74632,-0.44703 1.0181,0 0.94664,-0.78565 -0.0933,-1.0256 -0.83304,-0.19221 -0.83272,-0.1942 0.0414,-0.25459 l 0.88094,-0.0609 -0.865,-0.83909 c -0.63358,-0.61461 -1.2436,-0.77825 -2.28027,-0.61167 -0.87377,0.1404 -1.41527,0.0447 -1.41527,-0.25031 0,-0.30825 0.84069,-0.41193 2.3699,-0.2923 l 2.3699,0.1854 0.0686,-2.74015 c 0.0377,-1.50708 0.15738,-2.91218 0.26584,-3.1224 0.10845,-0.21023 -0.0794,-0.5094 -0.41748,-0.6648 -0.33807,-0.15541 -0.45807,-0.40545 -0.26666,-0.55563 0.51535,-0.40436 0.92778,-10.65598 0.44313,-11.01479 -0.27172,-0.20118 -0.26767,-0.46893 0.0133,-0.87441 0.34113,-0.49242 0.4218,-2.07221 0.33151,-6.49245 -0.007,-0.37103 0.0362,-0.87394 0.0974,-1.11755 0.0612,-0.24363 -0.0846,-1.09672 -0.32379,-1.89579 l -0.43495,-1.45282 h -3.13134 c -2.9934,0 -3.15041,-0.0501 -3.56439,-1.13859 -0.23817,-0.62623 -0.43305,-1.53146 -0.43305,-2.01162 0,-0.69017 -0.25399,-0.86969 -1.21276,-0.85718 -0.66701,0.009 -1.63255,0.30332 -2.14564,0.6547 -0.99065,0.67842 -4.47787,0.91901 -4.47787,0.30895 0,-0.19887 -0.24031,-0.75205 -0.53401,-1.22931 -0.51917,-0.8436 -0.54445,-0.83666 -0.90923,0.24982 -0.32546,0.96934 -0.38184,0.99899 -0.42511,0.22351 l -0.0499,-0.89404 -0.3207,0.89404 c -0.27423,0.76452 -0.3245,0.7807 -0.34692,0.11175 -0.0257,-0.767 -0.77254,-1.15218 -0.77254,-0.39844 0,0.59033 -4.05354,2.25872 -4.20091,1.72905 -0.0819,-0.29415 -0.41127,-0.27014 -0.93942,0.0685 -0.70295,0.45067 -0.78068,0.41941 -0.57256,-0.2303 0.20582,-0.64252 0.0623,-0.70898 -0.98793,-0.45736 -0.6758,0.16191 -1.38558,0.29439 -1.57727,0.29439 -0.1917,0 -0.22833,0.23297 -0.0814,0.51773 0.36346,0.70452 -4.06925,0.19919 -8.14716,-0.92877 -1.69618,-0.46916 -4.64899,-1.07734 -6.56177,-1.35149 -1.91279,-0.27417 -5.43911,-0.90163 -7.83627,-1.39437 -9.2234,-1.8959 -15.87768,-1.68769 -30.18229,0.94432 -7.35311,1.35296 -10.44105,1.65435 -8.78635,0.85758 1.28934,-0.62085 0.99681,-1.01496 -0.50318,-0.67784 -0.73852,0.16596 -1.25639,0.13433 -1.15081,-0.0703 0.10557,-0.20466 -0.70792,-0.4036 -1.80777,-0.4421 -1.47571,-0.0517 -2.85002,-0.54734 -5.24449,-1.89154 -4.11082,-2.30775 -4.52499,-2.30333 -0.9025,0.01 2.92669,1.8687 2.68222,2.02306 -0.68058,0.42971 -1.09265,-0.51772 -1.88035,-0.73532 -1.75047,-0.48355 0.36868,0.71461 -0.094,0.55107 -1.98037,-0.7 l -1.74566,-1.15773 1.11947,1.2018 1.11947,1.20182 -1.11947,-0.28009 c -1.19293,-0.29847 -1.31837,-0.41106 3.63828,3.26552 0.76962,0.57088 1.39933,1.10496 1.39933,1.18681 0,0.44992 -3.49563,-0.55484 -4.92086,-1.41441 -0.97682,-0.58913 -0.99129,-0.57864 -0.55975,0.40604 0.24365,0.55595 1.11468,1.7737 1.93563,2.70612 1.39396,1.58325 1.41862,1.65247 0.37315,1.04737 -1.80008,-1.04183 -4.17113,-2.1059 -3.37285,-1.51365 0.40252,0.29865 1.19261,1.07168 1.75575,1.71786 0.56313,0.64617 1.08611,1.10033 1.16216,1.00922 0.0761,-0.091 0.0645,0.4363 -0.0256,1.172 -0.0901,0.73571 -0.31274,1.36281 -0.49468,1.39354 -0.18194,0.0308 -0.49873,0.10613 -0.70396,0.16764 -0.20524,0.0614 -0.48921,0.1369 -0.63106,0.16763 -0.14184,0.0308 -0.006,0.30732 0.30311,0.61465 0.30855,0.30734 0.76363,1.12982 1.01129,1.82774 0.39253,1.10621 0.3656,1.29548 -0.20994,1.47579 -0.71907,0.22526 -1.69353,2.2863 -1.37389,2.90587 0.10902,0.21132 -0.0216,0.3873 -0.29024,0.39107 -0.35494,0.004 -0.33547,0.1253 0.0712,0.44018 0.30785,0.23833 0.39181,0.43731 0.18657,0.44218 -0.48524,0.0115 -0.62275,3.13402 -0.13803,3.13402 0.20276,0 0.27008,0.19107 0.1496,0.4246 -0.12047,0.23353 0.16347,0.68069 0.631,0.9937 0.83133,0.55657 0.82127,0.57462 -0.45598,0.81903 -0.77744,0.14875 -1.26604,0.47837 -1.2072,0.81436 0.0544,0.31047 0.13296,1.05838 0.17467,1.66206 0.0417,0.60366 0.20713,1.09758 0.36759,1.09758 0.16048,0 0.29178,0.29465 0.29178,0.6548 0,0.36014 0.35853,0.88467 0.79672,1.16561 0.62454,0.40041 0.68711,0.59197 0.28947,0.88637 -0.33076,0.24488 -0.9411,-0.0208 -1.75413,-0.76373 -0.68577,-0.62662 -1.32946,-1.04036 -1.43041,-0.9194 -0.10095,0.12093 0.3268,0.65523 0.95054,1.18731 0.62377,0.53207 1.09522,1.14342 1.04767,1.35854 -0.0476,0.21512 0.45687,1.08887 1.12092,1.94166 0.96935,1.24485 1.09436,1.60248 0.63414,1.81404 -0.85283,0.39204 0.15572,1.53651 1.13272,1.28537 0.57036,-0.14661 0.63111,-0.0876 0.24612,0.23891 -0.41779,0.35433 -0.38367,0.52235 0.18658,0.91923 0.62012,0.43161 0.57848,0.48718 -0.37409,0.49925 -0.90998,0.0115 -1.0017,0.11488 -0.60732,0.68414 0.39842,0.57512 0.25889,0.68007 -0.98049,0.73751 -1.17246,0.0543 -1.24593,0.10283 -0.38952,0.2566 0.64703,0.11623 0.9866,0.40473 0.87745,0.74547 -0.0979,0.30572 0.38508,1.21548 1.07337,2.02168 1.1792,1.38121 1.43013,1.47476 4.34673,1.62063 2.41995,0.12101 3.09637,0.29884 3.10019,0.81501 0.01,1.32276 2.00889,2.58449 5.12866,3.23694 2.02367,0.42322 3.11414,0.48672 3.19775,0.18619 0.0697,-0.25081 1.24636,-0.4624 2.61459,-0.4702 2.83508,-0.0161 8.39221,-0.92176 12.08307,-1.96911 3.05069,-0.86568 6.97107,-1.34756 6.44987,-0.79278 -0.56327,0.59954 -12.52325,3.1368 -16.97812,3.60184 l -3.91813,0.409 4.66445,-0.21404 c 2.56544,-0.11771 5.75591,-0.507 7.08994,-0.86509 1.33403,-0.35809 4.98089,-1.23908 8.10413,-1.95774 5.61263,-1.29148 5.79044,-1.30379 15.29938,-1.05843 5.29141,0.13654 9.9566,0.42225 10.36707,0.63492 0.94345,0.4888 10.63573,1.54299 12.87386,1.40023 1.91681,-0.12226 6.34365,0.8131 6.34365,1.34038 0,0.19304 0.27941,0.22254 0.62095,0.0655 0.41751,-0.19193 0.53254,-0.11412 0.35112,0.23754 -0.16353,0.317 -0.032,0.523 0.33397,0.523 0.33207,0 0.51137,0.1791 0.39844,0.39801 -0.20914,0.40537 1.4129,0.88568 4.05473,1.20063 1.86731,0.22262 2.30634,0.74495 1.46913,1.7479 -0.62576,0.74963 -0.62258,0.81443 0.0693,1.41023 0.39886,0.34347 1.0034,0.90439 1.34344,1.24649 0.54189,0.54518 0.64495,0.50274 0.83451,-0.34375 z m 5.82379,-19.96431 c -0.40071,-0.31022 -0.003,-0.43528 1.39934,-0.44018 1.07748,-0.003 1.95906,0.19432 1.95906,0.44018 0,0.57171 -2.61993,0.57171 -3.3584,0 z M 121.643,160.07986 c 0.26116,-0.31287 1.39141,0.3214 1.39141,0.78083 0,0.22836 -0.34995,0.19056 -0.77828,-0.084 -0.42805,-0.27444 -0.70395,-0.58799 -0.61313,-0.6968 z m -0.75535,-8.03563 c 0.12889,-0.15439 0.70661,-0.0745 1.28383,0.17758 0.64745,0.28272 0.79933,0.47182 0.39648,0.49359 -0.35916,0.0195 -0.65302,0.27955 -0.65302,0.5781 0,0.3418 -0.23361,0.26296 -0.63081,-0.21287 -0.34695,-0.41562 -0.52536,-0.88201 -0.39648,-1.0364 z m -0.34688,-12.10115 c 0.10493,-0.12571 0.52997,-0.0112 0.94452,0.2547 0.94098,0.60329 1.28851,0.616 0.98938,0.0362 -0.36767,-0.71265 0.42003,-0.51678 0.93998,0.23374 0.40046,0.57803 0.36512,0.63287 -0.23417,0.36333 -0.64342,-0.28938 -0.65661,-0.2451 -0.14921,0.50098 0.48396,0.71161 0.34532,0.68929 -1.06234,-0.171 -0.89042,-0.54419 -1.53309,-1.09227 -1.42816,-1.21797 z m -0.0252,37.54494 c -0.25655,-0.124 -0.67634,-0.124 -0.93288,0 -0.25655,0.12401 -0.0467,0.22548 0.46643,0.22548 0.51309,0 0.72299,-0.10144 0.46645,-0.22548 z m -2.5188,-6.40931 c -0.12684,-0.24586 -0.39854,-0.44703 -0.60378,-0.44703 -0.20524,0 -0.26937,0.20117 -0.14253,0.44703 0.12685,0.24586 0.39854,0.44702 0.60378,0.44702 0.20523,0 0.26937,-0.20116 0.14253,-0.44702 z"
       id="path8"
       sodipodi:nodetypes="cscscsssssccssssccssssccsccssscsscsscsssccssscscccccccccccccccscssccccscsccccccscccscscccsssscccccsssccccccsccsccscsccsssssscsssssssccscsscsccccccsccccscccccccsscsscss" /><path
       id="text11"
       style="font-size:8.0932px;line-height:1;font-family:'Della Respira';-inkscape-font-specification:'Della Respira';text-align:center;letter-spacing:0.224809px;text-anchor:middle;fill:#ffffff;stroke:none;stroke-width:0.6;stroke-linecap:round;stroke-dasharray:none;stroke-opacity:1;paint-order:markers stroke fill"
       d="m 176.25139,143.44871 c -0.78771,-0.0785 -1.64884,0.47273 -1.23264,1.19994 1.37072,-0.59437 3.04487,0.026 4.51523,-0.008 -0.22189,2.44883 -0.34409,4.91589 -0.65335,7.34783 -1.55017,1.0333 2.60844,1.31461 1.21346,0.0758 0.15647,-2.36986 0.3839,-4.73417 0.57124,-7.10166 0.84033,-0.4484 2.64441,0.10934 3.83247,0.12221 0.60907,0.70708 0.95293,-0.18569 0.34386,-0.89276 -2.68338,-0.23387 -5.43778,-0.46746 -8.26297,-0.66969 -0.1049,-0.0381 -0.21513,-0.0624 -0.32729,-0.0735 0,-2e-5 -1e-5,-4e-5 -1e-5,-7e-5 z m -5.27613,-0.30886 c -0.0942,-0.005 -0.18869,-0.007 -0.28299,-0.004 -1.32561,0.0333 -2.59456,0.76974 -2.4856,2.07967 0.24382,1.69784 2.31959,2.35999 3.59731,3.31845 1.90919,1.14322 0.16122,3.52103 -1.71399,2.87265 -0.83305,0.16208 -2.48918,-1.98555 -1.96503,-0.32631 -0.10575,1.06306 0.78652,0.83703 1.57685,0.9809 0.40953,0.13774 0.84081,0.23183 1.27665,0.23136 2.2244,0.16178 3.72338,-2.64051 2.11451,-4.14822 -0.9966,-1.22797 -3.24969,-1.41275 -3.75878,-2.9969 -0.0574,-1.71348 2.74237,-1.31799 3.48882,-0.26944 0.67755,1.77682 1.21774,-1.76687 -0.2153,-1.20378 -0.37989,-0.27615 -0.85405,-0.44472 -1.35104,-0.50908 -0.0932,-0.0119 -0.18722,-0.0205 -0.2814,-0.0254 -1e-5,3e-5 -1e-5,5e-5 -1e-5,8e-5 z m -11.44013,-0.25288 c -1.9e-4,1.8e-4 -3.9e-4,3.5e-4 -5.8e-4,5.3e-4 -0.75338,0.0312 0.14225,0.84308 0.0301,1.33587 0.0203,2.36237 0.11969,4.59087 0.027,6.94436 -1.52983,1.16096 2.86914,1.07619 1.29092,-0.0314 -0.0321,-1.29592 -0.0292,-2.57141 -0.0282,-3.86755 0.20053,-1.12138 -0.42483,-2.53495 0.32584,-3.45761 1.36946,-0.11325 3.44834,0.0129 3.31812,1.5782 -0.0366,1.69484 -2.91013,0.81034 -3.16336,1.9004 1.75422,0.82931 3.20173,2.34311 3.75081,4.05758 -0.5874,1.02746 2.70495,0.84984 1.64293,0.21278 -0.91244,-1.50378 -1.90146,-3.11936 -3.61865,-4.05054 1.24989,-0.39707 3.29245,-1.41109 2.61733,-3.04749 -0.87728,-1.93529 -3.7587,-1.48625 -5.76122,-1.53645 -0.18218,-0.0312 -0.32344,-0.0431 -0.43101,-0.0387 1e-5,3e-5 3e-5,5e-5 4e-5,7e-5 z m -3.49915,0.082 c -0.42035,0.0146 -0.92632,0.0804 -1.329,0.0715 -0.0268,0.41529 0.7575,0.67571 0.49135,1.28796 0.10029,2.36999 0.27552,4.58135 0.26087,6.94596 -1.50848,1.20773 2.93822,0.98951 1.3059,-0.0699 -0.0925,-2.39875 -0.24901,-4.9448 -0.22004,-7.3394 0.64698,-0.80767 0.19572,-0.92077 -0.50911,-0.89568 10e-6,-1.7e-4 2e-5,-3.3e-4 3e-5,-5e-4 z m -9.50051,0.7167 2.2e-4,0.002 c -0.76284,0.0672 -1.54197,0.21413 -0.63343,0.85969 0.188,1.38665 0.34136,2.79691 0.4958,4.18744 0.0556,1.36757 0.59838,2.6897 0.0613,4.03979 0.54176,-0.1947 1.71625,0.10121 1.97883,-0.43809 -1.006,-1.10314 -0.51933,-2.83898 -0.87808,-4.2082 1.36424,-0.1081 2.75229,-0.34477 4.15089,-0.32023 1.31678,0.8126 1.28163,-1.0069 0.6614,-1.383 -1.35504,0.88584 -3.34006,0.47045 -4.90659,0.81748 l -0.26436,-2.48303 c 1.00299,-0.64769 3.37,-0.42333 4.94078,-0.64338 1.09702,0.79772 0.77803,-0.55103 0.24077,-0.93796 -1.75768,0.12325 -3.47815,0.2764 -5.16187,0.45103 -0.18184,0.0219 -0.43238,0.0343 -0.68567,0.0569 0,-1.4e-4 1e-5,-2.9e-4 1e-5,-4.3e-4 z m -15.06406,13.86463 c -0.4468,0.10237 -0.82439,0.52926 -1.01401,1.41691 -0.69124,3.0838 -0.13214,6.78671 1.29196,9.6432 0.7048,1.49727 2.21341,2.5026 2.93213,0.65085 1.04834,-2.71555 0.53285,-6.29067 -0.52922,-9.13758 -0.38795,-1.45104 -1.69804,-2.79844 -2.68086,-2.57338 z m 40.09734,-2.70959 c -0.46572,0.004 -0.93456,0.3408 -1.31302,1.16804 -1.34782,2.86873 -1.55333,6.60401 -0.77643,9.69525 0.36763,1.61417 1.60004,2.91274 2.69256,1.26583 1.60276,-2.42564 1.89596,-6.0187 1.47914,-9.03516 -0.0615,-1.50132 -1.05783,-3.10294 -2.08225,-3.09396 z m -29.14764,1.10187 c -0.45848,0.0194 -0.88918,0.31056 -1.13667,0.97294 -0.94145,2.85126 -0.48807,6.42535 0.59105,9.32284 0.55808,2.53088 3.15184,3.39169 3.60224,0.61232 -0.0303,-0.29196 -0.0661,-0.58362 -0.10636,-0.87447 -0.60622,-1.19705 0.30261,-5.03678 -1.28202,-4.01453 0.69704,1.55909 1.3851,6.40488 -0.83505,5.16217 -1.66299,-2.01404 -2.16622,-5.29767 -1.87541,-8.02687 0.12211,-2.32983 2.02831,-2.62612 2.79472,-0.42086 0.38053,-1.5006 -0.74467,-2.77595 -1.75277,-2.73348 9e-5,-2e-5 1.8e-4,-4e-5 2.7e-4,-6e-5 z m 13.18781,-1.28992 c -0.21774,-0.0103 -0.43545,0.0369 -0.63782,0.15263 -0.24067,0.13834 -0.45876,0.37238 -0.62957,0.71976 -1.22664,2.76542 -0.99648,6.36962 -0.16232,9.33384 0.16098,1.15954 0.77695,2.03848 1.43413,2.37339 0.77117,0.38797 1.62822,0.0507 2.01554,-1.44235 1.6e-4,0 3.2e-4,-1e-5 4.9e-4,-1e-5 -0.002,-0.29323 -0.009,-0.58649 -0.0198,-0.87962 -0.47757,-1.24938 0.79777,-4.98114 -0.88071,-4.11508 0.54371,1.60764 0.73318,6.32321 -1.18328,5.12677 -0.0322,-0.0203 -0.065,-0.0421 -0.0985,-0.0657 -1.44113,-2.15371 -1.72639,-5.44626 -1.19672,-8.15028 0.10978,-0.78835 0.41048,-1.32229 0.78811,-1.59643 0,0 0,0 0,0 0.73716,-0.53358 1.73168,-0.0588 2.0958,1.42714 0.53467,-1.4545 -0.47874,-2.83444 -1.52513,-2.88407 -9e-5,0 -1.7e-4,-1e-5 -2.6e-4,-2e-5 z m 51.19436,4.32451 c -0.20013,-0.0472 -0.42032,-0.0568 -0.65961,-0.0245 -0.64358,1.05669 -0.52572,3.37014 -1.01896,4.87629 -0.57972,2.36323 -0.67446,4.89857 -1.56042,7.15075 1.33514,1.17461 0.79226,-1.68491 1.24184,-2.64855 0.60524,-2.65937 0.85221,-5.45475 1.6706,-8.02787 1.53528,-0.219 1.38696,2.59048 0.38058,3.49122 -1.75602,0.61076 -0.8204,2.28641 -0.65795,3.78028 0.22628,0.41085 0.18056,1.06595 0.094,1.73391 -0.15321,1.18234 -0.43349,2.40304 0.42729,2.38698 0.41499,-1.04435 0.0571,-2.98679 -0.025,-4.46451 -0.006,-0.11546 -0.0111,-0.22798 -0.0136,-0.33686 -0.7314,-1.14992 -0.0667,-1.71398 0.55055,-2.43635 0.2843,-0.33265 0.558,-0.69864 0.67634,-1.17044 0.40886,-1.06747 0.4485,-2.21449 0.14367,-3.06456 0,0 0,0 0,0 -0.22795,-0.6364 -0.64906,-1.10533 -1.24931,-1.24577 -1e-5,1e-5 -2e-5,1e-5 -3e-5,1e-5 z m -60.79294,-3.43627 c -0.20949,0.016 -0.42718,0.0738 -0.64933,0.17787 -0.29827,1.20347 0.52814,3.37087 0.51734,4.95605 0.16889,2.42786 0.84868,4.87115 0.70032,7.28638 1.60708,0.7109 0.23367,-1.84711 0.36681,-2.90088 -0.23235,-2.71778 -0.85001,-5.45619 -0.84553,-8.15701 1.44124,-0.68611 2.1188,2.06321 1.42933,3.21319 -1.4996,1.10646 -0.0905,2.43281 0.50627,3.80344 0.9327,0.89808 0.45511,4.1991 1.69965,3.78145 0.0918,-1.22861 -0.95911,-3.13134 -1.44511,-4.57537 -1.51431,-1.28466 0.18534,-2.26985 0.10179,-3.80825 0.13426,-1.99471 -0.91556,-3.89188 -2.38155,-3.77686 0,-1e-5 0,-1e-5 1e-5,-1e-5 z m 3.97329,-0.41272 c -0.91908,0.0304 -0.56925,1.24106 -0.33863,2.44493 0.25154,3.35565 0.84931,6.71649 0.8299,10.07134 0.54261,-0.0547 1.08397,-0.10573 1.6241,-0.15264 1.06417,0.89519 1.81396,-2.22725 0.55168,-1.28568 -1.70877,0.94612 -1.927,-1.08481 -1.91965,-3.03 -0.56796,-1.77827 0.27804,-2.049 1.37152,-1.90957 1.16148,1.93206 0.64989,-2.95631 0.0776,-1.22423 -0.36194,0.0292 -0.72356,0.06 -1.08486,0.0924 -1.00173,0.53699 -0.64286,-1.13394 -0.83665,-1.91344 0.0638,-0.63918 -0.54244,-2.00701 0.30251,-1.80755 0.91578,-0.31603 2.75299,0.77106 1.70738,-1.37391 -0.6054,0.0464 -1.20863,0.0972 -1.8097,0.1518 -0.18674,-0.0479 -0.34391,-0.0678 -0.47518,-0.0634 z m 12.48199,-0.48827 c -1.28032,2.27874 0.77477,1.07808 1.78901,1.33534 -0.0857,3.318 -0.11201,6.64114 -0.24031,9.95458 -0.77317,1.22204 1.05653,1.87211 0.56213,0.39839 0.0106,-3.15829 0.12963,-6.04957 0.20057,-9.20706 -0.23406,-1.35919 0.57095,-1.17764 1.28313,-1.0303 0.70578,0.14601 1.33744,0.26024 0.7523,-1.26926 -1.42585,-0.069 -3.0208,-0.0258 -4.34682,-0.18167 -1e-5,-10e-6 -1e-5,-10e-6 -1e-5,-2e-5 z m 52.57366,6.06322 c -0.0836,-0.0179 -0.18137,-0.0244 -0.29485,-0.0192 -0.0198,1.54369 -0.53454,3.29154 -0.83482,4.88979 -0.6245,2.35172 -0.76644,4.88505 -1.69718,7.11941 1.46148,1.13212 0.85308,-2.47498 1.49575,-3.58228 0.20739,-1.15623 0.30125,-2.52527 1.10499,-2.3616 0,0 0,0 0,0 0.12632,0.0257 0.27017,0.0893 0.43457,0.19767 0.53181,0.31769 1.56627,-0.0507 1.83981,0.61212 0.0345,0.0835 0.0568,0.18339 0.0645,0.30303 -0.48141,1.64662 -0.612,3.43292 -1.21776,5.03068 0,0 0,0 0,0 -0.0692,0.18253 -0.14456,0.36261 -0.22726,0.53978 0.0318,0.0311 0.0624,0.0597 0.092,0.0858 0.30583,0.27035 0.49668,0.28187 0.6244,0.13836 0.19691,-0.22126 0.2422,-0.81714 0.30421,-1.39125 0,0 0,0 0,0 0.04,-0.3701 0.0875,-0.73274 0.18957,-0.98312 0.63498,-2.54385 1.03433,-5.16307 1.70773,-7.69365 0,0 0,0 0,0 0,0 0,0 0,0 0.1564,-0.58774 0.32927,-1.17533 0.52417,-1.75082 -0.0412,-0.0413 -0.0803,-0.0776 -0.11745,-0.10917 -0.4365,-0.3707 -0.64831,-0.0954 -0.77964,0.44449 0,0 0,0 0,0 -0.0147,0.0603 -0.0283,0.12396 -0.0412,0.19039 0,0 0,0 0,0 0,0 0,0 0,0 0,0 0,0 0,0 -0.17229,0.89178 -0.19775,2.28521 -0.53262,2.90633 0.0236,0.51638 -0.089,0.7368 -0.27028,0.80711 0,0 0,0 0,0 -0.33348,0.12936 -0.90099,-0.24902 -1.2878,-0.22977 -0.24908,-0.15859 -0.71675,-0.125 -1.07847,-0.184 -0.33945,-0.0554 -0.58568,-0.19242 -0.47028,-0.64768 -0.20223,-1.30452 1.72271,-4.04415 0.46785,-4.31249 z m -19.27722,-3.54388 c -0.0874,-0.0134 -0.18922,-0.0153 -0.30624,-0.004 0.0824,1.52767 -0.33569,3.33528 -0.53923,4.93287 -0.48647,2.38476 -0.48876,4.92047 -1.26949,7.20897 1.47408,1.03579 0.69531,-2.52283 1.27161,-3.66526 0.16415,-1.3448 0.16068,-2.98117 1.41782,-2.24509 0.34007,0.17947 0.85833,0.0858 1.27694,0.1433 0,0 0,0 0,0 0.34252,0.047 0.61808,0.19502 0.67284,0.67365 -0.44497,1.859 -0.44985,3.86885 -1.16568,5.63545 1.2427,1.10987 0.77126,-1.27341 1.09978,-2.20782 0.62737,-3.17099 0.88667,-6.43967 1.76133,-9.54327 -1.33834,-1.23807 -0.75172,2.35613 -1.2989,3.50105 0.0966,1.00245 -0.38015,0.90828 -0.87996,0.77104 0,0 0,0 0,0 -0.22888,-0.063 -0.46345,-0.13553 -0.65092,-0.11671 -0.49894,-0.2825 -1.78686,0.20184 -1.60128,-0.7505 -0.28013,-1.29212 1.5231,-4.13325 0.21138,-4.334 0,1e-5 0,1e-5 0,2e-5 z m -60.65349,0.005 c -0.32954,0.0549 -0.45279,0.23537 -0.0402,0.86374 0.56657,3.31276 1.04298,6.70499 1.53916,10.0277 -0.56352,1.35884 1.28326,2.08354 0.65293,0.54537 -0.53173,-3.08338 -0.94057,-6.18715 -1.42438,-9.27837 3e-4,5.6e-4 0.37496,0.72363 0.37525,0.7242 -3.54348,-6.88282 5.66081,10.99742 2.11733,4.1146 0.88815,1.50489 1.51051,3.39263 2.55167,4.65553 -0.45539,-3.69937 -1.1169,-7.37626 -1.56327,-11.07353 0.59724,-1.338 -1.40749,-1.59628 -0.64259,-0.24909 0.47618,2.69851 0.8119,5.41973 1.23269,8.1274 -1.34461,-2.51748 -2.67945,-5.24869 -4.02406,-7.76618 -0.1289,-0.23972 -0.25868,-0.47878 -0.38949,-0.71701 -0.14276,0.003 -0.27541,0.007 -0.3851,0.0257 1e-5,-2e-5 2e-5,-3e-5 3e-5,-5e-5 z m 40.13652,-1.90789 c -0.33642,-0.0191 -0.49748,0.1294 -0.23161,0.83358 -0.17771,3.3471 -0.46383,6.78535 -0.71263,10.12661 -0.84621,1.20096 0.78735,2.31762 0.51452,0.67687 0.16412,-3.12676 0.45164,-6.24618 0.66381,-9.36994 0.46143,1.75782 0.91362,3.51659 1.35909,5.2766 0.52737,1.66679 0.70455,3.64719 1.43584,5.11324 0.39083,-3.70887 0.57553,-7.44232 0.97432,-11.14712 0.88457,-1.17198 -1.01153,-1.87151 -0.56997,-0.38834 -0.14448,2.73797 -0.43091,5.46688 -0.63167,8.20126 -0.82617,-3.06901 -1.53585,-6.20552 -2.41834,-9.26285 -0.1407,-0.029 -0.27151,-0.0536 -0.38339,-0.0599 1e-5,-1e-5 2e-5,-3e-5 3e-5,-4e-5 z m -7.30167,-0.42141 c -0.0847,-0.008 -0.18118,-0.001 -0.29071,0.0182 -0.13271,0.22273 0.0507,0.40544 0.10713,0.58776 -0.0584,3.50553 -0.22644,7.05981 -0.42907,10.55915 -0.80826,1.45673 1.05918,1.82611 0.62265,0.25939 -0.0739,-2.31501 0.17656,-4.70406 0.22866,-7.04761 -0.34169,-1.29741 1.03184,-4.26856 -0.23874,-4.37682 0,0 8e-5,-3e-5 8e-5,-3e-5 z m 17.42899,1.25436 c -0.21721,0.0225 -0.37908,0.26638 -0.22174,0.83227 -0.2163,3.41531 -0.57031,6.82039 -0.84032,10.23173 1.7e-4,10e-6 3.5e-4,3e-5 5.2e-4,4e-5 -0.41717,1.47209 -0.38156,1.34552 0.57768,1.37956 0.62797,0.0229 1.32695,0.12453 1.84968,0.23915 1.47429,-2.31875 -0.93599,-1.05916 -1.90769,-1.47557 0.29589,-3.31049 0.53301,-6.62981 0.87306,-9.93283 0.54724,-0.73347 0.0308,-1.31172 -0.3312,-1.27431 0,-2e-5 1e-5,-3e-5 1e-5,-4e-5 z m 19.03951,2.54194 c -0.21609,9.9e-4 -0.39637,0.22714 -0.28946,0.80277 -0.39906,2.52829 -0.89884,5.08857 -1.37155,7.60196 -0.0794,1.17414 -2.83414,4.67251 -2.51013,0.61273 0.10895,-2.81846 0.81541,-5.52658 1.29884,-8.31129 1.09589,-1.62634 -1.24305,-1.65262 -0.62471,0.0389 -0.39025,2.77132 -1.13946,5.56118 -1.28404,8.34183 -0.34847,2.30837 1.56904,4.55526 2.7394,1.83237 1.34829,-2.97711 1.44475,-6.43906 2.23765,-9.62784 0.61797,-0.66902 0.16596,-1.29306 -0.196,-1.29148 z m 7.4802,1.44578 c -0.61869,-0.11464 -1.3144,0.21278 -1.75597,1.20788 -1.59731,2.6991 -2.22797,6.27374 -1.90537,9.38583 0.09,2.74152 2.78673,2.31177 3.50973,-0.12475 1.08825,-3.0456 -1.09019,1.63045 -2.06158,0.87853 -0.0934,-0.0589 -0.18683,-0.11783 -0.28028,-0.1767 -0.0767,-0.11121 -0.15353,-0.2224 -0.23039,-0.33358 -0.81509,-2.23943 -0.43772,-5.22645 0.53874,-7.57921 0.66551,-2.29864 3.16281,-2.8531 3.08484,-0.067 0.93499,-1.58288 0.13071,-3.00001 -0.89969,-3.19098 -10e-6,0 -2e-5,0 -3e-5,-1e-5 z m -85.26279,-1.55134 c -0.46908,0.0862 -0.89036,0.4258 -1.09159,1.05889 -0.0642,0.20201 -0.10616,0.43381 -0.12019,0.69683 -0.0885,0.51415 -0.14346,1.04066 -0.16668,1.57518 -0.0141,0.3245 -0.0169,0.65075 -0.008,0.97935 0,0 0,0 0,0 0.003,0.11547 0.008,0.23036 0.0135,0.3452 0,0 0,0 0,0 -0.003,0.43606 0.28744,2.25495 0.30561,2.27629 0.0182,0.0213 0.20053,1.06577 0.36032,1.54836 0,0 0,1e-5 0,1e-5 0.0333,0.11338 0.0678,0.22688 0.10353,0.34002 0,0 0,0 0,0 0.10387,0.32693 0.21725,0.65005 0.33932,0.96592 0.18883,0.48862 0.39879,0.96301 0.6277,1.41656 0.11693,0.27873 0.24916,0.51022 0.39179,0.69802 0,0 0,0 0,0 0.75415,0.99301 1.79765,0.76933 2.39248,-0.1262 0.31971,-0.48129 0.50895,-1.15734 0.44862,-1.94185 -0.0469,-2.1321 -0.22414,-0.61941 -0.67694,0.55852 0,0 0,0 0,0 -0.23258,0.6051 -0.53706,1.11916 -0.93631,0.99837 0.002,3.3e-4 -0.32646,-0.0654 -0.32477,-0.065 0.002,0.001 -0.33588,-0.23016 -0.334,-0.22887 -0.36039,-0.41613 -0.67552,-0.89222 -0.94628,-1.40953 0,0 0,0 0,0 -0.90078,-1.72101 -1.31326,-3.90524 -1.25736,-5.86225 -0.0328,-0.39322 -0.003,-0.75891 0.0742,-1.08457 0.32206,-1.35991 1.47065,-2.01295 2.29595,-1.00371 0,0 0,0 0,0 0.18255,0.22325 0.34929,0.52768 0.48806,0.92367 0.18103,-1.067 -0.1775,-1.8642 -0.71555,-2.302 -0.37581,-0.30577 -0.83867,-0.43515 -1.26303,-0.35717 -1e-5,0 -2e-5,0 -3e-5,1e-5 z m 65.78857,-1.79266 c -0.66986,-0.0679 -1.38125,0.31816 -1.73748,1.35124 -1.38805,2.83699 -1.54243,6.4665 -0.96317,9.52685 0.30754,2.54899 2.76368,2.19341 3.3504,-0.42415 0.87426,-3.11223 -0.94904,1.69875 -1.9238,1.03467 -0.0926,-0.0505 -0.18524,-0.10087 -0.27793,-0.15101 -0.0811,-0.10359 -0.1625,-0.20704 -0.24415,-0.31032 -0.94195,-2.14042 -0.92142,-5.16198 -0.16594,-7.59396 0.442,-2.35497 3.04111,-3.11727 3.17012,-0.31227 0.84082,-1.64168 -0.0954,-3.0082 -1.20801,-3.12105 -10e-6,0 -2e-5,0 -4e-5,0 z m -32.29528,-1.92044 c -0.59782,3.71713 -1.14302,7.43866 -1.62931,11.16506 -0.0846,0.6476 -0.43214,1.53523 0.43623,1.13432 0.26453,-1.02266 -0.27736,-4.92375 1.64538,-3.91333 0.95175,-0.2402 0.94089,0.99775 0.92839,2.14757 -0.0126,1.1586 -0.0277,2.22364 0.88207,1.69407 -0.22809,-2.11503 -0.6568,-4.24625 -0.96913,-6.37157 -0.47884,-1.87963 -0.37072,-4.41429 -1.29363,-5.85612 z m 22.02108,1.11862 c -0.91381,3.65729 -1.82497,7.3153 -2.72721,10.97457 -0.15604,0.63266 -0.61645,1.48457 0.33242,1.17834 0.38769,-1.00489 0.22141,-4.92084 2.07019,-3.7403 1.96364,-0.30437 -0.44899,4.91225 1.5418,3.99267 -0.0778,-2.13209 -0.34544,-4.29655 -0.47754,-6.44577 -0.31819,-1.9177 0.005,-4.43832 -0.73966,-5.95951 z m -50.11179,2.85889 c 1.74251,0.83653 2.38033,3.56187 2.65919,5.69378 0.23163,1.68637 0.0106,5.20861 -1.76767,4.29935 -1.23809,-1.17428 -1.81036,-3.23039 -2.13651,-5.0757 -0.22491,-1.71308 -0.45333,-4.77805 1.24499,-4.91743 z m 39.82228,-2.61814 c 1.5391,1.191 1.56074,3.99758 1.36623,6.13664 -0.14392,1.70414 -1.12712,5.07782 -2.64431,3.81413 -0.94549,-1.41145 -1.07273,-3.54064 -1.00298,-5.41252 0.14079,-1.71834 0.56522,-4.76881 2.28106,-4.53825 z m -11.68242,1.38778 c 0.21083,-0.19165 0.45041,2.0621 0.6354,2.94323 0.68831,1.64149 -0.33435,1.80359 -1.31642,1.46945 0.15913,-1.09062 0.32317,-2.18015 0.49171,-3.27005 0.0554,-0.74542 0.11998,-1.07961 0.18931,-1.14263 z m 21.76424,1.11804 c 0.21957,-0.17004 0.25084,2.0966 0.35677,2.99519 0.53597,1.69383 -0.48581,1.78008 -1.44998,1.34384 0.0712,-0.2863 0.73063,-2.92957 0.80188,-3.21587 0.12446,-0.73883 0.2182,-1.06652 0.29133,-1.12316 z m -37.08513,12.43524 c -1.04411,0.12961 -1.64454,1.06043 -1.79719,1.7008 -0.46922,0.80197 0.0836,1.46533 1.20043,1.63677 0.007,-0.59119 -0.68039,-1.40614 -0.0444,-2.14418 0.78817,-1.07349 1.88909,0.2184 1.88888,0.82477 0.0999,1.68197 -0.42296,3.42464 -1.13396,5.09421 -0.24304,1.03214 -1.43646,1.99294 -1.21734,3.03595 0.8896,-0.12803 1.7661,-0.2521 2.62963,-0.37013 1.23483,0.10538 1.57988,-0.6051 1.50573,-1.33098 0.0547,-0.98991 -0.60098,0.25194 -1.22778,0.34159 -0.49356,0.0899 -2.23519,0.5629 -1.83737,0.0406 1.21613,-2.01268 2.35468,-4.16033 2.28533,-6.26991 -0.10384,-0.95865 -0.37608,-2.15402 -1.77889,-2.56262 -0.16644,-0.0175 -0.32421,-0.0153 -0.47309,0.003 z m 52.0841,1.69578 c -0.70333,-0.15285 -0.74687,0.35787 -0.42628,0.82846 -0.3624,2.52258 -0.81616,4.86102 -1.17856,7.38361 0.22565,0.51796 -1.12133,1.30469 -0.17468,1.45962 0.86112,0.27391 1.63354,0.19278 1.09572,-0.57574 -0.0299,-0.68378 0.18939,-1.35585 0.27349,-2.0323 0.17513,-0.65528 0.10791,-1.3839 0.42663,-1.99226 0.44269,0.91278 0.88078,1.82712 1.31553,2.74274 0.25831,0.77599 1.13068,1.65212 0.56644,2.37343 0.17138,0.27198 2.71532,0.77748 1.58095,-0.20542 -0.89552,-1.84636 -1.74445,-3.69518 -2.64454,-5.53376 0.005,-0.0266 0.0117,-0.0676 0.0162,-0.0942 1.31701,-0.98163 2.61264,-2.02188 4.0147,-2.94984 0.99502,-0.49087 -0.67044,-0.64725 -1.28808,-0.69971 -0.0567,0.41007 -0.22293,0.77679 -0.78363,1.06352 -0.90755,0.61039 -1.65765,1.34985 -2.63157,1.89927 0.10591,-0.68349 0.25183,-1.36087 0.32722,-2.04889 -0.19992,-0.58808 1.38676,-1.47012 -0.1477,-1.51033 -0.12784,-0.051 -0.24151,-0.0864 -0.3418,-0.10814 -2e-5,-1e-5 -5e-5,-3e-5 -7e-5,-5e-5 z m -23.28509,-2.35271 c -0.69489,-0.0932 -0.58827,0.47998 -0.27639,0.86847 -0.12843,2.55622 -0.364,4.90853 -0.49242,7.46475 0.25173,0.56736 -1.21581,1.59319 0.28321,1.49046 1.03402,0.31289 1.09883,-0.27994 0.68858,-0.78672 0.15193,-2.5521 0.37183,-5.09947 0.5498,-7.64962 0.0267,-0.34989 0.52646,-0.28092 0.91504,-0.24469 1.34411,-0.0797 2.27497,0.80418 2.30513,1.60219 0.11465,0.83588 -0.5186,1.90536 -2.0126,1.84481 -0.90848,-0.22235 -1.45041,0.0627 -1.20646,0.71544 1.23982,0.24644 2.81963,0.19673 3.55809,-0.55188 0.95427,-1.05637 0.94618,-2.51016 -0.0164,-3.66041 -0.77517,-0.96227 -2.58824,-0.90896 -3.94737,-1.00971 -0.13365,-0.0431 -0.24907,-0.0698 -0.34829,-0.0831 1e-5,2e-5 3e-5,3e-5 4e-5,5e-5 z m 15.64484,1.29318 c -0.63306,-0.11104 -0.57562,0.44902 -0.29975,0.85062 -0.17774,2.3972 -0.48175,5.04946 -0.65949,7.44667 0.17724,0.56511 -1.00836,1.58722 0.16221,1.48589 0.79644,0.31482 0.88928,-0.26621 0.58095,-0.78019 0.18266,-1.92114 0.38358,-3.65807 0.59163,-5.57654 0.20862,-0.75174 -0.1166,-1.71104 0.49733,-2.31218 0.39843,0.0509 0.81039,0.0713 1.20805,0.17778 1.43003,0.39237 1.40651,1.76044 0.75251,2.45011 -0.34425,0.99081 -2.64963,0.15493 -2.31069,1.3264 1.01761,0.45693 1.30568,1.41463 1.67375,2.20075 0.31417,0.91491 0.87688,1.89456 0.55028,2.8039 -0.008,0.34625 2.28323,0.66083 1.38151,-0.19743 -0.59453,-1.5847 -0.99068,-3.2573 -2.3116,-4.66348 0.0763,-0.21023 1.27715,-0.26551 1.57967,-0.70234 0.98181,-0.83418 1.20767,-2.12012 0.53958,-3.21719 -0.67922,-1.00267 -2.38992,-1.10086 -3.62213,-1.20117 -0.11945,-0.0461 -0.22362,-0.0758 -0.31382,-0.0916 0,1e-5 10e-6,2e-5 10e-6,2e-5 z m -30.58229,-1.77704 c -1.5186,0.117 -2.03639,1.33892 -1.96887,2.22126 -0.0344,1.38909 1.43816,2.44474 2.77877,3.2903 1.16596,0.76287 1.44476,2.18287 0.55132,3.12666 -0.7319,0.71773 -2.13276,0.39366 -2.59269,-0.31748 -0.91194,-0.74408 -0.2221,0.64954 -0.1723,1.05632 -0.0918,0.86297 0.68799,-0.10433 1.1161,0.36698 0.7685,0.34407 1.79744,0.0978 2.27717,-0.46549 0.88297,-1.11226 1.05929,-2.55756 0.35459,-3.74515 -0.61398,-1.20683 -2.63524,-1.62776 -3.26082,-2.81911 -0.36448,-0.61625 -0.27207,-1.70273 0.9469,-1.81145 1.25407,-0.0778 1.56177,0.81557 2.0848,1.39625 0.4076,-0.19419 -0.0398,-1.22675 0.0389,-1.74226 -0.53603,-0.0427 -1.39636,-0.52124 -2.15383,-0.55683 0,0 -1e-5,0 -2e-5,0 z m 4.51333,-0.0125 c -0.6685,-0.0274 -0.7224,0.42231 -0.3054,0.86697 0.002,2.18882 -0.0519,4.53408 -0.0788,6.72254 0.0862,0.75037 -0.0799,1.48047 -0.34244,2.20104 1.47447,0.0182 2.97681,0.0676 4.50695,0.14024 0.96885,0.36963 1.32983,-1.10017 0.94605,-1.20243 -1.18251,0.52874 -2.83848,0.0112 -4.17889,0.11946 l 0.0832,-3.90954 c 0.46372,0.0106 0.92927,0.0239 1.39666,0.0395 0.67351,0.0605 1.39303,-0.0352 2.02935,0.1593 1.02764,0.85268 0.60545,-0.42203 0.73237,-0.92241 0.26781,-0.7284 -0.42132,-0.32205 -0.9025,-0.13013 -1.08724,-0.0493 -2.16569,-0.0877 -3.23531,-0.11216 l 0.0629,-2.95601 c 0.64478,0.0144 1.29195,0.0337 1.94148,0.0571 0.80356,0.0984 1.85867,-0.14695 2.39629,0.38312 0.57376,0.14531 -0.0661,-0.93299 -0.0974,-1.25115 -1.55583,-0.0771 -3.0998,-0.13368 -4.63186,-0.16305 -0.12017,-0.0249 -0.22763,-0.0386 -0.32277,-0.0424 z m -26.32323,2.41038 c -0.61627,0.34426 -1.74504,1.50814 -0.67899,1.84743 0.40631,2.30574 0.71946,4.62588 1.09009,6.93722 0.44179,0.44902 -1.09878,1.36494 0.50094,0.97966 0.97688,0.0679 1.20615,-0.47453 0.58809,-0.85971 -0.36251,-2.18856 -0.67612,-4.35507 -1.00839,-6.54827 -0.20527,-0.77254 -0.0739,-1.64989 -0.49178,-2.35632 1e-5,-1e-5 3e-5,-1e-5 4e-5,-1e-5 z m 3.46592,-0.51565 c -0.62111,0.34167 -1.77203,1.50114 -0.69588,1.84521 0.39606,2.30828 0.69792,4.6305 1.05811,6.9442 0.44737,0.45117 -1.12834,1.36064 0.50339,0.98219 0.99006,0.0719 1.22476,-0.46938 0.60184,-0.85751 -0.35419,-2.18828 -0.66048,-4.36203 -0.98421,-6.55482 -0.203,-0.77365 -0.0662,-1.65088 -0.4833,-2.35926 10e-6,-1e-5 3e-5,-1e-5 5e-5,-1e-5 z m 42.43792,-0.53045 c -1.46792,2.81963 -2.93029,5.63984 -4.36651,8.46341 -0.0272,0.29024 -0.41155,0.46466 -0.52277,0.72965 0.0346,0.0627 2.05788,0.67303 1.70929,-0.0226 -0.48331,-0.96745 0.55232,-1.83479 0.81471,-2.7445 1.15603,0.098 2.32287,0.19695 3.50048,0.29444 0.94476,-0.0417 0.5524,0.81458 0.86233,1.20038 0.29373,0.65725 0.433,1.37305 -0.12193,1.95683 0.83438,0.1228 2.89969,0.45673 1.83759,-0.49965 -0.89614,-2.5578 -1.76242,-5.13409 -2.61882,-7.69769 -0.39036,-0.48446 -0.0596,-1.73717 -1.09434,-1.68029 -1e-5,-1e-5 -2e-5,-1e-5 -3e-5,-1e-5 z m -30.37686,-0.84134 c -0.0911,0.0186 -0.21436,0.0587 -0.37548,0.12591 -1.94633,1.45807 -2.96785,3.42932 -3.07094,5.32874 -0.0296,1.46938 0.20829,3.03655 1.54895,4.13123 0.95134,0.77884 2.31513,-0.10684 2.44635,-0.94788 0.43985,-1.35924 0.33604,-2.87641 -0.5887,-4.0678 -0.25011,-0.52615 -2.79632,-0.9061 -2.19787,0.45775 0.50936,-0.4279 1.33986,-0.37597 1.5978,0.29084 0.47384,0.97668 0.68666,2.06787 0.41916,3.12433 -0.23973,1.14491 -1.66325,0.44883 -1.76466,-0.32763 -0.91562,-2.27444 -0.65777,-4.9636 1.35856,-7.10497 0.34611,-0.21967 1.25867,-1.13934 0.62683,-1.01052 z m 30.39919,2.74997 c 0.4107,1.26689 0.85953,2.53086 1.2554,3.79869 -0.58425,0.22634 -2.2897,-0.0337 -3.17148,-0.19513 0.65049,-1.19614 1.20384,-2.4242 1.91608,-3.60358 z"
       inkscape:path-effect="#path-effect11"
       inkscape:original-d="m 175.6504,144.25238 c -0.75707,-0.0228 -1.54291,0.58335 -1.09657,1.28106 1.26978,-0.68444 2.92711,-0.18949 4.36149,-0.34003 -0.0231,2.45623 0.0536,4.92267 -0.0579,7.36906 -1.45821,1.1576 2.69701,1.09546 1.20975,-0.0227 -0.0395,-2.37214 -0.008,-4.74457 -0.0165,-7.11688 0.79037,-0.51502 2.62653,-0.11206 3.82302,-0.20205 0.90682,0.87616 0.71126,-0.49097 0.26924,-0.91829 -2.72443,1.1e-4 -5.44918,-4e-5 -8.17366,0 -0.10334,-0.0305 -0.21069,-0.0469 -0.31885,-0.0501 z m -5.00021,0.0145 c -0.088,-8e-5 -0.17598,0.003 -0.26355,0.0103 -1.22601,0.0988 -2.36966,0.88476 -2.21744,2.18953 0.29539,1.70353 2.26419,2.25003 3.55328,3.14297 1.82131,0.99481 0.44621,3.54326 -1.4919,2.96105 -0.79521,0.20398 -2.47395,-1.87379 -1.90376,-0.23616 -0.0577,1.0681 0.79033,0.8044 1.56166,0.90951 0.40265,0.11759 0.82544,0.1892 1.2485,0.16485 2.20438,0.0404 3.42242,-2.86943 1.79783,-4.26434 -1.0322,-1.16416 -3.17332,-1.23224 -3.71864,-2.79311 -0.12737,-1.68204 2.48342,-1.46964 3.2644,-0.45062 0.7461,1.73353 1.0424,-1.83403 -0.27337,-1.18908 -0.37321,-0.25366 -0.82685,-0.39571 -1.29346,-0.43408 -0.0875,-0.007 -0.1756,-0.0108 -0.26355,-0.0109 z m -10.36474,0.004 -5.2e-4,5.2e-4 c -0.6631,0.0239 0.11761,0.84556 0.0129,1.3379 -0.006,2.31674 0.061,4.6469 -0.0496,6.95358 -1.45821,1.15759 2.697,1.09493 1.20975,-0.0233 -0.0272,-1.29096 -0.0214,-2.58204 -0.0176,-3.87315 0.18559,-1.1226 -0.37205,-2.53813 0.29817,-3.46232 1.21207,-0.11282 3.1041,-0.0172 3.01584,1.54668 -3.1e-4,1.69744 -2.64399,0.8449 -2.87476,1.93683 1.59786,0.82439 2.99124,2.31629 3.5543,4.01422 -0.53955,1.05414 2.61371,0.76724 1.57407,0.16485 -0.92744,-1.47881 -1.89645,-3.05696 -3.49592,-3.97082 1.15732,-0.4159 3.00946,-1.47477 2.34611,-3.10162 -0.8472,-1.89997 -3.43784,-1.41696 -5.19348,-1.48104 -0.16047,-0.0325 -0.28457,-0.0457 -0.3793,-0.0424 z m -3.05305,0.009 c -0.36372,0.001 -0.80199,0.0482 -1.14721,0.0227 -0.0404,0.41391 0.62759,0.70521 0.37207,1.3069 -0.006,2.31675 0.061,4.64638 -0.0496,6.95306 -1.45821,1.15759 2.69647,1.09599 1.20923,-0.0222 -0.009,-2.44799 -0.0694,-4.90821 0.0294,-7.34839 0.59021,-0.79103 0.19227,-0.91391 -0.41393,-0.91157 z m -8.31835,0.005 v 0.002 c -0.6884,-0.0148 -1.41586,0.0413 -0.65784,0.78548 0.0272,1.40546 0.0207,2.8112 0.017,4.21679 -0.0919,1.34971 0.27356,2.75559 -0.3793,4.02095 0.53699,-0.1315 1.61958,0.28861 1.91978,-0.22118 -0.84054,-1.20037 -0.20997,-2.87781 -0.40566,-4.27726 1.26392,0.0349 2.54552,-0.0728 3.7977,0.0589 1.12679,0.91168 1.20533,-0.91112 0.68006,-1.33067 -1.25377,0.78713 -3.01254,0.19907 -4.47776,0.38085 v -2.49752 c 0.96448,-0.53989 3.04105,-0.0972 4.41885,-0.2036 0.9037,0.87494 0.70404,-0.49511 0.26458,-0.91881 h -4.55838 c -0.16438,0.003 -0.38962,-0.0109 -0.61908,-0.0155 z m -16.37213,11.63494 c -0.45721,0.0313 -0.89712,0.39336 -1.22576,1.23972 -1.17369,2.93471 -1.22913,6.67862 -0.25735,9.72602 0.46604,1.58614 1.83407,2.82553 2.8546,1.10123 1.48595,-2.52122 1.50569,-6.13843 0.88626,-9.11107 -0.16362,-1.49316 -1.25189,-3.02465 -2.25775,-2.9559 z m 39.31646,0 c -0.4572,0.0313 -0.89763,0.39336 -1.22628,1.23972 -1.1737,2.93471 -1.22861,6.67862 -0.25683,9.72602 0.46605,1.58613 1.83406,2.82553 2.85461,1.10123 1.48595,-2.52123 1.5057,-6.13844 0.88625,-9.11107 -0.16361,-1.49316 -1.25189,-3.02465 -2.25775,-2.9559 z m -28.25357,0.0253 c -0.4508,-0.0429 -0.91271,0.18581 -1.2485,0.80666 -1.32563,2.69409 -1.40758,6.28178 -0.73587,9.30796 0.19291,2.53061 2.72608,3.85364 3.57756,1.09813 0.008,-0.2933 0.0103,-0.58708 0.008,-0.88057 -0.459,-1.26521 0.96401,-4.9492 -0.75861,-4.14652 0.48074,1.61072 0.55348,6.55734 -1.5565,4.99867 -1.4033,-2.22099 -1.4178,-5.55134 -0.74672,-8.2057 0.45118,-2.29922 2.35413,-2.3069 2.8205,-0.0377 0.57037,-1.43779 -0.36837,-2.84642 -1.36013,-2.9409 z m 12.79819,0 c -0.4508,-0.0429 -0.9122,0.18581 -1.24799,0.80666 -1.32562,2.6941 -1.4081,6.28178 -0.73639,9.30796 0.19291,2.53061 2.72609,3.85365 3.57756,1.09813 h 5.2e-4 c 0.008,-0.2933 0.01,-0.58706 0.008,-0.88057 -0.45899,-1.2652 0.96454,-4.94921 -0.75809,-4.14652 0.48072,1.61071 0.55295,6.55734 -1.55701,4.99867 -1.4033,-2.22099 -1.41781,-5.55133 -0.74673,-8.2057 0.45118,-2.29925 2.35464,-2.30691 2.82102,-0.0377 0.57038,-1.43779 -0.36888,-2.84642 -1.36064,-2.9409 z m 50.51629,0.0594 c -0.20471,-0.009 -0.42192,0.0226 -0.65009,0.0987 -0.43467,1.15766 0.1094,3.40916 -0.0982,4.98057 -0.1333,2.42965 0.25223,4.93886 -0.21549,7.31583 1.56967,0.90682 0.47922,-1.8032 0.74621,-2.8329 0.10082,-2.72553 -0.17861,-5.51781 0.14469,-8.19847 1.45921,-0.49932 1.86239,2.2778 1.03405,3.35742 -1.62516,0.93358 -0.38082,2.39683 0.0698,3.83646 0.84435,0.99858 -0.0274,4.22954 1.32447,3.94601 0.22754,-1.18548 -0.65166,-3.2418 -0.9741,-4.70565 -1.38801,-1.44592 0.43996,-2.2358 0.52296,-3.77445 0.34748,-1.96883 -0.47126,-3.96345 -1.90428,-4.02353 z m -59.77102,5.2e-4 c -0.20472,-0.009 -0.42245,0.0221 -0.65061,0.0982 -0.43455,1.15769 0.10991,3.4097 -0.0977,4.98109 -0.1333,2.42964 0.25223,4.93835 -0.21549,7.31531 1.56966,0.90683 0.47923,-1.8032 0.74621,-2.8329 0.10083,-2.72553 -0.17862,-5.51783 0.14469,-8.19847 1.45917,-0.49934 1.86189,2.27831 1.03353,3.35794 -1.62518,0.93355 -0.3803,2.39681 0.0703,3.83646 0.84434,0.99858 -0.0274,4.22957 1.32447,3.94601 0.22754,-1.18546 -0.65217,-3.24232 -0.97462,-4.70617 -1.38802,-1.44592 0.44048,-2.2358 0.52348,-3.77445 0.34748,-1.96885 -0.47126,-3.96292 -1.90427,-4.02301 z m 3.87056,0.0145 c -0.88346,-0.056 -0.66545,1.18088 -0.55656,2.40192 -0.0785,3.36513 0.19912,6.76996 -0.17518,10.10688 h 1.73065 c 1.04765,0.98605 2.11778,-2.08171 0.69608,-1.23559 -1.89252,0.81271 -1.90366,-1.26888 -1.70998,-3.18792 -0.4077,-1.8279 0.48162,-2.00826 1.56012,-1.7818 1.00977,2.02362 0.88882,-2.90266 0.17725,-1.21439 -0.3625,3e-5 -0.72529,-1e-5 -1.08779,0 -1.04522,0.44562 -0.5346,-1.18828 -0.65216,-1.98283 0.12223,-0.63171 -0.34279,-2.04839 0.45837,-1.7725 0.9176,-0.23295 2.59242,0.99726 1.75028,-1.2268 h -1.74149 c -0.17471,-0.0646 -0.32338,-0.099 -0.44959,-0.10697 z m 11.95896,0.0232 c -1.21955,2.2972 0.75532,1.07238 1.75958,1.31052 -0.0148,3.32339 0.0312,6.65067 -0.03,9.97045 -0.78486,1.24516 1.15354,1.84613 0.5979,0.38551 -0.0695,-3.07274 -0.0219,-6.14718 -0.0289,-9.22063 -0.52803,-2.7096 3.17411,0.65153 1.92598,-2.36213 -1.39273,-0.0185 -2.94158,0.0607 -4.22455,-0.0837 z m 52.34409,0.0424 c -0.0855,-4.5e-4 -0.18247,0.0131 -0.29249,0.0413 0.29573,1.52087 0.14712,3.3259 0.17932,4.95732 -0.1333,2.42964 0.25223,4.93886 -0.21549,7.31583 1.70104,0.81116 0.33897,-2.59671 0.74776,-3.81217 -0.0398,-1.35933 -0.2885,-2.96437 1.0759,-2.43447 0.66738,0.22611 1.78062,-0.53371 2.07791,0.49661 -0.13754,1.9067 0.19592,3.89077 -0.23978,5.75003 1.45775,0.89332 0.57295,-1.38455 0.74673,-2.35799 0.0978,-3.23109 -0.18366,-6.49761 0.16019,-9.70329 -1.50555,-0.99916 -0.34802,2.44768 -0.70176,3.66645 0.37755,1.41906 -0.82918,0.73806 -1.4118,0.89141 -0.54033,-0.2 -1.74219,0.47511 -1.70119,-0.49402 -0.46891,-1.23543 0.85752,-4.31039 -0.4253,-4.31705 z m -19.45669,5.2e-4 c -0.0855,-4.5e-4 -0.18299,0.0125 -0.29301,0.0408 0.29574,1.52082 0.14764,3.32644 0.17984,4.95784 -0.1333,2.42965 0.25223,4.93835 -0.21549,7.31531 1.70104,0.81114 0.33899,-2.5962 0.74775,-3.81165 -0.0398,-1.35932 -0.28847,-2.96439 1.07591,-2.43448 0.66738,0.22612 1.78062,-0.53422 2.07791,0.4961 -0.13755,1.90669 0.19593,3.89078 -0.23978,5.75003 1.45776,0.89335 0.57293,-1.38456 0.74672,-2.35799 0.0978,-3.2311 -0.18416,-6.49761 0.15968,-9.70329 -1.50557,-0.99917 -0.34801,2.44817 -0.70176,3.66696 0.37755,1.41906 -0.82919,0.73806 -1.4118,0.89142 -0.54033,-0.20002 -1.74167,0.47459 -1.70067,-0.49454 -0.46892,-1.23543 0.85751,-4.30987 -0.4253,-4.31653 z m -59.67078,0.009 c -0.33348,0.005 -0.48331,0.16481 -0.16898,0.84801 0.0646,3.38058 0.0277,6.76525 0.0207,10.14512 -0.7786,1.26206 0.97993,2.24933 0.57671,0.63665 -0.0692,-3.12816 -0.011,-6.25822 -0.03,-9.38702 0.58954,1.71801 1.17883,3.43622 1.76836,5.15421 0.66496,1.61891 1.0074,3.57686 1.87379,4.97644 0.0881,-3.72449 -0.0346,-7.45659 0.0599,-11.17762 0.78644,-1.23654 -1.16234,-1.78287 -0.601,-0.34003 0.0774,2.73792 0.0121,5.47772 0.0336,8.21656 -1.08889,-2.98884 -2.05045,-6.05734 -3.14865,-9.04028 -0.14149,-0.0187 -0.27331,-0.0338 -0.38447,-0.032 z m 39.31647,0 c -0.33351,0.005 -0.48387,0.16421 -0.1695,0.84749 0.0646,3.38059 0.0277,6.76577 0.0207,10.14564 -0.77861,1.26209 0.98044,2.24933 0.57722,0.63665 -0.0692,-3.12816 -0.0115,-6.25822 -0.0305,-9.38702 0.58954,1.71801 1.17935,3.43622 1.76889,5.15421 0.66496,1.61891 1.00688,3.57685 1.87327,4.97644 0.0881,-3.72449 -0.0346,-7.45659 0.0599,-11.17762 0.78652,-1.23649 -1.16233,-1.78334 -0.60099,-0.34054 0.0775,2.73792 0.0126,5.47823 0.0341,8.21707 -1.08889,-2.98884 -2.05097,-6.05734 -3.14916,-9.04028 -0.14148,-0.0187 -0.27279,-0.0338 -0.38395,-0.032 z m -7.20422,0.002 c -0.083,-0.004 -0.17701,0.006 -0.28318,0.03 -0.12079,0.22833 0.0658,0.40315 0.12867,0.58343 0.087,3.52151 0.072,7.05475 0.0139,10.5761 -0.77767,1.49469 1.18548,1.7768 0.65836,0.23151 -0.1861,-2.31059 -0.0386,-4.71027 -0.092,-7.05539 -0.40011,-1.28177 0.81988,-4.3101 -0.42582,-4.36562 z m 17.40153,0.002 c -0.21783,0.041 -0.36034,0.29767 -0.15245,0.8475 0.076,3.41832 0.0119,6.83825 0.0331,10.25725 h 5.2e-4 c -0.29335,1.50099 -0.26784,1.37139 0.69867,1.32499 0.6332,-0.0298 1.34109,0.0136 1.8743,0.0853 1.28388,-2.43187 -1.02428,-0.97806 -2.03812,-1.31154 0.0145,-3.32101 -0.0311,-6.64583 0.0289,-9.96322 0.49072,-0.77695 -0.0819,-1.30852 -0.44493,-1.24024 z m 18.8097,0.006 c -0.21087,0.04 -0.34695,0.29488 -0.13901,0.84181 0.0633,2.57318 0.0337,5.15279 0.0217,7.72459 0.26042,2.23702 -2.12346,4.03824 -2.41173,1.04645 -0.38385,-2.76382 -0.15152,-5.61581 -0.15452,-8.41086 0.79383,-1.7899 -1.49424,-1.4152 -0.60461,0.14521 0.0858,2.79736 -0.18375,5.67416 0.15606,8.43877 0.0506,2.29465 2.40841,4.25778 3.09594,1.3224 0.80926,-3.17162 0.2618,-6.59406 0.46095,-9.87382 0.48488,-0.77069 -0.0733,-1.30115 -0.42478,-1.23455 z m 7.59747,0 c -0.62803,0.01 -1.24553,0.46719 -1.48518,1.5291 -1.04283,2.9588 -0.98488,6.58572 -0.0413,9.5772 0.64077,2.69157 3.26783,1.69914 3.48764,-0.81804 0.46075,-3.20248 -0.75776,1.81751 -1.88412,1.27279 l -0.31678,-0.11782 -0.29817,-0.28164 c -1.26782,-2.03604 -1.47145,-5.04072 -0.96894,-7.53804 0.20743,-2.39692 2.54508,-3.40416 3.02773,-0.67593 0.60117,-1.73839 -0.47413,-2.96425 -1.52084,-2.94762 z m -84.5106,5.2e-4 c -0.62804,0.01 -1.24605,0.46719 -1.4857,1.5291 -1.04284,2.95879 -0.98437,6.58573 -0.0408,9.57719 0.64078,2.69156 3.26784,1.69864 3.48765,-0.81855 0.46076,-3.20248 -0.75776,1.8175 -1.88413,1.27279 l -0.31677,-0.11782 -0.29818,-0.28112 c -1.26785,-2.03604 -1.47146,-5.04069 -0.96893,-7.53804 0.20745,-2.39695 2.54506,-3.40465 3.02772,-0.67645 0.60114,-1.73839 -0.47412,-2.96373 -1.52083,-2.9471 z m 65.05391,0 c -0.62802,0.01 -1.24605,0.46717 -1.4857,1.5291 -1.04283,2.95879 -0.98488,6.58571 -0.0413,9.57719 0.64077,2.69156 3.26835,1.69864 3.48816,-0.81855 0.46076,-3.20247 -0.75827,1.8175 -1.88464,1.27279 l -0.31626,-0.11782 -0.29869,-0.28112 c -1.26782,-2.03603 -1.47146,-5.04075 -0.96894,-7.53804 0.20745,-2.39694 2.54508,-3.40467 3.02773,-0.67645 0.60118,-1.73839 -0.47363,-2.96373 -1.52032,-2.9471 z m -31.94121,0.11265 c -0.60477,3.71752 -1.2096,7.43529 -1.81436,11.15281 -0.1045,0.64205 -0.50008,1.52981 0.43719,1.14515 0.30779,-1.03341 -0.19435,-4.91557 1.7725,-3.89744 1.95468,-0.46964 -0.0262,4.92712 1.89911,3.84318 -0.26218,-2.11579 -0.71905,-4.24745 -1.03767,-6.37532 -0.4862,-1.88156 -0.37936,-4.41759 -1.25677,-5.86838 z m 21.72322,0 c -0.60475,3.71752 -1.20959,7.43529 -1.81435,11.15281 -0.1045,0.64205 -0.50008,1.52981 0.43718,1.14515 0.30779,-1.03341 -0.19435,-4.91557 1.7725,-3.89744 1.95467,-0.46964 -0.0262,4.92711 1.89911,3.84318 -0.26219,-2.11579 -0.71903,-4.24745 -1.03766,-6.37532 -0.48619,-1.88156 -0.37936,-4.4176 -1.25678,-5.86838 z m -49.53806,1.01441 c 1.59418,1.097 1.81455,3.88467 1.76475,6.03529 -0.0282,1.69523 -0.79719,5.15711 -2.45308,3.97443 -1.06028,-1.35354 -1.3001,-3.47682 -1.3286,-5.34954 0.0513,-1.72896 0.3166,-4.7865 2.01693,-4.66018 z m 39.31647,0 c 1.59417,1.097 1.81403,3.88467 1.76423,6.03529 -0.0282,1.69523 -0.79668,5.15711 -2.45256,3.97443 -1.06028,-1.35353 -1.3001,-3.47683 -1.3286,-5.34954 0.0513,-1.72896 0.3166,-4.7865 2.01693,-4.66018 z m -11.47527,1.73684 c 0.20607,-0.18771 0.43234,2.06521 0.6165,2.95073 0.68577,1.63984 -0.3358,1.8136 -1.34617,1.46037 0.17753,-1.08957 0.35525,-2.17889 0.53278,-3.26853 0.062,-0.7459 0.1282,-1.07999 0.19689,-1.14257 z m 21.72322,0 c 0.20607,-0.18771 0.43234,2.06521 0.6165,2.95073 0.68576,1.63984 -0.3358,1.8136 -1.34617,1.46037 0.17754,-1.08956 0.35525,-2.17889 0.53278,-3.26853 0.062,-0.7459 0.1282,-1.07999 0.19689,-1.14257 z m -38.50153,12.32897 c -1.09931,-0.0128 -1.85206,0.82204 -2.10374,1.43453 -0.60011,0.72563 -0.13461,1.46344 1.00407,1.78801 0.0938,-0.58413 -0.50113,-1.48574 0.26458,-2.12855 0.96253,-0.94477 1.94275,0.46231 1.85725,1.07177 -0.12828,1.68551 -0.92663,3.33235 -1.92856,4.89169 -0.40931,0.98797 -1.80936,1.76989 -1.73736,2.8329 h 2.8577 c 1.33021,0.27319 1.8145,-0.39402 1.834,-1.12035 0.19802,-0.97454 -0.69668,0.17277 -1.38906,0.17777 -0.55628,0.0234 -2.47779,0.25231 -1.97559,-0.21136 1.59751,-1.83125 3.11617,-3.79151 3.32848,-5.90403 0.019,-0.96781 -0.1137,-2.17856 -1.51981,-2.77192 -0.17075,-0.0395 -0.33491,-0.0586 -0.49196,-0.0605 z m 55.54597,0.062 c -0.75352,-0.0359 -0.71611,0.47315 -0.30076,0.88677 0.053,2.49208 -0.0209,4.98555 0.0372,7.47706 0.33446,0.47455 -0.98186,1.46947 0.0708,1.46864 0.98439,0.13088 1.79249,-0.0818 1.07746,-0.74827 -0.1562,-0.66923 -0.0428,-1.36847 -0.0749,-2.04949 0.0686,-0.6753 -0.13247,-1.3825 0.0951,-2.03553 0.62999,0.82613 1.25982,1.65227 1.88981,2.4784 0.41682,0.71804 1.50612,1.4291 1.04696,2.23707 0.23037,0.23414 3.02054,0.28034 1.62729,-0.48627 -1.29814,-1.65242 -2.53948,-3.32198 -3.81527,-4.9811 -7e-5,-0.0319 4e-5,-0.0637 0,-0.0956 1.21214,-1.19976 2.34119,-2.43466 3.6096,-3.61011 0.92344,-0.66193 -0.8056,-0.51524 -1.45004,-0.45734 0.0175,0.41307 -0.0849,0.80469 -0.6103,1.18494 -0.8242,0.75994 -1.4698,1.61737 -2.39417,2.32131 -0.01,-0.6916 0.0228,-1.38382 -0.0196,-2.07481 -0.31122,-0.54661 1.17879,-1.67824 -0.41652,-1.46503 -0.14115,-0.0292 -0.26494,-0.0455 -0.37258,-0.0506 z m -24.506,0.001 c -0.72773,-0.0425 -0.57737,0.52019 -0.22324,0.88574 0.0529,2.49208 -0.0207,4.98555 0.0372,7.47706 0.31168,0.54702 -1.17954,1.67926 0.41652,1.46451 1.12922,0.23405 1.14736,-0.36366 0.67282,-0.83613 -0.0393,-2.55452 -0.006,-5.10953 -0.0171,-7.66413 8.9e-4,-0.3505 0.5248,-0.31967 0.92914,-0.31367 1.3813,-0.18321 2.40883,0.61862 2.50683,1.41128 0.18756,0.82143 -0.36983,1.94156 -1.92753,1.99936 -0.96252,-0.14952 -1.51039,0.17451 -1.20303,0.80667 1.31974,0.15056 2.95268,-0.0282 3.64835,-0.83457 0.89053,-1.12947 0.75416,-2.57858 -0.32556,-3.64268 -0.87274,-0.89285 -2.72831,-0.69574 -4.14703,-0.69608 -0.14178,-0.0331 -0.26346,-0.0513 -0.36742,-0.0574 z m 16.09928,0.0108 c -0.74212,-0.0504 -0.62896,0.49598 -0.25632,0.87489 0.053,2.49208 -0.0207,4.98555 0.0372,7.47706 0.3119,0.54704 -1.17956,1.67925 0.41651,1.46451 1.12921,0.23405 1.14735,-0.36366 0.67283,-0.83613 -0.0325,-1.86953 -0.0157,-3.73934 -0.015,-5.60896 0.15279,-0.77004 -0.34342,-1.68712 0.28525,-2.35334 0.46491,0.006 0.93481,-0.0238 1.39527,0.0305 1.6287,0.20112 1.84139,1.54556 1.21284,2.32596 -0.22982,1.02922 -3.07,0.48738 -2.49545,1.61282 1.29099,0.3351 1.77216,1.23947 2.33009,1.96835 0.51437,0.86188 1.32693,1.74755 1.10536,2.69493 0.046,0.3145 2.70042,0.33893 1.51567,-0.40359 -0.91719,-1.46802 -1.6516,-3.07161 -3.38843,-4.27726 0.0568,-0.21849 1.41801,-0.44001 1.68207,-0.91623 0.94666,-0.96341 0.95888,-2.28177 0.0739,-3.26078 -0.88206,-0.88483 -2.76168,-0.75675 -4.19974,-0.73225 -0.14267,-0.0338 -0.26606,-0.0533 -0.37207,-0.0605 z m -32.06316,0.002 c -1.65849,0.0803 -2.2997,1.26235 -2.2655,2.15232 -0.10576,1.39758 1.51949,2.50439 3.05925,3.38171 1.31619,0.77746 1.66442,2.20375 0.59583,3.13883 -0.87713,0.71241 -2.55459,0.34658 -3.07889,-0.39016 -1.06137,-0.78411 -0.29793,0.63907 -0.25683,1.048 -0.15294,0.85816 0.83678,-0.0738 1.33945,0.41186 0.92613,0.37249 2.16224,0.13923 2.73317,-0.42271 1.05006,-1.10865 1.22598,-2.55854 0.42426,-3.74913 -0.69827,-1.2097 -2.98711,-1.66817 -3.65042,-2.88199 -0.39264,-0.63482 -0.23265,-1.70529 1.11105,-1.78439 1.38717,-0.0476 1.7114,0.8433 2.28978,1.42679 0.45303,-0.19291 -0.039,-1.22861 0.0486,-1.7446 -0.58582,-0.0445 -1.52092,-0.53273 -2.34972,-0.58653 z m 4.90771,0 c -0.71893,-0.0162 -0.77872,0.43168 -0.31678,0.87282 0.0362,2.24399 0.0115,4.48835 0.0155,6.7324 0.11066,0.75056 -0.0665,1.48319 -0.36432,2.20865 h 5.17333 c 1.08275,0.31618 1.45124,-1.16202 0.99426,-1.24902 -1.28232,0.59034 -3.17296,0.14231 -4.70928,0.28216 v -3.91553 h 1.55185 c 0.74671,0.038 1.53248,-0.0872 2.23707,0.0775 1.16375,0.80428 0.63888,-0.45113 0.75034,-0.95757 0.25198,-0.74092 -0.47097,-0.30054 -0.98547,-0.0868 -1.18418,-1.3e-4 -2.36933,-4.3e-4 -3.55379,-5.2e-4 v -2.96054 h 2.09703 c 0.86926,0.0695 1.98306,-0.2226 2.58176,0.27853 0.61678,0.11576 -0.11813,-0.92865 -0.16743,-1.2454 h -4.95526 c -0.13001,-0.0226 -0.24611,-0.0344 -0.34881,-0.0367 z m -28.26804,0.0238 c -0.67938,0.24711 -2.0152,1.2262 -0.98082,1.72341 0.0522,2.34072 0.007,4.68149 0.0222,7.02231 0.38586,0.51104 -1.35847,1.18281 0.36328,1.04438 1.00628,0.21585 1.32468,-0.28908 0.74621,-0.76119 -0.0312,-2.20855 -0.0153,-4.41684 -0.0145,-6.62544 -0.09,-0.7946 0.17967,-1.64222 -0.13642,-2.40347 z m 3.58169,0 c -0.67938,0.24712 -2.01572,1.2262 -0.98134,1.72341 0.0521,2.34072 0.007,4.68149 0.0222,7.02231 0.38588,0.51105 -1.35851,1.18281 0.36329,1.04438 1.00627,0.21585 1.32468,-0.28907 0.74621,-0.76119 -0.0311,-2.20855 -0.0153,-4.41684 -0.0145,-6.62544 -0.09,-0.7946 0.1802,-1.64222 -0.13591,-2.40347 z m 45.1714,0.0847 c -1.23524,2.93076 -2.47048,5.86147 -3.70572,8.79223 -0.003,0.29118 -0.38425,0.49692 -0.47645,0.76998 0.12848,0.18595 2.09179,0.37121 1.75441,-0.16588 -0.57768,-0.92223 0.40436,-1.87275 0.59221,-2.80035 h 3.55018 c 0.93923,-0.11943 0.61942,0.76583 0.95911,1.125 0.34611,0.63056 0.54269,1.33328 0.0424,1.95905 0.84003,0.0553 2.88597,0.22611 1.76941,-0.64337 -1.086,-2.48442 -2.16109,-4.97045 -3.24115,-7.45588 -0.4329,-0.44973 -0.20709,-1.7248 -1.24437,-1.58078 z m -32.33911,0.0558 c -0.10106,0.0107 -0.23884,0.0399 -0.42065,0.0925 -2.25312,1.27549 -3.60825,3.10156 -3.96616,4.97851 -0.21943,1.44249 -0.17806,3.05379 1.20768,4.28243 0.99268,0.88241 2.70644,0.13448 2.94969,-0.69712 0.66254,-1.32249 0.66515,-2.83198 -0.26149,-4.10569 -0.38321,-0.91409 -2.87533,-0.80383 -2.51095,0.23461 0.61565,-0.36946 1.5348,-0.23412 1.75389,0.45475 0.42916,1.01772 0.56649,2.12458 0.1385,3.15123 -0.42369,1.16767 -1.96874,0.22876 -1.98644,-0.50901 -0.7567,-2.3661 -0.093,-4.99614 2.31355,-6.93136 0.39718,-0.1852 1.48982,-1.02568 0.78238,-0.95085 z m 32.52618,1.84227 c 0.5225,1.22657 1.08114,2.44744 1.58388,3.67729 -0.56185,0.27254 -2.29616,0.15782 -3.20704,0.0713 0.55585,-1.24547 1.00802,-2.51458 1.62316,-3.74861 z" /><rect
       style="display:none;fill:#ffffff;fill-opacity:0.566929;stroke-width:0;stroke-linecap:round;paint-order:fill markers stroke"
       id="rect15"
       width="108.7515"
       height="60.136478"
       x="115.88144"
       y="136.51125"
       rx="0"
       ry="0" /></g></svg>
