<?xml version="1.0" encoding="UTF-8" standalone="no"?>
<!-- Created with Inkscape (http://www.inkscape.org/) -->

<svg
   width="108.7515mm"
   height="60.136478mm"
   viewBox="0 0 108.75151 60.136478"
   version="1.1"
   id="svg1"
   xml:space="preserve"
   inkscape:version="1.3 (0e150ed, 2023-07-21)"
   sodipodi:docname="homepage-banner-date.svg"
   xmlns:inkscape="http://www.inkscape.org/namespaces/inkscape"
   xmlns:sodipodi="http://sodipodi.sourceforge.net/DTD/sodipodi-0.dtd"
   xmlns:xlink="http://www.w3.org/1999/xlink"
   xmlns="http://www.w3.org/2000/svg"
   xmlns:svg="http://www.w3.org/2000/svg"><sodipodi:namedview
     id="namedview1"
     pagecolor="#ffffff"
     bordercolor="#000000"
     borderopacity="0.25"
     inkscape:showpageshadow="2"
     inkscape:pageopacity="0.0"
     inkscape:pagecheckerboard="0"
     inkscape:deskcolor="#d1d1d1"
     inkscape:document-units="mm"
     inkscape:zoom="1.3275696"
     inkscape:cx="225.97685"
     inkscape:cy="35.779668"
     inkscape:window-width="1760"
     inkscape:window-height="968"
     inkscape:window-x="51"
     inkscape:window-y="25"
     inkscape:window-maximized="0"
     inkscape:current-layer="layer1"
     showgrid="false" /><defs
     id="defs1"><linearGradient
       id="linearGradient1"
       inkscape:collect="always"><stop
         style="stop-color:#00295e;stop-opacity:1;"
         offset="0"
         id="stop1" /><stop
         style="stop-color:#00012b;stop-opacity:1;"
         offset="1"
         id="stop2" /></linearGradient><radialGradient
       inkscape:collect="always"
       xlink:href="#linearGradient1"
       id="radialGradient2"
       cx="57.369732"
       cy="166.22253"
       fx="57.369732"
       fy="166.22253"
       r="53.330929"
       gradientTransform="matrix(1,0,0,0.54657386,0,75.369644)"
       gradientUnits="userSpaceOnUse" /><filter
       inkscape:collect="always"
       style="color-interpolation-filters:sRGB"
       id="filter2"
       x="-0.016563467"
       y="-0.028826031"
       width="1.0330953"
       height="1.059061"><feGaussianBlur
         inkscape:collect="always"
         stdDeviation="0.52659495"
         id="feGaussianBlur2" /></filter></defs><g
     inkscape:label="Layer 1"
     inkscape:groupmode="layer"
     id="layer1"
     transform="translate(-3.1957712,-136.23022)"><rect
       style="display:none;fill:#483737;stroke-width:0;stroke-linecap:round;paint-order:fill markers stroke"
       id="rect15"
       width="108.7515"
       height="60.136478"
       x="3.1957712"
       y="136.23022"
       rx="0"
       ry="0" /><path
       style="display:inline;opacity:0.196;fill:none;stroke:#ffffff;stroke-width:0.999998;stroke-opacity:1;filter:url(#filter2)"
       d="m 15.126573,195.26554 c -0.396478,-1.77052 -0.228514,-4.52666 0.357973,-5.87408 0.397879,-0.91411 0.44914,-1.38432 0.163342,-1.49845 -0.229065,-0.0915 -0.723134,-0.56061 -1.097933,-1.04255 -0.431483,-0.55484 -1.312834,-0.93787 -2.402821,-1.04428 -2.013457,-0.19654 -2.4711961,-0.46319 -2.4711961,-1.43956 0,-0.80964 -2.5503095,-3.70021 -3.2651064,-3.70074 -0.2565444,-1.9e-4 -0.466441,-0.20151 -0.466441,-0.44737 0,-0.24587 -0.3358439,-0.44703 -0.7463187,-0.44703 -1.0181013,0 -0.9466449,-0.78565 0.093277,-1.0256 0.8330411,-0.19221 0.8327236,-0.1942 -0.041363,-0.25459 l -0.8809402,-0.0609 0.8650019,-0.83909 c 0.6335833,-0.61461 1.2436,-0.77825 2.2802726,-0.61167 0.8737693,0.1404 1.4152708,0.0447 1.4152708,-0.25031 0,-0.30825 -0.8406975,-0.41193 -2.3698989,-0.2923 l -2.3699082,0.1854 -0.068627,-2.74015 c -0.037722,-1.50708 -0.1573758,-2.91218 -0.2658348,-3.1224 -0.1084591,-0.21023 0.079365,-0.5094 0.4174777,-0.6648 0.338066,-0.15541 0.4580656,-0.40545 0.2666564,-0.55563 -0.5153485,-0.40436 -0.9277747,-10.65598 -0.4431265,-11.01479 0.2717171,-0.20118 0.2676649,-0.46893 -0.013258,-0.87441 -0.341138,-0.49242 -0.4218007,-2.07221 -0.3315115,-6.49245 0.00747,-0.37103 -0.036228,-0.87394 -0.097404,-1.11755 -0.061158,-0.24363 0.084594,-1.09672 0.3237897,-1.89579 l 0.4349566,-1.45282 h 3.1313343 c 2.9933983,0 3.1504103,-0.0501 3.5643863,-1.13859 0.238179,-0.62623 0.433052,-1.53146 0.433052,-2.01162 0,-0.69017 0.253995,-0.86969 1.21276,-0.85718 0.667009,0.009 1.632552,0.30332 2.145641,0.6547 0.990651,0.67842 4.477866,0.91901 4.477866,0.30895 0,-0.19887 0.240308,-0.75205 0.534014,-1.22931 0.519167,-0.8436 0.544451,-0.83666 0.909231,0.24982 0.325461,0.96934 0.381838,0.99899 0.425105,0.22351 l 0.04986,-0.89404 0.320699,0.89404 c 0.274238,0.76452 0.3245,0.7807 0.346927,0.11175 0.02568,-0.767 0.772537,-1.15218 0.772537,-0.39844 0,0.59033 4.053535,2.25872 4.200911,1.72905 0.08188,-0.29415 0.411268,-0.27014 0.939418,0.0685 0.702948,0.45067 0.780678,0.41941 0.572557,-0.2303 -0.205817,-0.64252 -0.06228,-0.70898 0.987932,-0.45736 0.675806,0.16191 1.385579,0.29439 1.577269,0.29439 0.191699,0 0.228337,0.23297 0.08142,0.51773 -0.363453,0.70452 4.069249,0.19919 8.147163,-0.92877 1.696184,-0.46916 4.648985,-1.07734 6.561771,-1.35149 1.912785,-0.27417 5.439105,-0.90163 7.836268,-1.39437 9.223405,-1.8959 15.877679,-1.68769 30.18229,0.94432 7.353114,1.35296 10.44105,1.65435 8.786349,0.85758 -1.289342,-0.62085 -0.996804,-1.01496 0.503182,-0.67784 0.738523,0.16596 1.256392,0.13433 1.150809,-0.0703 -0.105574,-0.20466 0.707925,-0.4036 1.807773,-0.4421 1.47571,-0.0517 2.850018,-0.54734 5.244483,-1.89154 4.11082,-2.30775 4.52499,-2.30333 0.9025,0.01 -2.926688,1.8687 -2.682214,2.02306 0.68058,0.42971 1.09265,-0.51772 1.88035,-0.73532 1.75047,-0.48355 -0.36868,0.71461 0.094,0.55107 1.98037,-0.7 l 1.74566,-1.15773 -1.11947,1.2018 -1.11947,1.20182 1.11947,-0.28009 c 1.19293,-0.29847 1.31837,-0.41106 -3.63828,3.26552 -0.76962,0.57088 -1.39933,1.10496 -1.39933,1.18681 0,0.44992 3.49563,-0.55484 4.92086,-1.41441 0.97682,-0.58913 0.99129,-0.57864 0.55975,0.40604 -0.24365,0.55595 -1.11468,1.7737 -1.93563,2.70612 -1.39396,1.58325 -1.41862,1.65247 -0.37315,1.04737 1.80008,-1.04183 4.17113,-2.1059 3.37285,-1.51365 -0.40252,0.29865 -1.19261,1.07168 -1.75575,1.71786 -0.56313,0.64617 -1.08611,1.10033 -1.16216,1.00922 -0.0761,-0.091 -0.0645,0.4363 0.0256,1.172 0.0901,0.73571 0.31274,1.36281 0.49468,1.39354 0.18194,0.0308 0.49873,0.10613 0.70396,0.16764 0.20524,0.0614 0.48921,0.1369 0.63106,0.16763 0.14184,0.0308 0.006,0.30732 -0.30311,0.61465 -0.30855,0.30734 -0.76363,1.12982 -1.01129,1.82774 -0.39253,1.10621 -0.3656,1.29548 0.20994,1.47579 0.71907,0.22526 1.69353,2.2863 1.37389,2.90587 -0.10902,0.21132 0.0216,0.3873 0.29024,0.39107 0.35494,0.004 0.33547,0.1253 -0.0712,0.44018 -0.30785,0.23833 -0.39181,0.43731 -0.18657,0.44218 0.48524,0.0115 0.62275,3.13402 0.13803,3.13402 -0.20276,0 -0.27008,0.19107 -0.1496,0.4246 0.12047,0.23353 -0.16347,0.68069 -0.631,0.9937 -0.83133,0.55657 -0.82127,0.57462 0.45598,0.81903 0.77744,0.14875 1.26604,0.47837 1.2072,0.81436 -0.0544,0.31047 -0.13296,1.05838 -0.17467,1.66206 -0.0417,0.60366 -0.20713,1.09758 -0.36759,1.09758 -0.16048,0 -0.29178,0.29465 -0.29178,0.6548 0,0.36014 -0.35853,0.88467 -0.79672,1.16561 -0.62454,0.40041 -0.68711,0.59197 -0.28947,0.88637 0.33076,0.24488 0.9411,-0.0208 1.75413,-0.76373 0.68577,-0.62662 1.32946,-1.04036 1.43041,-0.9194 0.10095,0.12093 -0.3268,0.65523 -0.95054,1.18731 -0.62377,0.53207 -1.09522,1.14342 -1.04767,1.35854 0.0476,0.21512 -0.45687,1.08887 -1.12092,1.94166 -0.96935,1.24485 -1.09436,1.60248 -0.63414,1.81404 0.85283,0.39204 -0.15572,1.53651 -1.13272,1.28537 -0.57036,-0.14661 -0.63111,-0.0876 -0.24612,0.23891 0.41779,0.35433 0.38367,0.52235 -0.18658,0.91923 -0.62012,0.43161 -0.57848,0.48718 0.37409,0.49925 0.90998,0.0115 1.0017,0.11488 0.60732,0.68414 -0.39842,0.57512 -0.25889,0.68007 0.98049,0.73751 1.17246,0.0543 1.24593,0.10283 0.38952,0.2566 -0.64703,0.11623 -0.9866,0.40473 -0.87745,0.74547 0.0979,0.30572 -0.38508,1.21548 -1.07337,2.02168 -1.1792,1.38121 -1.43013,1.47476 -4.34673,1.62063 -2.419948,0.12101 -3.096368,0.29884 -3.100184,0.81501 -0.0098,1.32276 -2.008887,2.58449 -5.128663,3.23694 -2.023672,0.42322 -3.114135,0.48672 -3.197748,0.18619 -0.06974,-0.25081 -1.246363,-0.4624 -2.614595,-0.4702 -2.835079,-0.0161 -8.392204,-0.92176 -12.083069,-1.96911 -3.050691,-0.86568 -6.97107,-1.34756 -6.449867,-0.79278 0.563275,0.59954 12.523246,3.1368 16.978124,3.60184 l 3.918129,0.409 -4.664449,-0.21404 c -2.565444,-0.11771 -5.755918,-0.507 -7.089948,-0.86509 -1.334029,-0.35809 -4.98089,-1.23908 -8.104129,-1.95774 -5.612624,-1.29148 -5.790438,-1.30379 -15.29938,-1.05843 -5.291411,0.13654 -9.956597,0.42225 -10.367062,0.63492 -0.943451,0.4888 -10.635735,1.54299 -12.87386,1.40023 -1.916811,-0.12226 -6.34365,0.8131 -6.34365,1.34038 0,0.19304 -0.279419,0.22254 -0.62095,0.0655 -0.417515,-0.19193 -0.532547,-0.11412 -0.351128,0.23754 0.163538,0.317 0.03202,0.523 -0.333967,0.523 -0.332072,0 -0.511372,0.1791 -0.39844,0.39801 0.209141,0.40537 -1.412899,0.88568 -4.05473,1.20063 -1.867313,0.22262 -2.306342,0.74495 -1.469127,1.7479 0.62576,0.74963 0.622575,0.81443 -0.06928,1.41023 -0.39886,0.34347 -1.003405,0.90439 -1.343441,1.24649 -0.541894,0.54518 -0.644956,0.50274 -0.834507,-0.34375 z M 9.3027829,175.30123 c 0.400717,-0.31022 0.0028,-0.43528 -1.3993326,-0.44018 -1.0774847,-0.003 -1.9590598,0.19432 -1.9590598,0.44018 0,0.57171 2.6199261,0.57171 3.3583924,0 z M 105.10252,160.27916 c -0.26116,-0.31287 -1.39141,0.3214 -1.39141,0.78083 0,0.22836 0.34995,0.19056 0.77828,-0.084 0.42805,-0.27444 0.70395,-0.58799 0.61313,-0.6968 z m 0.75535,-8.03563 c -0.12889,-0.15439 -0.70661,-0.0745 -1.28383,0.17758 -0.64745,0.28272 -0.79933,0.47182 -0.39648,0.49359 0.35916,0.0195 0.65302,0.27955 0.65302,0.5781 0,0.3418 0.23361,0.26296 0.63081,-0.21287 0.34695,-0.41562 0.52536,-0.88201 0.39648,-1.0364 z m 0.34688,-12.10115 c -0.10493,-0.12571 -0.52997,-0.0112 -0.94452,0.2547 -0.94098,0.60329 -1.28851,0.616 -0.98938,0.0362 0.36767,-0.71265 -0.42003,-0.51678 -0.93998,0.23374 -0.40046,0.57803 -0.36512,0.63287 0.23417,0.36333 0.64342,-0.28938 0.65661,-0.2451 0.14921,0.50098 -0.48396,0.71161 -0.34532,0.68929 1.06234,-0.171 0.89042,-0.54419 1.53309,-1.09227 1.42816,-1.21797 z m 0.0252,37.54494 c 0.25655,-0.124 0.67634,-0.124 0.93288,0 0.25655,0.12401 0.0467,0.22548 -0.46643,0.22548 -0.51309,0 -0.72299,-0.10144 -0.46645,-0.22548 z m 2.5188,-6.40931 c 0.12684,-0.24586 0.39854,-0.44703 0.60378,-0.44703 0.20524,0 0.26937,0.20117 0.14253,0.44703 -0.12685,0.24586 -0.39854,0.44702 -0.60378,0.44702 -0.20523,0 -0.26937,-0.20116 -0.14253,-0.44702 z M 27.960555,139.06584 c 0,-0.26038 0.167928,-0.34909 0.373155,-0.19714 0.205238,0.15197 0.373155,0.36499 0.373155,0.47342 0,0.10839 -0.167917,0.19713 -0.373155,0.19713 -0.205227,0 -0.373155,-0.21303 -0.373155,-0.47341 z"
       id="path2"
       inkscape:label="glow" /><path
       style="display:inline;fill:url(#radialGradient2);stroke-width:0.999998"
       d="m 15.525171,194.66764 c -0.396478,-1.77052 -0.228514,-4.52666 0.357973,-5.87408 0.397879,-0.91411 0.44914,-1.38432 0.163342,-1.49845 -0.229065,-0.0915 -0.723134,-0.56061 -1.097933,-1.04255 -0.431483,-0.55484 -1.312834,-0.93787 -2.402821,-1.04428 -2.013457,-0.19654 -2.471196,-0.46319 -2.471196,-1.43956 0,-0.80964 -2.5503095,-3.70021 -3.2651064,-3.70074 -0.2565444,-1.9e-4 -0.466441,-0.20151 -0.466441,-0.44737 0,-0.24587 -0.3358439,-0.44703 -0.7463187,-0.44703 -1.0181013,0 -0.9466449,-0.78565 0.093277,-1.0256 0.8330411,-0.19221 0.8327236,-0.1942 -0.041363,-0.25459 l -0.8809402,-0.0609 0.8650019,-0.83909 c 0.6335833,-0.61461 1.2436,-0.77825 2.2802726,-0.61167 0.8737693,0.1404 1.4152708,0.0447 1.4152708,-0.25031 0,-0.30825 -0.8406975,-0.41193 -2.3698989,-0.2923 l -2.3699082,0.1854 -0.068627,-2.74015 c -0.037722,-1.50708 -0.1573758,-2.91218 -0.2658348,-3.1224 -0.1084591,-0.21023 0.079365,-0.5094 0.4174777,-0.6648 0.338066,-0.15541 0.4580656,-0.40545 0.2666564,-0.55563 -0.5153485,-0.40436 -0.9277747,-10.65598 -0.4431265,-11.01479 0.2717171,-0.20118 0.2676649,-0.46893 -0.013258,-0.87441 -0.341138,-0.49242 -0.4218007,-2.07221 -0.3315115,-6.49245 0.00747,-0.37103 -0.036228,-0.87394 -0.097404,-1.11755 -0.061158,-0.24363 0.084594,-1.09672 0.3237897,-1.89579 l 0.4349566,-1.45282 h 3.1313343 c 2.9933982,0 3.1504102,-0.0501 3.5643862,-1.13859 0.238179,-0.62623 0.433052,-1.53146 0.433052,-2.01162 0,-0.69017 0.253995,-0.86969 1.21276,-0.85718 0.667009,0.009 1.632552,0.30332 2.145641,0.6547 0.990651,0.67842 4.477866,0.91901 4.477866,0.30895 0,-0.19887 0.240308,-0.75205 0.534014,-1.22931 0.519167,-0.8436 0.544451,-0.83666 0.909231,0.24982 0.325461,0.96934 0.381838,0.99899 0.425105,0.22351 l 0.04986,-0.89404 0.320699,0.89404 c 0.274238,0.76452 0.3245,0.7807 0.346927,0.11175 0.02568,-0.767 0.772537,-1.15218 0.772537,-0.39844 0,0.59033 4.053535,2.25872 4.200911,1.72905 0.08188,-0.29415 0.411268,-0.27014 0.939418,0.0685 0.702948,0.45067 0.780678,0.41941 0.572557,-0.2303 -0.205817,-0.64252 -0.06228,-0.70898 0.987932,-0.45736 0.675806,0.16191 1.385579,0.29439 1.577269,0.29439 0.191699,0 0.228337,0.23297 0.08142,0.51773 -0.363453,0.70452 4.069249,0.19919 8.147163,-0.92877 1.696184,-0.46916 4.648985,-1.07734 6.561771,-1.35149 1.912785,-0.27417 5.439105,-0.90163 7.836268,-1.39437 9.223405,-1.8959 15.877679,-1.68769 30.18229,0.94432 7.353114,1.35296 10.44105,1.65435 8.786349,0.85758 -1.289342,-0.62085 -0.996804,-1.01496 0.503182,-0.67784 0.738523,0.16596 1.256392,0.13433 1.150809,-0.0703 -0.105574,-0.20466 0.707925,-0.4036 1.807773,-0.4421 1.47571,-0.0517 2.850018,-0.54734 5.244485,-1.89154 4.11082,-2.30775 4.52499,-2.30333 0.9025,0.01 -2.92669,1.8687 -2.682216,2.02306 0.68058,0.42971 1.09265,-0.51772 1.88035,-0.73532 1.75047,-0.48355 -0.36868,0.71461 0.094,0.55107 1.98037,-0.7 l 1.74566,-1.15773 -1.11947,1.2018 -1.11947,1.20182 1.11947,-0.28009 c 1.19293,-0.29847 1.31837,-0.41106 -3.63828,3.26552 -0.76962,0.57088 -1.39933,1.10496 -1.39933,1.18681 0,0.44992 3.49563,-0.55484 4.92086,-1.41441 0.97682,-0.58913 0.99129,-0.57864 0.55975,0.40604 -0.24365,0.55595 -1.11468,1.7737 -1.93563,2.70612 -1.39396,1.58325 -1.41862,1.65247 -0.37315,1.04737 1.80008,-1.04183 4.17113,-2.1059 3.37285,-1.51365 -0.40252,0.29865 -1.19261,1.07168 -1.75575,1.71786 -0.56313,0.64617 -1.08611,1.10033 -1.16216,1.00922 -0.0761,-0.091 -0.0645,0.4363 0.0256,1.172 0.0901,0.73571 0.31274,1.36281 0.49468,1.39354 0.18194,0.0308 0.49873,0.10613 0.70396,0.16764 0.20524,0.0614 0.48921,0.1369 0.63106,0.16763 0.14184,0.0308 0.006,0.30732 -0.30311,0.61465 -0.30855,0.30734 -0.76363,1.12982 -1.01129,1.82774 -0.39253,1.10621 -0.3656,1.29548 0.20994,1.47579 0.71907,0.22526 1.69353,2.2863 1.37389,2.90587 -0.10902,0.21132 0.0216,0.3873 0.29024,0.39107 0.35494,0.004 0.33547,0.1253 -0.0712,0.44018 -0.30785,0.23833 -0.39181,0.43731 -0.18657,0.44218 0.48524,0.0115 0.62275,3.13402 0.13803,3.13402 -0.20276,0 -0.27008,0.19107 -0.1496,0.4246 0.12047,0.23353 -0.16347,0.68069 -0.631,0.9937 -0.83133,0.55657 -0.82127,0.57462 0.45598,0.81903 0.77744,0.14875 1.26604,0.47837 1.2072,0.81436 -0.0544,0.31047 -0.13296,1.05838 -0.17467,1.66206 -0.0417,0.60366 -0.20713,1.09758 -0.36759,1.09758 -0.16048,0 -0.29178,0.29465 -0.29178,0.6548 0,0.36014 -0.35853,0.88467 -0.79672,1.16561 -0.62454,0.40041 -0.68711,0.59197 -0.28947,0.88637 0.33076,0.24488 0.9411,-0.0208 1.75413,-0.76373 0.68577,-0.62662 1.32946,-1.04036 1.43041,-0.9194 0.10095,0.12093 -0.3268,0.65523 -0.95054,1.18731 -0.62377,0.53207 -1.09522,1.14342 -1.04767,1.35854 0.0476,0.21512 -0.45687,1.08887 -1.12092,1.94166 -0.96935,1.24485 -1.09436,1.60248 -0.63414,1.81404 0.85283,0.39204 -0.15572,1.53651 -1.13272,1.28537 -0.57036,-0.14661 -0.63111,-0.0876 -0.24612,0.23891 0.41779,0.35433 0.38367,0.52235 -0.18658,0.91923 -0.62012,0.43161 -0.57848,0.48718 0.37409,0.49925 0.90998,0.0115 1.0017,0.11488 0.60732,0.68414 -0.39842,0.57512 -0.25889,0.68007 0.98049,0.73751 1.17246,0.0543 1.24593,0.10283 0.38952,0.2566 -0.64703,0.11623 -0.9866,0.40473 -0.87745,0.74547 0.0979,0.30572 -0.38508,1.21548 -1.07337,2.02168 -1.1792,1.38121 -1.43013,1.47476 -4.34673,1.62063 -2.41995,0.12101 -3.09637,0.29884 -3.100186,0.81501 -0.0098,1.32276 -2.008887,2.58449 -5.128663,3.23694 -2.023672,0.42322 -3.114135,0.48672 -3.197748,0.18619 -0.06974,-0.25081 -1.246363,-0.4624 -2.614595,-0.4702 -2.835079,-0.0161 -8.392204,-0.92176 -12.083069,-1.96911 -3.050691,-0.86568 -6.97107,-1.34756 -6.449867,-0.79278 0.563275,0.59954 12.523246,3.1368 16.978124,3.60184 l 3.918129,0.409 -4.664449,-0.21404 c -2.565444,-0.11771 -5.755918,-0.507 -7.089948,-0.86509 -1.334029,-0.35809 -4.98089,-1.23908 -8.104129,-1.95774 -5.612624,-1.29148 -5.790438,-1.30379 -15.29938,-1.05843 -5.291411,0.13654 -9.956597,0.42225 -10.367062,0.63492 -0.943451,0.4888 -10.635735,1.54299 -12.87386,1.40023 -1.916811,-0.12226 -6.34365,0.8131 -6.34365,1.34038 0,0.19304 -0.279419,0.22254 -0.62095,0.0655 -0.417515,-0.19193 -0.532547,-0.11412 -0.351128,0.23754 0.163538,0.317 0.03202,0.523 -0.333967,0.523 -0.332072,0 -0.511372,0.1791 -0.39844,0.39801 0.209141,0.40537 -1.412899,0.88568 -4.05473,1.20063 -1.867313,0.22262 -2.306342,0.74495 -1.469127,1.7479 0.62576,0.74963 0.622575,0.81443 -0.06928,1.41023 -0.39886,0.34347 -1.003405,0.90439 -1.343441,1.24649 -0.541894,0.54518 -0.644956,0.50274 -0.834507,-0.34375 z m -5.82379,-19.96431 c 0.400717,-0.31022 0.0028,-0.43528 -1.3993326,-0.44018 -1.0774847,-0.003 -1.9590598,0.19432 -1.9590598,0.44018 0,0.57171 2.6199261,0.57171 3.3583924,0 z m 95.799739,-15.02207 c -0.26116,-0.31287 -1.39141,0.3214 -1.39141,0.78083 0,0.22836 0.34995,0.19056 0.77828,-0.084 0.42805,-0.27444 0.70395,-0.58799 0.61313,-0.6968 z m 0.75535,-8.03563 c -0.12889,-0.15439 -0.70661,-0.0745 -1.28383,0.17758 -0.64745,0.28272 -0.79933,0.47182 -0.39648,0.49359 0.35916,0.0195 0.65302,0.27955 0.65302,0.5781 0,0.3418 0.23361,0.26296 0.63081,-0.21287 0.34695,-0.41562 0.52536,-0.88201 0.39648,-1.0364 z m 0.34688,-12.10115 c -0.10493,-0.12571 -0.52997,-0.0112 -0.94452,0.2547 -0.94098,0.60329 -1.28851,0.616 -0.98938,0.0362 0.36767,-0.71265 -0.42003,-0.51678 -0.93998,0.23374 -0.40046,0.57803 -0.36512,0.63287 0.23417,0.36333 0.64342,-0.28938 0.65661,-0.2451 0.14921,0.50098 -0.48396,0.71161 -0.34532,0.68929 1.06234,-0.171 0.89042,-0.54419 1.53309,-1.09227 1.42816,-1.21797 z m 0.0252,37.54494 c 0.25655,-0.124 0.67634,-0.124 0.93288,0 0.25655,0.12401 0.0467,0.22548 -0.46643,0.22548 -0.51309,0 -0.72299,-0.10144 -0.46645,-0.22548 z m 2.5188,-6.40931 c 0.12684,-0.24586 0.39854,-0.44703 0.60378,-0.44703 0.20524,0 0.26937,0.20117 0.14253,0.44703 -0.12685,0.24586 -0.39854,0.44702 -0.60378,0.44702 -0.20523,0 -0.26937,-0.20116 -0.14253,-0.44702 z M 28.359153,138.46794 c 0,-0.26038 0.167928,-0.34909 0.373155,-0.19714 0.205238,0.15197 0.373155,0.36499 0.373155,0.47342 0,0.10839 -0.167917,0.19713 -0.373155,0.19713 -0.205227,0 -0.373155,-0.21303 -0.373155,-0.47341 z"
       id="path7" /><path
       style="font-size:20.2883px;line-height:1;font-family:'Della Respira';-inkscape-font-specification:'Della Respira';text-align:center;letter-spacing:0.317003px;text-anchor:middle;fill:#ffffff;stroke-width:0;stroke-linecap:round;paint-order:fill markers stroke"
       d="m 18.402111,164.25174 c -0.612324,-0.18993 -3.041904,-0.21868 -1.229746,-0.74852 1.745147,-0.59193 3.918416,-0.35175 4.417714,1.70325 1.247626,2.10471 2.495255,4.20942 3.742876,6.31414 1.413022,-2.08546 2.500638,-4.37529 3.800534,-6.5333 0.502793,-1.11428 1.020078,-2.11203 2.403677,-1.68 0.62501,-0.12578 2.894914,0.14932 2.264371,0.71313 -1.76309,-0.41846 -1.956099,1.39185 -1.40538,2.58307 0.540473,3.97297 1.047551,7.95066 1.635069,11.91709 1.217988,1.04128 -0.226262,1.60165 -1.205627,1.29645 -1.007684,0.30018 -1.989843,-0.42352 -0.971723,-1.31724 0.317192,-1.24332 -0.211439,-2.4964 -0.270043,-3.74861 -0.387469,-2.95275 -0.774939,-5.9055 -1.162409,-8.85825 -1.692623,2.85916 -3.2322,5.80475 -4.864256,8.69818 -1.887302,-0.47136 -1.921778,-2.92056 -3.115702,-4.18229 -0.868794,-1.5053 -1.73759,-3.01059 -2.606383,-4.51589 -0.554158,2.73556 -0.652933,5.54023 -1.086567,8.2962 -0.181532,1.38015 -0.356406,2.76426 -0.397377,4.15708 0.661035,0.67536 0.723976,1.96461 -0.534411,1.44498 -1.012402,0.26875 -2.526765,-0.12266 -1.323939,-1.29193 0.47893,-2.06727 0.548002,-4.20898 0.892237,-6.3027 0.339032,-2.64828 0.678069,-5.29656 1.017085,-7.94484 z m 19.047618,14.00369 c 2.138065,-4.94307 4.276129,-9.88614 6.414194,-14.82921 2.026488,-0.0213 1.73355,2.82355 2.771973,4.04753 1.687362,3.79202 3.360571,7.59048 5.085992,11.36543 1.290714,1.46456 -1.66857,0.80924 -2.443393,1.00893 -1.296598,-0.37618 0.7089,-2.45517 -0.756494,-3.19925 -0.282603,-0.92152 -0.536809,-2.3765 -1.817312,-2.09822 -2.006207,0 -4.012413,0 -6.018619,0 -0.503606,1.66726 -1.933463,3.32451 -1.019199,5.09566 -0.802702,0.23789 -2.539635,0.36157 -3.051999,-0.12228 0.231073,-0.44996 0.780473,-0.73265 0.834857,-1.26859 z m 3.928451,-5.30549 c 1.350797,0.26737 2.755762,0.0622 4.133136,0.12083 0.404744,-0.10161 1.38752,0.21056 1.404906,-0.16833 -0.718652,-2.01542 -1.754238,-3.90145 -2.540143,-5.8868 -0.859855,-0.30087 -0.949179,1.82716 -1.506468,2.49862 -0.496947,1.14531 -1.000154,2.28791 -1.491431,3.43568 z m 16.43515,-0.11075 c -2.022022,-2.78025 -3.995955,-5.59546 -6.048643,-8.35338 -1.202349,-0.32092 -0.616536,-1.76481 0.455154,-1.15193 0.945728,-0.0642 2.811785,-0.3904 2.049943,1.10757 0.590926,1.54474 1.901444,2.66167 2.738418,4.06893 0.83599,0.69895 1.622874,3.56056 2.525616,1.66256 1.402391,-1.80813 2.747755,-3.67141 4.101442,-5.50772 0.175911,-0.83232 -0.122639,-1.55068 1.054018,-1.37518 0.973127,-0.24538 2.782562,0.12375 1.290662,1.04801 -1.881332,2.2436 -3.518497,4.68219 -5.308605,6.99927 -0.982619,0.8259 -0.898867,2.00044 -0.84928,3.17058 -0.0062,1.29255 -0.01517,2.58556 0.02861,3.87761 0.986426,0.77174 0.288122,1.9237 -0.847103,1.39366 -0.854386,0.19831 -2.567648,0.0655 -1.385991,-1.09282 0.455486,-1.47447 0.05736,-3.0475 0.195759,-4.56296 -10e-7,-0.42806 -2e-6,-0.85613 4e-6,-1.2842 z m 20.022417,1.0168 c -1.541504,-0.33224 -4.062088,0.69535 -4.978859,-0.57158 0.2383,-1.83274 1.772396,-3.08934 2.45424,-4.7412 1.000757,-1.7023 2.001516,-3.40461 3.002272,-5.10691 1.363617,-0.79708 1.573652,0.80618 1.413459,1.76899 0,2.43056 0,4.86111 0,7.29167 0.67495,-0.99922 1.904147,-0.62741 1.047028,0.50047 -1.17434,1.04239 -1.233413,2.44258 -1.082767,3.90502 -0.357741,1.10786 1.466719,3.243 -0.483423,2.90789 -0.947193,0.17724 -2.619444,0.0571 -1.489174,-1.17817 0.272706,-1.52931 0.05558,-3.10143 0.117224,-4.65169 v -0.0841 -0.0404 z m -3.538529,-1.28861 c 1.17951,0 2.359019,0 3.538529,0 0,-2.05374 0,-4.10749 0,-6.16123 -1.247366,2.00196 -2.374269,4.07514 -3.567832,6.10892 l 0.02931,0.0523 z m 10.001463,-4.15783 c 1.345821,-0.43153 0.05966,2.7305 1.797041,1.80187 1.502706,-0.70159 1.213756,1.96217 -0.136618,1.1378 -1.871569,-0.14684 -0.598467,2.47755 -0.971198,3.57538 0.242066,1.1711 -0.782538,4.1742 1.19492,3.84971 2.001353,-0.67089 -0.137012,1.7274 -1.101542,1.19191 -1.892226,-0.20602 -1.760922,-2.32213 -1.706483,-3.73394 -0.0076,-1.62767 0.0026,-3.25536 -0.0022,-4.88304 -1.448318,0.31591 -0.845015,-1.52231 0.209007,-1.4662 0.462421,-0.33285 0.756918,-0.89945 0.717046,-1.47349 z m 4.289123,-3.42289 c 0.418267,-0.81915 2.557794,-2.5502 2.407749,-0.60701 0,2.29297 0,4.58595 0,6.87892 1.703136,-1.2374 4.368939,-1.7106 5.973732,-0.0536 1.403494,1.50947 0.71951,3.73295 0.835008,5.58651 -0.332884,0.96349 0.734042,2.58146 0.279827,2.9557 -0.910343,0.15567 -3.262225,0.38993 -2.017009,-1.11635 0.338446,-1.74464 0.02675,-3.55392 0.179569,-5.30887 -0.306389,-1.51621 -2.11678,-2.28893 -3.506534,-1.80894 -1.666982,-0.18702 -2.001753,1.7514 -1.767137,3.00938 0.145177,1.61619 -0.274768,3.29001 0.387382,4.84261 0.265685,0.76505 -1.775115,0.45091 -2.444054,0.33152 0.345896,-0.84334 0.647363,-2.21549 0.480836,-3.36287 0.0021,-3.58027 -0.0057,-7.16055 0.0041,-10.74082 -0.06185,-0.41698 -0.644024,-0.2794 -0.81343,-0.60622 z"
       id="text3"
       aria-label="MAY 4th"
       inkscape:label="may 4th" /><path
       style="font-size:13.6227px;line-height:1;font-family:'Della Respira';-inkscape-font-specification:'Della Respira';text-align:center;letter-spacing:0.378406px;text-anchor:middle;fill:#ffffff;stroke-width:0;stroke-linecap:round;paint-order:fill markers stroke"
       d="m 21.702696,158.40528 c -1.117179,0.12074 -1.877562,-0.31754 -1.875247,-1.49188 0.162668,-1.19656 1.437578,0.97918 2.28263,0.68742 1.607401,0.46426 3.390654,-1.37303 2.314148,-2.88724 -0.848689,-1.52517 -2.832948,-1.7003 -3.861183,-3.06135 -1.197828,-1.1198 -1.011798,-3.43299 0.608581,-4.04366 1.244754,-0.52744 2.631327,-0.0976 3.796157,0.3571 0.703409,0.71871 0.216118,3.01258 -0.440605,1.29561 -0.858059,-0.96855 -2.840371,-1.40298 -3.51866,-0.0178 -0.334786,1.51369 1.339112,2.33031 2.463821,2.90941 1.326131,0.59357 2.512707,1.80793 2.448422,3.35246 0.06756,1.73736 -1.520666,3.35858 -3.294955,3.09651 -0.314451,-0.0253 -0.625745,-0.0911 -0.923109,-0.19657 z m 5.370597,-0.95704 c 1.429745,-3.33268 2.85949,-6.66536 4.289235,-9.99804 1.693909,0.44415 1.456339,2.77976 2.411108,3.99009 1.013522,2.26782 1.962253,4.57705 3.072892,6.79358 -0.507901,0.4614 -2.764287,0.60566 -2.02496,-0.58131 -0.160724,-0.92614 -0.372263,-2.80433 -1.605529,-2.70221 -1.326191,0 -2.652381,0 -3.978572,0 -0.464938,1.08555 -1.106926,2.40793 -0.76768,3.41685 -0.830752,0.30465 -2.637844,0.40949 -1.396494,-0.91896 z m 2.626993,-3.57703 c 1.090237,0.0321 3.209061,0.3606 3.648457,-0.19622 -0.628588,-1.29359 -0.968849,-2.75186 -1.859166,-3.90297 -0.644608,1.34498 -1.185585,2.73602 -1.789291,4.09919 z m 16.993254,-6.50246 c 0.504899,0.49613 0.611061,2.07394 -0.387486,1.14984 -1.2838,0.26354 -4.279147,-0.98146 -4.17288,1.0567 0.002,2.6536 -0.02295,5.30739 0.0169,7.96084 1.549625,1.26255 -2.659969,1.52464 -1.387698,0.0218 0.232506,-1.57421 0.0512,-3.17856 0.103534,-4.76807 0,-1.44049 0,-2.88098 0,-4.32147 -1.60924,0.0108 -3.61312,-0.10372 -4.93872,0.23628 -0.28202,-1.66194 1.829505,-1.44625 2.871245,-1.33589 2.631702,0 5.263404,9e-5 7.895106,-2e-5 z m 2.378562,1.18781 c -1.202244,-1.34545 1.101014,-1.57503 1.741758,-0.95317 -0.756508,1.33281 -0.268112,2.95394 -0.416918,4.41838 0.0612,1.65528 -0.351891,3.77118 1.248086,4.86522 1.64158,1.24998 4.537126,0.4163 4.832675,-1.75712 0.312158,-1.75895 -0.0369,-3.54999 0.154224,-5.32015 0.08317,-1.17881 -1.057198,-2.95361 0.938237,-2.47909 1.321058,0.14216 -0.245105,1.50573 0.201483,2.32195 -0.08126,2.05049 0.252657,4.1463 -0.210803,6.16547 -0.693297,2.61033 -4.134276,3.70757 -6.353678,2.29808 -1.649614,-0.93553 -2.277899,-2.91934 -2.147851,-4.71848 0.0316,-1.61345 0.0039,-3.22737 0.01279,-4.84109 z m 13.277652,-0.0747 c -0.79866,1.56259 -0.06678,3.38926 -0.33435,5.06292 -0.04844,1.61338 -0.02481,3.4661 0.270478,4.82092 -0.78785,0.43477 -2.564272,0.24915 -1.607246,-0.99512 0.214288,-1.95424 -0.02485,-3.93083 0.07729,-5.89595 0.09235,-1.34331 -0.07739,-2.84721 -0.219834,-4.00061 1.551256,-0.15098 3.225262,-0.22219 4.762382,0.18092 1.838262,0.44177 2.380118,3.01763 0.962209,4.22356 -0.467937,0.89055 -2.824557,0.77118 -1.253614,1.67302 1.574678,1.19268 2.320674,3.06561 3.448653,4.61865 -0.488261,0.78796 -2.569849,0.45844 -2.064543,-0.8411 -0.719737,-1.34709 -1.38672,-2.95655 -2.780479,-3.72774 -0.86224,-0.19436 -1.610845,-1.73105 -0.189575,-1.47649 1.619532,0.1242 3.209834,-2.01496 1.701149,-3.19827 -0.8142,-0.56173 -1.840183,-0.45393 -2.772516,-0.44471 z m 10.937479,10.00482 c -1.016583,-0.25279 -3.824458,0.76731 -2.929202,-1.11611 0.214292,-1.95424 -0.02484,-3.93083 0.07729,-5.89595 0.09399,-1.34843 -0.0791,-2.85059 -0.223015,-4.0103 1.329777,-0.2124 2.77141,-0.14948 4.112861,0.0782 2.228254,0.48613 3.95631,2.50524 4.062082,4.79058 0.27709,2.96669 -1.919781,6.20831 -5.100018,6.15358 z m -1.590537,-1.31678 c 1.925138,0.77571 4.413786,-0.21501 5.071415,-2.24143 0.770278,-2.01402 0.344409,-4.81398 -1.645897,-5.96054 -1.032739,-0.54349 -2.246315,-0.61593 -3.386411,-0.47934 -0.08748,2.89308 -0.01787,5.7876 -0.03911,8.68131 z m 7.684697,0.27829 c 1.429745,-3.33268 2.85949,-6.66536 4.289235,-9.99804 1.693909,0.44415 1.456339,2.77976 2.411108,3.99009 1.013522,2.26782 1.962253,4.57705 3.072892,6.79357 -0.507901,0.46141 -2.764288,0.60567 -2.024959,-0.5813 -0.160724,-0.92614 -0.372264,-2.80433 -1.60553,-2.70221 -1.326191,0 -2.652381,0 -3.978572,0 -0.464938,1.08555 -1.106927,2.40793 -0.76768,3.41685 -0.830754,0.30464 -2.637831,0.40949 -1.396494,-0.91896 z m 2.626993,-3.57703 c 1.090236,0.0321 3.20906,0.36055 3.648457,-0.19612 -0.62859,-1.29359 -0.96885,-2.75186 -1.859166,-3.90298 -0.644624,1.34494 -1.185503,2.73599 -1.789291,4.0991 z m 11.15259,-0.0747 c -1.35222,-1.87447 -2.671922,-3.77239 -4.044789,-5.63195 -1.615646,-0.99571 2.311223,-1.45781 1.791898,0.0526 0.68124,1.52307 1.885037,2.97413 2.941376,4.15323 1.160284,-0.83186 1.737682,-2.352 2.732839,-3.41156 0.576581,-0.90416 0.554165,-1.99971 1.909424,-1.61335 1.477257,0.24057 -1.027418,1.61782 -1.179158,2.39736 -0.950355,1.25935 -1.845132,2.55983 -2.80879,3.80925 -0.03844,1.57374 -0.03589,3.52505 0.239223,4.80804 -0.717996,0.43817 -2.685454,0.27561 -1.64481,-0.84677 0.160845,-1.23277 0.0076,-2.47854 0.06279,-3.71687 z"
       id="text5"
       aria-label=" SATURDAY"
       inkscape:label="saturday" /></g></svg>
