<?xml version="1.0" encoding="UTF-8" standalone="no"?>
<!-- Created with Inkscape (http://www.inkscape.org/) -->

<svg
   width="108.7515mm"
   height="60.136478mm"
   viewBox="0 0 108.75151 60.136478"
   version="1.1"
   id="svg1"
   xml:space="preserve"
   inkscape:version="1.3 (0e150ed, 2023-07-21)"
   sodipodi:docname="homepage-banner-location.svg"
   inkscape:export-filename="homepage-banner-location.png"
   inkscape:export-xdpi="300"
   inkscape:export-ydpi="300"
   xmlns:inkscape="http://www.inkscape.org/namespaces/inkscape"
   xmlns:sodipodi="http://sodipodi.sourceforge.net/DTD/sodipodi-0.dtd"
   xmlns:xlink="http://www.w3.org/1999/xlink"
   xmlns="http://www.w3.org/2000/svg"
   xmlns:svg="http://www.w3.org/2000/svg"><sodipodi:namedview
     id="namedview1"
     pagecolor="#ffffff"
     bordercolor="#000000"
     borderopacity="0.25"
     inkscape:showpageshadow="2"
     inkscape:pageopacity="0.0"
     inkscape:pagecheckerboard="0"
     inkscape:deskcolor="#d1d1d1"
     inkscape:document-units="mm"
     inkscape:zoom="1.8718731"
     inkscape:cx="161.86995"
     inkscape:cy="94.29058"
     inkscape:window-width="1872"
     inkscape:window-height="968"
     inkscape:window-x="1968"
     inkscape:window-y="25"
     inkscape:window-maximized="0"
     inkscape:current-layer="layer1" /><defs
     id="defs1"><inkscape:path-effect
       effect="bend_path"
       id="path-effect12"
       is_visible="true"
       lpeversion="1"
       bendpath="m 147.72005,148.55988 c 1.88058,-0.25939 8.86861,-1.68904 14.80644,-1.43031 7.43121,0.3238 13.08755,0.86493 13.08755,0.86493"
       prop_scale="1"
       scale_y_rel="false"
       vertical="false"
       hide_knot="false"
       bendpath-nodetypes="csc" /><inkscape:path-effect
       effect="bend_path"
       id="path-effect11"
       is_visible="true"
       lpeversion="1"
       bendpath="m 125.63643,165.46003 c 0,0 19.71292,-3.44256 29.68078,-3.95771 11.76432,-0.60799 22.02735,0.66389 33.77009,1.60037 9.31212,0.74264 28.77847,5.04293 28.77847,5.04293"
       prop_scale="1"
       scale_y_rel="false"
       vertical="false"
       hide_knot="false"
       bendpath-nodetypes="cssc" /><linearGradient
       id="linearGradient1"
       inkscape:collect="always"><stop
         style="stop-color:#00285e;stop-opacity:1;"
         offset="0"
         id="stop1" /><stop
         style="stop-color:#00012b;stop-opacity:1;"
         offset="1"
         id="stop2" /></linearGradient><radialGradient
       inkscape:collect="always"
       xlink:href="#linearGradient1"
       id="radialGradient3"
       cx="169.77441"
       cy="166.62114"
       fx="169.77441"
       fy="166.62114"
       r="53.330948"
       gradientTransform="matrix(1,0,0,0.54657367,0,75.550412)"
       gradientUnits="userSpaceOnUse" /><filter
       inkscape:collect="always"
       style="color-interpolation-filters:sRGB"
       id="filter4"
       x="-0.019918585"
       y="-0.034454082"
       width="1.0415766"
       height="1.0708808"><feGaussianBlur
         inkscape:collect="always"
         stdDeviation="0.5938577"
         id="feGaussianBlur4" /></filter></defs><g
     inkscape:label="Layer 1"
     inkscape:groupmode="layer"
     id="layer1"
     transform="translate(-115.88144,-136.51125)"><rect
       style="display:none;opacity:1;fill:#2b1100;fill-opacity:1;stroke:none;stroke-width:0.600001;stroke-linecap:round;stroke-dasharray:none;stroke-opacity:1;paint-order:markers stroke fill"
       id="rect4"
       width="122.5477"
       height="72.086884"
       x="111.217"
       y="131.70546"
       transform="translate(-1.0416666e-6)" /><path
       style="display:inline;opacity:0.2;fill:none;stroke:#00aaff;stroke-width:1.4;stroke-dasharray:none;stroke-opacity:1;paint-order:markers fill stroke;filter:url(#filter4)"
       d="m 212.18009,195.34469 c 0.39648,-1.77052 0.22852,-4.52666 -0.35797,-5.87408 -0.39788,-0.91411 -0.44914,-1.38432 -0.16334,-1.49845 0.22906,-0.0915 0.72313,-0.56061 1.09793,-1.04255 0.43149,-0.55484 1.31284,-0.93787 2.40282,-1.04428 2.01346,-0.19654 2.4712,-0.46319 2.4712,-1.43956 0,-0.80964 2.55031,-3.70021 3.26511,-3.70074 0.25654,-1.9e-4 0.46644,-0.20151 0.46644,-0.44737 0,-0.24587 0.33584,-0.44703 0.74632,-0.44703 1.0181,0 0.94664,-0.78565 -0.0933,-1.0256 -0.83304,-0.19221 -0.83272,-0.1942 0.0414,-0.25459 l 0.88094,-0.0609 -0.865,-0.83909 c -0.63358,-0.61461 -1.2436,-0.77825 -2.28027,-0.61167 -0.87377,0.1404 -1.41527,0.0447 -1.41527,-0.25031 0,-0.30825 0.84069,-0.41193 2.3699,-0.2923 l 2.3699,0.1854 0.0686,-2.74015 c 0.0377,-1.50708 0.15738,-2.91218 0.26584,-3.1224 0.10845,-0.21023 -0.0794,-0.5094 -0.41748,-0.6648 -0.33807,-0.15541 -0.45807,-0.40545 -0.26666,-0.55563 0.51535,-0.40436 0.92778,-10.65598 0.44313,-11.01479 -0.27172,-0.20118 -0.26767,-0.46893 0.0133,-0.87441 0.34113,-0.49242 0.4218,-2.07221 0.33151,-6.49245 -0.007,-0.37103 0.0362,-0.87394 0.0974,-1.11755 0.0612,-0.24363 -0.0846,-1.09672 -0.32379,-1.89579 l -0.43495,-1.45282 h -3.13134 c -2.9934,0 -3.15041,-0.0501 -3.56439,-1.13859 -0.23817,-0.62623 -0.43305,-1.53146 -0.43305,-2.01162 0,-0.69017 -0.25399,-0.86969 -1.21276,-0.85718 -0.66701,0.009 -1.63255,0.30332 -2.14564,0.6547 -0.99065,0.67842 -4.47787,0.91901 -4.47787,0.30895 0,-0.19887 -0.24031,-0.75205 -0.53401,-1.22931 -0.51917,-0.8436 -0.54445,-0.83666 -0.90923,0.24982 -0.32546,0.96934 -0.38184,0.99899 -0.42511,0.22351 l -0.0499,-0.89404 -0.3207,0.89404 c -0.27423,0.76452 -0.3245,0.7807 -0.34692,0.11175 -0.0257,-0.767 -0.77254,-1.15218 -0.77254,-0.39844 0,0.59033 -4.05354,2.25872 -4.20091,1.72905 -0.0819,-0.29415 -0.41127,-0.27014 -0.93942,0.0685 -0.70295,0.45067 -0.78068,0.41941 -0.57256,-0.2303 0.20582,-0.64252 0.0623,-0.70898 -0.98793,-0.45736 -0.6758,0.16191 -1.38558,0.29439 -1.57727,0.29439 -0.1917,0 -0.22833,0.23297 -0.0814,0.51773 0.36346,0.70452 -4.06925,0.19919 -8.14716,-0.92877 -1.69618,-0.46916 -4.64899,-1.07734 -6.56177,-1.35149 -1.91279,-0.27417 -5.43911,-0.90163 -7.83627,-1.39437 -9.2234,-1.8959 -15.87768,-1.68769 -30.18229,0.94432 -7.35311,1.35296 -10.44105,1.65435 -8.78635,0.85758 1.28934,-0.62085 0.99681,-1.01496 -0.50318,-0.67784 -0.73852,0.16596 -1.25639,0.13433 -1.15081,-0.0703 0.10557,-0.20466 -0.70792,-0.4036 -1.80777,-0.4421 -1.47571,-0.0517 -2.85002,-0.54734 -5.24449,-1.89154 -4.11082,-2.30775 -4.52499,-2.30333 -0.9025,0.01 2.92669,1.8687 2.68222,2.02306 -0.68058,0.42971 -1.09265,-0.51772 -1.88035,-0.73532 -1.75047,-0.48355 0.36868,0.71461 -0.094,0.55107 -1.98037,-0.7 l -1.74566,-1.15773 1.11947,1.2018 1.11947,1.20182 -1.11947,-0.28009 c -1.19293,-0.29847 -1.31837,-0.41106 3.63828,3.26552 0.76962,0.57088 1.39933,1.10496 1.39933,1.18681 0,0.44992 -3.49563,-0.55484 -4.92086,-1.41441 -0.97682,-0.58913 -0.99129,-0.57864 -0.55975,0.40604 0.24365,0.55595 1.11468,1.7737 1.93563,2.70612 1.39396,1.58325 1.41862,1.65247 0.37315,1.04737 -1.80008,-1.04183 -4.17113,-2.1059 -3.37285,-1.51365 0.40252,0.29865 1.19261,1.07168 1.75575,1.71786 0.56313,0.64617 1.08611,1.10033 1.16216,1.00922 0.0761,-0.091 0.0645,0.4363 -0.0256,1.172 -0.0901,0.73571 -0.31274,1.36281 -0.49468,1.39354 -0.18194,0.0308 -0.49873,0.10613 -0.70396,0.16764 -0.20524,0.0614 -0.48921,0.1369 -0.63106,0.16763 -0.14184,0.0308 -0.006,0.30732 0.30311,0.61465 0.30855,0.30734 0.76363,1.12982 1.01129,1.82774 0.39253,1.10621 0.3656,1.29548 -0.20994,1.47579 -0.71907,0.22526 -1.69353,2.2863 -1.37389,2.90587 0.10902,0.21132 -0.0216,0.3873 -0.29024,0.39107 -0.35494,0.004 -0.33547,0.1253 0.0712,0.44018 0.30785,0.23833 0.39181,0.43731 0.18657,0.44218 -0.48524,0.0115 -0.62275,3.13402 -0.13803,3.13402 0.20276,0 0.27008,0.19107 0.1496,0.4246 -0.12047,0.23353 0.16347,0.68069 0.631,0.9937 0.83133,0.55657 0.82127,0.57462 -0.45598,0.81903 -0.77744,0.14875 -1.26604,0.47837 -1.2072,0.81436 0.0544,0.31047 0.13296,1.05838 0.17467,1.66206 0.0417,0.60366 0.20713,1.09758 0.36759,1.09758 0.16048,0 0.29178,0.29465 0.29178,0.6548 0,0.36014 0.35853,0.88467 0.79672,1.16561 0.62454,0.40041 0.68711,0.59197 0.28947,0.88637 -0.33076,0.24488 -0.9411,-0.0208 -1.75413,-0.76373 -0.68577,-0.62662 -1.32946,-1.04036 -1.43041,-0.9194 -0.10095,0.12093 0.3268,0.65523 0.95054,1.18731 0.62377,0.53207 1.09522,1.14342 1.04767,1.35854 -0.0476,0.21512 0.45687,1.08887 1.12092,1.94166 0.96935,1.24485 1.09436,1.60248 0.63414,1.81404 -0.85283,0.39204 0.15572,1.53651 1.13272,1.28537 0.57036,-0.14661 0.63111,-0.0876 0.24612,0.23891 -0.41779,0.35433 -0.38367,0.52235 0.18658,0.91923 0.62012,0.43161 0.57848,0.48718 -0.37409,0.49925 -0.90998,0.0115 -1.0017,0.11488 -0.60732,0.68414 0.39842,0.57512 0.25889,0.68007 -0.98049,0.73751 -1.17246,0.0543 -1.24593,0.10283 -0.38952,0.2566 0.64703,0.11623 0.9866,0.40473 0.87745,0.74547 -0.0979,0.30572 0.38508,1.21548 1.07337,2.02168 1.1792,1.38121 1.43013,1.47476 4.34673,1.62063 2.41995,0.12101 3.09637,0.29884 3.10019,0.81501 0.01,1.32276 2.00889,2.58449 5.12866,3.23694 2.02367,0.42322 3.11414,0.48672 3.19775,0.18619 0.0697,-0.25081 1.24636,-0.4624 2.61459,-0.4702 2.83508,-0.0161 8.39221,-0.92176 12.08307,-1.96911 3.05069,-0.86568 6.97107,-1.34756 6.44987,-0.79278 -0.56327,0.59954 -12.52325,3.1368 -16.97812,3.60184 l -3.91813,0.409 4.66445,-0.21404 c 2.56544,-0.11771 5.75591,-0.507 7.08994,-0.86509 1.33403,-0.35809 4.98089,-1.23908 8.10413,-1.95774 5.61263,-1.29148 5.79044,-1.30379 15.29938,-1.05843 5.29141,0.13654 9.9566,0.42225 10.36707,0.63492 0.94345,0.4888 10.63573,1.54299 12.87386,1.40023 1.91681,-0.12226 6.34365,0.8131 6.34365,1.34038 0,0.19304 0.27941,0.22254 0.62095,0.0655 0.41751,-0.19193 0.53254,-0.11412 0.35112,0.23754 -0.16353,0.317 -0.032,0.523 0.33397,0.523 0.33207,0 0.51137,0.1791 0.39844,0.39801 -0.20914,0.40537 1.4129,0.88568 4.05473,1.20063 1.86731,0.22262 2.30634,0.74495 1.46913,1.7479 -0.62576,0.74963 -0.62258,0.81443 0.0693,1.41023 0.39886,0.34347 1.0034,0.90439 1.34344,1.24649 0.54189,0.54518 0.64495,0.50274 0.83451,-0.34375 z m 5.82379,-19.96431 c -0.40071,-0.31022 -0.003,-0.43528 1.39934,-0.44018 1.07748,-0.003 1.95906,0.19432 1.95906,0.44018 0,0.57171 -2.61993,0.57171 -3.3584,0 z m -95.79974,-15.02207 c 0.26116,-0.31287 1.39141,0.3214 1.39141,0.78083 0,0.22836 -0.34995,0.19056 -0.77828,-0.084 -0.42805,-0.27444 -0.70395,-0.58799 -0.61313,-0.6968 z m -0.75535,-8.03563 c 0.12889,-0.15439 0.70661,-0.0745 1.28383,0.17758 0.64745,0.28272 0.79933,0.47182 0.39648,0.49359 -0.35916,0.0195 -0.65302,0.27955 -0.65302,0.5781 0,0.3418 -0.23361,0.26296 -0.63081,-0.21287 -0.34695,-0.41562 -0.52536,-0.88201 -0.39648,-1.0364 z m -0.34688,-12.10115 c 0.10493,-0.12571 0.52997,-0.0112 0.94452,0.2547 0.94098,0.60329 1.28851,0.616 0.98938,0.0362 -0.36767,-0.71265 0.42003,-0.51678 0.93998,0.23374 0.40046,0.57803 0.36512,0.63287 -0.23417,0.36333 -0.64342,-0.28938 -0.65661,-0.2451 -0.14921,0.50098 0.48396,0.71161 0.34532,0.68929 -1.06234,-0.171 -0.89042,-0.54419 -1.53309,-1.09227 -1.42816,-1.21797 z m -0.0252,37.54494 c -0.25655,-0.124 -0.67634,-0.124 -0.93288,0 -0.25655,0.12401 -0.0467,0.22548 0.46643,0.22548 0.51309,0 0.72299,-0.10144 0.46645,-0.22548 z m -2.5188,-6.40931 c -0.12684,-0.24586 -0.39854,-0.44703 -0.60378,-0.44703 -0.20524,0 -0.26937,0.20117 -0.14253,0.44703 0.12685,0.24586 0.39854,0.44702 0.60378,0.44702 0.20523,0 0.26937,-0.20116 0.14253,-0.44702 z"
       id="path4"
       inkscape:label="glow"
       sodipodi:nodetypes="cscscsssssccssssccssssccsccssscsscsscsssccssscscccccccccccccccscssccccscsccccccscccscscccsssscccccsssccccccsccsccscsccsssssscsssssssccscsscsccccccsccccscccccccsscsscss" /><path
       style="fill:url(#radialGradient3);stroke:none;stroke-width:0.4;stroke-dasharray:none;stroke-opacity:1;paint-order:markers fill stroke"
       d="m 211.61895,195.06624 c 0.39648,-1.77052 0.22852,-4.52666 -0.35797,-5.87408 -0.39788,-0.91411 -0.44914,-1.38432 -0.16334,-1.49845 0.22906,-0.0915 0.72313,-0.56061 1.09793,-1.04255 0.43149,-0.55484 1.31284,-0.93787 2.40282,-1.04428 2.01346,-0.19654 2.4712,-0.46319 2.4712,-1.43956 0,-0.80964 2.55031,-3.70021 3.26511,-3.70074 0.25654,-1.9e-4 0.46644,-0.20151 0.46644,-0.44737 0,-0.24587 0.33584,-0.44703 0.74632,-0.44703 1.0181,0 0.94664,-0.78565 -0.0933,-1.0256 -0.83304,-0.19221 -0.83272,-0.1942 0.0414,-0.25459 l 0.88094,-0.0609 -0.865,-0.83909 c -0.63358,-0.61461 -1.2436,-0.77825 -2.28027,-0.61167 -0.87377,0.1404 -1.41527,0.0447 -1.41527,-0.25031 0,-0.30825 0.84069,-0.41193 2.3699,-0.2923 l 2.3699,0.1854 0.0686,-2.74015 c 0.0377,-1.50708 0.15738,-2.91218 0.26584,-3.1224 0.10845,-0.21023 -0.0794,-0.5094 -0.41748,-0.6648 -0.33807,-0.15541 -0.45807,-0.40545 -0.26666,-0.55563 0.51535,-0.40436 0.92778,-10.65598 0.44313,-11.01479 -0.27172,-0.20118 -0.26767,-0.46893 0.0133,-0.87441 0.34113,-0.49242 0.4218,-2.07221 0.33151,-6.49245 -0.007,-0.37103 0.0362,-0.87394 0.0974,-1.11755 0.0612,-0.24363 -0.0846,-1.09672 -0.32379,-1.89579 l -0.43495,-1.45282 h -3.13134 c -2.9934,0 -3.15041,-0.0501 -3.56439,-1.13859 -0.23817,-0.62623 -0.43305,-1.53146 -0.43305,-2.01162 0,-0.69017 -0.25399,-0.86969 -1.21276,-0.85718 -0.66701,0.009 -1.63255,0.30332 -2.14564,0.6547 -0.99065,0.67842 -4.47787,0.91901 -4.47787,0.30895 0,-0.19887 -0.24031,-0.75205 -0.53401,-1.22931 -0.51917,-0.8436 -0.54445,-0.83666 -0.90923,0.24982 -0.32546,0.96934 -0.38184,0.99899 -0.42511,0.22351 l -0.0499,-0.89404 -0.3207,0.89404 c -0.27423,0.76452 -0.3245,0.7807 -0.34692,0.11175 -0.0257,-0.767 -0.77254,-1.15218 -0.77254,-0.39844 0,0.59033 -4.05354,2.25872 -4.20091,1.72905 -0.0819,-0.29415 -0.41127,-0.27014 -0.93942,0.0685 -0.70295,0.45067 -0.78068,0.41941 -0.57256,-0.2303 0.20582,-0.64252 0.0623,-0.70898 -0.98793,-0.45736 -0.6758,0.16191 -1.38558,0.29439 -1.57727,0.29439 -0.1917,0 -0.22833,0.23297 -0.0814,0.51773 0.36346,0.70452 -4.06925,0.19919 -8.14716,-0.92877 -1.69618,-0.46916 -4.64899,-1.07734 -6.56177,-1.35149 -1.91279,-0.27417 -5.43911,-0.90163 -7.83627,-1.39437 -9.2234,-1.8959 -15.87768,-1.68769 -30.18229,0.94432 -7.35311,1.35296 -10.44105,1.65435 -8.78635,0.85758 1.28934,-0.62085 0.99681,-1.01496 -0.50318,-0.67784 -0.73852,0.16596 -1.25639,0.13433 -1.15081,-0.0703 0.10557,-0.20466 -0.70792,-0.4036 -1.80777,-0.4421 -1.47571,-0.0517 -2.85002,-0.54734 -5.24449,-1.89154 -4.11082,-2.30775 -4.52499,-2.30333 -0.9025,0.01 2.92669,1.8687 2.68222,2.02306 -0.68058,0.42971 -1.09265,-0.51772 -1.88035,-0.73532 -1.75047,-0.48355 0.36868,0.71461 -0.094,0.55107 -1.98037,-0.7 l -1.74566,-1.15773 1.11947,1.2018 1.11947,1.20182 -1.11947,-0.28009 c -1.19293,-0.29847 -1.31837,-0.41106 3.63828,3.26552 0.76962,0.57088 1.39933,1.10496 1.39933,1.18681 0,0.44992 -3.49563,-0.55484 -4.92086,-1.41441 -0.97682,-0.58913 -0.99129,-0.57864 -0.55975,0.40604 0.24365,0.55595 1.11468,1.7737 1.93563,2.70612 1.39396,1.58325 1.41862,1.65247 0.37315,1.04737 -1.80008,-1.04183 -4.17113,-2.1059 -3.37285,-1.51365 0.40252,0.29865 1.19261,1.07168 1.75575,1.71786 0.56313,0.64617 1.08611,1.10033 1.16216,1.00922 0.0761,-0.091 0.0645,0.4363 -0.0256,1.172 -0.0901,0.73571 -0.31274,1.36281 -0.49468,1.39354 -0.18194,0.0308 -0.49873,0.10613 -0.70396,0.16764 -0.20524,0.0614 -0.48921,0.1369 -0.63106,0.16763 -0.14184,0.0308 -0.006,0.30732 0.30311,0.61465 0.30855,0.30734 0.76363,1.12982 1.01129,1.82774 0.39253,1.10621 0.3656,1.29548 -0.20994,1.47579 -0.71907,0.22526 -1.69353,2.2863 -1.37389,2.90587 0.10902,0.21132 -0.0216,0.3873 -0.29024,0.39107 -0.35494,0.004 -0.33547,0.1253 0.0712,0.44018 0.30785,0.23833 0.39181,0.43731 0.18657,0.44218 -0.48524,0.0115 -0.62275,3.13402 -0.13803,3.13402 0.20276,0 0.27008,0.19107 0.1496,0.4246 -0.12047,0.23353 0.16347,0.68069 0.631,0.9937 0.83133,0.55657 0.82127,0.57462 -0.45598,0.81903 -0.77744,0.14875 -1.26604,0.47837 -1.2072,0.81436 0.0544,0.31047 0.13296,1.05838 0.17467,1.66206 0.0417,0.60366 0.20713,1.09758 0.36759,1.09758 0.16048,0 0.29178,0.29465 0.29178,0.6548 0,0.36014 0.35853,0.88467 0.79672,1.16561 0.62454,0.40041 0.68711,0.59197 0.28947,0.88637 -0.33076,0.24488 -0.9411,-0.0208 -1.75413,-0.76373 -0.68577,-0.62662 -1.32946,-1.04036 -1.43041,-0.9194 -0.10095,0.12093 0.3268,0.65523 0.95054,1.18731 0.62377,0.53207 1.09522,1.14342 1.04767,1.35854 -0.0476,0.21512 0.45687,1.08887 1.12092,1.94166 0.96935,1.24485 1.09436,1.60248 0.63414,1.81404 -0.85283,0.39204 0.15572,1.53651 1.13272,1.28537 0.57036,-0.14661 0.63111,-0.0876 0.24612,0.23891 -0.41779,0.35433 -0.38367,0.52235 0.18658,0.91923 0.62012,0.43161 0.57848,0.48718 -0.37409,0.49925 -0.90998,0.0115 -1.0017,0.11488 -0.60732,0.68414 0.39842,0.57512 0.25889,0.68007 -0.98049,0.73751 -1.17246,0.0543 -1.24593,0.10283 -0.38952,0.2566 0.64703,0.11623 0.9866,0.40473 0.87745,0.74547 -0.0979,0.30572 0.38508,1.21548 1.07337,2.02168 1.1792,1.38121 1.43013,1.47476 4.34673,1.62063 2.41995,0.12101 3.09637,0.29884 3.10019,0.81501 0.01,1.32276 2.00889,2.58449 5.12866,3.23694 2.02367,0.42322 3.11414,0.48672 3.19775,0.18619 0.0697,-0.25081 1.24636,-0.4624 2.61459,-0.4702 2.83508,-0.0161 8.39221,-0.92176 12.08307,-1.96911 3.05069,-0.86568 6.97107,-1.34756 6.44987,-0.79278 -0.56327,0.59954 -12.52325,3.1368 -16.97812,3.60184 l -3.91813,0.409 4.66445,-0.21404 c 2.56544,-0.11771 5.75591,-0.507 7.08994,-0.86509 1.33403,-0.35809 4.98089,-1.23908 8.10413,-1.95774 5.61263,-1.29148 5.79044,-1.30379 15.29938,-1.05843 5.29141,0.13654 9.9566,0.42225 10.36707,0.63492 0.94345,0.4888 10.63573,1.54299 12.87386,1.40023 1.91681,-0.12226 6.34365,0.8131 6.34365,1.34038 0,0.19304 0.27941,0.22254 0.62095,0.0655 0.41751,-0.19193 0.53254,-0.11412 0.35112,0.23754 -0.16353,0.317 -0.032,0.523 0.33397,0.523 0.33207,0 0.51137,0.1791 0.39844,0.39801 -0.20914,0.40537 1.4129,0.88568 4.05473,1.20063 1.86731,0.22262 2.30634,0.74495 1.46913,1.7479 -0.62576,0.74963 -0.62258,0.81443 0.0693,1.41023 0.39886,0.34347 1.0034,0.90439 1.34344,1.24649 0.54189,0.54518 0.64495,0.50274 0.83451,-0.34375 z m 5.82379,-19.96431 c -0.40071,-0.31022 -0.003,-0.43528 1.39934,-0.44018 1.07748,-0.003 1.95906,0.19432 1.95906,0.44018 0,0.57171 -2.61993,0.57171 -3.3584,0 z M 121.643,160.07986 c 0.26116,-0.31287 1.39141,0.3214 1.39141,0.78083 0,0.22836 -0.34995,0.19056 -0.77828,-0.084 -0.42805,-0.27444 -0.70395,-0.58799 -0.61313,-0.6968 z m -0.75535,-8.03563 c 0.12889,-0.15439 0.70661,-0.0745 1.28383,0.17758 0.64745,0.28272 0.79933,0.47182 0.39648,0.49359 -0.35916,0.0195 -0.65302,0.27955 -0.65302,0.5781 0,0.3418 -0.23361,0.26296 -0.63081,-0.21287 -0.34695,-0.41562 -0.52536,-0.88201 -0.39648,-1.0364 z m -0.34688,-12.10115 c 0.10493,-0.12571 0.52997,-0.0112 0.94452,0.2547 0.94098,0.60329 1.28851,0.616 0.98938,0.0362 -0.36767,-0.71265 0.42003,-0.51678 0.93998,0.23374 0.40046,0.57803 0.36512,0.63287 -0.23417,0.36333 -0.64342,-0.28938 -0.65661,-0.2451 -0.14921,0.50098 0.48396,0.71161 0.34532,0.68929 -1.06234,-0.171 -0.89042,-0.54419 -1.53309,-1.09227 -1.42816,-1.21797 z m -0.0252,37.54494 c -0.25655,-0.124 -0.67634,-0.124 -0.93288,0 -0.25655,0.12401 -0.0467,0.22548 0.46643,0.22548 0.51309,0 0.72299,-0.10144 0.46645,-0.22548 z m -2.5188,-6.40931 c -0.12684,-0.24586 -0.39854,-0.44703 -0.60378,-0.44703 -0.20524,0 -0.26937,0.20117 -0.14253,0.44703 0.12685,0.24586 0.39854,0.44702 0.60378,0.44702 0.20523,0 0.26937,-0.20116 0.14253,-0.44702 z"
       id="path8"
       sodipodi:nodetypes="cscscsssssccssssccssssccsccssscsscsscsssccssscscccccccccccccccscssccccscsccccccscccscscccsssscccccsssccccccsccsccscsccsssssscsssssssccscsscsccccccsccccscccccccsscsscss" /><path
       id="text11"
       style="font-size:8.0932px;line-height:1;font-family:'Della Respira';-inkscape-font-specification:'Della Respira';text-align:center;letter-spacing:0.224809px;text-anchor:middle;fill:#ffffff;stroke:none;stroke-width:0.6;stroke-linecap:round;stroke-dasharray:none;stroke-opacity:1;paint-order:markers stroke fill"
       d="m 131.47143,157.55043 c -0.44681,0.10233 -0.82439,0.52927 -1.01401,1.41691 -0.69124,3.08381 -0.13214,6.78672 1.29197,9.6432 0.70479,1.49727 2.2134,2.5026 2.93213,0.65085 1.04833,-2.71555 0.53284,-6.29066 -0.52923,-9.13758 -0.38794,-1.45104 -1.69803,-2.79844 -2.68086,-2.57338 z m 40.09732,-2.70959 c -0.46573,0.004 -0.93456,0.34081 -1.31302,1.16804 -1.34783,2.86873 -1.55334,6.60402 -0.77644,9.69525 0.36764,1.61418 1.60005,2.91274 2.69256,1.26584 1.60276,-2.42564 1.89596,-6.0187 1.47915,-9.03516 -0.0615,-1.50132 -1.05783,-3.10294 -2.08225,-3.09397 z m -29.14762,1.1019 c -0.45848,0.0193 -0.88918,0.31057 -1.13666,0.97295 -0.94146,2.85125 -0.48807,6.42534 0.59105,9.32283 0.55807,2.53089 3.15184,3.39169 3.60224,0.61232 -0.0301,-0.292 -0.0662,-0.58359 -0.10611,-0.8745 -0.60621,-1.19706 0.30262,-5.03678 -1.28201,-4.01454 0.69704,1.5591 1.38509,6.40489 -0.83505,5.16218 -1.66299,-2.01404 -2.16622,-5.29767 -1.87541,-8.02687 0.12211,-2.32984 2.02832,-2.62612 2.79471,-0.4209 0.38054,-1.50059 -0.74466,-2.77594 -1.75276,-2.73347 z m 13.1878,-1.28991 c -0.21774,-0.0103 -0.43545,0.0369 -0.63782,0.1526 -0.24067,0.13835 -0.45876,0.37241 -0.62956,0.71978 -1.22664,2.76543 -0.99649,6.36962 -0.16233,9.33384 0.16099,1.15954 0.77695,2.03848 1.43413,2.3734 0.77117,0.38796 1.62822,0.0507 2.01553,-1.44235 1.7e-4,-1e-5 3.3e-4,-1e-5 5e-4,-2e-5 -0.001,-0.29328 -0.009,-0.58643 -0.02,-0.87961 -0.47757,-1.24937 0.79776,-4.98114 -0.88071,-4.11508 0.54368,1.60755 0.73317,6.32284 -1.18303,5.12693 -0.0323,-0.0203 -0.0652,-0.0422 -0.0987,-0.0658 -1.44114,-2.15371 -1.7264,-5.44626 -1.19674,-8.15028 0.1098,-0.78852 0.41061,-1.32253 0.78835,-1.59662 v 0 c 0.73713,-0.53329 1.73147,-0.0584 2.09555,1.42729 0.53467,-1.4545 -0.47875,-2.83443 -1.52513,-2.88406 z m 51.19432,4.32452 c -0.20021,-0.0468 -0.42033,-0.0568 -0.65962,-0.0245 -0.64358,1.05669 -0.52571,3.37014 -1.01894,4.8763 -0.57971,2.36322 -0.67446,4.89857 -1.56041,7.15074 1.33513,1.17461 0.79226,-1.6849 1.24183,-2.64855 0.60525,-2.65936 0.85221,-5.45474 1.67061,-8.02787 1.53527,-0.219 1.38696,2.59048 0.38057,3.49123 -1.75602,0.61076 -0.82039,2.2864 -0.65798,3.78026 0.22632,0.41092 0.18054,1.06615 0.094,1.73422 -0.15322,1.18225 -0.43338,2.40274 0.42733,2.38668 0.41497,-1.04433 0.0571,-2.98673 -0.025,-4.46444 -0.006,-0.11548 -0.0111,-0.22803 -0.0136,-0.33694 -0.73142,-1.14993 -0.0667,-1.71399 0.55057,-2.43637 0.28429,-0.33264 0.55798,-0.69863 0.67631,-1.17041 0.40886,-1.06745 0.44851,-2.21445 0.14369,-3.06452 v 0 c -0.22794,-0.63643 -0.64906,-1.10537 -1.24933,-1.24581 z m -60.79289,-3.43627 c -0.20943,0.0164 -0.42717,0.0738 -0.64933,0.17786 -0.29827,1.20347 0.52814,3.37087 0.51737,4.95605 0.1689,2.42786 0.84868,4.87115 0.70033,7.28638 1.60707,0.7109 0.23367,-1.84711 0.3668,-2.90088 -0.23235,-2.71778 -0.85001,-5.45619 -0.84553,-8.15701 1.44125,-0.68611 2.1188,2.06321 1.42934,3.21319 -1.4996,1.10646 -0.0905,2.43281 0.50625,3.80344 0.93269,0.89808 0.4551,4.1991 1.69964,3.78145 0.0918,-1.22861 -0.95911,-3.13134 -1.4451,-4.57537 -1.51432,-1.28466 0.18533,-2.26985 0.10178,-3.80825 0.13426,-1.9947 -0.91556,-3.89187 -2.38155,-3.77686 z m 3.97329,-0.41274 c -0.91908,0.0304 -0.56925,1.24105 -0.33864,2.44492 0.25156,3.35565 0.84931,6.71649 0.82991,10.07135 0.5426,-0.0547 1.08396,-0.10573 1.6241,-0.15265 1.06417,0.8952 1.81395,-2.22725 0.55167,-1.28567 -1.70876,0.94611 -1.927,-1.08482 -1.91964,-3.03 -0.56796,-1.77828 0.27803,-2.049 1.37151,-1.90958 1.16148,1.93206 0.6499,-2.9563 0.0776,-1.22423 -0.36193,0.0292 -0.72355,0.06 -1.08486,0.0924 -1.00172,0.537 -0.64285,-1.13394 -0.83664,-1.91344 0.0638,-0.63917 -0.54244,-2.007 0.3025,-1.80755 0.91579,-0.31603 2.75299,0.77107 1.70739,-1.37391 -0.60541,0.0465 -1.20863,0.0972 -1.8097,0.15181 -0.18674,-0.0479 -0.34391,-0.0678 -0.47518,-0.0634 z m 12.48197,-0.48822 c -1.28032,2.27874 0.77477,1.07808 1.78901,1.33534 -0.0857,3.31799 -0.11198,6.64113 -0.24029,9.95457 -0.77316,1.22204 1.05653,1.87212 0.56214,0.3984 0.0106,-3.15826 0.12959,-6.04962 0.20053,-9.20706 -0.23406,-1.3592 0.57094,-1.17764 1.28312,-1.03031 0.70578,0.14602 1.33745,0.26024 0.7523,-1.26926 -1.42584,-0.069 -3.02079,-0.0258 -4.34681,-0.18168 z m 52.57363,6.06319 c -0.0837,-0.0179 -0.18136,-0.0244 -0.29487,-0.0191 -0.0198,1.54369 -0.53454,3.29154 -0.83481,4.88979 -0.62451,2.35172 -0.76645,4.88505 -1.69718,7.11941 1.46148,1.13212 0.85307,-2.47498 1.49575,-3.58228 0.20741,-1.15622 0.30126,-2.52527 1.10498,-2.3616 v 0 c 0.12632,0.0257 0.27018,0.0893 0.43457,0.19767 0.53181,0.31769 1.56628,-0.0508 1.83982,0.61212 0.0345,0.0835 0.0568,0.18339 0.0645,0.30303 -0.48141,1.64662 -0.612,3.43292 -1.21776,5.03068 v 0 c -0.0692,0.18253 -0.14455,0.36261 -0.22726,0.53978 0.0318,0.0311 0.0624,0.0597 0.092,0.0858 0.30583,0.27035 0.49668,0.28187 0.62439,0.13836 0.19691,-0.22126 0.24221,-0.81714 0.30422,-1.39125 v 0 c 0.04,-0.3701 0.0875,-0.73274 0.18957,-0.98312 0.63495,-2.54388 1.03432,-5.16313 1.70774,-7.69372 v 0 0 c 0.1564,-0.58772 0.32927,-1.17528 0.52415,-1.75075 -0.0412,-0.0413 -0.0803,-0.0776 -0.11745,-0.10917 -0.43649,-0.3707 -0.6483,-0.0954 -0.77963,0.44449 v 0 c -0.0147,0.0603 -0.0283,0.12396 -0.0412,0.19038 v 0 1e-5 0 c -0.17229,0.89178 -0.19774,2.28521 -0.53262,2.90633 0.0236,0.51638 -0.089,0.7368 -0.27028,0.80711 v 0 c -0.33348,0.12936 -0.90099,-0.24902 -1.28779,-0.22977 -0.24908,-0.15859 -0.71675,-0.125 -1.07848,-0.184 -0.33945,-0.0554 -0.58567,-0.19242 -0.47028,-0.64768 -0.20223,-1.30452 1.72271,-4.04415 0.46786,-4.31249 z m -19.27721,-3.54388 c -0.0874,-0.0134 -0.18923,-0.0152 -0.30625,-0.004 0.0824,1.52768 -0.33569,3.33528 -0.53923,4.93288 -0.48647,2.38476 -0.48876,4.92046 -1.26948,7.20896 1.47407,1.03579 0.69531,-2.52283 1.2716,-3.66526 0.16416,-1.34479 0.16068,-2.98117 1.41782,-2.24509 0.34007,0.17947 0.85833,0.0858 1.27694,0.1433 v 0 c 0.34252,0.047 0.61808,0.19502 0.67284,0.67366 -0.44497,1.85899 -0.44986,3.86884 -1.16568,5.63545 1.2427,1.10986 0.77125,-1.27342 1.09977,-2.20782 0.62734,-3.17101 0.88668,-6.43968 1.76133,-9.54328 -1.33833,-1.23807 -0.75171,2.35613 -1.29889,3.50105 0.0966,1.00246 -0.38016,0.90828 -0.87996,0.77104 v 0 c -0.22888,-0.063 -0.46345,-0.13553 -0.65092,-0.11671 -0.49894,-0.2825 -1.78686,0.20184 -1.60128,-0.75049 -0.28013,-1.29213 1.5231,-4.13326 0.21139,-4.33401 z m -60.65347,0.005 c -0.32949,0.0552 -0.45279,0.23536 -0.0402,0.86373 0.56657,3.31276 1.04294,6.70501 1.53913,10.02771 -0.56352,1.35884 1.28326,2.08354 0.65293,0.54537 -0.53173,-3.08338 -0.94054,-6.18715 -1.42435,-9.27838 2.9e-4,5.7e-4 0.37495,0.72363 0.37524,0.7242 -3.54376,-6.88336 5.66109,10.99796 2.11733,4.1146 0.88816,1.5049 1.51051,3.39263 2.55168,4.65554 -0.4554,-3.69938 -1.11685,-7.37628 -1.56323,-11.07354 0.59724,-1.33801 -1.40748,-1.59628 -0.64259,-0.2491 0.47618,2.69852 0.8119,5.41974 1.23268,8.12741 -1.34466,-2.5176 -2.67944,-5.24869 -4.02411,-7.76629 -0.12888,-0.23969 -0.25865,-0.47871 -0.38943,-0.7169 -0.14276,0.003 -0.27541,0.007 -0.38511,0.0257 z m 40.13652,-1.9079 c -0.33644,-0.0188 -0.49747,0.1294 -0.23161,0.83358 -0.1777,3.34709 -0.46386,6.78537 -0.71265,10.12661 -0.84621,1.20096 0.78735,2.31762 0.51452,0.67688 0.16412,-3.12676 0.45164,-6.24619 0.66382,-9.36995 0.46143,1.75782 0.91362,3.51659 1.35908,5.2766 0.52738,1.66679 0.70456,3.64719 1.43584,5.11324 0.39083,-3.70886 0.57558,-7.44232 0.97437,-11.14712 0.88456,-1.17197 -1.01153,-1.87151 -0.56998,-0.38833 -0.14447,2.73797 -0.4309,5.46688 -0.63167,8.20125 -0.82616,-3.06901 -1.53585,-6.20552 -2.41834,-9.26284 -0.1407,-0.029 -0.2715,-0.0537 -0.38338,-0.0599 z m -7.30167,-0.42133 c -0.0847,-0.007 -0.18117,-0.002 -0.2907,0.0181 -0.13272,0.22274 0.0507,0.40544 0.10712,0.58777 -0.0584,3.50555 -0.22639,7.05979 -0.42902,10.55914 -0.80826,1.45674 1.05918,1.82612 0.62265,0.25939 -0.0739,-2.315 0.17658,-4.70405 0.22868,-7.0476 -0.34168,-1.29741 1.03185,-4.26856 -0.23873,-4.37682 z m 17.42899,1.25441 c -0.21722,0.0224 -0.37908,0.26638 -0.22174,0.83227 -0.2163,3.41532 -0.57034,6.8204 -0.84035,10.23173 1.7e-4,2e-5 3.4e-4,3e-5 5.1e-4,4e-5 -0.41717,1.47209 -0.38156,1.34552 0.57769,1.37956 0.62796,0.0229 1.32695,0.12449 1.84967,0.23911 1.47429,-2.31875 -0.93598,-1.05916 -1.90768,-1.47557 0.29589,-3.31048 0.53304,-6.6298 0.87309,-9.93282 0.54724,-0.73347 0.0308,-1.31172 -0.33119,-1.27432 z m 19.03955,2.54164 c -0.21608,9.5e-4 -0.39637,0.22714 -0.28946,0.80277 -0.39906,2.52829 -0.89884,5.08857 -1.37155,7.60196 -0.0794,1.17415 -2.83414,4.6725 -2.51013,0.61273 0.10895,-2.81846 0.81541,-5.52659 1.29884,-8.31129 1.09589,-1.62634 -1.24305,-1.65262 -0.62471,0.0389 -0.39026,2.77131 -1.13946,5.56118 -1.28404,8.34183 -0.34848,2.30837 1.56904,4.55526 2.7394,1.83237 1.34829,-2.97711 1.44475,-6.43906 2.23766,-9.62784 0.61796,-0.66902 0.16592,-1.29306 -0.19601,-1.29148 z m 7.4802,1.44578 c -0.61868,-0.11467 -1.3144,0.21278 -1.75597,1.20788 -1.59731,2.6991 -2.22796,6.27374 -1.9054,9.38582 0.09,2.74152 2.78672,2.31177 3.50973,-0.12475 1.08825,-3.04559 -1.09019,1.63045 -2.06158,0.87854 -0.0934,-0.0589 -0.18683,-0.11784 -0.28029,-0.17671 -0.0767,-0.11121 -0.15353,-0.2224 -0.23038,-0.33358 -0.8151,-2.23943 -0.43773,-5.22645 0.53874,-7.57921 0.6655,-2.29864 3.16281,-2.8531 3.08484,-0.067 0.93498,-1.58288 0.13071,-3 -0.89969,-3.19098 z m -85.26286,-1.55135 c -0.46909,0.0862 -0.89036,0.4258 -1.0916,1.0589 -0.0642,0.20201 -0.10615,0.43381 -0.12018,0.69683 -0.0885,0.51415 -0.14347,1.04066 -0.16669,1.57519 -0.0141,0.3245 -0.0169,0.65076 -0.008,0.97936 v 0 c 0.003,0.11547 0.008,0.23036 0.0135,0.3452 v 0 c -0.003,0.43605 0.28747,2.25514 0.30565,2.27648 0.0182,0.0213 0.2005,1.06559 0.3603,1.54821 v 0 c 0.0333,0.11338 0.0678,0.22688 0.10352,0.34003 v 0 c 0.10388,0.32692 0.21725,0.65005 0.33933,0.96593 0.18881,0.48859 0.39876,0.96296 0.62765,1.41649 0.11694,0.27876 0.24919,0.51026 0.39183,0.69806 v 0 c 0.75415,0.99298 1.79766,0.76927 2.39247,-0.12627 0.3197,-0.48129 0.50893,-1.15732 0.44859,-1.94182 -0.0469,-2.13206 -0.22413,-0.61945 -0.67691,0.55847 v 0 c -0.23259,0.60513 -0.53707,1.11921 -0.93633,0.99842 -0.10826,-0.0217 -0.21652,-0.0434 -0.32477,-0.065 -0.1113,-0.0763 -0.22263,-0.15263 -0.334,-0.22888 -0.36037,-0.4161 -0.6755,-0.89217 -0.94624,-1.40946 v 0 c -0.90081,-1.72101 -1.31331,-3.90528 -1.2574,-5.86232 -0.0329,-0.39325 -0.003,-0.75895 0.0742,-1.08464 0.32209,-1.35987 1.47068,-2.01288 2.29597,-1.00359 v 0 c 0.18254,0.22324 0.34926,0.52766 0.48802,0.92363 0.18104,-1.06699 -0.17748,-1.86418 -0.71551,-2.30199 -0.37582,-0.30578 -0.83869,-0.43516 -1.26306,-0.35719 z m 65.78863,-1.79266 c -0.66986,-0.0679 -1.38126,0.31817 -1.73749,1.35125 -1.38805,2.83699 -1.54244,6.46649 -0.9632,9.52684 0.30754,2.549 2.76369,2.1934 3.35041,-0.42415 0.87426,-3.11223 -0.94905,1.69876 -1.92381,1.03467 -0.0926,-0.0505 -0.18524,-0.10086 -0.27793,-0.15101 -0.0811,-0.10359 -0.1625,-0.20704 -0.24415,-0.31032 -0.94195,-2.14041 -0.92143,-5.16198 -0.16595,-7.59396 0.442,-2.35497 3.04112,-3.11726 3.17013,-0.31227 0.84082,-1.64167 -0.0954,-3.0082 -1.20801,-3.12105 z m -32.29531,-1.92043 c -0.59782,3.71712 -1.14302,7.43866 -1.62932,11.16505 -0.0846,0.64761 -0.43214,1.53523 0.43624,1.13433 0.26453,-1.02266 -0.27736,-4.92376 1.64538,-3.91334 0.95175,-0.2402 0.94088,0.99775 0.92838,2.14758 -0.0126,1.15859 -0.0277,2.22364 0.88208,1.69407 -0.22808,-2.11503 -0.65679,-4.24626 -0.96912,-6.37157 -0.47885,-1.87963 -0.37073,-4.41429 -1.29364,-5.85612 z m 22.0211,1.11861 c -0.91381,3.65729 -1.82497,7.31531 -2.72721,10.97458 -0.15604,0.63266 -0.61645,1.48457 0.33242,1.17834 0.38769,-1.00489 0.22141,-4.92084 2.07019,-3.7403 1.96364,-0.30437 -0.449,4.91225 1.5418,3.99266 -0.0778,-2.13208 -0.34544,-4.29655 -0.47754,-6.44577 -0.31819,-1.91769 0.005,-4.43832 -0.73966,-5.95951 z m -50.11184,2.8589 c 1.74251,0.83652 2.38033,3.56187 2.65919,5.69377 0.23165,1.68638 0.0106,5.20862 -1.76767,4.29936 -1.23809,-1.17428 -1.81037,-3.23039 -2.13651,-5.0757 -0.22488,-1.71309 -0.45333,-4.77805 1.24499,-4.91743 z m 39.82232,-2.61814 c 1.53911,1.191 1.56075,3.99757 1.36624,6.13663 -0.1439,1.70414 -1.12712,5.07783 -2.64431,3.81413 -0.9455,-1.41144 -1.07274,-3.54063 -1.00299,-5.41252 0.14084,-1.71834 0.56523,-4.76881 2.28106,-4.53824 z m -11.68243,1.38777 c 0.21083,-0.19164 0.45042,2.0621 0.6354,2.94323 0.68831,1.64149 -0.33435,1.80359 -1.31642,1.46945 0.15913,-1.09062 0.32317,-2.18014 0.49171,-3.27005 0.0554,-0.74542 0.11998,-1.0796 0.18931,-1.14263 z m 21.76426,1.11805 c 0.21957,-0.17005 0.25084,2.0966 0.35677,2.99519 0.53597,1.69383 -0.48581,1.78007 -1.44998,1.34383 0.0713,-0.2863 0.73063,-2.92956 0.80188,-3.21587 0.12447,-0.73883 0.2182,-1.06651 0.29133,-1.12315 z m -37.08518,12.43524 c -1.0441,0.12965 -1.64454,1.06042 -1.79719,1.70079 -0.46922,0.80198 0.0836,1.46533 1.20043,1.63677 0.007,-0.59119 -0.68038,-1.40613 -0.0444,-2.14417 0.78818,-1.07349 1.88909,0.2184 1.88888,0.82477 0.1,1.68197 -0.42296,3.42464 -1.13396,5.09421 -0.24304,1.03213 -1.43645,1.99294 -1.21734,3.03595 0.8896,-0.12804 1.7661,-0.25211 2.62963,-0.37014 1.23483,0.10539 1.57989,-0.60509 1.50573,-1.33097 0.0546,-0.98991 -0.60098,0.25194 -1.22777,0.34158 -0.49356,0.0899 -2.2352,0.56291 -1.83738,0.0406 1.21613,-2.01269 2.35469,-4.16033 2.28534,-6.26992 -0.10388,-0.95864 -0.37608,-2.15401 -1.77889,-2.56261 -0.16645,-0.0175 -0.32422,-0.0154 -0.47309,0.003 z m 52.08417,1.69579 c -0.70334,-0.15282 -0.74687,0.35787 -0.42629,0.82846 -0.3624,2.52258 -0.81615,4.86102 -1.17855,7.3836 0.22565,0.51797 -1.12133,1.3047 -0.17469,1.45963 0.86112,0.27391 1.63355,0.19275 1.09573,-0.57574 -0.0298,-0.68378 0.18936,-1.35586 0.27346,-2.03231 0.17513,-0.65527 0.10791,-1.38389 0.42661,-1.99226 0.44269,0.91278 0.88079,1.82712 1.31554,2.74274 0.2583,0.77599 1.13068,1.65212 0.56643,2.37343 0.17138,0.27198 2.71532,0.77748 1.58096,-0.20542 -0.89553,-1.84636 -1.74446,-3.69518 -2.64454,-5.53376 0.005,-0.0266 0.0117,-0.0676 0.0162,-0.0942 1.31702,-0.98163 2.61264,-2.02188 4.01471,-2.94984 0.99501,-0.49087 -0.67045,-0.64725 -1.28809,-0.69971 -0.0567,0.41007 -0.22291,0.77679 -0.78363,1.06352 -0.90755,0.61039 -1.65765,1.34985 -2.63157,1.89927 0.10591,-0.68349 0.2518,-1.36087 0.32719,-2.0489 -0.19992,-0.58808 1.38676,-1.47012 -0.1477,-1.51033 -0.12783,-0.051 -0.2415,-0.0864 -0.34179,-0.10817 z m -23.28512,-2.35269 c -0.69489,-0.0932 -0.58827,0.47998 -0.27639,0.86847 -0.12842,2.55623 -0.36399,4.90854 -0.49242,7.46476 0.25174,0.56735 -1.2158,1.59318 0.28322,1.49045 1.03401,0.31289 1.09882,-0.27994 0.68858,-0.78672 0.15192,-2.55209 0.37169,-5.09947 0.54984,-7.64961 0.0267,-0.34989 0.52647,-0.28093 0.91504,-0.24469 1.34412,-0.0797 2.27498,0.80418 2.30514,1.60219 0.11465,0.83588 -0.51861,1.90536 -2.01261,1.84481 -0.90848,-0.22235 -1.45041,0.0627 -1.20645,0.71544 1.23982,0.24643 2.81962,0.19671 3.55809,-0.55188 0.95426,-1.05637 0.94617,-2.51016 -0.0164,-3.66041 -0.77517,-0.96227 -2.58824,-0.90896 -3.94738,-1.00972 -0.13365,-0.0431 -0.24906,-0.0698 -0.3483,-0.0831 z m 15.64485,1.29324 c -0.63306,-0.11108 -0.57563,0.44902 -0.29975,0.85061 -0.17775,2.3972 -0.48175,5.04948 -0.65949,7.44667 0.17724,0.56512 -1.00836,1.58723 0.16221,1.4859 0.79645,0.31481 0.88929,-0.26621 0.58095,-0.78019 0.18267,-1.92116 0.38359,-3.65806 0.59164,-5.57654 0.20862,-0.75174 -0.1166,-1.71105 0.49734,-2.31218 0.3984,0.0511 0.81039,0.0713 1.20805,0.17776 1.43002,0.39238 1.40651,1.76045 0.75251,2.45012 -0.34425,0.9908 -2.64964,0.15493 -2.31069,1.3264 1.01761,0.45693 1.30567,1.41463 1.67374,2.20075 0.31418,0.91491 0.87688,1.89455 0.55029,2.8039 -0.008,0.34625 2.28324,0.66083 1.38151,-0.19743 -0.59453,-1.5847 -0.99068,-3.2573 -2.31161,-4.66348 0.0764,-0.21022 1.27715,-0.26551 1.57968,-0.70235 0.98181,-0.83417 1.20767,-2.12011 0.53958,-3.21718 -0.67922,-1.00267 -2.38992,-1.10086 -3.62214,-1.20117 -0.11945,-0.046 -0.22362,-0.0758 -0.31382,-0.0916 z m -30.58231,-1.77698 c -1.5186,0.11704 -2.03639,1.33892 -1.96887,2.22127 -0.0344,1.38909 1.43816,2.44474 2.77877,3.2903 1.16597,0.76287 1.44476,2.18286 0.55132,3.12665 -0.7319,0.71773 -2.13276,0.39366 -2.59269,-0.31747 -0.91194,-0.74408 -0.2221,0.64954 -0.1723,1.05631 -0.0918,0.86298 0.68799,-0.10435 1.1161,0.36699 0.7685,0.34407 1.79744,0.0978 2.27718,-0.4655 0.88297,-1.11225 1.05928,-2.55756 0.35458,-3.74514 -0.61398,-1.20684 -2.63524,-1.62777 -3.26082,-2.81911 -0.36448,-0.61625 -0.27207,-1.70274 0.9469,-1.81145 1.25407,-0.0777 1.56177,0.81557 2.0848,1.39624 0.4076,-0.19418 -0.0398,-1.22674 0.0389,-1.74226 -0.53603,-0.0427 -1.39635,-0.52123 -2.15382,-0.55683 z m -21.80991,2.39784 c -0.61627,0.34426 -1.74504,1.50814 -0.67899,1.84744 0.40631,2.30574 0.71986,4.62581 1.09011,6.93721 0.44178,0.44903 -1.09879,1.36494 0.50093,0.97967 0.97688,0.0679 1.20615,-0.47454 0.58809,-0.85972 -0.3625,-2.18856 -0.67609,-4.35507 -1.00835,-6.54827 -0.20528,-0.77254 -0.0739,-1.64989 -0.49179,-2.35633 z m 3.46591,-0.51565 c -0.62111,0.34167 -1.77202,1.50114 -0.69587,1.84521 0.39606,2.30828 0.69833,4.63045 1.05813,6.9442 0.44736,0.45118 -1.12834,1.36064 0.50339,0.9822 0.99006,0.0719 1.22475,-0.46939 0.60184,-0.85752 -0.3542,-2.18827 -0.66047,-4.36203 -0.98418,-6.55482 -0.203,-0.77365 -0.0662,-1.65088 -0.48331,-2.35927 z m 42.43795,-0.53039 c -1.46793,2.81962 -2.9303,5.63983 -4.36652,8.46341 -0.027,0.29026 -0.41154,0.46465 -0.52276,0.72965 0.0346,0.0627 2.05788,0.67303 1.70929,-0.0226 -0.48331,-0.96745 0.55232,-1.83478 0.8147,-2.7445 1.15604,0.098 2.32287,0.19695 3.50048,0.29444 0.94477,-0.0417 0.55241,0.81459 0.86234,1.20038 0.29372,0.65725 0.433,1.37306 -0.12196,1.95683 0.83438,0.12283 2.89969,0.45673 1.83758,-0.49964 -0.89613,-2.55781 -1.76242,-5.1341 -2.61882,-7.6977 -0.39036,-0.48446 -0.0596,-1.73716 -1.09433,-1.68029 z m -30.37687,-0.84133 c -0.0911,0.0186 -0.21436,0.0586 -0.37548,0.1259 -1.94633,1.45807 -2.96785,3.42932 -3.07094,5.32874 -0.0296,1.46938 0.20829,3.03656 1.54894,4.13123 0.95134,0.77885 2.31514,-0.10683 2.44636,-0.94787 0.43985,-1.35925 0.33604,-2.87642 -0.5887,-4.06781 -0.25011,-0.52615 -2.79633,-0.90609 -2.19787,0.45776 0.50936,-0.42791 1.33986,-0.37598 1.5978,0.29083 0.47384,0.97669 0.68666,2.06787 0.41916,3.12434 -0.23973,1.14491 -1.66325,0.44883 -1.76466,-0.32763 -0.91562,-2.27445 -0.65778,-4.96361 1.35856,-7.10498 0.34611,-0.21967 1.25867,-1.13934 0.62683,-1.01051 z m 30.3992,2.74997 c 0.41069,1.26689 0.85952,2.53085 1.25539,3.79868 -0.58425,0.22635 -2.2897,-0.0337 -3.17147,-0.1951 0.65048,-1.19615 1.20383,-2.4242 1.91608,-3.60358 z"
       sodipodi:nodetypes="ccccccccccccccccccccccccccccccccccsscccscccccccccccccssssccccccccccccccccccccccccccccccccccccccccsscccssccssscscsccsssccscsscccccccccccsscccccssccccccccccccccccccccccccccccccccccccccccccccccccccccccccccccsccccccccsscccssssscssssccssccsscccssccssccccccccccccccccccscccccccccccccccccccccccccscccsccccccccccccccccccccccccccccccccccccccccccccccccccsccccccccccccccccsssccccccccccccssccccccccccccccsccccccccccscccccccccccccccc" /><rect
       style="display:none;fill:#ffffff;fill-opacity:0.566929;stroke-width:0;stroke-linecap:round;paint-order:fill markers stroke"
       id="rect15"
       width="108.7515"
       height="60.136478"
       x="115.88144"
       y="136.51125"
       rx="0"
       ry="0" /><path
       style="font-size:9.525px;line-height:1;font-family:'Della Respira';-inkscape-font-specification:'Della Respira';text-align:center;letter-spacing:0.264583px;text-anchor:middle;fill:#ffffff;stroke-width:0.6;stroke-linecap:round;paint-order:markers stroke fill"
       d="m 148.13482,152.32065 c 0.0585,-0.46913 0.35227,-0.89662 0.1162,-1.39337 -0.27058,-1.86224 -0.51224,-3.73233 -0.80254,-5.58944 -0.17716,-0.23669 -0.57858,-0.64691 -0.0457,-0.60692 1.36131,-0.19302 2.79667,-0.45324 4.31974,-0.68616 0.14595,0.29796 0.57658,0.68879 0.44502,0.99302 -0.48017,-0.3407 -1.00927,-0.13309 -1.52738,-0.0583 -0.79984,0.12738 -1.57823,0.26494 -2.34019,0.37967 0.11731,0.75994 0.23462,1.5199 0.35192,2.27985 0.97011,-0.15894 1.95072,-0.30045 2.93128,-0.48919 0.22441,-0.1113 0.65471,-0.69593 0.6253,-0.0716 -0.0165,0.30027 0.29746,0.99056 0.0319,1.03355 -0.33557,-0.16721 -0.7074,-0.24541 -1.06373,-0.11889 -0.80329,0.13105 -1.60579,0.26661 -2.4098,0.39073 0.16888,1.03737 0.30285,2.08041 0.49469,3.11402 0.11717,0.23779 0.69559,0.67985 0.0668,0.64884 -0.39202,0.0604 -0.78981,0.1186 -1.19346,0.17424 0,1e-5 0,2e-5 0,3e-5 z m 5.18651,-8.50244 c 0.49927,-0.0654 1.00223,-0.12692 1.50873,-0.18353 -0.0626,0.45645 -0.37616,0.8669 -0.15266,1.36215 0.22143,1.87907 0.41352,3.76529 0.6553,5.63965 0.124,0.21818 0.6027,0.65042 0.0622,0.60257 -0.33328,-0.0283 -1.00087,0.27615 -1.11893,0.005 0.24639,-0.42483 0.21556,-0.90343 0.10894,-1.37704 -0.22532,-1.82638 -0.46316,-3.65176 -0.68316,-5.47846 -0.0414,-0.23438 -0.49209,-0.30577 -0.38089,-0.57061 1.4e-4,-2e-5 2.9e-4,-4e-5 4.3e-4,-6e-5 z m 4.60962,0.30771 c -0.47801,0.34258 -0.0628,1.11262 -0.13839,1.63345 0.10388,1.53745 0.18139,3.08049 0.30528,4.61414 0.11024,0.22255 0.5557,0.67694 0.0321,0.60443 -0.3227,-0.0435 -0.98508,0.23399 -1.0895,-0.0412 0.25701,-0.41563 0.24788,-0.89416 0.16304,-1.37209 -0.15431,-1.83516 -0.27895,-3.67645 -0.45576,-5.50751 -0.12402,-0.21829 -0.64609,-0.65427 -0.0419,-0.59562 1.03519,-0.0526 2.10046,-0.24098 3.15148,-0.0601 0.73429,0.13851 1.45115,0.63784 1.49767,1.39857 0.11647,0.72431 -0.27942,1.49338 -0.90117,1.84796 -0.26143,0.25321 -0.91949,0.24607 -1.00039,0.48724 1.10702,0.71715 1.84993,1.84071 2.3603,3.03677 0.0214,0.26893 0.69874,0.72288 0.15356,0.71927 -0.3591,-0.0125 -0.72034,-0.0181 -1.08364,-0.0177 0.23438,-0.6041 -0.19287,-1.11934 -0.4511,-1.66645 -0.42797,-0.72608 -0.96339,-1.43913 -1.70831,-1.85091 -0.6015,0.043 -0.78487,-0.8379 -0.10352,-0.76654 0.5436,-0.015 1.10446,-0.2511 1.49863,-0.65234 0.47663,-0.47765 0.38792,-1.40412 -0.28454,-1.67513 -0.59335,-0.28546 -1.27396,-0.16045 -1.90363,-0.13627 -7e-5,1e-5 -1.5e-4,1e-5 -2.2e-4,1e-5 z m 6.18317,6.84242 c -0.32391,-0.43138 -1.01873,0.30337 -1.02618,-0.33309 -0.013,-0.36359 -0.3116,-0.89488 -0.15656,-1.1456 0.48494,0.1743 0.67795,0.8522 1.2659,0.86081 0.65923,0.21894 1.57503,0.17464 1.93864,-0.54334 0.31678,-0.64047 0.0861,-1.49225 -0.50587,-1.86587 -0.86717,-0.69533 -2.00589,-1.22223 -2.42893,-2.35555 -0.28132,-0.90789 0.32042,-1.9915 1.25187,-2.11615 0.67879,-0.15076 1.39416,0.0739 1.953,0.47476 0.29818,-0.0869 0.6034,-0.12491 0.48473,0.31326 -0.063,0.34265 0.19624,1.05885 -0.11133,1.15366 -0.30169,-0.31722 -0.39064,-0.83362 -0.86317,-0.98981 -0.52175,-0.31613 -1.26574,-0.4479 -1.76574,-0.0276 -0.51479,0.5764 -0.0551,1.4157 0.4991,1.75484 0.82359,0.64661 1.94687,1.04316 2.34561,2.11981 0.27196,0.8068 0.0419,1.80383 -0.56425,2.38352 -0.63351,0.57396 -1.56302,0.66209 -2.31686,0.31633 1e-5,-1e-5 2e-5,-2e-5 4e-5,-3e-5 z m 11.39108,-6.82436 c 0.0792,0.32508 0.37371,0.78805 0.19705,1.06339 -0.35316,-0.39579 -0.84307,-0.36011 -1.33121,-0.3834 -0.69904,-0.0493 -1.36639,-0.0874 -2.06543,-0.13669 -0.1457,2.07976 -0.32419,4.16108 -0.44795,6.23994 0.0847,0.23591 0.4962,0.74933 -0.0512,0.60327 -0.3375,-0.0888 -1.07964,0.0826 -1.14462,-0.20576 0.22415,-0.29848 0.41501,-0.6338 0.36443,-1.02352 0.13624,-1.89053 0.27247,-3.78104 0.40871,-5.67157 -0.97668,-0.0438 -1.95363,-0.17344 -2.93021,-0.15584 -0.20921,0.0893 -0.80138,0.38176 -0.49579,-0.10913 0.11967,-0.4357 0.3569,-0.86166 0.86574,-0.65929 4.33826,0.28711 2.29218,0.15149 6.63043,0.4386 2e-5,0 5e-5,0 7e-5,0 z"
       id="text12"
       aria-label="FIRST"
       inkscape:path-effect="#path-effect12"
       inkscape:original-d="m 146.30658,151.21132 c 0.11625,-0.45158 0.46419,-0.84474 0.30199,-1.36405 -0.007,-1.88182 0.0178,-3.76737 -0.0127,-5.64686 -0.15537,-0.25643 -0.54172,-0.72259 0.0442,-0.60735 1.53228,0 3.06457,0 4.59685,0 0.0981,0.31518 0.46494,0.76873 0.29059,1.04845 -0.42471,-0.40744 -0.98076,-0.28534 -1.52039,-0.29498 -0.83188,-0.003 -1.66376,0.003 -2.49564,-1e-4 0,0.76894 0,1.53789 0,2.30683 1.03238,-0.009 2.06505,0.0179 3.0972,-0.014 0.24882,-0.075 0.77656,-0.5855 0.64942,0.0259 -0.0637,0.29433 0.15047,1.02452 -0.13041,1.02641 -0.31947,-0.21647 -0.68804,-0.35241 -1.07511,-0.28494 -0.84703,0 -1.69407,0 -2.5411,0 0.009,1.05098 -0.018,2.10225 0.0139,3.15301 0.08,0.25335 0.58443,0.77823 -0.033,0.65144 -0.39526,1.3e-4 -0.7906,-2.4e-4 -1.1858,2.1e-4 z m 6.51536,-7.61814 c 0.50229,0 1.00459,0 1.50688,0 -0.10956,0.44248 -0.46747,0.82243 -0.30204,1.33559 0.007,1.89129 -0.0178,3.78631 0.0127,5.67526 0.10671,0.22989 0.57676,0.71513 -0.007,0.60548 -0.35989,-0.0664 -1.12333,0.15364 -1.21286,-0.12989 0.32414,-0.39023 0.35378,-0.86955 0.30369,-1.3523 0.004,-1.83979 -0.005,-3.68015 0.004,-5.51958 -0.012,-0.23768 -0.44959,-0.36642 -0.30581,-0.61456 z m 4.49688,0.76275 c -0.48657,0.31203 -0.12709,1.10701 -0.23687,1.62172 0.006,1.54166 -0.0169,3.08706 0.0126,4.62638 0.10671,0.22989 0.57676,0.71513 -0.007,0.60548 -0.35989,-0.0664 -1.12332,0.15364 -1.21285,-0.12989 0.32414,-0.39023 0.35377,-0.86955 0.30368,-1.3523 -0.007,-1.84176 0.0165,-3.68713 -0.0118,-5.52665 -0.1048,-0.22927 -0.57578,-0.70577 0.006,-0.59708 1.00971,0.0335 2.03737,-0.0934 3.03342,0.11257 0.69006,0.15473 1.38701,0.65502 1.44648,1.4124 0.12788,0.72599 -0.24282,1.498 -0.89104,1.84883 -0.27019,0.25025 -0.95295,0.22478 -1.04447,0.46312 1.12498,0.75371 1.94382,1.87625 2.57655,3.05624 0.0358,0.26843 0.85015,0.6993 0.21088,0.71459 -0.42157,0 -0.84315,0 -1.26473,0 0.26222,-0.59552 -0.23556,-1.12912 -0.51289,-1.67203 -0.46747,-0.73248 -1.02294,-1.461 -1.77903,-1.91033 -0.59491,0.0108 -0.80219,-0.88489 -0.0701,-0.77159 0.56133,0.0141 1.14359,-0.20219 1.5484,-0.59699 0.49061,-0.47101 0.38559,-1.39809 -0.25665,-1.68329 -0.57017,-0.29979 -1.23229,-0.20569 -1.85036,-0.22118 z m 6.48281,6.79958 c -0.36549,-0.40916 -1.04884,0.36993 -1.09415,-0.26477 -0.035,-0.362 -0.37812,-0.87254 -0.23085,-1.13298 0.51656,0.14197 0.75891,0.80579 1.37423,0.77562 0.70291,0.17509 1.65836,0.0704 1.99126,-0.67009 0.28898,-0.65987 -0.008,-1.49519 -0.64711,-1.82881 -0.94647,-0.63687 -2.1608,-1.08738 -2.66494,-2.19064 -0.34406,-0.88724 0.21736,-2.00892 1.16936,-2.19451 0.69106,-0.19521 1.44209,-0.0183 2.04458,0.34496 0.30203,-0.10632 0.61461,-0.16452 0.52061,0.28066 -0.0427,0.34612 0.27221,1.0438 -0.0399,1.15872 -0.33289,-0.29669 -0.45802,-0.8062 -0.95606,-0.9309 -0.55911,-0.28113 -1.33463,-0.36345 -1.82626,0.089 -0.49794,0.60954 0.0266,1.41617 0.62261,1.71841 0.89359,0.59105 2.08521,0.91261 2.57164,1.96089 0.33665,0.78747 0.16487,1.79731 -0.43099,2.41602 -0.6246,0.61454 -1.59356,0.76387 -2.40407,0.46845 z m 11.33833,-7.56233 c 0.10825,0.31892 0.45044,0.76218 0.29116,1.04834 -0.39738,-0.37173 -0.89949,-0.30379 -1.40496,-0.29483 -0.71393,-0.003 -1.42787,0.003 -2.1418,-1.4e-4 0.008,2.08532 -0.018,4.17437 0.013,6.25736 0.10671,0.22989 0.57676,0.71514 -0.007,0.60548 -0.35988,-0.0664 -1.12332,0.15364 -1.21285,-0.12989 0.2122,-0.31278 0.38613,-0.65983 0.30401,-1.04556 0,-1.89583 0,-3.79165 0,-5.68748 -1.01124,0.0207 -2.02881,-0.0442 -3.03594,0.0378 -0.21,0.10298 -0.80169,0.43383 -0.51931,-0.0762 0.0942,-0.44283 0.30998,-0.88342 0.84819,-0.71512 2.28846,1.5e-4 4.57705,-3e-4 6.86543,2.4e-4 z" /><g
       id="text1"
       transform="scale(0.70851706,1.4113986)"><path
         id="path2"
         style="color:#000000;-inkscape-font-specification:'Della Respira Bold';fill:#ffffff;stroke-width:1;stroke-linecap:round;-inkscape-stroke:none;paint-order:markers stroke fill"
         d="m 233.51,120.49609 c -0.53873,0.0781 0.002,0.61 -0.24094,0.92947 -0.53426,1.41859 -1.01283,2.86293 -1.52617,4.29124 -0.59471,-1.52298 -1.29412,-2.99642 -1.82083,-4.54883 0.50207,-0.29667 0.11575,-0.85012 -0.3545,-0.64649 -0.34738,0.0877 -0.91151,-0.19564 -1.10467,0.1875 0.079,0.42486 0.47432,0.73198 0.55276,1.18867 0.77488,1.88084 1.5279,3.77363 2.39243,5.60821 0.48004,0.32079 0.77543,-0.31073 0.84148,-0.73828 0.58823,-1.53183 1.12683,-3.08619 1.70445,-4.62305 0.76736,1.80031 1.43842,3.65368 2.32393,5.39063 0.5967,0.28353 0.72588,-0.55477 0.89146,-0.97715 0.71408,-1.82 1.28072,-3.72671 2.08954,-5.4916 0.51058,-0.44405 -0.20371,-0.62604 -0.54965,-0.53516 -0.30618,-0.12016 -1.1069,0.007 -0.69467,0.47461 0.31464,0.49106 -0.24587,0.99384 -0.2992,1.48995 -0.37945,1.07368 -0.75927,2.1472 -1.13848,3.22099 -0.63035,-1.56723 -1.30976,-3.11079 -1.90319,-4.69532 0.4911,-0.56907 -0.4077,-0.54525 -0.75912,-0.49023 -0.13369,-0.009 -0.27013,-0.0691 -0.40463,-0.0352 z" /></g><text
       xml:space="preserve"
       style="font-style:normal;font-variant:normal;font-weight:bold;font-stretch:normal;font-size:7.40833px;line-height:1;font-family:'Della Respira';-inkscape-font-specification:'Della Respira Bold';text-align:center;letter-spacing:0.391583px;word-spacing:0px;text-anchor:middle;fill:#ffffff;stroke-width:4;stroke-linecap:round;paint-order:markers stroke fill"
       x="174.39903"
       y="118.5602"
       id="text2"><tspan
         sodipodi:role="line"
         id="tspan2"
         style="stroke-width:4"
         x="174.39903"
         y="118.5602" /></text></g></svg>
