<?xml version="1.0" encoding="UTF-8" standalone="no"?>
<!-- Created with Inkscape (http://www.inkscape.org/) -->

<svg
   width="124.94535mm"
   height="72.168671mm"
   viewBox="0 0 124.94535 72.168672"
   version="1.1"
   id="svg646"
   sodipodi:docname="bridgetown-bluegrass-logo.svg"
   inkscape:version="1.3 (0e150ed, 2023-07-21)"
   xml:space="preserve"
   inkscape:export-filename="may4-2024.svg"
   inkscape:export-xdpi="300"
   inkscape:export-ydpi="300"
   xmlns:inkscape="http://www.inkscape.org/namespaces/inkscape"
   xmlns:sodipodi="http://sodipodi.sourceforge.net/DTD/sodipodi-0.dtd"
   xmlns="http://www.w3.org/2000/svg"
   xmlns:svg="http://www.w3.org/2000/svg"><sodipodi:namedview
     id="namedview579"
     pagecolor="#ffffff"
     bordercolor="#000000"
     borderopacity="0.25"
     inkscape:showpageshadow="2"
     inkscape:pageopacity="0.0"
     inkscape:pagecheckerboard="0"
     inkscape:deskcolor="#d1d1d1"
     inkscape:document-units="mm"
     showgrid="false"
     inkscape:zoom="1.0489002"
     inkscape:cx="113.92886"
     inkscape:cy="36.228423"
     inkscape:window-width="1712"
     inkscape:window-height="933"
     inkscape:window-x="86"
     inkscape:window-y="70"
     inkscape:window-maximized="0"
     inkscape:current-layer="svg646" /><defs
     id="defs643" /><path
     id="path13"
     style="font-weight:bold;font-size:144px;line-height:1.4;font-family:'Haigrast Serif Deco PERSONAL';-inkscape-font-specification:'Haigrast Serif Deco PERSONAL Bold';text-align:center;letter-spacing:6.07px;text-anchor:middle;white-space:pre;fill:#FFFFFF;stroke:#FFFFFF;stroke-width:0.799999;stroke-linecap:round;stroke-linejoin:round;paint-order:markers stroke fill"
     d="m 114.99091,0.25166423 -2.80344,0.74259033 V 1.2340332 c 0.59896,0 1.36581,0.3831425 1.36581,1.4133504 V 16.782955 c 0,1.054173 -0.76685,1.437121 -1.36581,1.437121 v 0.239779 h 4.19302 v -0.239779 c -0.59895,0 -1.38958,-0.382948 -1.38958,-1.437121 v -4.528406 c 0,-3.1385342 2.49139,-5.2947671 4.33617,-5.2947671 1.89271,0 2.56367,1.5092991 2.56367,3.4499191 v 6.420796 c 0,1.006255 -0.81458,1.389579 -1.38958,1.389579 v 0.239779 h 4.19251 v -0.239779 c -0.59896,0 -1.36529,-0.382948 -1.36529,-1.437121 v -6.133476 c 0,-2.8510365 -0.86289,-4.4085163 -3.52227,-4.4085163 -2.18018,0 -3.92875,1.3660137 -4.81521,3.2587158 z m -7.97935,2.75487057 -1.24592,2.8034465 -1.96474,1.0299113 v 0.3596679 h 2.13269 v 9.3673865 c 2.51563,2.539587 4.93506,6.348967 9.70276,6.348967 3.3302,0 4.48903,-2.016222 5.53455,-3.162081 0,0 1.69563,-2.175194 -0.23978,-0.239779 -1.03022,0.934349 -3.42576,2.18004 -6.25285,2.204 -3.88123,0 -7.30756,-2.491768 -7.30756,-9.511564 V 7.1995605 h 3.83335 V 6.4807414 h -3.83335 V 3.0065348 Z M 85.275415,4.2049113 c -1.213822,0.075655 -2.314424,0.9659548 -2.865458,2.0412191 2.064145,0.3407945 3.373456,2.5151301 3.203422,4.5149696 0.02566,4.021679 -2.122706,7.646341 -4.420919,10.795724 -0.575408,0.784901 -1.167469,1.557619 -1.749247,2.337842 4.591851,0.121662 9.202462,-0.160718 13.781588,0.222725 1.293856,0.974395 0.892717,2.751117 0.890385,4.144967 -0.0435,3.084511 0.445503,6.30409 -0.722437,9.251114 1.951532,-0.045 3.90366,-0.01615 5.855457,-0.03514 -1.328835,-2.43572 -0.52557,-5.273988 -0.749309,-7.901327 -0.02642,-1.681532 -0.174017,-3.434098 0.424781,-5.040002 0.700968,-0.78127 1.872012,-0.597527 2.767792,-0.326079 -0.04,-0.414716 0.10789,-1.153035 -0.092,-1.358056 -1.16534,0.428057 -2.842973,-0.04023 -3.042705,-1.423169 -0.177977,-3.094321 -0.02307,-6.20482 -0.08268,-9.305892 -0.0053,-2.3265751 -0.06342,-4.6543016 -0.09508,-6.9794192 -1.779504,2.1589221 -3.506153,4.3778533 -5.211051,6.6037312 1.039429,0.775881 1.060264,2.19801 0.942578,3.36672 0.006,2.355104 0.234329,4.752391 -0.291972,7.068819 -0.833503,1.092054 -2.351956,0.67946 -3.528467,0.813904 -1.778877,-0.05042 -3.623735,0.150258 -5.349544,-0.313676 -0.901969,-0.634489 -0.619283,-1.948758 0.0083,-2.671155 1.819159,-3.494899 4.041552,-7.066453 4.122746,-11.1166342 C 89.13985,7.149218 88.44946,5.1308782 86.669128,4.4581258 86.231735,4.2719305 85.750766,4.1804682 85.275415,4.2049113 Z M 3.0514933,5.0358683 c -1.2520796,0.068182 -2.25026018,1.4236813 -2.65151771,1.7647502 -1.38032599,1.0272194 0,0.3808553 0,0.3808553 0.95249901,0 2.17196041,0.609767 2.17196041,2.2861654 V 30.841528 c 0,1.638299 -1.2194614,2.247925 -2.17196041,2.247925 v 0.381372 H 5.924703 v -0.381372 c -0.9524991,0 -2.210201,-0.609626 -2.210201,-2.247925 V 8.1343872 l 9.715686,25.7172938 h 1.143083 L 24.479126,8.2485921 V 9.4676392 30.841528 c 0,1.638299 -1.218945,2.247925 -2.171444,2.247925 v 0.381372 h 2.209685 c 6.896092,0 8.171812,7.476474 15.249198,7.566463 10.248062,0.1303 15.855334,-6.156311 17.068726,-6.93446 0,0 1.534535,-1.379598 0.884183,-0.784448 -3.976652,3.639106 -9.804481,5.139713 -18.52445,5.432743 C 33.83941,38.931093 26.765291,32.632674 26.765291,28.022579 V 9.4676392 c 0,-1.6763984 1.257186,-2.2861654 2.209685,-2.2861654 V 6.8006185 H 23.717415 L 14.49679,30.6896 5.5056071,6.8006185 C 4.6456094,5.4174855 3.8027411,4.994959 3.0514933,5.0358683 Z M 42.049113,14.039453 c -3.238497,0 -6.62957,1.981441 -6.62957,4.686536 0,1.600198 1.257657,2.057239 2.057756,2.057239 0.381,0 0.647506,-0.07601 0.647506,-0.22841 0,-0.1524 -0.533301,-0.876144 -0.533301,-1.638143 0,-1.600196 1.142912,-3.734139 4.457609,-3.734139 2.476497,0 4.076799,1.257451 4.229199,4.381645 -0.342899,3.314696 -11.88713,2.743393 -11.88713,9.715686 0,2.819397 2.399919,4.533573 5.638416,4.533573 2.514597,0 4.800916,-1.028669 6.248714,-3.352767 0,1.028699 0.38088,3.352767 3.047876,3.352767 l 2.171444,-1.143083 -0.190169,-0.571541 c -0.2286,0.0381 -0.685789,0.07648 -1.257288,0.07648 -1.066799,0 -1.486214,-1.028529 -1.486214,-3.314526 v -8.915735 c 0,-3.390894 -1.638053,-5.905583 -6.514848,-5.905583 z m 10.120829,0.381372 v 0.380856 h 0.266651 c 0.647699,0 2.133712,0.228767 2.971911,2.286165 l 6.362403,15.963883 -2.09548,5.21932 c -0.380999,1.066799 -1.409767,2.476851 -2.819466,2.476851 -1.066799,0 -1.752295,-0.457283 -2.438094,-1.143082 -0.0381,-0.0381 -0.0761,-0.03824 -0.114205,-0.03824 -0.1524,0 -0.267167,0.381274 -0.267167,0.914673 0,1.142999 0.571899,2.895431 2.629297,2.895431 2.057398,0 3.581218,-2.400402 4.152718,-4.2292 l 8.610844,-22.097876 c 0.800099,-2.057398 2.362171,-2.247924 2.933671,-2.247924 h 0.26665 v -0.380856 h -5.714896 v 0.380856 h 0.228409 c 0.4191,0 1.219048,0.114383 1.219048,1.143082 0,0.1905 2.35e-4,0.380806 -0.07596,0.647506 L 62.913989,30.118058 57.694153,17.087846 c -0.1905,-0.4953 -0.304374,-0.914764 -0.304374,-1.219564 0,-0.952499 0.761707,-1.066601 1.180806,-1.066601 h 0.266651 v -0.380856 z m -5.89163,7.238835 v 3.657658 c -0.2667,4.229095 -1.71459,7.353039 -5.486487,7.353039 -2.552697,0 -3.886067,-1.714465 -3.886067,-3.771863 0,-5.067294 7.010357,-5.257636 9.372554,-7.238834 z m 7.699789,24.14633 c -0.06697,-0.0018 -0.134327,-5.6e-4 -0.201539,0.0031 -2.483453,0.272541 -4.103838,2.556881 -4.904093,4.733045 -2.31181,5.907365 -2.093676,12.904764 1.07797,18.456237 1.014374,1.600101 2.942344,3.075137 4.925798,2.425175 2.260795,-0.761211 3.357327,-3.114689 4.201294,-5.161442 1.617115,-4.22289 1.580264,-8.939296 0.591178,-13.304097 -0.681016,-2.620572 -1.952786,-5.336017 -4.34237,-6.791834 -0.419226,-0.206097 -0.879448,-0.347638 -1.348238,-0.360184 z m 30.718538,0.536401 c -1.043058,0.148171 -1.881697,1.165953 -2.015898,2.146122 0.590718,0.243572 1.238985,0.471704 1.504301,1.119312 0.841314,1.681733 0.460726,3.67772 -0.04702,5.427575 -0.753462,2.378574 -2.087913,4.50317 -3.322278,6.65024 0.425228,0.498897 1.241839,0.122561 1.833997,0.240296 2.270146,0.08485 4.562396,-0.211098 6.798551,0.238228 0.550088,0.821218 0.310009,1.873281 0.357601,2.809648 -0.199559,2.062223 0.312837,4.180151 -0.305925,6.183085 -0.131968,0.392207 -0.63892,1.065897 0.126608,1.008207 1.281568,-0.08189 2.605347,0.02431 3.923274,-0.03566 0.264458,-0.512306 -0.383477,-1.045908 -0.322461,-1.60817 -0.287519,-2.094781 0.01597,-4.213209 -0.125573,-6.317961 0.02604,-0.72244 -0.06034,-1.63891 0.483174,-2.17196 0.454729,-0.25203 0.925523,0.109981 1.328601,0.170015 0.279131,-0.536188 0.05727,-1.157921 0.146245,-1.716691 -0.32048,-0.473384 -0.876624,0.198471 -1.30483,-0.08785 -0.544805,-0.140286 -0.768655,-0.750723 -0.633553,-1.276408 -0.02968,-4.110434 0.0087,-8.221278 -0.08888,-12.33103 -0.486442,-0.163598 -0.724785,0.624978 -0.957047,0.949296 -1.022523,1.494302 -1.953062,3.054159 -2.898531,4.599719 0.521665,0.710011 0.733778,1.638583 0.619083,2.530079 -0.04226,1.703843 0.08843,3.425985 -0.08992,5.112349 -1.063853,0.98367 -2.576653,0.179578 -3.84886,0.523482 -0.629547,0.09011 -1.548521,-0.42749 -1.18184,-1.163753 0.510188,-1.455749 1.282055,-2.807042 1.759065,-4.278292 0.876412,-2.368665 1.504048,-5.142377 0.392225,-7.535974 -0.450403,-0.7141 -1.267932,-1.233074 -2.130103,-1.183907 z m -47.635852,0.0041 c -0.26737,-0.0024 -0.536016,0.0016 -0.805636,0.0072 -3.169016,0.157813 -6.081769,3.091657 -5.870959,6.329329 -0.0935,1.564049 0.429901,3.531227 2.095479,4.092774 0.741659,0.221363 1.745971,-0.01899 2.031401,-0.810804 -0.760509,-0.6495 -1.292994,-1.536749 -1.344104,-2.549715 -0.32787,-2.112384 0.600521,-4.735115 2.801379,-5.408972 1.434399,-0.432538 3.028327,0.314682 3.702617,1.634009 1.730178,2.697578 0.790843,6.548524 -1.730644,8.422225 -2.474368,2.152646 -5.866942,3.419833 -7.46001,6.460071 -1.192989,2.206836 -1.36957,5.034669 0.04651,7.184574 0.536249,-0.25835 0.738473,-0.925484 1.317232,-1.149284 2.053338,-1.545331 5.237872,-1.291254 6.96805,0.630453 1.259699,1.013463 3.35252,0.870654 4.259689,-0.547254 1.197589,-1.55625 1.480411,-3.820867 0.497127,-5.535062 -0.126029,-0.255223 -0.922497,-0.628713 -0.609265,-0.08682 0.673313,1.36227 -0.479713,2.949206 -1.880506,3.154846 -0.974209,0.239345 -1.954928,-0.153865 -2.720247,-0.740006 -1.455959,-0.742027 -3.371921,-0.636472 -4.564579,0.567924 -0.79476,0.44244 -1.57768,-0.845531 -0.902271,-1.398364 1.743138,-2.852733 5.082414,-3.964864 7.504452,-6.083867 2.761433,-2.40567 3.858754,-6.458529 2.907316,-9.945129 -0.441228,-1.903881 -2.002693,-3.399244 -3.869532,-3.903638 -0.779639,-0.252512 -1.571389,-0.317382 -2.373498,-0.324528 z m 33.866667,0 c -0.26737,-0.0024 -0.536021,0.0016 -0.805636,0.0072 -3.169017,0.157813 -6.081768,3.091657 -5.870959,6.329329 -0.0935,1.564049 0.429899,3.531227 2.095479,4.092774 0.741658,0.221363 1.745972,-0.01899 2.0314,-0.810804 -0.760511,-0.6495 -1.292994,-1.536749 -1.344104,-2.549715 -0.327868,-2.112384 0.600521,-4.735115 2.80138,-5.408972 1.434399,-0.432538 3.028325,0.314682 3.702616,1.634009 1.730176,2.697578 0.790845,6.548524 -1.730644,8.422225 -2.474367,2.152646 -5.86694,3.419833 -7.460009,6.460071 -1.192988,2.206836 -1.36957,5.034669 0.04651,7.184574 0.536249,-0.25835 0.738469,-0.925484 1.317232,-1.149284 2.053336,-1.545331 5.237874,-1.291254 6.96805,0.630453 1.259701,1.013463 3.35252,0.870654 4.259688,-0.547254 1.19759,-1.55625 1.480412,-3.820867 0.497127,-5.535062 -0.126027,-0.255223 -0.922495,-0.628713 -0.609265,-0.08682 0.673315,1.36227 -0.479709,2.949206 -1.880505,3.154846 -0.974208,0.239345 -1.954928,-0.153865 -2.720247,-0.740006 -1.455957,-0.742027 -3.371919,-0.636472 -4.56458,0.567924 -0.794758,0.44244 -1.57768,-0.845531 -0.90227,-1.398364 1.743139,-2.852733 5.082414,-3.964864 7.504451,-6.083867 2.761433,-2.40567 3.858754,-6.458529 2.907316,-9.945129 -0.441226,-1.903881 -2.002685,-3.399244 -3.869531,-3.903638 -0.77964,-0.252512 -1.571386,-0.317382 -2.373498,-0.324528 z m -17.077511,1.219047 c 0.05086,-0.0025 0.102099,-0.0025 0.153479,0.001 1.642053,0.534664 2.175514,2.342881 2.535246,3.84731 1.271405,5.528608 1.225407,11.453044 -0.763778,16.813961 -0.428743,0.963682 -1.523776,2.006887 -2.625163,1.401465 C 51.700838,68.75641 51.44502,66.912849 51.005672,65.42443 50.175963,61.600901 50.2731,57.613626 50.674426,53.760026 c 0.316761,-2.052782 0.779616,-4.222169 2.194182,-5.810498 0.284519,-0.209099 0.625284,-0.366599 0.981335,-0.383956 z" /></svg>
