<?xml version="1.0" encoding="UTF-8" standalone="no"?>
<!-- Created with Inkscape (http://www.inkscape.org/) -->

<svg
   width="602.93787mm"
   height="353.4472mm"
   viewBox="0 0 602.93788 353.44719"
   version="1.1"
   id="svg1"
   xml:space="preserve"
   inkscape:version="1.3 (0e150ed, 2023-07-21)"
   sodipodi:docname="bbff24-paint-deets.svg"
   inkscape:export-filename="bbff24-paint-date.svg"
   inkscape:export-xdpi="300"
   inkscape:export-ydpi="300"
   xmlns:inkscape="http://www.inkscape.org/namespaces/inkscape"
   xmlns:sodipodi="http://sodipodi.sourceforge.net/DTD/sodipodi-0.dtd"
   xmlns:xlink="http://www.w3.org/1999/xlink"
   xmlns="http://www.w3.org/2000/svg"
   xmlns:svg="http://www.w3.org/2000/svg"><sodipodi:namedview
     id="namedview1"
     pagecolor="#ffffff"
     bordercolor="#000000"
     borderopacity="0.25"
     inkscape:showpageshadow="2"
     inkscape:pageopacity="0.0"
     inkscape:pagecheckerboard="0"
     inkscape:deskcolor="#d1d1d1"
     inkscape:document-units="mm"
     inkscape:zoom="0.10149539"
     inkscape:cx="-5241.6174"
     inkscape:cy="1379.373"
     inkscape:window-width="1888"
     inkscape:window-height="1027"
     inkscape:window-x="0"
     inkscape:window-y="25"
     inkscape:window-maximized="0"
     inkscape:current-layer="g4" /><defs
     id="defs1"><linearGradient
       id="linearGradient71"
       inkscape:collect="always"><stop
         style="stop-color:#00255c;stop-opacity:1;"
         offset="0"
         id="stop71" /><stop
         style="stop-color:#000029;stop-opacity:1;"
         offset="1"
         id="stop72" /></linearGradient><radialGradient
       inkscape:collect="always"
       xlink:href="#linearGradient71"
       id="radialGradient72"
       cx="-1306.3488"
       cy="-80.288345"
       fx="-1306.3488"
       fy="-80.288345"
       r="294.45432"
       gradientTransform="matrix(1,0,0,0.3885532,0,-49.092051)"
       gradientUnits="userSpaceOnUse" /><filter
       inkscape:collect="always"
       style="color-interpolation-filters:sRGB"
       id="filter72"
       x="-0.011912647"
       y="-0.030667095"
       width="1.0238224"
       height="1.0613185"><feGaussianBlur
         inkscape:collect="always"
         stdDeviation="2.7511398"
         id="feGaussianBlur72" /></filter></defs><g
     inkscape:groupmode="layer"
     id="g4"
     inkscape:label="date copy"
     transform="matrix(1,0,0,1.4553934,1607.8185,293.57733)"
     style="display:inline;stroke-width:0.828915"><path
       id="path72"
       style="display:inline;mix-blend-mode:normal;fill:none;fill-opacity:1;stroke:#00aaff;stroke-width:0.828915;stroke-opacity:1;filter:url(#filter72)"
       inkscape:label="SPLAT"
       d="m -1062.5186,-194.69908 c -0.8799,-0.0251 -4.0101,1.06146 -6.9531,2.38493 -4.8394,2.17585 -5.5126,2.22405 -7.0259,0.509 -2.2644,-2.56636 -4.32,-2.41497 -6.5076,0.4784 -1.5501,2.05007 -1.6696,3.0719 -0.7865,6.74129 1.1171,4.64225 1.2009,4.52253 -4.066,5.8621 -1.7004,0.43249 -3.1401,1.85767 -3.7294,3.69288 -1.2737,3.96648 -3.1427,3.74516 -5.7527,-0.68029 -1.5061,-2.55374 -2.6579,-3.40244 -3.8798,-2.86033 -2.3352,1.03609 -4.2934,4.17857 -3.7729,6.05428 0.5292,1.90734 -1.9277,1.94511 -4.3243,0.0664 -0.9941,-0.77926 -2.9743,-1.07523 -4.4003,-0.6579 -2.0376,0.59626 -0.1026,-6.88028 -0.6468,-3.31715 -0.3808,2.49383 -1.3496,5.78345 -2.1523,7.31073 -1.4348,2.72975 -1.7402,2.77029 -18.0114,2.38381 -20.2995,-0.4822 -19.0297,-0.58232 -19.0489,1.50611 -0.033,3.55632 2.2233,-3.72542 -3.283,-3.80137 -3.4503,-0.0476 -5.7901,0.57418 -6.8259,1.81397 -2.5147,3.01021 -1.9161,3.85461 3.423,4.82881 3.8594,0.70417 4.884,1.32864 4.4385,2.7036 -0.3185,0.98314 -0.5876,2.70111 -0.5979,3.81863 -0.026,2.80911 -5.4151,4.57549 -14.4776,4.7441 -7.278,0.13539 -7.438,0.0758 -6.1919,-2.30694 1.7047,-3.25955 0.1269,-5.21885 -4.8183,-5.9845 -4.4391,-0.6872 -5.1159,-0.68313 -16.6331,0.0948 -17.1391,1.15771 -35.7184,1.11266 -37.5135,-0.091 -3.0593,-2.05137 -11.458,-2.79384 -29.9062,-2.6439 -12.1171,0.0985 -22.8956,0.0222 -25.785,-0.18248 -1.6355,-0.11589 -10.8306,-0.63301 -20.4333,-1.14935 -16.7255,-0.89939 -17.4824,-0.83944 -17.9876,1.42102 -0.5917,2.6572 -5.4069,3.5708 -18.8242,3.57383 -8.1785,0.002 -10.8463,-1.73571 -5.8322,-3.79848 2.9864,-1.22851 3.015,-1.31423 1.5813,-4.80417 -1.0256,-2.49714 -2.2023,-3.56379 -3.9584,-3.58801 -2.3018,-0.0317 -2.446,-0.35708 -1.8319,-4.13061 0.5529,-3.3962 0.2795,-4.43631 -1.5989,-6.086 -2.035,-1.7872 -2.3546,-1.80011 -3.1409,-0.12464 -0.534,1.13795 -0.4449,2.5149 0.2279,3.53055 0.7588,1.14587 0.7752,1.90592 0.056,2.43754 -1.9333,1.42622 -1.1396,4.2707 1.2009,4.303 2.4784,0.0343 4.6429,2.1151 4.6214,4.44332 -0.017,1.84316 -3.4975,0.77594 -5.0343,-1.54379 -0.6811,-1.02804 -3.0392,-1.7326 -5.9355,-1.77256 -3.7471,-0.0517 -4.6836,-0.44543 -4.2494,-1.78561 0.3063,-0.94541 0.058,-2.89268 -0.5529,-4.32801 -0.8434,-1.98282 -1.8697,-2.53036 -4.2711,-2.27894 -2.7614,0.28917 -3.204,0.82634 -3.5067,4.26345 -0.2835,3.21679 0.1063,4.19419 2.1414,5.36356 2.0272,1.16471 2.3019,1.84446 1.4816,3.67122 -0.7274,1.61977 -2.1239,2.22762 -5.0312,2.18752 -3.1681,-0.0437 -4.1381,0.45132 -4.5569,2.32559 -0.2927,1.30956 -1.3113,2.6725 -2.2639,3.02826 -0.9525,0.35571 -2.2493,1.99477 -2.881,3.64287 -1.3676,3.56778 -3.2521,3.79895 -5.5087,0.67618 -1.771,-2.45084 -2.1397,-7.26385 -0.9679,-12.63549 0.8273,-3.79236 -0.7363,-6.98537 -3.439,-7.02265 -0.9573,-0.0131 -2.3102,-0.88358 -3.006,-1.93414 -0.7557,-1.14055 -2.4962,-1.80006 -4.3212,-1.63671 -1.6808,0.15044 -4.2566,-0.47588 -5.7237,-1.39193 -3.1603,-1.97325 -7.0553,-0.51649 -12.0427,4.50714 -1.6734,1.68487 -3.1913,2.52418 -3.3729,1.86472 -0.9815,-3.56273 -2.1691,-4.5485 -4.6157,-3.83244 -3.2933,0.96376 -4.5605,5.94261 -2.3064,9.06203 0.8718,1.20645 1.5802,2.77542 1.5736,3.48614 -0.013,1.4107 2.2448,2.79751 4.6074,2.83011 1.5203,0.0209 5.149,4.64558 5.1909,6.6159 0.039,1.84203 -3.3534,4.25883 -5.9846,4.26308 -1.3788,0.002 -3.5097,0.84369 -4.7356,1.86995 -1.8979,1.58888 -2.7472,1.62857 -5.718,0.26681 -2.7228,-1.24807 -3.9089,-1.28645 -5.4002,-0.17464 -1.0912,0.81359 -2.1459,0.94687 -2.4588,0.31123 -0.3013,-0.61218 -0.091,-1.44957 0.4667,-1.86138 0.5582,-0.41176 1.0275,-2.06565 1.0423,-3.6757 0.024,-2.62083 0.4159,-2.89438 3.7429,-2.6092 3.1467,0.26971 3.7677,-0.087 4.0494,-2.32708 0.3651,-2.90381 -2.9009,-5.93051 -5.2493,-4.86425 -0.7701,0.34968 -1.6096,-0.36235 -1.9265,-1.63373 -0.7142,-2.86679 -4.8483,-4.23623 -7.5629,-2.50545 -1.1456,0.73175 -3.1604,1.06376 -4.4731,0.73775 -1.3125,-0.32603 -2.6289,-0.12433 -2.9249,0.44742 -0.2959,0.57178 -1.7329,0.28003 -3.1936,-0.64781 -1.4607,-0.92788 -3.2159,-1.45092 -3.9005,-1.16242 -1.9421,0.81851 -1.5012,4.9484 0.6852,6.41999 1.379,0.92818 1.9593,2.57031 1.9327,5.46281 -0.021,2.27429 -0.4272,4.4219 -0.9028,4.77283 -0.4758,0.35088 -2.9023,-1.69987 -5.3929,-4.55676 -10.3539,-11.87674 -10.3041,-11.83726 -13.516,-10.75733 -1.6404,0.55157 -4.5399,2.1518 -6.442,3.55555 -3.2425,2.39213 -3.4596,2.41277 -3.4545,0.32839 0.01,-3.4366 -1.1446,-4.89559 -4.6421,-5.87517 -4.0607,-1.13741 -4.2915,1.10405 -0.8692,8.44182 2.1813,4.67695 2.255,5.33512 0.8645,7.70817 -1.8652,3.18332 -4.3596,3.27268 -7.4512,0.26532 -3.4892,-3.39402 -7.607,-4.09215 -8.3292,-1.41169 -0.6383,2.36928 -5.5957,4.7516 -9.4733,4.55228 -1.344,-0.0691 -4.5911,0.0633 -7.2141,0.29369 -3.9223,0.34443 -4.9465,0.004 -5.7603,-1.90913 -0.8318,-1.95532 -1.6523,-2.2013 -5.1372,-1.54194 -2.2813,0.43162 -5.36,1.52282 -6.8414,2.42522 -4.0319,2.45603 -6.101,1.97555 -8.7556,-2.03414 -3.033,-4.58104 -5.8587,-4.93565 -5.8973,-0.74 -0.043,4.64052 -2.822,3.79925 -3.1523,-0.95419 -0.2197,-3.16343 -0.7674,-4.04015 -2.7497,-4.39928 -1.3615,-0.24664 -3.1846,-1.24095 -4.0514,-2.2099 -1.7806,-1.99039 -4.8439,-1.12531 -4.8669,1.37437 -0.023,2.47719 3.3705,4.40394 4.7816,2.71481 0.8734,-1.04551 1.1514,-0.74778 1.1333,1.2154 -0.013,1.42973 0.4576,2.97369 1.0464,3.43055 0.771,0.59814 0.767,1.19552 -0.02,2.13527 -0.5997,0.71779 -1.1017,2.59412 -1.1162,4.16941 -0.016,1.72214 -0.446,2.53942 -1.0785,2.0487 -0.5789,-0.44886 -0.8052,-1.578 -0.5038,-2.50807 1.5561,-4.80253 -6.298,3.08409 -9.5922,9.63447 -0.9749,1.93729 2.0282,9.20569 3.8137,9.23032 1.1447,0.0159 1.3334,0.91418 0.8175,3.89737 -0.3688,2.13227 -1.1237,4.21172 -1.6774,4.62021 -1.0596,0.78175 0.2898,28.957689 2.0324,33.698979 0.6428,1.748619 0.4491,3.539938 -0.6552,6.06287 -0.862,1.969374 -1.5793,4.263509 -1.587,5.098229 -0.01,0.834718 -0.681,1.508295 -1.4888,1.497152 -0.8077,-0.01115 -1.7489,1.478863 -2.0914,3.310751 -0.3425,1.831892 -1.0304,28.157816 -1.5291,29.48666 -0.4985,1.32884 -1.0497,4.326696 -1.2242,6.661806 -0.3076,4.115287 -0.4311,4.232611 -4.0199,3.799975 -3.1731,-0.382519 -3.873,-6.22e-4 -4.8984,2.674499 -1.8321,4.779321 0.3915,9.194564 4.6607,9.253461 3.4579,0.04771 5.345,-2.43473 5.3878,-7.090576 0.023,-2.459808 0.034,-2.460026 3.5657,0.158224 2.9281,2.171517 3.268,2.809903 1.9502,3.689144 -2.5174,1.679502 -1.8825,3.367827 1.2837,3.411507 1.6454,0.0227 4.1616,1.370074 5.8182,3.115957 3.5528,3.7445751 4.8271,3.8444581 7.7081,0.604906 1.9838,-2.230843 2.9454,-2.40172 8.756,-1.558725 6.2087,0.900776 6.5283,1.102801 6.5144,4.1440371 -0.018,4.0897171 0.8573,5.7033225 3.7119,6.8379407 1.5501,0.6160974 2.8817,0.2756396 4.1057,-1.0500963 1.7095,-1.8515998 1.8469,-1.7216473 2.4257,2.30618163 0.5332,3.70986707 1.075,4.38139937 4.1398,5.12920187 3.0001,0.7319801 3.891,0.3888354 5.9738,-2.2998378 1.7011,-2.19592877 3.4587,-3.14654797 5.7583,-3.11483797 1.8201,0.025108 3.8565,-0.74343353 4.5253,-1.70761933 1.811,-2.6112218 12.2918,-1.4830345 18.2226,1.96137393 3.5006,2.03307597 4.4921,3.14051507 3.6815,4.11082487 -1.9241,2.3032469 -1.2558,6.6410413 1.4309,9.2889113 4.5108,4.445842 6.286,2.932032 6.3629,-5.4258704 0.027,-2.9183176 -0.4861,-4.4035416 -1.6908,-4.8978373 -0.9511,-0.3901704 -2.3932,-0.9731863 -3.205,-1.2956413 -1.1419,-0.45368807 -0.9186,-1.08859557 0.986,-2.8066007 1.8417,-1.6612418 2.9235,-1.9096808 4.2953,-0.9862845 2.444,1.64490873 5.4544,0.3668641 3.8546,-1.6363441 -1.9513,-2.4434076 -1.3185,-5.7883856 1.1286,-5.9654727 7.2275,-0.522992 9.4043,1.7842431 7.6383,8.095892 -1.0461,3.7383778 -1.6183,4.332491 -3.867,4.0175327 -2.0426,-0.2860734 -2.7128,0.2125151 -2.9636,2.2039335 -0.3373,2.6780341 2.218,4.9231044 3.2763,2.8786222 0.953,-1.8411225 3.3734,-1.3044517 5.5459,1.2299636 2.9963,3.49564 5.3206,3.830364 9.2377,1.3292264 1.9407,-1.2393174 4.1618,-2.2448443 4.9361,-2.2341601 0.7743,0.010699 2.9055,-2.2824355 4.7361,-5.0956167 1.8305,-2.81313387 3.7902,-5.5098265 4.3543,-5.9927139 1.7139,-1.4691846 3.5053,-0.9861621 3.4876,0.940758 -0.01,1.0016519 0.4303,1.82734583 0.9757,1.83486983 0.5454,0.00746 0.9962,-0.50046423 1.002,-1.12883503 0.01,-0.6283823 -0.4326,-1.4866494 -0.9741,-1.9068913 -1.2524,-0.9716601 -1.257,-5.4820151 -5e-4,-5.4646801 0.5172,0.007 2.1622,1.431699 3.6556,3.164842 2.3925,2.776658 3.2703,3.0653529 7.3809,2.4308202 2.7782,-0.4288177 5.4893,-0.1665924 6.7009,0.6489402 1.6795,1.1304206 2.2576,0.9437461 3.3104,-1.0691279 1.7071,-3.2644415 3.9345,-3.0412605 6.7205,0.6724497 1.2698,1.6926083 3.4172,3.08319173 4.7914,3.10215023 1.3697,0.018897 3.4709,1.1870481 4.669,2.59650687 1.7918,2.1079432 2.5512,2.3249627 4.2804,1.2225002 1.7825,-1.1364826 1.933,-1.7389703 0.9885,-3.95931837 -0.9605,-2.25803513 -0.7236,-3.02104263 1.7219,-5.53819413 2.8359,-2.919139 2.8359,-2.91842 23.8905,-2.065116 17.5216,0.710091 21.4785,1.201055 23.581,2.929374 2.3296,1.9150355 2.7176,1.9275988 4.9801,0.157104 1.3495,-1.056122 2.8741,-1.594004 3.3879,-1.195259 0.514,0.398706 6.4365,1.6044295 13.1609,2.6789771 11.6954,1.8691962 12.2943,1.8563559 13.809,-0.289952 1.0074,-1.4282831 3.1786,-2.3479191 5.9743,-2.5312021 7.6145,-0.499181 15.5407,2.7365777 11.3569,4.636246 -4.3343,1.96799003 1.5664,2.76329043 22.8183,3.0749088 0.4979,0.0073 0.7208,0.033577 1.2066,0.041795 0.2537,0.5518616 0.5603,0.9437435 0.9364,1.2725048 1.0048,0.8785438 2.4124,1.3134135 3.1275,0.9661334 0.7149,-0.3472801 1.5139,0.1751339 1.7751,1.162047 1.697,6.4125569 1.5347,6.2194289 3.0463,3.644364 0.7699,-1.3112965 1.1442,-3.3319135 0.832,-4.4907104 -0.214,-0.7941682 -0.087,-1.5431753 0.2842,-2.2080384 1.3558,0.05516 3.1126,0.083289 4.2974,0.1488943 0.8033,1.906345 0.7085,3.8468948 -0.4299,8.2765054 -0.8347,3.247417 -1.4957,7.167834 -1.4697,8.71162 0.048,2.806927 0.048,2.806837 1.9596,-0.255247 1.0511,-1.684142 1.9089,-4.2536 1.9089,-5.709852 0,-1.809555 0.7031,-2.781533 2.2257,-3.0704312 1.7126,-0.3253809 2.1634,-1.1193607 1.9487,-3.4506897 -0.1941,-2.1079989 -0.01,-2.5318879 0.6062,-1.3945309 0.7308,1.3488489 1.3278,1.2693027 3.4261,-0.4556388 0.674,-0.5540656 1.2873,-0.9300812 1.8361,-1.1504787 0.897,0.3361972 1.6662,0.5403755 2.3301,0.5720674 0.2941,0.4927948 0.4718,1.1896997 0.4806,2.1412412 0.011,1.1625647 0.4404,2.6270527 0.9549,3.254403 1.1553,1.4085957 -0.5275,4.4579637 -3.593,6.5117917 -1.2199,0.817247 -2.213,2.223491 -2.203,3.123794 0.038,4.183332 7.624,2.215307 11.2851,-2.927507 2.0212,-2.839326 5.1186,-3.519463 5.7557,-1.264295 0.2182,0.772062 -0.6102,2.764939 -1.8412,4.42839 -2.6646,3.600555 -2.1596,5.147246 1.6635,5.094498 1.6706,-0.02305 3.0661,0.751054 3.4416,1.909877 0.5059,1.561299 0.9176,1.65272 2.0666,0.458251 1.1444,-1.189691 1.7773,-1.08167 3.129,0.536242 1.5906,1.904009 -1.0699,-12.042514 -3.0072,-12.403656 -2.2236,-0.414508 -7.1455,4.520052 -7.1215,7.139833 0.042,4.555971 9.6865,3.278296 12.5697,-1.665077 1.3087,-2.243908 4.2615,-1.577305 4.2845,0.967252 0.01,0.880803 2.1736,4.146949 4.8121,7.257756 4.4491,5.247994 5.155,5.646181 9.7214,5.516923 2.708,-0.07664 5.3146,-1.15533 6.4022,-1.15533 h 5e-4 c 1.0876,0 3.1573,-1.924071 5.2095,-3.034232 3.9244,-2.123294 5.5553,-5.048012 3.9114,-7.015943 -0.5382,-0.644232 -3.6991,-1.288355 -7.0249,-1.431102 -5.5741,-0.239322 -9.163,-1.937013 -9.185,-4.345547 -0.01,-0.53864 2.5345,-1.922994 5.6431,-3.076028 3.8062,-1.411783 9.319,10.585885 11.4403,7.769276 1.957,-2.598508 4.092,-4.195491 5.6373,-4.216805 1.368,-0.01887 2.7584,-0.585522 3.0893,-1.25795 0.3288,-0.672378 2.0497,-1.242121 3.8194,-1.266535 2.7356,-0.03774 8.8051,-2.97645 15.6745,-7.5909947 2.9966,-2.0123643 4.5674,-1.3275573 4.9263,2.1460924 0.3119,3.0191903 0.7668,3.3640793 4.8105,3.6525743 4.3167,0.307967 4.8161,-1.478035 0.6698,-2.396116 -3.9676,-0.8784532 -1.8605,-2.8466323 3.4933,-3.2626125 3.5079,-0.2725189 5.7008,0.047933 5.7107,0.8325391 0.01,0.701116 1.4846,1.2540517 3.2846,1.2292172 1.8,-0.02483 3.8138,0.6033292 4.4757,1.3956502 0.936,1.12043 1.465,1.113106 2.3802,-0.03284 0.6471,-0.810376 1.8682,-1.4863227 2.7135,-1.5020033 0.8455,-0.01576 2.6468,-0.7564957 4.0024,-1.6456733 1.4288,-0.9372062 6.4891,-1.7747752 12.0411,-1.9927201 2.7584,-0.1082769 4.6501,-0.1644964 6.0343,-0.1421773 0.9445,0.6495081 1.9988,1.2122608 3.1207,1.724412 -0.024,0.16284 -0.042,0.3167721 -0.081,0.5086287 -0.2765,1.3568479 -0.8922,2.7699503 -1.3684,3.1394673 -1.1482,0.890797 -1.0889,2.809403 -0.201,4.464589 -0.093,0.0048 -0.1607,0.02547 -0.2543,0.02948 -3.3258,0.142746 -6.4867,0.786865 -7.0249,1.431101 -1.6439,1.96794 -0.013,4.892641 3.9114,7.015943 1.2736,0.688956 2.5258,1.64951 3.574,2.311033 -0.4315,0.449675 -0.7291,0.874949 -0.7261,1.190407 0.01,1.043929 5.7491,1.293058 8.2155,0.629536 0.1853,0.01413 0.3621,0.05331 0.5488,0.05858 4.5664,0.129258 5.2723,-0.268908 9.7214,-5.516923 2.001,-2.35923 3.4042,-4.478761 4.1264,-5.908378 0.7543,0.286358 1.2995,0.664183 1.4624,1.166898 0.3232,0.997321 1.8288,1.816091 3.346,1.818824 1.5173,0.0027 3.8293,0.712502 5.1377,1.57701 1.3677,0.903664 3.773,1.209527 7.2823,1.006063 -0.39,-1.112709 -0.8077,-2.220297 -1.171,-3.337994 -0.056,-0.16874 -0.1134,-0.337302 -0.1695,-0.506016 0.993,-0.438331 1.6414,-1.211254 1.6521,-2.376338 0.016,-1.805816 -2.3171,-4.620342 -4.4969,-6.1158591 -0.4414,-1.3247972 -0.8699,-2.6515568 -1.2966,-3.9787232 0.4503,-0.051314 0.882,0.2022023 1.432,0.7739515 1.149,1.1944733 1.5606,1.1030548 2.0665,-0.4582509 0.3755,-1.1588284 1.7711,-1.9329246 3.4417,-1.9098767 3.8231,0.052748 4.328,-1.4939285 1.6634,-5.09449717 -1.231,-1.66345833 -2.0594,-3.65632593 -1.8412,-4.42839133 0.6371,-2.255176 3.7345,-1.575041 5.7557,1.2642951 3.6611,5.1428349 11.2466,7.1108566 11.2851,2.9275074 0.01,-0.9003075 -0.983,-2.3065442 -2.2029,-3.123794 -3.0655,-2.0538365 -4.7484,-5.1031875 -3.5931,-6.5117906 0.5145,-0.627351 0.9443,-2.091835 0.955,-3.254404 0.03,-3.254416 1.8461,-3.865131 4.6467,-1.562829 2.0983,1.72495 2.6954,1.804492 3.4262,0.455638 0.6165,-1.137361 0.8002,-0.713476 0.6061,1.394531 -0.2147,2.331338 0.2358,3.125305 1.9487,3.45069 1.5226,0.2888981 2.2274,1.2608681 2.2258,3.0704311 0,1.456256 0.8578,4.0257027 1.9089,5.7098516 1.9115,3.0620962 1.9118,3.0621856 1.9596,0.2552473 0.026,-1.5437922 -0.635,-5.4641899 -1.4697,-8.7116199 -1.1712,-4.5571971 -1.2573,-6.4840991 -0.3767,-8.4451771 0.9383,-2.089415 1.4921,-2.305071 3.1181,-1.210559 1.2598,0.847918 1.7719,2.096067 1.4103,3.438375 -0.3122,1.158801 0.062,3.179409 0.8319,4.49071 1.5116,2.5750741 1.3494,2.7682181 3.0464,-3.644364 0.2612,-0.986917 1.0602,-1.509327 1.7751,-1.162047 0.7151,0.347281 2.1226,-0.08759 3.1274,-0.966133 1.5082,-1.318426 1.8988,-3.641392 2.2386,-13.300474 0.5166,-14.688305 1.2459,-39.788851 8.5587,-39.687968 4.8911,0.06747 5.4268,-0.175436 5.1837,-2.35656 -0.4082,-3.660811 -6.1324,-9.42139 -8.7995,-8.855663 -1.6095,0.341397 -2.2307,-0.109411 -2.2169,-1.606491 0.01,-1.143911 -1.2537,-3.747704 -2.8092,-5.785978 -3.1606,-4.141329 -3.1368,-25.989781 0.069,-29.825121 1.5247,-1.82506 1.8639,-1.87059 2.3352,-0.31459 0.7815,2.57977 4.9223,1.62943 5.3966,-1.23854 0.5423,-3.2788 -2.4755,-5.85778 -4.9837,-4.2586 -2.5766,1.64278 -4.7491,0.44821 -4.7211,-2.59613 0.025,-2.67654 1.4782,-3.27743 2.5688,-1.06167 0.4748,0.96453 0.9268,0.85033 1.5043,-0.38026 1.3816,-2.94409 -1.9884,-10.71109 -4.6633,-10.748 -2.2715,-0.0313 -6.2043,-3.91272 -6.1841,-6.10317 0.01,-0.6381 1.1449,-3.1574 2.5311,-5.59865 1.3862,-2.44122 2.527,-5.1311 2.5348,-5.97704 0.02,-2.1467 3.7575,-0.75901 7.5065,2.78831 1.6734,1.58255 3.574,2.88496 4.2235,2.89393 2.3427,0.0324 5.9295,-3.75778 6.5831,-6.95587 0.3671,-1.79638 0.8987,-4.18188 1.1808,-5.30123 0.7869,-3.12216 -7.5898,-4.52171 -11.0159,-1.84047 -3.0803,2.41077 -4.4474,1.54589 -4.4075,-2.78831 0.037,-4.02214 -10.2268,3.75601 -13.6881,4.76899 -2.8483,0.83359 2.7953,-6.67417 2.7549,-2.28257 -0.039,4.19779 -3.2149,10.43878 -5.303,10.41924 -2.2328,-0.021 -2.2684,-4.52027 -0.059,-7.44247 2.4412,-3.2286 1.0913,-6.2629 -2.3916,-5.37661 -1.8462,0.46984 -3.2153,0.12798 -3.9528,-0.98516 -1.6615,-2.50824 -9.6987,1.46985 -8.4527,0.55068 0.6091,-0.44936 0.8242,-2.36354 0.5013,-4.4631 -0.331,-2.1524 -2.6376,3.66923 -1.8336,1.88346 1.3696,-3.04999 1.3698,-3.04974 2.4406,1.01725 1.3365,5.07692 8.3782,-2.07962 9.5251,-6.33647 0.3871,-1.43716 -2.4196,5.39178 -3.0128,4.649 -0.5928,-0.7424 -1.0647,-2.79554 -1.0485,-4.56273 0.062,-6.71572 -6.6384,-18.19069 -10.6273,-18.30466 z m -33.3613,3.78916 c -2.327,-0.0321 -3.3492,4.03713 -1.4025,5.58372 2.037,1.61829 3.3152,0.61559 3.345,-2.62263 0.019,-2.118 -0.5207,-2.94148 -1.9425,-2.96109 z m -13.269,0.42392 c -2.4674,-0.0341 -6.1254,3.92267 -6.1505,6.6521 -0.01,1.03356 1.1423,3.22502 2.5595,4.86985 2.5959,3.01263 3.3687,2.97597 6.5728,-0.31682 3.3358,-3.42809 1.2819,-11.14633 -2.9818,-11.20513 z m -20.3981,0.90747 c -0.5872,-0.0123 -1.1841,0.17322 -1.743,0.5911 -1.8012,1.34611 -2.8528,6.61396 -1.9296,9.6617 1.2819,4.23155 7.9506,-0.91519 7.4099,-5.7188 -0.3013,-2.67704 -1.9758,-4.49674 -3.7373,-4.534 z m -232.8379,-3.94615 c -0.6038,0.12072 -0.9885,0.67563 -0.9963,1.52364 -0.01,1.12627 0.8302,1.92181 2.0484,1.93861 2.4167,0.0333 2.1011,-2.80769 -0.3814,-3.43277 -0.2441,-0.0615 -0.4695,-0.0697 -0.6707,-0.0294 z m -55.9966,0.24703 c -3.2986,-0.0455 -4.5175,3.34297 -2.0236,5.62887 2.4893,2.28152 3.8446,1.53266 4.2565,-2.35207 0.2947,-2.77967 -0.023,-3.24632 -2.2329,-3.2768 z m -12.4013,0.30973 c -0.057,0.0145 -0.089,0.0727 -0.089,0.18061 0,0.86333 -2.29,0.60708 -3.6236,2.46441 -2.8779,4.00832 -2.9859,7.03761 -0.3338,9.36691 1.7752,1.55903 2.4036,1.56497 4.9589,0.0481 3.1813,-1.88855 3.5423,-3.4662 1.8588,-8.12836 -0.7222,-2.00005 -2.3701,-4.03314 -2.7709,-3.9317 z m 32.5954,0.21233 c -0.2139,-0.0555 -0.3364,-0.0105 -0.3364,0.16159 v 3.7e-4 c 0,1.83892 -0.7872,5.65076 1.5203,5.6826 1.0443,0.0144 2.1561,0.8762 2.4707,1.91511 0.6311,2.08315 3.7938,1.95844 3.8132,-0.15039 0.017,-1.87047 -5.9705,-7.2207 -7.4678,-7.60928 z m 26.416,0.12054 c -1.5267,-0.021 -2.8933,0.98583 -3.6406,2.68196 -0.6581,1.4936 -1.745,3.10461 -2.4149,3.57943 -0.6809,0.48219 -1.019,2.22035 -0.7674,3.93656 0.5279,3.60045 2.5332,4.02053 4.3982,0.92172 0.7238,-1.20274 2.1002,-2.53314 3.0587,-2.95587 1.1336,-0.49993 1.7546,-2.05535 1.7767,-4.44928 0.029,-3.10244 -0.3502,-3.68609 -2.4107,-3.71452 z m -102.7038,1.61917 c -0.8182,-0.0112 -1.6417,1.20725 -1.8299,2.70734 -0.2632,2.09916 0.1466,2.73406 1.7792,2.75659 1.6327,0.0225 2.0544,-0.60146 1.8299,-2.70733 -0.1604,-1.50492 -0.961,-2.74532 -1.7792,-2.7566 z m 278.6956,0.80903 c -1.1019,-0.0152 -1.9906,0.78203 -1.9999,1.79382 -0.01,1.01177 0.8649,1.8331 1.9668,1.84831 1.1019,0.0152 1.9911,-0.78132 2.0004,-1.79308 0.01,-1.01181 -0.8654,-1.83385 -1.9673,-1.84905 z m -15.1153,0.14293 c -2.1358,0.38902 -3.6393,3.57437 -2.4216,7.59622 0.8098,2.67359 5.305,2.19368 6.6068,-0.70529 0.9035,-2.01195 0.7822,-2.99441 -0.6087,-4.91911 -0.8474,-1.17274 -1.7625,-1.78998 -2.6288,-1.96138 -0.3248,-0.0643 -0.6426,-0.066 -0.9477,-0.0105 z m -142.3665,0.14777 c -1.2262,-0.0776 -1.4355,1.85089 -0.3582,5.16764 0.6998,2.15471 1.4812,5.42396 1.7364,7.2641 0.4243,3.05721 2.0662,4.35762 3.4339,2.7204 1.0676,-1.278 -1.6034,-13.07473 -3.2567,-14.38341 -0.6249,-0.4946 -1.1466,-0.74285 -1.5554,-0.76873 z m -133.5294,4.19479 c -1.8423,-0.0254 -2.9722,1.93901 -2.1161,3.67832 0.8807,1.78934 2.8701,0.79575 3.2789,-1.63746 0.1962,-1.16859 -0.2939,-2.02887 -1.1628,-2.04086 z m 462.1956,11.0789 c -1.4206,-0.31484 -2.8778,0.92619 -2.3384,2.7066 0.6546,2.16117 1.2619,2.29403 3.3331,0.73066 1.1407,-0.86106 1.2202,-1.46221 0.3385,-2.56629 -0.3899,-0.48839 -0.8596,-0.76602 -1.3332,-0.87097 z m -474.7338,-10.03776 c -0.5454,-0.007 -0.997,0.5331 -1.0031,1.20085 -0.01,0.66779 0.4356,1.22056 0.9809,1.2281 0.5455,0.007 0.9964,-0.53232 1.0025,-1.20011 0.01,-0.66776 -0.4348,-1.22133 -0.9803,-1.22884 z m 449.4294,11.86629 c -1.549,-0.0214 -2.3019,2.23348 -1.7152,5.13741 0.5423,2.68424 3.7422,2.83281 4.591,0.21308 0.7214,-2.22604 -0.9434,-5.32388 -2.8758,-5.35049 z m -499.7917,-1.77544 c -5.1108,-0.47901 -6.9175,1.16791 -5.3428,4.86985 1.7076,4.01448 6.3382,3.08359 6.798,-1.36655 0.26,-2.51637 -0.097,-3.37599 -1.4552,-3.5033 z m 159.7153,0.33287 c -1.5688,0.1065 -4.4274,3.23666 -3.7796,4.55266 0.2866,0.58257 1.6105,1.075 2.9419,1.09338 1.7351,0.0239 2.4273,-0.6346 2.4428,-2.32372 0.012,-1.29612 -0.4495,-2.72185 -1.0253,-3.16858 -0.1576,-0.12229 -0.3556,-0.16892 -0.5798,-0.15374 z m -139.0313,0.22801 c -0.2182,-0.0313 -0.4898,-0.008 -0.818,0.0642 -0.9999,0.22149 -1.9847,1.40036 -2.188,2.61927 -0.2671,1.60049 0.1355,2.10443 1.4485,1.8136 1,-0.22149 1.9845,-1.40068 2.1879,-2.61964 0.2004,-1.20037 0.024,-1.78345 -0.6304,-1.87741 z m 14.6441,0.10446 c -0.3155,0.24604 -0.9482,1.50983 -0.9617,2.98834 -0.024,2.62846 0.3722,3.14028 2.2055,2.84727 1.4669,-0.23445 2.2425,-1.19188 2.2572,-2.78571 0.015,-1.59382 -0.7434,-2.5724 -2.2055,-2.84727 -0.4569,-0.0859 -1.1204,0.15241 -1.1204,-0.0795 0,-0.17394 -0.07,-0.20516 -0.1751,-0.12315 z m 265.6096,1.70874 c 0,0.22836 -0.5754,-0.0396 -0.8356,0.15225 -0.5202,0.38375 -0.6897,1.21882 -0.3762,1.85577 0.3135,0.63694 0.9959,0.84429 1.5162,0.46048 0.5203,-0.38375 0.6891,-1.2188 0.3757,-1.85576 -0.1567,-0.31846 -0.6801,-0.84103 -0.6801,-0.61274 z m -84.0057,1.01987 c -0.8005,0.041 -1.5105,0.23426 -1.9612,0.57132 -1.7207,1.28673 -2.6183,5.50929 -1.7683,8.31532 0.29,0.9572 1.4334,1.75316 2.5414,1.76844 1.9638,0.0271 2.4076,-0.99417 2.1405,-4.92694 -0.072,-1.05745 0.8942,-2.48511 2.1466,-3.17231 2.2662,-1.24341 2.2627,-1.25445 -0.5948,-2.21289 -0.8126,-0.27249 -1.7037,-0.38389 -2.5042,-0.34294 z m -8.5055,0.83926 c -0.8264,-0.0113 -1.4974,1.05902 -1.5099,2.40805 -0.012,1.34903 0.6391,2.43733 1.4655,2.44873 0.8265,0.0114 1.4975,-1.05826 1.51,-2.4073 0.012,-1.34903 -0.6391,-2.43807 -1.4656,-2.44948 z m -105.5796,0.97248 c -0.5133,-0.006 -1.2143,0.52954 -1.5575,1.19264 -0.3432,0.66312 0.071,1.21525 0.9219,1.22698 0.8504,0.0119 1.5509,-0.52485 1.557,-1.19265 0.01,-0.66775 -0.4082,-1.21989 -0.9214,-1.22697 z m 264.3798,1.21801 c -2.8251,-0.039 -4.0614,1.623 -3.2355,4.34928 0.8703,2.87293 4.9756,1.66218 5.3831,-1.58746 0.2768,-2.20705 -0.1329,-2.73403 -2.1476,-2.76182 z m -386.5118,3.45778 c -1.0481,0.0369 -1.9703,1.10636 -1.4304,2.20356 0.3081,0.62597 0.9539,1.14347 1.435,1.15011 1.3889,0.0191 2.1374,-2.15511 1.0361,-3.0096 -0.328,-0.25444 -0.6914,-0.35636 -1.0407,-0.34407 z m 31.644,0.14852 c -1.5588,0.0175 -2.9453,0.82378 -3.3646,2.38082 -0.3585,1.33079 1.7193,4.85716 -0.045,4.85716 h -5e-4 c 0.8541,3.43655 5.818,3.35642 7.8589,-0.12687 1.3998,-2.38822 1.39,-2.85545 -0.052,-4.85792 -1.107,-1.53186 -2.8375,-2.27874 -4.3962,-2.25319 z m -19.251,4.21942 c -0.5089,0.0454 -1.0212,0.45127 -1.7472,1.23519 -0.9643,1.04102 -1.7617,2.86096 -1.7725,4.04402 -0.011,1.18312 0.7589,2.37998 1.711,2.6592 4.3467,1.27504 6.9445,-3.8784 3.5357,-7.01332 -0.713,-0.65551 -1.2182,-0.97048 -1.727,-0.92509 z m -31.3195,1.15272 c -3.6624,-0.0505 -5.3986,3.34223 -3.2396,6.33005 3.0261,4.19056 7.6678,1.64862 6.5954,-3.61376 -0.4,-1.96251 -1.2975,-2.6879 -3.3558,-2.71629 z m 235.676,2.86631 c 1.2457,0.18605 2.3928,1.07912 2.3808,2.38156 -0.01,0.92376 -0.3494,1.60045 -0.7576,1.50387 -5.0758,-1.20086 -5.2861,-1.3452 -4.2101,-2.89654 0.337,-0.48584 0.8171,-0.78666 1.3477,-0.92807 0.3979,-0.10607 0.824,-0.12272 1.2392,-0.0608 z m 10.9988,0.67133 h 5e-4 c 1.9327,-0.0555 4.3801,0.0802 6.8084,0.0802 h 5e-4 c 4.8569,0 9.5932,0.67266 9.8671,1.22921 1.3659,2.77518 -6.9303,4.93884 -10.8763,2.83646 -1.2352,-0.65814 -2.0568,-0.51364 -2.3172,0.40675 -0.673,2.38197 -6.0037,1.61886 -7.1262,-1.02025 -0.6327,-1.48717 -0.6555,-2.63071 -0.053,-3.07303 0.3495,-0.25789 5.6226,-0.54611 3.6959,-0.45937 z m 144.122,1.85427 c 0.5454,0.007 0.9865,0.55956 0.9803,1.22735 -0.01,0.66775 -0.457,1.20838 -1.0025,1.20086 -0.5454,-0.007 -0.987,-0.56035 -0.9809,-1.2281 0.01,-0.6678 0.4577,-1.20763 1.0031,-1.20011 z m 182.7604,2.97602 c 0,0.16876 -0.295,0.33004 -0.2982,0.68365 -0.01,0.70716 0.4348,1.29259 0.9803,1.30012 0.5453,0.007 0.9942,-0.22833 0.9969,-0.52281 0,-0.29448 -0.4382,-0.87841 -0.9798,-1.29863 -0.2708,-0.21012 -0.5186,-0.25691 -0.6992,-0.16233 z m -180.744,3.15999 c 4.1577,0.15381 8.5884,0.73318 10.1043,1.62068 2.8732,1.68204 3.5076,3.38782 1.248,3.35665 -0.7735,-0.0107 -2.0037,0.24538 -2.7332,0.5687 -0.7294,0.32329 -2.6569,-0.2939 -4.2834,-1.37102 -1.936,-1.28198 -4.2169,-1.73273 -6.6038,-1.30534 -4.0005,0.71632 -7.0721,-0.24345 -6.196,-1.936 0.4222,-0.81579 4.3065,-1.08749 8.4641,-0.93367 z m 23.6203,3.93283 c 1.1231,0.0155 2.0394,0.24245 2.037,0.5049 -0.011,1.1518 -2.9846,1.69149 -3.5041,0.63587 -0.3165,-0.64305 0.344,-1.15626 1.4671,-1.14077 z m 155.7057,7.64398 c -0.011,0.0812 -0.021,0.16314 -0.024,0.24555 -10e-5,0.009 0.012,-0.0148 0.013,-0.0243 0.011,-0.0694 0.011,-0.13884 0.012,-0.20861 -3e-4,-0.004 -10e-5,-0.008 0,-0.0127 z m -581.0979,7.33686 c -0.5392,0.005 -0.9784,0.26709 -1.4112,0.78516 -0.8924,1.06823 -0.357,1.3932 2.2515,1.36654 3.2138,-0.0328 3.2848,-0.11835 1.1705,-1.40162 -0.8323,-0.50514 -1.4716,-0.75558 -2.0108,-0.75008 z m 0.4584,8.86948 c -0.2487,-0.0228 -0.4413,0.0229 -0.4413,0.18621 0,0.97967 -3.5801,4.29822 -2.9177,6.4853 0.3216,1.06177 1.0858,1.61081 1.8289,1.44827 5.5346,-1.21056 4.112,-7.02072 2.3094,-7.89625 -0.2257,-0.10959 -0.5306,-0.20077 -0.7793,-0.22353 z m 578.4107,25.889687 c -2.0257,-0.02794 -3.744,4.784711 -2.5642,7.181629 0.9764,1.983996 5.1883,1.594212 5.8813,-0.544453 0.8839,-2.727705 -1.0544,-6.605961 -3.3171,-6.637176 z m -560.0325,4.41757 c 0.885,0.0123 1.6015,0.842168 1.5922,1.843825 -0.01,1.001662 1.1418,4.693944 0.9358,4.691102 -0.2059,-0.0028 -2.2494,-3.707313 -2.9192,-4.718343 -0.9973,-1.505525 -0.9266,-1.834764 0.3912,-1.816584 z m 544.1689,10.674114 c 0.9151,0.11085 1.8498,0.591049 1.8438,1.238919 0,0.262444 -0.9229,0.46404 -2.0459,0.448549 -1.1232,-0.0155 -1.7732,-0.547291 -1.4449,-1.181452 0.1347,-0.260251 0.4202,-0.416101 0.7736,-0.486239 0.2651,-0.0526 0.5683,-0.05673 0.8734,-0.01978 z m 9.432,71.8670391 c -0.3559,-0.05239 -0.7316,-0.05144 -1.1219,0.01082 -2.45,0.390752 -3.5983,3.2610109 -2.6097,6.52485243 0.7685,2.53671057 5.2963,2.24382937 6.4926,-0.4201878 1.2456,-2.77371233 -0.2704,-5.74874063 -2.761,-6.11548663 z m -538.1135,3.9563332 c -1.2149,0.028587 -1.5722,1.1276102 -1.5978,3.90222363 -0.021,2.33101907 0.4219,2.84534337 2.2076,2.55993637 2.9669,-0.474199 3.6707,-5.2320256 0.9106,-6.1565349 -0.6147,-0.205886 -1.1154,-0.3151459 -1.5204,-0.3056251 z m 488.331,1.2665342 c 0.5132,0.00704 1.2054,0.5631576 1.5342,1.23556113 0.3311,0.6724455 -0.093,1.2125906 -0.9441,1.2008564 -0.8496,-0.01175 -1.541,-0.5670314 -1.5348,-1.2348147 0.01,-0.66779193 0.4314,-1.20868223 0.9447,-1.20160283 z m -445.2943,2.35730573 c -1.1019,-0.015145 -1.9906,0.78201267 -1.9999,1.79382127 -0.01,1.0117613 0.8644,1.8327295 1.9663,1.8479307 1.102,0.015145 1.991,-0.7813137 2.0004,-1.7930749 0.01,-1.0118076 -0.8648,-1.83347677 -1.9668,-1.84867707 z m 9.187,1.80128467 c 0.1945,0 -1.1241,1.2572048 -0.2103,1.2572048 h 5e-4 c -0.055,1.2792965 0.1726,1.9997677 0.5059,1.6008932 0.3329,-0.3989197 0.3795,-1.4463114 0.099,-2.326706 -0.1537,-0.4858722 -0.2902,-0.6567177 -0.3954,-0.531392 z m -39.0064,0.00597 c -4.6902,0.059748 -7.2608,7.5810248 -2.7853,11.4958311 2.7973,2.446725 2.8176,2.447862 5.4803,0.21905 1.5428,-1.291587 2.2333,-3.101111 2.2592,-5.9221856 0.031,-3.3907846 -0.4365,-4.2714673 -2.8287,-5.3295934 -0.7422,-0.3282847 -1.4555,-0.4716403 -2.1255,-0.4631021 z m -30.655,1.053828 c 0.8175,0 -1.2255,1.2839048 -0.6475,3.1920838 0.553,1.8255671 0.7906,1.8840796 1.5653,0.387349 0.5507,-1.0644561 0.5561,-2.2236165 -0.01,-2.9211635 -0.3294,-0.4125708 -0.6403,-0.6194106 -0.908,-0.6582693 z m 215.4799,2.3058085 c -0.1946,-0.00999 -0.3578,0.025576 -0.4749,0.1119506 -1.0101,0.7451604 -1.1684,4.588975 -0.2372,5.755006 1.0296,1.289305 1.9577,0.989961 3.405,-1.096743 1.1388,-1.6417883 1.065,-2.1879298 -0.4873,-3.6107789 -0.7545,-0.6915107 -1.6216,-1.1294424 -2.2056,-1.1594347 z m -203.2945,0.8146269 c -0.444,-0.066842 -0.9596,0.2801419 -1.787,1.0034503 -1.2143,1.0616017 -1.6719,2.4158327 -1.2671,3.7518364 0.3894,1.29262 1.4582,1.954513 2.7946,1.732622 2.676,-0.444332 3.2478,-2.215834 1.6175,-5.0109075 -0.5421,-0.9294794 -0.914,-1.4101633 -1.358,-1.4770012 z m 245.4604,0.6022941 c -1.0085,0.12156 -1.8558,1.5177614 -1.8738,3.4678556 -0.012,1.296128 0.5957,2.365554 1.3503,2.375964 1.5981,0.02204 2.8763,-4.4929129 1.5607,-5.5135654 -0.3471,-0.2693839 -0.7011,-0.3707714 -1.0372,-0.3302542 z m -276.612,1.1325666 c -0.4706,0.099002 -0.9227,0.3582664 -1.2904,0.8049246 -0.9153,1.1116274 -0.7599,1.8358814 0.6795,3.1678274 2.083,1.927411 3.5606,1.384696 3.5854,-1.317285 0.017,-1.8114027 -1.563,-2.9524516 -2.9745,-2.655467 z m 199.6823,0.642223 c -1.3293,0.090773 -2.3024,1.241216 -2.3187,3.011843 -0.011,1.208456 0.5354,2.450297 1.2144,2.759582 1.5366,0.699925 3.7313,-1.274647 3.7507,-3.374563 0.01,-0.864237 -0.5415,-1.8178972 -1.2206,-2.1184782 -0.5,-0.2213091 -0.9827,-0.3086413 -1.4258,-0.2783838 z m -108.0321,1.524394 c -1.6443,-0.02269 -4.4085,4.684646 -4.4349,7.551812 -0.011,1.218007 1.3106,3.164101 2.9378,4.324276 1.6272,1.160121 3.2096,3.100521 3.5166,4.312337 0.3903,1.540388 1.3521,2.101263 3.1957,1.865096 3.6821,-0.471685 4.0408,-4.19815 0.7451,-7.745113 -1.4538,-1.564612 -2.33,-3.451319 -1.9466,-4.192177 0.815,-1.574347 -2.1488,-6.090502 -4.0137,-6.116231 z m 117.6383,0.787012 c -0.4158,0 -0.8906,0.09565 -1.418,0.335106 -2.0908,0.949276 -2.0442,3.67956 0.09,5.179951 2.1254,1.495099 3.2382,0.736835 3.2654,-2.224084 0.019,-2.09555 -0.6894,-3.290973 -1.9368,-3.290973 z m 102.3922,1.634105 c -2.4903,0.366744 -4.0067,3.341785 -2.7611,6.115486 1.1963,2.664007 5.7241,2.956888 6.4926,0.420188 0.9886,-3.263829 -0.1596,-6.134102 -2.6096,-6.524852 -0.3903,-0.06226 -0.766,-0.06321 -1.1219,-0.01082 z m -199.7248,0.451161 c -0.4919,0.215986 -1.5902,1.315263 -2.5053,2.410668 -2.2436,2.685541 -2.3898,3.368588 -1.341,6.272964 0.9298,2.575118 1.8647,3.268692 4.4535,3.304408 5.7573,0.07942 7.1061,-8.166979 1.8314,-11.197669 -0.5226,-0.300227 -0.9571,-0.511785 -1.3492,-0.619087 -0.294,-0.08046 -0.8289,0.149312 -0.8289,-0.06008 0,-0.157065 -0.096,-0.183199 -0.2605,-0.111204 z m 366.5311,0.878066 c -0.3443,0.02212 -0.6396,0.138189 -0.8025,0.342195 -0.3259,0.408004 0.2629,0.687353 1.3079,0.620206 1.1547,-0.0742 1.3869,-0.365552 0.5922,-0.742231 -0.3595,-0.170427 -0.7533,-0.242399 -1.0976,-0.22017 z m -331.0123,2.16587 c 0,0.395682 -0.7437,0.955241 -0.7545,2.128926 -0.014,1.564881 0.4799,2.433098 1.2201,2.14236 0.6843,-0.26884 1.2511,-1.217314 1.2593,-2.107655 0.01,-0.890394 -0.5408,-1.854 -1.22,-2.141614 -0.1837,-0.07777 -0.5049,-0.154245 -0.5049,-0.02202 z m 72.1945,1.563202 c -0.5096,-0.0755 -1.0753,0.04391 -1.6526,0.411979 -1.5241,0.971731 -1.7008,1.690097 -0.8862,3.605181 1.2361,2.905873 3.4789,3.144444 4.348,0.462355 0.7367,-2.273396 -0.2807,-4.253039 -1.8092,-4.479515 z m 141.794,0.164568 c 0.5133,-0.007 0.9346,0.533813 0.9446,1.201602 0.01,0.667781 -0.6852,1.223066 -1.5348,1.234816 -0.8511,0.01173 -1.2752,-0.528414 -0.9441,-1.200857 0.3288,-0.672401 1.0211,-1.228519 1.5343,-1.235561 z m -289.9803,0.164567 c -1.8332,0.08114 -3.7926,0.696621 -4.3537,1.368409 -1.4712,1.760947 -0.1392,7.224827 1.8991,7.788401 2.8139,0.778163 6.2562,-2.812381 6.0069,-6.2655 -0.1892,-2.623352 -0.6747,-3.018645 -3.5523,-2.89131 z m 115.4514,0.862766 c -0.7765,-0.07034 -1.6507,0.424151 -2.3993,1.503496 -0.8063,1.162709 -0.7924,1.982268 0.049,3.036845 2.3628,2.958744 5.2963,1.087101 4.1626,-2.655467 -0.3573,-1.179543 -2.5941,-1.884874 -1.8123,-1.884874 z m 322.3581,6.063616 c -0.3615,0.0099 -0.6213,0.48722 -0.6284,1.268027 -0.02,2.132675 0.5725,2.455238 1.4382,0.782907 0.3195,-0.61731 0.1303,-1.471596 -0.4202,-1.898681 -0.1376,-0.106775 -0.2691,-0.15553 -0.3896,-0.152253 z m -135.025,5.836076 c -0.1205,-0.0033 -0.252,0.04548 -0.3896,0.152252 -0.5505,0.427081 -0.7396,1.281376 -0.4201,1.898682 0.8657,1.672327 1.4581,1.349759 1.4381,-0.782907 -0.01,-0.780807 -0.2669,-1.258148 -0.6284,-1.268027 z"
       sodipodi:nodetypes="scssssssssssssssssssssssssssscsssssssscssssscssssssssssssssccsssssssssscssssscsssssssssccssssssssssssssssssscssscssssscsssssssscssssscsssssssssssssssssssssssssccscssssssssssssssssccssscsssssccscsscsssccssscssssssssssccssscsscssscscsssscsssssscccsccsscsccccsssccccccsssssscssssssccccsssssssssssscscssscssscsscsssssscsssssscssscsssscsscsssscsssscssssssssssssssssssssssssscssscssssssscscssssssssssssssssssssssscccccsssssssscsssscscsssssssssssssssssssssssssssscscscssccsssssssssssscccssssscssscssscssssscssssscsccccccccccccscssssssssscsscscccccssscssssssssssscsssscsssssssssssscsssscscsscscsssccccsssssssssscsssssssssscsssssssssssssssscsssssssssssscssssssssscsssssscsssssscscssssssssssscsssssscscscscsssssscs"
       transform="translate(1.2500001e-6)" /><path
       id="path32"
       style="fill:url(#radialGradient72);stroke-width:0.828915"
       inkscape:label="SPLAT"
       d="m -1062.5186,-194.69908 c -0.8799,-0.0251 -4.0101,1.06146 -6.9531,2.38493 -4.8394,2.17585 -5.5126,2.22405 -7.0259,0.509 -2.2644,-2.56636 -4.32,-2.41497 -6.5076,0.4784 -1.5501,2.05007 -1.6696,3.0719 -0.7865,6.74129 1.1171,4.64225 1.2009,4.52253 -4.066,5.8621 -1.7004,0.43249 -3.1401,1.85767 -3.7294,3.69288 -1.2737,3.96648 -3.1427,3.74516 -5.7527,-0.68029 -1.5061,-2.55374 -2.6579,-3.40244 -3.8798,-2.86033 -2.3352,1.03609 -4.2934,4.17857 -3.7729,6.05428 0.5292,1.90734 -1.9277,1.94511 -4.3243,0.0664 -0.9941,-0.77926 -2.9743,-1.07523 -4.4003,-0.6579 -2.0376,0.59626 -0.1026,-6.88028 -0.6468,-3.31715 -0.3808,2.49383 -1.3496,5.78345 -2.1523,7.31073 -1.4348,2.72975 -1.7402,2.77029 -18.0114,2.38381 -20.2995,-0.4822 -19.0297,-0.58232 -19.0489,1.50611 -0.033,3.55632 2.2233,-3.72542 -3.283,-3.80137 -3.4503,-0.0476 -5.7901,0.57418 -6.8259,1.81397 -2.5147,3.01021 -1.9161,3.85461 3.423,4.82881 3.8594,0.70417 4.884,1.32864 4.4385,2.7036 -0.3185,0.98314 -0.5876,2.70111 -0.5979,3.81863 -0.026,2.80911 -5.4151,4.57549 -14.4776,4.7441 -7.278,0.13539 -7.438,0.0758 -6.1919,-2.30694 1.7047,-3.25955 0.1269,-5.21885 -4.8183,-5.9845 -4.4391,-0.6872 -5.1159,-0.68313 -16.6331,0.0948 -17.1391,1.15771 -35.7184,1.11266 -37.5135,-0.091 -3.0593,-2.05137 -11.458,-2.79384 -29.9062,-2.6439 -12.1171,0.0985 -22.8956,0.0222 -25.785,-0.18248 -1.6355,-0.11589 -10.8306,-0.63301 -20.4333,-1.14935 -16.7255,-0.89939 -17.4824,-0.83944 -17.9876,1.42102 -0.5917,2.6572 -5.4069,3.5708 -18.8242,3.57383 -8.1785,0.002 -10.8463,-1.73571 -5.8322,-3.79848 2.9864,-1.22851 3.015,-1.31423 1.5813,-4.80417 -1.0256,-2.49714 -2.2023,-3.56379 -3.9584,-3.58801 -2.3018,-0.0317 -2.446,-0.35708 -1.8319,-4.13061 0.5529,-3.3962 0.2795,-4.43631 -1.5989,-6.086 -2.035,-1.7872 -2.3546,-1.80011 -3.1409,-0.12464 -0.534,1.13795 -0.4449,2.5149 0.2279,3.53055 0.7588,1.14587 0.7752,1.90592 0.056,2.43754 -1.9333,1.42622 -1.1396,4.2707 1.2009,4.303 2.4784,0.0343 4.6429,2.1151 4.6214,4.44332 -0.017,1.84316 -3.4975,0.77594 -5.0343,-1.54379 -0.6811,-1.02804 -3.0392,-1.7326 -5.9355,-1.77256 -3.7471,-0.0517 -4.6836,-0.44543 -4.2494,-1.78561 0.3063,-0.94541 0.058,-2.89268 -0.5529,-4.32801 -0.8434,-1.98282 -1.8697,-2.53036 -4.2711,-2.27894 -2.7614,0.28917 -3.204,0.82634 -3.5067,4.26345 -0.2835,3.21679 0.1063,4.19419 2.1414,5.36356 2.0272,1.16471 2.3019,1.84446 1.4816,3.67122 -0.7274,1.61977 -2.1239,2.22762 -5.0312,2.18752 -3.1681,-0.0437 -4.1381,0.45132 -4.5569,2.32559 -0.2927,1.30956 -1.3113,2.6725 -2.2639,3.02826 -0.9525,0.35571 -2.2493,1.99477 -2.881,3.64287 -1.3676,3.56778 -3.2521,3.79895 -5.5087,0.67618 -1.771,-2.45084 -2.1397,-7.26385 -0.9679,-12.63549 0.8273,-3.79236 -0.7363,-6.98537 -3.439,-7.02265 -0.9573,-0.0131 -2.3102,-0.88358 -3.006,-1.93414 -0.7557,-1.14055 -2.4962,-1.80006 -4.3212,-1.63671 -1.6808,0.15044 -4.2566,-0.47588 -5.7237,-1.39193 -3.1603,-1.97325 -7.0553,-0.51649 -12.0427,4.50714 -1.6734,1.68487 -3.1913,2.52418 -3.3729,1.86472 -0.9815,-3.56273 -2.1691,-4.5485 -4.6157,-3.83244 -3.2933,0.96376 -4.5605,5.94261 -2.3064,9.06203 0.8718,1.20645 1.5802,2.77542 1.5736,3.48614 -0.013,1.4107 2.2448,2.79751 4.6074,2.83011 1.5203,0.0209 5.149,4.64558 5.1909,6.6159 0.039,1.84203 -3.3534,4.25883 -5.9846,4.26308 -1.3788,0.002 -3.5097,0.84369 -4.7356,1.86995 -1.8979,1.58888 -2.7472,1.62857 -5.718,0.26681 -2.7228,-1.24807 -3.9089,-1.28645 -5.4002,-0.17464 -1.0912,0.81359 -2.1459,0.94687 -2.4588,0.31123 -0.3013,-0.61218 -0.091,-1.44957 0.4667,-1.86138 0.5582,-0.41176 1.0275,-2.06565 1.0423,-3.6757 0.024,-2.62083 0.4159,-2.89438 3.7429,-2.6092 3.1467,0.26971 3.7677,-0.087 4.0494,-2.32708 0.3651,-2.90381 -2.9009,-5.93051 -5.2493,-4.86425 -0.7701,0.34968 -1.6096,-0.36235 -1.9265,-1.63373 -0.7142,-2.86679 -4.8483,-4.23623 -7.5629,-2.50545 -1.1456,0.73175 -3.1604,1.06376 -4.4731,0.73775 -1.3125,-0.32603 -2.6289,-0.12433 -2.9249,0.44742 -0.2959,0.57178 -1.7329,0.28003 -3.1936,-0.64781 -1.4607,-0.92788 -3.2159,-1.45092 -3.9005,-1.16242 -1.9421,0.81851 -1.5012,4.9484 0.6852,6.41999 1.379,0.92818 1.9593,2.57031 1.9327,5.46281 -0.021,2.27429 -0.4272,4.4219 -0.9028,4.77283 -0.4758,0.35088 -2.9023,-1.69987 -5.3929,-4.55676 -10.3539,-11.87674 -10.3041,-11.83726 -13.516,-10.75733 -1.6404,0.55157 -4.5399,2.1518 -6.442,3.55555 -3.2425,2.39213 -3.4596,2.41277 -3.4545,0.32839 0.01,-3.4366 -1.1446,-4.89559 -4.6421,-5.87517 -4.0607,-1.13741 -4.2915,1.10405 -0.8692,8.44182 2.1813,4.67695 2.255,5.33512 0.8645,7.70817 -1.8652,3.18332 -4.3596,3.27268 -7.4512,0.26532 -3.4892,-3.39402 -7.607,-4.09215 -8.3292,-1.41169 -0.6383,2.36928 -5.5957,4.7516 -9.4733,4.55228 -1.344,-0.0691 -4.5911,0.0633 -7.2141,0.29369 -3.9223,0.34443 -4.9465,0.004 -5.7603,-1.90913 -0.8318,-1.95532 -1.6523,-2.2013 -5.1372,-1.54194 -2.2813,0.43162 -5.36,1.52282 -6.8414,2.42522 -4.0319,2.45603 -6.101,1.97555 -8.7556,-2.03414 -3.033,-4.58104 -5.8587,-4.93565 -5.8973,-0.74 -0.043,4.64052 -2.822,3.79925 -3.1523,-0.95419 -0.2197,-3.16343 -0.7674,-4.04015 -2.7497,-4.39928 -1.3615,-0.24664 -3.1846,-1.24095 -4.0514,-2.2099 -1.7806,-1.99039 -4.8439,-1.12531 -4.8669,1.37437 -0.023,2.47719 3.3705,4.40394 4.7816,2.71481 0.8734,-1.04551 1.1514,-0.74778 1.1333,1.2154 -0.013,1.42973 0.4576,2.97369 1.0464,3.43055 0.771,0.59814 0.767,1.19552 -0.02,2.13527 -0.5997,0.71779 -1.1017,2.59412 -1.1162,4.16941 -0.016,1.72214 -0.446,2.53942 -1.0785,2.0487 -0.5789,-0.44886 -0.8052,-1.578 -0.5038,-2.50807 1.5561,-4.80253 -6.298,3.08409 -9.5922,9.63447 -0.9749,1.93729 2.0282,9.20569 3.8137,9.23032 1.1447,0.0159 1.3334,0.91418 0.8175,3.89737 -0.3688,2.13227 -1.1237,4.21172 -1.6774,4.62021 -1.0596,0.78175 0.2898,28.957689 2.0324,33.698979 0.6428,1.748619 0.4491,3.539938 -0.6552,6.06287 -0.862,1.969374 -1.5793,4.263509 -1.587,5.098229 -0.01,0.834718 -0.681,1.508295 -1.4888,1.497152 -0.8077,-0.01115 -1.7489,1.478863 -2.0914,3.310751 -0.3425,1.831892 -1.0304,28.157816 -1.5291,29.48666 -0.4985,1.32884 -1.0497,4.326696 -1.2242,6.661806 -0.3076,4.115287 -0.4311,4.232611 -4.0199,3.799975 -3.1731,-0.382519 -3.873,-6.22e-4 -4.8984,2.674499 -1.8321,4.779321 0.3915,9.194564 4.6607,9.253461 3.4579,0.04771 5.345,-2.43473 5.3878,-7.090576 0.023,-2.459808 0.034,-2.460026 3.5657,0.158224 2.9281,2.171517 3.268,2.809903 1.9502,3.689144 -2.5174,1.679502 -1.8825,3.367827 1.2837,3.411507 1.6454,0.0227 4.1616,1.370074 5.8182,3.115957 3.5528,3.7445751 4.8271,3.8444581 7.7081,0.604906 1.9838,-2.230843 2.9454,-2.40172 8.756,-1.558725 6.2087,0.900776 6.5283,1.102801 6.5144,4.1440371 -0.018,4.0897171 0.8573,5.7033225 3.7119,6.8379407 1.5501,0.6160974 2.8817,0.2756396 4.1057,-1.0500963 1.7095,-1.8515998 1.8469,-1.7216473 2.4257,2.30618163 0.5332,3.70986707 1.075,4.38139937 4.1398,5.12920187 3.0001,0.7319801 3.891,0.3888354 5.9738,-2.2998378 1.7011,-2.19592877 3.4587,-3.14654797 5.7583,-3.11483797 1.8201,0.025108 3.8565,-0.74343353 4.5253,-1.70761933 1.811,-2.6112218 12.2918,-1.4830345 18.2226,1.96137393 3.5006,2.03307597 4.4921,3.14051507 3.6815,4.11082487 -1.9241,2.3032469 -1.2558,6.6410413 1.4309,9.2889113 4.5108,4.445842 6.286,2.932032 6.3629,-5.4258704 0.027,-2.9183176 -0.4861,-4.4035416 -1.6908,-4.8978373 -0.9511,-0.3901704 -2.3932,-0.9731863 -3.205,-1.2956413 -1.1419,-0.45368807 -0.9186,-1.08859557 0.986,-2.8066007 1.8417,-1.6612418 2.9235,-1.9096808 4.2953,-0.9862845 2.444,1.64490873 5.4544,0.3668641 3.8546,-1.6363441 -1.9513,-2.4434076 -1.3185,-5.7883856 1.1286,-5.9654727 7.2275,-0.522992 9.4043,1.7842431 7.6383,8.095892 -1.0461,3.7383778 -1.6183,4.332491 -3.867,4.0175327 -2.0426,-0.2860734 -2.7128,0.2125151 -2.9636,2.2039335 -0.3373,2.6780341 2.218,4.9231044 3.2763,2.8786222 0.953,-1.8411225 3.3734,-1.3044517 5.5459,1.2299636 2.9963,3.49564 5.3206,3.830364 9.2377,1.3292264 1.9407,-1.2393174 4.1618,-2.2448443 4.9361,-2.2341601 0.7743,0.010699 2.9055,-2.2824355 4.7361,-5.0956167 1.8305,-2.81313387 3.7902,-5.5098265 4.3543,-5.9927139 1.7139,-1.4691846 3.5053,-0.9861621 3.4876,0.940758 -0.01,1.0016519 0.4303,1.82734583 0.9757,1.83486983 0.5454,0.00746 0.9962,-0.50046423 1.002,-1.12883503 0.01,-0.6283823 -0.4326,-1.4866494 -0.9741,-1.9068913 -1.2524,-0.9716601 -1.257,-5.4820151 -5e-4,-5.4646801 0.5172,0.007 2.1622,1.431699 3.6556,3.164842 2.3925,2.776658 3.2703,3.0653529 7.3809,2.4308202 2.7782,-0.4288177 5.4893,-0.1665924 6.7009,0.6489402 1.6795,1.1304206 2.2576,0.9437461 3.3104,-1.0691279 1.7071,-3.2644415 3.9345,-3.0412605 6.7205,0.6724497 1.2698,1.6926083 3.4172,3.08319173 4.7914,3.10215023 1.3697,0.018897 3.4709,1.1870481 4.669,2.59650687 1.7918,2.1079432 2.5512,2.3249627 4.2804,1.2225002 1.7825,-1.1364826 1.933,-1.7389703 0.9885,-3.95931837 -0.9605,-2.25803513 -0.7236,-3.02104263 1.7219,-5.53819413 2.8359,-2.919139 2.8359,-2.91842 23.8905,-2.065116 17.5216,0.710091 21.4785,1.201055 23.581,2.929374 2.3296,1.9150355 2.7176,1.9275988 4.9801,0.157104 1.3495,-1.056122 2.8741,-1.594004 3.3879,-1.195259 0.514,0.398706 6.4365,1.6044295 13.1609,2.6789771 11.6954,1.8691962 12.2943,1.8563559 13.809,-0.289952 1.0074,-1.4282831 3.1786,-2.3479191 5.9743,-2.5312021 7.6145,-0.499181 15.5407,2.7365777 11.3569,4.636246 -4.3343,1.96799003 1.5664,2.76329043 22.8183,3.0749088 0.4979,0.0073 0.7208,0.033577 1.2066,0.041795 0.2537,0.5518616 0.5603,0.9437435 0.9364,1.2725048 1.0048,0.8785438 2.4124,1.3134135 3.1275,0.9661334 0.7149,-0.3472801 1.5139,0.1751339 1.7751,1.162047 1.697,6.4125569 1.5347,6.2194289 3.0463,3.644364 0.7699,-1.3112965 1.1442,-3.3319135 0.832,-4.4907104 -0.214,-0.7941682 -0.087,-1.5431753 0.2842,-2.2080384 1.3558,0.05516 3.1126,0.083289 4.2974,0.1488943 0.8033,1.906345 0.7085,3.8468948 -0.4299,8.2765054 -0.8347,3.247417 -1.4957,7.167834 -1.4697,8.71162 0.048,2.806927 0.048,2.806837 1.9596,-0.255247 1.0511,-1.684142 1.9089,-4.2536 1.9089,-5.709852 0,-1.809555 0.7031,-2.781533 2.2257,-3.0704312 1.7126,-0.3253809 2.1634,-1.1193607 1.9487,-3.4506897 -0.1941,-2.1079989 -0.01,-2.5318879 0.6062,-1.3945309 0.7308,1.3488489 1.3278,1.2693027 3.4261,-0.4556388 0.674,-0.5540656 1.2873,-0.9300812 1.8361,-1.1504787 0.897,0.3361972 1.6662,0.5403755 2.3301,0.5720674 0.2941,0.4927948 0.4718,1.1896997 0.4806,2.1412412 0.011,1.1625647 0.4404,2.6270527 0.9549,3.254403 1.1553,1.4085957 -0.5275,4.4579637 -3.593,6.5117917 -1.2199,0.817247 -2.213,2.223491 -2.203,3.123794 0.038,4.183332 7.624,2.215307 11.2851,-2.927507 2.0212,-2.839326 5.1186,-3.519463 5.7557,-1.264295 0.2182,0.772062 -0.6102,2.764939 -1.8412,4.42839 -2.6646,3.600555 -2.1596,5.147246 1.6635,5.094498 1.6706,-0.02305 3.0661,0.751054 3.4416,1.909877 0.5059,1.561299 0.9176,1.65272 2.0666,0.458251 1.1444,-1.189691 1.7773,-1.08167 3.129,0.536242 1.5906,1.904009 -1.0699,-12.042514 -3.0072,-12.403656 -2.2236,-0.414508 -7.1455,4.520052 -7.1215,7.139833 0.042,4.555971 9.6865,3.278296 12.5697,-1.665077 1.3087,-2.243908 4.2615,-1.577305 4.2845,0.967252 0.01,0.880803 2.1736,4.146949 4.8121,7.257756 4.4491,5.247994 5.155,5.646181 9.7214,5.516923 2.708,-0.07664 5.3146,-1.15533 6.4022,-1.15533 h 5e-4 c 1.0876,0 3.1573,-1.924071 5.2095,-3.034232 3.9244,-2.123294 5.5553,-5.048012 3.9114,-7.015943 -0.5382,-0.644232 -3.6991,-1.288355 -7.0249,-1.431102 -5.5741,-0.239322 -9.163,-1.937013 -9.185,-4.345547 -0.01,-0.53864 2.5345,-1.922994 5.6431,-3.076028 3.8062,-1.411783 9.319,10.585885 11.4403,7.769276 1.957,-2.598508 4.092,-4.195491 5.6373,-4.216805 1.368,-0.01887 2.7584,-0.585522 3.0893,-1.25795 0.3288,-0.672378 2.0497,-1.242121 3.8194,-1.266535 2.7356,-0.03774 8.8051,-2.97645 15.6745,-7.5909947 2.9966,-2.0123643 4.5674,-1.3275573 4.9263,2.1460924 0.3119,3.0191903 0.7668,3.3640793 4.8105,3.6525743 4.3167,0.307967 4.8161,-1.478035 0.6698,-2.396116 -3.9676,-0.8784532 -1.8605,-2.8466323 3.4933,-3.2626125 3.5079,-0.2725189 5.7008,0.047933 5.7107,0.8325391 0.01,0.701116 1.4846,1.2540517 3.2846,1.2292172 1.8,-0.02483 3.8138,0.6033292 4.4757,1.3956502 0.936,1.12043 1.465,1.113106 2.3802,-0.03284 0.6471,-0.810376 1.8682,-1.4863227 2.7135,-1.5020033 0.8455,-0.01576 2.6468,-0.7564957 4.0024,-1.6456733 1.4288,-0.9372062 6.4891,-1.7747752 12.0411,-1.9927201 2.7584,-0.1082769 4.6501,-0.1644964 6.0343,-0.1421773 0.9445,0.6495081 1.9988,1.2122608 3.1207,1.724412 -0.024,0.16284 -0.042,0.3167721 -0.081,0.5086287 -0.2765,1.3568479 -0.8922,2.7699503 -1.3684,3.1394673 -1.1482,0.890797 -1.0889,2.809403 -0.201,4.464589 -0.093,0.0048 -0.1607,0.02547 -0.2543,0.02948 -3.3258,0.142746 -6.4867,0.786865 -7.0249,1.431101 -1.6439,1.96794 -0.013,4.892641 3.9114,7.015943 1.2736,0.688956 2.5258,1.64951 3.574,2.311033 -0.4315,0.449675 -0.7291,0.874949 -0.7261,1.190407 0.01,1.043929 5.7491,1.293058 8.2155,0.629536 0.1853,0.01413 0.3621,0.05331 0.5488,0.05858 4.5664,0.129258 5.2723,-0.268908 9.7214,-5.516923 2.001,-2.35923 3.4042,-4.478761 4.1264,-5.908378 0.7543,0.286358 1.2995,0.664183 1.4624,1.166898 0.3232,0.997321 1.8288,1.816091 3.346,1.818824 1.5173,0.0027 3.8293,0.712502 5.1377,1.57701 1.3677,0.903664 3.773,1.209527 7.2823,1.006063 -0.39,-1.112709 -0.8077,-2.220297 -1.171,-3.337994 -0.056,-0.16874 -0.1134,-0.337302 -0.1695,-0.506016 0.993,-0.438331 1.6414,-1.211254 1.6521,-2.376338 0.016,-1.805816 -2.3171,-4.620342 -4.4969,-6.1158591 -0.4414,-1.3247972 -0.8699,-2.6515568 -1.2966,-3.9787232 0.4503,-0.051314 0.882,0.2022023 1.432,0.7739515 1.149,1.1944733 1.5606,1.1030548 2.0665,-0.4582509 0.3755,-1.1588284 1.7711,-1.9329246 3.4417,-1.9098767 3.8231,0.052748 4.328,-1.4939285 1.6634,-5.09449717 -1.231,-1.66345833 -2.0594,-3.65632593 -1.8412,-4.42839133 0.6371,-2.255176 3.7345,-1.575041 5.7557,1.2642951 3.6611,5.1428349 11.2466,7.1108566 11.2851,2.9275074 0.01,-0.9003075 -0.983,-2.3065442 -2.2029,-3.123794 -3.0655,-2.0538365 -4.7484,-5.1031875 -3.5931,-6.5117906 0.5145,-0.627351 0.9443,-2.091835 0.955,-3.254404 0.03,-3.254416 1.8461,-3.865131 4.6467,-1.562829 2.0983,1.72495 2.6954,1.804492 3.4262,0.455638 0.6165,-1.137361 0.8002,-0.713476 0.6061,1.394531 -0.2147,2.331338 0.2358,3.125305 1.9487,3.45069 1.5226,0.2888981 2.2274,1.2608681 2.2258,3.0704311 0,1.456256 0.8578,4.0257027 1.9089,5.7098516 1.9115,3.0620962 1.9118,3.0621856 1.9596,0.2552473 0.026,-1.5437922 -0.635,-5.4641899 -1.4697,-8.7116199 -1.1712,-4.5571971 -1.2573,-6.4840991 -0.3767,-8.4451771 0.9383,-2.089415 1.4921,-2.305071 3.1181,-1.210559 1.2598,0.847918 1.7719,2.096067 1.4103,3.438375 -0.3122,1.158801 0.062,3.179409 0.8319,4.49071 1.5116,2.5750741 1.3494,2.7682181 3.0464,-3.644364 0.2612,-0.986917 1.0602,-1.509327 1.7751,-1.162047 0.7151,0.347281 2.1226,-0.08759 3.1274,-0.966133 1.5082,-1.318426 1.8988,-3.641392 2.2386,-13.300474 0.5166,-14.688305 1.2459,-39.788851 8.5587,-39.687968 4.8911,0.06747 5.4268,-0.175436 5.1837,-2.35656 -0.4082,-3.660811 -6.1324,-9.42139 -8.7995,-8.855663 -1.6095,0.341397 -2.2307,-0.109411 -2.2169,-1.606491 0.01,-1.143911 -1.2537,-3.747704 -2.8092,-5.785978 -3.1606,-4.141329 -3.1368,-25.989781 0.069,-29.825121 1.5247,-1.82506 1.8639,-1.87059 2.3352,-0.31459 0.7815,2.57977 4.9223,1.62943 5.3966,-1.23854 0.5423,-3.2788 -2.4755,-5.85778 -4.9837,-4.2586 -2.5766,1.64278 -4.7491,0.44821 -4.7211,-2.59613 0.025,-2.67654 1.4782,-3.27743 2.5688,-1.06167 0.4748,0.96453 0.9268,0.85033 1.5043,-0.38026 1.3816,-2.94409 -1.9884,-10.71109 -4.6633,-10.748 -2.2715,-0.0313 -6.2043,-3.91272 -6.1841,-6.10317 0.01,-0.6381 1.1449,-3.1574 2.5311,-5.59865 1.3862,-2.44122 2.527,-5.1311 2.5348,-5.97704 0.02,-2.1467 3.7575,-0.75901 7.5065,2.78831 1.6734,1.58255 3.574,2.88496 4.2235,2.89393 2.3427,0.0324 5.9295,-3.75778 6.5831,-6.95587 0.3671,-1.79638 0.8987,-4.18188 1.1808,-5.30123 0.7869,-3.12216 -7.5898,-4.52171 -11.0159,-1.84047 -3.0803,2.41077 -4.4474,1.54589 -4.4075,-2.78831 0.037,-4.02214 -10.2268,3.75601 -13.6881,4.76899 -2.8483,0.83359 2.7953,-6.67417 2.7549,-2.28257 -0.039,4.19779 -3.2149,10.43878 -5.303,10.41924 -2.2328,-0.021 -2.2684,-4.52027 -0.059,-7.44247 2.4412,-3.2286 1.0913,-6.2629 -2.3916,-5.37661 -1.8462,0.46984 -3.2153,0.12798 -3.9528,-0.98516 -1.6615,-2.50824 -9.6987,1.46985 -8.4527,0.55068 0.6091,-0.44936 0.8242,-2.36354 0.5013,-4.4631 -0.331,-2.1524 -2.6376,3.66923 -1.8336,1.88346 1.3696,-3.04999 1.3698,-3.04974 2.4406,1.01725 1.3365,5.07692 8.3782,-2.07962 9.5251,-6.33647 0.3871,-1.43716 -2.4196,5.39178 -3.0128,4.649 -0.5928,-0.7424 -1.0647,-2.79554 -1.0485,-4.56273 0.062,-6.71572 -6.6384,-18.19069 -10.6273,-18.30466 z m -33.3613,3.78916 c -2.327,-0.0321 -3.3492,4.03713 -1.4025,5.58372 2.037,1.61829 3.3152,0.61559 3.345,-2.62263 0.019,-2.118 -0.5207,-2.94148 -1.9425,-2.96109 z m -13.269,0.42392 c -2.4674,-0.0341 -6.1254,3.92267 -6.1505,6.6521 -0.01,1.03356 1.1423,3.22502 2.5595,4.86985 2.5959,3.01263 3.3687,2.97597 6.5728,-0.31682 3.3358,-3.42809 1.2819,-11.14633 -2.9818,-11.20513 z m -20.3981,0.90747 c -0.5872,-0.0123 -1.1841,0.17322 -1.743,0.5911 -1.8012,1.34611 -2.8528,6.61396 -1.9296,9.6617 1.2819,4.23155 7.9506,-0.91519 7.4099,-5.7188 -0.3013,-2.67704 -1.9758,-4.49674 -3.7373,-4.534 z m -232.8379,-3.94615 c -0.6038,0.12072 -0.9885,0.67563 -0.9963,1.52364 -0.01,1.12627 0.8302,1.92181 2.0484,1.93861 2.4167,0.0333 2.1011,-2.80769 -0.3814,-3.43277 -0.2441,-0.0615 -0.4695,-0.0697 -0.6707,-0.0294 z m -55.9966,0.24703 c -3.2986,-0.0455 -4.5175,3.34297 -2.0236,5.62887 2.4893,2.28152 3.8446,1.53266 4.2565,-2.35207 0.2947,-2.77967 -0.023,-3.24632 -2.2329,-3.2768 z m -12.4013,0.30973 c -0.057,0.0145 -0.089,0.0727 -0.089,0.18061 0,0.86333 -2.29,0.60708 -3.6236,2.46441 -2.8779,4.00832 -2.9859,7.03761 -0.3338,9.36691 1.7752,1.55903 2.4036,1.56497 4.9589,0.0481 3.1813,-1.88855 3.5423,-3.4662 1.8588,-8.12836 -0.7222,-2.00005 -2.3701,-4.03314 -2.7709,-3.9317 z m 32.5954,0.21233 c -0.2139,-0.0555 -0.3364,-0.0105 -0.3364,0.16159 v 3.7e-4 c 0,1.83892 -0.7872,5.65076 1.5203,5.6826 1.0443,0.0144 2.1561,0.8762 2.4707,1.91511 0.6311,2.08315 3.7938,1.95844 3.8132,-0.15039 0.017,-1.87047 -5.9705,-7.2207 -7.4678,-7.60928 z m 26.416,0.12054 c -1.5267,-0.021 -2.8933,0.98583 -3.6406,2.68196 -0.6581,1.4936 -1.745,3.10461 -2.4149,3.57943 -0.6809,0.48219 -1.019,2.22035 -0.7674,3.93656 0.5279,3.60045 2.5332,4.02053 4.3982,0.92172 0.7238,-1.20274 2.1002,-2.53314 3.0587,-2.95587 1.1336,-0.49993 1.7546,-2.05535 1.7767,-4.44928 0.029,-3.10244 -0.3502,-3.68609 -2.4107,-3.71452 z m -102.7038,1.61917 c -0.8182,-0.0112 -1.6417,1.20725 -1.8299,2.70734 -0.2632,2.09916 0.1466,2.73406 1.7792,2.75659 1.6327,0.0225 2.0544,-0.60146 1.8299,-2.70733 -0.1604,-1.50492 -0.961,-2.74532 -1.7792,-2.7566 z m 278.6956,0.80903 c -1.1019,-0.0152 -1.9906,0.78203 -1.9999,1.79382 -0.01,1.01177 0.8649,1.8331 1.9668,1.84831 1.1019,0.0152 1.9911,-0.78132 2.0004,-1.79308 0.01,-1.01181 -0.8654,-1.83385 -1.9673,-1.84905 z m -15.1153,0.14293 c -2.1358,0.38902 -3.6393,3.57437 -2.4216,7.59622 0.8098,2.67359 5.305,2.19368 6.6068,-0.70529 0.9035,-2.01195 0.7822,-2.99441 -0.6087,-4.91911 -0.8474,-1.17274 -1.7625,-1.78998 -2.6288,-1.96138 -0.3248,-0.0643 -0.6426,-0.066 -0.9477,-0.0105 z m -142.3665,0.14777 c -1.2262,-0.0776 -1.4355,1.85089 -0.3582,5.16764 0.6998,2.15471 1.4812,5.42396 1.7364,7.2641 0.4243,3.05721 2.0662,4.35762 3.4339,2.7204 1.0676,-1.278 -1.6034,-13.07473 -3.2567,-14.38341 -0.6249,-0.4946 -1.1466,-0.74285 -1.5554,-0.76873 z m -133.5294,4.19479 c -1.8423,-0.0254 -2.9722,1.93901 -2.1161,3.67832 0.8807,1.78934 2.8701,0.79575 3.2789,-1.63746 0.1962,-1.16859 -0.2939,-2.02887 -1.1628,-2.04086 z m 462.1956,11.0789 c -1.4206,-0.31484 -2.8778,0.92619 -2.3384,2.7066 0.6546,2.16117 1.2619,2.29403 3.3331,0.73066 1.1407,-0.86106 1.2202,-1.46221 0.3385,-2.56629 -0.3899,-0.48839 -0.8596,-0.76602 -1.3332,-0.87097 z m -474.7338,-10.03776 c -0.5454,-0.007 -0.997,0.5331 -1.0031,1.20085 -0.01,0.66779 0.4356,1.22056 0.9809,1.2281 0.5455,0.007 0.9964,-0.53232 1.0025,-1.20011 0.01,-0.66776 -0.4348,-1.22133 -0.9803,-1.22884 z m 449.4294,11.86629 c -1.549,-0.0214 -2.3019,2.23348 -1.7152,5.13741 0.5423,2.68424 3.7422,2.83281 4.591,0.21308 0.7214,-2.22604 -0.9434,-5.32388 -2.8758,-5.35049 z m -499.7917,-1.77544 c -5.1108,-0.47901 -6.9175,1.16791 -5.3428,4.86985 1.7076,4.01448 6.3382,3.08359 6.798,-1.36655 0.26,-2.51637 -0.097,-3.37599 -1.4552,-3.5033 z m 159.7153,0.33287 c -1.5688,0.1065 -4.4274,3.23666 -3.7796,4.55266 0.2866,0.58257 1.6105,1.075 2.9419,1.09338 1.7351,0.0239 2.4273,-0.6346 2.4428,-2.32372 0.012,-1.29612 -0.4495,-2.72185 -1.0253,-3.16858 -0.1576,-0.12229 -0.3556,-0.16892 -0.5798,-0.15374 z m -139.0313,0.22801 c -0.2182,-0.0313 -0.4898,-0.008 -0.818,0.0642 -0.9999,0.22149 -1.9847,1.40036 -2.188,2.61927 -0.2671,1.60049 0.1355,2.10443 1.4485,1.8136 1,-0.22149 1.9845,-1.40068 2.1879,-2.61964 0.2004,-1.20037 0.024,-1.78345 -0.6304,-1.87741 z m 14.6441,0.10446 c -0.3155,0.24604 -0.9482,1.50983 -0.9617,2.98834 -0.024,2.62846 0.3722,3.14028 2.2055,2.84727 1.4669,-0.23445 2.2425,-1.19188 2.2572,-2.78571 0.015,-1.59382 -0.7434,-2.5724 -2.2055,-2.84727 -0.4569,-0.0859 -1.1204,0.15241 -1.1204,-0.0795 0,-0.17394 -0.07,-0.20516 -0.1751,-0.12315 z m 265.6096,1.70874 c 0,0.22836 -0.5754,-0.0396 -0.8356,0.15225 -0.5202,0.38375 -0.6897,1.21882 -0.3762,1.85577 0.3135,0.63694 0.9959,0.84429 1.5162,0.46048 0.5203,-0.38375 0.6891,-1.2188 0.3757,-1.85576 -0.1567,-0.31846 -0.6801,-0.84103 -0.6801,-0.61274 z m -84.0057,1.01987 c -0.8005,0.041 -1.5105,0.23426 -1.9612,0.57132 -1.7207,1.28673 -2.6183,5.50929 -1.7683,8.31532 0.29,0.9572 1.4334,1.75316 2.5414,1.76844 1.9638,0.0271 2.4076,-0.99417 2.1405,-4.92694 -0.072,-1.05745 0.8942,-2.48511 2.1466,-3.17231 2.2662,-1.24341 2.2627,-1.25445 -0.5948,-2.21289 -0.8126,-0.27249 -1.7037,-0.38389 -2.5042,-0.34294 z m -8.5055,0.83926 c -0.8264,-0.0113 -1.4974,1.05902 -1.5099,2.40805 -0.012,1.34903 0.6391,2.43733 1.4655,2.44873 0.8265,0.0114 1.4975,-1.05826 1.51,-2.4073 0.012,-1.34903 -0.6391,-2.43807 -1.4656,-2.44948 z m -105.5796,0.97248 c -0.5133,-0.006 -1.2143,0.52954 -1.5575,1.19264 -0.3432,0.66312 0.071,1.21525 0.9219,1.22698 0.8504,0.0119 1.5509,-0.52485 1.557,-1.19265 0.01,-0.66775 -0.4082,-1.21989 -0.9214,-1.22697 z m 264.3798,1.21801 c -2.8251,-0.039 -4.0614,1.623 -3.2355,4.34928 0.8703,2.87293 4.9756,1.66218 5.3831,-1.58746 0.2768,-2.20705 -0.1329,-2.73403 -2.1476,-2.76182 z m -386.5118,3.45778 c -1.0481,0.0369 -1.9703,1.10636 -1.4304,2.20356 0.3081,0.62597 0.9539,1.14347 1.435,1.15011 1.3889,0.0191 2.1374,-2.15511 1.0361,-3.0096 -0.328,-0.25444 -0.6914,-0.35636 -1.0407,-0.34407 z m 31.644,0.14852 c -1.5588,0.0175 -2.9453,0.82378 -3.3646,2.38082 -0.3585,1.33079 1.7193,4.85716 -0.045,4.85716 h -5e-4 c 0.8541,3.43655 5.818,3.35642 7.8589,-0.12687 1.3998,-2.38822 1.39,-2.85545 -0.052,-4.85792 -1.107,-1.53186 -2.8375,-2.27874 -4.3962,-2.25319 z m -19.251,4.21942 c -0.5089,0.0454 -1.0212,0.45127 -1.7472,1.23519 -0.9643,1.04102 -1.7617,2.86096 -1.7725,4.04402 -0.011,1.18312 0.7589,2.37998 1.711,2.6592 4.3467,1.27504 6.9445,-3.8784 3.5357,-7.01332 -0.713,-0.65551 -1.2182,-0.97048 -1.727,-0.92509 z m -31.3195,1.15272 c -3.6624,-0.0505 -5.3986,3.34223 -3.2396,6.33005 3.0261,4.19056 7.6678,1.64862 6.5954,-3.61376 -0.4,-1.96251 -1.2975,-2.6879 -3.3558,-2.71629 z m 235.676,2.86631 c 1.2457,0.18605 2.3928,1.07912 2.3808,2.38156 -0.01,0.92376 -0.3494,1.60045 -0.7576,1.50387 -5.0758,-1.20086 -5.2861,-1.3452 -4.2101,-2.89654 0.337,-0.48584 0.8171,-0.78666 1.3477,-0.92807 0.3979,-0.10607 0.824,-0.12272 1.2392,-0.0608 z m 10.9988,0.67133 h 5e-4 c 1.9327,-0.0555 4.3801,0.0802 6.8084,0.0802 h 5e-4 c 4.8569,0 9.5932,0.67266 9.8671,1.22921 1.3659,2.77518 -6.9303,4.93884 -10.8763,2.83646 -1.2352,-0.65814 -2.0568,-0.51364 -2.3172,0.40675 -0.673,2.38197 -6.0037,1.61886 -7.1262,-1.02025 -0.6327,-1.48717 -0.6555,-2.63071 -0.053,-3.07303 0.3495,-0.25789 5.6226,-0.54611 3.6959,-0.45937 z m 144.122,1.85427 c 0.5454,0.007 0.9865,0.55956 0.9803,1.22735 -0.01,0.66775 -0.457,1.20838 -1.0025,1.20086 -0.5454,-0.007 -0.987,-0.56035 -0.9809,-1.2281 0.01,-0.6678 0.4577,-1.20763 1.0031,-1.20011 z m 182.7604,2.97602 c 0,0.16876 -0.295,0.33004 -0.2982,0.68365 -0.01,0.70716 0.4348,1.29259 0.9803,1.30012 0.5453,0.007 0.9942,-0.22833 0.9969,-0.52281 0,-0.29448 -0.4382,-0.87841 -0.9798,-1.29863 -0.2708,-0.21012 -0.5186,-0.25691 -0.6992,-0.16233 z m -180.744,3.15999 c 4.1577,0.15381 8.5884,0.73318 10.1043,1.62068 2.8732,1.68204 3.5076,3.38782 1.248,3.35665 -0.7735,-0.0107 -2.0037,0.24538 -2.7332,0.5687 -0.7294,0.32329 -2.6569,-0.2939 -4.2834,-1.37102 -1.936,-1.28198 -4.2169,-1.73273 -6.6038,-1.30534 -4.0005,0.71632 -7.0721,-0.24345 -6.196,-1.936 0.4222,-0.81579 4.3065,-1.08749 8.4641,-0.93367 z m 23.6203,3.93283 c 1.1231,0.0155 2.0394,0.24245 2.037,0.5049 -0.011,1.1518 -2.9846,1.69149 -3.5041,0.63587 -0.3165,-0.64305 0.344,-1.15626 1.4671,-1.14077 z m 155.7057,7.64398 c -0.011,0.0812 -0.021,0.16314 -0.024,0.24555 -10e-5,0.009 0.012,-0.0148 0.013,-0.0243 0.011,-0.0694 0.011,-0.13884 0.012,-0.20861 -3e-4,-0.004 -10e-5,-0.008 0,-0.0127 z m -581.0979,7.33686 c -0.5392,0.005 -0.9784,0.26709 -1.4112,0.78516 -0.8924,1.06823 -0.357,1.3932 2.2515,1.36654 3.2138,-0.0328 3.2848,-0.11835 1.1705,-1.40162 -0.8323,-0.50514 -1.4716,-0.75558 -2.0108,-0.75008 z m 0.4584,8.86948 c -0.2487,-0.0228 -0.4413,0.0229 -0.4413,0.18621 0,0.97967 -3.5801,4.29822 -2.9177,6.4853 0.3216,1.06177 1.0858,1.61081 1.8289,1.44827 5.5346,-1.21056 4.112,-7.02072 2.3094,-7.89625 -0.2257,-0.10959 -0.5306,-0.20077 -0.7793,-0.22353 z m 578.4107,25.889687 c -2.0257,-0.02794 -3.744,4.784711 -2.5642,7.181629 0.9764,1.983996 5.1883,1.594212 5.8813,-0.544453 0.8839,-2.727705 -1.0544,-6.605961 -3.3171,-6.637176 z m -560.0325,4.41757 c 0.885,0.0123 1.6015,0.842168 1.5922,1.843825 -0.01,1.001662 1.1418,4.693944 0.9358,4.691102 -0.2059,-0.0028 -2.2494,-3.707313 -2.9192,-4.718343 -0.9973,-1.505525 -0.9266,-1.834764 0.3912,-1.816584 z m 544.1689,10.674114 c 0.9151,0.11085 1.8498,0.591049 1.8438,1.238919 0,0.262444 -0.9229,0.46404 -2.0459,0.448549 -1.1232,-0.0155 -1.7732,-0.547291 -1.4449,-1.181452 0.1347,-0.260251 0.4202,-0.416101 0.7736,-0.486239 0.2651,-0.0526 0.5683,-0.05673 0.8734,-0.01978 z m 9.432,71.8670391 c -0.3559,-0.05239 -0.7316,-0.05144 -1.1219,0.01082 -2.45,0.390752 -3.5983,3.2610109 -2.6097,6.52485243 0.7685,2.53671057 5.2963,2.24382937 6.4926,-0.4201878 1.2456,-2.77371233 -0.2704,-5.74874063 -2.761,-6.11548663 z m -538.1135,3.9563332 c -1.2149,0.028587 -1.5722,1.1276102 -1.5978,3.90222363 -0.021,2.33101907 0.4219,2.84534337 2.2076,2.55993637 2.9669,-0.474199 3.6707,-5.2320256 0.9106,-6.1565349 -0.6147,-0.205886 -1.1154,-0.3151459 -1.5204,-0.3056251 z m 488.331,1.2665342 c 0.5132,0.00704 1.2054,0.5631576 1.5342,1.23556113 0.3311,0.6724455 -0.093,1.2125906 -0.9441,1.2008564 -0.8496,-0.01175 -1.541,-0.5670314 -1.5348,-1.2348147 0.01,-0.66779193 0.4314,-1.20868223 0.9447,-1.20160283 z m -445.2943,2.35730573 c -1.1019,-0.015145 -1.9906,0.78201267 -1.9999,1.79382127 -0.01,1.0117613 0.8644,1.8327295 1.9663,1.8479307 1.102,0.015145 1.991,-0.7813137 2.0004,-1.7930749 0.01,-1.0118076 -0.8648,-1.83347677 -1.9668,-1.84867707 z m 9.187,1.80128467 c 0.1945,0 -1.1241,1.2572048 -0.2103,1.2572048 h 5e-4 c -0.055,1.2792965 0.1726,1.9997677 0.5059,1.6008932 0.3329,-0.3989197 0.3795,-1.4463114 0.099,-2.326706 -0.1537,-0.4858722 -0.2902,-0.6567177 -0.3954,-0.531392 z m -39.0064,0.00597 c -4.6902,0.059748 -7.2608,7.5810248 -2.7853,11.4958311 2.7973,2.446725 2.8176,2.447862 5.4803,0.21905 1.5428,-1.291587 2.2333,-3.101111 2.2592,-5.9221856 0.031,-3.3907846 -0.4365,-4.2714673 -2.8287,-5.3295934 -0.7422,-0.3282847 -1.4555,-0.4716403 -2.1255,-0.4631021 z m -30.655,1.053828 c 0.8175,0 -1.2255,1.2839048 -0.6475,3.1920838 0.553,1.8255671 0.7906,1.8840796 1.5653,0.387349 0.5507,-1.0644561 0.5561,-2.2236165 -0.01,-2.9211635 -0.3294,-0.4125708 -0.6403,-0.6194106 -0.908,-0.6582693 z m 215.4799,2.3058085 c -0.1946,-0.00999 -0.3578,0.025576 -0.4749,0.1119506 -1.0101,0.7451604 -1.1684,4.588975 -0.2372,5.755006 1.0296,1.289305 1.9577,0.989961 3.405,-1.096743 1.1388,-1.6417883 1.065,-2.1879298 -0.4873,-3.6107789 -0.7545,-0.6915107 -1.6216,-1.1294424 -2.2056,-1.1594347 z m -203.2945,0.8146269 c -0.444,-0.066842 -0.9596,0.2801419 -1.787,1.0034503 -1.2143,1.0616017 -1.6719,2.4158327 -1.2671,3.7518364 0.3894,1.29262 1.4582,1.954513 2.7946,1.732622 2.676,-0.444332 3.2478,-2.215834 1.6175,-5.0109075 -0.5421,-0.9294794 -0.914,-1.4101633 -1.358,-1.4770012 z m 245.4604,0.6022941 c -1.0085,0.12156 -1.8558,1.5177614 -1.8738,3.4678556 -0.012,1.296128 0.5957,2.365554 1.3503,2.375964 1.5981,0.02204 2.8763,-4.4929129 1.5607,-5.5135654 -0.3471,-0.2693839 -0.7011,-0.3707714 -1.0372,-0.3302542 z m -276.612,1.1325666 c -0.4706,0.099002 -0.9227,0.3582664 -1.2904,0.8049246 -0.9153,1.1116274 -0.7599,1.8358814 0.6795,3.1678274 2.083,1.927411 3.5606,1.384696 3.5854,-1.317285 0.017,-1.8114027 -1.563,-2.9524516 -2.9745,-2.655467 z m 199.6823,0.642223 c -1.3293,0.090773 -2.3024,1.241216 -2.3187,3.011843 -0.011,1.208456 0.5354,2.450297 1.2144,2.759582 1.5366,0.699925 3.7313,-1.274647 3.7507,-3.374563 0.01,-0.864237 -0.5415,-1.8178972 -1.2206,-2.1184782 -0.5,-0.2213091 -0.9827,-0.3086413 -1.4258,-0.2783838 z m -108.0321,1.524394 c -1.6443,-0.02269 -4.4085,4.684646 -4.4349,7.551812 -0.011,1.218007 1.3106,3.164101 2.9378,4.324276 1.6272,1.160121 3.2096,3.100521 3.5166,4.312337 0.3903,1.540388 1.3521,2.101263 3.1957,1.865096 3.6821,-0.471685 4.0408,-4.19815 0.7451,-7.745113 -1.4538,-1.564612 -2.33,-3.451319 -1.9466,-4.192177 0.815,-1.574347 -2.1488,-6.090502 -4.0137,-6.116231 z m 117.6383,0.787012 c -0.4158,0 -0.8906,0.09565 -1.418,0.335106 -2.0908,0.949276 -2.0442,3.67956 0.09,5.179951 2.1254,1.495099 3.2382,0.736835 3.2654,-2.224084 0.019,-2.09555 -0.6894,-3.290973 -1.9368,-3.290973 z m 102.3922,1.634105 c -2.4903,0.366744 -4.0067,3.341785 -2.7611,6.115486 1.1963,2.664007 5.7241,2.956888 6.4926,0.420188 0.9886,-3.263829 -0.1596,-6.134102 -2.6096,-6.524852 -0.3903,-0.06226 -0.766,-0.06321 -1.1219,-0.01082 z m -199.7248,0.451161 c -0.4919,0.215986 -1.5902,1.315263 -2.5053,2.410668 -2.2436,2.685541 -2.3898,3.368588 -1.341,6.272964 0.9298,2.575118 1.8647,3.268692 4.4535,3.304408 5.7573,0.07942 7.1061,-8.166979 1.8314,-11.197669 -0.5226,-0.300227 -0.9571,-0.511785 -1.3492,-0.619087 -0.294,-0.08046 -0.8289,0.149312 -0.8289,-0.06008 0,-0.157065 -0.096,-0.183199 -0.2605,-0.111204 z m 366.5311,0.878066 c -0.3443,0.02212 -0.6396,0.138189 -0.8025,0.342195 -0.3259,0.408004 0.2629,0.687353 1.3079,0.620206 1.1547,-0.0742 1.3869,-0.365552 0.5922,-0.742231 -0.3595,-0.170427 -0.7533,-0.242399 -1.0976,-0.22017 z m -331.0123,2.16587 c 0,0.395682 -0.7437,0.955241 -0.7545,2.128926 -0.014,1.564881 0.4799,2.433098 1.2201,2.14236 0.6843,-0.26884 1.2511,-1.217314 1.2593,-2.107655 0.01,-0.890394 -0.5408,-1.854 -1.22,-2.141614 -0.1837,-0.07777 -0.5049,-0.154245 -0.5049,-0.02202 z m 72.1945,1.563202 c -0.5096,-0.0755 -1.0753,0.04391 -1.6526,0.411979 -1.5241,0.971731 -1.7008,1.690097 -0.8862,3.605181 1.2361,2.905873 3.4789,3.144444 4.348,0.462355 0.7367,-2.273396 -0.2807,-4.253039 -1.8092,-4.479515 z m 141.794,0.164568 c 0.5133,-0.007 0.9346,0.533813 0.9446,1.201602 0.01,0.667781 -0.6852,1.223066 -1.5348,1.234816 -0.8511,0.01173 -1.2752,-0.528414 -0.9441,-1.200857 0.3288,-0.672401 1.0211,-1.228519 1.5343,-1.235561 z m -289.9803,0.164567 c -1.8332,0.08114 -3.7926,0.696621 -4.3537,1.368409 -1.4712,1.760947 -0.1392,7.224827 1.8991,7.788401 2.8139,0.778163 6.2562,-2.812381 6.0069,-6.2655 -0.1892,-2.623352 -0.6747,-3.018645 -3.5523,-2.89131 z m 115.4514,0.862766 c -0.7765,-0.07034 -1.6507,0.424151 -2.3993,1.503496 -0.8063,1.162709 -0.7924,1.982268 0.049,3.036845 2.3628,2.958744 5.2963,1.087101 4.1626,-2.655467 -0.3573,-1.179543 -2.5941,-1.884874 -1.8123,-1.884874 z m 322.3581,6.063616 c -0.3615,0.0099 -0.6213,0.48722 -0.6284,1.268027 -0.02,2.132675 0.5725,2.455238 1.4382,0.782907 0.3195,-0.61731 0.1303,-1.471596 -0.4202,-1.898681 -0.1376,-0.106775 -0.2691,-0.15553 -0.3896,-0.152253 z m -135.025,5.836076 c -0.1205,-0.0033 -0.252,0.04548 -0.3896,0.152252 -0.5505,0.427081 -0.7396,1.281376 -0.4201,1.898682 0.8657,1.672327 1.4581,1.349759 1.4381,-0.782907 -0.01,-0.780807 -0.2669,-1.258148 -0.6284,-1.268027 z"
       sodipodi:nodetypes="scssssssssssssssssssssssssssscsssssssscssssscssssssssssssssccsssssssssscssssscsssssssssccssssssssssssssssssscssscssssscsssssssscssssscsssssssssssssssssssssssssccscssssssssssssssssccssscsssssccscsscsssccssscssssssssssccssscsscssscscsssscsssssscccsccsscsccccsssccccccsssssscssssssccccsssssssssssscscssscssscsscsssssscsssssscssscsssscsscsssscsssscssssssssssssssssssssssssscssscssssssscscssssssssssssssssssssssscccccsssssssscsssscscsssssssssssssssssssssssssssscscscssccsssssssssssscccssssscssscssscssssscssssscsccccccccccccscssssssssscsscscccccssscssssssssssscsssscsssssssssssscsssscscsscscsssccccsssssssssscsssssssssscsssssssssssssssscsssssssssssscssssssssscsssssscsssssscscssssssssssscsssssscscscscsssssscs" /><path
       id="text62"
       style="font-weight:bold;font-size:105.139px;line-height:1;font-family:'Needleteeth Regular';-inkscape-font-specification:'Needleteeth Regular,  Bold';text-align:center;letter-spacing:5.55736px;word-spacing:0px;text-anchor:middle;fill:#e6e6ff;fill-opacity:1;stroke-width:0.414455;stroke-linecap:round;paint-order:markers stroke fill"
       d="m -1149.9727,-140.42578 c -2.0182,5.45226 -3.7484,11.46068 -6.344,14.21845 -2.6408,4.48673 -2.2703,10.51762 -7.8044,13.27374 -2.425,4.0781 -1.3469,7.4281 -5.5772,10.19119 -1.6377,4.486699 -7.3453,6.929891 -11.0946,8.200418 8.8188,1.123035 17.6503,-2.786548 26.4902,-0.775518 8.4081,0.751484 -1.9027,-2.581683 -4.8575,-2.518438 0.992,-7.638682 13.1663,-3.146352 18.6546,-4.100412 3.7653,0.25966 6.1691,7.263719 0.031,6.344553 6.5966,1.854196 14.3437,-1.686734 21.3016,0.251095 7.9191,1.446434 -0.3305,-2.215961 -3.5159,-2.143612 -5.5097,-2.283504 -2.7138,-8.961936 -7.7188,-11.492396 -2.4317,-3.51489 -4.6583,-5.72803 -5.9102,-10.21836 -1.2969,-2.82132 -5.4492,-10.38433 -8.7013,-15.04279 -1.3098,-2.15632 -4.3432,-4.38583 -4.9535,-6.18792 z m -322.9062,0.0488 c -0.055,5.04923 -5.8852,9.84341 -4.6448,13.23059 -5.2218,2.19501 -2.5955,10.13022 -7.6554,12.34236 -4.3836,3.74111 -2.7314,9.11365 -7.4596,12.08357 -1.6397,4.493324 -7.3928,6.911066 -11.0974,8.177256 8.8191,1.12836 17.6514,-2.787401 26.492,-0.774326 8.4128,0.709116 -1.8763,-2.474093 -4.7728,-2.566581 0.5686,-7.631959 13.3362,-3.177529 18.7474,-4.032959 4.6337,1.06002 4.4163,6.980107 0.2026,6.723442 7.89,0.711989 15.9532,-2.053172 23.7175,0.415832 1.5656,-2.60214 -11.8483,-1.827671 -10.1016,-8.314514 -1.5464,-4.10331 -4.5074,-7.88172 -8.0221,-10.41281 0.27,-4.33027 -3.3887,-5.7504 -2.9136,-8.7456 -4.0655,-5.2607 -6.3039,-11.82765 -11.4075,-16.41383 -0.8146,0.0246 -0.3097,-1.87692 -1.0847,-1.71243 z m 110.623,4.58398 c -4.0611,1.6409 7.2658,0.73977 4.7438,5.56825 1.8967,5.91779 -0.6564,11.4448 1.8398,17.51033 -0.3816,4.6573 1.5447,11.94419 5.2346,15.291514 8.2539,2.224367 18.3184,3.111205 26.1207,1.372493 4.968,0.08551 14.689,-3.9259 11.0984,-9.676047 2.3226,-8.29903 1.0858,-17.16887 0.089,-25.54565 -0.043,-2.96223 6.8574,-3.95307 0.6497,-3.42847 -5.6663,1.75915 -17.1402,-1.58575 -19.7154,0.31969 4.6662,-0.46427 9.8882,4.37881 10.6012,6.16885 -4.7325,2.24186 2.2453,8.92895 -0.075,10.6714 -1.0819,2.29938 -3.323,8.23506 0.068,9.32577 -2.0492,2.42147 0.2392,6.01174 -4.6397,7.17394 -5.3093,3.435565 -17.1633,3.221474 -17.9761,-4.62937 -1.2841,-4.1922 -1.9314,-10.72243 -2.7769,-15.40198 2.5735,-5.67715 -4.1087,-13.55082 5.5892,-13.32597 0.1337,-2.75589 -10.7797,0.58621 -14.3864,-0.45626 -2.1624,-0.2636 -4.2568,-1.08459 -6.4646,-0.93849 z m -179.3281,0.47656 c -7.6081,-0.69557 -14.29,0.74784 -15.0159,9.30232 1.0677,3.79914 -1.1003,9.98352 5.4973,9.84134 8.5175,1.70973 16.4497,0.95407 24.9335,2.6686 5.1513,1.54079 5.2343,11.15892 -0.1213,12.91081 -7.1805,1.899558 -14.8602,2.17252 -21.9462,0.43787 -2.7145,-4.81662 -5.4492,-11.10286 -6.8756,-14.92013 -7.1222,0.44518 -3.5544,10.07285 -2.8866,14.61162 -0.4219,9.134135 12.2156,4.926525 17.9916,5.069202 8.3507,-1.149251 18.2448,1.724379 25.5486,-2.026043 1.6309,-5.157869 4.8905,-9.211719 0.5049,-14.032299 -2.1458,-8.00105 -13.4492,-4.48967 -19.8094,-6.52206 -5.5815,0.36256 -17.5403,-4.66783 -9.9934,-10.03068 0.5504,-5.90819 13.5771,0.17857 15.267,-2.48038 1.9499,2.79895 8.7237,1.79426 8.9518,7.0839 0.1433,2.92876 5.3716,7.20672 4.815,1.92477 -1.9641,-4.01958 -2.3826,-10.37792 -3.961,-12.88426 -7.7011,-0.36731 -15.2827,-0.15915 -22.9003,-0.95458 z m 144.0469,0.14649 c -7.1963,-0.19628 -14.3732,0.81907 -21.5268,0.49093 -4.1583,-0.10816 -14.1712,-2.11111 -8.9382,5.01392 0.7677,2.92346 2.5796,14.05539 6.1595,8.68951 -0.1959,-7.76402 4.0942,-11.43124 11.7033,-10.46442 7.4643,-0.66609 1.1364,10.01427 4.772,11.12158 -5.0176,6.4551 2.8139,15.58248 -2.7621,21.207123 0.3712,3.987307 -12.4886,5.34579 -4.0847,5.39098 8.4874,-1.559729 17.3311,-2.757678 25.8678,-0.853098 3.3697,-1.755479 -9.4184,-0.910701 -8.4697,-5.791965 0.027,-5.14809 -2.4354,-11.43794 -1.8423,-17.63254 2.0034,-5.00357 -2.6003,-10.4027 0.1311,-13.10372 3.6929,0.46275 6.9856,-1.6636 8.1094,1.69354 6.6981,-0.56367 6.6977,6.79573 9.9419,10.97291 4.6901,0.4822 1.4669,-9.01196 3.7208,-12.34974 0.3586,-7.4043 -11.1799,-1.52965 -16.1305,-4.00116 -2.2206,0.007 -4.4335,-0.50264 -6.6515,-0.38385 z m 327.1836,0.0762 c -6.229,-0.01 -3.613,1.50387 0.5351,2.74414 -1.966,6.5317 -5.8234,8.45149 -10.1054,13.74609 -3.9595,2.48102 -9.1246,-4.57388 -11.2228,-8.05708 1.5297,-1.60286 -9.7354,-6.23589 -1.8805,-6.43598 4.1446,0.34616 6.5291,-1.95696 1.0631,-1.73074 -5.1585,0.29235 -15.2003,-0.3375 -17.3703,1.07378 5.0694,1.19457 7.992,6.53078 10.5179,9.88852 4.3192,6.14284 12.0307,9.80069 14.4238,16.8494 -6.593,0.7446 4.6754,10.071316 -3.9812,9.800243 -6.7815,1.2291 -3.477,3.546045 1.1209,2.401552 6.2168,-1.195771 12.4731,0.318764 18.6936,0.0081 2.1023,-1.804782 -7.9991,-2.05145 -6.5688,-6.521835 -2.0791,-7.07198 1.6328,-13.17102 4.4308,-18.68281 4.2519,-1.46244 8.4945,-9.17164 13.1383,-12.88021 8.6245,-3.09457 -5.5125,-0.92793 -8.1651,-1.91437 -1.5135,-0.40401 -3.0931,-0.2899 -4.6294,-0.28877 z m -147.8711,0.50195 c -6.5702,0.88304 -15.4154,-0.64969 -20.7383,1.01323 6.1708,-0.16944 8.1835,3.71026 7.339,9.32802 1.1831,4.72731 0.1969,10.6442 -0.1322,15.16241 3.0118,2.32844 1.8539,8.382 0.8944,11.584234 -7.7798,1.552254 -17.3603,2.950363 -23.7168,-2.906674 -0.1967,-3.5207 0.8227,-9.23875 -5.5963,-9.34616 -7.6888,-1.88156 3.2477,-2.83003 4.5063,-5.34861 8.7308,-1.97261 6.5116,-14.70941 -2.0546,-15.48318 -7.3193,-1.32794 -14.1849,-4.65935 -21.9,-3.34155 -7.2144,-0.11926 -16.6357,-1.45438 -22.5723,0.1 8.8073,-0.53275 7.9788,8.49282 7.3787,14.33248 1.1586,5.03258 2.2701,10.22737 1.9139,15.71464 2.7375,5.321322 -3.5985,6.866221 -5.6145,8.554768 6.7243,0.258019 13.5209,-1.09225 20.2261,0.427752 3.2018,0.935636 10.6479,0.273367 3.3628,-1.980893 -6.6791,0.233768 -6.3976,-7.932887 -5.8146,-12.502097 4.622,-0.38929 14.0578,2.78989 15.0592,3.09886 0.028,0.73156 2.9911,8.420367 -1.1221,10.503258 1.8498,2.816462 10.6936,-0.523868 15.1932,0.896521 10.2299,0.681915 20.4129,-0.133675 30.641,-0.437683 6.104,-0.138906 13.0243,1.107925 18.5887,-1.230256 4.0939,-3.75083 8.8226,-9.16165 11.2533,-11.80551 -1.0289,-2.14986 -3.0996,-2.29168 1.3919,-2.22418 1.2363,-5.67329 0.4496,-12.08439 -2.2851,-16.46991 -5.5472,-4.53338 -12.9994,-6.23559 -19.9464,-7.53309 -2.0782,-0.18648 -4.1714,-0.12593 -6.2553,-0.10638 z m 2.2363,3.78125 c 7.4342,-0.12728 12.3506,6.47522 15.7565,10.3449 2.1031,-0.54142 -2.4672,1.74731 0.3609,3.76772 -2.4471,5.48781 -2.3721,11.81874 -8.3586,15.16399 -1.8546,2.270781 -12.4728,5.882873 -10.2283,0.30862 0.621,-5.86105 0.2968,-10.88864 -1.4457,-16.22471 -3.5587,-2.60104 3.2854,-1.91411 -0.3315,-4.80386 1.9781,-3.79 -3.2872,-9.51698 4.2467,-8.55666 z m -59.0254,1.20313 c 5.8278,-0.25172 17.9728,4.48629 12.8238,11.56208 -6.1326,1.84548 -11.8597,6.33926 -18.8183,4.2064 -3.8736,-5.29382 -1.6714,-8.47827 -3.415,-14.25653 2.1958,-2.26801 6.5158,-0.63199 9.4095,-1.51195 z m -196.4101,11.77148 c 2.8403,3.41509 6.8111,10.44247 6.3945,12.90834 -4.8036,-0.68178 -16.1748,2.32459 -10.8495,-5.78976 0.9488,-3.42614 4.6714,-2.63988 4.455,-7.11858 z m 322.9375,-0.002 c 2.5839,3.37718 7.2499,10.57215 6.3466,12.90939 -4.9212,-0.63567 -16.1497,2.28026 -10.7757,-5.93695 1.1527,-3.46771 4.4724,-2.20268 4.4291,-6.97244 z" /><path
       id="text65"
       style="font-weight:bold;font-size:127.709px;line-height:1;font-family:'Needleteeth Regular';-inkscape-font-specification:'Needleteeth Regular,  Bold';text-align:center;letter-spacing:6.7503px;word-spacing:0px;text-anchor:middle;display:inline;fill:#e6e6ff;fill-opacity:1;stroke-width:0.414458;stroke-linecap:round;paint-order:markers stroke fill"
       d="m -1408.3984,-82.580078 c -1.0037,3.997786 -3.0933,8.205534 -4.4353,11.55919 0.9286,1.795253 -1.7586,2.267414 -0.8908,3.987238 -4.7202,0.258804 -1.6029,5.86224 -4.0749,8.172084 -1.5895,1.407005 -3.062,3.782665 -1.317,4.906092 -2.4722,1.762338 -4.8221,3.417956 -5.4648,6.478419 -1.3008,1.586468 -3.4224,4.568846 -0.819,6.039555 -4.0616,0.702274 -4.0095,5.77613 -7.0112,7.791758 -1.6929,3.439976 -4.6189,5.516756 -8.4391,5.235401 -3.6739,1.820203 2.9752,1.524998 4.2195,1.277857 4.636,-0.266596 9.1878,-1.107947 13.7711,-1.779219 3.7372,-0.571642 7.4099,0.458235 11.0733,0.967519 3.6405,-0.350905 0.022,-2.853244 -1.9986,-2.26044 -3.1225,0.67976 -7.1717,-2.778193 -3.399,-5.122382 2.9644,-2.071353 6.7128,-1.101664 10.0843,-1.325634 2.7943,0.07208 5.6182,0.279808 8.3875,-0.217963 2.8892,0.706461 5.76,4.640972 3.8836,7.404125 -1.2887,0.545259 -4.9018,1.532755 -1.3843,1.899426 3.8417,0.0045 7.5784,-1.163116 11.4374,-1.19557 3.4517,-0.148958 7.0087,-0.385974 10.278,0.934533 2.3562,1.213616 3.6329,-2.030345 0.5496,-1.748965 -4.0885,-0.187684 -7.4911,-2.513692 -9.1008,-6.244362 -2.471,-2.248822 1.149,-5.081144 -2.1577,-6.706999 -3.3756,-1.857286 -3.2335,-6.32598 -6.3118,-8.042116 -2.8886,-1.286884 0.8317,-3.238848 -1.3674,-5.304718 -1.4307,-1.778026 -2.6555,-2.578545 -1.9344,-4.849698 -1.3125,-2.682113 -3.6612,-4.757793 -4.3626,-7.786047 -1.8435,-2.666756 -2.7072,-5.714104 -5.0051,-8.252617 -0.8476,-2.323347 -3.2806,-3.507105 -4.2105,-5.816467 z m -50.2618,2.564453 c -4.0287,1.241142 -4.8039,6.147274 -8.0046,8.507603 -1.4302,1.334514 -3.6491,3.904737 -1.4224,5.591511 -3.5211,-0.463296 -6.276,2.626945 -7.9007,5.358875 -0.8074,3.517668 -4.7566,3.887455 -6.365,7.009587 -3.5741,1.93485 -5.3376,-3.832099 -8.7753,-4.404468 -3.3043,-2.209818 -4.9787,-6.255358 -8.6049,-8.135438 -1.132,-0.827996 -0.4667,-3.71634 -2.9078,-4.256149 -3.7548,-1.798013 -5.6037,-5.560923 -8.1961,-8.553112 -4.7898,-1.699034 -1.8109,5.892248 -2.1985,8.504248 1.2386,3.064929 -0.7987,6.463727 0.5786,9.595033 -0.4611,3.34127 1.0906,6.318906 -0.018,9.201835 0.8505,2.37097 1.0886,4.62441 1.3217,6.807496 2.8553,1.970813 -2.1291,3.020316 -1.0585,5.819349 -0.3102,2.668997 0.033,5.106892 -0.089,7.496013 -1.0675,2.395132 -6.9875,2.355064 -6.507,4.415199 4.0069,0.892376 7.8404,-1.237263 11.8641,-0.963341 5.8437,-0.110571 11.662,1.035521 17.5059,0.533103 -1.0676,-3.863772 -6.2818,-1.242132 -8.6486,-3.640995 -2.9394,-2.561082 -1.2281,-6.245914 -1.3506,-9.474942 -0.256,-3.740967 0.09,-7.579167 -1.7633,-11.007517 -0.9576,-2.216416 -1.6062,-7.521699 2.1662,-4.683234 1.8921,3.535955 6.0405,4.829927 8.2523,8.055875 3.4392,2.215518 5.6305,5.905972 8.4964,8.431606 3.2981,-0.08044 3.8352,-4.348731 5.8469,-6.273928 3.0331,-2.235963 4.4276,-5.870027 6.6362,-9.095666 0.8669,-2.0501 3.8905,-4.100324 4.0706,-0.466808 0.8216,3.092517 -0.3997,6.245636 1.0125,9.220943 -1.2546,2.585077 -0.7089,5.860706 -0.2306,8.760376 2.4841,2.896196 1.8895,7.070183 -1.9434,8.240781 -1.3641,0.416811 -6.4337,1.077688 -4.4713,2.736648 5.0519,0.805614 10.0638,-1.651036 15.1184,-0.461773 3.0249,0.485114 6.0967,0.25327 9.1443,0.42187 1.939,-0.0139 2.6705,-0.839188 0.3867,-1.466559 -4.0305,-1.574589 -6.6307,-5.505104 -6.7185,-9.793399 -0.1954,-3.215857 -1.0274,-5.705943 -0.35,-8.694926 -1.3094,-3.646466 -0.1139,-7.320974 -1.2671,-11.009414 -0.4438,-3.37307 -1.5837,-6.675525 -1.0508,-10.118119 0.5533,-2.864764 -0.6428,-5.515859 -1.4037,-8.125997 -0.051,-1.40426 0.2964,-3.238397 -1.155,-4.082166 z m 136.1485,3.306641 c -2.2631,-1.043511 -4.7475,2.259202 -1.0905,2.153791 4.7836,1.539235 -1.9857,5.630133 -0.287,8.469013 -2.304,2.388162 -5.6941,4.36814 -7.1434,7.890772 -1.4454,3.359581 -4.7912,3.29104 -6.7433,0.430699 -2.3762,-2.802183 -6.1131,-4.61991 -6.6589,-8.61306 -0.4708,-3.033463 -6.791,-4.198479 -4.1364,-7.677251 1.5275,-1.214028 8.0639,0.95302 6.1115,-2.246869 -5.0295,-0.01063 -10.0629,-0.212249 -15.0638,0.381091 -2.0665,0.69871 -6.4678,-1.415375 -7.0636,0.654403 2.7231,0.772229 5.4589,1.524395 6.1286,4.723095 2.622,2.643067 4.2087,6.023981 6.686,8.770329 2.7542,3.26049 5.0045,6.738755 8.2492,9.584542 2.7487,2.240814 5.5201,4.617489 5.521,8.492353 0.9582,1.847729 -2.6253,3.395042 -1.2001,6.034611 0.5132,2.548967 3.058,6.421606 -1.2539,6.914978 -1.6409,-0.08437 -6.7663,1.662093 -4.1139,3.222933 3.6576,0.248629 7.2875,-0.800063 10.9653,-0.624553 4.3814,-0.0043 8.7343,0.560089 13.102,0.823888 0.9885,-3.41333 -5.7746,-1.864536 -5.6504,-5.669675 -2.5449,-2.982048 -0.726,-6.387125 -1.3889,-9.792391 -0.5483,-4.491148 1.4001,-8.661276 4.1011,-12.111747 1.4364,-2.06565 0.585,-4.493951 3.5677,-4.717696 2.7875,-2.731973 4.7213,-6.243156 7.3907,-9.126118 1.7335,-2.926099 3.5251,-5.674105 6.9452,-6.573441 -1.5851,-1.859735 -5.7146,0.175116 -8.2954,-0.778675 -2.8875,-0.261221 -5.7721,-0.688055 -8.6788,-0.615022 z m -83.8613,21.394531 c 1.9168,3.114994 3.8684,7.611123 5.1819,10.166484 -1.2399,1.949272 4.6492,5.707327 0.08,5.198861 -3.7315,-1.244234 -9.7296,2.072259 -11.9753,-1.726877 0.7883,-2.985634 1.0511,-6.671696 3.6454,-8.643191 2.3732,-0.792587 1.5199,-4.743934 3.0679,-4.995277 z" /><path
       id="path1-3"
       style="font-weight:bold;font-size:127.709px;line-height:1;font-family:'Needleteeth Regular';-inkscape-font-specification:'Needleteeth Regular,  Bold';text-align:center;letter-spacing:6.7503px;word-spacing:0px;text-anchor:middle;display:inline;fill:#e6e6ff;fill-opacity:1;stroke-width:0.414458;stroke-linecap:round;paint-order:markers stroke fill"
       d="m -1204.0977,-86.511719 c -2.9134,0.301204 -3.4275,4.157709 -4.1054,6.362694 -0.4496,2.802194 -3.5628,5.141415 -2.0275,8.022492 0.877,2.72642 -2.2211,3.680766 -3.108,5.686869 -0.6416,2.221203 -3.763,4.647036 -0.5481,6.404923 2.1479,1.294822 -2.4846,0.331265 -3.0283,1.972949 -2.1368,2.168614 1.2431,4.289816 1.0067,6.685848 0.2198,2.42614 2.3275,4.724755 0.7367,6.880426 0.7421,1.055347 5.4612,0.812444 2.6164,2.309709 -1.9354,0.569407 -4.4853,-0.483905 -5.9364,1.303674 -1.5384,2.49287 0.2464,5.481212 -0.7383,8.125216 -0.2286,2.17732 -1.9635,4.718554 -4.4317,4.214281 -2.5451,-0.342883 -5.3797,-0.902911 -7.69,0.585607 -2.7058,0.970797 -5.3768,-1.080601 -8.1345,-0.427551 -2.792,-0.008 -6.3803,-0.939483 -7.0977,-4.059172 -0.9468,-2.449632 0.1624,-4.779112 0.8193,-7.078365 -0.2836,-1.396287 -0.8881,-2.200928 0.2315,-3.377996 0.1089,-2.713187 -1.6587,-5.273692 -0.8828,-7.999618 1.1053,-1.594136 2.2738,-3.788229 0.3041,-5.209489 -0.4473,-2.500782 4.0304,-3.799003 1.5796,-6.402528 -0.9509,-3.011923 0.5649,-6.181743 2.5679,-8.389907 1.6502,-3.219415 -3.7189,-3.178846 -4.767,-0.946498 -1.7591,2.046919 -4.8303,2.681033 -5.1208,5.830042 -1.227,2.360675 -4.061,3.507214 -4.2559,6.548628 -1.0332,1.339109 -2.2158,2.878653 -0.1402,3.994299 1.0865,1.27166 -1.9837,1.611881 -1.8469,3.326439 -1.5854,3.791955 -0.3139,8.368191 -2.7109,11.864608 -1.5999,1.271676 -1.2335,3.356571 0.8801,3.624948 1.3467,2.413338 -3.8287,2.234126 -2.5354,5.068727 0.7557,2.289118 -0.1787,4.31152 -1.5891,5.969484 -0.6604,3.349019 2.4557,4.872601 5.3649,4.020926 3.5584,-0.607359 7.1803,-0.207971 10.7596,-0.540571 2.4193,-1.676694 5.1375,0.30931 7.6302,0.619775 5.1417,-0.195302 10.2946,-0.222071 15.4277,-0.641638 2.1335,0.05839 4.5658,-0.246005 6.4612,0.811188 1.8308,2.336515 0.1369,5.489901 -0.4645,7.94664 -1.3802,1.707054 -0.936,4.0618215 0.6921,5.2808632 0.6066,3.6485392 -1.6766,7.36392872 -5.0364,8.78089653 -2.7403,1.53739747 -5.9172,2.45133677 -8.2384,4.63559547 -0.7144,2.2205316 2.7685,2.5241424 4.2312,1.90659 2.5051,-0.5881506 5.106,-0.7857992 7.5829,-1.5339601 3.3114,-0.5066153 6.6803,-0.3170567 10.0051,-0.7171184 2.9572,-0.2152526 5.6589,1.2573144 8.6218,1.1502419 3.0269,0.1435217 6.0624,0.3941238 9.0533,0.8017868 2.5948,-0.3493249 1.7463,-3.2007721 -0.3946,-3.4075659 -2.5359,-1.5632241 -6.1406,-0.8665965 -8.3052,-2.86062651 -0.9699,-2.00936119 1.2606,-4.36590679 -0.2676,-6.26896439 -1.6224,-2.1393313 -0.1256,-4.7260416 0.089,-7.0259616 -0.5908,-2.487761 -1.1651,-5.630581 1.0197,-7.550158 1.7949,-2.330603 4.9088,-1.352622 7.3512,-1.048449 3.2346,0.199127 6.6569,-2.099846 9.7332,-0.151693 1.9756,1.163584 5.9201,2.372601 6.8114,-0.591056 0.1562,-2.002215 -0.3069,-4.810719 1.8884,-5.688716 1.1388,-1.904428 -1.9018,-4.183166 -3.5673,-2.838297 -3.2389,0.98888 -6.3678,2.790971 -9.8725,2.431658 -3.4276,0.02139 -6.8687,-0.617111 -10.2737,-0.05475 -3.2214,-0.352216 -2.6098,-4.607912 -3.2979,-6.98149 -1.0264,-1.573771 -0.8381,-3.435092 1.3641,-3.658579 2.448,-0.925698 -0.5316,-3.858315 -0.3883,-5.705428 -0.9136,-2.331658 -2.9237,-4.752113 -0.5109,-7.019447 1.1416,-1.44417 -0.1539,-3.059991 1.8816,-4.076235 0.9734,-1.867617 -0.3424,-4.061316 -0.6075,-6.018351 -1.0914,-3.58702 -1.3269,-7.331766 -1.7691,-11.02808 -0.5133,-2.308472 -0.2184,-4.761627 -1.1661,-6.984669 -1.1988,-2.251204 1.8308,-5.078799 -0.5373,-6.63959 -0.4026,-0.207744 -0.8683,-0.304202 -1.3186,-0.245507 z" /><path
       id="path1-38"
       style="font-weight:bold;font-size:127.709px;line-height:1;font-family:'Needleteeth Regular';-inkscape-font-specification:'Needleteeth Regular,  Bold';text-align:center;letter-spacing:6.7503px;word-spacing:0px;text-anchor:middle;display:inline;fill:#e6e6ff;fill-opacity:1;stroke-width:0.414458;stroke-linecap:round;paint-order:markers stroke fill"
       d="m -1156.502,-81.716797 c -3.2095,0.426277 -6.4725,-0.193116 -9.6683,0.429481 -1.8508,0.290762 -3.7145,0.0675 -5.5616,-0.03587 -2.4609,-0.0041 -4.9215,-0.178746 -7.3823,-0.07238 -1.7708,1.477985 0.513,3.862031 0.5856,5.655938 0.7869,2.053986 -0.183,4.431359 1.059,6.374649 0.4568,1.303156 1.9658,4.990847 3.3582,2.655498 0.4438,-1.740666 -0.1508,-3.606328 0.6237,-5.297128 0.094,-2.002403 3.0018,-3.662474 1.8166,-5.567438 1.1608,0.525231 2.5709,-0.13205 3.8197,-0.281735 1.6749,-0.313176 3.5085,-0.623476 5.1288,0.03654 2.0818,1.283593 1.1643,3.96099 1.6611,5.949699 0.4503,1.471532 -0.6006,2.735622 -0.7534,3.930098 1.9692,1.525809 -0.1244,3.357698 -0.03,5.328968 -0.5124,1.694805 -0.1474,3.274508 0.5664,4.763939 -0.045,1.777862 -0.159,3.806914 -0.1714,5.716105 0.2969,1.941728 1.0272,4.442601 -0.7956,5.86921 -1.0732,1.667917 -1.6125,4.436508 -4.0967,4.408479 -1.0039,-0.167464 -3.2114,1.649409 -1.2397,1.700946 3.1477,-0.27021 6.1466,-1.436709 9.3124,-1.600221 4.5999,-0.601156 9.3971,-0.713129 13.8393,0.815589 1.3768,-0.133626 -0.8191,-1.648286 -1.5122,-1.362238 -1.8351,-0.755138 -5.1197,-0.712585 -5.4145,-3.14999 0.1683,-1.628714 -2.4655,-2.819227 -0.8653,-4.21963 1.5072,-1.271878 -0.6612,-2.621512 -0.7511,-4.056798 -0.481,-1.648398 -0.4946,-3.451338 0.076,-5.07951 -1.0366,-2.113626 -1.1646,-4.619253 -0.4802,-6.859874 -0.3388,-2.195726 0.776,-4.922847 -0.3701,-6.717358 -0.2359,-1.600975 -0.7672,-3.457647 -0.2137,-5.009359 1.5355,-1.690453 3.7151,0.384859 5.4662,-0.56869 1.4474,-0.428022 0.4602,1.856039 1.9445,1.902713 1.1192,0.636946 4.0742,0.211219 4.0106,1.46319 -0.8096,1.586653 1.7929,2.544183 1.5841,4.24658 1.285,1.758333 1.0705,4.55919 2.7953,5.814714 2.269,-0.247856 0.9893,-3.228039 1.4008,-4.73108 0.025,-1.779438 -0.094,-3.562347 0.5978,-5.242418 0.4654,-1.390013 0.5762,-2.883576 0.5963,-4.311408 0.6215,-2.363695 -2.5253,-2.377927 -4.0717,-2.195398 -2.023,0.04033 -4.1714,0.903896 -6.0883,-0.131051 -2.0953,-0.51008 -4.2816,-0.0183 -6.3844,-0.486908 -1.4611,-0.104404 -2.9277,-0.141281 -4.3917,-0.08585 z m 32.502,0.04102 c -1.5989,-0.634881 -2.2359,2.065669 -0.2002,1.532134 2.301,0.329364 4.2882,2.572688 3.4699,4.939557 -0.561,1.685958 -0.1953,3.670551 0.7833,4.800194 -0.228,1.960299 -0.3759,3.927933 -0.7532,5.85554 -0.3754,1.696437 1.9834,2.732211 0.5801,3.952058 -0.065,1.777579 0.3524,3.498535 -0.4733,5.09999 -0.1725,1.816125 3.8174,0.957641 1.5227,2.336802 0.4123,1.581918 -1.4558,2.699694 -0.6247,4.274512 0.2302,1.884623 -0.4435,4.283072 -2.4784,4.856675 -1.3743,1.009233 -3.9072,0.614482 -4.5011,2.521489 1.3503,1.272989 4.3435,0.351908 6.2903,0.185779 3.8627,-0.713897 7.766,0.184962 11.6459,0.244843 1.8543,0.161278 3.6861,0.50324 5.5329,0.726234 2.0224,-1.109138 -1.0746,-1.878323 -2.0568,-1.936672 -2.026,-0.729943 -3.7609,-2.42175 -4.4406,-4.458123 -0.017,-1.992709 -0.8536,-3.785002 -1.0453,-5.731021 -0.1239,-2.531087 0.4388,-5.073103 -0.1,-7.585877 -0.1452,-1.427632 -0.3452,-3.101239 0.5316,-4.323401 1.9236,-1.133245 4.1536,0.709155 6.1806,-0.172725 2.0919,0.07653 4.1606,0.435222 6.2498,0.548177 2.1015,0.823837 1.439,3.454022 1.6435,5.207011 0.2142,1.455003 1.387,3.201638 0.1581,4.48822 -2.3564,0.992785 1.9315,2.593391 0.1491,3.756517 -0.4055,0.401104 0.9163,1.859129 -0.3609,1.979187 1.4203,1.334747 2.2783,3.954638 0.6932,5.486866 -0.643,0.336684 -3.6191,1.638439 -1.5546,1.983556 2.2988,0.01845 4.4765,-1.048203 6.7981,-0.791961 2.8111,-0.151158 5.6776,-0.442656 8.4328,0.3191 1.4541,0.06205 4.0568,1.068778 4.8035,-0.284025 -1.1728,-1.305027 -3.4396,-1.113021 -5.0292,-1.867506 -1.7358,-0.07093 -2.2231,-1.574661 -2.5324,-2.862072 -1.0733,-0.418028 -1.4864,-1.135985 -0.4762,-1.825173 -0.5219,-0.662664 -1.8438,-0.86911 -0.5683,-1.34882 0.6447,-3.105062 -0.8355,-6.162689 -0.6124,-9.280641 -0.1141,-2.179016 -0.2749,-4.22184 0.01,-6.392585 -0.6133,-2.014462 -0.4621,-4.104154 -0.6845,-6.178072 -1.1216,-1.98042 1.0767,-3.990418 0.2567,-6.021988 0.2573,-1.479976 4.1231,-2.200712 2.3402,-3.707616 -2.2817,-0.117211 -4.4891,1.236807 -6.7678,0.578317 -2.6745,0.01468 -5.514,0.898178 -8.0518,-0.337323 -1.0468,-0.676716 -3.9058,0.184999 -1.8439,1.299368 1.6231,0.586819 4.2609,1.094802 4.0339,3.344746 -0.8428,1.447274 2.3918,2.296803 0.579,2.859411 -1.2428,1.410089 0.4067,3.348339 1.2975,3.791133 -1.1894,0.961628 -1.7819,2.605216 -3.7071,2.096439 -1.6288,0.26499 -3.0697,0.389825 -4.7333,0.127681 -1.679,-0.107188 -3.3873,0.37319 -5.0371,0.0757 -1.0876,-1.230957 -0.097,-3.293089 -1.1103,-4.606133 -0.2226,-2.172034 -0.3323,-4.52876 0.7608,-6.484809 0.5263,-0.798399 3.7395,-1.262745 2.2546,-2.201769 -1.9337,-0.370186 -3.9145,0.313589 -5.8523,-0.208651 -1.7434,-0.488046 -2.7158,1.770642 -4.1601,0.429219 -2.3761,-0.623565 -4.9786,0.112303 -7.2401,-1.089489 z" /></g></svg>
