<?xml version="1.0" encoding="UTF-8" standalone="no"?>
<!-- Created with Inkscape (http://www.inkscape.org/) -->

<svg
   width="607.80389mm"
   height="345.26196mm"
   viewBox="0 0 607.80391 345.26195"
   version="1.1"
   id="svg1"
   xml:space="preserve"
   inkscape:version="1.3 (0e150ed, 2023-07-21)"
   sodipodi:docname="bbff24-paint-deets.svg"
   inkscape:export-filename="paint-location.svg"
   inkscape:export-xdpi="300"
   inkscape:export-ydpi="300"
   xmlns:inkscape="http://www.inkscape.org/namespaces/inkscape"
   xmlns:sodipodi="http://sodipodi.sourceforge.net/DTD/sodipodi-0.dtd"
   xmlns:xlink="http://www.w3.org/1999/xlink"
   xmlns="http://www.w3.org/2000/svg"
   xmlns:svg="http://www.w3.org/2000/svg"><sodipodi:namedview
     id="namedview1"
     pagecolor="#ffffff"
     bordercolor="#000000"
     borderopacity="0.25"
     inkscape:showpageshadow="2"
     inkscape:pageopacity="0.0"
     inkscape:pagecheckerboard="0"
     inkscape:deskcolor="#d1d1d1"
     inkscape:document-units="mm"
     inkscape:zoom="0.10149539"
     inkscape:cx="-5241.6174"
     inkscape:cy="1379.373"
     inkscape:window-width="1888"
     inkscape:window-height="1027"
     inkscape:window-x="0"
     inkscape:window-y="25"
     inkscape:window-maximized="0"
     inkscape:current-layer="g4" /><defs
     id="defs1"><linearGradient
       id="linearGradient71"
       inkscape:collect="always"><stop
         style="stop-color:#00255c;stop-opacity:1;"
         offset="0"
         id="stop71" /><stop
         style="stop-color:#000029;stop-opacity:1;"
         offset="1"
         id="stop72" /></linearGradient><radialGradient
       inkscape:collect="always"
       xlink:href="#linearGradient71"
       id="radialGradient75"
       gradientUnits="userSpaceOnUse"
       gradientTransform="matrix(-1,0,0,-0.3885532,-3322.2481,-102.53906)"
       cx="-1306.3488"
       cy="-80.288345"
       fx="-1306.3488"
       fy="-80.288345"
       r="294.45432" /><filter
       inkscape:collect="always"
       style="color-interpolation-filters:sRGB"
       id="filter78"
       x="-0.011772481"
       y="-0.031330763"
       width="1.0235516"
       height="1.0626615"><feGaussianBlur
         inkscape:collect="always"
         stdDeviation="2.7415502"
         id="feGaussianBlur78" /></filter></defs><g
     inkscape:groupmode="layer"
     id="g75"
     inkscape:label="date copy"
     transform="matrix(1,0,0,1.4553934,2317.3454,272.40066)"
     style="display:inline;stroke-width:0.828915"><path
       id="path78"
       style="display:inline;mix-blend-mode:normal;fill:none;stroke:#00aaff;stroke-width:0.828915;stroke-opacity:1;filter:url(#filter78)"
       inkscape:label="glow"
       d="m -1818.9498,-180.14499 c -0.3555,-0.0434 -0.7612,-0.0342 -1.2221,0.0249 -3.6821,0.47169 -4.0409,4.19816 -0.7452,7.74511 1.4538,1.56461 2.33,3.45145 1.9466,4.1923 -0.815,1.57433 2.1488,6.09032 4.0137,6.11605 1.6443,0.0227 4.4085,-4.68443 4.4349,-7.5516 0.011,-1.21798 -1.3106,-3.16422 -2.9378,-4.32437 -1.6272,-1.16012 -3.2096,-3.10049 -3.5166,-4.31231 -0.2927,-1.15529 -0.9069,-1.75971 -1.9735,-1.89003 z m 25.5385,1.01727 c -2.5406,0.21316 -5.1486,3.33994 -4.9305,6.36141 0.1892,2.62334 0.6747,3.01866 3.5523,2.89132 1.8332,-0.0811 3.7926,-0.69665 4.3537,-1.36843 1.4712,-1.76095 0.1392,-7.22485 -1.8991,-7.78843 -0.3517,-0.0973 -0.7135,-0.12629 -1.0764,-0.0959 z m -42.4584,2.20072 c -5.7573,-0.0794 -7.1061,8.1671 -1.8314,11.19779 0.5226,0.30022 0.9572,0.51194 1.3493,0.61924 0.294,0.0805 0.8289,-0.14939 0.8289,0.06 0,0.15707 0.096,0.18312 0.2604,0.11113 0.4919,-0.21599 1.5902,-1.31516 2.5053,-2.41056 2.2436,-2.68554 2.3898,-3.36864 1.341,-6.27299 -0.9298,-2.57512 -1.8647,-3.26891 -4.4535,-3.30462 z m -74.675,0.20203 c -1.3367,0.15492 -2.217,1.76301 -1.5085,4.10211 0.3573,1.17953 2.5941,1.88505 1.8123,1.88505 0.7765,0.0703 1.6508,-0.42436 2.3994,-1.50371 0.8063,-1.16271 0.7922,-1.98198 -0.049,-3.03655 -0.8861,-1.10953 -1.8521,-1.53985 -2.6541,-1.4469 z m -32.2037,0.83512 c -0.8239,-0.0876 -1.6021,0.52344 -2.0366,1.86446 -0.7367,2.2734 0.2807,4.25307 1.8092,4.47955 0.5096,0.0755 1.0753,-0.0442 1.6526,-0.41224 1.5241,-0.97171 1.7008,-1.68993 0.8862,-3.60501 -0.618,-1.45292 -1.4876,-2.23914 -2.3114,-2.32676 z m 72.0064,3.62773 c -0.1502,-0.065 -0.3198,-0.0643 -0.5049,0.008 -0.6843,0.26884 -1.2511,1.21735 -1.2593,2.10769 -0.01,0.89039 0.5409,1.85381 1.2201,2.14142 0.1837,0.0778 0.5048,0.15391 0.5048,0.0217 0,-0.39568 0.7437,-0.95532 0.7545,-2.129 0.011,-1.17343 -0.2648,-1.95485 -0.7152,-2.14994 z m -61.928,3.19385 c -1.2109,-0.2787 -1.842,0.70294 -1.8624,2.92363 -0.019,2.09555 0.6894,3.29113 1.9368,3.29113 h 5e-4 c 0.4158,0 0.8906,-0.0958 1.418,-0.33519 2.0908,-0.94926 2.0444,-3.6797 -0.09,-5.18009 -0.5313,-0.37377 -0.9994,-0.60659 -1.403,-0.69948 z m 178.7586,0.54964 c -0.2923,-0.0445 -0.6548,-0.0231 -1.1012,0.0483 -2.6701,0.42676 -3.4818,4.29866 -1.6108,5.74785 -0.146,0.81449 0.076,1.82719 0.8072,3.08093 0.5421,0.92948 0.9141,1.4099 1.3581,1.47673 0.444,0.0668 0.9595,-0.28012 1.7869,-1.00342 1.2143,-1.0616 1.6719,-2.41566 1.2671,-3.75166 -0.2559,-0.84974 -0.8396,-1.36579 -1.5657,-1.59852 0.049,-0.4729 0.1588,-0.74426 0.1648,-1.39222 0.016,-1.74826 -1.1064,-1.99084 -1.1064,-2.60798 z m 16.9468,0.0256 c -0.254,0 -0.766,1.27372 -1.3384,2.83522 0.453,-0.9664 1.2803,-2.84365 1.3384,-2.83522 z m -1.3384,2.83522 c -1.0111,2.15676 -2.1712,4.67069 -3.4014,7.25795 0.03,0.092 0.048,0.0597 0.079,0.16298 0.3984,1.31534 2.0521,-3.95644 3.3223,-7.42093 z m -3.4014,7.25795 c -0.2306,-0.72104 -0.4208,-1.22705 -0.6206,-1.27647 -0.2254,-0.0557 -0.4782,0.30406 -0.8656,1.05243 -0.4792,0.92617 -0.4641,1.87432 -0.1003,2.57744 -1.397,-0.50464 -2.5482,0.21032 -4.2643,2.13999 -1.9838,2.23084 -2.9455,2.40174 -8.756,1.55876 -6.2087,-0.90078 -6.5288,-1.10279 -6.5149,-4.14401 0.018,-4.08971 -0.8568,-5.70329 -3.7114,-6.83791 -1.5501,-0.6161 -2.8822,-0.27578 -4.1062,1.04994 -1.7095,1.8516 -1.8469,1.72166 -2.4257,-2.30617 -0.032,-0.22578 -0.1408,-0.21909 -0.2108,-0.3295 0.5176,-0.70482 1.0212,-1.41523 1.5115,-1.92163 -0.4501,-0.32247 -0.8131,-0.49831 -1.1643,-0.51237 -0.6875,-0.0275 -1.3584,0.52922 -2.6897,1.64361 -1.4223,1.19071 -2.0513,2.9122 -2.172,5.37006 -1.6703,2.23536 -3.4343,4.38368 -4.7222,4.06944 -3.0001,-0.73198 -3.891,-0.38889 -5.9738,2.29978 -1.7011,2.19593 -3.4587,3.14637 -5.7583,3.11466 -1.8201,-0.0251 -3.8565,0.74333 -4.5253,1.70752 -1.811,2.61122 -12.2913,1.48337 -18.2221,-1.96104 -3.5006,-2.03307 -4.4926,-3.14067 -3.682,-4.11098 1.9241,-2.30325 1.2563,-6.64108 -1.4304,-9.28895 -4.5108,-4.44583 -6.286,-2.93209 -6.3629,5.4258 -0.027,2.91831 0.4856,4.40353 1.6903,4.89782 0.9511,0.39017 2.3932,0.97319 3.205,1.29564 1.1419,0.45369 0.9186,1.08881 -0.986,2.80682 -1.8417,1.66124 -2.923,1.90942 -4.2948,0.98602 -2.444,-1.64491 -5.4549,-0.36667 -3.8551,1.63651 1.9513,2.44341 1.3185,5.78842 -1.1286,5.96551 -7.2275,0.52299 -9.4043,-1.78427 -7.6383,-8.09592 1.0461,-3.73835 1.6188,-4.33256 3.8675,-4.0176 2.0426,0.28608 2.7123,-0.21249 2.9631,-2.20391 0.3373,-2.67802 -2.218,-4.92303 -3.2763,-2.87854 -0.953,1.84112 -3.3735,1.30445 -5.5459,-1.22995 -2.9963,-3.49564 -5.3206,-3.83052 -9.2377,-1.32938 -1.9407,1.23931 -4.1613,2.24477 -4.9356,2.23409 -0.7743,-0.0107 -2.9055,2.28278 -4.7361,5.09594 -1.8305,2.81314 -3.7902,5.5096 -4.3543,5.99249 -1.7139,1.46918 -3.5053,0.98635 -3.4876,-0.94057 0.01,-1.00165 -0.4308,-1.82748 -0.9762,-1.835 -0.5454,-0.007 -0.9957,0.5004 -1.0015,1.12877 -0.01,0.62839 0.4326,1.48682 0.9741,1.90707 1.2524,0.97166 1.2565,5.48183 0,5.4645 -0.5172,-0.007 -2.1622,-1.43157 -3.6556,-3.16472 -2.3925,-2.77665 -3.2698,-3.06533 -7.3804,-2.4308 -2.7782,0.42882 -5.4893,0.16647 -6.7009,-0.64907 -1.6795,-1.13042 -2.2581,-0.94374 -3.3109,1.06911 -1.7071,3.26444 -3.934,3.04121 -6.72,-0.6725 -1.2698,-1.69259 -3.4172,-3.08291 -4.7914,-3.10187 -1.3697,-0.0189 -3.4709,-1.18716 -4.669,-2.59662 -1.7918,-2.10794 -2.5517,-2.32496 -4.2809,-1.2225 -1.7825,1.13649 -1.9325,1.73902 -0.988,3.95937 0.9605,2.25804 0.7236,3.02084 -1.7219,5.538 -2.8358,2.91914 -2.8359,2.91839 -23.8905,2.06508 -17.5216,-0.71009 -21.4785,-1.20101 -23.581,-2.92931 -2.3296,-1.91504 -2.7181,-1.92742 -4.9806,-0.15695 -1.3495,1.05613 -2.8741,1.59392 -3.3879,1.19517 -0.514,-0.3987 -6.436,-1.60446 -13.1604,-2.679 -11.6954,-1.86918 -12.2943,-1.8562 -13.809,0.29009 -1.0074,1.42828 -3.1786,2.34765 -5.9743,2.53093 -5.3801,0.35271 -10.8275,-1.16158 -12.1373,-2.74929 -3.1766,2.04227 -10.2218,4.75283 -22.2735,4.57612 -0.4979,-0.007 -0.7209,-0.0337 -1.2067,-0.0419 -0.2537,-0.55186 -0.5603,-0.94345 -0.9364,-1.27221 -1.0048,-0.87855 -2.4129,-1.31342 -3.1279,-0.96614 -0.7149,0.34728 -1.5139,-0.17523 -1.7751,-1.16214 -1.697,-6.41254 -1.5342,-6.21948 -3.0458,-3.64442 -0.7699,1.3113 -1.1447,3.33175 -0.8325,4.49055 0.214,0.79417 0.088,1.54331 -0.2837,2.20817 -1.3558,-0.0552 -3.1126,-0.0832 -4.2974,-0.14877 -0.8033,-1.90635 -0.709,-3.84704 0.4294,-8.27665 0.8347,-3.24742 1.4957,-7.16783 1.4697,-8.7116 -0.048,-2.80693 -0.048,-2.8068 -1.9596,0.25529 -1.0511,1.68414 -1.9089,4.25361 -1.9089,5.70986 0,1.80953 -0.7026,2.78137 -2.2252,3.07027 -1.7126,0.32538 -2.1634,1.1196 -1.9487,3.45091 0.1941,2.108 0.01,2.53172 -0.6067,1.39436 -0.7308,-1.34885 -1.3274,-1.26939 -3.4257,0.45555 -0.674,0.55407 -1.2877,0.93038 -1.8365,1.15078 -0.897,-0.3362 -1.6662,-0.54068 -2.3301,-0.57237 -0.2941,-0.49279 -0.4718,-1.18953 -0.4806,-2.14107 -0.011,-1.16255 -0.44,-2.6272 -0.9545,-3.25455 -0.3985,-0.48591 -1.405,0.36927 -2.435,1.46607 -1.1189,-2.90871 -7.6989,-0.9234 -11.0536,3.78894 -2.0212,2.83932 -5.1186,3.51957 -5.7557,1.2644 -0.2182,-0.77206 0.6103,-2.76497 1.8413,-4.42842 2.6645,-3.60054 2.1591,-5.14727 -1.664,-5.09452 -0.057,7.8e-4 -0.1057,-0.0159 -0.1618,-0.017 -0.5134,-0.22648 -1.1231,-0.35032 -1.788,-0.39732 -0.7252,-0.33493 -1.28,-0.84309 -1.4914,-1.49555 -0.5059,-1.5613 -0.918,-1.65286 -2.067,-0.45839 -1.1444,1.18968 -1.7773,1.08175 -3.129,-0.53616 -0.7107,-0.85067 -0.5013,1.59162 0.041,4.44368 -1.0001,0.68177 -1.8992,1.48591 -2.482,2.48513 -1.3087,2.2439 -4.2615,1.57735 -4.2845,-0.96721 -0.01,-0.88079 -2.1736,-4.1468 -4.8121,-7.2576 -3.3071,-3.90096 -9.5554,-5.09202 -10.6882,-5.41373 -2.3385,0.25441 -4.4785,1.05207 -5.4338,1.05207 h -5e-4 c -1.0876,0 -3.1573,1.92426 -5.2095,3.03442 -3.9244,2.12328 -5.5553,5.04787 -3.9114,7.01579 0.5382,0.64423 3.6991,1.28818 7.0249,1.43093 5.5741,0.23932 9.1629,1.93715 9.1849,4.34568 0.01,0.53864 -2.5344,1.92293 -5.643,3.07596 -3.8062,1.41178 -9.3194,-10.58586 -11.4407,-7.76925 -1.957,2.59851 -4.0915,4.19547 -5.6368,4.21679 -1.368,0.0189 -2.7589,0.58558 -3.0898,1.25801 -0.3288,0.67237 -2.0497,1.24212 -3.8194,1.26653 -2.7356,0.0377 2.0175,-6.7233 -4.8519,-2.10875 -2.9966,2.01235 -4.5674,1.3276 -4.9263,-2.14604 -0.276,-2.6715 -0.8584,4.19226 -3.7879,5.6147 -0.5317,-1.81826 -2.3497,-3.82888 -5.1852,-3.60856 -3.5079,0.27252 -5.7009,-0.048 -5.7108,-0.83264 -0.01,-0.70112 -1.4845,-1.25407 -3.2845,-1.22924 -1.8,0.0248 -3.8138,-0.6031 -4.4757,-1.39542 -0.936,-1.12043 -1.465,-1.11328 -2.3802,0.0327 -0.6471,0.81038 -1.8683,1.48621 -2.7136,1.50194 -0.8454,0.0157 -2.6467,0.75657 -4.0023,1.64575 -1.3419,0.88018 -9.9425,5.38934 -11.0624,1.9266 -1.8823,-5.81975 -8.4148,-8.49522 -15.2378,-8.1719 -8.6725,0.41096 -3.656,4.14999 -3.8427,4.14471 -4.5662,-0.12928 -1.9789,-3.93425 -6.428,1.31375 -2.001,2.35923 -3.4041,4.47872 -4.1263,5.90834 -0.7543,-0.28636 -1.2996,-0.66439 -1.4625,-1.16711 -0.3232,-0.99732 -4.4163,-13.61698 -5.9335,-13.61971 -1.5173,-0.003 -3.8538,-2.4588 -5.1376,-1.57722 0,0 -4.0419,5.51201 -7.5944,5.21454 -1.3365,-0.11191 -2.0877,-2.37577 -2.0877,-2.37577 -1.9765,-2.24918 -4.3281,1.49396 -1.6635,5.09453 1.231,1.66346 2.0594,3.65634 1.8412,4.42841 -0.6371,2.25517 -3.7345,1.57494 -5.7557,-1.2644 -3.6611,-5.14281 -12.8935,-12.12232 -12.932,-7.93897 -0.01,0.9003 0.983,2.30664 2.2029,3.12389 3.0655,2.05384 4.7484,5.103 3.5931,6.5116 -0.5145,0.62735 -0.9443,2.092 -0.955,3.25456 -0.03,3.2544 -1.8461,3.86496 -4.6467,1.56265 -2.0983,-1.72493 -2.6954,-1.80441 -3.4262,-0.45555 -0.6165,1.13736 -0.8002,0.71366 -0.6061,-1.39435 0.2147,-2.33133 -0.2359,-3.12552 -1.9488,-3.45091 -1.5226,-0.28889 -2.2273,-1.26071 -2.2257,-3.07028 0,-1.45625 -0.8578,-4.02571 -1.9089,-5.70986 -1.9115,-3.06207 -1.9118,-3.06222 -1.9596,-0.25529 -0.026,1.5438 0.635,5.46419 1.4697,8.7116 1.1712,4.5572 1.2573,6.48423 0.3767,8.44531 -0.9383,2.08942 -1.4921,2.30494 -3.1181,1.21043 -1.2598,-0.84792 -1.7719,-2.09619 -1.4103,-3.43849 0.3122,-1.15881 -0.062,-3.17925 -0.832,-4.49055 -1.5116,-2.57508 -1.3493,-2.76815 -3.0463,3.64443 -0.2612,0.9869 -1.0602,1.50941 -1.7751,1.16213 -0.7151,-0.34728 -2.1226,0.0876 -3.1274,0.96615 -1.5082,1.31841 -14.7524,1.58169 -15.0921,11.24075 -0.2322,6.60212 8.9706,2.27369 11.2995,11.42185 1.2446,4.8888 -4.931,-0.28489 -5.7681,6.45514 -0.4769,3.83982 -10.3027,13.772558 2.8009,11.006769 5.0555,-1.067079 10.0685,9.231155 2.8618,8.500695 -8.2449,-0.835692 -4.6332,9.38306 -5.2524,9.374518 -4.8911,-0.06747 -5.4267,0.175469 -5.1836,2.356589 0.4082,3.660805 6.1323,9.42149 8.7994,8.855763 1.6095,-0.341395 2.2308,0.109254 2.217,1.60633 -0.01,1.143909 1.2536,3.747926 2.8091,5.786196 3.1606,4.141321 3.1372,25.98971 -0.069,29.825042 -1.5247,1.825056 -1.8645,1.870587 -2.3358,0.314591 -0.7815,-2.579766 -4.9223,-1.629485 -5.3966,1.238479 -0.5423,3.278792 2.4755,5.857869 4.9837,4.258691 2.5766,-1.642776 4.7497,-0.448428 4.7217,2.595906 -0.025,2.676534 -1.4788,3.277409 -2.5694,1.061655 -0.4748,-0.96453 -0.9268,-0.85031 -1.5043,0.380278 -1.3816,2.944084 1.9884,10.711013 4.6633,10.747923 2.2715,0.0313 6.2043,3.9128263 6.1841,6.1032719 -0.01,0.6380986 -1.1449,3.1574746 -2.5311,5.59871977 -1.3862,2.44121513 -2.5269,5.13092953 -2.5347,5.97686773 -0.02,2.1466958 -3.7576,0.7593151 -7.5066,-2.7879977 -1.6734,-1.5825468 -3.574,-2.88519321 -4.2235,-2.89416319 -2.3426,-0.0324 -5.9294,3.75770789 -6.583,6.95579149 -0.3671,1.7963764 -0.8987,4.18218 -1.1808,5.301528 -0.7869,3.122152 7.5897,4.521555 11.0158,1.840319 3.0803,-2.410764 4.4474,-1.545837 4.4075,2.788353 -0.03,3.300467 6.7095,-1.188701 11.1011,-3.521569 0.4544,-4.1212642 3.2059,-9.4021584 5.1351,-9.3841048 2.2328,0.021 2.2689,4.5203962 0.059,7.4425908 -2.4412,3.228592 -1.0919,6.262735 2.391,5.376447 0.3315,-0.08437 0.6288,-0.111901 0.9287,-0.144158 -0.3347,2.111804 1.0657,4.655174 2.8024,4.787743 -0.916,1.253689 -1.6551,2.561823 -1.9591,3.689872 -0.2726,1.012181 1.0298,-2.01857 2.0366,-3.673894 0.012,3.91e-4 0.023,0.0069 0.035,0.0071 0.4495,0.0062 0.8069,-0.222569 1.109,-0.559943 0.4989,0.901468 0.8955,2.569921 0.8811,4.140453 -0.062,6.715706 6.6389,18.190522 10.6278,18.30449 v 3.55e-4 c 0.8799,0.0251 4.01,-1.061528 6.953,-2.384994 4.8393,-2.175846 5.5126,-2.224215 7.0259,-0.509169 2.2644,2.566356 4.3201,2.415087 6.5077,-0.478277 1.5501,-2.050066 1.6696,-3.071948 0.7865,-6.74133 -1.1171,-4.64224 -1.201,-4.522613 4.0659,-5.862181 1.7004,-0.432488 3.1402,-1.857506 3.7295,-3.692712 1.2737,-3.966472 3.1426,-3.745129 5.7526,0.680311 1.5061,2.553736 2.658,3.402185 3.8799,2.860077 2.3351,-1.036088 4.2933,-4.178567 3.7728,-6.054273 -0.5292,-1.907336 1.9277,-1.945102 4.3243,-0.0664 0.9941,0.77926 2.9743,1.075272 4.4003,0.657942 0.894,-0.261615 0.9741,1.048371 0.8836,2.280605 0.4529,-2.313836 1.2166,-4.94383 1.9157,-6.27406 1.4348,-2.729744 1.7401,-2.770408 18.0113,-2.38393 14.6745,0.348581 18.0331,0.484641 18.7994,-0.248548 0.3243,1.230542 1.2339,2.51236 3.5326,2.544066 3.4503,0.0476 5.7901,-0.574257 6.8259,-1.814045 2.5147,-3.010204 1.9161,-3.854733 -3.423,-4.828931 -3.8594,-0.704168 -4.884,-1.3285343 -4.4385,-2.7034915 0.3185,-0.983138 0.5876,-2.7012439 0.5979,-3.8187615 0.026,-2.8091044 5.4151,-4.57546034 14.4776,-4.74407 7.278,-0.13538972 7.438,-0.0758553 6.1919,2.3068799 -1.7047,3.2595436 -0.1268,5.2190307 4.8183,5.9846793 4.4391,0.6871986 5.116,0.6831248 16.6331,-0.094803 17.1391,-1.1577078 35.7184,-1.1127596 37.5135,0.090897 3.0593,2.0513658 11.458,2.7937798 29.9062,2.6438398 12.1171,-0.0985 22.8956,-0.02217 25.785,0.182506 1.6355,0.115888 10.8306,0.633018 20.4333,1.149356 16.7255,0.899388 17.4824,0.839472 17.9876,-1.420984 0.5917,-2.6571944 5.4069,-3.5707343 18.8241,-3.5737643 8.1785,-0.002 10.8463,1.7357573 5.8322,3.7985223 -2.9864,1.228508 -3.015,1.314143 -1.5813,4.804077 1.0256,2.497136 2.2024,3.563747 3.9585,3.587967 2.3018,0.0317 2.446,0.356988 1.8319,4.130512 -0.5529,3.396192 -0.2795,4.436542 1.5989,6.086228 2.035,1.787198 2.3546,1.800097 3.1409,0.124629 0.534,-1.137946 0.4449,-2.515152 -0.2279,-3.5308 -0.7588,-1.145868 -0.7749,-1.905926 -0.056,-2.437546 1.9333,-1.426216 1.1396,-4.270419 -1.2009,-4.302719 -2.4784,-0.0343 -4.6429,-2.115113 -4.6214,-4.443327 0.017,-1.843158 3.4975,-0.775887 5.0343,1.543837 0.6811,1.028038 3.0392,1.732542 5.9355,1.772502 3.7471,0.0517 4.6836,0.445462 4.2494,1.78564 -0.3063,0.945408 -0.058,2.892603 0.5529,4.327929 0.8434,1.982816 1.8697,2.53025 4.2711,2.27883 2.7614,-0.28917 3.204,-0.826205 3.5067,-4.263307 0.2835,-3.216784 -0.1063,-4.194297 -2.1414,-5.363665 -2.0272,-1.164708 -2.3019,-1.844297 -1.4816,-3.671053 0.7274,-1.619766 2.1239,-2.227677 5.0312,-2.187577 3.1681,0.0437 4.1381,-0.451433 4.5569,-2.3256986 0.2927,-1.3095574 1.3113,-2.6726198 2.2639,-3.028379 0.9525,-0.3557094 2.2493,-1.9945508 2.881,-3.6426476 1.3676,-3.5677728 3.2521,-3.7991692 5.5087,-0.6764054 1.771,2.450835 2.1397,7.2641924 0.9679,12.6358226 -0.8273,3.792352 0.7363,6.985264 3.439,7.022544 0.9573,0.0131 2.3103,0.8835 3.0061,1.934058 0.7557,1.140548 2.4961,1.800216 4.3211,1.636866 1.6808,-0.15044 4.2566,0.47582 5.7237,1.391868 3.1603,1.973246 7.0553,0.516381 12.0427,-4.507239 1.6734,-1.684866 3.1913,-2.524278 3.3729,-1.86482 0.9814,3.562724 2.1692,4.548669 4.6158,3.832609 3.2933,-0.963758 4.5604,-5.942645 2.3063,-9.062057 -0.8718,-1.206448 -1.5802,-2.775343 -1.5736,-3.486063 0.013,-1.4106966 -2.2448,-2.7976508 -4.6074,-2.8302508 -1.5203,-0.0209 -5.149,-4.645675 -5.1909,-6.615991 -0.039,-1.84202631 3.3534,-4.2587022 5.9846,-4.2629522 1.3788,-0.002 3.5097,-0.8435326 4.7356,-1.8697906 1.8979,-1.5888768 2.7472,-1.6287687 5.718,-0.2670115 2.7228,1.2480676 3.9089,1.2865015 5.4002,0.1746937 1.0912,-0.8135884 2.1459,-0.9470337 2.4588,-0.3113951 0.3013,0.6121788 0.091,1.4498149 -0.4667,1.8616241 -0.5582,0.4117592 -1.0275,2.0656221 -1.0423,3.6756689 -0.024,2.6208248 -0.4159,2.8942226 -3.7429,2.6090432 -3.1467,-0.2697094 -3.7677,0.087043 -4.0494,2.3271188 -0.3651,2.9038042 2.9009,5.9306965 5.2493,4.8644385 0.7701,-0.3496796 1.6096,0.362292 1.9265,1.63367 0.7142,2.866784 4.8483,4.236139 7.5629,2.505363 1.1456,-0.731748 3.1604,-1.063842 4.4731,-0.737832 1.3125,0.32603 2.6289,0.124362 2.9249,-0.447386 0.2959,-0.57178 1.7329,-0.27984 3.1936,0.648 1.4607,0.927878 3.2159,1.450637 3.9005,1.162139 1.942,-0.818508 1.5012,-4.9484067 -0.6852,-6.4199937 -1.379,-0.9281782 -1.9593,-2.5702344 -1.9327,-5.4627286 0.021,-2.27428536 0.4272,-4.4219011 0.9028,-4.7728305 0.4758,-0.3508792 2.9023,1.70006459 5.3929,4.5569489 10.3539,11.8767159 10.3041,11.8370829 13.516,10.7571549 1.6404,-0.551568 4.5399,-2.151909 6.442,-3.555656 3.2425,-2.3921252 3.4597,-2.4124591 3.4546,-0.3280833 -0.01,3.4365933 1.1446,4.8953853 4.642,5.8749633 4.0607,1.137408 4.2915,-1.103998 0.8692,-8.4417533 -2.1813,-4.6769406 -2.255,-5.3351364 -0.8645,-7.70818165 1.8652,-3.18331365 4.3596,-3.27259015 7.4512,-0.26523615 3.4892,3.3940132 7.607,4.0922069 8.3292,1.41175228 0.6383,-2.36927528 5.5958,-4.75165258 9.4734,-4.55233298 1.344,0.0691 4.591,-0.063252 7.214,-0.2936416 3.9223,-0.3444294 4.9466,-0.00428 5.7604,1.9088481 0.8318,1.95531609 1.6522,2.2014211 5.1371,1.54206242 2.2813,-0.43161912 5.3601,-1.52271952 6.8415,-2.42511772 4.0318,-2.456025 6.1009,-1.9754947 8.7555,2.0341873 3.033,4.5810308 5.8587,4.9356043 5.8973,0.73996273 0.043,-4.64051073 2.822,-3.79936143 3.1523,0.95406901 0.2197,3.16342366 0.7674,4.04016926 2.7497,4.39929846 1.3615,0.2466396 3.1846,1.2409982 4.0514,2.2099462 1.7806,1.990386 4.8439,1.1252049 4.8669,-1.3744701 0.023,-2.477185 -3.3705,-4.4039802 -4.7816,-2.7148536 -0.8734,1.045508 -1.1514,0.7477768 -1.1333,-1.2153994 0.013,-1.42972707 -0.4576,-2.9734574 -1.0464,-3.4303166 -0.771,-0.5981388 -0.7668,-1.1956336 0.02,-2.1353818 0.5997,-0.7177886 1.1017,-2.5942822 1.1162,-4.1695692 0.016,-1.7221368 0.446,-2.5391094 1.0785,-2.0483894 0.5789,0.4488578 0.8047,1.5777799 0.5033,2.5078481 -1.5561,4.8025204 6.2981,-3.0840601 9.5922,-9.6344281 0.9749,-1.937286 -2.0277,-9.20573 -3.8132,-9.23036 -1.1447,-0.0159 -1.3334,-0.914048 -0.8175,-3.897232 0.3688,-2.132266 1.1237,-4.211661 1.6774,-4.620151 1.0596,-0.781748 -0.2898,-28.957914 -2.0324,-33.699194 -0.6428,-1.748615 -0.4496,-3.539867 0.6547,-6.062795 0.862,-1.96937 1.5798,-4.263355 1.5875,-5.098073 0.01,-0.834716 0.681,-1.508467 1.4888,-1.497324 0.8077,0.01115 1.7489,-1.478774 2.0914,-3.310658 0.076,-0.40676 -3.2792,-7.817993 0.1488,-11.439951 2.3264,-2.457979 -2.9382,-9.542399 0.263,-8.137809 6.69,2.9354 13.0606,-0.43101 11.542,-2.79013 -1.4036,-2.18043 1.6542,-11.62501 -10.5431,-10.12052 -7.0406,0.86844 -3.6657,-7.58052 5.426,-10.44682 0.4985,-1.32884 1.0498,-4.3267 1.2243,-6.6618 0.3076,-4.11528 0.4311,-4.23257 4.0199,-3.79994 3.1731,0.38252 3.873,3.9e-4 4.8984,-2.67473 1.8321,-4.77931 -0.3915,-9.19454 -4.6607,-9.25344 -3.4579,-0.0477 -5.345,2.43488 -5.3878,7.09072 -0.023,2.45981 -0.034,2.45988 -3.5662,-0.15836 -2.9281,-2.17151 -3.2675,-2.80993 -1.9497,-3.68916 2.5174,-1.6795 1.882,-3.36782 -1.2842,-3.4115 -1.6454,-0.0227 -4.1611,-1.36986 -5.8177,-3.11573 -1.3055,-1.3759 -2.3009,-2.25006 -3.1838,-2.65698 0.1811,-0.13422 0.6555,-1.03012 1.3265,-2.44145 z m -378.1474,-5.55185 c 0.3233,-0.0352 0.6379,-0.094 0.9668,-0.10332 -1.1725,-0.0234 -1.358,-0.008 -0.9668,0.10332 z m 103.4861,16.04768 c 2.4251,-1.55905 2.6567,-2.73879 0.7804,-1.88684 -1.2277,0.55743 -1.3243,1.22746 -0.7804,1.88684 z m 244.597,-18.93296 c 0.4313,0.30895 0.9419,0.75173 1.6263,1.35032 4.4755,3.9148 7.2125,-2.01222 2.5223,-1.95252 -0.67,0.009 -1.3833,-0.13507 -2.1255,-0.46336 -0.5353,-0.23681 -1.2518,0.26904 -2.0231,1.06556 z m -151.3474,0.46016 c -1.2663,0.35851 -2.5046,1.86284 -2.5192,3.43778 -0.01,0.86423 0.5415,1.8181 1.2206,2.11869 0.5,0.2213 0.9827,0.30864 1.4258,0.27838 1.3293,-0.0908 2.3024,-1.24143 2.3187,-3.01205 0.011,-1.20846 -0.5354,-2.4503 -1.2144,-2.75959 -0.3842,-0.17498 -0.8093,-0.18272 -1.2315,-0.0632 z m 197.8557,1.42667 c -0.6329,0.2325 -1.0082,1.04394 -1.0206,2.39494 -0.017,1.8114 1.563,2.95219 2.9745,2.6552 0.4706,-0.099 0.9226,-0.35828 1.2903,-0.80494 0.9153,-1.11163 0.7599,-1.83562 -0.6795,-3.16757 -1.0415,-0.9637 -1.9319,-1.31013 -2.5647,-1.07763 z m -274.1347,0.33909 c -1.5981,-0.022 -2.8762,4.49285 -1.5606,5.5135 0.3471,0.26939 0.701,0.37074 1.0371,0.33022 1.0085,-0.12156 1.8558,-1.51786 1.8738,-3.46796 0.012,-1.29612 -0.5957,-2.36535 -1.3503,-2.37576 z m -106.655,0.38809 c -0.2538,0.13819 -0.3971,0.75198 -0.3871,1.81831 0.01,0.78081 0.2669,1.25807 0.6284,1.26795 0.1205,0.003 0.2521,-0.0456 0.3897,-0.15233 0.5505,-0.42708 0.7396,-1.28124 0.4201,-1.89855 -0.4328,-0.83616 -0.7973,-1.17356 -1.0511,-1.03538 z m 147.4639,0.28796 c -0.5417,0.17451 -1.1357,0.77105 -1.8594,1.8144 -1.1388,1.64178 -1.0649,2.18784 0.4874,3.61069 0.7545,0.69151 1.6215,1.12967 2.2055,1.15966 0.1946,0.01 0.3578,-0.0259 0.4749,-0.11221 1.0101,-0.74516 1.1684,-4.58892 0.2372,-5.75495 -0.5148,-0.64465 -1.004,-0.8921 -1.5456,-0.71759 z m -77.2816,0.70943 c -1.3775,-0.0891 -2.7019,0.47184 -3.0861,1.74019 -0.9886,3.26382 0.1596,6.13399 2.6096,6.52474 0.3903,0.0623 0.766,0.0634 1.1219,0.011 2.4903,-0.36675 4.0067,-3.342 2.7611,-6.1157 -0.5981,-1.33198 -2.0289,-2.0711 -3.4065,-2.16023 z m -262.9576,5.3349 c -1.3776,0.0891 -2.8084,0.82858 -3.4065,2.16059 -1.2456,2.77371 2.761,7.8655 2.761,6.11535 0,-0.25009 0.7316,0.0512 1.1219,-0.011 2.45,-0.39075 3.5983,-3.2609 2.6097,-6.52474 -0.3843,-1.26835 -1.7086,-1.82932 -3.0861,-1.74019 z m 486.8225,0.94981 c -0.067,-0.0314 -0.1441,-0.002 -0.2274,0.098 -0.3329,0.39892 -0.3799,1.44637 -0.099,2.32676 0.1535,0.48549 0.2901,0.65558 0.3953,0.53083 -0.1937,-6.1e-4 1.1239,-1.25659 0.2103,-1.25659 h -5e-4 c 0.041,-0.95946 -0.076,-1.60468 -0.2785,-1.699 z m 9.2893,1.11562 c -1.102,-0.0152 -1.991,0.78134 -2.0004,1.7931 -0.01,1.01181 0.8648,1.83329 1.9668,1.84849 1.1019,0.0152 1.9906,-0.782 1.9999,-1.79381 0.01,-1.01176 -0.8644,-1.83258 -1.9663,-1.84778 z m -426.1151,1.80304 c -0.2538,-0.13819 -0.6183,0.19921 -1.0511,1.03538 -0.3195,0.61731 -0.1303,1.47146 0.4202,1.89855 0.1376,0.10677 0.2691,0.15561 0.3896,0.15233 0.3615,-0.01 0.6213,-0.48715 0.6284,-1.26795 0.01,-1.06634 -0.1333,-1.68013 -0.3871,-1.81831 z m -19.8029,1.75972 c 0.8496,0.0118 1.541,0.5668 1.5348,1.23458 -0.01,0.66778 -0.4313,1.20863 -0.9446,1.20155 -0.5132,-0.007 -1.2055,-0.56289 -1.5343,-1.23529 -0.3311,-0.67245 0.093,-1.21257 0.9441,-1.20084 z m -39.5583,77.838824 c 1.1232,0.0155 1.7732,0.547154 1.4449,1.181313 -0.1347,0.260251 -0.4202,0.416306 -0.7736,0.486444 -0.2651,0.0526 -0.5682,0.05648 -0.8733,0.01953 -0.9151,-0.11085 -1.8499,-0.590966 -1.8439,-1.238834 0,-0.262444 0.9229,-0.463943 2.0459,-0.448452 z m 541.4388,5.826674 c 0.2059,0.0028 2.2494,3.707122 2.9192,4.71815 0.9973,1.505523 0.9266,1.83471 -0.3912,1.81653 -0.885,-0.0123 -1.6014,-0.84186 -1.5921,-1.843515 0.01,-1.00166 -1.1419,-4.694007 -0.9359,-4.691165 z m -557.9871,2.496842 c -1.2617,0.116779 -2.488,0.748975 -2.8345,1.818305 -0.8839,2.727701 1.0544,6.606081 3.3171,6.637296 2.0257,0.02794 3.744,-4.784702 2.5642,-7.181616 -0.4882,-0.991996 -1.7852,-1.390765 -3.0468,-1.273985 z m 580.4235,26.225358 c -5.5346,1.210556 -4.1121,7.020838 -2.3095,7.896368 0.2257,0.10959 0.5306,0.200578 0.7793,0.223338 0.2487,0.0228 0.4413,-0.02275 0.4413,-0.186056 0,-0.979668 3.5801,-4.29825 2.9177,-6.485326 -0.3216,-1.061768 -1.0857,-1.610864 -1.8288,-1.448324 z m -1.9121,14.837601 c -3.2138,0.0328 -3.2847,0.118543 -1.1704,1.401811 0.8323,0.505138 1.4715,0.755404 2.0107,0.749904 0.5392,-0.005 0.9785,-0.266988 1.4113,-0.785056 0.8924,-1.068228 0.3569,-1.393319 -2.2516,-1.366659 z m -580.2348,9.243143 c -10e-5,8.31e-4 0,0.0017 0,0.0025 2e-4,2.94e-4 0,-0.0034 0,-0.0025 z m 0,0.0025 c 0,-0.0026 -0.011,0.0131 -0.012,0.02166 -0.011,0.0694 -0.011,0.13901 -0.012,0.20878 3e-4,0.0039 1e-4,0.0079 0,0.01243 0.011,-0.08038 0.021,-0.161301 0.024,-0.242867 z m 171.4324,6.2002063 c 0.9261,0.087687 2.3153,0.6365799 3.5352,1.4444186 1.936,1.2819774 4.2168,1.732976 6.6037,1.3055868 4.0005,-0.7163186 7.0721,0.2432867 6.196,1.9358333 -0.4222,0.8157884 -4.3065,1.0876499 -8.4641,0.9338301 -4.1577,-0.1538096 -8.5884,-0.7333894 -10.1043,-1.6208876 -2.8732,-1.6820366 -3.5076,-3.3876323 -1.248,-3.3564623 0.7735,0.0107 2.0037,-0.2455003 2.7332,-0.5688197 0.1824,-0.080822 0.4396,-0.1027281 0.7483,-0.073499 z m -16.2254,0.036217 c 0.8097,-0.1469448 1.6833,-0.017931 1.9431,0.5098783 0.3165,0.6430492 -0.344,1.156325 -1.4671,1.140835 -1.1231,-0.0155 -2.0395,-0.2424579 -2.0371,-0.5049073 0.01,-0.5758992 0.7514,-0.9988613 1.5611,-1.145806 z m -157.3299,6.7594386 c -0.5453,-0.007 -0.9941,0.2285365 -0.9968,0.5230159 0,0.2944794 0.4381,0.8782663 0.9797,1.29848545 0.2708,0.21011958 0.5186,0.2568461 0.6992,0.1622663 0,-0.16875968 0.295,-0.32989745 0.2982,-0.68350685 0.01,-0.7071586 -0.4348,-1.2927308 -0.9803,-1.3002608 z m 326.3361,0.8418674 c 1.8247,-0.126015 4.17,0.7905901 4.8716,2.44003061 0.6327,1.48716699 0.6559,2.63079849 0.053,3.07311769 -0.3495,0.2578894 -5.6226,0.5458434 -3.6959,0.4591036 h -5e-4 -5e-4 c -1.9327,0.0555 -4.3801,-0.080245 -6.8084,-0.080245 h -5e-4 c -4.8569,0 -9.5932,-0.6726983 -9.8671,-1.2292471 -1.3659,-2.77517447 6.9303,-4.9386628 10.8763,-2.83628702 1.2352,0.65813871 2.0568,0.51347971 2.3172,-0.40690848 0.2524,-0.893237 1.1598,-1.3439548 2.2546,-1.4195638 z m 247.4433,1.09432107 c -2.0044,0.18413654 -3.5662,2.41022323 -2.8959,5.69920413 0.4,1.9625062 1.2976,2.688239 3.3559,2.716629 3.6624,0.0505 5.3984,-3.3423469 3.2396,-6.3301609 -1.1348,-1.57145682 -2.4969,-2.19615416 -3.6996,-2.08567223 z m -390.3146,0.59544984 c 0.5454,0.007 0.9869,0.56043321 0.9808,1.22818187 -0.01,0.66779862 -0.4577,1.20765142 -1.0031,1.20013142 -0.5454,-0.007 -0.9865,-0.5596831 -0.9803,-1.22747169 0.01,-0.66774869 0.4571,-1.20836158 1.0026,-1.2008416 z m 359.7237,0.84115723 c -3.3625,0.17508331 -4.9784,4.46377536 -1.9957,7.20682496 0.713,0.6555086 1.2182,0.9703432 1.727,0.9249534 0.5089,-0.0454 1.0212,-0.4513647 1.7472,-1.2352833 0.9643,-1.0410178 1.7617,-2.8608173 1.7725,-4.0438749 0.011,-1.1831176 -0.7589,-2.3798884 -1.711,-2.65910784 -0.5433,-0.15937968 -1.0596,-0.21852422 -1.54,-0.19351232 z m -206.2484,0.22724383 c 5.0758,1.20085753 5.2861,1.34531183 4.2101,2.89664863 -0.337,0.485839 -0.8171,0.7867394 -1.3477,0.928149 -0.3979,0.1060698 -0.824,0.1226364 -1.2392,0.060717 -1.2457,-0.1860496 -2.3927,-1.079007 -2.3807,-2.3814442 0.01,-0.9237582 0.3493,-1.60064965 0.7575,-1.50407043 z m 186.6543,2.35445913 c -1.6029,0.025875 -3.354,0.9167561 -4.3744,2.6583977 -1.3998,2.3882152 -1.3896,2.8555813 0.052,4.8580469 1.107,1.531856 2.8374,2.27846 4.3961,2.25291 h 5e-4 c 1.5588,-0.0175 2.9454,-0.823697 3.3647,-2.380735 0.3585,-1.3307862 -1.7195,-4.8569814 0.045,-4.8569814 h 5e-4 c -0.427,-1.7182716 -1.8817,-2.5575132 -3.4845,-2.5316382 z m -203.3106,5.750334 c -1.9638,-0.0271 -2.4075,0.9941682 -2.1404,4.9269306 0.072,1.057448 -0.8943,2.485337 -2.1467,3.172537 -2.2662,1.243406 -2.2627,1.254348 0.5948,2.212786 0.8126,0.27249 1.7038,0.383946 2.5043,0.342996 0.8005,-0.041 1.5104,-0.234245 1.9611,-0.571305 1.7207,-1.286726 2.6183,-5.509324 1.7683,-8.315348 -0.29,-0.9571986 -1.4334,-1.7533166 -2.5414,-1.7685966 z m 235.0244,0.814172 c -1.3889,-0.0191 -2.1374,2.1550726 -1.0361,3.0095606 0.328,0.25444 0.6915,0.356351 1.0408,0.344061 1.0481,-0.0369 1.9703,-1.106357 1.4304,-2.203555 -0.3081,-0.625968 -0.954,-1.1434266 -1.4351,-1.1500666 z m -385.2499,0.8450626 c -1.451,-0.06107 -3.1502,1.173472 -3.4049,3.204493 -0.2768,2.207046 0.133,2.733933 2.1477,2.761723 2.8251,0.039 4.0613,-1.622958 3.2354,-4.349234 -0.3263,-1.077346 -1.1075,-1.580337 -1.9782,-1.616982 z m -142.6641,1.265464 c -0.6211,0.181753 -1.6267,0.737262 -2.5869,1.247356 -0.037,0.339321 -0.165,0.715695 -0.168,1.035025 -0.04,4.39159 5.6032,-3.115969 2.7549,-2.282381 z m 300.2514,2.034543 c -0.8265,-0.0114 -1.4975,1.058328 -1.51,2.407364 -0.012,1.349028 0.6391,2.437853 1.4656,2.449263 0.8264,0.0113 1.4975,-1.059047 1.51,-2.408075 0.012,-1.349028 -0.6392,-2.437152 -1.4656,-2.448552 z m 106.1708,1.464657 c -0.8504,-0.0119 -1.5509,0.524877 -1.557,1.192675 -0.01,0.66775 0.4082,1.219682 0.9214,1.226762 0.5133,0.006 1.2143,-0.529577 1.5575,-1.192675 0.3432,-0.663118 -0.071,-1.215032 -0.9219,-1.226762 z m 104.774,0.250324 c -1.814,-0.31625 -3.7305,1.090335 -4.0179,3.871666 -0.26,2.516366 0.097,3.375796 1.4552,3.503106 5.1108,0.479008 6.9176,-1.167832 5.3429,-4.869764 -0.6404,-1.505428 -1.6919,-2.315259 -2.7802,-2.505008 z m -38.0132,0.825534 c -0.2946,-0.04785 -0.6631,-0.02496 -1.1214,0.04829 -1.4669,0.23445 -2.2425,1.192041 -2.2572,2.785867 -0.015,1.593818 0.7434,2.572425 2.2055,2.847295 0.4569,0.0859 1.1204,-0.15237 1.1204,0.07953 0,0.17394 0.07,0.205219 0.1752,0.123209 0.3155,-0.24604 0.9482,-1.510104 0.9617,-2.988612 0.018,-1.971341 -0.2005,-2.752038 -1.0842,-2.895583 z m -455.7159,0.404423 c 0.1038,-0.01591 0.093,0.02251 -0.063,0.137411 -0.5215,0.38473 -0.6762,1.913736 -0.5297,3.643003 -0.1607,-0.515338 -0.3365,-1.162373 -0.5783,-2.080701 -0.1398,-0.531235 -0.3732,-0.857665 -0.6247,-1.13835 0.8203,-0.271559 1.5975,-0.530975 1.7957,-0.561363 z m 332.2888,0.166172 c -1.7351,-0.0239 -2.4273,0.634452 -2.4428,2.323568 -0.012,1.296118 0.4495,2.721903 1.0253,3.168631 0.1576,0.12229 0.3556,0.168925 0.5798,0.153745 1.5688,-0.1065 4.4274,-3.236692 3.7796,-4.552688 -0.2866,-0.58257 -1.6105,-1.074876 -2.9419,-1.093256 z m 140.5687,0.856425 c -0.2182,-0.03135 -0.4893,-0.0084 -0.8175,0.06427 -1,0.22149 -1.9846,1.400738 -2.188,2.619696 -0.2004,1.200368 -0.024,1.783642 0.6304,1.877602 0.2182,0.0313 0.4899,0.0079 0.8181,-0.06427 0.9999,-0.221488 1.9846,-1.400432 2.1879,-2.61934 0.2004,-1.200365 0.024,-1.783895 -0.6309,-1.877957 z m -282.0975,0.127115 c -0.2749,-0.08348 -0.5755,-0.03923 -0.8356,0.152679 -0.5203,0.38375 -0.6891,1.218985 -0.3757,1.855943 0.1567,0.31846 0.68,0.840783 0.68,0.612493 0,-0.22836 0.5754,0.03953 0.8356,-0.152324 0.5202,-0.38375 0.6897,-1.21864 0.3762,-1.855588 -0.1567,-0.31847 -0.4057,-0.529726 -0.6805,-0.613203 z m -197.5048,0.320981 c 0.2053,0.01648 0.398,0.03523 0.6201,0.0277 -0.2677,0.224333 -0.4896,0.561863 -0.7524,0.819853 0.055,-0.271494 0.1161,-0.535294 0.1323,-0.847549 z m -25.9819,0.258845 c -0.4925,-0.107938 -1.1622,0.249436 -2.1978,1.031119 -1.1405,0.861058 -1.2201,1.462357 -0.3384,2.566435 0.3899,0.48839 0.8596,0.766033 1.3332,0.870983 1.4206,0.31484 2.8778,-0.926281 2.3384,-2.706687 -0.3273,-1.080583 -0.6428,-1.65391 -1.1354,-1.76185 z m 323.7048,3.894392 c -0.3529,0.06055 -0.7117,0.286274 -1.0536,0.695579 -1.0676,1.277996 1.6033,13.074791 3.2566,14.383469 0.6249,0.494598 1.1467,0.742843 1.5555,0.768723 1.2262,0.0776 1.4354,-1.850923 0.3581,-5.167667 -0.6998,-2.154706 -1.4811,-5.423853 -1.7363,-7.263991 -0.3183,-2.292902 -1.3216,-3.597768 -2.3803,-3.416113 z m -234.9024,1.320499 c -0.067,0.34275 -0.1876,0.715049 -0.2367,1.0368 -0.3054,1.999757 0.1208,0.539395 0.2367,-1.0368 z m -4.9191,1.369144 c -0.9182,0.04419 -1.9125,0.876369 -3.5145,2.522762 -3.3358,3.428082 -1.282,11.146451 2.9817,11.205251 2.4674,0.0341 6.1254,-3.922784 6.1505,-6.652208 0.01,-1.033558 -1.1423,-3.224938 -2.5595,-4.869764 -1.2979,-1.506313 -2.14,-2.250226 -3.0582,-2.206041 z m 21.7635,1.000583 c -2.391,-0.112495 -6.0408,3.683306 -5.6353,7.286005 0.3013,2.677036 1.9758,4.49661 3.7373,4.53387 0.5872,0.0123 1.1841,-0.172956 1.743,-0.590834 1.8012,-1.346108 2.8528,-6.614035 1.9296,-9.661769 -0.3205,-1.057884 -0.9776,-1.529773 -1.7746,-1.567272 z m 245.4517,1.705394 c -0.8004,-0.167725 -1.7681,0.502183 -2.7006,2.051586 -0.7238,1.202738 -2.1002,2.53286 -3.0587,2.95559 -1.1336,0.499928 -1.7546,2.055437 -1.7767,4.449363 -0.029,3.102434 0.3502,3.686296 2.4107,3.714726 1.5267,0.021 2.8934,-0.986061 3.6407,-2.682187 0.6579,-1.493596 1.7449,-3.104627 2.4148,-3.579445 0.6809,-0.48219 1.019,-2.220438 0.7674,-3.936644 -0.264,-1.800223 -0.8971,-2.805264 -1.6976,-2.972989 z m 55.7454,0.314591 c -0.6984,-0.0068 -1.4942,0.371038 -2.7719,1.129473 -3.1813,1.888546 -3.5423,3.466077 -1.8588,8.128227 0.7222,2.000046 2.3701,4.033112 2.7709,3.931674 h 5e-4 c 0.057,-0.0145 0.089,-0.07282 0.089,-0.18073 0,-0.863328 2.29,-0.606848 3.6236,-2.464176 2.8779,-4.008312 2.9859,-7.037765 0.3338,-9.367061 -0.8876,-0.779513 -1.4885,-1.170652 -2.187,-1.177407 z m -222.4443,0.951938 c -1.3877,0.14815 -2.8372,0.993035 -3.4881,2.442516 -0.9035,2.011946 -0.7822,2.994423 0.6087,4.919119 0.8474,1.172738 1.7625,1.79 2.6288,1.961398 0.3248,0.0643 0.6427,0.06615 0.9478,0.01065 v -3.56e-4 c 2.1358,-0.389018 3.6392,-3.574138 2.4215,-7.59598 -0.4049,-1.336791 -1.7309,-1.885498 -3.1187,-1.73735 z m 277.1418,0.449517 c -0.7515,0.218514 -1.4816,1.131715 -1.7115,2.500392 -0.1962,1.168588 0.2938,2.028944 1.1627,2.040934 1.8423,0.0254 2.9722,-1.938848 2.1161,-3.678154 -0.2201,-0.447335 -0.5095,-0.7207 -0.8263,-0.841158 -0.2375,-0.09034 -0.4905,-0.09485 -0.741,-0.02201 z m 12.0117,1.071242 c -0.5455,-0.007 -0.9965,0.532343 -1.0026,1.200131 -0.01,0.667758 0.4348,1.221382 0.9803,1.228892 0.5454,0.007 0.997,-0.533093 1.0031,-1.200841 0.01,-0.66779 -0.4355,-1.220642 -0.9808,-1.228182 z m -106.9542,1.248065 c -0.872,0.03439 -1.6678,0.59275 -1.6775,1.647163 -0.017,1.870466 5.9705,7.220538 7.4678,7.609118 0.2139,0.0555 0.3364,0.01053 0.3364,-0.161557 v -3.55e-4 c 0,-1.838916 0.7872,-5.650676 -1.5203,-5.682516 -1.0443,-0.0144 -2.1561,-0.876331 -2.4707,-1.915239 -0.3155,-1.041573 -1.2638,-1.531001 -2.1357,-1.496614 z m -297.0605,1.091836 c -0.8744,0.183278 -1.3807,1.333644 -1.3994,3.357528 -0.019,2.117994 0.5208,2.941661 1.9426,2.961271 2.327,0.0321 3.3492,-4.037221 1.4025,-5.583807 -0.7639,-0.606858 -1.421,-0.844959 -1.9457,-0.734992 z m 379.1893,0.960815 c -1.6327,-0.0225 -2.0544,0.601533 -1.8299,2.707397 0.1604,1.504918 0.9611,2.745117 1.7793,2.756397 0.8182,0.0112 1.6416,-1.206956 1.8298,-2.707042 0.2632,-2.099156 -0.1466,-2.734222 -1.7792,-2.756752 z m -56.4529,0.814172 c -1.041,0.0038 -1.667,1.206886 -1.9244,3.634836 -0.2947,2.779666 0.023,3.246092 2.2329,3.276572 3.2986,0.0455 4.5176,-3.343006 2.0237,-5.6289 -0.9335,-0.855568 -1.7076,-1.284795 -2.3322,-1.282508 z m -222.2603,0.198484 c -1.1019,-0.0152 -1.9911,0.781337 -2.0004,1.793095 -0.01,1.011808 0.8654,1.833997 1.9673,1.849197 1.1019,0.0152 1.9906,-0.782018 1.9999,-1.793806 0.01,-1.011768 -0.8649,-1.833276 -1.9668,-1.848486 z m 165.5201,3.497779 c -2.4167,-0.0333 -2.1011,2.807724 0.3814,3.432802 0.2441,0.0615 0.4695,0.06977 0.6707,0.02947 0.6038,-0.12072 0.9886,-0.675591 0.9964,-1.523599 0.01,-1.126268 -0.8303,-1.921875 -2.0485,-1.938673 z"
       sodipodi:nodetypes="ccscscsscccscccsccscccssscccsscscsscccssccscssccsccccccccccccccccccccccccsscccsccssscssccccsccccsssscscccccccssccssssscssccccsccccsccscccccscscscccscssssccssscscccsscsscssscscscscssssssscccsccscsccccssscscccccssscsscsssssscscccssscssscsccsssscccssccccccccccssssssssssccscscssssscsssssccscscsscccsssscsccsssscssccsscccsccccssssccsssccccscsccsscccsccsscssscccsscsccccccccsscscscssssccscscccscccccccscccsccccsscscccscccscssssccssssssscssssscssscscssccccsccscscssssccsccsccsssscscccccssssscscssccscsccccccccccsssssssssssscsccscccsccccssscscsssscscccccscsccsscsscccsccsscscsscssscsscssccssssssccsscccscccscssssssscsscsssccscsscsccssccsccsscsscssccccscssssssssscscccssscssssccssssscsccssscsccscsssssscccsscsssscccccscssssssscsssssccssssssscscsssccs"
       transform="translate(1.0625e-5)" /><path
       id="path74"
       style="display:inline;fill:url(#radialGradient75);stroke-width:0.828915"
       inkscape:label="SPLAT"
       d="m -1818.9498,-180.14499 c -0.3555,-0.0434 -0.7612,-0.0342 -1.2221,0.0249 -3.6821,0.47169 -4.0409,4.19816 -0.7452,7.74511 1.4538,1.56461 2.33,3.45145 1.9466,4.1923 -0.815,1.57433 2.1488,6.09032 4.0137,6.11605 1.6443,0.0227 4.4085,-4.68443 4.4349,-7.5516 0.011,-1.21798 -1.3106,-3.16422 -2.9378,-4.32437 -1.6272,-1.16012 -3.2096,-3.10049 -3.5166,-4.31231 -0.2927,-1.15529 -0.9069,-1.75971 -1.9735,-1.89003 z m 25.5385,1.01727 c -2.5406,0.21316 -5.1486,3.33994 -4.9305,6.36141 0.1892,2.62334 0.6747,3.01866 3.5523,2.89132 1.8332,-0.0811 3.7926,-0.69665 4.3537,-1.36843 1.4712,-1.76095 0.1392,-7.22485 -1.8991,-7.78843 -0.3517,-0.0973 -0.7135,-0.12629 -1.0764,-0.0959 z m -42.4584,2.20072 c -5.7573,-0.0794 -7.1061,8.1671 -1.8314,11.19779 0.5226,0.30022 0.9572,0.51194 1.3493,0.61924 0.294,0.0805 0.8289,-0.14939 0.8289,0.06 0,0.15707 0.096,0.18312 0.2604,0.11113 0.4919,-0.21599 1.5902,-1.31516 2.5053,-2.41056 2.2436,-2.68554 2.3898,-3.36864 1.341,-6.27299 -0.9298,-2.57512 -1.8647,-3.26891 -4.4535,-3.30462 z m -74.675,0.20203 c -1.3367,0.15492 -2.217,1.76301 -1.5085,4.10211 0.3573,1.17953 2.5941,1.88505 1.8123,1.88505 0.7765,0.0703 1.6508,-0.42436 2.3994,-1.50371 0.8063,-1.16271 0.7922,-1.98198 -0.049,-3.03655 -0.8861,-1.10953 -1.8521,-1.53985 -2.6541,-1.4469 z m -32.2037,0.83512 c -0.8239,-0.0876 -1.6021,0.52344 -2.0366,1.86446 -0.7367,2.2734 0.2807,4.25307 1.8092,4.47955 0.5096,0.0755 1.0753,-0.0442 1.6526,-0.41224 1.5241,-0.97171 1.7008,-1.68993 0.8862,-3.60501 -0.618,-1.45292 -1.4876,-2.23914 -2.3114,-2.32676 z m 72.0064,3.62773 c -0.1502,-0.065 -0.3198,-0.0643 -0.5049,0.008 -0.6843,0.26884 -1.2511,1.21735 -1.2593,2.10769 -0.01,0.89039 0.5409,1.85381 1.2201,2.14142 0.1837,0.0778 0.5048,0.15391 0.5048,0.0217 0,-0.39568 0.7437,-0.95532 0.7545,-2.129 0.011,-1.17343 -0.2648,-1.95485 -0.7152,-2.14994 z m -61.928,3.19385 c -1.2109,-0.2787 -1.842,0.70294 -1.8624,2.92363 -0.019,2.09555 0.6894,3.29113 1.9368,3.29113 h 5e-4 c 0.4158,0 0.8906,-0.0958 1.418,-0.33519 2.0908,-0.94926 2.0444,-3.6797 -0.09,-5.18009 -0.5313,-0.37377 -0.9994,-0.60659 -1.403,-0.69948 z m 178.7586,0.54964 c -0.2923,-0.0445 -0.6548,-0.0231 -1.1012,0.0483 -2.6701,0.42676 -3.4818,4.29866 -1.6108,5.74785 -0.146,0.81449 0.076,1.82719 0.8072,3.08093 0.5421,0.92948 0.9141,1.4099 1.3581,1.47673 0.444,0.0668 0.9595,-0.28012 1.7869,-1.00342 1.2143,-1.0616 1.6719,-2.41566 1.2671,-3.75166 -0.2559,-0.84974 -0.8396,-1.36579 -1.5657,-1.59852 0.049,-0.4729 0.1588,-0.74426 0.1648,-1.39222 0.016,-1.74826 -1.1064,-1.99084 -1.1064,-2.60798 z m 16.9468,0.0256 c -0.254,0 -0.766,1.27372 -1.3384,2.83522 0.453,-0.9664 1.2803,-2.84365 1.3384,-2.83522 z m -1.3384,2.83522 c -1.0111,2.15676 -2.1712,4.67069 -3.4014,7.25795 0.03,0.092 0.048,0.0597 0.079,0.16298 0.3984,1.31534 2.0521,-3.95644 3.3223,-7.42093 z m -3.4014,7.25795 c -0.2306,-0.72104 -0.4208,-1.22705 -0.6206,-1.27647 -0.2254,-0.0557 -0.4782,0.30406 -0.8656,1.05243 -0.4792,0.92617 -0.4641,1.87432 -0.1003,2.57744 -1.397,-0.50464 -2.5482,0.21032 -4.2643,2.13999 -1.9838,2.23084 -2.9455,2.40174 -8.756,1.55876 -6.2087,-0.90078 -6.5288,-1.10279 -6.5149,-4.14401 0.018,-4.08971 -0.8568,-5.70329 -3.7114,-6.83791 -1.5501,-0.6161 -2.8822,-0.27578 -4.1062,1.04994 -1.7095,1.8516 -1.8469,1.72166 -2.4257,-2.30617 -0.032,-0.22578 -0.1408,-0.21909 -0.2108,-0.3295 0.5176,-0.70482 1.0212,-1.41523 1.5115,-1.92163 -0.4501,-0.32247 -0.8131,-0.49831 -1.1643,-0.51237 -0.6875,-0.0275 -1.3584,0.52922 -2.6897,1.64361 -1.4223,1.19071 -2.0513,2.9122 -2.172,5.37006 -1.6703,2.23536 -3.4343,4.38368 -4.7222,4.06944 -3.0001,-0.73198 -3.891,-0.38889 -5.9738,2.29978 -1.7011,2.19593 -3.4587,3.14637 -5.7583,3.11466 -1.8201,-0.0251 -3.8565,0.74333 -4.5253,1.70752 -1.811,2.61122 -12.2913,1.48337 -18.2221,-1.96104 -3.5006,-2.03307 -4.4926,-3.14067 -3.682,-4.11098 1.9241,-2.30325 1.2563,-6.64108 -1.4304,-9.28895 -4.5108,-4.44583 -6.286,-2.93209 -6.3629,5.4258 -0.027,2.91831 0.4856,4.40353 1.6903,4.89782 0.9511,0.39017 2.3932,0.97319 3.205,1.29564 1.1419,0.45369 0.9186,1.08881 -0.986,2.80682 -1.8417,1.66124 -2.923,1.90942 -4.2948,0.98602 -2.444,-1.64491 -5.4549,-0.36667 -3.8551,1.63651 1.9513,2.44341 1.3185,5.78842 -1.1286,5.96551 -7.2275,0.52299 -9.4043,-1.78427 -7.6383,-8.09592 1.0461,-3.73835 1.6188,-4.33256 3.8675,-4.0176 2.0426,0.28608 2.7123,-0.21249 2.9631,-2.20391 0.3373,-2.67802 -2.218,-4.92303 -3.2763,-2.87854 -0.953,1.84112 -3.3735,1.30445 -5.5459,-1.22995 -2.9963,-3.49564 -5.3206,-3.83052 -9.2377,-1.32938 -1.9407,1.23931 -4.1613,2.24477 -4.9356,2.23409 -0.7743,-0.0107 -2.9055,2.28278 -4.7361,5.09594 -1.8305,2.81314 -3.7902,5.5096 -4.3543,5.99249 -1.7139,1.46918 -3.5053,0.98635 -3.4876,-0.94057 0.01,-1.00165 -0.4308,-1.82748 -0.9762,-1.835 -0.5454,-0.007 -0.9957,0.5004 -1.0015,1.12877 -0.01,0.62839 0.4326,1.48682 0.9741,1.90707 1.2524,0.97166 1.2565,5.48183 0,5.4645 -0.5172,-0.007 -2.1622,-1.43157 -3.6556,-3.16472 -2.3925,-2.77665 -3.2698,-3.06533 -7.3804,-2.4308 -2.7782,0.42882 -5.4893,0.16647 -6.7009,-0.64907 -1.6795,-1.13042 -2.2581,-0.94374 -3.3109,1.06911 -1.7071,3.26444 -3.934,3.04121 -6.72,-0.6725 -1.2698,-1.69259 -3.4172,-3.08291 -4.7914,-3.10187 -1.3697,-0.0189 -3.4709,-1.18716 -4.669,-2.59662 -1.7918,-2.10794 -2.5517,-2.32496 -4.2809,-1.2225 -1.7825,1.13649 -1.9325,1.73902 -0.988,3.95937 0.9605,2.25804 0.7236,3.02084 -1.7219,5.538 -2.8358,2.91914 -2.8359,2.91839 -23.8905,2.06508 -17.5216,-0.71009 -21.4785,-1.20101 -23.581,-2.92931 -2.3296,-1.91504 -2.7181,-1.92742 -4.9806,-0.15695 -1.3495,1.05613 -2.8741,1.59392 -3.3879,1.19517 -0.514,-0.3987 -6.436,-1.60446 -13.1604,-2.679 -11.6954,-1.86918 -12.2943,-1.8562 -13.809,0.29009 -1.0074,1.42828 -3.1786,2.34765 -5.9743,2.53093 -5.3801,0.35271 -10.8275,-1.16158 -12.1373,-2.74929 -3.1766,2.04227 -10.2218,4.75283 -22.2735,4.57612 -0.4979,-0.007 -0.7209,-0.0337 -1.2067,-0.0419 -0.2537,-0.55186 -0.5603,-0.94345 -0.9364,-1.27221 -1.0048,-0.87855 -2.4129,-1.31342 -3.1279,-0.96614 -0.7149,0.34728 -1.5139,-0.17523 -1.7751,-1.16214 -1.697,-6.41254 -1.5342,-6.21948 -3.0458,-3.64442 -0.7699,1.3113 -1.1447,3.33175 -0.8325,4.49055 0.214,0.79417 0.088,1.54331 -0.2837,2.20817 -1.3558,-0.0552 -3.1126,-0.0832 -4.2974,-0.14877 -0.8033,-1.90635 -0.709,-3.84704 0.4294,-8.27665 0.8347,-3.24742 1.4957,-7.16783 1.4697,-8.7116 -0.048,-2.80693 -0.048,-2.8068 -1.9596,0.25529 -1.0511,1.68414 -1.9089,4.25361 -1.9089,5.70986 0,1.80953 -0.7026,2.78137 -2.2252,3.07027 -1.7126,0.32538 -2.1634,1.1196 -1.9487,3.45091 0.1941,2.108 0.01,2.53172 -0.6067,1.39436 -0.7308,-1.34885 -1.3274,-1.26939 -3.4257,0.45555 -0.674,0.55407 -1.2877,0.93038 -1.8365,1.15078 -0.897,-0.3362 -1.6662,-0.54068 -2.3301,-0.57237 -0.2941,-0.49279 -0.4718,-1.18953 -0.4806,-2.14107 -0.011,-1.16255 -0.44,-2.6272 -0.9545,-3.25455 -0.3985,-0.48591 -1.405,0.36927 -2.435,1.46607 -1.1189,-2.90871 -7.6989,-0.9234 -11.0536,3.78894 -2.0212,2.83932 -5.1186,3.51957 -5.7557,1.2644 -0.2182,-0.77206 0.6103,-2.76497 1.8413,-4.42842 2.6645,-3.60054 2.1591,-5.14727 -1.664,-5.09452 -0.057,7.8e-4 -0.1057,-0.0159 -0.1618,-0.017 -0.5134,-0.22648 -1.1231,-0.35032 -1.788,-0.39732 -0.7252,-0.33493 -1.28,-0.84309 -1.4914,-1.49555 -0.5059,-1.5613 -0.918,-1.65286 -2.067,-0.45839 -1.1444,1.18968 -1.7773,1.08175 -3.129,-0.53616 -0.7107,-0.85067 -0.5013,1.59162 0.041,4.44368 -1.0001,0.68177 -1.8992,1.48591 -2.482,2.48513 -1.3087,2.2439 -4.2615,1.57735 -4.2845,-0.96721 -0.01,-0.88079 -2.1736,-4.1468 -4.8121,-7.2576 -3.3071,-3.90096 -9.5554,-5.09202 -10.6882,-5.41373 -2.3385,0.25441 -4.4785,1.05207 -5.4338,1.05207 h -5e-4 c -1.0876,0 -3.1573,1.92426 -5.2095,3.03442 -3.9244,2.12328 -5.5553,5.04787 -3.9114,7.01579 0.5382,0.64423 3.6991,1.28818 7.0249,1.43093 5.5741,0.23932 9.1629,1.93715 9.1849,4.34568 0.01,0.53864 -2.5344,1.92293 -5.643,3.07596 -3.8062,1.41178 -9.3194,-10.58586 -11.4407,-7.76925 -1.957,2.59851 -4.0915,4.19547 -5.6368,4.21679 -1.368,0.0189 -2.7589,0.58558 -3.0898,1.25801 -0.3288,0.67237 -2.0497,1.24212 -3.8194,1.26653 -2.7356,0.0377 2.0175,-6.7233 -4.8519,-2.10875 -2.9966,2.01235 -4.5674,1.3276 -4.9263,-2.14604 -0.276,-2.6715 -0.8584,4.19226 -3.7879,5.6147 -0.5317,-1.81826 -2.3497,-3.82888 -5.1852,-3.60856 -3.5079,0.27252 -5.7009,-0.048 -5.7108,-0.83264 -0.01,-0.70112 -1.4845,-1.25407 -3.2845,-1.22924 -1.8,0.0248 -3.8138,-0.6031 -4.4757,-1.39542 -0.936,-1.12043 -1.465,-1.11328 -2.3802,0.0327 -0.6471,0.81038 -1.8683,1.48621 -2.7136,1.50194 -0.8454,0.0157 -2.6467,0.75657 -4.0023,1.64575 -1.3419,0.88018 -9.9425,5.38934 -11.0624,1.9266 -1.8823,-5.81975 -8.4148,-8.49522 -15.2378,-8.1719 -8.6725,0.41096 -3.656,4.14999 -3.8427,4.14471 -4.5662,-0.12928 -1.9789,-3.93425 -6.428,1.31375 -2.001,2.35923 -3.4041,4.47872 -4.1263,5.90834 -0.7543,-0.28636 -1.2996,-0.66439 -1.4625,-1.16711 -0.3232,-0.99732 -4.4163,-13.61698 -5.9335,-13.61971 -1.5173,-0.003 -3.8538,-2.4588 -5.1376,-1.57722 0,0 -4.0419,5.51201 -7.5944,5.21454 -1.3365,-0.11191 -2.0877,-2.37577 -2.0877,-2.37577 -1.9765,-2.24918 -4.3281,1.49396 -1.6635,5.09453 1.231,1.66346 2.0594,3.65634 1.8412,4.42841 -0.6371,2.25517 -3.7345,1.57494 -5.7557,-1.2644 -3.6611,-5.14281 -12.8935,-12.12232 -12.932,-7.93897 -0.01,0.9003 0.983,2.30664 2.2029,3.12389 3.0655,2.05384 4.7484,5.103 3.5931,6.5116 -0.5145,0.62735 -0.9443,2.092 -0.955,3.25456 -0.03,3.2544 -1.8461,3.86496 -4.6467,1.56265 -2.0983,-1.72493 -2.6954,-1.80441 -3.4262,-0.45555 -0.6165,1.13736 -0.8002,0.71366 -0.6061,-1.39435 0.2147,-2.33133 -0.2359,-3.12552 -1.9488,-3.45091 -1.5226,-0.28889 -2.2273,-1.26071 -2.2257,-3.07028 0,-1.45625 -0.8578,-4.02571 -1.9089,-5.70986 -1.9115,-3.06207 -1.9118,-3.06222 -1.9596,-0.25529 -0.026,1.5438 0.635,5.46419 1.4697,8.7116 1.1712,4.5572 1.2573,6.48423 0.3767,8.44531 -0.9383,2.08942 -1.4921,2.30494 -3.1181,1.21043 -1.2598,-0.84792 -1.7719,-2.09619 -1.4103,-3.43849 0.3122,-1.15881 -0.062,-3.17925 -0.832,-4.49055 -1.5116,-2.57508 -1.3493,-2.76815 -3.0463,3.64443 -0.2612,0.9869 -1.0602,1.50941 -1.7751,1.16213 -0.7151,-0.34728 -2.1226,0.0876 -3.1274,0.96615 -1.5082,1.31841 -14.7524,1.58169 -15.0921,11.24075 -0.2322,6.60212 8.9706,2.27369 11.2995,11.42185 1.2446,4.8888 -4.931,-0.28489 -5.7681,6.45514 -0.4769,3.83982 -10.3027,13.772558 2.8009,11.006769 5.0555,-1.067079 10.0685,9.231155 2.8618,8.500695 -8.2449,-0.835692 -4.6332,9.38306 -5.2524,9.374518 -4.8911,-0.06747 -5.4267,0.175469 -5.1836,2.356589 0.4082,3.660805 6.1323,9.42149 8.7994,8.855763 1.6095,-0.341395 2.2308,0.109254 2.217,1.60633 -0.01,1.143909 1.2536,3.747926 2.8091,5.786196 3.1606,4.141321 3.1372,25.98971 -0.069,29.825042 -1.5247,1.825056 -1.8645,1.870587 -2.3358,0.314591 -0.7815,-2.579766 -4.9223,-1.629485 -5.3966,1.238479 -0.5423,3.278792 2.4755,5.857869 4.9837,4.258691 2.5766,-1.642776 4.7497,-0.448428 4.7217,2.595906 -0.025,2.676534 -1.4788,3.277409 -2.5694,1.061655 -0.4748,-0.96453 -0.9268,-0.85031 -1.5043,0.380278 -1.3816,2.944084 1.9884,10.711013 4.6633,10.747923 2.2715,0.0313 6.2043,3.9128263 6.1841,6.1032719 -0.01,0.6380986 -1.1449,3.1574746 -2.5311,5.59871977 -1.3862,2.44121513 -2.5269,5.13092953 -2.5347,5.97686773 -0.02,2.1466958 -3.7576,0.7593151 -7.5066,-2.7879977 -1.6734,-1.5825468 -3.574,-2.88519321 -4.2235,-2.89416319 -2.3426,-0.0324 -5.9294,3.75770789 -6.583,6.95579149 -0.3671,1.7963764 -0.8987,4.18218 -1.1808,5.301528 -0.7869,3.122152 7.5897,4.521555 11.0158,1.840319 3.0803,-2.410764 4.4474,-1.545837 4.4075,2.788353 -0.03,3.300467 6.7095,-1.188701 11.1011,-3.521569 0.4544,-4.1212642 3.2059,-9.4021584 5.1351,-9.3841048 2.2328,0.021 2.2689,4.5203962 0.059,7.4425908 -2.4412,3.228592 -1.0919,6.262735 2.391,5.376447 0.3315,-0.08437 0.6288,-0.111901 0.9287,-0.144158 -0.3347,2.111804 1.0657,4.655174 2.8024,4.787743 -0.916,1.253689 -1.6551,2.561823 -1.9591,3.689872 -0.2726,1.012181 1.0298,-2.01857 2.0366,-3.673894 0.012,3.91e-4 0.023,0.0069 0.035,0.0071 0.4495,0.0062 0.8069,-0.222569 1.109,-0.559943 0.4989,0.901468 0.8955,2.569921 0.8811,4.140453 -0.062,6.715706 6.6389,18.190522 10.6278,18.30449 v 3.55e-4 c 0.8799,0.0251 4.01,-1.061528 6.953,-2.384994 4.8393,-2.175846 5.5126,-2.224215 7.0259,-0.509169 2.2644,2.566356 4.3201,2.415087 6.5077,-0.478277 1.5501,-2.050066 1.6696,-3.071948 0.7865,-6.74133 -1.1171,-4.64224 -1.201,-4.522613 4.0659,-5.862181 1.7004,-0.432488 3.1402,-1.857506 3.7295,-3.692712 1.2737,-3.966472 3.1426,-3.745129 5.7526,0.680311 1.5061,2.553736 2.658,3.402185 3.8799,2.860077 2.3351,-1.036088 4.2933,-4.178567 3.7728,-6.054273 -0.5292,-1.907336 1.9277,-1.945102 4.3243,-0.0664 0.9941,0.77926 2.9743,1.075272 4.4003,0.657942 0.894,-0.261615 0.9741,1.048371 0.8836,2.280605 0.4529,-2.313836 1.2166,-4.94383 1.9157,-6.27406 1.4348,-2.729744 1.7401,-2.770408 18.0113,-2.38393 14.6745,0.348581 18.0331,0.484641 18.7994,-0.248548 0.3243,1.230542 1.2339,2.51236 3.5326,2.544066 3.4503,0.0476 5.7901,-0.574257 6.8259,-1.814045 2.5147,-3.010204 1.9161,-3.854733 -3.423,-4.828931 -3.8594,-0.704168 -4.884,-1.3285343 -4.4385,-2.7034915 0.3185,-0.983138 0.5876,-2.7012439 0.5979,-3.8187615 0.026,-2.8091044 5.4151,-4.57546034 14.4776,-4.74407 7.278,-0.13538972 7.438,-0.0758553 6.1919,2.3068799 -1.7047,3.2595436 -0.1268,5.2190307 4.8183,5.9846793 4.4391,0.6871986 5.116,0.6831248 16.6331,-0.094803 17.1391,-1.1577078 35.7184,-1.1127596 37.5135,0.090897 3.0593,2.0513658 11.458,2.7937798 29.9062,2.6438398 12.1171,-0.0985 22.8956,-0.02217 25.785,0.182506 1.6355,0.115888 10.8306,0.633018 20.4333,1.149356 16.7255,0.899388 17.4824,0.839472 17.9876,-1.420984 0.5917,-2.6571944 5.4069,-3.5707343 18.8241,-3.5737643 8.1785,-0.002 10.8463,1.7357573 5.8322,3.7985223 -2.9864,1.228508 -3.015,1.314143 -1.5813,4.804077 1.0256,2.497136 2.2024,3.563747 3.9585,3.587967 2.3018,0.0317 2.446,0.356988 1.8319,4.130512 -0.5529,3.396192 -0.2795,4.436542 1.5989,6.086228 2.035,1.787198 2.3546,1.800097 3.1409,0.124629 0.534,-1.137946 0.4449,-2.515152 -0.2279,-3.5308 -0.7588,-1.145868 -0.7749,-1.905926 -0.056,-2.437546 1.9333,-1.426216 1.1396,-4.270419 -1.2009,-4.302719 -2.4784,-0.0343 -4.6429,-2.115113 -4.6214,-4.443327 0.017,-1.843158 3.4975,-0.775887 5.0343,1.543837 0.6811,1.028038 3.0392,1.732542 5.9355,1.772502 3.7471,0.0517 4.6836,0.445462 4.2494,1.78564 -0.3063,0.945408 -0.058,2.892603 0.5529,4.327929 0.8434,1.982816 1.8697,2.53025 4.2711,2.27883 2.7614,-0.28917 3.204,-0.826205 3.5067,-4.263307 0.2835,-3.216784 -0.1063,-4.194297 -2.1414,-5.363665 -2.0272,-1.164708 -2.3019,-1.844297 -1.4816,-3.671053 0.7274,-1.619766 2.1239,-2.227677 5.0312,-2.187577 3.1681,0.0437 4.1381,-0.451433 4.5569,-2.3256986 0.2927,-1.3095574 1.3113,-2.6726198 2.2639,-3.028379 0.9525,-0.3557094 2.2493,-1.9945508 2.881,-3.6426476 1.3676,-3.5677728 3.2521,-3.7991692 5.5087,-0.6764054 1.771,2.450835 2.1397,7.2641924 0.9679,12.6358226 -0.8273,3.792352 0.7363,6.985264 3.439,7.022544 0.9573,0.0131 2.3103,0.8835 3.0061,1.934058 0.7557,1.140548 2.4961,1.800216 4.3211,1.636866 1.6808,-0.15044 4.2566,0.47582 5.7237,1.391868 3.1603,1.973246 7.0553,0.516381 12.0427,-4.507239 1.6734,-1.684866 3.1913,-2.524278 3.3729,-1.86482 0.9814,3.562724 2.1692,4.548669 4.6158,3.832609 3.2933,-0.963758 4.5604,-5.942645 2.3063,-9.062057 -0.8718,-1.206448 -1.5802,-2.775343 -1.5736,-3.486063 0.013,-1.4106966 -2.2448,-2.7976508 -4.6074,-2.8302508 -1.5203,-0.0209 -5.149,-4.645675 -5.1909,-6.615991 -0.039,-1.84202631 3.3534,-4.2587022 5.9846,-4.2629522 1.3788,-0.002 3.5097,-0.8435326 4.7356,-1.8697906 1.8979,-1.5888768 2.7472,-1.6287687 5.718,-0.2670115 2.7228,1.2480676 3.9089,1.2865015 5.4002,0.1746937 1.0912,-0.8135884 2.1459,-0.9470337 2.4588,-0.3113951 0.3013,0.6121788 0.091,1.4498149 -0.4667,1.8616241 -0.5582,0.4117592 -1.0275,2.0656221 -1.0423,3.6756689 -0.024,2.6208248 -0.4159,2.8942226 -3.7429,2.6090432 -3.1467,-0.2697094 -3.7677,0.087043 -4.0494,2.3271188 -0.3651,2.9038042 2.9009,5.9306965 5.2493,4.8644385 0.7701,-0.3496796 1.6096,0.362292 1.9265,1.63367 0.7142,2.866784 4.8483,4.236139 7.5629,2.505363 1.1456,-0.731748 3.1604,-1.063842 4.4731,-0.737832 1.3125,0.32603 2.6289,0.124362 2.9249,-0.447386 0.2959,-0.57178 1.7329,-0.27984 3.1936,0.648 1.4607,0.927878 3.2159,1.450637 3.9005,1.162139 1.942,-0.818508 1.5012,-4.9484067 -0.6852,-6.4199937 -1.379,-0.9281782 -1.9593,-2.5702344 -1.9327,-5.4627286 0.021,-2.27428536 0.4272,-4.4219011 0.9028,-4.7728305 0.4758,-0.3508792 2.9023,1.70006459 5.3929,4.5569489 10.3539,11.8767159 10.3041,11.8370829 13.516,10.7571549 1.6404,-0.551568 4.5399,-2.151909 6.442,-3.555656 3.2425,-2.3921252 3.4597,-2.4124591 3.4546,-0.3280833 -0.01,3.4365933 1.1446,4.8953853 4.642,5.8749633 4.0607,1.137408 4.2915,-1.103998 0.8692,-8.4417533 -2.1813,-4.6769406 -2.255,-5.3351364 -0.8645,-7.70818165 1.8652,-3.18331365 4.3596,-3.27259015 7.4512,-0.26523615 3.4892,3.3940132 7.607,4.0922069 8.3292,1.41175228 0.6383,-2.36927528 5.5958,-4.75165258 9.4734,-4.55233298 1.344,0.0691 4.591,-0.063252 7.214,-0.2936416 3.9223,-0.3444294 4.9466,-0.00428 5.7604,1.9088481 0.8318,1.95531609 1.6522,2.2014211 5.1371,1.54206242 2.2813,-0.43161912 5.3601,-1.52271952 6.8415,-2.42511772 4.0318,-2.456025 6.1009,-1.9754947 8.7555,2.0341873 3.033,4.5810308 5.8587,4.9356043 5.8973,0.73996273 0.043,-4.64051073 2.822,-3.79936143 3.1523,0.95406901 0.2197,3.16342366 0.7674,4.04016926 2.7497,4.39929846 1.3615,0.2466396 3.1846,1.2409982 4.0514,2.2099462 1.7806,1.990386 4.8439,1.1252049 4.8669,-1.3744701 0.023,-2.477185 -3.3705,-4.4039802 -4.7816,-2.7148536 -0.8734,1.045508 -1.1514,0.7477768 -1.1333,-1.2153994 0.013,-1.42972707 -0.4576,-2.9734574 -1.0464,-3.4303166 -0.771,-0.5981388 -0.7668,-1.1956336 0.02,-2.1353818 0.5997,-0.7177886 1.1017,-2.5942822 1.1162,-4.1695692 0.016,-1.7221368 0.446,-2.5391094 1.0785,-2.0483894 0.5789,0.4488578 0.8047,1.5777799 0.5033,2.5078481 -1.5561,4.8025204 6.2981,-3.0840601 9.5922,-9.6344281 0.9749,-1.937286 -2.0277,-9.20573 -3.8132,-9.23036 -1.1447,-0.0159 -1.3334,-0.914048 -0.8175,-3.897232 0.3688,-2.132266 1.1237,-4.211661 1.6774,-4.620151 1.0596,-0.781748 -0.2898,-28.957914 -2.0324,-33.699194 -0.6428,-1.748615 -0.4496,-3.539867 0.6547,-6.062795 0.862,-1.96937 1.5798,-4.263355 1.5875,-5.098073 0.01,-0.834716 0.681,-1.508467 1.4888,-1.497324 0.8077,0.01115 1.7489,-1.478774 2.0914,-3.310658 0.076,-0.40676 -3.2792,-7.817993 0.1488,-11.439951 2.3264,-2.457979 -2.9382,-9.542399 0.263,-8.137809 6.69,2.9354 13.0606,-0.43101 11.542,-2.79013 -1.4036,-2.18043 1.6542,-11.62501 -10.5431,-10.12052 -7.0406,0.86844 -3.6657,-7.58052 5.426,-10.44682 0.4985,-1.32884 1.0498,-4.3267 1.2243,-6.6618 0.3076,-4.11528 0.4311,-4.23257 4.0199,-3.79994 3.1731,0.38252 3.873,3.9e-4 4.8984,-2.67473 1.8321,-4.77931 -0.3915,-9.19454 -4.6607,-9.25344 -3.4579,-0.0477 -5.345,2.43488 -5.3878,7.09072 -0.023,2.45981 -0.034,2.45988 -3.5662,-0.15836 -2.9281,-2.17151 -3.2675,-2.80993 -1.9497,-3.68916 2.5174,-1.6795 1.882,-3.36782 -1.2842,-3.4115 -1.6454,-0.0227 -4.1611,-1.36986 -5.8177,-3.11573 -1.3055,-1.3759 -2.3009,-2.25006 -3.1838,-2.65698 0.1811,-0.13422 0.6555,-1.03012 1.3265,-2.44145 z m -378.1474,-5.55185 c 0.3233,-0.0352 0.6379,-0.094 0.9668,-0.10332 -1.1725,-0.0234 -1.358,-0.008 -0.9668,0.10332 z m 103.4861,16.04768 c 2.4251,-1.55905 2.6567,-2.73879 0.7804,-1.88684 -1.2277,0.55743 -1.3243,1.22746 -0.7804,1.88684 z m 244.597,-18.93296 c 0.4313,0.30895 0.9419,0.75173 1.6263,1.35032 4.4755,3.9148 7.2125,-2.01222 2.5223,-1.95252 -0.67,0.009 -1.3833,-0.13507 -2.1255,-0.46336 -0.5353,-0.23681 -1.2518,0.26904 -2.0231,1.06556 z m -151.3474,0.46016 c -1.2663,0.35851 -2.5046,1.86284 -2.5192,3.43778 -0.01,0.86423 0.5415,1.8181 1.2206,2.11869 0.5,0.2213 0.9827,0.30864 1.4258,0.27838 1.3293,-0.0908 2.3024,-1.24143 2.3187,-3.01205 0.011,-1.20846 -0.5354,-2.4503 -1.2144,-2.75959 -0.3842,-0.17498 -0.8093,-0.18272 -1.2315,-0.0632 z m 197.8557,1.42667 c -0.6329,0.2325 -1.0082,1.04394 -1.0206,2.39494 -0.017,1.8114 1.563,2.95219 2.9745,2.6552 0.4706,-0.099 0.9226,-0.35828 1.2903,-0.80494 0.9153,-1.11163 0.7599,-1.83562 -0.6795,-3.16757 -1.0415,-0.9637 -1.9319,-1.31013 -2.5647,-1.07763 z m -274.1347,0.33909 c -1.5981,-0.022 -2.8762,4.49285 -1.5606,5.5135 0.3471,0.26939 0.701,0.37074 1.0371,0.33022 1.0085,-0.12156 1.8558,-1.51786 1.8738,-3.46796 0.012,-1.29612 -0.5957,-2.36535 -1.3503,-2.37576 z m -106.655,0.38809 c -0.2538,0.13819 -0.3971,0.75198 -0.3871,1.81831 0.01,0.78081 0.2669,1.25807 0.6284,1.26795 0.1205,0.003 0.2521,-0.0456 0.3897,-0.15233 0.5505,-0.42708 0.7396,-1.28124 0.4201,-1.89855 -0.4328,-0.83616 -0.7973,-1.17356 -1.0511,-1.03538 z m 147.4639,0.28796 c -0.5417,0.17451 -1.1357,0.77105 -1.8594,1.8144 -1.1388,1.64178 -1.0649,2.18784 0.4874,3.61069 0.7545,0.69151 1.6215,1.12967 2.2055,1.15966 0.1946,0.01 0.3578,-0.0259 0.4749,-0.11221 1.0101,-0.74516 1.1684,-4.58892 0.2372,-5.75495 -0.5148,-0.64465 -1.004,-0.8921 -1.5456,-0.71759 z m -77.2816,0.70943 c -1.3775,-0.0891 -2.7019,0.47184 -3.0861,1.74019 -0.9886,3.26382 0.1596,6.13399 2.6096,6.52474 0.3903,0.0623 0.766,0.0634 1.1219,0.011 2.4903,-0.36675 4.0067,-3.342 2.7611,-6.1157 -0.5981,-1.33198 -2.0289,-2.0711 -3.4065,-2.16023 z m -262.9576,5.3349 c -1.3776,0.0891 -2.8084,0.82858 -3.4065,2.16059 -1.2456,2.77371 2.761,7.8655 2.761,6.11535 0,-0.25009 0.7316,0.0512 1.1219,-0.011 2.45,-0.39075 3.5983,-3.2609 2.6097,-6.52474 -0.3843,-1.26835 -1.7086,-1.82932 -3.0861,-1.74019 z m 486.8225,0.94981 c -0.067,-0.0314 -0.1441,-0.002 -0.2274,0.098 -0.3329,0.39892 -0.3799,1.44637 -0.099,2.32676 0.1535,0.48549 0.2901,0.65558 0.3953,0.53083 -0.1937,-6.1e-4 1.1239,-1.25659 0.2103,-1.25659 h -5e-4 c 0.041,-0.95946 -0.076,-1.60468 -0.2785,-1.699 z m 9.2893,1.11562 c -1.102,-0.0152 -1.991,0.78134 -2.0004,1.7931 -0.01,1.01181 0.8648,1.83329 1.9668,1.84849 1.1019,0.0152 1.9906,-0.782 1.9999,-1.79381 0.01,-1.01176 -0.8644,-1.83258 -1.9663,-1.84778 z m -426.1151,1.80304 c -0.2538,-0.13819 -0.6183,0.19921 -1.0511,1.03538 -0.3195,0.61731 -0.1303,1.47146 0.4202,1.89855 0.1376,0.10677 0.2691,0.15561 0.3896,0.15233 0.3615,-0.01 0.6213,-0.48715 0.6284,-1.26795 0.01,-1.06634 -0.1333,-1.68013 -0.3871,-1.81831 z m -19.8029,1.75972 c 0.8496,0.0118 1.541,0.5668 1.5348,1.23458 -0.01,0.66778 -0.4313,1.20863 -0.9446,1.20155 -0.5132,-0.007 -1.2055,-0.56289 -1.5343,-1.23529 -0.3311,-0.67245 0.093,-1.21257 0.9441,-1.20084 z m -39.5583,77.838824 c 1.1232,0.0155 1.7732,0.547154 1.4449,1.181313 -0.1347,0.260251 -0.4202,0.416306 -0.7736,0.486444 -0.2651,0.0526 -0.5682,0.05648 -0.8733,0.01953 -0.9151,-0.11085 -1.8499,-0.590966 -1.8439,-1.238834 0,-0.262444 0.9229,-0.463943 2.0459,-0.448452 z m 541.4388,5.826674 c 0.2059,0.0028 2.2494,3.707122 2.9192,4.71815 0.9973,1.505523 0.9266,1.83471 -0.3912,1.81653 -0.885,-0.0123 -1.6014,-0.84186 -1.5921,-1.843515 0.01,-1.00166 -1.1419,-4.694007 -0.9359,-4.691165 z m -557.9871,2.496842 c -1.2617,0.116779 -2.488,0.748975 -2.8345,1.818305 -0.8839,2.727701 1.0544,6.606081 3.3171,6.637296 2.0257,0.02794 3.744,-4.784702 2.5642,-7.181616 -0.4882,-0.991996 -1.7852,-1.390765 -3.0468,-1.273985 z m 580.4235,26.225358 c -5.5346,1.210556 -4.1121,7.020838 -2.3095,7.896368 0.2257,0.10959 0.5306,0.200578 0.7793,0.223338 0.2487,0.0228 0.4413,-0.02275 0.4413,-0.186056 0,-0.979668 3.5801,-4.29825 2.9177,-6.485326 -0.3216,-1.061768 -1.0857,-1.610864 -1.8288,-1.448324 z m -1.9121,14.837601 c -3.2138,0.0328 -3.2847,0.118543 -1.1704,1.401811 0.8323,0.505138 1.4715,0.755404 2.0107,0.749904 0.5392,-0.005 0.9785,-0.266988 1.4113,-0.785056 0.8924,-1.068228 0.3569,-1.393319 -2.2516,-1.366659 z m -580.2348,9.243143 c -10e-5,8.31e-4 0,0.0017 0,0.0025 2e-4,2.94e-4 0,-0.0034 0,-0.0025 z m 0,0.0025 c 0,-0.0026 -0.011,0.0131 -0.012,0.02166 -0.011,0.0694 -0.011,0.13901 -0.012,0.20878 3e-4,0.0039 1e-4,0.0079 0,0.01243 0.011,-0.08038 0.021,-0.161301 0.024,-0.242867 z m 171.4324,6.2002063 c 0.9261,0.087687 2.3153,0.6365799 3.5352,1.4444186 1.936,1.2819774 4.2168,1.732976 6.6037,1.3055868 4.0005,-0.7163186 7.0721,0.2432867 6.196,1.9358333 -0.4222,0.8157884 -4.3065,1.0876499 -8.4641,0.9338301 -4.1577,-0.1538096 -8.5884,-0.7333894 -10.1043,-1.6208876 -2.8732,-1.6820366 -3.5076,-3.3876323 -1.248,-3.3564623 0.7735,0.0107 2.0037,-0.2455003 2.7332,-0.5688197 0.1824,-0.080822 0.4396,-0.1027281 0.7483,-0.073499 z m -16.2254,0.036217 c 0.8097,-0.1469448 1.6833,-0.017931 1.9431,0.5098783 0.3165,0.6430492 -0.344,1.156325 -1.4671,1.140835 -1.1231,-0.0155 -2.0395,-0.2424579 -2.0371,-0.5049073 0.01,-0.5758992 0.7514,-0.9988613 1.5611,-1.145806 z m -157.3299,6.7594386 c -0.5453,-0.007 -0.9941,0.2285365 -0.9968,0.5230159 0,0.2944794 0.4381,0.8782663 0.9797,1.29848545 0.2708,0.21011958 0.5186,0.2568461 0.6992,0.1622663 0,-0.16875968 0.295,-0.32989745 0.2982,-0.68350685 0.01,-0.7071586 -0.4348,-1.2927308 -0.9803,-1.3002608 z m 326.3361,0.8418674 c 1.8247,-0.126015 4.17,0.7905901 4.8716,2.44003061 0.6327,1.48716699 0.6559,2.63079849 0.053,3.07311769 -0.3495,0.2578894 -5.6226,0.5458434 -3.6959,0.4591036 h -5e-4 -5e-4 c -1.9327,0.0555 -4.3801,-0.080245 -6.8084,-0.080245 h -5e-4 c -4.8569,0 -9.5932,-0.6726983 -9.8671,-1.2292471 -1.3659,-2.77517447 6.9303,-4.9386628 10.8763,-2.83628702 1.2352,0.65813871 2.0568,0.51347971 2.3172,-0.40690848 0.2524,-0.893237 1.1598,-1.3439548 2.2546,-1.4195638 z m 247.4433,1.09432107 c -2.0044,0.18413654 -3.5662,2.41022323 -2.8959,5.69920413 0.4,1.9625062 1.2976,2.688239 3.3559,2.716629 3.6624,0.0505 5.3984,-3.3423469 3.2396,-6.3301609 -1.1348,-1.57145682 -2.4969,-2.19615416 -3.6996,-2.08567223 z m -390.3146,0.59544984 c 0.5454,0.007 0.9869,0.56043321 0.9808,1.22818187 -0.01,0.66779862 -0.4577,1.20765142 -1.0031,1.20013142 -0.5454,-0.007 -0.9865,-0.5596831 -0.9803,-1.22747169 0.01,-0.66774869 0.4571,-1.20836158 1.0026,-1.2008416 z m 359.7237,0.84115723 c -3.3625,0.17508331 -4.9784,4.46377536 -1.9957,7.20682496 0.713,0.6555086 1.2182,0.9703432 1.727,0.9249534 0.5089,-0.0454 1.0212,-0.4513647 1.7472,-1.2352833 0.9643,-1.0410178 1.7617,-2.8608173 1.7725,-4.0438749 0.011,-1.1831176 -0.7589,-2.3798884 -1.711,-2.65910784 -0.5433,-0.15937968 -1.0596,-0.21852422 -1.54,-0.19351232 z m -206.2484,0.22724383 c 5.0758,1.20085753 5.2861,1.34531183 4.2101,2.89664863 -0.337,0.485839 -0.8171,0.7867394 -1.3477,0.928149 -0.3979,0.1060698 -0.824,0.1226364 -1.2392,0.060717 -1.2457,-0.1860496 -2.3927,-1.079007 -2.3807,-2.3814442 0.01,-0.9237582 0.3493,-1.60064965 0.7575,-1.50407043 z m 186.6543,2.35445913 c -1.6029,0.025875 -3.354,0.9167561 -4.3744,2.6583977 -1.3998,2.3882152 -1.3896,2.8555813 0.052,4.8580469 1.107,1.531856 2.8374,2.27846 4.3961,2.25291 h 5e-4 c 1.5588,-0.0175 2.9454,-0.823697 3.3647,-2.380735 0.3585,-1.3307862 -1.7195,-4.8569814 0.045,-4.8569814 h 5e-4 c -0.427,-1.7182716 -1.8817,-2.5575132 -3.4845,-2.5316382 z m -203.3106,5.750334 c -1.9638,-0.0271 -2.4075,0.9941682 -2.1404,4.9269306 0.072,1.057448 -0.8943,2.485337 -2.1467,3.172537 -2.2662,1.243406 -2.2627,1.254348 0.5948,2.212786 0.8126,0.27249 1.7038,0.383946 2.5043,0.342996 0.8005,-0.041 1.5104,-0.234245 1.9611,-0.571305 1.7207,-1.286726 2.6183,-5.509324 1.7683,-8.315348 -0.29,-0.9571986 -1.4334,-1.7533166 -2.5414,-1.7685966 z m 235.0244,0.814172 c -1.3889,-0.0191 -2.1374,2.1550726 -1.0361,3.0095606 0.328,0.25444 0.6915,0.356351 1.0408,0.344061 1.0481,-0.0369 1.9703,-1.106357 1.4304,-2.203555 -0.3081,-0.625968 -0.954,-1.1434266 -1.4351,-1.1500666 z m -385.2499,0.8450626 c -1.451,-0.06107 -3.1502,1.173472 -3.4049,3.204493 -0.2768,2.207046 0.133,2.733933 2.1477,2.761723 2.8251,0.039 4.0613,-1.622958 3.2354,-4.349234 -0.3263,-1.077346 -1.1075,-1.580337 -1.9782,-1.616982 z m -142.6641,1.265464 c -0.6211,0.181753 -1.6267,0.737262 -2.5869,1.247356 -0.037,0.339321 -0.165,0.715695 -0.168,1.035025 -0.04,4.39159 5.6032,-3.115969 2.7549,-2.282381 z m 300.2514,2.034543 c -0.8265,-0.0114 -1.4975,1.058328 -1.51,2.407364 -0.012,1.349028 0.6391,2.437853 1.4656,2.449263 0.8264,0.0113 1.4975,-1.059047 1.51,-2.408075 0.012,-1.349028 -0.6392,-2.437152 -1.4656,-2.448552 z m 106.1708,1.464657 c -0.8504,-0.0119 -1.5509,0.524877 -1.557,1.192675 -0.01,0.66775 0.4082,1.219682 0.9214,1.226762 0.5133,0.006 1.2143,-0.529577 1.5575,-1.192675 0.3432,-0.663118 -0.071,-1.215032 -0.9219,-1.226762 z m 104.774,0.250324 c -1.814,-0.31625 -3.7305,1.090335 -4.0179,3.871666 -0.26,2.516366 0.097,3.375796 1.4552,3.503106 5.1108,0.479008 6.9176,-1.167832 5.3429,-4.869764 -0.6404,-1.505428 -1.6919,-2.315259 -2.7802,-2.505008 z m -38.0132,0.825534 c -0.2946,-0.04785 -0.6631,-0.02496 -1.1214,0.04829 -1.4669,0.23445 -2.2425,1.192041 -2.2572,2.785867 -0.015,1.593818 0.7434,2.572425 2.2055,2.847295 0.4569,0.0859 1.1204,-0.15237 1.1204,0.07953 0,0.17394 0.07,0.205219 0.1752,0.123209 0.3155,-0.24604 0.9482,-1.510104 0.9617,-2.988612 0.018,-1.971341 -0.2005,-2.752038 -1.0842,-2.895583 z m -455.7159,0.404423 c 0.1038,-0.01591 0.093,0.02251 -0.063,0.137411 -0.5215,0.38473 -0.6762,1.913736 -0.5297,3.643003 -0.1607,-0.515338 -0.3365,-1.162373 -0.5783,-2.080701 -0.1398,-0.531235 -0.3732,-0.857665 -0.6247,-1.13835 0.8203,-0.271559 1.5975,-0.530975 1.7957,-0.561363 z m 332.2888,0.166172 c -1.7351,-0.0239 -2.4273,0.634452 -2.4428,2.323568 -0.012,1.296118 0.4495,2.721903 1.0253,3.168631 0.1576,0.12229 0.3556,0.168925 0.5798,0.153745 1.5688,-0.1065 4.4274,-3.236692 3.7796,-4.552688 -0.2866,-0.58257 -1.6105,-1.074876 -2.9419,-1.093256 z m 140.5687,0.856425 c -0.2182,-0.03135 -0.4893,-0.0084 -0.8175,0.06427 -1,0.22149 -1.9846,1.400738 -2.188,2.619696 -0.2004,1.200368 -0.024,1.783642 0.6304,1.877602 0.2182,0.0313 0.4899,0.0079 0.8181,-0.06427 0.9999,-0.221488 1.9846,-1.400432 2.1879,-2.61934 0.2004,-1.200365 0.024,-1.783895 -0.6309,-1.877957 z m -282.0975,0.127115 c -0.2749,-0.08348 -0.5755,-0.03923 -0.8356,0.152679 -0.5203,0.38375 -0.6891,1.218985 -0.3757,1.855943 0.1567,0.31846 0.68,0.840783 0.68,0.612493 0,-0.22836 0.5754,0.03953 0.8356,-0.152324 0.5202,-0.38375 0.6897,-1.21864 0.3762,-1.855588 -0.1567,-0.31847 -0.4057,-0.529726 -0.6805,-0.613203 z m -197.5048,0.320981 c 0.2053,0.01648 0.398,0.03523 0.6201,0.0277 -0.2677,0.224333 -0.4896,0.561863 -0.7524,0.819853 0.055,-0.271494 0.1161,-0.535294 0.1323,-0.847549 z m -25.9819,0.258845 c -0.4925,-0.107938 -1.1622,0.249436 -2.1978,1.031119 -1.1405,0.861058 -1.2201,1.462357 -0.3384,2.566435 0.3899,0.48839 0.8596,0.766033 1.3332,0.870983 1.4206,0.31484 2.8778,-0.926281 2.3384,-2.706687 -0.3273,-1.080583 -0.6428,-1.65391 -1.1354,-1.76185 z m 323.7048,3.894392 c -0.3529,0.06055 -0.7117,0.286274 -1.0536,0.695579 -1.0676,1.277996 1.6033,13.074791 3.2566,14.383469 0.6249,0.494598 1.1467,0.742843 1.5555,0.768723 1.2262,0.0776 1.4354,-1.850923 0.3581,-5.167667 -0.6998,-2.154706 -1.4811,-5.423853 -1.7363,-7.263991 -0.3183,-2.292902 -1.3216,-3.597768 -2.3803,-3.416113 z m -234.9024,1.320499 c -0.067,0.34275 -0.1876,0.715049 -0.2367,1.0368 -0.3054,1.999757 0.1208,0.539395 0.2367,-1.0368 z m -4.9191,1.369144 c -0.9182,0.04419 -1.9125,0.876369 -3.5145,2.522762 -3.3358,3.428082 -1.282,11.146451 2.9817,11.205251 2.4674,0.0341 6.1254,-3.922784 6.1505,-6.652208 0.01,-1.033558 -1.1423,-3.224938 -2.5595,-4.869764 -1.2979,-1.506313 -2.14,-2.250226 -3.0582,-2.206041 z m 21.7635,1.000583 c -2.391,-0.112495 -6.0408,3.683306 -5.6353,7.286005 0.3013,2.677036 1.9758,4.49661 3.7373,4.53387 0.5872,0.0123 1.1841,-0.172956 1.743,-0.590834 1.8012,-1.346108 2.8528,-6.614035 1.9296,-9.661769 -0.3205,-1.057884 -0.9776,-1.529773 -1.7746,-1.567272 z m 245.4517,1.705394 c -0.8004,-0.167725 -1.7681,0.502183 -2.7006,2.051586 -0.7238,1.202738 -2.1002,2.53286 -3.0587,2.95559 -1.1336,0.499928 -1.7546,2.055437 -1.7767,4.449363 -0.029,3.102434 0.3502,3.686296 2.4107,3.714726 1.5267,0.021 2.8934,-0.986061 3.6407,-2.682187 0.6579,-1.493596 1.7449,-3.104627 2.4148,-3.579445 0.6809,-0.48219 1.019,-2.220438 0.7674,-3.936644 -0.264,-1.800223 -0.8971,-2.805264 -1.6976,-2.972989 z m 55.7454,0.314591 c -0.6984,-0.0068 -1.4942,0.371038 -2.7719,1.129473 -3.1813,1.888546 -3.5423,3.466077 -1.8588,8.128227 0.7222,2.000046 2.3701,4.033112 2.7709,3.931674 h 5e-4 c 0.057,-0.0145 0.089,-0.07282 0.089,-0.18073 0,-0.863328 2.29,-0.606848 3.6236,-2.464176 2.8779,-4.008312 2.9859,-7.037765 0.3338,-9.367061 -0.8876,-0.779513 -1.4885,-1.170652 -2.187,-1.177407 z m -222.4443,0.951938 c -1.3877,0.14815 -2.8372,0.993035 -3.4881,2.442516 -0.9035,2.011946 -0.7822,2.994423 0.6087,4.919119 0.8474,1.172738 1.7625,1.79 2.6288,1.961398 0.3248,0.0643 0.6427,0.06615 0.9478,0.01065 v -3.56e-4 c 2.1358,-0.389018 3.6392,-3.574138 2.4215,-7.59598 -0.4049,-1.336791 -1.7309,-1.885498 -3.1187,-1.73735 z m 277.1418,0.449517 c -0.7515,0.218514 -1.4816,1.131715 -1.7115,2.500392 -0.1962,1.168588 0.2938,2.028944 1.1627,2.040934 1.8423,0.0254 2.9722,-1.938848 2.1161,-3.678154 -0.2201,-0.447335 -0.5095,-0.7207 -0.8263,-0.841158 -0.2375,-0.09034 -0.4905,-0.09485 -0.741,-0.02201 z m 12.0117,1.071242 c -0.5455,-0.007 -0.9965,0.532343 -1.0026,1.200131 -0.01,0.667758 0.4348,1.221382 0.9803,1.228892 0.5454,0.007 0.997,-0.533093 1.0031,-1.200841 0.01,-0.66779 -0.4355,-1.220642 -0.9808,-1.228182 z m -106.9542,1.248065 c -0.872,0.03439 -1.6678,0.59275 -1.6775,1.647163 -0.017,1.870466 5.9705,7.220538 7.4678,7.609118 0.2139,0.0555 0.3364,0.01053 0.3364,-0.161557 v -3.55e-4 c 0,-1.838916 0.7872,-5.650676 -1.5203,-5.682516 -1.0443,-0.0144 -2.1561,-0.876331 -2.4707,-1.915239 -0.3155,-1.041573 -1.2638,-1.531001 -2.1357,-1.496614 z m -297.0605,1.091836 c -0.8744,0.183278 -1.3807,1.333644 -1.3994,3.357528 -0.019,2.117994 0.5208,2.941661 1.9426,2.961271 2.327,0.0321 3.3492,-4.037221 1.4025,-5.583807 -0.7639,-0.606858 -1.421,-0.844959 -1.9457,-0.734992 z m 379.1893,0.960815 c -1.6327,-0.0225 -2.0544,0.601533 -1.8299,2.707397 0.1604,1.504918 0.9611,2.745117 1.7793,2.756397 0.8182,0.0112 1.6416,-1.206956 1.8298,-2.707042 0.2632,-2.099156 -0.1466,-2.734222 -1.7792,-2.756752 z m -56.4529,0.814172 c -1.041,0.0038 -1.667,1.206886 -1.9244,3.634836 -0.2947,2.779666 0.023,3.246092 2.2329,3.276572 3.2986,0.0455 4.5176,-3.343006 2.0237,-5.6289 -0.9335,-0.855568 -1.7076,-1.284795 -2.3322,-1.282508 z m -222.2603,0.198484 c -1.1019,-0.0152 -1.9911,0.781337 -2.0004,1.793095 -0.01,1.011808 0.8654,1.833997 1.9673,1.849197 1.1019,0.0152 1.9906,-0.782018 1.9999,-1.793806 0.01,-1.011768 -0.8649,-1.833276 -1.9668,-1.848486 z m 165.5201,3.497779 c -2.4167,-0.0333 -2.1011,2.807724 0.3814,3.432802 0.2441,0.0615 0.4695,0.06977 0.6707,0.02947 0.6038,-0.12072 0.9886,-0.675591 0.9964,-1.523599 0.01,-1.126268 -0.8303,-1.921875 -2.0485,-1.938673 z"
       sodipodi:nodetypes="ccscscsscccscccsccscccssscccsscscsscccssccscssccsccccccccccccccccccccccccsscccsccssscssccccsccccsssscscccccccssccssssscssccccsccccsccscccccscscscccscssssccssscscccsscsscssscscscscssssssscccsccscsccccssscscccccssscsscsssssscscccssscssscsccsssscccssccccccccccssssssssssccscscssssscsssssccscscsscccsssscsccsssscssccsscccsccccssssccsssccccscsccsscccsccsscssscccsscsccccccccsscscscssssccscscccscccccccscccsccccsscscccscccscssssccssssssscssssscssscscssccccsccscscssssccsccsccsssscscccccssssscscssccscsccccccccccsssssssssssscsccscccsccccssscscsssscscccccscsccsscsscccsccsscscsscssscsscssccssssssccsscccscccscssssssscsscsssccscsscsccssccsccsscsscssccccscssssssssscscccssscssssccssssscsccssscsccscsssssscccsscsssscccccscssssssscsssssccssssssscscsssccs" /><path
       style="font-weight:bold;font-size:55.4081px;line-height:1;font-family:'Needleteeth Regular';-inkscape-font-specification:'Needleteeth Regular,  Bold';text-align:center;letter-spacing:2.92872px;word-spacing:0px;text-anchor:middle;fill:#e6e6ff;stroke-width:0.414457;stroke-linecap:round;paint-order:markers stroke fill"
       d="m -2269.1611,-118.08156 c 0.9279,2.47375 1.5884,12.75109 0.1666,12.42335 0.1031,-5.44603 -4.6146,-12.70743 -9.382,-8.81688 -1.005,4.70203 2.2259,6.91177 6.0211,3.71477 0.6057,3.5358 -0.019,15.82901 -1.6061,5.89234 -5.34,-7.0196 -4.9895,6.114246 -4.8726,9.706235 -0.8508,5.615341 2.1068,8.611939 7.0296,9.998903 -4.6174,-0.724913 -10.3157,-0.923288 -14.1977,-0.534171 7.1916,-4.015566 2.1825,-13.530823 3.4667,-20.114447 0.701,-4.12289 -0.48,-10.73342 -2.1212,-12.48599 5.1653,0.72726 10.4504,0.76008 15.4956,0.21589 z m 11.6135,2.28268 c -1.2019,7.63091 0.1915,14.81893 0.1456,22.478278 0.01,3.362183 0.2716,6.38227 2.7214,8.009073 -2.8933,-2.263569 -12.3892,2.352217 -7.148,-3.636225 0.2366,-6.958488 -0.4472,-12.436516 -0.5273,-19.496896 1.9768,-4.24167 -6.3585,-12.33274 1.6732,-9.06619 -0.6561,1.50713 9.3769,-3.52753 3.4977,1.07647 l -0.3632,0.63549 z m 17.4163,12.53282 c -3.7892,6.149035 -7.7733,-0.45913 -6.0374,-4.93081 -3.7371,-10.8024 11.4914,-3.80218 7.4093,3.14739 l -0.2758,0.57063 z m 9.4376,17.515217 c -8.7594,-0.315618 -3.7342,-10.110586 -8.6891,-13.516424 4.7369,-3.146423 6.9952,-13.919263 -0.4204,-16.677773 -2.023,-2.25686 -12.2301,-3.0572 -11.7166,-1.04164 3.3008,5.75466 0.6402,13.63871 2.148,20.02519 0.7881,3.549293 -1.1167,10.077453 -1.1136,11.267378 3.7079,-1.260663 11.5218,2.313627 5.3293,-3.202073 -0.482,-4.43139 -1.3668,-11.873595 4.5937,-6.359005 2.5826,3.73955 -3.495,12.702279 4.8469,9.739355 1.5239,0.103582 3.9893,0.651673 5.0218,-0.235008 z m 14.4482,-30.684547 c 0.9084,3.2679 1.817,16.573406 -0.4334,7.02361 -0.1125,-8.29056 -11.7421,-6.67919 -8.5546,1.94414 3.077,4.94619 12.4305,2.69392 11.1315,10.924546 0.2622,5.250934 0.1142,12.971744 -7.6485,10.526333 -10.4515,4.316856 -8.0881,-8.53651 -7.9645,-14.834249 3.5225,-2.64458 -0.044,14.763856 7.4669,12.084914 8.3822,-1.352233 5.5427,-16.118084 -3.2892,-13.783974 -5.8893,-1.57543 -3.6616,-12.04585 -1.4688,-15.66934 2.4552,0.33275 10.8459,-1.36668 10.7606,1.78402 z m 22.3852,5.02629 c -0.6016,-5.27489 -7.0531,-5.58922 -4.6296,1.39769 1.2134,8.02539 -2.6851,18.710284 3.6433,24.621694 -3.081,-2.994855 -13.5341,4.131901 -7.4151,-2.405703 1.0789,-8.73878 0.3822,-17.501921 0.467,-26.486731 -6.375,-7.66676 -4.2612,14.11716 -6.5393,6.15228 -0.7406,-5.6332 -2.9052,-12.64406 5.295,-9.94372 5.301,-0.76111 15.2336,-1.50413 11.5352,6.68144 0.4503,4.45312 -0.7276,9.90296 -1.6684,2.63124 -0.3814,-0.46297 0.05,-2.7938 -0.6881,-2.64819 z m 37.4335,3.40208 c 0.856,5.09894 -1.5557,4.90838 -1.6266,-0.18486 -0.7494,-3.17892 -3.8917,-10.42077 -6.5694,-4.72648 -0.3887,6.16162 -2.0081,12.66365 0.4106,18.522028 0.1777,6.960106 7.3708,6.699543 7.4392,-0.312401 1.6207,-7.197907 2.8684,13.688449 -4.8853,8.575014 -6.3538,-0.157476 -7.1762,-11.390508 -7.5902,-16.850821 1.0726,-6.88666 -0.5497,-18.28779 10.0064,-14.89904 3.6599,0.92871 1.5883,7.51659 2.8153,9.87656 z m 17.3829,6.36518 c -0.3537,4.286439 0.5044,14.853705 -5.606,10.895621 -3.8152,-6.868452 -2.9308,-15.129011 -1.1495,-22.383221 7.3635,-5.07397 6.2256,8.34692 6.7555,11.4876 z m 3.5016,-3.68742 c -0.7081,-5.15016 -1.4033,-15.76833 -8.468,-12.13799 -7.0606,-0.0717 -6.8789,12.56587 -6.5973,18.144736 -0.7403,5.956165 4.3263,18.406524 11.2339,11.804048 5.4368,-3.160856 2.4687,-12.227547 3.8314,-17.810794 z m 6.6447,-14.09118 c 4.1608,6.32939 4.7838,14.20749 9.2849,19.423604 0.09,-6.095084 -0.8136,-15.719014 -2.6516,-18.062304 3.394,0.8315 9.6894,-1.36235 5.703,3.75154 0.2957,7.10528 0.3416,13.91589 0.6277,20.911975 0.3402,3.427444 1.3467,11.477996 -2.6982,4.782508 -2.3049,-4.638256 -5.087,-14.594263 -8.6223,-15.462883 2.0283,5.076548 -1.0878,13.607735 3.24,16.489347 6.3449,1.839516 -11.8438,4.264843 -5.61,-0.09338 1.2499,-6.501317 -1.7099,-12.434557 -0.6769,-18.926567 0.073,-3.56122 -0.9564,-14.24233 0.8441,-13.42218 l 0.1502,0.32222 0.4088,0.2861 z m 32.4563,1.55837 c -1.9502,2.97229 3.1587,16.31969 -1.2034,7.35526 -0.6316,-5.44683 -9.6151,-7.23199 -8.4321,-0.13401 -1.6215,5.54865 -1.0027,11.866964 0.1971,16.693265 -0.6323,4.516927 7.4732,8.263315 6.6264,0.324501 0.9492,-5.10155 -2.0283,-7.653136 -4.6499,-3.562335 -1.8185,-3.823211 -2.7792,-6.966801 2.8755,-5.258471 8.8315,-3.19807 3.7142,9.489857 5.0351,14.43019 0.564,4.127056 -3.6722,15.745563 -2.6088,5.194461 0.961,-5.782852 -11.5243,-0.657171 -10.5796,-9.038056 -2.0992,-6.000269 -1.3918,-12.651615 -0.3494,-18.553725 -2.7228,-9.33842 8.6743,-7.88089 13.093,-7.45104 z m 16.4158,14.59601 c -3.7887,6.148861 -7.774,-0.45874 -6.0378,-4.93084 -3.737,-10.80252 11.491,-3.80182 7.4092,3.14742 l -0.2758,0.57047 z m 9.4376,17.515217 c -8.7595,-0.315595 -3.7341,-10.110367 -8.6888,-13.516437 4.7367,-3.1466 6.9954,-13.91943 -0.4207,-16.67772 -2.023,-2.2569 -12.2299,-3.05725 -11.7166,-1.0417 3.3006,5.75467 0.6403,13.63888 2.1484,20.025301 0.7881,3.549044 -1.1171,10.077476 -1.1134,11.267292 3.7076,-1.260858 11.5218,2.313927 5.3299,-3.20219 -0.482,-4.431347 -1.367,-11.873453 4.5935,-6.358893 2.5821,3.74013 -3.4953,12.702264 4.8469,9.739358 1.523,0.103727 3.9915,0.651444 5.0208,-0.235011 z m 8.5788,-32.155117 c 9.0753,-3.07055 8.2836,8.09248 7.119,14.06281 0.071,-5.43122 -4.492,-15.637 -10.2529,-9.89256 -0.853,4.91377 2.617,5.08897 5.1889,3.57833 0.6882,3.33768 1.6477,14.819536 -0.8155,5.93402 -5.2683,-7.23432 -3.608,5.576074 -3.6222,8.705219 -2.7928,5.042796 3.1793,10.450923 6.085,5.246067 2.6567,-2.846162 2.492,-14.500196 3.0688,-4.772686 -0.1533,4.413295 3.1568,11.236238 -4.1032,8.941981 -3.6602,-0.12436 -9.0957,0.665174 -11.7363,-0.453787 7.2656,-2.293067 1.0066,-11.833146 2.895,-18.147214 1.4981,-4.4708 -2.3067,-12.1707 -2.4258,-12.98928 2.7888,0.60985 5.7384,-0.64368 8.5992,-0.2129 z m 26.6538,0.0439 c -1.95,2.97228 3.1585,16.31962 -1.2034,7.35536 -0.6312,-5.44723 -9.6149,-7.23192 -8.432,-0.13411 -1.6214,5.54869 -1.0023,11.866915 0.1976,16.693284 -0.632,4.517084 7.4733,8.263149 6.6266,0.32448 0.9495,-5.101557 -2.0283,-7.653174 -4.6497,-3.562312 -1.8189,-3.823042 -2.7795,-6.966842 2.8752,-5.258502 8.8315,-3.19801 3.7141,9.489812 5.0351,14.430183 0.5639,4.127005 -3.672,15.745564 -2.6087,5.194463 0.9611,-5.782944 -11.5243,-0.656913 -10.5797,-9.038037 -2.0983,-6.000293 -1.392,-12.651549 -0.3489,-18.553709 -2.723,-9.33854 8.6737,-7.88087 13.0929,-7.45107 z m 16.5491,24.231568 c -8.0028,2.568212 -2.2785,-10.001138 -1.7677,-10.184308 0.4512,3.46296 1.751,6.748543 1.7677,10.184308 z m 8.604,7.308974 c -5.6021,-4.538507 -4.5653,-13.537642 -7.2373,-20.022812 -0.4981,-3.61209 -2.3822,-14.8151 -4.3389,-14.60714 -1.2857,7.96674 -2.3928,15.41947 -4.8056,22.440367 0.7618,4.562451 -4.8373,12.504194 -4.2552,13.43605 2.9394,-2.270496 12.9273,0.895514 5.9869,-3.28487 1.6706,-8.095371 10.8774,-0.139435 7.2487,2.783568 1.8036,-1.885462 7.4635,0.633861 7.4014,-0.745163 z m 18.9835,-25.087572 c -0.6013,-5.27487 -7.0529,-5.58926 -4.6294,1.39761 1.2132,8.02538 -2.685,18.71017 3.6427,24.621786 -3.081,-2.994891 -13.5338,4.131845 -7.4148,-2.405729 1.1012,-7.451889 0.062,-15.410217 0.568,-23.097087 1.601,-7.80652 -7.0173,-4.21837 -5.228,1.56092 0.1233,10.561341 -5.103,-10.40777 -0.3864,-8.97775 4.6229,1.51417 16.911,-3.42653 16.0482,4.02215 -0.1201,3.73768 -0.3604,14.668172 -1.9123,5.52628 -0.3813,-0.4629 0.05,-2.79439 -0.688,-2.64818 z m 13.4478,-4.38978 c -1.202,7.63087 0.1917,14.81889 0.1454,22.47827 0.01,3.362142 0.2713,6.382276 2.7214,8.009073 -2.8933,-2.263615 -12.3894,2.352294 -7.1483,-3.636225 0.2364,-6.958733 -0.447,-12.436398 -0.5262,-19.496898 1.9768,-4.24174 -6.3586,-12.33272 1.6731,-9.06619 -0.6562,1.50718 9.3769,-3.52788 3.4975,1.07656 l -0.3626,0.63541 z m 18.3499,14.15703 c -0.3532,4.286625 0.5044,14.853731 -5.6061,10.895629 -3.815,-6.868482 -2.9306,-15.129079 -1.1494,-22.383239 7.3635,-5.07375 6.2251,8.34652 6.7555,11.48761 z m 3.5016,-3.68741 c -0.708,-5.15011 -1.4033,-15.76834 -8.468,-12.138 -7.0606,-0.0717 -6.8787,12.56594 -6.597,18.144739 -0.7401,5.956077 4.3265,18.406563 11.2341,11.804047 5.4361,-3.16073 2.4697,-12.227886 3.8309,-17.810786 z m 6.6447,-14.09119 c 4.1611,6.32919 4.7838,14.20747 9.285,19.423649 0.09,-6.095079 -0.8138,-15.719539 -2.6515,-18.062339 3.394,0.83151 9.6895,-1.36236 5.703,3.75154 0.2958,7.10523 0.3416,13.91595 0.6275,20.911977 0.3403,3.427473 1.3465,11.477909 -2.6983,4.782504 -2.305,-4.63824 -5.0866,-14.594511 -8.6225,-15.462871 2.0284,5.07654 -1.0877,13.60777 3.2401,16.489333 6.3447,1.839542 -11.8435,4.264828 -5.6098,-0.0934 1.2497,-6.501313 -1.71,-12.434523 -0.6771,-18.926543 0.074,-3.56135 -0.9563,-14.24171 0.8443,-13.42233 0.063,0.22351 0.2742,0.60527 0.5593,0.60848 z m 29.3216,25.789948 c -8.0028,2.568229 -2.2789,-10.001168 -1.7679,-10.184308 0.4512,3.46303 1.7514,6.748553 1.7679,10.184308 z m 8.6039,7.308974 c -5.6019,-4.538792 -4.5648,-13.537592 -7.237,-20.022812 -0.4981,-3.6121 -2.3814,-14.81517 -4.3383,-14.60714 -1.2855,7.9667 -2.3933,15.41926 -4.8056,22.44034 0.7617,4.562609 -4.8378,12.504315 -4.2558,13.436086 2.9395,-2.270547 12.9272,0.895548 5.9868,-3.284893 1.6708,-8.095431 10.8777,-0.139449 7.2491,2.783574 1.8028,-1.885405 7.4645,0.6339 7.4008,-0.745155 z m 8.7456,-8.845403 c -2.6411,6.075752 2.043,8.43773 7.2539,6.248015 1.9644,-2.651981 1.1508,-13.729494 2.5707,-11.456964 -0.7401,4.525123 2.3276,12.261689 0.5965,14.618058 -4.8981,-0.968063 -13.281,1.307525 -14.7983,-1.192273 1.94,-7.541213 -0.014,-14.396145 0.4765,-21.890915 0.2984,-3.25705 -0.7495,-8.10834 -1.2448,-9.14527 2.169,2.65614 5.7577,-1.60609 7.7188,0.63543 -5.0547,3.88521 -2.3534,11.3117 -3.0311,17.498088 0.8481,0.914452 -0.5795,4.580386 0.4578,4.685831 z m 45.7374,-12.840099 c 0.8561,5.09901 -1.5559,4.90835 -1.6269,-0.18488 -0.7495,-3.17887 -3.8918,-10.42077 -6.5696,-4.72644 -0.3887,6.16158 -2.0079,12.66369 0.4109,18.521967 0.1775,6.960128 7.3712,6.699697 7.4394,-0.312358 1.6209,-7.197949 2.8684,13.688446 -4.8853,8.575009 -6.3535,-0.157764 -7.1755,-11.39057 -7.5903,-16.850828 1.0736,-6.88662 -0.5492,-18.28775 10.0072,-14.89904 3.6589,0.92809 1.5903,7.51845 2.8146,9.87657 z m 7.245,-9.85504 c 2.9428,1.00144 7.6449,-1.22802 4.0917,3.72036 -2.0656,5.48727 3.5421,10.84522 6.305,5.22515 -0.4212,-2.96372 -0.9896,-7.281 -2.4216,-9.27233 2.6948,2.04771 9.7684,-2.42998 5.9644,3.30919 -0.5122,7.93552 0.4322,15.932066 0.3845,23.882235 0.1894,4.166497 6.9281,6.834353 -0.5515,4.807617 -3.0599,0.703842 -6.0206,1.761212 -3.1787,-2.155925 -2.3876,-4.864294 3.065,-15.600957 -4.5146,-16.234147 -4.8799,1.59395 -1.4127,11.936418 -1.1908,16.570506 6.7254,5.405971 -4.8432,1.615447 -7.5855,2.452008 5.4828,-4.836359 2.3914,-12.847294 2.5222,-19.170394 0.4758,-4.61057 0.052,-11.31684 -1.6782,-13.82138 l 0.9818,0.50042 0.8718,0.18674 z m 24.3526,14.00338 c 0.5982,4.612401 0.684,20.810079 7.7428,12.416464 1.3957,-5.518272 0.7657,-11.247904 0.8496,-17.002184 -0.4131,-3.64714 0.5832,-8.3149 -3.4224,-10.13092 3.1651,1.89231 8.9862,-1.73304 6.4317,3.14916 0.2057,6.81934 0.5041,13.63731 0.1775,20.175018 2.005,7.517306 -6.5567,12.367669 -12.7607,7.669917 -2.0024,-7.164264 -2.0583,-14.345895 -1.9706,-21.807935 0.6518,-3.2437 -1.7915,-8.22678 -1.3902,-9.61392 2.9899,2.1033 9.4021,-2.02596 4.5559,3.30915 0.1704,3.93499 0.264,8.13606 -0.2136,11.83525 z m 27.7208,0.59263 c -3.7891,6.14905 -7.7735,-0.45906 -6.0376,-4.93084 -3.7374,-10.80239 11.4909,-3.80206 7.409,3.14741 l -0.2758,0.57047 z m 9.4376,17.515208 c -8.7595,-0.315635 -3.7342,-10.110344 -8.689,-13.516423 4.7372,-3.146415 6.9956,-13.919535 -0.4207,-16.677775 -2.023,-2.25685 -12.2299,-3.05718 -11.7165,-1.04166 3.3002,5.75488 0.6399,13.63879 2.1478,20.0253 0.788,3.549121 -1.1169,10.077573 -1.1134,11.267287 3.7077,-1.260797 11.5218,2.313887 5.3298,-3.202145 -0.4821,-4.431304 -1.367,-11.873612 4.5935,-6.35893 2.5825,3.739677 -3.4951,12.702379 4.8471,9.739354 1.5235,0.103633 3.9899,0.651604 5.0214,-0.235008 z m 13.6813,-22.256178 c 0.8561,5.09894 -1.5557,4.90839 -1.6266,-0.18486 -0.7494,-3.17894 -3.8917,-10.42076 -6.5695,-4.72647 -0.3888,6.1616 -2.0079,12.66362 0.4107,18.52202 0.1777,6.960096 7.3707,6.699521 7.4391,-0.312401 1.6208,-7.197889 2.8684,13.688453 -4.8853,8.575012 -6.3537,-0.157588 -7.1761,-11.390533 -7.5902,-16.850831 1.0727,-6.88672 -0.5496,-18.28778 10.0065,-14.89903 3.66,0.92872 1.5881,7.51666 2.8153,9.87656 z m 7.245,-9.85504 c 2.9428,1.00145 7.6447,-1.22805 4.0917,3.7204 -2.0658,5.48741 3.5416,10.84512 6.3047,5.22511 -0.4211,-2.96376 -0.9899,-7.28116 -2.4218,-9.27232 2.6948,2.04776 9.7688,-2.43006 5.9646,3.30916 -0.5119,7.93556 0.4325,15.932081 0.3846,23.882258 0.1891,4.166485 6.9285,6.834281 -0.5512,4.807614 -3.0599,0.703879 -6.0202,1.761131 -3.1786,-2.155919 -2.3873,-4.864365 3.0653,-15.600843 -4.5143,-16.234163 -4.8798,1.59399 -1.4125,11.936427 -1.1908,16.570497 6.7254,5.405994 -4.8431,1.615452 -7.5854,2.452028 5.4828,-4.836298 2.3917,-12.847361 2.5224,-19.170385 0.476,-4.61051 0.051,-11.31738 -1.678,-13.82134 l 0.9818,0.50043 0.8707,0.18668 z"
       id="text75"
       aria-label="first congregational church" /><path
       id="text77"
       style="font-weight:bold;font-size:75.2789px;line-height:1;font-family:'Needleteeth Regular';-inkscape-font-specification:'Needleteeth Regular,  Bold';text-align:center;letter-spacing:3.97903px;word-spacing:0px;text-anchor:middle;fill:#e6e6ff;stroke-width:0.414457;stroke-linecap:round;paint-order:markers stroke fill"
       d="m -1928.3926,-66.396484 c -1.2157,5.082396 -1.6864,10.389235 -3.4576,15.339319 -0.6191,4.978903 -1.604,9.921239 -3.7711,14.462676 -0.6967,4.406002 -1.3231,8.479307 -3.2544,12.576911 0.2117,2.843237 -5.009,5.597138 -4.1171,5.984754 4.8054,-0.04027 9.6336,-1.962777 14.3774,-1.376607 -4.4947,-0.788991 -5.6104,-7.520384 0.1303,-7.157371 5.6587,-1.368175 7.182,4.736905 5.8018,7.864406 3.5322,-0.708327 7.8031,-0.817394 10.8298,-0.276116 -3.7996,-2.239666 -5.9363,-7.108518 -5.7477,-12.05869 -4.0458,-8.096558 -4.1713,-17.436314 -7.1552,-25.916789 -0.9979,-3.131247 -1.6308,-6.991514 -3.6362,-9.442493 z m -207.0488,4.091796 c -5.5675,0.492616 -9.9924,6.016546 -8.3007,11.621228 -0.2783,3.659612 5.1604,7.065115 3.734,1.294039 -1.0726,-3.979416 4.841,-12.730201 7.438,-5.858776 1.9923,4.793939 -0.8237,9.712946 -1.3434,14.556019 -1.5946,6.193402 -6.7278,10.538787 -9.3714,16.214702 -3.4409,3.611933 -0.3726,7.357005 3.9218,5.465621 5.1135,-0.587392 11.8548,1.248418 15.6899,-0.948609 -1.8787,-4.148532 0.4801,-8.916829 0.2754,-13.482453 1.5449,-6.290616 -3.5458,1.883911 -3.4494,4.519505 -0.5761,5.470613 -7.611,7.022637 -11.5318,5.597982 1.1595,-4.547186 5.4193,-7.442568 6.9431,-11.602892 2.27,-6.645207 5.7156,-13.347315 4.6017,-20.571874 -0.7411,-4.406897 -3.9739,-7.301314 -8.6072,-6.804492 z m 126.459,0.117188 c -0.696,2.508856 5.4935,4.033195 3.1084,7.896865 -2.5934,4.516729 -1.4713,12.991549 -5.1109,15.454733 -3.1363,-4.249623 -3.4171,-10.399796 -6.3233,-14.333062 -2.811,3.252976 -4.028,8.536991 -6.5284,12.524127 -1.7904,4.339924 -2.1976,-5.676051 -3.3284,-7.803048 -1.2878,-5.082044 0.3362,-10.512402 4.4903,-13.155069 -4.8977,0.400381 -10.0118,-0.635984 -14.9701,-0.08455 5.7553,3.479406 3.4171,11.304401 5.8325,16.648612 1.0878,7.039725 3.2778,13.826777 4.0183,20.928953 -0.1971,2.372338 1.7176,10.294741 3.6033,4.701446 -0.01,-5.113246 0.9805,-10.619316 3.1709,-15.096208 1.6759,-3.691069 3.7558,-9.453726 5.5995,-2.280491 1.8176,5.381797 3.9326,10.727253 4.1332,16.474945 -0.027,3.017468 2.0572,5.217062 2.9865,1.199128 1.1645,-7.647178 2.6587,-15.237395 4.3814,-22.790925 0.7967,-5.659456 2.8306,-10.821297 4.1699,-16.387005 0.1794,-2.627198 6.4497,-3.409899 1.6181,-3.831293 -3.7987,0.526306 -7.1352,1.529865 -10.8512,-0.06716 z m -50.252,0.257812 c -5.494,1.562391 -4.4277,9.379813 -4.554,13.819048 -1.7073,6.159387 4.3675,8.343184 9.2138,8.366863 5.14,-0.336643 7.8692,4.046232 7.106,8.822012 0.705,5.342151 -4.4509,8.934459 -9.3734,7.65579 -5.225,-1.64429 -3.997,-9.763935 -5.5703,-14.411336 -1.5852,-6.433562 -4.4242,4.736923 -2.4339,7.2413 0.4646,3.937536 -1.2586,9.411709 2.8528,11.885096 5.1152,0.560011 10.3766,-1.596797 15.5711,-0.552601 5.6649,-1.766669 3.4246,-9.410299 4.2028,-13.950958 0.079,-3.96279 -1.6449,-9.529946 -6.5135,-9.298327 -4.1267,-0.745374 -10.0847,-2.476825 -9.935,-7.664512 0.4107,-3.026966 1.298,-8.768018 5.5606,-5.727182 3.8143,-2.187139 7.0029,3.808412 7.1936,7.797341 0.073,2.247413 1.479,6.097497 2.2801,1.76224 -0.18,-4.627806 -0.888,-10.964922 -2.2494,-14.421486 -4.3466,-1.182057 -8.9473,-0.331072 -13.3513,-1.323288 z m -41.2168,0.242188 c -8.6748,2.052696 -14.3995,10.652794 -15.3794,19.15983 -1.3658,4.220896 -1.1414,8.898032 0.4595,13.021811 -1.2568,7.234073 7.9681,14.182601 14.1781,9.451959 4.7906,-3.196874 5.4114,-9.497597 5.4729,-14.746752 -1.0301,-4.656206 -2.4459,-11.27891 -8.2931,-11.706047 -3.0707,0.539884 -8.8036,1.475978 -5.0288,-3.109047 1.982,-4.731055 5.6803,-8.518229 9.1807,-11.849098 l -0.2563,-0.196025 z m 222.3867,0.09961 c -0.9161,1.468471 4.4273,5.40682 2.9046,8.868829 0.3153,5.249762 -0.183,10.623213 0.9345,15.809186 -0.3173,4.236476 0.316,8.422067 -0.6044,12.639824 -0.3186,5.470366 -6.6142,5.889489 -9.6247,2.230211 -4.4187,-3.398098 1.1134,-9.82989 -4.5874,-12.723084 -2.5104,-3.158861 5.3985,-5.767854 4.8776,-10.164295 0.9165,-4.942205 -0.3979,-11.224252 -5.7154,-13.085745 -5.1247,-4.1152 -12.0751,-1.874689 -17.9976,-3.267222 -3.0815,1.794235 4.2287,3.660931 2.2425,7.220797 -0.4106,5.160634 -0.06,10.283246 0.2797,15.430425 0.8449,4.98363 0.5063,9.513621 0.3675,14.558269 1.0808,3.001804 -5.8269,5.622067 -0.6077,4.99923 3.2905,-0.427157 9.0105,1.424615 10.7137,0.163527 -4.3231,-3.637899 -4.6987,-9.297911 -3.6097,-14.58109 2.2851,-0.707427 5.9129,1.911723 6.8954,3.59164 0.7314,3.95126 -0.2805,7.998211 -0.4863,12.01653 3.2599,-1.238552 7.0619,-0.439971 10.5628,-0.139036 4.9709,-1.828738 10.4264,0.758049 15.2223,-0.267212 -5.0401,-3.618666 -2.4553,-10.4431 -2.999,-15.870047 -0.3094,-2.96112 0.1385,-7.770306 3.7974,-4.320244 5.7737,0.523552 8.2268,6.592764 6.2349,11.657551 2.4119,3.66655 -4.4089,6.495202 -3.1092,8.808338 4.0687,-1.88463 8.6984,0.687054 12.8005,-0.660364 -4.933,-1.682946 -5.2484,-6.520429 -4.6268,-10.892831 -0.8277,-3.936361 1.8732,-10.289166 -3.9928,-10.976079 -3.6949,-0.886746 -8.1194,-3.337506 -3.8202,-7.032602 2.8704,-4.138721 6.4595,-7.741822 9.7484,-11.551613 5.1525,-0.237188 -0.3823,-3.556331 -2.8072,-1.448876 -2.7033,0.04628 -10.0352,-2.498319 -7.1319,2.116829 -1.7684,4.013463 -2.3442,9.679965 -6.7034,11.707047 -0.7242,-4.981853 0.2532,-10.26756 2.1204,-14.635248 -3.8472,0.72133 -6.8575,1.79716 -10.6658,-0.215125 l -0.6129,0.01248 z m -301.416,0.148438 c -5.1489,2.497464 -7.7784,7.937682 -11.6146,11.892857 0.7189,5.54764 8.7822,-6.772285 7.4832,0.147992 -0.2248,5.272209 0.2467,10.516832 0.019,15.803216 -0.5408,4.38474 0.6692,9.686506 -3.4654,13.032769 -5.1425,4.263184 5.0255,0.465227 7.2898,0.650552 2.2061,0.02158 9.0019,2.048048 4.4938,-1.55474 -4.4016,-2.704727 -2.1208,-8.919731 -2.9389,-13.212963 -0.287,-6.966416 0.026,-13.948612 -0.4805,-20.903765 -0.1951,-1.709282 1.1261,-4.905431 -0.7867,-5.855918 z m 22.1426,0.0078 c -5.1183,2.529938 -7.7511,7.933626 -11.5759,11.886415 0.7336,5.528864 8.7924,-6.777316 7.4808,0.182659 -0.2921,6.281601 0.5682,12.745806 -0.3813,18.87803 1.4201,4.613345 -1.6921,9.032766 -5.0367,11.840799 4.4365,0.462659 9.1535,-2.67405 13.6226,-0.55709 5.1611,-0.357393 -4.2968,-3.526616 -2.4181,-6.834179 -0.7845,-9.887127 -0.2682,-19.802973 -0.8601,-29.691113 -0.2003,-1.647662 1.1424,-4.902252 -0.8313,-5.705521 z m 189.9766,0.373047 c -2.059,-0.424354 -6.7257,0.946918 -2.4613,2.31654 3.6366,3.105123 0.7818,9.552115 2.0253,14.176718 -0.03,4.773604 1.1206,9.441918 0.5131,14.287149 1.1424,4.618295 -0.2927,9.336611 -3.4128,11.562916 4.6354,-0.670591 9.2856,0.324089 13.9645,0.364695 3.4346,-0.866458 -4.7753,-1.705199 -3.8059,-4.8565 -0.3669,-4.471811 -2.7456,-12.575427 4.7332,-11.321831 4.9031,-0.182713 7.5559,-5.980643 9.2775,-9.613667 -0.5251,-3.592796 1.5849,-7.725745 -1.1805,-10.682467 -3.1121,-3.090768 -7.1327,-6.032303 -11.6976,-5.838126 -2.646,-0.218639 -5.2977,-0.450182 -7.9555,-0.395427 z m 6.875,5.294922 c 4.9292,0.256837 7.6294,2.423696 8.7103,7.288274 1.4117,2.364944 -1.996,5.636518 -2.4862,8.624122 -1.1942,1.563479 -3.4763,0.369648 -3.8648,1.855182 -6.0038,-0.765166 -3.5634,-9.117735 -3.9132,-13.709537 0.4992,-1.383368 -1.184,-4.170292 1.5539,-4.058041 z m 63.3476,0.167969 c 6.9504,-0.253824 10.4848,10.474905 4.602,14.323406 -2.2167,3.438628 -7.8868,3.916039 -7.254,-1.449318 0.727,-3.979004 -3.3972,-12.328295 2.652,-12.874088 z m -209.0136,13.28125 c 5.498,-0.04284 5.7284,6.794568 5.112,10.690267 -0.3105,3.335763 -1.5993,10.172612 -6.4784,8.75288 -3.0889,-3.367438 -3.7116,-8.587756 -3.9562,-13.032545 -0.2109,-3.280125 1.5433,-6.745466 5.3226,-6.410602 z m 178.8906,0.673828 c 0.5891,3.782093 3.5945,9.639593 1.8827,12.248197 -8.3399,1.165565 -3.3486,-8.423634 -1.9648,-12.560697 l 0.082,0.3125 z" /></g></svg>
