<?xml version="1.0" encoding="UTF-8" standalone="no"?>
<!-- Created with Inkscape (http://www.inkscape.org/) -->

<svg
   width="1054.7556mm"
   height="830.95923mm"
   viewBox="0 0 1054.7556 830.9592"
   version="1.1"
   id="svg1"
   xml:space="preserve"
   inkscape:version="1.3 (0e150ed, 2023-07-21)"
   sodipodi:docname="paint-full.svg"
   inkscape:export-filename="paint-all.svg"
   inkscape:export-xdpi="300"
   inkscape:export-ydpi="300"
   xmlns:inkscape="http://www.inkscape.org/namespaces/inkscape"
   xmlns:sodipodi="http://sodipodi.sourceforge.net/DTD/sodipodi-0.dtd"
   xmlns:xlink="http://www.w3.org/1999/xlink"
   xmlns="http://www.w3.org/2000/svg"
   xmlns:svg="http://www.w3.org/2000/svg"><sodipodi:namedview
     id="namedview1"
     pagecolor="#ffffff"
     bordercolor="#000000"
     borderopacity="0.25"
     inkscape:showpageshadow="2"
     inkscape:pageopacity="0.0"
     inkscape:pagecheckerboard="0"
     inkscape:deskcolor="#d1d1d1"
     inkscape:document-units="mm"
     inkscape:zoom="0.11777222"
     inkscape:cx="1766.1211"
     inkscape:cy="2661.918"
     inkscape:window-width="1888"
     inkscape:window-height="968"
     inkscape:window-x="0"
     inkscape:window-y="31"
     inkscape:window-maximized="0"
     inkscape:current-layer="g4"
     showgrid="false" /><defs
     id="defs1"><linearGradient
       id="linearGradient22"
       inkscape:collect="always"><stop
         style="stop-color:#270f71;stop-opacity:1;"
         offset="0.31999218"
         id="stop22" /><stop
         style="stop-color:#10004d;stop-opacity:1;"
         offset="1"
         id="stop23" /></linearGradient><radialGradient
       inkscape:collect="always"
       xlink:href="#linearGradient22"
       id="radialGradient23"
       cx="-2851.9355"
       cy="1067.4789"
       fx="-2696.7852"
       fy="1076.4456"
       r="486.78482"
       gradientTransform="matrix(1.297557,-0.00888916,0.00923424,0.63636513,845.5758,345.82018)"
       gradientUnits="userSpaceOnUse" /><filter
       inkscape:collect="always"
       style="color-interpolation-filters:sRGB"
       id="filter23"
       x="-0.042623725"
       y="-0.08486451"
       width="1.0852377"
       height="1.169729"><feGaussianBlur
         inkscape:collect="always"
         stdDeviation="13.805716"
         id="feGaussianBlur23" /></filter></defs><g
     inkscape:groupmode="layer"
     id="g4"
     inkscape:label="date copy"
     transform="matrix(1,0,0,1.4553934,3347.3075,-1088.1884)"
     style="display:inline;stroke-width:0.828915"><path
       style="display:inline;fill:none;stroke:#860000;stroke-width:16.5783;stroke-dasharray:none;stroke-opacity:1;filter:url(#filter23)"
       d="m -3274.5082,1271.7224 c -6.7676,-4.028 -8.5101,-6.1101 -9.4475,-11.289 -0.6321,-3.4925 -2.314,-7.3026 -3.7374,-8.4668 -3.9422,-3.2241 -4.7597,-13.1508 -2.5494,-30.9548 1.7648,-14.2148 1.6106,-16.3355 -1.2938,-17.7947 -1.8135,-0.9112 -3.2973,-2.3804 -3.2973,-3.265 0,-0.8846 -1.6247,-2.7246 -3.6104,-4.089 -1.9857,-1.3644 -4.7113,-4.9454 -6.0569,-7.958 -2.1019,-4.7057 -1.914,-6.1949 1.3341,-10.5722 4.9685,-6.6961 17.0955,-40.8993 15.7523,-44.4285 -1.2556,-3.299 1.9859,-7.9393 5.546,-7.9393 1.4036,0 4.2077,-1.3287 6.2313,-2.9525 3.3849,-2.7164 3.9683,-2.7728 7.2928,-0.7056 3.894,2.4214 8.4245,2.9885 8.4245,1.0545 0,-0.6558 -1.8522,-2.3441 -4.1159,-3.7517 -3.4042,-2.1168 -5.0041,-2.2812 -9.2532,-0.951 l -5.1373,1.6083 3.2139,-5.265 c 7.2346,-11.8518 15.0859,-42.3567 19.3333,-75.1159 2.3647,-18.2388 5.2267,-39.51156 6.3599,-47.27276 1.1333,-7.76121 1.9459,-19.19135 1.8058,-25.40031 -0.1401,-6.20897 0.7253,-14.46407 1.9231,-18.34468 1.1978,-3.8806 3.6435,-12.74857 5.4349,-19.7066 1.7914,-6.95803 4.1743,-13.41033 5.2954,-14.33844 1.3567,-1.12325 1.3182,-1.99324 -0.1152,-2.60195 -2.8308,-1.20206 -2.7806,-7.42475 0.065,-8.0765 1.5367,-0.35195 1.4211,-1.71074 -0.3759,-4.4207 -2.0969,-3.16222 -2.0865,-4.87781 0.054,-8.94583 2.1599,-4.10413 2.1611,-5.65951 0.01,-8.42557 -2.0299,-2.60617 -2.0807,-3.7781 -0.2192,-5.05714 1.8615,-1.27903 2.423,-1.27242 2.423,0.0285 0,0.93134 1.3863,1.69335 3.0806,1.69335 4.325,0 3.946,-6.45163 -0.5134,-8.73953 -4.5376,-2.328 -4.4204,-10.09261 0.2053,-13.60463 4.1068,-3.11798 4.2994,-4.46728 0.6378,-4.46728 -4.8337,0 -7.829,-6.96953 -6.3919,-14.87276 0.8285,-4.55617 0.4518,-8.502 -0.9881,-10.35065 -1.9063,-2.44737 -1.5363,-3.72246 2.0466,-7.05214 4.0682,-3.78084 4.1999,-4.64325 1.887,-12.35319 -1.3675,-4.55872 -3.791,-10.03485 -5.3854,-12.16918 -1.5945,-2.13433 -2.3283,-3.88061 -1.6308,-3.88061 1.7577,0 12.5029,5.65297 18.5258,9.7463 6.153,4.18169 8.7993,2.92353 4.1362,-1.96646 -3.1276,-3.27971 -3.1399,-3.67386 -0.1402,-4.4648 1.8097,-0.47714 4.3372,-0.1482 5.6167,0.73098 1.2796,0.87917 4.498,1.5985 7.1521,1.5985 5.7746,0 16.9441,-3.74473 16.9441,-5.68075 0,-0.75619 2.2867,-1.37489 5.0816,-1.37489 3.5447,0 6.0249,1.25333 8.2004,4.1439 3.9283,5.21952 5.5741,5.89381 16.2516,6.65831 6.7409,0.48264 9.4774,0.0112 12.2782,-2.11524 4.0392,-3.06672 10.1316,-2.66225 16.72,1.11003 2.2591,1.29349 8.0353,4.07238 12.8359,6.17532 5.1207,2.24314 8.7284,4.90311 8.7284,6.43545 0,1.43656 1.8484,4.2265 4.1075,6.19985 2.2592,1.97336 2.1917,5.72756 4.1075,6.05353 3.2959,0.5608 -7.5891,9.03636 -5.0503,17.88123 1.8634,4.23052 24.1419,29.28635 26.0485,29.29574 0.8182,0.004 2.9213,-1.89769 4.6737,-4.22606 1.7523,-2.32836 3.2735,-2.0043 3.8759,-2.0043 0.6025,0 0.9297,-1.59407 0.2316,-0.81795 -0.6981,0.77612 0.6336,1.41113 2.9594,1.41113 2.3258,0 4.2287,0.635 4.2287,1.41112 0,0.77613 4.1043,1.41113 9.1206,1.41113 5.0164,0 9.6919,0.63501 10.39,1.41113 2.0189,2.24449 12.8231,1.64215 22.1904,-1.23713 4.7387,-1.45654 13.2252,-4.02758 18.8589,-5.71344 5.6338,-1.68585 12.409,-4.46293 15.0562,-6.1713 5.0274,-3.24448 10.6618,-3.78452 40.4206,-3.87422 28.1871,-0.0849 30.5229,0.0875 34.4755,2.5453 2.1725,1.35091 4.5462,2.25997 5.2747,2.02014 0.7286,-0.23984 1.8274,1.02684 2.4417,2.81484 1.5136,4.40548 6.6863,4.7866 14.0684,1.03655 5.0131,-2.54663 7.8107,-2.95854 15.3022,-2.25302 6.7475,0.63547 9.8279,0.31664 11.6692,-1.20781 1.376,-1.13916 3.2572,-2.07119 4.1806,-2.07119 0.9234,0 7.5106,-1.86954 14.6382,-4.15453 11.6587,-3.73757 13.3716,-3.94857 17.0668,-2.10245 6.5984,3.29649 13.5078,4.94581 16.0889,3.84055 1.3172,-0.56402 8.2163,-1.4423 15.3315,-1.95173 8.6928,-0.62239 13.7844,-1.72289 15.521,-3.35465 1.4214,-1.33562 7.6143,-3.70607 13.762,-5.26767 6.1478,-1.5616 14.4124,-3.69477 18.3659,-4.74036 3.9535,-1.0456 12.0922,-1.92896 18.0861,-1.96302 9.4422,-0.0537 11.6532,-0.63011 16.5523,-4.31561 4.2997,-3.23462 7.3471,-4.22395 12.7201,-4.12963 3.8862,0.0682 17.3968,-0.32793 30.0236,-0.88034 21.9602,-0.96072 23.2541,-1.19517 29.7793,-5.39548 l 6.8216,-4.39112 124.2517,0.51834 c 112.2191,0.46813 124.4505,0.74144 126.3054,2.82225 1.1296,1.26716 2.071,2.94855 2.092,3.73641 0.021,0.78787 2.7936,4.4085 6.1612,8.04585 4.3573,4.70623 7.1345,6.40757 9.6304,5.89975 2.1232,-0.43199 4.5471,0.43026 6.1419,2.18483 1.6102,1.7716 4.8096,2.89845 8.2293,2.89845 5.7085,0 9.847,3.27765 9.847,7.79864 0,1.28682 1.8484,3.95423 4.1075,5.92759 5.3096,4.63791 5.1789,6.23063 -1.0269,12.5139 -2.8239,2.85919 -5.1343,6.39256 -5.1343,7.85191 0,1.45936 -2.1004,5.02205 -4.6676,7.91707 -6.082,6.85893 -9.1479,11.49643 -10.4767,15.84716 -3.4757,11.38062 -6.8479,18.37819 -10.0141,20.77975 -1.9768,1.49935 -3.5941,3.3921 -3.5941,4.20611 0,0.814 -1.2839,2.21216 -2.8532,3.10702 -3.6674,2.09133 -5.4898,8.61758 -3.2201,11.53159 1.2318,1.58153 -0.5269,4.97375 -5.8609,11.30405 -5.9351,7.04371 -9.0925,9.34311 -14.2733,10.3946 -4.0692,0.82587 -6.6524,2.26755 -6.6524,3.7126 0,4.00732 -10.3571,21.58335 -14.5325,24.66189 -2.3325,1.71971 -3.9513,4.92827 -3.9513,7.83176 0,2.7052 -0.946,5.5686 -2.1022,6.363 -1.4339,0.9852 -0.8235,2.2397 1.9198,3.9455 3.3535,2.0853 3.6424,3.0738 1.7381,5.9456 -1.8412,2.7765 -1.6308,3.8933 1.0849,5.7593 2.7376,1.881 4.325,2.0155 8.4705,0.7177 4.3986,-1.377 5.277,-1.2171 6.3755,1.1609 1.3677,2.9608 4.1083,3.5961 6.0761,1.4084 1.6245,-1.8061 7.2435,-0.2283 7.2435,2.034 0,0.9864 2.0263,2.718 4.5028,3.8478 l 4.5027,2.0542 -5.351,6.2738 c -4.1712,4.8904 -4.8797,6.8525 -3.2133,8.8985 2.3317,2.8628 -1.4184,17.7728 -4.8463,19.2686 -1.0803,0.4714 -1.8258,44.5135 -1.7827,105.3172 l 0.074,104.507 -11.3746,0.9765 c -6.2561,0.5371 -201.299,0.7699 -433.4289,0.5174 l -422.0543,-0.459 z"
       id="path23"
       sodipodi:nodetypes="cssssssssssssssscssssssssssscssssssssssssssssssssssssssssssssssssssssssssssssssssssssssscssssssssssssssssssssssssssssssscsssscsscc"
       inkscape:label="OR" /><path
       style="fill:url(#radialGradient23);stroke:#000000;stroke-width:1.65783;stroke-dasharray:none;stroke-opacity:1"
       d="m -3274.5082,1271.7224 c -6.7676,-4.028 -8.5101,-6.1101 -9.4475,-11.289 -0.6321,-3.4925 -2.314,-7.3026 -3.7374,-8.4668 -3.9422,-3.2241 -4.7597,-13.1508 -2.5494,-30.9548 1.7648,-14.2148 1.6106,-16.3355 -1.2938,-17.7947 -1.8135,-0.9112 -3.2973,-2.3804 -3.2973,-3.265 0,-0.8846 -1.6247,-2.7246 -3.6104,-4.089 -1.9857,-1.3644 -4.7113,-4.9454 -6.0569,-7.958 -2.1019,-4.7057 -1.914,-6.1949 1.3341,-10.5722 4.9685,-6.6961 17.0955,-40.8993 15.7523,-44.4285 -1.2556,-3.299 1.9859,-7.9393 5.546,-7.9393 1.4036,0 4.2077,-1.3287 6.2313,-2.9525 3.3849,-2.7164 3.9683,-2.7728 7.2928,-0.7056 3.894,2.4214 8.4245,2.9885 8.4245,1.0545 0,-0.6558 -1.8522,-2.3441 -4.1159,-3.7517 -3.4042,-2.1168 -5.0041,-2.2812 -9.2532,-0.951 l -5.1373,1.6083 3.2139,-5.265 c 7.2346,-11.8518 15.0859,-42.3567 19.3333,-75.1159 2.3647,-18.2388 5.2267,-39.51156 6.3599,-47.27276 1.1333,-7.76121 1.9459,-19.19135 1.8058,-25.40031 -0.1401,-6.20897 0.7253,-14.46407 1.9231,-18.34468 1.1978,-3.8806 3.6435,-12.74857 5.4349,-19.7066 1.7914,-6.95803 4.1743,-13.41033 5.2954,-14.33844 1.3567,-1.12325 1.3182,-1.99324 -0.1152,-2.60195 -2.8308,-1.20206 -2.7806,-7.42475 0.065,-8.0765 1.5367,-0.35195 1.4211,-1.71074 -0.3759,-4.4207 -2.0969,-3.16222 -2.0865,-4.87781 0.054,-8.94583 2.1599,-4.10413 2.1611,-5.65951 0.01,-8.42557 -2.0299,-2.60617 -2.0807,-3.7781 -0.2192,-5.05714 1.8615,-1.27903 2.423,-1.27242 2.423,0.0285 0,0.93134 1.3863,1.69335 3.0806,1.69335 4.325,0 3.946,-6.45163 -0.5134,-8.73953 -4.5376,-2.328 -4.4204,-10.09261 0.2053,-13.60463 4.1068,-3.11798 4.2994,-4.46728 0.6378,-4.46728 -4.8337,0 -7.829,-6.96953 -6.3919,-14.87276 0.8285,-4.55617 0.4518,-8.502 -0.9881,-10.35065 -1.9063,-2.44737 -1.5363,-3.72246 2.0466,-7.05214 4.0682,-3.78084 4.1999,-4.64325 1.887,-12.35319 -1.3675,-4.55872 -3.791,-10.03485 -5.3854,-12.16918 -1.5945,-2.13433 -2.3283,-3.88061 -1.6308,-3.88061 1.7577,0 12.5029,5.65297 18.5258,9.7463 6.153,4.18169 8.7993,2.92353 4.1362,-1.96646 -3.1276,-3.27971 -3.1399,-3.67386 -0.1402,-4.4648 1.8097,-0.47714 4.3372,-0.1482 5.6167,0.73098 1.2796,0.87917 4.498,1.5985 7.1521,1.5985 5.7746,0 16.9441,-3.74473 16.9441,-5.68075 0,-0.75619 2.2867,-1.37489 5.0816,-1.37489 3.5447,0 6.0249,1.25333 8.2004,4.1439 3.9283,5.21952 5.5741,5.89381 16.2516,6.65831 6.7409,0.48264 9.4774,0.0112 12.2782,-2.11524 4.0392,-3.06672 10.1316,-2.66225 16.72,1.11003 2.2591,1.29349 8.0353,4.07238 12.8359,6.17532 5.1207,2.24314 8.7284,4.90311 8.7284,6.43545 0,1.43656 1.8484,4.2265 4.1075,6.19985 2.2592,1.97336 2.1917,5.72756 4.1075,6.05353 3.2959,0.5608 -7.5891,9.03636 -5.0503,17.88123 1.8634,4.23052 24.1419,29.28635 26.0485,29.29574 0.8182,0.004 2.9213,-1.89769 4.6737,-4.22606 1.7523,-2.32836 3.2735,-2.0043 3.8759,-2.0043 0.6025,0 0.9297,-1.59407 0.2316,-0.81795 -0.6981,0.77612 0.6336,1.41113 2.9594,1.41113 2.3258,0 4.2287,0.635 4.2287,1.41112 0,0.77613 4.1043,1.41113 9.1206,1.41113 5.0164,0 9.6919,0.63501 10.39,1.41113 2.0189,2.24449 12.8231,1.64215 22.1904,-1.23713 4.7387,-1.45654 13.2252,-4.02758 18.8589,-5.71344 5.6338,-1.68585 12.409,-4.46293 15.0562,-6.1713 5.0274,-3.24448 10.6618,-3.78452 40.4206,-3.87422 28.1871,-0.0849 30.5229,0.0875 34.4755,2.5453 2.1725,1.35091 4.5462,2.25997 5.2747,2.02014 0.7286,-0.23984 1.8274,1.02684 2.4417,2.81484 1.5136,4.40548 6.6863,4.7866 14.0684,1.03655 5.0131,-2.54663 7.8107,-2.95854 15.3022,-2.25302 6.7475,0.63547 9.8279,0.31664 11.6692,-1.20781 1.376,-1.13916 3.2572,-2.07119 4.1806,-2.07119 0.9234,0 7.5106,-1.86954 14.6382,-4.15453 11.6587,-3.73757 13.3716,-3.94857 17.0668,-2.10245 6.5984,3.29649 13.5078,4.94581 16.0889,3.84055 1.3172,-0.56402 8.2163,-1.4423 15.3315,-1.95173 8.6928,-0.62239 13.7844,-1.72289 15.521,-3.35465 1.4214,-1.33562 7.6143,-3.70607 13.762,-5.26767 6.1478,-1.5616 14.4124,-3.69477 18.3659,-4.74036 3.9535,-1.0456 12.0922,-1.92896 18.0861,-1.96302 9.4422,-0.0537 11.6532,-0.63011 16.5523,-4.31561 4.2997,-3.23462 7.3471,-4.22395 12.7201,-4.12963 3.8862,0.0682 17.3968,-0.32793 30.0236,-0.88034 21.9602,-0.96072 23.2541,-1.19517 29.7793,-5.39548 l 6.8216,-4.39112 124.2517,0.51834 c 112.2191,0.46813 124.4505,0.74144 126.3054,2.82225 1.1296,1.26716 2.071,2.94855 2.092,3.73641 0.021,0.78787 2.7936,4.4085 6.1612,8.04585 4.3573,4.70623 7.1345,6.40757 9.6304,5.89975 2.1232,-0.43199 4.5471,0.43026 6.1419,2.18483 1.6102,1.7716 4.8096,2.89845 8.2293,2.89845 5.7085,0 9.847,3.27765 9.847,7.79864 0,1.28682 1.8484,3.95423 4.1075,5.92759 5.3096,4.63791 5.1789,6.23063 -1.0269,12.5139 -2.8239,2.85919 -5.1343,6.39256 -5.1343,7.85191 0,1.45936 -2.1004,5.02205 -4.6676,7.91707 -6.082,6.85893 -9.1479,11.49643 -10.4767,15.84716 -3.4757,11.38062 -6.8479,18.37819 -10.0141,20.77975 -1.9768,1.49935 -3.5941,3.3921 -3.5941,4.20611 0,0.814 -1.2839,2.21216 -2.8532,3.10702 -3.6674,2.09133 -5.4898,8.61758 -3.2201,11.53159 1.2318,1.58153 -0.5269,4.97375 -5.8609,11.30405 -5.9351,7.04371 -9.0925,9.34311 -14.2733,10.3946 -4.0692,0.82587 -6.6524,2.26755 -6.6524,3.7126 0,4.00732 -10.3571,21.58335 -14.5325,24.66189 -2.3325,1.71971 -3.9513,4.92827 -3.9513,7.83176 0,2.7052 -0.946,5.5686 -2.1022,6.363 -1.4339,0.9852 -0.8235,2.2397 1.9198,3.9455 3.3535,2.0853 3.6424,3.0738 1.7381,5.9456 -1.8412,2.7765 -1.6308,3.8933 1.0849,5.7593 2.7376,1.881 4.325,2.0155 8.4705,0.7177 4.3986,-1.377 5.277,-1.2171 6.3755,1.1609 1.3677,2.9608 4.1083,3.5961 6.0761,1.4084 1.6245,-1.8061 7.2435,-0.2283 7.2435,2.034 0,0.9864 2.0263,2.718 4.5028,3.8478 l 4.5027,2.0542 -5.351,6.2738 c -4.1712,4.8904 -4.8797,6.8525 -3.2133,8.8985 2.3317,2.8628 -1.4184,17.7728 -4.8463,19.2686 -1.0803,0.4714 -1.8258,44.5135 -1.7827,105.3172 l 0.074,104.507 -11.3746,0.9765 c -6.2561,0.5371 -201.299,0.7699 -433.4289,0.5174 l -422.0543,-0.459 z"
       id="path19"
       sodipodi:nodetypes="cssssssssssssssscssssssssssscssssssssssssssssssssssssssssssssssssssssssssssssssssssssssscssssssssssssssssssssssssssssssscsssscsscc"
       inkscape:label="OR" /><ellipse
       style="display:none;opacity:1;fill:#e40000;fill-opacity:1;stroke:none;stroke-width:1.24337;stroke-linecap:round;stroke-dasharray:none;stroke-opacity:1;paint-order:markers stroke fill"
       id="path20"
       cx="-3078.4744"
       cy="838.77655"
       rx="11.354652"
       ry="7.8017759" /><path
       style="fill:#7d0000;fill-opacity:1;stroke:#000000;stroke-width:4.14457;stroke-dasharray:none;stroke-opacity:1"
       d="m -3081.0078,870.25744 c -2.8449,-1.78311 -16.2718,-19.99114 -21.3713,-28.98134 -4.8083,-8.4765 -5.828,-13.58459 -3.7526,-18.8023 2.5573,-6.42946 9.9805,-11.61383 19.1728,-13.39076 4.5146,-0.87273 13.8677,-0.95204 18.1679,-0.15391 9.8572,1.82903 17.5059,7.16105 20.1293,14.03284 1.8773,4.916 0.7292,10.03361 -4.2141,18.79304 -4.7745,8.46105 -18.8296,27.2077 -21.506,28.68547 -1.7294,0.95479 -4.953,0.86589 -6.626,-0.18284 z m 10.1782,-33.44827 c 4.6594,-1.76438 7.5373,-5.70517 6.7705,-9.27024 -1.6192,-7.5284 -14.3675,-10.8679 -22.3335,-5.85064 -3.2331,2.03618 -4.5107,4.00149 -4.5256,6.96223 -0.065,7.31402 10.7504,11.69497 20.0886,8.15865 z"
       id="path22" /><text
       xml:space="preserve"
       style="font-weight:bold;font-size:102.321px;line-height:1;font-family:'Needleteeth Regular';-inkscape-font-specification:'Needleteeth Regular,  Bold';text-align:center;letter-spacing:5.40835px;word-spacing:0px;text-anchor:middle;display:inline;fill:#e6e6ff;fill-opacity:1;stroke:#00aaff;stroke-width:0.414455;stroke-linecap:round;paint-order:markers stroke fill"
       x="-2344.3936"
       y="1171.7837"
       id="text1-0"
       transform="scale(1.2022463,0.83177632)"><tspan
         sodipodi:role="line"
         id="tspan1-2"
         style="font-style:normal;font-variant:normal;font-weight:bold;font-stretch:normal;font-family:'Della Respira';-inkscape-font-specification:'Della Respira Bold';fill:#e6e6ff;fill-opacity:1;stroke:none;stroke-width:0.414457"
         x="-2344.3936"
         y="1171.7837">SATURDAY</tspan><tspan
         sodipodi:role="line"
         style="font-style:normal;font-variant:normal;font-weight:bold;font-stretch:normal;font-family:'Della Respira';-inkscape-font-specification:'Della Respira Bold';fill:#e6e6ff;fill-opacity:1;stroke:none;stroke-width:0.414457"
         x="-2344.3936"
         y="1274.1047"
         id="tspan2-3" /></text><text
       xml:space="preserve"
       style="font-style:normal;font-variant:normal;font-weight:bold;font-stretch:normal;font-size:124.277px;line-height:1;font-family:'Della Respira';-inkscape-font-specification:'Della Respira Bold';text-align:center;letter-spacing:6.56886px;word-spacing:0px;text-anchor:middle;display:inline;fill:#e6e6ff;fill-opacity:1;stroke:none;stroke-width:0.414457;stroke-linecap:round;paint-order:markers stroke fill"
       x="-2552.2705"
       y="1250.4371"
       id="text3-7"
       transform="scale(1.1617486,0.86077142)"><tspan
         sodipodi:role="line"
         id="tspan3-1"
         style="fill:#e6e6ff;fill-opacity:1;stroke-width:0.414457"
         x="-2548.9861"
         y="1250.4371">MAY</tspan></text><text
       xml:space="preserve"
       style="font-style:normal;font-variant:normal;font-weight:bold;font-stretch:normal;font-size:49.8341px;line-height:1;font-family:'Della Respira';-inkscape-font-specification:'Della Respira Bold';text-align:center;letter-spacing:2.63408px;word-spacing:0px;text-anchor:middle;display:inline;fill:#e6e6ff;fill-opacity:1;stroke:none;stroke-width:0.414455;stroke-linecap:round;paint-order:markers stroke fill"
       x="-3944.9478"
       y="822.92102"
       id="text4-8"
       transform="scale(0.71717486,1.3943601)"><tspan
         sodipodi:role="line"
         id="tspan4-9"
         style="fill:#e6e6ff;fill-opacity:1;stroke-width:0.414457"
         x="-3943.6306"
         y="822.92102">FIRST CONGREGATIONAL CHURCH</tspan></text><text
       xml:space="preserve"
       style="font-style:normal;font-variant:normal;font-weight:bold;font-stretch:normal;font-size:56.6554px;line-height:1;font-family:'Della Respira';-inkscape-font-specification:'Della Respira Bold';text-align:center;letter-spacing:2.99464px;word-spacing:0px;text-anchor:middle;display:inline;fill:#e6e6ff;fill-opacity:1;stroke:none;stroke-width:0.414455;stroke-linecap:round;paint-order:markers stroke fill"
       x="-3290.2285"
       y="1044.587"
       id="text5-3"
       transform="scale(0.85926327,1.1637877)"><tspan
         sodipodi:role="line"
         id="tspan5-7"
         style="fill:#e6e6ff;fill-opacity:1;stroke-width:0.414455"
         x="-3288.7312"
         y="1044.587">1126 SW PARK (@ MADISON)</tspan></text><text
       xml:space="preserve"
       style="font-style:normal;font-variant:normal;font-weight:bold;font-stretch:normal;font-size:171.385px;line-height:1;font-family:'Della Respira';-inkscape-font-specification:'Della Respira Bold';text-align:center;letter-spacing:9.0589px;word-spacing:0px;text-anchor:middle;opacity:1;fill:#e6e6ff;fill-opacity:1;stroke:none;stroke-width:4.14456;stroke-linecap:round;stroke-dasharray:none;stroke-opacity:1;paint-order:markers stroke fill"
       x="-1806.6725"
       y="1603.2045"
       id="text23"
       transform="scale(1.4890111,0.67158666)"><tspan
         sodipodi:role="line"
         id="tspan23"
         style="fill:#e6e6ff;fill-opacity:1;stroke:none;stroke-width:4.14457"
         x="-1802.1431"
         y="1603.2045">4</tspan></text><text
       xml:space="preserve"
       style="font-style:normal;font-variant:normal;font-weight:bold;font-stretch:normal;font-size:103.286px;line-height:1;font-family:'Della Respira';-inkscape-font-specification:'Della Respira Bold';text-align:center;letter-spacing:5.4594px;word-spacing:0px;text-anchor:middle;opacity:1;fill:#e6e6ff;fill-opacity:1;stroke:none;stroke-width:4.14456;stroke-linecap:round;stroke-dasharray:none;stroke-opacity:1;paint-order:markers stroke fill"
       x="-2214.1899"
       y="1222.7806"
       id="text24"
       transform="scale(1.1579661,0.86358313)"><tspan
         sodipodi:role="line"
         id="tspan24"
         style="fill:#e6e6ff;fill-opacity:1;stroke:none;stroke-width:4.14458"
         x="-2211.4602"
         y="1222.7806">th</tspan></text></g></svg>
