<?xml version="1.0" encoding="UTF-8" standalone="no"?>
<!-- Created with Inkscape (http://www.inkscape.org/) -->

<svg
   width="620.00568mm"
   height="20.290653mm"
   viewBox="0 0 620.00568 20.290653"
   version="1.1"
   id="svg4033"
   xml:space="preserve"
   xmlns="http://www.w3.org/2000/svg"
   xmlns:svg="http://www.w3.org/2000/svg"><defs
     id="defs4030" /><g
     id="layer1"
     transform="translate(-25.163725,-136.9652)"><path
       id="path4529"
       style="fill:#000000;stroke-width:0.0846667"
       d="m 343.33098,136.96528 c 1.42425,7.56451 -5.91583,-3.8917 -6.03271,3.24477 -1.49525,-1.50387 -2.58814,-2.0933 -3.31711,-2.13011 -0.0342,-0.004 -0.0718,-0.003 -0.108,-0.004 -0.038,0.001 -0.0774,-1.2e-4 -0.11317,0.004 -0.72898,0.0376 -1.82137,0.62782 -3.31556,2.13062 -0.11688,-7.13646 -7.45696,4.31974 -6.03271,-3.24476 -6.05623,7.28851 -4.45096,-3.91848 -9.2015,3.04012 -2.83821,-2.88957 -1.22215,-3.34725 -6.52519,0.0884 0.73816,-7.27182 -7.19816,4.73581 -5.46426,-3.10007 -6.28459,7.35758 -4.24654,-4.26209 -9.51777,3.14451 -0.57525,-7.04534 -6.62941,4.00664 -6.70811,-2.71353 -5.07436,5.52081 -4.56127,-3.12845 -9.97046,2.7156 0.94839,-7.75357 -7.42206,5.0843 -5.53196,-3.17242 -5.78965,7.24893 -4.60611,-3.72212 -8.8961,2.89492 -0.78035,-1.99157 -2.99466,-2.33871 -4.66948,-1.37149 -0.49524,-0.77308 -1.86607,-0.64032 -4.21163,1.71875 -0.11688,-7.13646 -7.45695,4.31974 -6.0327,-3.24476 -6.05625,7.28851 -4.45095,-3.91848 -9.20151,3.04012 -2.83821,-2.88957 -1.22163,-3.34725 -6.52467,0.0884 0.73816,-7.27182 -7.19868,4.73581 -5.46478,-3.10007 -6.28457,7.35758 -4.24655,-4.26209 -9.51776,3.14451 -0.57525,-7.04534 -6.62942,4.00664 -6.70812,-2.71353 -5.07436,5.52081 -4.56128,-3.12845 -9.97045,2.7156 0.94839,-7.75357 -7.42206,5.0843 -5.53196,-3.17242 -5.78967,7.24893 -4.60613,-3.72212 -8.8961,2.89492 -0.78038,-1.99159 -2.99467,-2.33875 -4.66948,-1.37149 -0.49525,-0.77308 -1.86556,-0.64032 -4.21112,1.71875 -0.11688,-7.13646 -7.45747,4.31974 -6.03322,-3.24476 -6.05623,7.28851 -4.45095,-3.91848 -9.20151,3.04012 -2.83819,-2.88957 -1.22164,-3.34725 -6.52466,0.0884 0.73816,-7.27182 -7.19817,4.73581 -5.46427,-3.10007 -6.28457,7.35758 -4.24655,-4.26209 -9.51776,3.14451 -0.57525,-7.04534 -6.62994,4.00664 -6.70864,-2.71353 -5.07434,5.52081 -4.56126,-3.12845 -9.97045,2.7156 0.94839,-7.75357 -7.42206,5.0843 -5.53196,-3.17242 -5.78967,7.24893 -4.60561,-3.72212 -8.89558,2.89492 -0.81138,-2.07072 -3.17341,-2.36393 -4.86689,-1.25006 -0.42865,-0.90273 -1.81665,-0.87902 -4.278807,1.59732 -0.11688,-7.13646 -7.45747,4.31974 -6.033224,-3.24476 -6.055909,7.28783 -4.451018,-3.91889 -9.201505,3.03961 -2.838204,-2.88958 -1.221628,-3.34725 -6.524666,0.0884 0.738168,-7.27182 -7.198164,4.73582 -5.464266,-3.10006 -6.284587,7.35758 -4.246543,-4.2621 -9.517766,3.14451 -0.575251,-7.04535 -6.629974,4.00663 -6.708634,-2.71353 -5.074354,5.5208 -4.561266,-3.12846 -9.970451,2.71559 0.948396,-7.75357 -7.421539,5.0843 -5.531445,-3.17241 -5.789661,7.24892 -4.606106,-3.72212 -8.896098,2.89491 -1.37544,-3.51026 -10.049844,13.12128 -5.836677,15.68954 6.473628,3.9462 16.694607,-0.15569 24.269328,-0.48266 16.303076,-0.70373 27.910017,-0.31428 42.567574,-0.0233 6.604066,0.13113 10.406487,-0.33222 12.188767,-0.34175 7.56155,-0.0404 18.25206,1.49689 24.43867,1.21164 16.30093,-0.7516 30.64515,-1.78842 45.27681,-0.86989 3.19188,0.20038 8.55336,0.0346 10.32306,-0.17037 7.44448,-0.86231 15.33515,0.85666 22.82256,0.53228 16.30297,-0.70631 28.4439,-1.44927 43.07555,-0.53073 3.19191,0.20038 18.0357,-0.13469 19.80541,-0.33968 7.44447,-0.86231 25.83291,1.53396 33.32032,1.20958 16.30312,-0.70631 7.42587,-0.41959 22.0795,-0.8699 5.91545,-0.18178 13.01317,-0.17632 17.16192,-0.50849 14.61377,-1.17006 30.66751,0.3329 46.9706,1.03922 7.4874,0.32438 16.39353,-1.56391 23.838,-0.7016 1.76971,0.20499 26.26516,-0.30658 29.45706,-0.50694 14.63167,-0.91845 10.17852,-0.006 26.48149,0.70055 7.4874,0.32439 12.33019,-0.71727 19.77466,0.14504 1.76971,0.20499 15.25889,-0.13724 18.45078,-0.33761 14.63165,-0.91854 21.00218,0.95698 37.31843,0.70056 11.86765,-0.18652 22.20021,-0.75849 25.28529,-0.70366 1.78204,0.0317 6.96298,-0.30425 10.15685,-0.50488 14.63161,-0.91914 23.38593,0.33548 39.68901,1.03921 7.57472,0.32696 16.7583,4.4975 22.57606,-0.36398 5.80996,-4.85496 -6.6625,-18.52249 -8.03793,-15.01223 -4.29,-6.61703 -3.10644,4.35401 -8.8961,-2.89491 1.8901,8.25671 -6.47985,-4.58116 -5.53145,3.17241 -5.40918,-5.84405 -4.89609,2.80521 -9.97045,-2.71559 -0.0787,6.72016 -6.13338,-4.33182 -6.70863,2.71353 -5.27123,-7.40661 -3.23317,4.21307 -9.51777,-3.14451 1.7339,7.83588 -6.20243,-4.17176 -5.46426,3.10006 -5.30305,-3.43561 -3.68646,-2.97794 -6.52467,-0.0884 -4.75055,-6.95861 -3.14527,4.24839 -9.20151,-3.04013 1.42425,7.56451 -5.91634,-3.8917 -6.03322,3.24477 -2.46215,-2.47635 -3.85016,-2.50006 -4.27881,-1.59732 -1.69348,-1.11388 -4.0555,-0.82067 -4.86688,1.25005 -4.28998,-6.61703 -3.10592,4.35401 -8.89558,-2.89491 1.89009,8.25671 -6.48036,-4.58116 -5.53197,3.17241 -5.40918,-5.84405 -4.8961,2.80521 -9.97045,-2.71559 -0.0787,6.72016 -6.13338,-4.33182 -6.70863,2.71353 -5.27122,-7.40661 -3.23319,4.21307 -9.51777,-3.14451 1.7339,7.83588 -6.20242,-4.17176 -5.46426,3.10006 -5.30303,-3.43561 -3.68647,-2.97794 -6.52467,-0.0884 -4.75055,-6.95861 -3.14527,4.24839 -9.20151,-3.04013 1.42425,7.56451 -5.91634,-3.8917 -6.03322,3.24477 -2.34556,-2.35908 -3.71586,-2.49184 -4.21111,-1.71876 -1.67482,-0.96726 -3.8891,-0.6201 -4.66948,1.37149 -4.28998,-6.61703 -3.10644,4.35401 -8.8961,-2.89491 1.8901,8.25671 -6.48035,-4.58116 -5.53196,3.17241 -5.40918,-5.84405 -4.8961,2.80521 -9.97045,-2.71559 -0.0787,6.72016 -6.13287,-4.33182 -6.70812,2.71353 -5.27122,-7.40661 -3.23319,4.21307 -9.51777,-3.14451 1.7339,7.83588 -6.20294,-4.17176 -5.46478,3.10006 -5.30303,-3.43561 -3.68646,-2.97794 -6.52467,-0.0884 -4.75055,-6.95861 -3.14526,4.24839 -9.2015,-3.04013 1.42425,7.56451 -5.91583,-3.8917 -6.03271,3.24477 -2.34556,-2.35908 -3.71639,-2.49184 -4.21163,-1.71876 -1.67482,-0.96722 -3.88912,-0.62008 -4.66948,1.37149 -4.28998,-6.61703 -3.10644,4.35401 -8.8961,-2.89491 1.8901,8.25671 -6.48035,-4.58116 -5.53196,3.17241 -5.40918,-5.84405 -4.89611,2.80521 -9.97045,-2.71559 -0.0787,6.72016 -6.13287,-4.33182 -6.70812,2.71353 -5.27122,-7.40661 -3.23319,4.21307 -9.51776,-3.14451 1.73388,7.83588 -6.20243,-4.17176 -5.46427,3.10006 -5.30302,-3.43561 -3.68698,-2.97794 -6.52518,-0.0884 -4.75054,-6.95861 -3.14528,4.24839 -9.20151,-3.04013 z" /></g></svg>
