<?xml version="1.0" encoding="UTF-8" standalone="no"?>
<!-- Created with Inkscape (http://www.inkscape.org/) -->

<svg
   width="55.68116"
   height="77.681396"
   viewBox="0 0 14.732308 20.553203"
   version="1.1"
   id="svg1"
   inkscape:version="1.3 (0e150ed, 2023-07-21)"
   sodipodi:docname="AllBirds.svg"
   xml:space="preserve"
   inkscape:export-filename="banjo-wing.svg"
   inkscape:export-xdpi="241.90475"
   inkscape:export-ydpi="241.90475"
   xmlns:inkscape="http://www.inkscape.org/namespaces/inkscape"
   xmlns:sodipodi="http://sodipodi.sourceforge.net/DTD/sodipodi-0.dtd"
   xmlns="http://www.w3.org/2000/svg"
   xmlns:svg="http://www.w3.org/2000/svg"><sodipodi:namedview
     id="namedview1"
     pagecolor="#ffffff"
     bordercolor="#000000"
     borderopacity="0.25"
     inkscape:showpageshadow="2"
     inkscape:pageopacity="0.0"
     inkscape:pagecheckerboard="0"
     inkscape:deskcolor="#d1d1d1"
     inkscape:document-units="mm"
     inkscape:zoom="2.1239018"
     inkscape:cx="1049.0127"
     inkscape:cy="342.76537"
     inkscape:window-width="1872"
     inkscape:window-height="1027"
     inkscape:window-x="0"
     inkscape:window-y="25"
     inkscape:window-maximized="0"
     inkscape:current-layer="g3" /><defs
     id="defs1" /><g
     inkscape:label="Layer 1"
     inkscape:groupmode="layer"
     id="layer1"
     transform="translate(-254.78008,-97.827255)"><path
       d="m 256.92574,97.827543 c -0.0398,-6.64e-4 -0.0799,-1.59e-4 -0.12049,0.0013 -0.64938,0.02734 -1.09888,0.369352 -1.2259,0.424583 -0.20944,0.0913 -0.41424,0.193056 -0.62985,0.268325 -0.074,0.02734 -0.12049,0.06821 -0.14976,0.138078 -0.0312,0.07299 -0.0312,0.08546 0.044,0.120096 0.0273,0.01194 0.0511,0.01951 0.0796,0.02336 0.18721,0.01566 0.36389,0.06715 0.53164,0.148216 0.31981,0.154838 0.61104,0.358815 0.91775,0.535801 0.0963,0.05573 0.10603,0.11784 0.039,0.205929 0.19229,1.503139 1.0618,2.875459 2.78493,2.881109 0.0484,-0.0406 0.0449,-0.0394 0.0851,0.0155 0.0352,0.0487 0.0718,0.10139 0.12368,0.13573 0.0449,0.0312 0.0776,0.066 0.10603,0.1116 0.0523,0.0843 0.12474,0.13218 0.23284,0.10802 0.0897,-0.0195 0.12793,-0.003 0.16538,0.0851 l 0.19345,-0.11081 c 0.0718,0.17044 0.14119,0.34244 0.2032,0.51709 0.0869,0.24376 0.19422,0.47972 0.27341,0.72652 0.0156,0.0547 0.0233,0.10603 0.003,0.16109 -0.0119,0.0312 -0.003,0.16926 -0.0752,0.19266 -0.0352,-0.0768 -0.0971,-0.13338 -0.17006,-0.15289 -0.10258,-0.0273 -0.19656,0.0234 -0.21529,0.12368 -0.0233,0.11824 0.008,0.22504 0.0987,0.30694 0.0651,0.0577 0.14313,0.0788 0.22463,0.0433 0.0784,-0.035 0.0936,-0.10881 0.0951,-0.16732 -8e-5,-0.0398 -0.008,-0.0772 -0.0195,-0.11161 0.0312,-0.0119 0.0655,-0.0156 0.0667,0.0155 10e-4,0.0565 0.0273,0.14782 0.0632,0.21685 0.039,0.0702 0.0636,0.14822 0.0863,0.22544 0.0394,0.13377 0.0819,0.26599 0.15367,0.38651 0.0233,0.039 0.0398,0.0807 0.0499,0.12593 0.0119,0.0441 0.0195,0.0897 0.039,0.13032 0.15524,0.33815 0.28901,0.68538 0.43136,1.02899 0.20438,0.49322 0.41011,0.98569 0.60699,1.48211 0.23635,0.59547 0.47648,1.18932 0.71712,1.78301 0.0273,0.064 0.0157,0.11001 -0.0312,0.15795 -0.039,0.0414 -0.0929,0.0609 -0.13098,0.0998 -0.13177,0.13457 -0.28628,0.24143 -0.42875,0.36312 -0.32878,0.28081 -0.62601,0.58876 -0.85277,0.96089 -0.24845,0.40795 -0.41635,0.84723 -0.51553,1.31218 -0.10019,0.47021 -0.13924,0.94536 -0.10138,1.42703 0.0421,0.5321 0.17473,1.03745 0.39809,1.52163 0.19384,0.42051 0.44283,0.80378 0.75613,1.14381 0.18604,0.20241 0.39326,0.3826 0.61374,0.54824 0.35453,0.26638 0.73678,0.47852 1.15418,0.62883 0.0553,0.0195 0.12129,0.0273 0.15484,0.0897 0.008,0.0119 0.0234,0.0119 0.0352,0.003 0.0312,-0.0233 0.0616,-0.008 0.0921,0.003 0.24688,0.0678 0.4974,0.12009 0.75251,0.14351 0.21528,0.0195 0.42964,0.0312 0.64751,0.0195 0.27886,-0.0157 0.55557,-0.046 0.82578,-0.1116 0.71057,-0.17317 1.33944,-0.50569 1.89109,-0.98531 0.0636,-0.0553 0.1189,-0.12328 0.19033,-0.16458 0.0796,-0.046 0.10882,-0.12872 0.17005,-0.18643 0.10642,-0.10019 0.19851,-0.21333 0.28276,-0.33152 0.13885,-0.19422 0.26794,-0.3952 0.37324,-0.61115 0.15212,-0.31202 0.28433,-0.63109 0.36545,-0.9692 0.11081,-0.46221 0.15445,-0.93016 0.12633,-1.40574 -0.0273,-0.4332 -0.11425,-0.85244 -0.26093,-1.25969 -0.14975,-0.4163 -0.36077,-0.80148 -0.61322,-1.16409 -0.13151,-0.18877 -0.27691,-0.36739 -0.44848,-0.52173 -0.24065,-0.21646 -0.494,-0.41642 -0.77174,-0.58463 -0.41521,-0.25157 -0.85312,-0.44837 -1.32777,-0.5566 -0.44767,-0.10218 -0.90068,-0.13378 -1.35894,-0.0971 -0.19346,0.0155 -0.3869,0.0312 -0.5784,0.0644 -0.0734,0.0119 -0.12488,-0.008 -0.15953,-0.0776 -0.0273,-0.0573 -0.0644,-0.1116 -0.0901,-0.17161 -0.15172,-0.35374 -0.30968,-0.70429 -0.45574,-1.06014 -0.26171,-0.63729 -0.56525,-1.25582 -0.82786,-1.89269 -0.11704,-0.28354 -0.24883,-0.56162 -0.37207,-0.8429 -0.25195,-0.57466 -0.50269,-1.1499 -0.75406,-1.72482 -0.18487,-0.42247 -0.41806,-0.82775 -0.58051,-1.25813 l 0.0119,-0.008 c -0.003,-0.0531 0.003,-0.0913 0.0535,-0.12474 0.12368,-0.0823 0.13031,-0.13962 0.039,-0.25429 -0.041,-0.0503 -0.0577,-0.10258 -0.0535,-0.17004 0.0157,-0.20321 -0.0706,-0.35882 -0.25156,-0.45679 -0.0437,-0.0234 -0.0877,-0.0452 -0.11784,-0.0863 -0.0507,-0.0678 -0.0445,-0.112 0.0233,-0.16614 0.0195,-0.0157 0.039,-0.0312 0.0561,-0.0473 0.16145,-0.1599 0.35686,-0.26327 0.57164,-0.32683 0.33464,-0.0987 0.67193,-0.0776 1.0061,0.003 0.24298,0.0593 0.48674,0.11346 0.73326,0.15484 0.34401,0.0581 0.68991,0.0995 1.03,0.17785 0.33816,0.078 0.66445,0.18799 0.96246,0.37012 0.0352,0.0195 0.0682,0.0312 0.10377,0.0352 0.12289,0.0234 0.2461,0.008 0.36896,0.003 0.0273,-8.6e-4 0.0499,-0.0119 0.0421,-0.0452 -0.0273,-0.10603 -0.0527,-0.20788 -0.16067,-0.26756 -0.0917,-0.0507 -0.17747,-0.11186 -0.26522,-0.16927 -0.39345,-0.25897 -0.81217,-0.46474 -1.26073,-0.61166 -0.25157,-0.0823 -0.50388,-0.16732 -0.74261,-0.28354 -0.40198,-0.195792 -0.78447,-0.426456 -1.16615,-0.658939 -0.31553,-0.192671 -0.63058,-0.387293 -0.95726,-0.56128 -0.44212,-0.235574 -0.90102,-0.43163 -1.37923,-0.581518 -0.48167,-0.150936 -0.97387,-0.247279 -1.47742,-0.287448 -0.0589,-0.004 -0.55064,-0.261703 -1.14694,-0.271842 z m 8.11427,11.723917 c 0.0157,0.003 0.0273,0.0119 0.0413,0.0195 0.0157,0.008 0.0273,0.0195 0.0421,0.0312 0.0119,0.008 0.0234,0.0195 0.0352,0.0273 0.003,0.001 0.008,0.004 0.0119,0.008 0.0119,0.008 0.0195,0.0157 0.0233,0.0234 0.004,0.008 0.008,0.0155 0.008,0.0234 -0.001,0.0157 -0.012,0.0312 -0.0312,0.0472 -0.0444,0.0352 -0.0948,0.0577 -0.1486,0.066 -0.0195,0.003 -0.0352,0.004 -0.0549,0.004 -0.039,-8e-5 -0.074,6.7e-4 -0.1112,0.003 -0.074,0.004 -0.14782,0.0119 -0.22154,0.0195 -0.035,0.004 -0.0734,0.008 -0.11001,0.0157 -0.0195,0.003 -0.0394,0.004 -0.0577,0 -0.0195,-0.004 -0.039,-0.0195 -0.0495,-0.035 -0.012,-0.0195 -0.0157,-0.0402 -0.008,-0.0609 0.004,-0.0157 0.0119,-0.035 0.0234,-0.0503 0.0312,-0.0487 0.0869,-0.0889 0.13962,-0.0948 0.0352,-0.004 0.067,-0.008 0.10138,-0.0119 0.10258,-0.0119 0.20943,-0.0195 0.33424,-0.0312 0.0157,-0.004 0.0273,-0.004 0.041,-0.001 z m 0.60024,0.041 c 0.19111,0.0233 0.37208,0.0608 0.55085,0.10722 0.0609,0.0157 0.10882,0.0803 0.10019,0.12633 -10e-4,0.0119 -0.008,0.0234 -0.0195,0.035 -0.012,0.0119 -0.0234,0.0234 -0.035,0.0312 -0.0273,0.0195 -0.0632,0.0312 -0.0897,0.0312 -0.0234,-0.003 -0.0453,-0.004 -0.0674,-0.0119 -0.0233,-0.004 -0.0441,-0.0119 -0.0659,-0.0157 -0.1189,-0.0312 -0.24026,-0.0507 -0.36233,-0.0674 -0.0157,-0.003 -0.0312,-0.004 -0.0476,-0.008 -0.0352,-0.0119 -0.0936,-0.0784 -0.10603,-0.11465 -0.003,-0.004 -0.003,-0.0119 -0.003,-0.0119 0.001,-0.0119 0.0157,-0.0312 0.039,-0.0472 0.008,-0.004 0.0157,-0.0119 0.0233,-0.0157 0.0157,-0.0119 0.0312,-0.0195 0.0473,-0.0273 0.0157,-0.008 0.0273,-0.0119 0.039,-0.008 z m 1.10379,0.305 c 0.0119,0.004 0.0352,0.008 0.0561,0.0155 0.0672,0.0273 0.13301,0.0597 0.19814,0.0925 0.0648,0.0312 0.12872,0.0678 0.19189,0.10457 0.0352,0.0195 0.0539,0.039 0.0539,0.0569 10e-5,0.004 -9.9e-4,0.008 -0.003,0.0157 -0.004,0.0119 -0.0119,0.0195 -0.0233,0.035 -0.008,0.008 -0.012,0.0119 -0.0195,0.0195 -0.008,0.008 -0.0157,0.0119 -0.0234,0.0195 -0.0234,0.0157 -0.0445,0.0234 -0.0671,0.0234 -0.0234,0.001 -0.0457,-0.003 -0.0702,-0.0119 -0.008,-0.003 -0.0157,-0.008 -0.0234,-0.0119 -0.039,-0.0195 -0.0772,-0.0398 -0.11704,-0.0581 -0.0398,-0.0195 -0.0796,-0.035 -0.1201,-0.0519 -0.0565,-0.0234 -0.0851,-0.0652 -0.10178,-0.11386 -0.008,-0.0157 -0.0119,-0.035 -0.0157,-0.0503 -0.008,-0.0273 -0.003,-0.0495 0.0119,-0.0628 0.0157,-0.0119 0.039,-0.0195 0.0737,-0.0195 z m -4.11013,0.47918 c 0.0233,-0.004 0.0456,9.7e-4 0.0659,0.0157 0.0119,0.008 0.0195,0.0157 0.0273,0.0234 0.0195,0.0234 0.0273,0.0449 0.0273,0.0674 5.4e-4,0.0233 -0.008,0.044 -0.0234,0.0632 -0.0119,0.0155 -0.0273,0.0273 -0.0433,0.039 -0.12992,0.0959 -0.25196,0.20124 -0.37052,0.31006 -0.0234,0.0234 -0.0507,0.039 -0.0807,0.0468 -0.0119,0.003 -0.0195,0.004 -0.0312,0.008 -0.0663,0.008 -0.0855,-0.0119 -0.0823,-0.0936 -0.004,-0.041 0.012,-0.0839 0.0519,-0.11824 0.13768,-0.12129 0.27146,-0.24728 0.42664,-0.34712 0.0119,-0.008 0.0234,-0.0119 0.0352,-0.0119 z m 4.98319,0.0569 c 0.0604,0.003 0.11426,0.0233 0.15951,0.0612 0.0885,0.0752 0.17473,0.15367 0.26132,0.23088 0.0119,0.0119 0.0234,0.0234 0.0312,0.035 0.0352,0.0429 0.0448,0.10961 0.0233,0.13217 -0.039,0.039 -0.11346,0.0437 -0.15834,0.008 -0.0632,-0.0499 -0.12514,-0.10178 -0.18565,-0.15522 -0.0483,-0.0429 -0.0967,-0.0855 -0.15015,-0.12169 -0.0487,-0.0312 -0.0678,-0.0991 -0.0511,-0.15327 0.0119,-0.035 0.039,-0.039 0.069,-0.039 z m -5.73726,0.69118 c 0.0312,-8.9e-4 0.0535,0.008 0.0706,0.0273 0.008,0.008 0.012,0.0155 0.0157,0.0233 0.0157,0.0312 0.0312,0.0671 0.003,0.0998 -0.0573,0.0698 -0.11121,0.14236 -0.16264,0.21606 -0.0515,0.074 -0.10139,0.14861 -0.15132,0.22387 -0.0312,0.0491 -0.071,0.0527 -0.11585,0.0234 -0.0119,-0.008 -0.0195,-0.0195 -0.0273,-0.0312 -0.0234,-0.039 -0.0273,-0.0951 -0.004,-0.13378 0.0472,-0.0768 0.0952,-0.15289 0.1482,-0.22622 0.0352,-0.0468 0.0722,-0.0905 0.10059,-0.14118 0.008,-0.0119 0.0157,-0.0234 0.0234,-0.0312 0.0273,-0.0273 0.0608,-0.0437 0.10257,-0.0476 z m 6.51831,0.11267 c 0.062,0.008 0.11121,0.0273 0.14821,0.0682 0.0119,0.0157 0.0233,0.0312 0.0312,0.0503 0.0273,0.0577 0.0678,0.11001 0.10537,0.16264 0.008,0.0119 0.0195,0.0273 0.0273,0.039 0.0234,0.039 0.039,0.0792 0.0195,0.12248 0,0.0234 6.3e-4,0.0352 0,0.048 -0.003,0.0312 0.003,0.0706 -0.0352,0.0799 -0.0429,0.0119 -0.0706,-0.0155 -0.0932,-0.0527 -0.0406,-0.0698 -0.0863,-0.13612 -0.13138,-0.2032 -0.0233,-0.035 -0.0464,-0.0667 -0.0702,-0.0998 -0.0157,-0.0195 -0.0273,-0.039 -0.041,-0.0589 -0.004,-0.008 -0.008,-0.0119 -0.012,-0.0195 -0.008,-0.0119 -0.0157,-0.0273 -0.0195,-0.0425 -0.003,-0.008 -0.003,-0.0155 -0.003,-0.0233 0,-0.0273 0.004,-0.0465 0.0195,-0.0569 0.0119,-0.012 0.0312,-0.012 0.0589,-0.012 z m -7.06554,0.73846 c 0.0312,-0.008 0.0636,0.004 0.0925,0.0312 0.0157,0.0157 0.0234,0.0273 0.0273,0.0437 0.001,0.008 0.001,0.0157 -5.2e-4,0.0233 -0.003,0.008 -0.004,0.0157 -0.008,0.0273 -0.0605,0.13923 -0.11903,0.27925 -0.17356,0.42091 -0.004,0.0157 -0.0119,0.0233 -0.0195,0.035 -0.008,0.0119 -0.0157,0.0157 -0.0233,0.0234 -0.0195,0.0119 -0.0402,0.0157 -0.0671,0.0157 -0.0573,-7.5e-4 -0.0479,-0.0507 -0.0605,-0.0843 -0.004,-0.0157 -0.008,-0.0312 -0.0119,-0.0464 0.004,-0.0157 0.004,-0.035 0.0119,-0.0483 0.0495,-0.12594 0.0944,-0.2539 0.15679,-0.37404 0.004,-0.0119 0.012,-0.0195 0.0157,-0.0273 0.012,-0.0157 0.0273,-0.0273 0.0406,-0.035 0.008,-0.004 0.0157,-0.008 0.0234,-0.008 z m 7.64242,0.31903 c 0.008,0.004 0.0157,0.0119 0.0233,0.0195 0.004,0.004 0.008,0.008 0.0157,0.0119 0.0119,0.008 0.0195,0.0157 0.0312,0.0234 0.0157,0.0155 0.0312,0.035 0.0406,0.0557 0.004,0.0119 0.008,0.0234 0.012,0.035 0.008,0.035 0.0352,0.0671 0.0573,0.0998 0.0273,0.0421 0.0456,0.0861 0.0469,0.13257 2.6e-4,0.0195 -10e-4,0.039 -0.008,0.0565 -0.003,0.0119 -0.008,0.0195 -0.012,0.0273 -0.0195,0.0352 -0.0352,0.0484 -0.062,0.0433 -0.008,-0.003 -0.0195,-0.008 -0.0312,-0.0119 -0.008,-0.004 -0.0157,-0.0119 -0.0234,-0.0157 -0.008,-0.008 -0.0119,-0.0155 -0.0157,-0.0234 -0.0157,-0.0312 -0.0273,-0.0605 -0.039,-0.0917 -0.0234,-0.0616 -0.0406,-0.12435 -0.0593,-0.18566 -0.008,-0.0312 -0.0195,-0.0608 -0.0273,-0.0897 0.003,-0.039 0.003,-0.0706 0.0312,-0.0859 0.0119,-0.008 0.0195,-0.004 0.0273,-0.003 z m -7.88041,0.57064 c 0.039,0.004 0.0581,0.0273 0.0515,0.0674 -0.008,0.0476 -0.0195,0.0948 -0.0273,0.14235 -0.0157,0.0893 -0.0312,0.17864 -0.0433,0.26834 -0.004,0.035 -0.0119,0.0706 -0.039,0.0971 -0.008,0.008 -0.012,0.0119 -0.0157,0.0195 -0.0157,0.0195 -0.035,0.035 -0.0628,0.0273 -0.0352,-0.008 -0.0352,-0.041 -0.0421,-0.0694 -0.003,-0.0119 -0.008,-0.0233 -0.0119,-0.0312 -0.0119,-0.0312 -0.0273,-0.0624 -0.0234,-0.0987 0.0195,-0.10139 0.0352,-0.20358 0.0577,-0.3046 9.7e-4,-0.004 0.004,-0.0119 0.008,-0.0157 0.0273,-0.0437 0.11187,-0.10297 0.14705,-0.0987 z m 8.13973,0.33035 c 0.012,2.7e-4 0.0234,0.003 0.039,0.008 0.0273,0.0119 0.0491,0.0273 0.0515,0.0437 0.0157,0.112 0.0273,0.22349 0.0406,0.33582 0.003,0.0543 -0.0157,0.10258 -0.0437,0.14664 -0.0273,0.0448 -0.067,0.0448 -0.10258,0.004 -0.0234,-0.0234 -0.0352,-0.0531 -0.0352,-0.0873 -0.008,-0.10603 -0.0157,-0.21295 -0.0312,-0.31786 -0.008,-0.0593 0.0273,-0.0897 0.0581,-0.12528 0.004,-0.008 0.0157,-0.008 0.0273,-0.008 z m -8.24161,0.62621 c 0.0234,0.003 0.0418,0.0234 0.0453,0.0597 0.003,0.0273 0.003,0.0507 0.003,0.0752 -2.4e-4,0.0234 -0.001,0.048 -0.001,0.0686 0.004,0.0545 0.008,0.10683 0.0119,0.15796 0.003,0.0511 0.008,0.10058 0.0157,0.15015 0.008,0.035 0.008,0.0678 -0.0273,0.0967 -0.0312,0.0273 -0.0473,0.039 -0.0644,0.039 -0.0157,-5.4e-4 -0.0352,-0.0156 -0.0597,-0.0437 -0.0234,-0.0273 -0.0452,-0.0549 -0.0484,-0.0921 -0.008,-0.11545 -0.0233,-0.23049 -0.0195,-0.34673 1.8e-4,-0.004 0.003,-0.0119 0.004,-0.0195 0.008,-0.0273 0.0352,-0.0671 0.0612,-0.0971 l 0.0195,-0.0195 c 0.0119,-0.0119 0.0234,-0.0195 0.035,-0.0234 0.008,-0.003 0.0157,-0.004 0.0234,-0.003 z m 8.2525,0.25859 c 0.008,-9.8e-4 0.0119,-9.8e-4 0.0195,0 0.0119,0.003 0.0195,0.0119 0.0234,0.0195 0.004,0.0119 0.004,0.0233 0.008,0.0352 0.0234,0.074 0.0394,0.14976 0.0495,0.22816 -0.0119,0.0823 -0.0234,0.16536 -0.039,0.24844 -0.012,0.0706 -0.0859,0.0928 -0.11386,0.15133 -0.003,0.008 -0.008,0.008 -0.0157,0.008 -0.008,-10e-4 -0.012,-0.008 -0.0195,-0.0119 -0.0195,-0.0273 -0.0425,-0.0499 -0.0479,-0.0831 -0.003,-0.0119 -0.001,-0.0233 10e-4,-0.035 0.012,-0.0748 0.0273,-0.14977 0.035,-0.22504 0.0119,-0.0752 0.0195,-0.15055 0.0233,-0.2266 5.1e-4,-0.008 0.001,-0.012 0.003,-0.0157 10e-4,-0.008 0.003,-0.0155 0.004,-0.0195 0.004,-0.0119 0.008,-0.0233 0.0195,-0.035 0.008,-0.008 0.0119,-0.0157 0.0195,-0.0195 0.008,-0.008 0.0157,-0.0119 0.0273,-0.0157 z m -8.03888,0.17823 0.003,0.008 -0.004,-9.7e-4 z m -0.16225,0.46148 c 0.039,-0.008 0.0827,0.0273 0.0951,0.0792 0.0273,0.1189 0.062,0.23636 0.0975,0.35336 0.004,0.0119 0.004,0.0234 0.008,0.035 -7.7e-4,0.0312 -0.0644,0.12368 -0.0839,0.12793 -0.008,0.003 -0.0273,-0.004 -0.0425,-0.0157 -0.012,-0.008 -0.0234,-0.0155 -0.035,-0.0234 -0.0157,-0.0157 -0.0273,-0.0312 -0.0312,-0.0433 -0.0234,-0.0796 -0.048,-0.1599 -0.0706,-0.24064 -0.008,-0.035 -0.0157,-0.0686 -0.0234,-0.10337 -0.004,-0.0195 -0.008,-0.039 -0.008,-0.0565 2.7e-4,-0.041 0.0565,-0.10496 0.0951,-0.1108 z m 8.01813,0.49419 c 0.0157,-4.7e-4 0.0273,-8.6e-4 0.0352,5.5e-4 0.0195,0.003 0.0273,0.0119 0.0273,0.035 0.001,0.0119 5.9e-4,0.0273 0,0.0456 -0.003,0.0157 -0.008,0.0312 -0.0119,0.0472 -0.008,0.0312 -0.0234,0.0667 -0.039,0.10139 -0.008,0.0157 -0.0156,0.035 -0.0233,0.0519 -0.008,0.0157 -0.0157,0.0273 -0.0234,0.0421 -0.0233,0.0414 -0.0511,0.0815 -0.0702,0.12634 -0.0273,0.0628 -0.0943,0.0604 -0.14508,0.0839 -0.0119,0.008 -0.0195,-0.004 -0.0273,-0.0157 -10e-4,-0.004 -0.003,-0.008 -0.004,-0.0119 -0.003,-0.008 -0.003,-0.0157 -0.003,-0.0233 2.2e-4,-0.0157 0.004,-0.0312 0.0119,-0.0469 0.003,-0.008 0.008,-0.0157 0.008,-0.0233 0.0433,-0.10378 0.0869,-0.20788 0.133,-0.31046 0.0195,-0.041 0.0433,-0.0752 0.0831,-0.0909 0.0119,-0.004 0.0273,-0.008 0.0453,-0.008 z m -7.73697,0.40796 c 0.0157,-7.4e-4 0.035,0.004 0.0515,0.0119 0.0312,0.0119 0.0597,0.0273 0.0756,0.0565 0.0702,0.13416 0.15524,0.26053 0.21218,0.40171 10e-4,0.008 0.004,0.0119 0.008,0.0157 0.003,0.004 0.004,0.008 0.004,0.0119 -2.4e-4,0.0234 -0.0119,0.0491 -0.0273,0.0714 -0.0155,0.0234 -0.039,0.0402 -0.0569,0.0452 -0.012,0.003 -0.0234,0.003 -0.0312,0.003 -0.008,-0.003 -0.0195,-0.004 -0.0273,-0.0119 -0.0156,-0.0119 -0.0273,-0.0273 -0.039,-0.0421 -0.0312,-0.0515 -0.0644,-0.10418 -0.0939,-0.15756 -0.0312,-0.0535 -0.0581,-0.10802 -0.0859,-0.16264 -0.0195,-0.039 -0.035,-0.076 -0.0561,-0.11267 -0.0119,-0.0195 -0.0119,-0.0398 -0.008,-0.0569 0.004,-0.0157 0.0155,-0.0352 0.0273,-0.0487 0.008,-0.008 0.0157,-0.0155 0.0233,-0.0195 0.008,-0.004 0.0157,-0.004 0.0234,-0.008 z m 7.28746,0.44692 c 0.008,2e-4 0.0157,0.003 0.0234,0.008 0.0234,0.008 0.0234,0.0273 0.0234,0.0487 -1.2e-4,0.008 -2e-4,0.0119 5e-4,0.0195 2.8e-4,0.003 4.4e-4,0.004 5.2e-4,0.008 2.6e-4,0.008 -5.2e-4,0.0119 -5.2e-4,0.0119 10e-4,0.0119 0.003,0.0273 10e-4,0.039 -0.003,0.039 -0.0119,0.0714 -0.0234,0.10258 -0.008,0.0195 -0.0195,0.0406 -0.0352,0.0593 -0.0119,0.0195 -0.0273,0.035 -0.0394,0.0547 -0.0234,0.0273 -0.0495,0.0541 -0.0702,0.0831 -0.008,0.0119 -0.012,0.0195 -0.0195,0.0312 -0.0195,0.0461 -0.0531,0.0605 -0.0885,0.0652 -0.0352,0.004 -0.0734,-7.4e-4 -0.10683,0.004 -0.0119,0.003 -0.0195,-0.003 -0.0233,-0.008 -0.008,-0.008 -0.012,-0.0195 -0.0157,-0.0312 -9.7e-4,-0.008 -0.003,-0.0119 -0.003,-0.0195 -10e-5,-0.0119 0.003,-0.0273 0.008,-0.0402 0.003,-0.008 0.008,-0.0119 0.012,-0.0195 0.0421,-0.0527 0.0831,-0.10602 0.12328,-0.16069 0.0418,-0.0569 0.0843,-0.11385 0.12474,-0.17199 0.0119,-0.0195 0.0273,-0.035 0.0433,-0.0519 0.008,-0.008 0.0119,-0.0119 0.0195,-0.0157 0.0157,-0.008 0.0273,-0.0157 0.0444,-0.0157 z m -6.82494,0.3397 c 0.0469,0.0157 0.0964,0.0234 0.13963,0.0441 0.0273,0.0119 0.0499,0.0312 0.0698,0.0609 0.0233,0.0312 0.0487,0.0632 0.0756,0.0929 0.0273,0.0312 0.0553,0.0581 0.0827,0.0877 0.0273,0.0312 0.0398,0.0648 0.0312,0.10603 -0.003,0.0119 -0.008,0.0234 -0.012,0.0312 -0.008,0.0195 -0.0233,0.0312 -0.0433,0.0352 -0.008,10e-4 -0.0195,0.003 -0.0312,10e-4 -0.0312,-8.1e-4 -0.0573,-0.008 -0.0823,-0.0234 -0.008,-0.004 -0.0157,-0.0119 -0.0234,-0.0157 -0.0409,-0.035 -0.0796,-0.0748 -0.11545,-0.11585 -0.0352,-0.041 -0.069,-0.0843 -0.0983,-0.13097 -0.0273,-0.0421 -0.0234,-0.0929 -0.0352,-0.13885 -0.008,-0.0273 0.0157,-0.0445 0.041,-0.0352 z m 6.07089,0.51191 c 0.0394,-0.004 0.0734,0.0273 0.0877,0.0752 0.012,0.0352 0.012,0.0671 0.003,0.0935 -0.012,0.0273 -0.0312,0.0479 -0.0613,0.0682 -0.039,0.0234 -0.0714,0.0549 -0.10563,0.0843 -0.0157,0.0119 -0.0312,0.0273 -0.0464,0.0312 -0.008,0.004 -0.0157,0.008 -0.0273,0.008 -0.008,2e-4 -0.0195,-0.003 -0.0273,-0.008 -0.008,-5.4e-4 -0.008,-9.4e-4 -0.012,-9.6e-4 -0.0273,-8.7e-4 -0.0593,0.0155 -0.0851,0.0119 -0.0157,-8.1e-4 -0.0273,-0.008 -0.0352,-0.0273 -0.0233,-0.0569 0.0273,-0.112 0.0636,-0.15015 0.0157,-0.0157 0.0352,-0.0312 0.0531,-0.0472 0.0495,-0.0437 0.10258,-0.0847 0.15601,-0.12368 0.0157,-0.0119 0.0273,-0.0157 0.0406,-0.0157 z m -5.35008,0.12208 c 0.0157,1.2e-4 0.0273,0.003 0.0402,0.0119 0.0425,0.0273 0.0839,0.0589 0.12487,0.0905 0.0406,0.0312 0.0803,0.0648 0.1185,0.0987 0.012,0.008 0.0157,0.0195 0.0195,0.0312 0.001,0.008 8.2e-4,0.0119 0,0.0195 -0.003,0.0119 -0.008,0.0234 -0.0157,0.035 l -0.0119,0.0119 c -0.012,0.008 -0.0234,0.0119 -0.0352,0.0157 -0.0119,0.001 -0.0273,0.001 -0.039,0.001 -0.0119,-2e-4 -0.0273,-5.1e-4 -0.039,-5.1e-4 -0.0195,5.5e-4 -0.0352,-0.001 -0.0519,-0.004 -0.0674,-0.0119 -0.12514,-0.0507 -0.16108,-0.10497 -0.0273,-0.0406 -0.0418,-0.0897 -0.039,-0.14196 0.003,-0.0312 0.0487,-0.0612 0.0921,-0.0609 z m 0.66622,0.43499 c 0.0273,-3.1e-4 0.0589,0.0157 0.0897,0.0312 0.0312,0.0157 0.0663,0.0352 0.0998,0.0487 0.0352,0.0157 0.0674,0.0312 0.10059,0.0468 0.0425,0.0195 0.0656,0.0441 0.0698,0.0718 0.004,0.0273 -0.0119,0.0577 -0.0465,0.0909 -0.008,0.008 -0.0157,0.0157 -0.0233,0.0234 -0.0157,0.0119 -0.0273,0.0195 -0.0402,0.0273 -0.008,0.003 -0.0119,0.004 -0.0195,0.008 -0.0119,0.003 -0.0273,7e-5 -0.0421,-0.004 -0.0156,-0.004 -0.0352,-0.0119 -0.0549,-0.0234 -0.0776,-0.039 -0.15601,-0.076 -0.23285,-0.11625 -0.0539,-0.0273 -0.0819,-0.0951 -0.0682,-0.15055 0.003,-0.0119 0.008,-0.0195 0.0156,-0.0234 0.008,-0.008 0.0157,-0.008 0.0273,-0.008 0.0273,-0.003 0.0577,-0.004 0.0967,-0.008 0.008,-0.004 0.0195,-0.008 0.0273,-0.008 z m 3.50159,0.19814 c 0.26092,0 0.14625,0.35686 -0.0394,0.23284 -0.18604,-0.12408 -0.22114,-0.23284 0.0394,-0.23284 z m -2.60985,0.1404 c 0.0527,0.0119 0.10058,0.0157 0.14665,0.0312 0.0776,0.0234 0.15795,0.0352 0.23752,0.0456 0.073,0.008 0.11545,0.0499 0.15367,0.10338 0.0195,0.0273 0.0273,0.0515 0.0195,0.0792 -0.003,0.008 -0.008,0.0195 -0.0119,0.0273 -0.0195,0.0273 -0.0402,0.0472 -0.0706,0.0515 -0.0119,0.001 -0.0195,0.001 -0.0352,-10e-4 -0.0796,-0.0119 -0.15835,-0.0273 -0.23714,-0.0437 -0.0788,-0.0157 -0.15756,-0.0352 -0.23556,-0.0549 -0.0157,-0.004 -0.0273,-0.0119 -0.039,-0.0195 -0.012,-0.008 -0.0195,-0.0195 -0.0273,-0.035 -0.008,-0.0119 -0.0155,-0.0234 -0.0234,-0.039 -0.004,-0.008 -0.008,-0.0119 -0.0119,-0.0195 -0.004,-0.008 -0.008,-0.0119 -0.0157,-0.0156 -1.5e-4,-8e-5 1.2e-4,-7.5e-4 0,-9.9e-4 -0.003,-0.004 -4.6e-4,-0.0195 0.004,-0.0234 l 0.0312,-0.0312 c 0.0312,-0.0273 0.0666,-0.0515 0.10841,-0.0581 z m 1.36467,0.1193 c 0.0195,6.6e-4 0.0425,0.003 0.0628,0.008 0.0312,0.008 0.0605,0.0195 0.0893,0.0394 0.0157,0.0119 0.0312,0.0195 0.0421,0.0312 0.0119,0.0119 0.0195,0.0273 0.0195,0.0468 -5.5e-4,0.0119 -0.004,0.0234 -0.008,0.035 -0.0157,0.035 -0.0507,0.0702 -0.0827,0.0744 -0.0734,0.0119 -0.14705,0.0155 -0.22075,0.0234 -0.0352,0.003 -0.071,5e-4 -0.10643,5e-4 v 0.008 c -0.0418,0 -0.0835,-0.001 -0.12514,5.1e-4 -0.0601,0.004 -0.10536,-0.0234 -0.14431,-0.0648 -0.012,-0.0119 -0.0234,-0.0234 -0.0273,-0.0352 -0.0119,-0.0234 -0.008,-0.0417 0.0195,-0.0694 0.004,-0.008 0.0119,-0.0119 0.0157,-0.0195 0.0157,-0.0155 0.0273,-0.0273 0.0441,-0.035 0.046,-0.0273 0.0967,-0.035 0.15446,-0.0312 0.0577,0.003 0.11585,-0.004 0.17356,-0.008 0.0312,-10e-4 0.064,-0.004 0.0955,-0.003 z"
       style="display:inline;fill:#000000;fill-opacity:1;fill-rule:nonzero;stroke:none;stroke-width:0.354767"
       id="path1-5"
       inkscape:label="banjo body"
       sodipodi:nodetypes="cccccccccccccccccccccccccccccccccscccsscccccscccccccssccsccccsccsccccccccccccccccccccccccscccccsccccccccsccsccccccccccccccccccccccccccccccccccccccccccccccccccccccccccccccccccccccccccccccccccccccccccccccccccccccscccccccccccccccccccccscccccccccccccccccccccccccccccccccccccccccccccccccccccsccsccccccccccccccccccccccccccccccccccccccccccccccccccccccccccccccccccccccccccccccccscccccccccccccccscccccccccccccccccccccccccccccccsccccccccccccccccccccccsccccccccccccccccscscccscccccsccscsccccccccccccccccccccccccc" /><path
       d="m 256.78575,99.323568 c 0.0944,0.05466 -0.28747,0.130068 -0.35341,0.216419 -0.0641,0.0838 -0.13479,0.16286 -0.20403,0.242652 -0.19383,0.224431 -0.37731,0.456471 -0.52548,0.714611 -0.11915,0.20804 -0.20696,0.43007 -0.29585,0.6513 -0.1625,0.40379 -0.31188,0.81241 -0.45529,1.22321 -0.0856,0.24484 -0.19054,0.48435 -0.18909,0.75163 2.1e-4,0.0427 0.004,0.0739 0.0375,0.10348 0.0747,0.0659 0.10421,0.15193 0.10314,0.2514 -5.7e-4,0.0583 -0.011,0.11403 -0.0217,0.17015 -0.0292,0.13334 -0.0571,0.26597 -0.0832,0.39957 -0.0145,0.0755 -0.007,0.0798 0.0667,0.0528 0.0597,-0.0218 0.11695,-0.0499 0.1778,-0.067 0.10748,-0.0292 0.16067,-0.007 0.2237,0.0849 0.0218,0.0292 0.0328,0.0624 0.0409,0.0991 0.011,0.0499 0.0218,0.10015 0.048,0.14574 0.0292,0.0492 0.0689,0.0724 0.1268,0.0695 0.0587,-0.003 0.1144,-0.0182 0.16504,-0.0455 0.0762,-0.0405 0.13627,-0.0255 0.19602,0.0328 0.0735,0.0714 0.1512,0.13881 0.22845,0.20621 0.0525,0.046 0.0714,0.0455 0.12424,-0.002 0.0364,-0.0328 0.0689,-0.0667 0.0914,-0.11112 0.0256,-0.0481 0.0539,-0.0947 0.0925,-0.13336 0.0478,-0.0478 0.10015,-0.0524 0.15558,-0.0146 0.0292,0.0182 0.0463,0.0463 0.0656,0.0736 0.0433,0.0616 0.0762,0.13115 0.13298,0.18289 0.078,0.0711 0.15594,0.0626 0.21133,-0.0292 0.0292,-0.0488 0.0547,-0.10096 0.0776,-0.15375 0.0528,-0.12134 0.10086,-0.2452 0.1552,-0.36614 0.0808,-0.18071 0.19311,-0.32753 0.38782,-0.40721 0.24193,-0.0991 0.45087,-0.25615 0.65279,-0.4197 0.18801,-0.15228 0.36288,-0.31878 0.53173,-0.49206 0.1326,-0.13627 0.18035,-0.19784 0.41359,-0.39281 0.75569,-2.818912 0.0708,-3.098834 -2.37621,-3.040175 z"
       style="display:none;fill:#000000;fill-opacity:1;fill-rule:nonzero;stroke:none;stroke-width:0.331412"
       id="path1-0"
       sodipodi:nodetypes="ccccccscccccccccccccccscccccccscccc"
       inkscape:label="banjo wing" /></g></svg>
