<?xml version="1.0" encoding="UTF-8" standalone="no"?>
<!-- Created with Inkscape (http://www.inkscape.org/) -->

<svg
   width="50.872787"
   height="27.706957"
   viewBox="0 0 13.460092 7.3307989"
   version="1.1"
   id="svg1"
   inkscape:version="1.3 (0e150ed, 2023-07-21)"
   sodipodi:docname="AllBirds.svg"
   xml:space="preserve"
   inkscape:export-filename="fiddle-wing.svg"
   inkscape:export-xdpi="241.90475"
   inkscape:export-ydpi="241.90475"
   xmlns:inkscape="http://www.inkscape.org/namespaces/inkscape"
   xmlns:sodipodi="http://sodipodi.sourceforge.net/DTD/sodipodi-0.dtd"
   xmlns="http://www.w3.org/2000/svg"
   xmlns:svg="http://www.w3.org/2000/svg"><sodipodi:namedview
     id="namedview1"
     pagecolor="#ffffff"
     bordercolor="#000000"
     borderopacity="0.25"
     inkscape:showpageshadow="2"
     inkscape:pageopacity="0.0"
     inkscape:pagecheckerboard="0"
     inkscape:deskcolor="#d1d1d1"
     inkscape:document-units="mm"
     inkscape:zoom="2.1239018"
     inkscape:cx="1049.0127"
     inkscape:cy="342.76537"
     inkscape:window-width="1872"
     inkscape:window-height="1027"
     inkscape:window-x="0"
     inkscape:window-y="25"
     inkscape:window-maximized="0"
     inkscape:current-layer="g3" /><defs
     id="defs1" /><g
     inkscape:label="Layer 1"
     inkscape:groupmode="layer"
     id="layer1"
     transform="translate(-199.82705,-103.05156)"><path
       d="m 207.37814,108.14771 c -1.13508,0.0193 -2.3837,0.39896 -3.56202,0.67677 v 5.2e-4 c -0.11165,0.041 -0.22522,0.11667 -0.34303,0.0967 -0.19553,-0.0333 -0.22673,0.0534 -0.31723,0.10465 -0.10857,0.0615 -0.21182,0.13758 -0.32742,0.1822 -0.16199,0.0623 -0.30512,0.14718 -0.43927,0.24542 -0.1342,0.0982 -0.38174,0.15802 -0.38174,0.3251 v 7.4e-4 c 0,0.31019 -0.34995,0.53659 -0.68123,0.65605 -0.022,0.008 -0.045,0.0481 -0.0597,0.0893 -0.0149,0.0411 -0.0213,0.0835 -0.0104,0.094 0.0569,0.0565 0.15345,0.11292 0.22906,0.10679 0.30298,-0.0243 0.60229,-0.0786 0.90487,-0.10944 0.28228,-0.0288 0.57119,-0.0158 0.84843,-0.067 0.12966,-0.024 0.25763,-0.0354 0.38284,-0.0367 0.37559,-0.004 0.73379,0.0862 1.09306,0.22842 0.76524,0.30296 1.53379,0.59988 2.31304,0.86587 0.16652,0.0569 0.34055,0.0931 0.51666,0.12323 0.17613,0.0301 0.35485,0.0542 0.53015,0.085 0.0897,0.0158 0.1383,0.0309 0.10697,0.13388 -0.0652,0.21512 -0.12482,0.43194 -0.18495,0.6486 -0.0425,0.1529 -0.0748,0.30824 -0.12424,0.45896 -0.0871,0.26637 -0.18856,0.52872 -0.27475,0.79521 -0.0236,0.0729 -0.0157,0.15527 -0.0226,0.23321 0.0372,-0.0748 0.0814,-0.14662 0.11076,-0.22417 0.0542,-0.14414 0.0986,-0.29241 0.15109,-0.43719 0.007,-0.0191 0.0388,-0.0295 0.0591,-0.0441 0.007,0.0219 0.0226,0.0456 0.0198,0.0664 -0.0147,0.11714 -0.0226,0.23604 -0.0527,0.34954 -0.0943,0.35577 -0.1973,0.70967 -0.2968,1.064 -0.0872,0.31017 -0.16855,0.62109 -0.26291,0.92908 -0.0958,0.31236 -0.21708,0.61838 -0.30377,0.93281 -0.083,0.30116 -0.1238,0.61372 -0.2054,0.91526 -0.0727,0.26896 -0.11151,0.54715 -0.16935,0.82018 -0.029,0.13657 -0.0627,0.27156 -0.10801,0.40372 -0.0452,0.13214 -0.10154,0.26093 -0.17635,0.38513 -0.0201,0.0335 -0.0172,0.0797 -0.0269,0.11952 -0.0374,0.15445 -0.0729,0.30967 -0.114,0.46321 -0.0608,0.22709 -0.12746,0.45258 -0.18926,0.67941 -0.11985,0.43976 -0.23758,0.88016 -0.35702,1.32006 -0.0791,0.29136 -0.26751,0.53991 -0.3129,0.85047 -0.041,0.28053 -0.1558,0.5505 -0.2355,0.82602 -0.0408,0.14098 -0.0709,0.22204 -0.11984,0.26984 -0.0489,0.0479 -0.11679,0.062 -0.23173,0.0702 -0.0374,0.003 -0.10289,-0.005 -0.10859,-0.0234 -0.0117,-0.0384 -0.007,-0.096 0.0151,-0.12855 0.0469,-0.0668 0.11869,-0.11656 0.16239,-0.18486 0.0268,-0.0418 0.042,-0.11471 0.0221,-0.15458 -0.0203,-0.0403 -0.089,-0.0767 -0.13771,-0.0781 -0.0364,-7.4e-4 -0.0856,0.0505 -0.10916,0.0898 -0.0251,0.0423 -0.0251,0.0983 -0.0399,0.14715 -0.0205,0.0687 -0.0322,0.14579 -0.0494,0.2178 -0.0173,0.072 -0.0397,0.13876 -0.0844,0.18592 -0.0871,0.0918 -0.11708,0.18802 -0.12468,0.28578 -0.007,0.0977 0.007,0.19696 0.0104,0.29643 7.4e-4,0.0408 0.0104,0.0753 0.0269,0.10196 0.033,0.0535 0.0921,0.0772 0.15915,0.0669 0.0336,-0.006 0.0691,-0.0182 0.10434,-0.0409 0.0953,-0.0615 0.19502,-0.12365 0.30164,-0.16043 0.11545,-0.0399 0.18003,-0.0594 0.22957,-0.095 0.0497,-0.0355 0.0843,-0.0871 0.13712,-0.19124 0.12219,-0.24024 0.23879,-0.48704 0.32153,-0.7421 0.15635,-0.48171 0.29267,-0.97025 0.42635,-1.45869 0.11751,-0.42934 0.21927,-0.86171 0.32905,-1.29296 0.0433,-0.16925 0.082,-0.33956 0.13391,-0.50624 0.15374,-0.49515 0.3201,-0.98737 0.46778,-1.4842 0.19687,-0.66232 0.37991,-1.32894 0.57047,-1.99308 0.0569,-0.19832 0.12393,-0.394 0.18279,-0.59177 0.059,-0.19776 0.10976,-0.39764 0.13551,-0.60399 0.007,-0.0543 0.0378,-0.10568 0.0565,-0.15882 0.0971,-0.27463 0.20637,-0.54596 0.28763,-0.82497 0.12513,-0.42881 0.22897,-0.86328 0.34734,-1.29403 0.0163,-0.0597 0.19446,-0.56746 0.22797,-0.62257 0.15218,-0.12147 0.3063,0.10937 0.38927,0.26773 0.0527,0.15157 0.1118,0.30209 0.15161,0.45685 0.0499,0.19318 0.0914,0.38011 0.0132,0.56042 -0.0262,0.0599 -0.0652,0.12001 -0.12204,0.17848 -0.20211,0.20862 -0.36656,0.45474 -0.53122,0.69535 -0.0662,0.0963 -0.0814,0.22498 -0.13171,0.3336 -0.0918,0.19844 -0.1571,0.40111 -0.19623,0.60878 -0.0392,0.20766 -0.0516,0.42045 -0.0338,0.63744 0.0211,0.25751 0.0688,0.51285 0.0903,0.77024 0.0104,0.12599 0.023,0.19153 0.0613,0.238 0.0384,0.0464 0.1029,0.0735 0.21614,0.12111 0.22097,0.0929 0.44099,0.21458 0.61993,0.37024 0.0723,0.0628 0.12877,0.13466 0.17474,0.21196 0.13769,0.23175 0.18039,0.51413 0.27204,0.76759 0.0601,0.16576 0.076,0.35204 0.0813,0.53015 0.006,0.15224 0.006,0.32795 -0.064,0.45364 -0.10624,0.19049 -0.19006,0.42613 -0.46024,0.48129 -0.0497,0.0105 -0.0978,0.076 -0.12687,0.12748 -0.0528,0.0924 -0.0784,0.18692 -0.0801,0.28208 -7.3e-4,0.0952 0.0204,0.19124 0.0603,0.28844 0.0292,0.0717 0.0451,0.14846 0.0633,0.22417 0.0591,0.24433 0.0894,0.5003 0.18173,0.73148 0.0479,0.12024 0.0946,0.2407 0.1484,0.35962 0.0533,0.11891 0.11428,0.23605 0.1898,0.34953 0.091,0.13676 0.16363,0.28358 0.25162,0.41965 0.0879,0.13611 0.19111,0.26165 0.34303,0.35433 0.10373,0.0633 0.20052,0.13981 0.29894,0.21248 0.0986,0.0724 0.19795,0.14104 0.30755,0.18963 0.11267,0.0501 0.23306,0.0862 0.35593,0.11476 0.12277,0.0287 0.24864,0.0494 0.37206,0.0701 0.21775,0.0365 0.44559,0.0712 0.66184,0.0457 0.26015,-0.0306 0.51997,-0.0702 0.7737,-0.13121 0.12688,-0.0305 0.25183,-0.0665 0.37529,-0.10943 0.12337,-0.043 0.24561,-0.0925 0.36456,-0.1514 0.0728,-0.0362 0.14077,-0.0849 0.20375,-0.13651 0.22756,-0.18699 0.39761,-0.41493 0.49735,-0.69269 0.0166,-0.0463 0.0611,-0.0822 0.0828,-0.1275 0.0332,-0.0687 0.0747,-0.13912 0.0844,-0.21249 0.0433,-0.32691 0.0817,-0.65379 0.1118,-0.98221 0.0401,-0.43685 -0.0327,-0.86357 -0.13286,-1.28817 -0.0681,-0.2894 -0.14371,-0.5818 -0.16452,-0.87649 -0.007,-0.0858 -0.0198,-0.15981 -0.042,-0.22099 -0.0445,-0.12236 -0.12365,-0.19443 -0.24411,-0.21247 -0.0601,-0.008 -0.13053,-0.003 -0.21236,0.0145 -0.13023,0.0289 -0.25518,0.0309 -0.36831,7.4e-4 -0.11312,-0.0312 -0.21417,-0.0952 -0.29786,-0.19654 -0.171,-0.20711 -0.30985,-0.44 -0.45755,-0.66508 -0.0731,-0.11153 -0.13404,-0.22601 -0.18173,-0.34262 -0.0474,-0.1166 -0.0824,-0.23567 -0.10537,-0.35697 -0.0458,-0.24263 -0.0428,-0.49404 0.004,-0.75326 0.0132,-0.0701 0.0615,-0.15044 0.11882,-0.19389 0.0867,-0.0656 0.15553,-0.1322 0.15538,-0.22416 -3e-5,-0.0306 -0.008,-0.0645 -0.0253,-0.10144 -0.11239,-0.24355 -0.23647,-0.48205 -0.34626,-0.72669 -0.30974,-0.69013 -0.87556,-1.13019 -1.53181,-1.4486 -0.27958,-0.13565 -0.50307,-0.29826 -0.6554,-0.5312 -0.0507,-0.0778 -0.0931,-0.16307 -0.12747,-0.25818 l -0.0194,-0.005 c -0.16553,-0.38507 -0.64277,-1.28983 -0.78391,-1.64462 0.0931,-0.0366 0.18645,-0.0712 0.28066,-0.10248 0.15304,-0.0506 0.30757,-0.0946 0.464,-0.13014 0.31285,-0.0711 0.63291,-0.11094 0.95866,-0.11582 0.20915,-0.003 0.41799,0.008 0.62744,0.025 0.20944,0.016 0.41904,0.0361 0.62854,0.0482 0.25889,0.0151 0.51393,0.18315 0.77799,0.0191 0.0104,-0.007 0.03,-4.5e-4 0.0453,7.4e-4 0.0371,0.004 0.1077,0.048 0.11136,0.0117 0.004,-0.0414 -0.0675,-0.0525 -0.10536,-0.0701 -0.0271,-0.0129 -0.0661,0.003 -0.0925,-0.0143 -0.0282,-0.0179 -0.0344,-0.0622 -0.0516,-0.0924 -0.0179,-0.0309 -0.0376,-0.057 -0.0634,-0.0664 -0.19609,-0.0699 -0.39736,-0.12941 -0.60163,-0.17211 -0.37491,-0.0785 -0.75406,-0.13533 -1.12909,-0.21355 -0.39009,-0.0813 -0.75226,-0.61359 -0.97962,-0.97849 -0.72498,-1.16362 -1.74679,-1.50506 -2.88187,-1.48579 z m 0.53551,5.05498 c 0.006,0.007 0.0168,0.013 0.0166,0.0201 0,0.007 -0.0118,0.0127 -0.0177,0.0196 -0.006,-0.007 -0.0166,-0.0136 -0.0166,-0.0201 0,-0.007 0.0117,-0.0135 0.0177,-0.0196 z m -0.51831,1.38432 c -5.4e-4,7.3e-4 -5.8e-4,0.004 -7.5e-4,0.006 7.5e-4,-7.5e-4 7.5e-4,-0.003 0.003,-0.004 z m -7.5e-4,0.006 h -5.3e-4 c -8e-5,3.2e-4 1e-4,7.2e-4 0,7.3e-4 2.4e-4,-3e-4 3.2e-4,-7.3e-4 5.3e-4,-7.3e-4 z m -5.3e-4,7.3e-4 c -0.04,0.0524 -0.0946,0.0993 -0.114,0.1583 -0.0935,0.28494 -0.17791,0.5736 -0.2613,0.86162 -0.0118,0.038 7.5e-4,0.0824 0.004,0.1243 0.031,-0.0347 0.0764,-0.0651 0.0899,-0.10516 0.0373,-0.11086 0.0606,-0.22596 0.0908,-0.33892 0.0626,-0.23383 0.12688,-0.46658 0.19032,-0.70014 z m -0.40701,1.29244 c -0.0117,0.0112 -0.03,0.0212 -0.0349,0.035 -0.056,0.16514 -0.11326,0.32988 -0.16398,0.49668 -0.0892,0.29254 -0.16857,0.5883 -0.26292,0.87915 -0.0562,0.17352 -0.14995,0.33597 -0.1984,0.51103 -0.13068,0.47119 -0.24644,0.94627 -0.3656,1.42044 -0.007,0.0319 0.006,0.0692 0.0104,0.10411 0.0329,-0.003 0.0874,-5.9e-4 0.0903,-0.0117 0.0658,-0.24205 0.13433,-0.48438 0.18442,-0.72989 0.0743,-0.36466 0.17275,-0.71924 0.30485,-1.06985 0.14897,-0.39519 0.24989,-0.80756 0.3656,-1.21433 0.0349,-0.12301 0.0504,-0.25147 0.0736,-0.3777 0.003,-0.0143 -7.4e-4,-0.0287 -0.003,-0.0431 z m -1.01565,3.44647 c -7.4e-4,7e-5 -0.003,-1.1e-4 -0.004,0 7.4e-4,0.003 7.4e-4,0.004 0.003,0.007 5.8e-4,-7.4e-4 7.3e-4,-0.003 7.3e-4,-0.006 -3e-5,-4.7e-4 7e-5,-6.3e-4 0,-7.4e-4 z m -7.4e-4,0.007 c -0.091,0.26948 -0.17667,0.54173 -0.2753,0.80848 -0.13008,0.35153 -0.23991,0.70687 -0.28979,1.07836 -0.004,0.0304 0.008,0.063 0.0147,0.0946 0.0159,-0.025 0.0317,-0.0501 0.0478,-0.0749 0.0492,-0.0754 0.11342,-0.14596 0.14458,-0.22789 0.0379,-0.0996 0.0549,-0.20809 0.0678,-0.31447 0.007,-0.0584 -0.0351,-0.12759 -0.0171,-0.17956 0.0827,-0.24165 0.16808,-0.48331 0.27313,-0.71607 0.0712,-0.15814 0.0874,-0.30812 0.0344,-0.46853 z m 1.3791,-3.06348 c 0.007,0.004 0.0161,0.008 0.0241,0.0127 -0.013,0.0249 -0.026,0.0492 -0.0392,0.0739 0.006,-0.0287 0.0104,-0.0571 0.0151,-0.0861 z m -0.0226,0.10678 c -0.0132,0.0716 -0.0243,0.1439 -0.0425,0.21408 -0.004,0.0171 -0.0353,0.0275 -0.0542,0.0409 -0.006,-0.0227 -0.0249,-0.0517 -0.0167,-0.0674 0.0337,-0.0645 0.0749,-0.12544 0.11342,-0.18752 z m 4.73464,1.29136 c 0.019,7.5e-4 0.0392,0.004 0.0597,0.009 0.0413,0.0118 0.0853,0.0308 0.12791,0.0563 0.0854,0.0515 0.16667,0.12651 0.21561,0.2008 0.0896,0.13643 0.15477,0.28164 0.20915,0.4308 0.0542,0.14916 0.0975,0.30182 0.14415,0.45366 0.0284,0.0919 0.0548,0.18446 0.0801,0.27728 0.006,0.0142 0.0907,0.0304 0.0946,0.0446 0.007,0.0207 -0.0717,0.0398 -0.0662,0.0606 0.0711,0.26487 0.13932,0.53033 0.23443,0.78672 0.0324,0.0878 0.0785,0.17305 0.12262,0.24276 0.0437,0.0696 0.0859,0.12436 0.11297,0.15192 0.0539,0.055 0.10364,0.13019 0.20539,0.11208 0.10176,-0.018 0.17635,-0.1907 0.17635,-0.1907 0,0 0.006,-0.0854 -0.028,-0.0983 -0.0173,-0.007 -0.0645,-0.0269 -0.10269,-0.0617 -0.0194,-0.0174 -0.036,-0.0385 -0.0457,-0.0633 -0.0118,-0.0245 -0.0132,-0.0527 -0.006,-0.0845 0.0501,-0.0322 0.10093,-0.0717 0.15538,-0.0882 0.0544,-0.0163 0.1124,-0.0105 0.17744,0.051 0.0413,0.0386 0.072,0.0823 0.0931,0.12854 0.0627,0.13881 0.0319,0.30024 -0.0931,0.41594 -0.082,0.0761 -0.16435,0.15179 -0.25754,0.19602 -0.0932,0.0441 -0.19692,0.0573 -0.3226,0.0112 -0.0662,-0.0243 -0.14005,-0.0493 -0.18819,-0.0961 -0.0667,-0.0649 -0.12102,-0.13403 -0.16558,-0.20612 -0.13419,-0.2161 -0.18618,-0.46212 -0.26291,-0.72508 -0.0309,-0.10596 -0.0607,-0.2638 -0.0935,-0.44197 -0.006,-0.0227 -0.0872,-0.0469 -0.0914,-0.0701 -0.006,-0.0344 0.0648,-0.0433 0.0581,-0.0786 -0.0381,-0.20073 -0.0809,-0.41891 -0.13492,-0.60717 -0.0269,-0.0941 -0.0559,-0.18041 -0.0886,-0.25393 -0.0328,-0.0737 -0.0692,-0.13406 -0.10975,-0.17529 -0.16072,-0.16384 -0.18295,-0.19937 -0.28498,-0.11155 -0.0511,0.044 -0.0194,0.10652 0.004,0.16521 0.0227,0.0588 0.0369,0.11333 -0.05,0.14131 -0.0868,0.028 -0.14092,6.8e-4 -0.17421,-0.0499 -0.0332,-0.0506 -0.0458,-0.12442 -0.05,-0.18857 -0.008,-0.14338 0.16843,-0.3027 0.29033,-0.33892 h 7.4e-4 c 0.0166,-0.005 0.0346,-0.007 0.0537,-0.006 z m -1.62104,0.41806 c 0.0221,-7.3e-4 0.0445,1.8e-4 0.0673,0.003 l -5.5e-4,-5.4e-4 c 0.0907,0.0103 0.18223,0.0481 0.25971,0.10624 0.0328,0.0248 0.0626,0.0631 0.0838,0.10518 0.0213,0.0419 0.0344,0.0873 0.036,0.1275 7.5e-4,0.0443 -0.10227,0.13654 -0.16988,0.13493 -0.0759,-0.003 -0.10552,-0.0159 -0.11562,-0.0441 -0.0118,-0.0277 4.3e-4,-0.0684 7.3e-4,-0.12217 7.5e-4,-0.0538 -0.0552,-0.0591 -0.11618,-0.0398 -0.0606,0.0193 -0.1263,0.0633 -0.14459,0.1105 -0.12995,0.0463 0.0458,0.61173 0.12746,0.78139 0.0132,0.0546 0.0263,0.10418 0.0376,0.15033 0.003,0.0143 0.12586,0.0446 0.12586,0.0446 0,0 -0.098,0.0725 -0.0899,0.10678 0.0665,0.27908 0.0969,0.42654 0.18979,0.82178 0.0591,0.25124 0.19015,0.51085 0.12308,0.76601 -0.0245,0.094 -0.0651,0.17387 -0.12263,0.23479 -0.0287,0.0304 -0.0621,0.056 -0.0995,0.0759 -0.0374,0.0198 -0.0797,0.0354 -0.12629,0.0436 -0.11196,0.0197 -0.22643,0.0324 -0.33605,0.0176 -0.10946,-0.0144 -0.21475,-0.0579 -0.30592,-0.14928 -0.0871,-0.0873 -0.0988,-0.36321 -0.004,-0.39309 0.12702,-0.0396 0.14385,-0.0257 0.27796,0.003 0.0158,0.003 0.023,0.0433 0.0285,0.0924 0.006,0.0492 0.008,0.10767 0.0173,0.1498 0.007,0.0279 0.15454,0.0573 0.16452,0.0845 0.0273,-0.0185 0.0755,-0.0346 0.078,-0.0559 0.0727,-0.0414 0.10637,-0.11727 0.12262,-0.19334 0.0157,-0.076 0.0154,-0.15245 0.0161,-0.19496 7.4e-4,-0.0683 -0.2023,-0.73232 -0.33067,-1.21859 -0.006,-0.0166 -0.11195,-0.0336 -0.1162,-0.0494 -0.006,-0.0198 0.0929,-0.0377 0.0882,-0.0569 -0.0195,-0.0764 -0.0362,-0.14711 -0.0489,-0.20663 -0.0268,-0.12549 -0.0496,-0.25265 -0.0656,-0.38088 -0.0157,-0.12829 -0.0239,-0.25666 -0.0209,-0.38406 0.003,-0.14004 0.0755,-0.32607 0.18226,-0.40478 0.0369,-0.0272 0.0783,-0.046 0.12103,-0.0559 0.0215,-0.005 0.043,-0.008 0.0651,-0.008 z m -5.11051,3.3567 c -0.0209,0.0348 -0.0507,0.0678 -0.0617,0.10518 -0.0951,0.32332 -0.1847,0.64745 -0.28012,0.97051 -0.0414,0.14028 -0.0924,0.27802 -0.13873,0.417 0.006,7.5e-4 0.0117,0.004 0.0167,0.006 0,0.0204 -0.004,0.0418 7.3e-4,0.0611 0.0104,0.0374 0.0234,0.0743 0.0361,0.11101 0.0277,-0.0308 0.0696,-0.0572 0.0813,-0.0929 0.0456,-0.13986 0.0753,-0.28455 0.12206,-0.42392 0.0804,-0.24075 0.176,-0.47761 0.25108,-0.71978 0.0319,-0.10299 0.035,-0.2156 0.0372,-0.32456 7.4e-4,-0.0359 -0.0414,-0.0729 -0.0645,-0.10943 z"
       style="display:none;fill:#000000;fill-opacity:1;fill-rule:nonzero;stroke:none;stroke-width:0.0932564"
       id="path1"
       inkscape:label="fid body"
       sodipodi:nodetypes="ccccsccssccccsccscsscccsccccccccscccccsssssccccscccccccccccccccsccsscccccccccccccsccsccccccccccccscscccscscccscccccccccscccccscsscccccsccccccccccccscccccsccccccccccccccccccccccccccccccccccscccccccscccccccccccccssccccccccccccccccccccccccsscsccscscscccccccccccccccccccccccccscscscccccccccccsccsscccssccccccsssc" /><path
       d="m 211.99389,103.05305 c -0.0191,-0.003 -0.0383,0.003 -0.053,0.0172 -0.0677,0.0641 -0.14184,0.12521 -0.20133,0.19676 -0.0298,0.0358 -0.056,0.0745 -0.0757,0.11701 -0.0196,0.0427 -0.0324,0.0895 -0.0363,0.14218 1.3e-4,-0.001 -3e-5,-0.003 0,-0.003 -0.0335,0.021 -0.0744,0.0361 -0.0996,0.0646 -0.14738,0.16791 -0.28775,0.34182 -0.43829,0.50698 -0.0354,0.0388 -0.10098,0.0511 -0.15263,0.0755 -0.02,-0.0479 -0.0619,-0.0995 -0.0553,-0.14362 0.024,-0.16127 0.0568,-0.32244 0.10029,-0.4797 0.0211,-0.0763 0.006,-0.14383 -0.0429,-0.16373 -0.0163,-0.007 -0.0366,-0.008 -0.0603,-0.003 -0.0425,0.01 -0.0865,0.0279 -0.12715,0.0517 -0.0408,0.0238 -0.0785,0.0532 -0.10605,0.0862 -0.16868,0.20099 -0.31249,0.42232 -0.48117,0.62331 -0.17262,0.20563 -0.36645,0.3937 -0.5444,0.59532 -0.0786,0.0892 -0.13348,0.19949 -0.21297,0.28796 -0.17007,0.18921 -0.35067,0.36876 -0.52405,0.5551 -0.0982,0.10561 -0.18757,0.21957 -0.28636,0.32459 -0.11956,0.12687 -0.24197,0.25059 -0.36779,0.37125 -0.13348,0.12812 -0.25392,0.2862 -0.41284,0.36839 -0.25835,0.13341 -0.48527,0.28567 -0.68831,0.49695 -0.13432,0.13971 -0.27962,0.26945 -0.41648,0.40643 -0.0684,0.0685 -0.13503,0.13897 -0.19697,0.21328 -0.0619,0.0743 -0.11941,0.15306 -0.17009,0.2377 -0.0761,0.12715 -0.15995,0.14091 -0.29655,0.0574 -0.33282,-0.20347 -0.6484,-0.43995 -1.00812,-0.59387 -0.11983,-0.0513 -0.24466,-0.0935 -0.3765,-0.12215 v 0.001 c -0.1398,-0.0561 -0.2823,-0.1063 -0.41866,-0.16946 -0.23704,-0.10992 -0.472,-0.22623 -0.66287,-0.39999 -0.0636,-0.058 -0.12209,-0.12201 -0.17444,-0.19461 -0.14217,-0.19774 -0.26125,-0.41204 -0.40267,-0.61039 -0.1332,-0.18659 -0.27099,-0.37202 -0.42737,-0.5393 -0.1484,-0.15877 -0.2124,-0.14647 -0.35471,0.01 -0.0958,0.10519 -0.14908,0.0856 -0.22023,-0.0438 -0.13657,-0.24862 -0.28658,-0.48951 -0.43319,-0.73247 -0.0149,-0.0247 -0.0436,-0.0418 -0.0661,-0.0617 -0.0443,-0.0393 -0.0878,-0.0554 -0.12799,-0.0496 -0.0402,0.006 -0.0771,0.0339 -0.1076,0.0841 -0.0819,0.1348 -0.11618,0.12813 -0.20715,-0.0111 -0.10648,-0.16291 -0.2167,-0.32626 -0.34671,-0.47036 -0.0482,-0.0535 -0.18178,-0.0978 -0.23404,-0.0696 -0.14051,0.0757 -0.24258,0.0509 -0.36269,-0.0308 -0.0542,-0.037 -0.10872,-0.0424 -0.15118,-0.0222 -0.0425,0.0201 -0.0726,0.0657 -0.0785,0.13077 -0.007,0.0817 0.0183,0.16599 0.0305,0.24918 0.008,0.0536 0.0245,0.10714 0.0269,0.16087 0.0112,0.2481 0.025,0.49644 0.0255,0.74467 3.8e-4,0.19198 0.0363,0.40954 -0.0406,0.57018 -0.10633,0.22205 -0.13826,0.39216 -0.0546,0.63841 0.0537,0.15819 0.12138,0.30301 0.20495,0.43588 0.0836,0.13285 0.18306,0.25389 0.30164,0.36265 0.21308,0.19548 0.45508,0.36037 0.68832,0.53355 0.0962,0.0714 0.20841,0.12229 0.30454,0.19389 0.0934,0.0695 0.18173,0.14687 0.27184,0.22118 0.0902,0.0743 0.18207,0.14559 0.28201,0.20323 0.28664,0.16514 0.59491,0.294 0.89474,0.43661 0.13896,0.066 0.28791,0.11395 0.40994,0.20752 0.96236,0.47533 1.75406,0.74137 2.36711,0.1811 0.49592,1.18545 2.10825,1.45875 4.18689,0.51541 0.24149,-0.10964 0.48209,-0.31882 0.66852,-0.50353 0.35094,-0.34735 0.65696,-0.72592 0.91872,-1.14106 0.18923,-0.3 0.38841,-0.59467 0.56331,-0.90268 0.1768,-0.31113 0.37215,-0.62154 0.48262,-0.95723 0.0872,-0.26497 0.18823,-0.52282 0.30091,-0.77484 0.11266,-0.25202 0.23729,-0.49878 0.3714,-0.74181 0.0553,-0.10019 0.13376,-0.18774 0.1839,-0.29011 0.0211,-0.0432 0.01,-0.11604 -0.0145,-0.16159 -0.0113,-0.0218 -0.0948,-0.0297 -0.1287,-0.0125 -0.0564,0.0295 -0.11055,0.077 -0.14536,0.12993 -0.10662,0.16304 -0.3245,0.23247 -0.50878,0.15153 -0.0554,-0.0243 -0.0886,-0.0646 -0.0952,-0.12493 -0.007,-0.0603 0.0141,-0.14039 0.0654,-0.24559 0.1069,-0.21728 0.24582,-0.41919 0.36415,-0.63121 0.0224,-0.04 0.0141,-0.0974 0.0188,-0.14649 -0.0571,-0.006 -0.12067,-0.0282 -0.16934,-0.0111 -0.0449,0.016 -0.0714,0.0784 -0.11041,0.11562 -0.0754,0.0718 -0.14826,0.14771 -0.22314,0.22046 -0.0748,0.0727 -0.15175,0.1424 -0.23623,0.20179 -0.0669,0.0471 -0.13165,0.0471 -0.17517,0.0152 -0.0217,-0.016 -0.0382,-0.04 -0.0473,-0.0703 -0.008,-0.0304 -0.01,-0.0674 -0.003,-0.10839 0.0248,-0.12465 0.0909,-0.24067 0.13742,-0.36121 0.034,-0.088 0.0788,-0.17448 0.0952,-0.26571 0.004,-0.0238 8.2e-4,-0.0471 -0.008,-0.0682 -0.01,-0.0211 -0.0248,-0.04 -0.0422,-0.0539 -0.0173,-0.0139 -0.0368,-0.0231 -0.056,-0.0252 z"
       style="display:inline;fill:#000000;fill-opacity:1;fill-rule:nonzero;stroke:none;stroke-width:0.126068"
       id="path1-6"
       sodipodi:nodetypes="ccsccccsccsccccsccccccssssssccccccsccsccsscccccccssssssccccccscccsssccccsccccccsccccsccccc"
       inkscape:label="fid wing" /></g></svg>
