<?xml version="1.0" encoding="UTF-8" standalone="no"?>
<!-- Created with Inkscape (http://www.inkscape.org/) -->

<svg
   width="17.871248mm"
   height="25.666233mm"
   viewBox="0 0 17.871249 25.666233"
   version="1.1"
   id="svg1095"
   inkscape:version="1.2.1 (9c6d41e4, 2022-07-14)"
   sodipodi:docname="birds-all.svg"
   inkscape:export-filename="birds/banjo-wings.svg"
   inkscape:export-xdpi="96"
   inkscape:export-ydpi="96"
   xmlns:inkscape="http://www.inkscape.org/namespaces/inkscape"
   xmlns:sodipodi="http://sodipodi.sourceforge.net/DTD/sodipodi-0.dtd"
   xmlns="http://www.w3.org/2000/svg"
   xmlns:svg="http://www.w3.org/2000/svg">
  <sodipodi:namedview
     id="namedview1097"
     pagecolor="#ffffff"
     bordercolor="#000000"
     borderopacity="0.25"
     inkscape:showpageshadow="2"
     inkscape:pageopacity="0.0"
     inkscape:pagecheckerboard="0"
     inkscape:deskcolor="#d1d1d1"
     inkscape:document-units="mm"
     showgrid="false"
     inkscape:zoom="1.1438552"
     inkscape:cx="193.20627"
     inkscape:cy="81.303996"
     inkscape:window-width="1390"
     inkscape:window-height="792"
     inkscape:window-x="29"
     inkscape:window-y="65"
     inkscape:window-maximized="0"
     inkscape:current-layer="layer1" />
  <defs
     id="defs1092" />
  <g
     inkscape:label="Layer 1"
     inkscape:groupmode="layer"
     id="layer1"
     transform="translate(-1.3567232,-85.389079)">
    <path
       id="path2777-8"
       style="display:none;fill:#800000;fill-opacity:1;fill-rule:nonzero;stroke:none;stroke-width:0.144883"
       d="m 172.9419,79.958944 c -0.3751,0.201651 -0.74991,0.402962 -1.125,0.604614 4e-5,-0.06553 -0.002,-0.131554 0.005,-0.196371 0.007,-0.06429 0.0257,-0.127146 0.0393,-0.190686 -0.0653,0.01248 -0.14753,0.0033 -0.19276,0.04031 -0.26426,0.215834 -0.5037,0.465896 -0.78289,0.658875 -0.27368,0.189261 -0.59091,0.457913 -0.87747,0.444417 -0.28016,-0.01306 -0.452,0.07729 -0.65681,0.186552 -0.25625,0.136589 -0.50387,0.294146 -0.77049,0.40566 -0.58539,0.24474 -1.17867,0.470434 -1.77199,0.696081 -0.81302,0.309168 -1.52761,0.737691 -2.09134,1.433505 -0.613,0.756691 -1.34973,1.025237 -2.37505,1.098124 -0.11885,0.0081 -0.65775,0.133898 -0.75551,0.196887 -0.19989,0.12877 -0.057,0.441394 -0.17777,0.630969 -0.34397,0.540516 -0.82783,0.777692 -1.43609,0.910022 -0.46991,0.102065 -0.95543,0.275022 -1.35288,0.538985 -0.73026,0.484957 -1.40303,1.056708 -2.09497,1.598869 -0.67188,0.526361 -1.34513,1.051337 -2.00246,1.595768 -0.29423,0.243669 -0.55128,0.532736 -0.82424,0.802019 -0.0292,0.02883 -0.0514,0.06411 -0.077,0.09663 0.0443,0.01552 0.0899,0.0476 0.13178,0.04289 0.0703,-0.0079 0.13693,-0.04519 0.20722,-0.05943 0.0864,-0.01745 0.17484,-0.02338 0.26252,-0.03462 -0.0477,0.07984 -0.1038,0.155852 -0.1416,0.240295 -0.10295,0.230279 -0.0528,0.286002 0.22893,0.262 0.0865,-0.0076 0.24509,-0.0382 0.24805,-0.02687 0.14925,0.587212 0.48114,0.206081 0.6165,0.06098 0.35305,-0.378625 0.8651,-0.411929 1.26555,-0.677478 0.23822,-0.157843 0.52577,-0.268586 0.80667,-0.328662 1.01483,-0.217011 1.94104,-0.628045 2.80242,-1.198893 0.0785,-0.05217 0.17084,-0.111842 0.25941,-0.116272 0.56119,-0.02731 1.01606,-0.319369 1.49035,-0.571025 0.60157,-0.319107 1.20742,-0.62978 1.81694,-0.933276 0.27452,-0.136661 0.41044,-0.06309 0.41703,0.244946 0.005,0.290794 -0.0415,0.582727 -0.0698,0.873849 -0.0321,0.331313 0.0767,0.501909 0.3793,0.482658 0.43516,-0.0276 0.86702,-0.105848 1.3007,-0.157613 0.23833,-0.02849 0.47705,-0.0552 0.71623,-0.0708 0.0861,0.190583 0.14768,0.343536 0.11421,0.353983 -0.14953,0.0465 -0.31684,0.03299 -0.46974,0.07183 -0.0412,0.01047 -0.0869,0.123644 -0.077,0.18035 0.009,0.05155 0.0836,0.110038 0.1416,0.129708 0.0653,0.02213 0.14636,0.01617 0.21652,0.0021 0.45402,-0.09077 0.38262,-0.07846 0.52452,0.340031 0.0784,0.230939 0.1431,0.517594 0.19637,0.754993 0.22991,1.024711 0.46696,1.921861 0.69815,2.946073 0.19349,0.857209 0.42201,1.834125 0.60513,2.693376 0.0592,0.277605 0.20714,0.513424 -0.014,0.783931 -0.21716,0.26541 -0.40098,0.560017 -0.62993,0.813904 -0.53056,0.588509 -0.95545,1.249146 -1.29398,1.957508 -0.59285,1.24031 -0.49542,2.524 -0.13488,3.80493 0.0197,0.0701 0.18395,0.14571 0.27699,0.14108 0.65611,-0.0324 0.83668,0.0921 1.08779,0.68419 0.3374,0.79526 0.0536,1.48869 -0.3235,2.16421 -0.0575,0.10329 -0.23953,0.15756 -0.37465,0.19172 -0.20757,0.0525 -0.50037,-0.004 -0.61598,0.11886 -0.11712,0.1246 -0.0625,0.41142 -0.0837,0.62683 -0.002,0.0243 -0.008,0.0482 -0.0124,0.0724 -0.20685,1.06227 0.11831,2.03726 0.53072,2.98225 0.38239,0.87625 1.04994,1.5405 1.80144,2.10426 0.9972,0.74786 2.13324,1.06403 3.37809,0.94723 0.21679,-0.0201 0.42735,-0.10264 0.64388,-0.13539 0.4204,-0.0637 0.52887,0.0176 0.601,0.4253 0.0297,0.16852 0.0407,0.34097 0.0827,0.50591 0.0145,0.0568 0.0978,0.096 0.14935,0.14314 0.0346,-0.0515 0.087,-0.0987 0.0992,-0.15503 0.0148,-0.0693 -0.005,-0.14609 -0.008,-0.21962 -0.0126,-0.26788 -0.12592,-0.59836 -0.01,-0.786 0.11369,-0.18331 0.4585,-0.22868 0.70693,-0.32143 0.84623,-0.31569 1.55282,-0.83603 2.10944,-1.53531 0.97847,-1.22925 1.35884,-2.64093 1.15341,-4.20284 v -5.2e-4 c -0.13028,-0.98989 -0.47192,-1.89093 -1.09502,-2.68665 -0.16629,-0.21218 -0.27445,-0.23291 -0.46612,-0.0785 -0.32394,0.26091 -0.64445,0.1748 -0.94671,-0.0393 -0.61573,-0.43612 -0.93199,-1.06608 -1.06661,-1.78387 -0.0849,-0.45181 0.10617,-0.76835 0.53951,-0.89452 0.24989,-0.0728 0.33942,-0.19403 0.28628,-0.41186 -0.11528,-0.47253 -0.1914,-0.9704 -0.39997,-1.40146 -0.59886,-1.238521 -1.57153,-2.115967 -2.81688,-2.687693 -0.48994,-0.224926 -0.98577,-0.437589 -1.48467,-0.641822 -0.29619,-0.121113 -0.29366,-0.348962 -0.47129,-0.668693 -0.0883,-0.431503 -0.22516,-0.83595 -0.34106,-1.259871 -0.49534,-1.812219 -0.93675,-3.615337 -1.31568,-5.458582 -0.048,-0.233414 -0.25575,-0.400327 0.11368,-0.271818 0.0782,0.02715 0.20116,0.0094 0.26769,-0.03824 0.064,-0.04557 0.0989,-0.154686 0.11007,-0.240296 0.004,-0.03002 -0.10323,-0.109455 -0.15451,-0.104903 -0.14247,0.01198 -0.28105,0.07358 -0.42323,0.08217 -0.0753,0.0052 -0.18745,-0.0381 -0.22686,-0.09715 -0.10768,-0.1618 -0.11444,-0.328585 0.10387,-0.417546 0.37404,-0.152593 0.64139,-0.365154 0.53175,-0.83199 -0.0119,-0.05008 0.046,-0.159658 0.0925,-0.17415 0.63707,-0.199846 0.59458,-0.820387 0.77359,-1.285709 0.12323,-0.320639 -0.10151,-0.560461 -0.4501,-0.559656 -0.24521,5.48e-4 -0.49018,0.02893 -0.73535,0.04393 -0.29404,0.01761 -0.58833,0.0395 -0.88264,0.04806 -0.0565,0.0015 -0.11436,-0.05237 -0.17156,-0.08062 0.0226,-0.04242 0.039,-0.08964 0.0692,-0.126091 0.0469,-0.05639 0.0945,-0.121588 0.15658,-0.155029 0.7295,-0.392256 1.38826,-0.888632 2.04742,-1.384412 0.31272,-0.235201 0.59161,-0.521788 0.92191,-0.72657 0.63134,-0.391322 1.14316,-0.910649 1.67949,-1.412834 0.4009,-0.375205 0.89352,-0.651843 1.34307,-0.975651 0.18435,-0.13273 0.65946,-0.162671 0.20515,-0.545186 -0.005,-0.0055 0.0767,-0.113557 0.11369,-0.176217 0.0752,-0.126543 0.004,-0.200156 -0.10594,-0.157096 -0.27105,0.106521 -0.52685,0.25131 -0.79426,0.367936 -0.0775,0.03373 -0.17391,0.02416 -0.26149,0.03462 0.041,-0.06047 0.0781,-0.124485 0.12403,-0.180867 0.21418,-0.263536 0.59386,-0.394167 0.64337,-0.789616 z m -91.931341,4.455542 c -0.08402,0.03846 -0.189147,0.05658 -0.248047,0.119372 -0.18449,0.196549 -0.340337,0.420865 -0.529166,0.612366 -0.11318,0.114483 -0.267754,0.187553 -0.403593,0.279053 -0.0265,-0.156057 -0.05718,-0.311835 -0.07648,-0.468706 -0.0058,-0.04586 0.03542,-0.09882 0.02842,-0.143143 -0.0198,-0.104213 -0.05723,-0.205265 -0.08733,-0.307475 -0.0634,0.06435 -0.156318,0.11733 -0.185518,0.19482 -0.2167,0.577232 -0.417433,1.160261 -0.630453,1.738912 -0.08951,0.24327 -0.0327,0.435717 0.164332,0.589628 0.172369,0.134693 0.346372,0.266816 0.523482,0.394808 0.29287,0.211728 0.615829,0.389808 0.876949,0.63562 0.391699,0.36879 0.748306,0.777378 1.105876,1.18184 0.335519,0.379535 0.340106,0.427646 -0.101803,0.730188 -0.31887,0.218474 -0.464412,0.453749 -0.416512,0.858346 0.03038,0.257738 -0.0781,0.529725 -0.101803,0.797367 -0.0202,0.227289 -0.355455,0.453197 -0.08217,0.645439 0.0783,0.05508 0.397139,-0.199123 0.578259,-0.346232 0.655719,-0.532462 1.343497,-0.53328 1.971456,0.02429 0.1831,0.162564 0.354453,0.338417 0.526583,0.513147 0.856289,0.869331 0.856082,0.869929 0.05064,1.763199 -0.04926,0.05465 -0.09631,0.111292 -0.14211,0.168982 -0.237058,0.299346 -0.405666,0.604021 -0.08113,0.944129 0.268263,-0.074 0.216569,-0.258357 0.16123,-0.45992 -0.0143,-0.05187 0.04898,-0.125893 0.07648,-0.189653 0.04524,0.04422 0.118041,0.08189 0.130741,0.133842 0.08793,0.380774 0.173062,0.762582 0.239262,1.147734 0.0283,0.165326 -0.07008,0.201359 -0.222208,0.155029 -0.20761,-0.06333 -0.363457,0.0094 -0.300757,0.246496 0.05961,0.22642 0.221202,0.206104 0.397392,0.08682 0.05535,-0.03749 0.219227,-0.02438 0.235127,0.01085 0.1786,0.400014 0.572042,0.649077 0.660942,1.128613 0.15733,0.848732 0.389888,1.683939 0.605648,2.520773 0.345049,1.33785 0.703773,2.67198 1.053682,4.00854 0.13788,0.52708 0.11003,0.54559 -0.402559,0.74104 -0.31483,0.12004 -0.637905,0.25625 -0.906405,0.45579 -0.782649,0.5814 -1.022548,1.48003 -0.626318,2.36419 0.14815,0.33052 0.369072,0.6405 0.608231,0.91313 0.43097,0.49147 0.45189,0.96232 0.17415,1.55701 -0.28846,0.61754 -0.554455,1.28159 -0.645955,1.9513 -0.26856,1.966 1.284836,3.57939 2.779675,3.91087 2.060618,0.45677 3.909256,-0.008 5.456514,-1.50533 1.482739,-1.43465 1.575522,-3.95575 -5.16e-4,-5.33249 -0.38463,-0.33588 -0.800578,-0.63845 -1.222148,-0.92604 -0.45079,-0.30775 -0.675537,-0.68013 -0.548287,-1.25057 0.0684,-0.30963 0.07149,-0.63538 0.09509,-0.95447 0.04132,-0.55431 -0.159967,-0.99872 -0.561206,-1.38079 -0.63854,-0.60787 -1.3836,-0.65679 -2.180229,-0.49145 -0.549609,0.11399 -0.56747,0.12567 -0.72347,-0.39532 -0.629769,-2.103 -1.223297,-4.217847 -1.885156,-6.310206 -0.1582,-0.502839 -0.02871,-0.967785 -0.06511,-1.448491 -0.01288,-0.170395 0.102,-0.18868 0.24288,-0.14366 0.261739,0.08349 0.319884,-0.101914 0.270784,-0.279053 -0.05372,-0.193599 -0.202535,-0.253356 -0.398425,-0.111621 -0.06265,0.04538 -0.186137,0.004 -0.281637,0.0021 0.0156,-0.112826 0.03091,-0.22565 0.04651,-0.338481 0.07169,0.01173 0.169606,0.05862 0.209806,0.02791 0.09408,-0.07169 0.160112,-0.180562 0.237712,-0.274402 -0.09795,-0.04803 -0.193149,-0.104623 -0.295589,-0.138493 -0.03293,-0.01086 -0.08716,0.03595 -0.128158,0.06201 -0.18487,0.11696 -0.276558,0.01158 -0.310058,-0.153479 -0.0426,-0.208654 0.06087,-0.248962 0.251147,-0.205672 0.22052,0.05019 0.338969,-0.07663 0.27957,-0.285771 -0.01668,-0.05848 -0.27093,-0.126448 -0.33383,-0.07855 -0.23683,0.180848 -0.354468,-0.0051 -0.498678,-0.11989 -0.16553,-0.131533 -0.14856,-0.279711 -0.05426,-0.456819 0.0589,-0.110582 0.09718,-0.253668 0.08578,-0.377238 -0.04368,-0.498062 0.141495,-0.675438 0.553454,-0.436149 0.995329,0.577984 2.026108,0.364224 3.014287,0.101802 0.637699,-0.169387 1.210402,-0.593728 1.806091,-0.915706 0.06866,-0.03721 0.09759,-0.150637 0.144694,-0.228927 -0.07964,-0.03346 -0.157162,-0.08805 -0.239262,-0.09715 -0.893339,-0.09929 -1.787551,-0.191491 -2.68149,-0.285771 -0.20147,-0.02129 -0.422465,-0.06007 -0.430465,-0.309025 -0.01304,-0.416698 -0.271665,-0.666969 -0.521415,-0.939478 -0.359239,-0.39206 -0.353275,-0.420809 0.127124,-0.663525 0.66107,-0.333942 1.292151,-0.693358 1.62264,-1.420585 0.1116,-0.245613 0.255958,-0.479006 0.409278,-0.700733 0.123089,-0.177756 0.253618,-0.382197 0.431498,-0.482658 0.592849,-0.334874 1.20734,-0.630948 1.81591,-0.936893 0.479319,-0.240899 0.966665,-0.466164 1.439705,-0.719336 0.08311,-0.04443 0.144479,-0.189322 0.153479,-0.293006 0.0041,-0.04919 -0.135241,-0.151713 -0.217041,-0.160713 -0.33502,-0.03679 -0.680901,-0.10324 -1.00769,-0.05426 -0.55181,0.08259 -1.088114,0.266666 -1.638143,0.366903 -0.54572,0.09942 -1.099076,0.175666 -1.652096,0.209806 -0.411449,0.02531 -0.744948,0.128009 -1.030428,0.453203 -0.550279,0.626714 -1.122859,1.233876 -1.701188,1.834513 -0.54008,0.560932 -0.596164,0.558353 -1.321883,0.222209 -0.17672,-0.08183 -0.368096,-0.130658 -0.543636,-0.214457 -0.12943,-0.0619 -0.3259,-0.13535 -0.3514,-0.239262 -0.12216,-0.49786 -0.498469,-0.538731 -0.891419,-0.587561 -0.231829,-0.02892 -0.394729,-0.105278 -0.174149,-0.370004 0.21963,-0.263206 0.05294,-0.367578 -0.185518,-0.346748 -0.28739,0.02519 -0.568412,0.120006 -0.854212,0.173116 -0.06453,0.01207 -0.19137,-0.01243 -0.19637,-0.03824 -0.0157,-0.0817 -0.01035,-0.185518 0.02945,-0.255798 0.05954,-0.105045 0.174194,-0.178442 0.230994,-0.284221 0.06439,-0.119818 0.09094,-0.260643 0.133842,-0.392224 -0.13194,0.01005 -0.264182,0.01868 -0.395842,0.03152 -0.0223,0.0022 -0.04148,0.02702 -0.06408,0.03462 -0.13207,0.0438 -0.264812,0.08566 -0.397392,0.128158 0.04032,-0.129825 0.07932,-0.260332 0.120923,-0.389641 0.0226,-0.07039 0.06946,-0.139613 0.06925,-0.208773 -0.0018,-0.10942 -0.03488,-0.218061 -0.05478,-0.327111 z m 2.739885,10.925948 c -0.0027,7.5e-4 -0.005,0.0019 -0.0078,0.0026 l 0.02222,0.01344 c -0.0054,-0.0054 -0.0094,-0.01067 -0.01447,-0.01602 z M 34.340023,85.029435 c -0.03732,-6.03e-4 -0.07507,-5.2e-5 -0.113172,0.0016 -0.609669,0.0255 -1.031584,0.347075 -1.150834,0.398942 -0.19646,0.08563 -0.389145,0.18059 -0.591695,0.251147 -0.0695,0.02434 -0.112233,0.06423 -0.140043,0.129708 -0.0291,0.06839 -0.02656,0.08006 0.04134,0.112654 0.0238,0.01145 0.04823,0.01776 0.07493,0.01964 0.17559,0.01275 0.341844,0.06294 0.499194,0.139009 0.30005,0.145172 0.57305,0.337005 0.86093,0.503329 0.0904,0.05216 0.09999,0.110398 0.03669,0.193269 -0.0615,0.08027 -0.129127,0.156046 -0.195337,0.232544 -0.18573,0.215005 -0.361479,0.437027 -0.503328,0.684196 -0.11417,0.199068 -0.197857,0.412289 -0.283187,0.624252 -0.15546,0.38669 -0.29881,0.778004 -0.436149,1.171504 -0.0818,0.23442 -0.182685,0.46333 -0.181385,0.719336 1.5e-4,0.04086 0.0041,0.07149 0.03617,0.09974 0.0717,0.06331 0.0998,0.144962 0.0987,0.240295 -6.8e-4,0.05593 -0.01082,0.109547 -0.02222,0.163298 -0.0268,0.127497 -0.05488,0.254475 -0.07958,0.382405 -0.0142,0.07229 -0.0083,0.07643 0.06356,0.05064 0.0569,-0.02057 0.112303,-0.048 0.170532,-0.06408 0.10273,-0.02825 0.153671,-0.0053 0.213941,0.08165 0.0204,0.02912 0.03217,0.0595 0.03927,0.09457 0.01,0.04795 0.02079,0.09606 0.04599,0.139527 0.0273,0.04723 0.06622,0.06971 0.121956,0.06666 0.0562,-0.0031 0.109074,-0.01812 0.157614,-0.04392 0.0727,-0.03869 0.130365,-0.02412 0.187585,0.03152 0.0706,0.06839 0.145218,0.13316 0.219108,0.19792 0.0503,0.04419 0.06821,0.04381 0.118856,-0.0015 0.0345,-0.03071 0.06573,-0.064 0.08733,-0.106453 0.0236,-0.04622 0.05137,-0.09122 0.08837,-0.128158 0.0459,-0.04593 0.09631,-0.05017 0.149345,-0.01395 0.0265,0.01811 0.04393,0.04428 0.06253,0.0708 0.0414,0.05897 0.07334,0.125634 0.127641,0.175183 0.0748,0.0681 0.148885,0.0597 0.202055,-0.02635 0.0288,-0.04666 0.05261,-0.09649 0.07441,-0.146761 0.0508,-0.116486 0.09626,-0.234978 0.148311,-0.350883 0.0777,-0.172989 0.184954,-0.313804 0.371554,-0.390157 0.231679,-0.0949 0.431875,-0.245281 0.625285,-0.402042 0.179949,-0.145752 0.347173,-0.3054 0.509012,-0.471289 0.1272,-0.130249 0.256559,-0.258994 0.396359,-0.376205 0.0456,-0.03811 0.042,-0.03683 0.0801,0.01344 0.0347,0.04564 0.06746,0.09548 0.116272,0.127641 0.0422,0.02767 0.07294,0.06187 0.09974,0.104903 0.0493,0.07896 0.116881,0.123516 0.218591,0.100769 0.084,-0.01869 0.119742,-0.0031 0.154512,0.08061 0.0655,0.157776 0.161788,0.300607 0.217558,0.463021 0.03,0.08736 0.06878,0.172038 0.111105,0.254765 0.0774,0.151837 0.151978,0.305495 0.220658,0.460954 0.0958,0.216598 0.186454,0.436356 0.266134,0.659908 0.0777,0.218192 0.173202,0.429144 0.243912,0.650089 0.0157,0.04882 0.02,0.09507 0.0031,0.144177 -0.0103,0.02985 -0.02619,0.06077 -0.01809,0.0925 0.0275,0.108081 0.02563,0.222613 0.08113,0.325045 0.0341,0.06288 0.0567,0.132947 0.077,0.202055 0.0353,0.119673 0.07316,0.237777 0.137459,0.345715 0.0209,0.03507 0.03586,0.07237 0.04496,0.112655 0.009,0.0394 0.01699,0.07977 0.03359,0.116272 0.13909,0.302515 0.25904,0.613579 0.38654,0.920874 0.18284,0.441311 0.366423,0.881954 0.542603,1.326017 0.21124,0.532878 0.426531,1.064484 0.641821,1.595768 0.0232,0.05723 0.01251,0.0982 -0.02739,0.141077 -0.0345,0.03694 -0.08277,0.05463 -0.116789,0.0894 -0.11808,0.120253 -0.256973,0.215721 -0.384473,0.324528 -0.29425,0.251371 -0.559904,0.526956 -0.762744,0.859896 -0.22254,0.365104 -0.372274,0.757984 -0.460954,1.174086 -0.0897,0.42059 -0.124334,0.84589 -0.09043,1.27692 0.0373,0.47593 0.156045,0.92796 0.355534,1.36116 0.17343,0.37626 0.396235,0.71946 0.676445,1.02371 0.16675,0.18081 0.35198,0.3422 0.54932,0.49041 0.31714,0.23848 0.658986,0.4283 1.032495,0.56276 0.0496,0.0178 0.10902,0.0248 0.13901,0.0801 0.005,0.0113 0.02131,0.01 0.03101,0.003 0.0284,-0.0223 0.05496,-0.006 0.08216,10e-4 0.22094,0.0609 0.444995,0.10767 0.673344,0.12868 0.19254,0.0177 0.3848,0.028 0.57981,0.0165 0.24948,-0.0145 0.49613,-0.0408 0.737939,-0.0997 0.63575,-0.15488 1.198784,-0.45246 1.692403,-0.8816 0.0566,-0.0493 0.106406,-0.11019 0.170016,-0.14728 0.0712,-0.0413 0.09783,-0.11533 0.152445,-0.16691 0.095,-0.0898 0.177218,-0.19152 0.252698,-0.29714 0.12432,-0.17386 0.23965,-0.35294 0.33383,-0.54622 0.13604,-0.27919 0.254015,-0.56461 0.326595,-0.86713 0.0992,-0.41349 0.138521,-0.83229 0.113171,-1.25781 -0.023,-0.38756 -0.102317,-0.76283 -0.233577,-1.127059 -0.13417,-0.372492 -0.322417,-0.71726 -0.548287,-1.041796 -0.11764,-0.168933 -0.247719,-0.328194 -0.401009,-0.466122 -0.21529,-0.193707 -0.442294,-0.372949 -0.690914,-0.523482 -0.37148,-0.225002 -0.763252,-0.400718 -1.188041,-0.497644 -0.40046,-0.09128 -0.805937,-0.120076 -1.215947,-0.08733 -0.17329,0.01391 -0.345891,0.02766 -0.517281,0.05736 -0.0656,0.0113 -0.112144,-0.0074 -0.143144,-0.06873 -0.0261,-0.05143 -0.05752,-0.100018 -0.08062,-0.153479 -0.13546,-0.316423 -0.277197,-0.630328 -0.407727,-0.948779 -0.23399,-0.570112 -0.505673,-1.123245 -0.740523,-1.69292 -0.10475,-0.25398 -0.22202,-0.502961 -0.33228,-0.754476 -0.225429,-0.514332 -0.449894,-1.028727 -0.674894,-1.543059 -0.20284,-0.464056 -0.407712,-0.927091 -0.608231,-1.392163 -0.17067,-0.395818 -0.29308,-0.804762 -0.31626,-1.238684 -0.003,-0.04999 0.003,-0.08535 0.05064,-0.116788 0.11634,-0.07722 0.121913,-0.131243 0.03462,-0.238746 -0.0382,-0.04723 -0.05381,-0.09636 -0.04961,-0.15968 0.0121,-0.19081 -0.06678,-0.336397 -0.236678,-0.428397 -0.0411,-0.02231 -0.08206,-0.04325 -0.110588,-0.08165 -0.0475,-0.0636 -0.04185,-0.105065 0.02015,-0.156063 0.0178,-0.01463 0.03693,-0.02821 0.05323,-0.04444 0.151549,-0.150097 0.334571,-0.246749 0.536401,-0.306441 0.31411,-0.09301 0.630459,-0.07342 0.944128,0.0031 0.22804,0.05564 0.456821,0.106753 0.68833,0.145727 0.32266,0.05433 0.648054,0.09331 0.967383,0.166915 0.31743,0.07316 0.623535,0.176305 0.903304,0.347266 0.0307,0.01883 0.06397,0.0276 0.09767,0.03411 0.11505,0.02173 0.230602,0.0075 0.346232,0.0031 0.0256,-0.0011 0.04677,-0.01036 0.03927,-0.04237 -0.0235,-0.09954 -0.04916,-0.195595 -0.150379,-0.251664 -0.0859,-0.04752 -0.166423,-0.104606 -0.248563,-0.158647 -0.36946,-0.243257 -0.762878,-0.436196 -1.183907,-0.574125 -0.2363,-0.07737 -0.473126,-0.157038 -0.697115,-0.266134 -0.37742,-0.183856 -0.736217,-0.400889 -1.094507,-0.619083 -0.29644,-0.180667 -0.591934,-0.363156 -0.898653,-0.526583 -0.41494,-0.221236 -0.845655,-0.405023 -1.294495,-0.545703 -0.452189,-0.141696 -0.914236,-0.232226 -1.386995,-0.269751 -0.05522,-0.0043 -0.517077,-0.246228 -1.076937,-0.255282 z m -42.1106081,0.0036 c -0.019528,-0.0022 -0.038609,0.003 -0.053744,0.01757 -0.1380889,0.132393 -0.3035921,0.253405 -0.3198771,0.471289 l -0.00155,0.0093 c 0,0 0.00155,-0.01171 0.00155,-0.01188 -0.03419,0.02165 -0.076151,0.03651 -0.1018026,0.06615 -0.1504589,0.173589 -0.2939531,0.353856 -0.4475179,0.524515 -0.03615,0.04006 -0.1029951,0.05227 -0.1555461,0.07752 -0.02034,-0.04967 -0.063444,-0.102721 -0.056844,-0.148311 0.02446,-0.166752 0.058366,-0.332896 0.1028361,-0.495577 0.02867,-0.105035 -0.00873,-0.195044 -0.10542,-0.172083 -0.08678,0.02035 -0.1817204,0.07456 -0.2382283,0.142627 -0.1722858,0.20779 -0.3196748,0.436261 -0.4919597,0.643889 -0.1763638,0.212507 -0.3737873,0.407188 -0.5555213,0.615466 -0.0803,0.09217 -0.136463,0.205784 -0.217558,0.297139 -0.173594,0.195575 -0.357837,0.381647 -0.534851,0.574125 -0.100101,0.109273 -0.191689,0.22641 -0.292488,0.334864 -0.121966,0.13109 -0.247207,0.259219 -0.375688,0.383956 -0.136293,0.132394 -0.258812,0.295333 -0.421163,0.380338 -0.263812,0.137928 -0.495852,0.295808 -0.703316,0.514181 -0.274222,0.288884 -0.592458,0.535784 -0.799434,0.885734 -0.0777,0.131415 -0.163264,0.145738 -0.302824,0.05943 -0.453134,-0.280202 -0.876028,-0.622108 -1.414384,-0.740007 v 0.0015 c -0.142493,-0.058 -0.287784,-0.109889 -0.426848,-0.175183 -0.322753,-0.151446 -0.641753,-0.31415 -0.855245,-0.614432 -0.14509,-0.20437 -0.266385,-0.425596 -0.410827,-0.630453 -0.135817,-0.192805 -0.276569,-0.384649 -0.436149,-0.557589 -0.151605,-0.164144 -0.217515,-0.150662 -0.362769,0.01085 -0.09772,0.108947 -0.152161,0.08836 -0.224792,-0.04547 -0.139401,-0.256804 -0.293049,-0.505957 -0.442867,-0.75706 -0.01515,-0.02557 -0.04372,-0.0434 -0.06666,-0.06408 -0.09068,-0.08125 -0.178764,-0.06792 -0.240812,0.03566 -0.08355,0.139394 -0.118695,0.132096 -0.211357,-0.01137 -0.108778,-0.168218 -0.22126,-0.33692 -0.353983,-0.485759 -0.04913,-0.05537 -0.185333,-0.100986 -0.238745,-0.07183 -0.143306,0.07816 -0.247389,0.05195 -0.370004,-0.03256 -0.110734,-0.07637 -0.222567,-0.02169 -0.234611,0.112654 -0.0075,0.08435 0.01794,0.171884 0.03049,0.257866 0.0075,0.05536 0.02499,0.110356 0.02739,0.165881 0.01136,0.256478 0.02581,0.512821 0.02635,0.769462 3.24e-4,0.198343 0.03681,0.423175 -0.04186,0.589111 -0.10862,0.229446 -0.14074,0.405548 -0.05529,0.659909 0.109756,0.327151 0.275136,0.600385 0.517281,0.825272 0.217562,0.202088 0.464559,0.372424 0.7028,0.551388 0.09837,0.07394 0.212383,0.126574 0.310575,0.200504 0.190692,0.143628 0.361306,0.319532 0.56534,0.438733 0.292628,0.17066 0.608013,0.303764 0.914156,0.451135 0.189069,0.09103 0.396128,0.148423 0.532268,0.329179 0.05963,0.07915 0.06451,0.142767 -0.01654,0.195854 -0.102911,0.06742 -0.207417,0.138317 -0.320911,0.182935 -0.31771,0.125552 -0.564329,0.341613 -0.806152,0.574641 -0.224713,0.216744 -0.342975,0.53973 -0.668176,0.659908 -0.04318,0.01596 -0.09013,0.1628 -0.06925,0.183969 0.05605,0.05683 0.150538,0.114026 0.224793,0.108003 0.297183,-0.02427 0.591976,-0.07861 0.888835,-0.109554 0.277001,-0.02899 0.560395,-0.01691 0.832507,-0.06821 0.50905,-0.09625 0.977846,0.0026 1.447974,0.19327 0.751027,0.304517 1.505431,0.603005 2.270145,0.870231 0.326823,0.114317 0.682211,0.147247 1.026294,0.20929 0.08797,0.0158 0.136219,0.0313 0.10542,0.134875 -0.06395,0.216256 -0.12244,0.433755 -0.181384,0.65164 -0.04167,0.153724 -0.121957,0.461988 -0.121957,0.461988 0,0 -0.284779,0.955553 -0.291455,1.034045 0.03646,-0.07506 0.02507,-0.08013 0.05374,-0.15813 0.14362,-0.369982 0.156101,-0.44562 0.186552,-0.499194 0.0303,-0.05358 0.07441,-0.05219 0.07441,-0.05219 0,0 0.198761,-0.03072 0.09819,0.314192 -0.09253,0.357604 -1.221277,4.095229 -1.465544,4.957319 -0.244268,0.86209 -1.401678,4.67996 -1.480013,4.9568 -0.08008,0.28351 -0.08236,0.36996 -0.258382,0.29456 -0.03679,0.003 -0.09498,-0.10265 -0.09715,-0.16485 -0.0021,-0.062 0.100252,-0.35553 0.100252,-0.35553 0,0 0.03972,-0.0937 0.08268,-0.24805 -0.03549,-0.001 -0.315743,0.83664 -0.315743,0.83664 0,0 -0.09632,0.35139 -0.04341,0.29456 0.04653,-0.0396 0.05028,-0.0753 0.07906,-0.0646 0.02511,-0.0754 0.292252,-0.0177 0.395325,-0.061 0.04318,-0.20112 0.344681,-1.14928 0.344681,-1.14928 l 2.730066,-9.023737 c 0,0 0.154947,-0.683577 0.293522,-0.827857 0.02186,-0.07816 0.05859,-0.154089 0.106971,-0.224275 0.0033,-0.0083 0.0065,-0.01649 0.0098,-0.02481 -0.0119,0.01206 -0.02176,0.02558 -0.02739,0.04186 -0.01266,0.03029 -0.01417,0.0299 -0.0036,-0.0021 0.0021,-0.0311 0.01885,-0.06876 0.02687,-0.09922 0.02088,-0.08126 0.04547,-0.156418 0.07752,-0.234094 0.03311,-0.07979 0.06986,-0.157614 0.10697,-0.235128 0.01169,-0.04152 0.02638,-0.0823 0.04651,-0.120406 0.04448,-0.0837 0.08886,-0.167309 0.132291,-0.251664 0.0225,-0.04332 0.04482,-0.08729 0.06615,-0.131258 0.01721,-0.03566 0.08482,-0.190508 0.01189,-0.01757 0.04134,-0.09836 0.08751,-0.17903 0.153479,-0.248564 0.219347,0.907526 0.437696,1.809687 0.655257,2.709395 -0.139561,0.06661 -0.26988,0.122696 -0.394291,0.189136 -0.73671,0.393267 -1.256759,1.203997 -0.862997,2.174544 0.109103,0.269016 0.237725,0.53096 0.372071,0.788578 0.09847,0.18841 0.120312,0.37854 0.07441,0.57981 -0.03679,0.16105 0.07731,0.29059 0.240295,0.26665 0.06991,-0.0102 0.140137,-0.0204 0.210323,-0.0264 0.171149,-0.0145 0.2878,0.0587 0.34985,0.22015 0.173106,0.44994 0.2210877,0.91653 0.139009,1.38699 -0.07001,0.40238 -0.282819,0.55185 -0.672827,0.51212 -0.0033,0.0715 -0.03749,0.16776 -0.0041,0.20928 0.192964,0.23971 0.190364,0.50978 0.1757,0.79427 -0.01698,0.3322 -0.03853,0.66893 -0.0031,0.99787 0.06709,0.62092 0.316597,1.16006 0.8319903,1.54926 0.4603566,0.3475 0.9932409,0.47214 1.5539103,0.51367 0.3038607,0.0226 0.6066669,0.0355 0.9043376,-0.0563 0.08007,-0.0247 0.1685286,-0.0306 0.2532145,-0.0305 0.1423219,1.6e-4 0.2740368,-0.009 0.3601848,-0.14728 0.01493,-0.0241 0.060634,-0.032 0.093534,-0.0424 0.2123458,-0.0673 0.4374096,-0.10775 0.6351034,-0.20464 0.4465155,-0.21853 0.7691991,-0.58632 1.0836547,-0.96118 0.2825308,-0.33676 0.3891907,-0.72632 0.3844727,-1.15704 -0.0043,-0.43169 -0.1426268,-0.82854 -0.3364136,-1.20406 -0.1830408,-0.35468 -0.3949873,-0.69411 -0.5916951,-1.04179 -0.06611,-0.11675 -0.1380043,-0.2439 -0.084749,-0.37776 0.058,-0.14591 -0.026924,-0.1988 -0.1235066,-0.26768 -0.1802709,0.15714 -0.3831066,0.23491 -0.5978964,0.10904 -0.1512918,-0.0889 -0.3036272,-0.2003 -0.4097941,-0.33693 -0.2568097,-0.33057 -0.4103693,-0.71284 -0.4619873,-1.13119 -0.04285,-0.346537 0.091967,-0.502728 0.4439006,-0.510056 -0.0033,-0.08957 0.1120737,-0.176576 0.00465,-0.269234 -0.1584448,-0.135974 -0.2275364,-0.304706 -0.2423624,-0.513147 -0.02294,-0.323406 -0.041981,-0.65076 -0.1100708,-0.966349 -0.1376029,-0.637696 -0.537531,-1.067519 -1.1591024,-1.256254 -0.3704646,-0.112524 -0.7601709,-0.143928 -1.1477336,-0.02635 -0.2869357,-0.912412 -0.5726638,-1.822285 -0.8604126,-2.737301 0.4093906,-0.126529 0.830842,-0.198995 1.2640056,-0.205672 0.4105246,-0.0064 0.8212983,0.04862 1.2324829,0.07338 0.2540287,0.0153 0.5046959,0.183919 0.7637777,0.01912 0.01079,-0.0067 0.029612,-3.93e-4 0.044442,10e-4 0.03646,0.0038 0.0727,0.0078 0.1090373,0.01189 -0.03419,-0.0241 -0.06613,-0.05322 -0.1033529,-0.0708 -0.0264,-0.01254 -0.059914,-0.0099 -0.090434,-0.01395 -0.03646,-0.0557 -0.062809,-0.140762 -0.1131713,-0.159163 -0.1924879,-0.07035 -0.3903719,-0.129445 -0.5906617,-0.172599 -0.3680306,-0.07882 -0.7404398,-0.137353 -1.1084594,-0.216008 -0.2097468,-0.04478 -0.4185891,-0.0928 -0.6273519,-0.142627 -3.25e-4,-0.0054 2.952e-4,-0.0115 -5.168e-4,-0.01654 -0.01861,-0.110902 -0.1617545,-0.22264 -0.2930054,-0.233061 -0.1031239,-0.0081 -0.1712435,0.02758 -0.1984375,0.129191 -0.0075,-0.0019 -0.015981,-0.0038 -0.023771,-0.0057 -0.1091029,-0.02768 -0.1894106,-0.112758 -0.2180746,-0.212907 0.05573,-0.01466 0.1120481,-0.0269 0.1731161,-0.02739 0.1240879,-0.0011 0.2497441,-0.09641 0.3684529,-0.16123 0.02165,-0.01188 0.025126,-0.08342 0.013436,-0.11989 -0.0065,-0.01955 -0.063361,-0.03497 -0.095601,-0.03204 -0.1095989,0.01034 -0.2181629,0.02954 -0.3271118,0.04599 -0.02316,0.0035 -0.04644,0.0079 -0.06873,0.01499 -0.0054,0.0018 -0.01163,0.004 -0.01757,0.0057 0.04382,-0.107474 0.094048,-0.213516 0.1591669,-0.307475 0.1547008,-0.222934 0.3103898,-0.450614 0.5007446,-0.641305 0.3582586,-0.359068 0.6705345,-0.750681 0.9379272,-1.179773 0.1931259,-0.310054 0.3960052,-0.614403 0.574642,-0.932759 0.1804328,-0.321616 0.3801392,-0.642748 0.4929931,-0.989604 0.1781499,-0.547642 0.4123563,-1.064621 0.6862631,-1.566829 0.05648,-0.103574 0.1371352,-0.194391 0.1881022,-0.30024 0.02165,-0.04461 0.00942,-0.1195 -0.014986,-0.166398 -0.01158,-0.02264 -0.096746,-0.03115 -0.1312581,-0.01292 -0.05768,0.03029 -0.1129694,0.07965 -0.1483114,0.134359 -0.1089349,0.168543 -0.3312643,0.239601 -0.5193481,0.156063 -0.1131789,-0.05032 -0.1366328,-0.16569 -0.031006,-0.382922 0.1091149,-0.224562 0.2512404,-0.433133 0.3720703,-0.652157 0.02283,-0.04136 0.01339,-0.100091 0.01912,-0.150895 -0.05843,-0.0055 -0.1232841,-0.02944 -0.1731161,-0.01137 -0.04588,0.01661 -0.072794,0.08095 -0.1126546,0.119373 -0.1540498,0.148513 -0.2960844,0.313364 -0.4687052,0.436149 -0.1369539,0.09738 -0.2628273,9.87e-4 -0.2294434,-0.168982 0.02544,-0.12881 0.093033,-0.249046 0.1405599,-0.373621 0.03473,-0.09087 0.080272,-0.180114 0.097152,-0.274402 0.013222,-0.07389 -0.05097,-0.145409 -0.109554,-0.151928 z M 131.03955,86.647424 c -0.0356,0.0055 -0.0849,0.0488 -0.093,0.08372 -0.0213,0.09287 -0.0225,0.190293 -0.0341,0.285771 -0.0519,0.427112 -0.10205,0.854444 -0.16174,1.280542 -0.005,0.04173 -0.0673,0.08862 -0.11318,0.10542 -0.0188,0.0069 -0.0863,-0.0553 -0.094,-0.09354 -0.0278,-0.139665 -0.0292,-0.284949 -0.0605,-0.423746 -0.0469,-0.207906 -0.10701,-0.413229 -0.17105,-0.6165 -0.009,-0.02855 -0.0735,-0.05861 -0.108,-0.05426 -0.0368,0.0045 -0.0875,0.0434 -0.0982,0.07803 -0.0209,0.06693 -0.022,0.140963 -0.0238,0.21239 -0.0116,0.4813 -0.0171,0.962975 -0.0367,1.44384 -0.003,0.06346 -0.0709,0.173131 -0.11679,0.177767 -0.31758,0.03217 -0.32349,0.0253 -0.30437,0.306958 0.0112,0.16618 0.0239,0.337075 0.0703,0.495577 0.2208,0.753967 0.45616,1.503755 0.68058,2.256709 0.0884,0.296863 0.1909,0.593966 0.23668,0.898653 0.10098,0.670805 0.0377,0.736812 -0.63046,0.747242 -0.42885,0.0069 -0.89035,-0.04833 -1.25212,0.192753 -0.36177,0.241084 -0.7174,0.455587 -1.13843,0.561206 -0.0405,0.01014 -0.0586,0.109479 -0.0873,0.167431 0.062,0.02753 0.13059,0.08867 0.18448,0.07752 0.35438,-0.07389 0.68131,-0.02916 1.017,0.118339 0.43145,0.189362 0.87505,0.3641 1.32911,0.484208 0.53259,0.140971 1.03294,0.344038 1.51671,0.60048 0.12662,0.06694 0.25842,0.12377 0.38447,0.19172 0.19385,0.104314 0.57741,0.0047 0.47077,0.437699 0.0437,0.01057 0.11705,0.04218 0.12661,0.02842 0.1614,-0.230218 0.13893,0.02331 0.0858,0.200505 -0.0532,0.177191 -0.071,0.265619 -0.0357,0.38964 0.0356,0.124019 0.42552,0.124401 0.63821,0.248564 0.21254,0.12402 0.6039,0.968057 0.62012,0.957047 0.32874,-0.22138 0.4703,-0.02468 0.66921,0.229444 1.13298,1.446647 2.23362,2.918787 3.36413,4.367177 0.17531,0.22471 0.23403,0.43856 0.19896,0.6966 -0.12474,-0.0956 -0.24495,-0.19733 -0.37621,-0.28267 -0.31947,-0.20747 -0.58018,-0.15831 -0.80925,0.14159 -0.3325,0.43523 -0.2808,0.84604 0.16485,1.17202 0.1911,0.13967 0.39855,0.26073 0.60978,0.36794 0.2618,0.13271 0.38211,0.34843 0.40979,0.62631 0.0143,0.14314 0.01,0.28824 0.01,0.43254 1.5e-4,0.88654 0.23525,1.71365 0.71365,2.44791 0.53897,0.82728 1.31968,1.27581 2.31459,1.34565 0.80729,0.0566 1.46355,-0.25003 2.10943,-0.71003 1.12878,-0.8038 1.79401,-2.60024 0.76636,-4.13773 h -0.001 c -0.53389,-0.79873 -1.30065,-1.23153 -2.16834,-1.54099 -0.39828,-0.14213 -0.83887,-0.2108 -1.11415,-0.59532 -0.1059,-0.14821 -0.23809,-0.13845 -0.36225,-0.0171 -0.31686,0.30933 -0.64651,0.22072 -0.98133,0.0377 -0.16474,-0.09 -0.43182,-0.22133 -0.49817,-0.25321 -0.0665,-0.0319 -0.23496,-0.18123 -0.401,-0.34727 -0.16603,-0.16603 -2.01439,-2.35515 -2.98742,-3.564635 -0.31222,-0.387994 -0.44371,-0.416109 -0.5147,-0.646472 -0.0709,-0.230363 0.0134,-0.249805 -0.0475,-0.392225 -0.37799,-0.28107 -0.60742,-0.829058 -0.7891,-0.984952 -0.0408,-0.03506 -0.0784,-0.07425 -0.1173,-0.111621 0.0451,-0.01116 0.0897,-0.02923 0.13539,-0.03256 0.76571,-0.0578 1.50271,-0.05888 2.2009,0.391708 0.45406,0.292806 0.99676,0.435478 1.55804,0.45837 0.3638,0.01492 0.64015,-0.12099 0.90021,-0.356568 0.18037,-0.163282 0.19937,-0.321408 0.0455,-0.494543 -0.25484,-0.286432 -0.49407,-0.595224 -0.786,-0.838192 -0.48347,-0.402482 -1.03339,-0.666406 -1.69188,-0.627868 -0.33308,0.01957 -0.66945,0.01602 -1.00253,-0.0052 -0.38061,-0.02434 -0.61677,-0.247769 -0.56534,-0.589111 0.10533,-0.697175 -0.14386,-1.354342 -0.17776,-2.033985 -0.005,-0.107793 -0.0708,-0.228113 -0.14263,-0.313159 -0.0904,-0.107068 -0.27588,-0.164576 -0.31109,-0.278019 -0.0425,-0.137493 0.047,-0.311219 0.045,-0.468705 -0.002,-0.114023 -0.062,-0.226607 -0.0915,-0.341065 -0.18748,-0.724555 -0.77338,-1.252966 -0.95188,-1.985925 -0.1049,-0.430446 -0.28176,-0.843545 -0.38086,-1.274858 -0.0438,-0.1911 0.0248,-0.408617 0.0424,-0.613916 -0.30382,0.01956 -0.28906,0.337826 -0.44959,0.492993 -0.0656,0.0636 -0.095,0.164348 -0.14366,0.246497 -0.0361,0.06099 -0.0763,0.119769 -0.11472,0.179317 -0.0245,-0.08722 -0.0675,-0.174056 -0.0698,-0.261999 -0.004,-0.143288 -0.0308,-0.321542 0.0393,-0.424264 0.17443,-0.255282 -0.0267,-0.459358 -0.0398,-0.685229 -0.002,-0.03651 -0.0456,-0.07059 -0.0698,-0.105937 -0.0378,0.02796 -0.0919,0.04825 -0.11007,0.08578 -0.0402,0.08418 -0.0629,0.176742 -0.092,0.266133 -0.0959,0.294112 -0.18744,0.589354 -0.29145,0.880567 -0.0142,0.03955 -0.0885,0.07527 -0.13694,0.07803 -0.029,0.0016 -0.0865,-0.06264 -0.0884,-0.09973 -0.007,-0.137928 -0.0301,-0.289537 0.0145,-0.413412 0.11881,-0.331055 -0.0574,-0.607454 -0.12764,-0.903304 -0.007,-0.02666 -0.0753,-0.05806 -0.11007,-0.05271 z m -142.808341,8.983948 c 0.05248,0 0.05248,0.08113 0,0.08113 -0.05248,0 -0.05248,-0.08113 0,-0.08113 z m 145.020601,1.095024 c 0.0163,8.91e-4 0.0322,0.0033 0.0486,0.0067 0.0326,0.0069 0.0658,0.01802 0.1018,0.02945 0.0181,0.0057 0.0366,0.01118 0.0563,0.01654 -0.027,0.01898 -0.0502,0.04099 -0.0703,0.05736 -0.0101,0.0083 -0.0194,0.01514 -0.0279,0.01964 -0.009,0.0043 -0.0168,0.0061 -0.0238,0.0046 -0.018,-0.0036 -0.0356,-0.0088 -0.0532,-0.01499 -0.0525,-0.01869 -0.10316,-0.04604 -0.15503,-0.06821 0.0207,-0.0091 0.0412,-0.02287 0.062,-0.03359 0.0207,-0.01058 0.0415,-0.01873 0.0615,-0.01757 z m -91.07764,0.492476 c 0.04285,-0.0012 0.08609,0.04302 0.131775,0.077 0.0375,0.02796 0.03302,0.05365 -0.0026,0.0832 -0.0534,0.0439 -0.115478,0.06267 -0.182418,0.06253 -0.1333,-1.45e-4 -0.264798,0.01637 -0.396358,0.03462 -0.0169,0.0023 -0.03528,0.0031 -0.05168,-5.17e-4 -0.038,-0.0086 -0.06159,-0.04973 -0.05219,-0.08682 0.0152,-0.0607 0.08268,-0.123044 0.145728,-0.129708 0.12041,-0.01275 0.241,-0.02293 0.38964,-0.03669 0.0061,-0.0022 0.01196,-0.0034 0.01809,-0.0036 z m 0.555005,0.03876 c 0.1711,0.02245 0.333033,0.0543 0.492993,0.0956 0.0545,0.0142 0.097,0.07188 0.0894,0.113171 -0.007,0.03738 -0.08267,0.08953 -0.130224,0.08475 -0.0401,-0.004 -0.08029,-0.01253 -0.119373,-0.02326 -0.10634,-0.02927 -0.214921,-0.04487 -0.324011,-0.05994 -0.0143,-0.0021 -0.02887,-0.0036 -0.04237,-0.0078 -0.0351,-0.01087 -0.09975,-0.08835 -0.09715,-0.114722 0.003,-0.03144 0.09586,-0.09018 0.130742,-0.08785 z m 0.98857,0.272852 c 0.0116,0.0035 0.03131,0.0076 0.04961,0.0155 0.12011,0.05085 0.23557,0.110359 0.348299,0.1757 0.0662,0.03825 0.06217,0.06113 0.0052,0.112138 h 10e-4 c -0.0551,0.04956 -0.104375,0.0481 -0.165365,0.0155 -0.0687,-0.03665 -0.139873,-0.06877 -0.211873,-0.09819 -0.0677,-0.02781 -0.09039,-0.086 -0.10387,-0.147278 -0.0112,-0.05158 0.0139,-0.07382 0.077,-0.07338 z m -3.678328,0.428914 c 0.0303,-0.0056 0.06208,0.0071 0.08423,0.03462 0.0315,0.03912 0.03287,0.08268 0.0021,0.117305 -0.0114,0.01289 -0.02496,0.02448 -0.03876,0.03462 -0.1162,0.08606 -0.225563,0.18037 -0.331763,0.278019 -0.0287,0.02637 -0.06083,0.04342 -0.09973,0.04703 -0.0593,0.0057 -0.0769,-0.01148 -0.0739,-0.0832 -0.005,-0.03651 0.01181,-0.07537 0.04651,-0.105937 0.1233,-0.108517 0.243089,-0.221183 0.381889,-0.310575 0.0095,-0.0061 0.01936,-0.01003 0.02946,-0.01189 z m 4.459159,0.05116 c 0.0542,0.0014 0.102197,0.02016 0.142627,0.05478 0.0791,0.06737 0.156434,0.137081 0.234094,0.206189 0.0107,0.0095 0.02004,0.02074 0.02894,0.03204 0.0304,0.03825 0.04035,0.0982 0.02015,0.118339 -0.0344,0.0339 -0.101691,0.0396 -0.142111,0.0078 -0.0566,-0.04462 -0.111831,-0.09172 -0.165881,-0.139526 -0.0433,-0.0384 -0.08617,-0.07592 -0.134359,-0.108521 -0.0434,-0.02942 -0.06048,-0.08892 -0.04548,-0.137459 0.01,-0.03159 0.03471,-0.03461 0.06201,-0.03359 z m -5.134054,0.618567 c 0.0349,-0.0014 0.0618,0.01265 0.077,0.04496 0.014,0.02942 0.02647,0.05999 0.0021,0.0894 -0.10273,0.124888 -0.191793,0.258888 -0.280603,0.393774 -0.029,0.04391 -0.06426,0.04689 -0.104386,0.01964 -0.0404,-0.02752 -0.05684,-0.10164 -0.02894,-0.147278 h 5.17e-4 c 0.0422,-0.06867 0.08502,-0.137229 0.132291,-0.202571 0.0304,-0.04187 0.06412,-0.08126 0.08992,-0.126608 0.0244,-0.04288 0.0626,-0.06681 0.112138,-0.07131 z m 5.833236,0.100252 c 0.0739,0.0069 0.127557,0.03624 0.161747,0.105937 0.0252,0.05158 0.06035,0.09878 0.09405,0.145727 0.0332,0.04622 0.06136,0.09217 0.04186,0.144178 0,0.01955 5.8e-4,0.0313 0,0.04289 -0.002,0.02839 0.0031,0.06342 -0.03307,0.07183 -0.0382,0.009 -0.0633,-0.01269 -0.0832,-0.04702 -0.0362,-0.06245 -0.077,-0.122064 -0.117305,-0.181901 -0.0323,-0.04795 -0.06684,-0.09459 -0.09974,-0.14211 -0.0166,-0.02362 -0.03297,-0.04726 -0.03307,-0.07855 0,-0.05028 0.01983,-0.06562 0.06873,-0.06098 z m -6.301941,0.659908 c 0.02114,0.0014 0.04278,0.01134 0.06201,0.02997 0.0264,0.02579 0.03009,0.05049 0.01499,0.08527 -0.054,0.124453 -0.106716,0.249431 -0.155546,0.376204 -0.0188,0.04897 -0.0508,0.06739 -0.0987,0.06666 -0.0513,-5.8e-4 -0.04284,-0.04546 -0.05374,-0.07545 -0.005,-0.01348 -0.0078,-0.02786 -0.01188,-0.04134 0.003,-0.01521 0.0048,-0.03008 0.0098,-0.04341 0.0445,-0.112718 0.08442,-0.227216 0.14056,-0.334864 0.023,-0.0441 0.05727,-0.06541 0.0925,-0.06305 z m 6.810437,0.284221 c 0.01574,0.0024 0.0268,0.02004 0.04082,0.02894 0.0384,0.02463 0.06265,0.05501 0.07235,0.101803 0.007,0.03303 0.03358,0.05999 0.05168,0.0894 0.0368,0.05998 0.05992,0.124491 0.02222,0.195331 -0.0215,0.0407 -0.04227,0.049 -0.08217,0.0279 -0.0157,-0.008 -0.02941,-0.0193 -0.03721,-0.0351 -0.0525,-0.107067 -0.07708,-0.223312 -0.114205,-0.327627 0.002,-0.03463 0.0032,-0.06352 0.02894,-0.077 0.0065,-0.0034 0.01232,-0.0044 0.01757,-0.0036 z m -7.044014,0.513664 c 0.0335,0.004 0.05179,0.025 0.04599,0.0599 -0.008,0.0427 -0.01812,0.0849 -0.02532,0.12764 -0.0137,0.0797 -0.02614,0.1598 -0.03824,0.23978 -0.005,0.0317 -0.01011,0.0629 -0.03411,0.0868 -0.0206,0.0199 -0.03913,0.048 -0.07183,0.0408 -0.0303,-0.007 -0.03181,-0.0368 -0.03721,-0.0625 -0.009,-0.039 -0.03556,-0.0732 -0.02946,-0.11679 0.0171,-0.0908 0.03248,-0.18192 0.05168,-0.27233 0.008,-0.0384 0.102423,-0.10755 0.138493,-0.10335 z m 7.283793,0.29455 c 0.03054,5.9e-4 0.07606,0.0231 0.07906,0.046 0.0133,0.10012 0.02427,0.20051 0.03617,0.30076 0.003,0.0487 -0.01466,0.0919 -0.03876,0.13126 v 5.2e-4 c -0.0245,0.0401 -0.05997,0.0402 -0.09147,0.004 -0.0197,-0.0223 -0.03006,-0.0476 -0.03256,-0.078 -0.008,-0.0949 -0.01391,-0.19019 -0.02791,-0.28422 -0.008,-0.053 0.02559,-0.0809 0.05219,-0.11266 0.0046,-0.005 0.01308,-0.008 0.02325,-0.008 z m -53.449451,0.31575 c 0.062316,-0.003 0.1243592,0.0168 0.1793173,0.0568 0.1281568,0.0931 0.2210036,0.21715 0.2924886,0.35915 0.0422,0.0839 0.072582,0.17272 0.1178222,0.25528 0.02381,0.043 0.039681,0.0911 0.055811,0.13798 0.01287,0.0366 0.027278,0.0685 0.075448,0.0661 -0.01266,0.0262 -0.018962,0.0475 -0.00775,0.0713 0.0087,0.0187 0.014958,0.0394 0.022738,0.0589 0.05162,0.12832 0.1001039,0.2581 0.1560629,0.38447 0.06796,0.15356 0.1531966,0.29655 0.2883544,0.40256 0.07185,0.0563 0.1507947,0.0921 0.2444296,0.0729 0.03094,-0.079 0.031081,-0.11151 0.0031,-0.17208 -0.0883,-8.5e-4 -0.1440506,-0.0542 -0.1477946,-0.14107 -0.0021,-0.0571 0.024894,-0.10453 0.071313,-0.12765 0.05736,-0.0283 0.099612,-0.0112 0.1431438,0.0289 0.1160998,0.10682 0.116422,0.32863 0.00413,0.44132 -0.03549,0.0357 -0.081378,0.046 -0.1281576,0.0506 -0.1654568,0.0161 -0.2996674,-0.0508 -0.4180623,-0.15968 -0.07834,-0.072 -0.130046,-0.1616 -0.1777669,-0.25425 -0.06547,-0.12751 -0.1348048,-0.25375 -0.1782837,-0.39119 -0.0098,-0.03 -0.029175,-0.0408 -0.063045,-0.0434 0.0277,-0.027 0.03083,-0.0542 0.01602,-0.0863 -0.05865,-0.12816 -0.1051067,-0.26121 -0.1674316,-0.38758 -0.03809,-0.0772 -0.072315,-0.15612 -0.107487,-0.23461 -0.04545,-0.10079 -0.1031145,-0.1933 -0.1855184,-0.2682 -0.0435,-0.0394 -0.059256,-0.0449 -0.1312581,-0.0527 -0.02813,0.0326 -0.066105,0.0619 -0.059945,0.11007 0.0119,0.0199 0.026757,0.0157 0.038757,0.0191 0.0607,0.0168 0.090294,0.0565 0.088883,0.11989 -0.0011,0.0565 -0.031245,0.0997 -0.079065,0.11369 -0.05941,0.0174 -0.1213631,-0.002 -0.146761,-0.0558 -0.07316,-0.15649 -0.055623,-0.26993 0.089917,-0.34468 0.035831,-0.0185 0.073198,-0.0283 0.1105875,-0.03 z m 46.074707,0.24494 c 0.02108,0.003 0.03723,0.0215 0.04031,0.0537 0.005,0.0456 5.16e-4,0.0919 5.16e-4,0.12868 0.01,0.0979 0.0091,0.18757 0.02325,0.27595 0.005,0.0307 0.0072,0.0605 -0.02325,0.0863 -0.053,0.0456 -0.06427,0.0466 -0.111104,-0.005 -0.0218,-0.0241 -0.04081,-0.0494 -0.04341,-0.0822 -0.009,-0.1033 -0.01975,-0.2067 -0.01705,-0.31058 6.8e-4,-0.039 0.07289,-0.13258 0.10852,-0.14417 0.0078,-0.003 0.0152,-0.004 0.02222,-0.003 z m 7.401615,0.23099 c 0.0247,0.004 0.02221,0.0314 0.02791,0.0496 0.0201,0.0663 0.03493,0.13363 0.04393,0.20361 -0.0112,0.0736 -0.02239,0.14789 -0.03359,0.22221 -0.01,0.0633 -0.0767,0.0831 -0.101803,0.13539 -0.005,0.011 -0.02175,0.005 -0.02946,-0.004 -0.0253,-0.031 -0.05117,-0.058 -0.04237,-0.10697 0.0239,-0.13388 0.04456,-0.26835 0.05426,-0.40411 0.002,-0.0236 0.0049,-0.0463 0.02222,-0.0646 0.0161,-0.0174 0.03391,-0.0355 0.05891,-0.031 z m -55.2653601,0.0289 c 0.032212,-0.002 0.063898,0.003 0.093534,0.0155 0.05746,0.0244 0.1037644,0.0575 0.1219564,0.12247 0.01169,0.0422 0.036189,0.0807 0.028939,0.12764 -0.0098,0.0625 -0.048117,0.10288 -0.1116211,0.11266 -0.05421,0.008 -0.1061379,-0.0228 -0.1297079,-0.078 -0.02381,-0.0562 -0.010834,-0.0959 0.047026,-0.14004 0.0021,-0.002 0.00358,-0.004 0.00568,-0.007 0.0033,-0.0572 -0.043075,-0.0661 -0.080615,-0.0796 -0.03668,-0.013 -0.057341,0.0146 -0.076481,0.0403 -0.01904,0.0256 -0.031084,0.0546 -0.040824,0.0847 -0.03484,0.10894 -0.032021,0.22042 -0.025321,0.33279 0.0075,0.13011 0.026746,0.25902 0.034107,0.38913 0.0054,0.0936 0.026034,0.18574 0.037724,0.27905 0.0033,0.0249 0.021054,0.0341 0.037724,0.0481 -0.0033,0.0207 -0.0249,0.0329 -0.02067,0.061 0.02413,0.15975 0.029222,0.32093 0.029972,0.48214 0.001,0.17327 -0.03191,0.3363 -0.1467611,0.47439 -0.06201,0.0746 -0.142814,0.12052 -0.2325439,0.15244 -0.0249,0.009 -0.050908,0.006 -0.076998,-0.002 -0.1853248,-0.0581 -0.2412503,-0.2464 -0.2191083,-0.37879 0.0098,-0.0585 0.067469,-0.1114 0.1152387,-0.11059 0.06526,0.001 0.1265215,0.0452 0.1369425,0.10749 0.0098,0.0588 0.018413,0.11983 -0.053227,0.15451 -0.02327,0.0111 -0.027539,0.0372 -0.012919,0.0615 0.01353,0.0221 0.025728,0.0454 0.041858,0.0656 0.02738,0.034 0.042755,0.0366 0.080615,0.0155 0.06926,-0.0384 0.114286,-0.0982 0.142627,-0.17053 0.04221,-0.1083 0.056014,-0.2223 0.053744,-0.33693 -0.0043,-0.20649 -0.032449,-0.4109 -0.062529,-0.61495 -0.0043,-0.0278 -0.016452,-0.0472 -0.045992,-0.0651 0.0303,-0.0174 0.044384,-0.0313 0.040824,-0.0605 -0.0087,-0.0723 -0.014621,-0.14528 -0.02067,-0.21807 -0.01256,-0.1503 -0.033669,-0.30004 -0.00982,-0.45165 0.01471,-0.0909 0.040465,-0.17754 0.080615,-0.25994 0.041632,-0.0852 0.1400426,-0.14847 0.236678,-0.15348 z m 47.9092201,0.54416 c 0.0351,-0.005 0.07387,0.0234 0.08527,0.0708 0.0254,0.10635 0.05543,0.21114 0.08733,0.31575 0.003,0.0109 0.0047,0.0223 0.0067,0.03 -5.78e-4,0.0263 -0.05686,0.10981 -0.07442,0.1142 h -5.16e-4 c -0.02278,0.004 -0.0868,-0.0415 -0.09663,-0.0729 -0.0223,-0.0714 -0.04265,-0.14334 -0.06305,-0.21549 -0.009,-0.0304 -0.01469,-0.0617 -0.02119,-0.0925 -0.004,-0.0169 -0.0088,-0.0342 -0.0088,-0.0512 2.9e-4,-0.0367 0.05087,-0.0934 0.08527,-0.0987 z m 7.174756,0.44183 c 0.0551,-0.001 0.05976,0.002 0.05736,0.0713 v 5.2e-4 c -0.009,0.0542 -0.03511,0.1176 -0.06511,0.17932 -0.025,0.0513 -0.0608,0.0972 -0.0832,0.15038 -0.0239,0.0562 -0.0842,0.054 -0.129708,0.0749 -0.0155,0.007 -0.02369,-0.012 -0.02739,-0.0258 -0.008,-0.0297 0.0038,-0.0573 0.01447,-0.0837 0.0388,-0.0927 0.07808,-0.18579 0.119372,-0.2775 0.0219,-0.0488 0.053,-0.0876 0.114205,-0.0894 z m -6.922575,0.36535 c 0.01491,-6.2e-4 0.03049,0.004 0.04599,0.009 0.028,0.009 0.0533,0.0231 0.0677,0.0506 0.0627,0.12011 0.138803,0.23281 0.189653,0.35915 0.005,0.0104 0.0083,0.0212 0.01033,0.0264 -5.9e-4,0.0397 -0.0424,0.0956 -0.077,0.10438 l -5.16e-4,-5.1e-4 c -0.0411,0.0106 -0.06585,-0.016 -0.08475,-0.0455 -0.0593,-0.0921 -0.11182,-0.18835 -0.16123,-0.28629 -0.0168,-0.0335 -0.03223,-0.0677 -0.05013,-0.10077 -0.0203,-0.0374 -0.0037,-0.0673 0.0186,-0.0951 0.01235,-0.0151 0.02643,-0.0206 0.04134,-0.0212 z m 6.520533,0.39998 c 0.0071,1.7e-4 0.01425,0.002 0.0217,0.005 0.0273,0.0113 0.01787,0.0393 0.02067,0.061 6.8e-4,0.009 0,0.0174 0,0.017 0.009,0.0969 -0.0372,0.164 -0.0863,0.22789 -0.0261,0.0339 -0.06127,0.0634 -0.07906,0.10181 -0.0382,0.0826 -0.114387,0.0524 -0.174667,0.063 -0.0345,0.006 -0.05105,-0.0674 -0.02015,-0.10594 0.0378,-0.0472 0.07483,-0.0948 0.110588,-0.14366 0.0373,-0.051 0.07557,-0.10132 0.111621,-0.15347 0.0114,-0.0165 0.02354,-0.0332 0.03824,-0.0465 0.01658,-0.0149 0.0361,-0.0264 0.05736,-0.0258 z m -6.122624,0.30282 c 0.005,-7.2e-4 0.01055,-6.6e-4 0.01602,10e-4 0.0671,0.0206 0.139838,0.0259 0.187068,0.0941 0.0406,0.0587 0.09348,0.10901 0.14211,0.16174 0.0256,0.0277 0.03481,0.0575 0.02791,0.0946 h 5.16e-4 c -0.008,0.0433 -0.0309,0.0671 -0.077,0.0631 -0.0358,-8.9e-4 -0.06799,-0.0116 -0.09508,-0.0357 -0.0735,-0.0652 -0.138236,-0.13735 -0.190686,-0.22066 -0.0238,-0.0378 -0.02062,-0.0833 -0.03152,-0.12454 -0.0053,-0.0193 0.0057,-0.0314 0.02067,-0.0336 z m 98.823946,0.43718 c -0.002,0.0206 -0.002,0.0418 -0.003,0.0631 0.0192,0.0443 0.0352,0.0863 0.0486,0.12557 0.0133,0.0388 0.0239,0.0759 0.0315,0.11007 1.4e-4,5.8e-4 3.8e-4,0.001 5.2e-4,0.002 0.008,0.0333 0.0122,0.0644 0.0139,0.0935 1.4e-4,0.002 0,0.003 0,0.005 6.8e-4,0.0278 5.8e-4,0.0539 -0.003,0.078 -4.4e-4,0.003 -0.002,0.005 -0.002,0.008 -0.005,0.0222 -0.01,0.0434 -0.0186,0.0625 -0.002,0.005 -0.005,0.008 -0.008,0.0124 -0.009,0.0165 -0.0179,0.0328 -0.0305,0.047 h -5.2e-4 c -0.007,0.007 -0.0153,0.0129 -0.0227,0.0196 -0.0112,0.01 -0.0213,0.0211 -0.0346,0.03 -0.0223,0.0151 -0.0474,0.0284 -0.076,0.0403 -0.049,0.0204 -0.10292,0.0272 -0.1571,0.0222 -0.0649,-0.006 -0.12967,-0.031 -0.18965,-0.0682 -0.0901,-0.0561 -0.16774,-0.14236 -0.20774,-0.25218 -0.005,-0.0155 -7.5e-4,-0.0363 0.01,-0.0584 0.008,-0.0149 0.0169,-0.0306 0.0274,-0.046 0.008,-0.0114 0.0163,-0.0222 0.0248,-0.0331 0.009,-0.0109 0.0164,-0.0212 0.0238,-0.0305 0.002,-0.002 0.004,-0.003 0.008,-0.005 0.003,-0.001 0.008,-0.002 0.0119,-0.002 0.009,-8.9e-4 0.0206,-4.1e-4 0.032,10e-4 0.005,7.5e-4 0.011,0.002 0.0165,0.003 0.0166,0.004 0.0311,0.0105 0.0367,0.0186 0.0456,0.065 0.086,0.1098 0.12299,0.13849 0.0123,0.01 0.0243,0.0177 0.0357,0.0238 0.023,0.0122 0.0446,0.0172 0.0646,0.0171 0.0299,-2.9e-4 0.0564,-0.0132 0.0811,-0.0351 0.0577,-0.0511 0.10369,-0.15063 0.14831,-0.25219 0.005,-0.011 0.008,-0.0227 0.01,-0.0351 5.8e-4,-0.004 9.2e-4,-0.007 0.001,-0.0109 6.8e-4,-0.01 0.002,-0.0198 0.002,-0.03 -0.007,-0.0151 -0.0109,-0.0283 -0.0181,-0.0439 z m -93.376217,0.0217 c 0.03512,-0.004 0.0661,0.0229 0.07906,0.0672 0.0192,0.0656 0.0017,0.10928 -0.05374,0.14521 -0.0336,0.0217 -0.06397,0.0488 -0.09457,0.0749 -0.0273,0.023 -0.05312,0.0451 -0.08992,0.0289 -0.005,-4.3e-4 -0.008,-3.8e-4 -0.01085,-5.2e-4 -0.0378,-0.001 -0.09102,0.0341 -0.109554,-0.0134 -0.0199,-0.0507 0.02364,-0.10017 0.05684,-0.13436 0.0556,-0.0574 0.121632,-0.10545 0.186552,-0.15297 0.0122,-0.009 0.02447,-0.0136 0.03617,-0.015 z m -4.785754,0.10904 c 0.01284,8e-5 0.02541,0.003 0.03566,0.01 0.0762,0.0514 0.149168,0.10821 0.217557,0.1695 0.0373,0.0336 0.0093,0.0949 -0.04082,0.0997 -0.0229,0.002 -0.04615,0 -0.06925,0 -0.12807,0.004 -0.232046,-0.0998 -0.225826,-0.22428 0.0015,-0.0288 0.04417,-0.055 0.08268,-0.0548 z m 132.786211,0.16846 c 0.13387,0.004 0.23382,0.069 0.30489,0.16588 0.10667,0.14531 0.20617,0.29607 0.30127,0.44855 0.16088,0.25795 0.26846,0.5396 0.37724,0.82011 0.0534,0.13734 0.13539,0.25453 0.25322,0.34933 0.0116,0.009 0.0217,0.0332 0.017,0.0455 -0.0425,0.11366 -0.0511,0.23089 -0.0444,0.34778 0.0264,0.45073 0.1319,0.88106 0.3576,1.27847 0.0226,0.0398 0.0501,0.077 0.0692,0.10594 0.0648,-0.0302 0.12111,-0.0678 0.18294,-0.0832 0.12208,-0.0306 0.22628,0.006 0.30076,0.10129 0.0724,0.0924 0.0762,0.19473 0.0165,0.29507 -0.0642,0.10794 -0.1676,0.1538 -0.29714,0.14624 -0.1461,-0.008 -0.24305,-0.0897 -0.32039,-0.19378 -0.2038,-0.27421 -0.37792,-0.56442 -0.50901,-0.87747 -0.0653,-0.15624 -0.12798,-0.3136 -0.19637,-0.4687 -0.0436,-0.0992 -0.1219,-0.17521 -0.20516,-0.24598 -0.0101,-0.008 -0.0208,-0.0271 -0.0171,-0.0367 0.0551,-0.14335 0.0531,-0.29069 0.0424,-0.4377 -0.0275,-0.37948 -0.12471,-0.74125 -0.29249,-1.08417 -0.0387,-0.0791 -0.0885,-0.15329 -0.13694,-0.23617 -0.14518,0.16628 -0.41178,0.13743 -0.49816,-0.0315 -0.0489,-0.0956 -0.0483,-0.19211 0.0191,-0.28422 0.0669,-0.0913 0.16122,-0.128 0.27492,-0.12454 z m -132.190382,0.22066 c 0.02567,-4.4e-4 0.05278,0.0124 0.08061,0.0274 0.0586,0.031 0.119638,0.0566 0.179318,0.0853 0.076,0.0364 0.08299,0.0865 0.02119,0.14573 -0.0606,0.0582 -0.08302,0.0614 -0.160714,0.0227 -0.0695,-0.0345 -0.139436,-0.0678 -0.208256,-0.10387 -0.0482,-0.0253 -0.07328,-0.0857 -0.06098,-0.13539 0.005,-0.0199 0.01941,-0.0285 0.03721,-0.0305 0.0258,-0.003 0.0514,-0.004 0.0863,-0.006 0.0083,-0.003 0.01676,-0.005 0.02532,-0.005 z m 101.003142,0.009 c 0.0381,0.001 0.0752,0.0116 0.11058,0.0284 0.10649,0.0513 0.21066,0.10794 0.31265,0.16691 0.17226,0.0998 0.32116,0.22947 0.47025,0.35812 0.0732,0.0632 0.15638,0.10533 0.25373,0.12402 0.01,0.002 0.0226,0.0127 0.0238,0.0212 0.0103,0.0788 0.0412,0.14948 0.0811,0.21497 0.15359,0.25281 0.34729,0.46889 0.59996,0.62942 0.0254,0.0161 0.0531,0.029 0.0729,0.0398 0.0283,-0.0374 0.0491,-0.0764 0.0801,-0.10438 0.0611,-0.0552 0.13272,-0.0658 0.20516,-0.0336 0.0701,0.0313 0.10403,0.089 0.10025,0.16536 -0.004,0.0821 -0.05,0.14021 -0.12713,0.1757 v 5.2e-4 c -0.087,0.04 -0.16829,0.0231 -0.24494,-0.0134 -0.20211,-0.0959 -0.39181,-0.21072 -0.56379,-0.3514 -0.0859,-0.0703 -0.17065,-0.14165 -0.25787,-0.21032 -0.0558,-0.0439 -0.12433,-0.0637 -0.1943,-0.0791 -0.009,-0.002 -0.0204,-0.009 -0.0212,-0.016 -0.0123,-0.0998 -0.0587,-0.18442 -0.11007,-0.26614 -0.13241,-0.21094 -0.29989,-0.39015 -0.50229,-0.53692 -0.0467,-0.0339 -0.0984,-0.0615 -0.15193,-0.0946 -0.033,0.14083 -0.19566,0.206 -0.29766,0.13487 -0.0577,-0.0403 -0.0871,-0.0964 -0.0765,-0.17053 0.0106,-0.0733 0.0541,-0.12369 0.12092,-0.15658 0.0394,-0.0195 0.0782,-0.0275 0.11628,-0.0264 z m -97.87155,0.16899 c 0.23355,0 0.13104,0.31872 -0.03514,0.20774 -0.16632,-0.11083 -0.19811,-0.20774 0.03514,-0.20774 z m -2.333708,0.12557 c 0.047,0.01 0.08973,0.0153 0.130742,0.0279 0.0694,0.0214 0.14125,0.0327 0.21239,0.0408 0.0651,0.008 0.103119,0.0444 0.137459,0.092 0.0221,0.0304 0.02963,0.0619 0.0072,0.0961 h -5.17e-4 c -0.0224,0.0339 -0.04812,0.053 -0.09302,0.0455 -0.142129,-0.0239 -0.283333,-0.0516 -0.422713,-0.0884 -0.058,-0.0155 -0.06437,-0.0775 -0.101286,-0.11214 -0.003,-0.003 -0.0011,-0.0186 0.0036,-0.0233 0.0373,-0.0362 0.07623,-0.0705 0.12609,-0.0785 z m 1.192176,0.10749 c 0.05715,-0.001 0.113015,0.004 0.164847,0.0413 0.0264,0.0194 0.05534,0.0313 0.05374,0.0692 -0.002,0.0398 -0.04427,0.0931 -0.08217,0.0982 l -5.16e-4,-5.2e-4 c -0.0657,0.009 -0.131464,0.0145 -0.197404,0.0196 -0.0316,0.002 -0.0638,0 -0.0956,0 v 0.007 c -0.0375,0 -0.07495,-0.002 -0.112138,5.2e-4 -0.0539,0.003 -0.09435,-0.0222 -0.129191,-0.0584 -0.0449,-0.0464 -0.03623,-0.0609 0.0083,-0.10801 0.0511,-0.0553 0.10843,-0.0647 0.17725,-0.061 0.0514,0.003 0.103816,-0.003 0.155546,-0.006 0.01928,-0.001 0.03831,-0.002 0.05736,-0.003 z M 168.94266,104.96 c 0.0617,0.003 0.12064,0.0251 0.16743,0.0641 0.0905,0.0755 0.12005,0.20542 0.0718,0.31213 -0.0521,0.11328 -0.17827,0.18907 -0.30334,0.17931 -0.0309,-0.003 -0.0613,-0.0122 -0.10232,-0.0207 -0.005,0.0803 -0.0162,0.16073 -0.0165,0.24081 -0.002,0.31578 0.0571,0.62147 0.154,0.91933 0.0549,0.16873 0.11967,0.33344 0.22634,0.47904 0.0123,0.0167 0.0227,0.0371 0.0393,0.0481 0.0603,0.04 0.058,0.0846 0.0294,0.14779 -0.0764,0.16937 -0.0545,0.34476 -0.0341,0.51832 0.0477,0.40326 0.0387,0.8074 -0.0269,1.21181 -0.0116,0.0717 -0.0323,0.14473 -0.0636,0.21136 -0.0656,0.13931 -0.2194,0.21918 -0.3607,0.19792 -0.16947,-0.0254 -0.27278,-0.18283 -0.22479,-0.34313 0.0459,-0.15312 0.22966,-0.24689 0.38499,-0.19637 0.005,0.002 0.0123,0.004 0.0258,0.009 0.005,-0.0258 0.0108,-0.0501 0.0134,-0.0744 0.024,-0.23018 0.004,-0.4573 -0.0403,-0.68161 -0.053,-0.26946 -0.12544,-0.53349 -0.26096,-0.77515 -0.0406,-0.0721 -0.10101,-0.13409 -0.1509,-0.20153 -0.008,-0.0106 -0.0163,-0.0293 -0.0114,-0.0388 0.0924,-0.18485 0.0843,-0.37608 0.0605,-0.56793 -0.0516,-0.41902 -0.0412,-0.83854 0.0294,-1.25883 0.0229,-0.13645 0.0727,-0.2606 0.20929,-0.33745 0.0577,-0.0325 0.12228,-0.0469 0.18397,-0.0434 z m -29.8819,0.84129 c 0.0299,-0.002 0.0597,0.003 0.0868,0.0155 0.0703,0.0325 0.11148,0.1096 0.0987,0.18552 -0.0136,0.0806 -0.081,0.14977 -0.16175,0.16484 -0.02,0.004 -0.0408,0.003 -0.0682,0.004 0.01,0.0517 0.0172,0.10433 0.0305,0.15503 0.0525,0.20009 0.14137,0.38355 0.25321,0.55552 0.0634,0.0974 0.13214,0.19055 0.22428,0.26458 0.0106,0.008 0.0202,0.0201 0.0326,0.0243 0.0451,0.0151 0.0512,0.0437 0.0439,0.0884 -0.0197,0.12011 0.0238,0.22697 0.0662,0.33331 0.0985,0.24703 0.16168,0.50451 0.18862,0.77153 0.005,0.0474 0.004,0.0967 -0.005,0.14418 l 5.2e-4,5.1e-4 c -0.0178,0.0992 -0.1013,0.17597 -0.19431,0.18655 -0.11142,0.0127 -0.20368,-0.0692 -0.2005,-0.1788 0.003,-0.10475 0.1034,-0.1953 0.21032,-0.18965 0.004,1.5e-4 0.009,4.7e-4 0.0181,0.001 -6.9e-4,-0.0171 -0.002,-0.0333 -0.004,-0.0491 -0.0239,-0.14981 -0.0752,-0.28981 -0.14107,-0.42426 -0.0792,-0.16154 -0.17,-0.31601 -0.29663,-0.44597 -0.038,-0.0388 -0.0862,-0.068 -0.12919,-0.10232 -0.007,-0.005 -0.0157,-0.0157 -0.0145,-0.0227 0.0273,-0.13257 -0.0103,-0.25198 -0.0579,-0.36948 -0.1036,-0.2563 -0.16817,-0.52362 -0.19482,-0.8015 -0.009,-0.0903 0.002,-0.17671 0.076,-0.24857 0.0387,-0.0379 0.0887,-0.0596 0.13849,-0.0625 z m -50.547816,1.13844 c 0.626089,-0.0126 1.037849,0.35526 1.055749,0.94309 0.01633,0.53571 -0.511398,1.03738 -1.097607,1.04438 -0.62986,0.007 -1.005691,-0.36213 -1.007691,-0.99012 -0.0015,-0.54251 0.464759,-0.98545 1.049549,-0.99735 z"
       inkscape:label="all birds"
       sodipodi:insensitive="true" />
    <path
       id="path3513"
       style="display:none;fill:#000021;fill-opacity:1;fill-rule:nonzero;stroke:none;stroke-width:0.106611"
       d="m 3.8808632,87.152953 c 0.117798,0.06808 -0.3584877,0.1621 -0.4410047,0.269992 -0.080054,0.10473 -0.1681498,0.203182 -0.2543967,0.302962 -0.2420029,0.279957 -0.4707302,0.569495 -0.6555925,0.891567 -0.1487211,0.259389 -0.2580417,0.536519 -0.369023,0.812539 -0.2026671,0.503734 -0.3890886,1.013595 -0.5679804,1.526075 -0.1065955,0.305534 -0.2378302,0.604311 -0.2361263,0.937775 3.007e-4,0.05316 0.00546,0.09235 0.046992,0.12917 0.093388,0.08236 0.1301246,0.189377 0.1285184,0.313581 -9.058e-4,0.07268 -0.014438,0.142184 -0.029218,0.212242 -0.034965,0.166097 -0.07144,0.331957 -0.1038424,0.498486 -0.018333,0.09426 -0.010403,0.0995 0.083239,0.06586 0.07432,-0.02682 0.1459604,-0.06252 0.2217559,-0.08333 0.1338989,-0.03681 0.2003441,-0.0077 0.278918,0.105847 0.026313,0.0381 0.04188,0.07792 0.051065,0.123456 0.012687,0.06237 0.027163,0.125207 0.060123,0.181791 0.035714,0.0614 0.085751,0.09061 0.158353,0.08664 0.073229,-0.0032 0.1425628,-0.02318 0.2056739,-0.05665 0.094784,-0.05047 0.1700363,-0.03158 0.244558,0.04095 0.091688,0.08919 0.1886848,0.173079 0.2848491,0.257515 0.065566,0.05746 0.088973,0.05681 0.1550684,-0.0015 0.044886,-0.04014 0.085802,-0.08333 0.1141568,-0.138692 0.030728,-0.06016 0.06705,-0.118217 0.1152479,-0.166479 0.059806,-0.05983 0.1248646,-0.06538 0.1939601,-0.01809 0.03442,0.02365 0.057789,0.0576 0.081995,0.09204 0.054046,0.07681 0.094898,0.163558 0.1656924,0.22816 0.097334,0.08855 0.1944231,0.07791 0.2636125,-0.03411 0.037541,-0.0606 0.068103,-0.125994 0.096662,-0.19163 0.06601,-0.151546 0.125943,-0.305931 0.1936454,-0.45678 0.1010894,-0.225382 0.2407368,-0.408556 0.4838091,-0.508019 0.3017063,-0.123456 0.5624934,-0.319469 0.8144136,-0.523618 0.2343299,-0.189981 0.4526298,-0.397906 0.6633975,-0.613897 0.1656733,-0.169842 0.2252333,-0.24682 0.5159793,-0.490055 0.9427963,-3.516943 0.088149,-3.866164 -2.964541,-3.792994 z"
       inkscape:label="banjo wings" />
    <path
       d="m 19.008498,105.74558 c -0.03144,0.0512 -0.07672,0.0512 -0.117037,0.006 -0.02521,-0.0285 -0.03829,-0.0609 -0.0414,-0.0999 -0.0093,-0.12128 -0.01758,-0.243 -0.0355,-0.36325 -0.0093,-0.0675 0.03236,-0.10302 0.06645,-0.1435 0.01243,-0.014 0.04326,-0.0101 0.07238,-3.3e-4 0.02927,0.0101 0.05618,0.0304 0.05883,0.0496 0.01713,0.12778 0.03097,0.25597 0.04607,0.38405 0.0047,0.0622 -0.01899,0.11723 -0.04981,0.16764 m -0.01401,1.00771 c -0.01243,0.0809 -0.09837,0.10631 -0.130274,0.17316 -0.003,0.009 -0.01091,0.0101 -0.01758,0.009 -0.0077,-0.001 -0.01557,-0.006 -0.02007,-0.0127 -0.02444,-0.0296 -0.04887,-0.0564 -0.05478,-0.0946 -0.0015,-0.0127 -0.0015,-0.0266 8.88e-4,-0.0421 0.01557,-0.0855 0.02957,-0.17119 0.0414,-0.25724 0.01243,-0.086 0.02164,-0.17242 0.02771,-0.25923 5.91e-4,-0.006 0.0012,-0.014 0.0015,-0.0198 0.0012,-0.009 0.003,-0.0161 0.0047,-0.0236 0.0047,-0.014 0.01091,-0.0269 0.02164,-0.0384 0.0077,-0.009 0.01557,-0.0157 0.02366,-0.0226 0.0093,-0.009 0.01822,-0.0139 0.0291,-0.0165 0.0062,-0.001 0.01399,-0.001 0.02242,-5.1e-4 0.01572,0.004 0.02272,0.0127 0.02692,0.025 0.0047,0.0127 0.0047,0.0265 0.0093,0.0379 0.02583,0.0849 0.04498,0.17108 0.0565,0.26059 -0.01402,0.094 -0.02848,0.18884 -0.04281,0.28378 m -0.207568,0.7808 c -0.003,0.0173 -0.0062,0.0354 -0.01243,0.0541 -0.01091,0.0372 -0.02583,0.0764 -0.04343,0.11608 -0.0093,0.0197 -0.01805,0.0397 -0.02754,0.0594 -0.0077,0.0164 -0.01682,0.0323 -0.02599,0.0481 -0.02754,0.0474 -0.05852,0.0931 -0.08016,0.14414 -0.03035,0.0717 -0.107712,0.0691 -0.165639,0.0957 -0.01557,0.006 -0.02474,-0.005 -0.03066,-0.0194 -0.0015,-0.005 -0.003,-0.0101 -0.0047,-0.014 -0.003,-0.0101 -0.003,-0.019 -0.003,-0.0279 2.97e-4,-0.0184 0.0047,-0.036 0.01243,-0.0534 0.003,-0.0101 0.0062,-0.0171 0.01091,-0.0255 0.04966,-0.11862 0.09947,-0.23717 0.152066,-0.35437 0.02102,-0.0467 0.04887,-0.0865 0.09463,-0.10442 0.01557,-0.006 0.03237,-0.0101 0.05199,-0.0101 0.01758,-4.9e-4 0.03097,-5.9e-4 0.04156,9.6e-4 0.02086,0.004 0.02895,0.0127 0.03144,0.0384 0.0012,0.0127 8.87e-4,0.0299 2.17e-4,0.0523 m -0.451525,-4.07828 c -0.0015,0.0363 0.003,0.0811 -0.04234,0.0918 -0.04887,0.0101 -0.08063,-0.0159 -0.106152,-0.0599 -0.0464,-0.0797 -0.09868,-0.15591 -0.150197,-0.23246 -0.026,-0.0387 -0.05323,-0.0764 -0.08031,-0.11427 -0.01587,-0.0223 -0.0316,-0.0447 -0.04716,-0.0671 -0.0047,-0.008 -0.01091,-0.0156 -0.01557,-0.0229 -0.0093,-0.0156 -0.01837,-0.0314 -0.02304,-0.0492 -0.003,-0.009 -0.003,-0.0184 -0.003,-0.0283 0,-0.0322 0.0062,-0.053 0.02039,-0.0653 0.01401,-0.0124 0.03597,-0.0156 0.06724,-0.0124 0.07082,0.006 0.127004,0.0295 0.169092,0.078 0.01399,0.0162 0.02646,0.0351 0.03736,0.0575 0.03223,0.0659 0.07767,0.12577 0.120627,0.18582 0.01091,0.014 0.02085,0.0295 0.02973,0.0444 0.02677,0.0445 0.04249,0.0901 0.02381,0.14009 0,0.0251 5.91e-4,0.0397 -9.4e-5,0.0547 m -0.108803,5.23149 c -0.01091,0.0236 -0.0235,0.0458 -0.03782,0.0674 -0.01399,0.0214 -0.02972,0.0421 -0.04529,0.0625 -0.02507,0.0327 -0.0565,0.0619 -0.08016,0.0952 -0.0077,0.0101 -0.01557,0.0226 -0.0207,0.0349 -0.02427,0.0528 -0.06101,0.0697 -0.101165,0.0747 -0.04017,0.005 -0.0839,-0.001 -0.122493,0.006 -0.01091,0.001 -0.02054,-0.004 -0.02801,-0.0101 -0.0077,-0.009 -0.01243,-0.0209 -0.01572,-0.0351 -0.0015,-0.009 -0.0015,-0.014 -0.0015,-0.0225 -9.4e-5,-0.0156 0.003,-0.0317 0.0093,-0.0461 0.003,-0.009 0.0077,-0.014 0.01243,-0.0202 0.04825,-0.0601 0.0951,-0.12129 0.140859,-0.18353 0.04779,-0.0652 0.09634,-0.1298 0.142572,-0.19648 0.01401,-0.0211 0.03035,-0.0423 0.04933,-0.0595 0.0062,-0.006 0.01399,-0.0127 0.02225,-0.0171 0.01572,-0.0101 0.03269,-0.0162 0.05089,-0.0157 0.0093,2.2e-4 0.01837,0.001 0.02801,0.006 0.026,0.0101 0.02569,0.0336 0.02551,0.0561 -1.09e-4,0.009 -2.02e-4,0.0156 5.92e-4,0.0218 2.95e-4,0.004 2.18e-4,0.005 2.95e-4,0.009 2.96e-4,0.009 -9.2e-5,0.0139 -9.2e-5,0.0139 0.0015,0.0156 0.0015,0.0305 0.0012,0.0448 -0.0015,0.0431 -0.01243,0.0814 -0.02879,0.11684 m 0.355398,-4.58094 c 0.02489,-0.0127 0.04108,0.004 0.05775,0.0184 0.0062,0.005 0.01091,0.0101 0.01713,0.014 0.01243,0.009 0.02334,0.0161 0.03346,0.0251 0.01992,0.0179 0.0355,0.0386 0.0464,0.0634 0.0047,0.0127 0.0093,0.0264 0.01243,0.0414 0.0093,0.042 0.04234,0.0768 0.06538,0.11418 0.02957,0.048 0.05214,0.0981 0.05339,0.15098 2.96e-4,0.0211 -0.003,0.0427 -0.0093,0.0649 -0.003,0.0101 -0.0077,0.0223 -0.01399,0.0336 -0.0207,0.0391 -0.04094,0.0551 -0.07114,0.049 -0.01091,-0.001 -0.02147,-0.006 -0.03409,-0.0127 -0.01091,-0.005 -0.01961,-0.0102 -0.02771,-0.0189 -0.0077,-0.009 -0.01557,-0.0161 -0.02007,-0.0261 -0.01681,-0.0341 -0.03129,-0.0694 -0.04435,-0.10441 -0.02615,-0.0704 -0.0467,-0.14243 -0.06801,-0.21218 -0.01091,-0.0349 -0.02147,-0.0691 -0.03332,-0.10238 0.0015,-0.0443 0.0047,-0.0811 0.03658,-0.0981 M 17.6097,102.50889 c -0.04373,0.0434 -0.129651,0.0504 -0.181216,0.009 -0.07223,-0.0571 -0.142727,-0.11674 -0.21174,-0.17778 -0.05525,-0.049 -0.110515,-0.0974 -0.171909,-0.13899 -0.05556,-0.0377 -0.07767,-0.11334 -0.05836,-0.17536 0.01243,-0.0404 0.04435,-0.0447 0.07923,-0.0433 0.06926,10e-4 0.130898,0.0261 0.182682,0.0702 0.101013,0.0862 0.199613,0.17515 0.298837,0.2634 0.01399,0.0124 0.02584,0.0265 0.0372,0.0409 0.03876,0.0489 0.0512,0.1253 0.02537,0.15097 m -0.165528,7.08412 c -0.01091,0.0302 -0.03424,0.0556 -0.06989,0.0783 -0.04296,0.0278 -0.08187,0.0624 -0.120931,0.0957 -0.01744,0.014 -0.03439,0.0294 -0.05308,0.0377 -0.0093,0.005 -0.01899,0.006 -0.02927,0.006 -0.01091,2.3e-4 -0.02116,-10e-4 -0.033,-0.006 -0.0062,-6.3e-4 -0.01091,-10e-4 -0.01399,-10e-4 -0.03019,-9.6e-4 -0.06803,0.0162 -0.09774,0.014 -0.01805,-9.4e-4 -0.033,-0.0102 -0.04187,-0.0315 -0.02537,-0.065 0.02989,-0.12826 0.07238,-0.17191 0.01884,-0.0194 0.04031,-0.0363 0.06086,-0.0539 0.05681,-0.0497 0.116884,-0.0963 0.17776,-0.14103 0.06259,-0.0458 0.124827,-0.0102 0.146931,0.0667 0.01243,0.0417 0.01243,0.0768 0.0015,0.10695 m -0.808297,-7.89639 c -0.0047,0.0104 -0.01399,0.0238 -0.02786,0.0381 -0.0062,0.008 -0.01557,0.014 -0.02381,0.0228 -0.0093,0.008 -0.01744,0.0156 -0.026,0.0208 -0.02583,0.0179 -0.0509,0.0269 -0.07658,0.0288 -0.02569,0.001 -0.05183,-0.003 -0.07985,-0.0156 -0.0093,-0.003 -0.01867,-0.008 -0.02848,-0.014 -0.04388,-0.0235 -0.08857,-0.0454 -0.133854,-0.0664 -0.04528,-0.0209 -0.09109,-0.0407 -0.137187,-0.0595 -0.06482,-0.0266 -0.09736,-0.0749 -0.116808,-0.13043 -0.0066,-0.0187 -0.01167,-0.038 -0.01588,-0.0575 -0.0071,-0.0331 -0.0027,-0.0565 0.01355,-0.0716 0.0163,-0.0156 0.04443,-0.0221 0.0847,-0.0218 v 0 c 0.01495,0.005 0.04047,0.009 0.06401,0.0196 0.07667,0.0326 0.15194,0.0678 0.226073,0.10548 0.07408,0.0377 0.147085,0.0776 0.21918,0.11937 0.04218,0.0245 0.06195,0.0438 0.06227,0.0652 1.09e-4,0.005 -0.0012,0.0104 -0.003,0.0165 m -0.690744,8.83207 c -0.212479,-0.14164 -0.253051,-0.26559 0.04498,-0.26559 0.298328,0 0.167411,0.40719 -0.04498,0.26559 m -0.395208,-9.24247 c -0.002,0.0124 -0.0098,0.0251 -0.02114,0.038 -0.01129,0.0124 -0.02614,0.0254 -0.04255,0.0363 -0.03295,0.0219 -0.07237,0.0371 -0.102688,0.034 v 0 c -0.02573,-0.003 -0.05134,-0.006 -0.07686,-0.0104 -0.02541,-0.005 -0.0507,-0.0104 -0.0756,-0.018 -0.136051,-0.0376 -0.275119,-0.0576 -0.414401,-0.0768 -0.01828,-0.003 -0.03691,-0.005 -0.05448,-0.009 -0.03911,-0.0124 -0.107078,-0.0893 -0.121198,-0.13105 -0.002,-0.006 -0.003,-0.0104 -0.0023,-0.0156 0.0015,-0.0156 0.01903,-0.035 0.04278,-0.0541 0.008,-0.006 0.01651,-0.0124 0.02541,-0.0184 0.01786,-0.0124 0.03701,-0.0221 0.05448,-0.0292 0.01737,-0.008 0.03315,-0.0104 0.04434,-0.0104 0.218544,0.0285 0.425483,0.0695 0.629912,0.12234 0.06963,0.018 0.124218,0.092 0.114512,0.14459 m -0.75037,9.45431 c -0.01849,0.0407 -0.05814,0.0799 -0.09452,0.0847 -0.08366,0.0102 -0.168041,0.0184 -0.252323,0.0247 -0.04024,0.004 -0.08104,5.2e-4 -0.121604,5.2e-4 v 0.0101 c -0.04779,0 -0.09579,-0.001 -0.143365,5.2e-4 -0.06892,0.005 -0.120563,-0.0278 -0.165215,-0.074 -0.01431,-0.0156 -0.02436,-0.0273 -0.03054,-0.0381 -0.01541,-0.0274 -0.0066,-0.0473 0.02114,-0.0793 0.0055,-0.006 0.01167,-0.0139 0.01874,-0.0209 0.0163,-0.0175 0.03325,-0.0315 0.05071,-0.0425 0.05238,-0.0331 0.110427,-0.0387 0.176195,-0.0351 0.0659,0.004 0.132283,-0.005 0.198469,-0.009 0.03692,-0.001 0.07362,-0.005 0.109792,-0.004 0.02403,7.5e-4 0.04788,0.004 0.07131,0.009 0.03523,0.009 0.06954,0.0214 0.102675,0.0454 0.01695,0.0127 0.03472,0.0226 0.04801,0.0355 0.01322,0.0127 0.02206,0.0292 0.02102,0.0534 -5.92e-4,0.0127 -0.0044,0.0264 -0.0104,0.04 m -1.152432,-9.45923 c -0.04203,0.005 -0.08408,0.0104 -0.126108,0.0166 -0.02176,0.003 -0.04498,0.005 -0.06597,-2e-4 -0.0243,-0.005 -0.04392,-0.0214 -0.05594,-0.0418 -0.01192,-0.0204 -0.01651,-0.0454 -0.01066,-0.0691 0.0051,-0.0194 0.01385,-0.0391 0.02603,-0.0575 0.03608,-0.0556 0.09954,-0.10225 0.159881,-0.1086 0.03847,-0.005 0.07697,-0.008 0.115972,-0.0124 0.117214,-0.0104 0.239564,-0.022 0.382088,-0.0354 0.0156,-0.006 0.03116,-0.006 0.04685,-0.001 0.01568,0.003 0.03148,0.0104 0.04736,0.0218 0.01588,0.009 0.03189,0.0224 0.04811,0.0352 0.01256,0.009 0.02551,0.0205 0.03848,0.0305 0.0036,0.003 0.0071,0.006 0.01091,0.008 0.01192,0.009 0.02048,0.0178 0.02592,0.0263 0.0053,0.009 0.0077,0.0174 0.0071,0.0261 -0.0015,0.0174 -0.01431,0.0351 -0.03734,0.054 -0.05104,0.0422 -0.108131,0.0662 -0.169609,0.0753 -0.02051,0.003 -0.0414,0.005 -0.06285,0.005 -0.04255,-1.2e-4 -0.08491,10e-4 -0.127256,0.003 -0.0847,0.005 -0.168978,0.014 -0.253051,0.0237 m -0.0023,9.43644 c -0.0027,0.0101 -0.0076,0.0211 -0.01479,0.0322 -0.02153,0.0324 -0.0456,0.0539 -0.08051,0.0589 -0.01167,0.001 -0.02445,0.001 -0.03881,-10e-4 -0.09076,-0.0156 -0.181216,-0.0317 -0.27125,-0.0502 -0.09003,-0.0185 -0.179644,-0.0391 -0.268629,-0.0627 -0.01861,-0.005 -0.03304,-0.0139 -0.04498,-0.0246 -0.01192,-0.0101 -0.02134,-0.0238 -0.03,-0.0381 -0.0086,-0.014 -0.01629,-0.0285 -0.02489,-0.0425 -0.0044,-0.006 -0.0088,-0.014 -0.01354,-0.0202 -0.0051,-0.006 -0.01028,-0.0127 -0.01609,-0.018 -2.07e-4,-1.2e-4 0,-9.4e-4 -1.05e-4,-10e-4 -0.0034,-0.005 -5.93e-4,-0.0226 0.0053,-0.0282 0.0118,-0.0101 0.02384,-0.0231 0.03608,-0.034 0.03691,-0.0324 0.07664,-0.0591 0.124433,-0.0667 v 0 c 0.06014,0.0127 0.115235,0.0197 0.167621,0.0358 0.08867,0.0273 0.180063,0.0415 0.270934,0.052 0.08333,0.0102 0.131955,0.0571 0.175881,0.11799 0.02115,0.029 0.03169,0.0591 0.02341,0.0905 m -1.298407,-0.35334 c -0.0096,0.0101 -0.01861,0.0175 -0.02697,0.0247 -0.01672,0.014 -0.03138,0.0242 -0.04569,0.0302 -0.0071,0.004 -0.01431,0.005 -0.02164,0.006 -0.01463,10e-4 -0.0299,2e-4 -0.04767,-0.005 -0.01786,-0.005 -0.03816,-0.014 -0.06304,-0.0269 -0.08867,-0.0443 -0.178286,-0.0869 -0.266019,-0.13277 -0.0617,-0.0324 -0.09379,-0.10936 -0.07801,-0.17275 0.003,-0.0127 0.0091,-0.0218 0.01738,-0.0279 0.0081,-0.006 0.01842,-0.0102 0.02992,-0.0102 0.03283,-0.004 0.06599,-0.005 0.110643,-0.009 0.01078,-0.005 0.02144,-0.006 0.03231,-0.006 0.03283,-3.3e-4 0.06713,0.0161 0.102586,0.0346 0.03743,0.0198 0.0756,0.0378 0.11398,0.0556 0.03847,0.0178 0.07707,0.0353 0.115133,0.0534 0.04852,0.0232 0.07508,0.0509 0.07958,0.0821 0.0046,0.0312 -0.01291,0.0661 -0.05238,0.10391 m -0.791675,-0.50276 c -0.0046,0.006 -0.0096,0.0101 -0.0154,0.0156 -0.01167,0.0102 -0.02592,0.0156 -0.04204,0.0165 -0.01448,0.001 -0.02929,0.001 -0.04402,0.001 -0.01479,-1.9e-4 -0.02959,-8.1e-4 -0.04423,-8.1e-4 -0.02048,6.2e-4 -0.04047,-9.5e-4 -0.05972,-0.005 -0.07716,-0.014 -0.143147,-0.0586 -0.184246,-0.12027 -0.03085,-0.0463 -0.04769,-0.10226 -0.04464,-0.16199 0.0023,-0.0488 0.0985,-0.0922 0.150897,-0.057 0.04863,0.0329 0.09652,0.0672 0.143052,0.10314 0.04652,0.0359 0.09182,0.0736 0.13552,0.11266 0.01193,0.0101 0.01861,0.0237 0.02102,0.0373 0.0012,0.006 0.0012,0.014 2.97e-4,0.0203 -0.0018,0.014 -0.0076,0.0269 -0.01642,0.0381 m -0.641211,-7.29891 c -0.01129,0.003 -0.02322,0.006 -0.03565,0.006 -0.07582,0.008 -0.09808,-0.0156 -0.09421,-0.10664 -0.0061,-0.0467 0.0151,-0.096 0.0594,-0.13495 0.157476,-0.13868 0.310564,-0.28276 0.487908,-0.39683 0.01218,-0.008 0.0249,-0.0124 0.03776,-0.0156 0.02582,-0.005 0.05228,0.001 0.0755,0.0157 0.01167,0.008 0.02225,0.017 0.03178,0.0288 0.02006,0.025 0.03053,0.0514 0.03094,0.0771 5.93e-4,0.0256 -0.009,0.0506 -0.02854,0.0728 -0.01448,0.0164 -0.03178,0.0309 -0.04945,0.044 -0.148378,0.10988 -0.287979,0.22995 -0.423705,0.35471 -0.0275,0.0254 -0.05752,0.044 -0.0917,0.0537 m -0.0551,6.69762 c -0.0023,0.014 -0.0062,0.0261 -0.01129,0.0368 -0.01028,0.0214 -0.02645,0.0354 -0.04947,0.0414 -0.01091,0.004 -0.02312,0.004 -0.03722,0.004 -0.0343,-9.5e-4 -0.06598,-0.0101 -0.09421,-0.0255 -0.0094,-0.006 -0.01849,-0.0127 -0.02717,-0.0198 -0.04696,-0.0416 -0.09118,-0.0856 -0.132066,-0.13245 -0.04089,-0.0469 -0.07843,-0.0967 -0.111987,-0.1499 -0.03054,-0.0483 -0.02592,-0.10581 -0.03974,-0.15851 -0.0086,-0.0331 0.01861,-0.0504 0.04685,-0.0417 0.05354,0.0165 0.110008,0.0251 0.15957,0.0504 0.0297,0.0156 0.05689,0.0365 0.07948,0.0693 0.02592,0.0375 0.05573,0.0723 0.08679,0.10631 0.03106,0.034 0.06347,0.0669 0.09463,0.10074 0.03252,0.0351 0.04498,0.0736 0.03596,0.12078 m -0.622503,-0.70127 c -0.01903,0.0254 -0.0435,0.0458 -0.06555,0.0515 -0.01322,0.004 -0.02498,0.004 -0.03565,0.001 -0.01078,-0.001 -0.0204,-0.006 -0.02917,-0.0127 -0.01757,-0.0102 -0.03156,-0.0294 -0.04359,-0.0483 -0.03785,-0.0591 -0.073508,-0.11926 -0.1075974,-0.18037 -0.03409,-0.0611 -0.066619,-0.12306 -0.098197,-0.18571 -0.021555,-0.0428 -0.041004,-0.0866 -0.063777,-0.12872 -0.012915,-0.0238 -0.014311,-0.0454 -0.00875,-0.0655 0.00546,-0.0198 0.0178,-0.0382 0.032199,-0.056 0.00774,-0.0101 0.01629,-0.0164 0.025196,-0.0206 0.00875,-0.005 0.018079,-0.006 0.027594,-0.006 0.019043,-8.4e-4 0.039114,0.005 0.058969,0.0101 0.035777,0.0127 0.068281,0.0294 0.086576,0.0645 0.08021,0.15346 0.177345,0.29781 0.242387,0.45914 0.0027,0.006 0.0053,0.014 0.0072,0.0194 0.002,0.006 0.0039,0.0101 0.0051,0.0139 -2.95e-4,0.0254 -0.01399,0.0559 -0.03294,0.0812 M 9.68105,107.55402 c -0.010784,0.001 -0.029078,-0.005 -0.048515,-0.0164 -0.012915,-0.009 -0.026351,-0.0175 -0.038277,-0.0282 -0.017863,-0.0159 -0.032415,-0.0336 -0.037223,-0.049 -0.028545,-0.0912 -0.05501,-0.1831 -0.080701,-0.27523 -0.010911,-0.0387 -0.018206,-0.0785 -0.026452,-0.11812 -0.00457,-0.0214 -0.010784,-0.0434 -0.010657,-0.0652 2.956e-4,-0.0468 0.064741,-0.11938 0.1087395,-0.12611 0.044747,-0.006 0.094746,0.0299 0.1091709,0.0902 0.032415,0.13589 0.070476,0.27009 0.1113657,0.40373 0.00419,0.014 0.00634,0.0286 0.00863,0.0384 -8.881e-4,0.0336 -0.073927,0.14084 -0.096091,0.14568 m -0.28118,-1.01618 c -0.027708,-0.0306 -0.05208,-0.0632 -0.055417,-0.10542 -0.010657,-0.13199 -0.025412,-0.26374 -0.021859,-0.39633 2.068e-4,-0.006 0.00178,-0.014 0.00457,-0.0216 0.010911,-0.0323 0.039938,-0.0768 0.070362,-0.11114 0.00761,-0.0102 0.01525,-0.0166 0.022811,-0.0237 0.014945,-0.014 0.029155,-0.0245 0.040585,-0.0282 0.04004,-0.0127 0.074878,0.0101 0.080207,0.0652 0.00304,0.0292 0.00304,0.0584 0.00266,0.0865 -2.956e-4,0.0278 -0.00152,0.0544 -0.00152,0.0778 0.00609,0.0627 0.00875,0.12243 0.012306,0.18089 0.00355,0.0586 0.00799,0.1152 0.017241,0.17171 0.0066,0.0391 0.00812,0.0775 -0.029916,0.11025 -0.033887,0.0292 -0.054478,0.0443 -0.074041,0.0435 -0.019563,-6.2e-4 -0.038061,-0.0168 -0.068078,-0.0499 M 9.362748,105.235 c 0.021847,-0.11583 0.04193,-0.23233 0.066289,-0.34787 0.00116,-0.006 0.00444,-0.0127 0.00875,-0.0198 0.030626,-0.0497 0.1279869,-0.1171 0.1683516,-0.11241 0.04278,0.005 0.0662,0.032 0.05855,0.077 -0.00901,0.0547 -0.022811,0.10847 -0.032098,0.16301 -0.01747,0.10175 -0.03376,0.20401 -0.049352,0.30618 -0.00622,0.0407 -0.012179,0.0804 -0.043503,0.11101 -0.0066,0.006 -0.012915,0.014 -0.01936,0.0202 -0.019563,0.0204 -0.040585,0.0389 -0.071948,0.0321 -0.038695,-0.009 -0.040788,-0.0467 -0.04788,-0.0795 -0.00266,-0.0127 -0.00685,-0.0246 -0.011545,-0.0365 -0.014006,-0.0362 -0.031996,-0.0713 -0.026224,-0.11316 m 0.3726768,1.12001 -0.00584,-0.001 0.00406,-0.006 z M 9.6059536,104.2453 c 0.056774,-0.14399 0.1080164,-0.29061 0.1796455,-0.42822 0.00584,-0.0102 0.012306,-0.0213 0.01936,-0.0305 0.013854,-0.0178 0.0297,-0.031 0.046536,-0.0393 0.0085,-0.005 0.017165,-0.009 0.025919,-0.0101 0.035346,-0.009 0.072861,0.005 0.10572,0.0364 0.01695,0.0162 0.026453,0.0326 0.029371,0.05 0.0015,0.0101 0.0012,0.0179 -5.93e-4,0.0274 -0.0018,0.0101 -0.0051,0.02 -0.0099,0.0311 -0.069017,0.15903 -0.1363599,0.31902 -0.1986742,0.4809 -0.00609,0.0157 -0.01308,0.0288 -0.021213,0.0398 -0.00825,0.0101 -0.01747,0.0198 -0.027924,0.0266 -0.020806,0.014 -0.04632,0.0193 -0.076857,0.0189 -0.065667,-8.2e-4 -0.054579,-0.0582 -0.068598,-0.0967 -0.00622,-0.0171 -0.010276,-0.035 -0.01525,-0.0524 0.00419,-0.0194 0.00571,-0.0384 0.012433,-0.0552 m 0.4697132,-0.9684 c 0.05386,-0.0878 0.108753,-0.17537 0.169084,-0.25881 0.0387,-0.0535 0.0821,-0.10352 0.115007,-0.16156 0.0077,-0.014 0.01672,-0.0259 0.02668,-0.0364 0.0298,-0.0319 0.06913,-0.0501 0.116593,-0.0546 0.03357,-0.001 0.06096,0.008 0.08083,0.0309 0.0067,0.008 0.01243,0.0164 0.01737,0.0266 0.0178,0.0376 0.03376,0.0764 0.003,0.11392 -0.06555,0.0798 -0.126831,0.16248 -0.185923,0.24688 -0.05908,0.0845 -0.115857,0.17043 -0.172637,0.2566 -0.03701,0.0561 -0.08155,0.0597 -0.132906,0.0251 -0.01292,-0.01 -0.02395,-0.0211 -0.03263,-0.0359 -0.02603,-0.0444 -0.03127,-0.1086 -0.0044,-0.15238 m 9.142804,2.32493 c -0.02957,-0.49523 -0.130431,-0.97446 -0.298216,-1.44 -0.171398,-0.47587 -0.412211,-0.91642 -0.700715,-1.33091 -0.150197,-0.21593 -0.316613,-0.41973 -0.512586,-0.59603 -0.275009,-0.24742 -0.564647,-0.47631 -0.882117,-0.66861 -0.474624,-0.28746 -0.975511,-0.51227 -1.518106,-0.63598 -0.51175,-0.11673 -1.02967,-0.15331 -1.553551,-0.11144 -0.221367,0.0178 -0.442423,0.0358 -0.661282,0.0736 -0.08386,0.014 -0.142727,-0.009 -0.182467,-0.0879 -0.03335,-0.0657 -0.07351,-0.12763 -0.10279,-0.19607 -0.173269,-0.40424 -0.354064,-0.805368 -0.520952,-1.212131 -0.298955,-0.728513 -0.646119,-1.435592 -0.94633,-2.163592 C 11.205661,96.907309 11.055298,96.589732 10.914446,96.268184 10.626467,95.6113 10.339955,94.953684 10.052608,94.296472 9.793385,93.703683 9.5313406,93.112154 9.2752565,92.518009 9.0573385,92.012318 8.9012197,91.489896 8.8716249,90.93538 c -0.00343,-0.0638 0.00406,-0.109259 0.064513,-0.14942 0.1485942,-0.09868 0.1558042,-0.16752 0.044227,-0.305019 -0.048832,-0.06022 -0.068801,-0.122809 -0.063574,-0.203707 0.015605,-0.24374 -0.085002,-0.430188 -0.3021959,-0.547825 -0.052511,-0.02848 -0.1050984,-0.0551 -0.141591,-0.103969 -0.060656,-0.08141 -0.053437,-0.134011 0.025919,-0.198975 0.022811,-0.01867 0.046853,-0.03627 0.067774,-0.05696 0.1935566,-0.191677 0.4273676,-0.315789 0.6851238,-0.392024 0.401433,-0.118762 0.8060032,-0.09322 1.2068062,0.0047 0.291428,0.07097 0.583798,0.135879 0.879515,0.185716 0.412203,0.06926 0.827646,0.119219 1.235562,0.213219 0.405615,0.09354 0.79659,0.225545 1.153999,0.443992 0.03932,0.02412 0.08187,0.03518 0.124954,0.04343 0.147021,0.02786 0.294983,0.01091 0.442632,0.0047 0.03273,-0.0013 0.05972,-0.01399 0.05009,-0.05464 -0.02993,-0.127161 -0.06328,-0.249374 -0.192535,-0.320908 -0.109793,-0.06071 -0.212689,-0.134167 -0.317671,-0.203383 -0.471912,-0.310776 -0.974252,-0.557241 -1.512249,-0.73343 C 12.020933,88.462026 11.718527,88.360293 11.43222,88.220912 10.950064,87.98606 10.491227,87.709167 10.033428,87.430283 9.6546879,87.199507 9.2774108,86.9659 8.8855983,86.757071 8.3553411,86.474436 7.8051097,86.239473 7.2315597,86.059718 6.653828,85.878719 6.0633372,85.763277 5.4593602,85.715168 5.3840887,85.708952 4.7177707,85.3586 3.9389579,85.391223 c -0.7789194,0.03268 -1.3180676,0.443262 -1.4704184,0.509551 -0.2509636,0.10926 -0.4969033,0.231211 -0.7554981,0.321346 -0.088897,0.03097 -0.1437846,0.08202 -0.1794386,0.165731 -0.037122,0.08732 -0.034191,0.101952 0.052701,0.143503 0.030436,0.01399 0.061481,0.02242 0.095672,0.02507 0.2245077,0.01634 0.4368841,0.08078 0.6379653,0.178073 0.3832361,0.185404 0.7325944,0.430094 1.1004616,0.642564 0.1155524,0.06677 0.1274731,0.14117 0.046536,0.246994 0.2306595,1.802868 1.2735632,3.448736 3.3402843,3.455522 0.058043,-0.04856 0.053742,-0.04731 0.1024722,0.01664 0.044341,0.05853 0.085764,0.122023 0.1480652,0.163133 0.053856,0.0355 0.093173,0.0789 0.1274743,0.134012 0.062851,0.10086 0.1493249,0.158212 0.2791945,0.129184 0.1074962,-0.02412 0.1532947,-0.0047 0.1977345,0.102726 0.083658,0.201606 0.2069388,0.383867 0.2781491,0.591435 0.038391,0.111746 0.088047,0.219584 0.1419945,0.325298 0.098933,0.193981 0.1940768,0.390562 0.2819108,0.589133 0.12234,0.276782 0.2378911,0.557348 0.3396338,0.843129 0.09925,0.278667 0.2217914,0.548664 0.3121361,0.830787 0.019969,0.06241 0.025298,0.121401 0.00368,0.184128 -0.012915,0.03767 -0.00266,0.193249 -0.085954,0.220331 -0.04089,-0.08778 -0.1112515,-0.151909 -0.1945995,-0.174308 -0.1173286,-0.03144 -0.2247144,0.02599 -0.2458369,0.141016 -0.024892,0.134943 0.0071,0.257328 0.1131546,0.351244 0.074561,0.06598 0.16375,0.08998 0.2566068,0.04919 0.08962,-0.03921 0.1069761,-0.124357 0.1086381,-0.191257 -1.041e-4,-0.04546 -0.00799,-0.08793 -0.020477,-0.127629 0.036906,-0.01091 0.074967,-0.01604 0.076236,0.01744 0.00228,0.06475 0.029903,0.168765 0.072556,0.247508 0.043592,0.08031 0.072772,0.169823 0.098818,0.258074 0.045064,0.152999 0.093388,0.303866 0.1755678,0.441798 0.026681,0.04466 0.045597,0.0923 0.05699,0.143816 0.011164,0.05043 0.022063,0.102269 0.043402,0.148797 0.1775533,0.386591 0.3305334,0.783424 0.4933459,1.176179 0.2338122,0.563824 0.4686692,1.127119 0.6936952,1.694602 0.269994,0.680737 0.544483,1.359677 0.819597,2.038317 0.02959,0.0731 0.01601,0.12592 -0.03493,0.1806 -0.04392,0.0471 -0.105936,0.0695 -0.149434,0.11391 -0.150789,0.15363 -0.327713,0.27605 -0.490523,0.41513 -0.376024,0.32101 -0.715552,0.67289 -0.9747735,1.09826 -0.2842136,0.46637 -0.4758836,0.96882 -0.5892336,1.50034 -0.1146009,0.53748 -0.1587349,1.0807 -0.1155524,1.63135 0.04788,0.60827 0.199725,1.186 0.4548652,1.73948 0.2214754,0.48068 0.5058953,0.91882 0.8640373,1.30751 0.212897,0.23118 0.449534,0.43708 0.701539,0.62655 0.405303,0.3046 0.842495,0.5472 1.319636,0.71901 0.06327,0.0228 0.138976,0.0313 0.177345,0.10226 0.0077,0.0139 0.02717,0.0127 0.03953,0.004 0.03629,-0.0285 0.07059,-0.009 0.105188,10e-4 0.28233,0.0775 0.568321,0.1371 0.859959,0.16384 0.246153,0.0226 0.49157,0.0363 0.740648,0.0218 0.318822,-0.0185 0.634512,-0.0523 0.943402,-0.12762 0.812276,-0.19794 1.531597,-0.57868 2.162239,-1.12693 0.07253,-0.0632 0.136032,-0.14054 0.217388,-0.18788 0.09105,-0.0528 0.124522,-0.14709 0.194292,-0.21313 0.121554,-0.11469 0.226698,-0.24447 0.323104,-0.37958 0.158634,-0.22199 0.305966,-0.45131 0.426219,-0.69818 0.173794,-0.3568 0.324986,-0.72141 0.417643,-1.10789 0.126691,-0.52837 0.176718,-1.06345 0.144438,-1.6071"
       style="display:inline;fill:#000000;fill-opacity:0.977716;fill-rule:nonzero;stroke:none;stroke-width:0.104567"
       id="path3510"
       inkscape:label="banjo" />
  </g>
</svg>
