<?xml version="1.0" encoding="UTF-8" standalone="no"?>
<!-- Created with Inkscape (http://www.inkscape.org/) -->

<svg
   width="11.5495mm"
   height="6.5631709mm"
   viewBox="0 0 11.5495 6.563171"
   version="1.1"
   id="svg5"
   xml:space="preserve"
   inkscape:version="1.2 (dc2aeda, 2022-05-15)"
   sodipodi:docname="bird-body-fiddle.svg"
   inkscape:export-filename="bird-fiddle-wings.svg"
   inkscape:export-xdpi="300"
   inkscape:export-ydpi="300"
   xmlns:inkscape="http://www.inkscape.org/namespaces/inkscape"
   xmlns:sodipodi="http://sodipodi.sourceforge.net/DTD/sodipodi-0.dtd"
   xmlns="http://www.w3.org/2000/svg"
   xmlns:svg="http://www.w3.org/2000/svg"><sodipodi:namedview
     id="namedview7"
     pagecolor="#ffffff"
     bordercolor="#000000"
     borderopacity="0.25"
     inkscape:showpageshadow="2"
     inkscape:pageopacity="0.0"
     inkscape:pagecheckerboard="0"
     inkscape:deskcolor="#d1d1d1"
     inkscape:document-units="mm"
     showgrid="false"
     inkscape:zoom="12.500449"
     inkscape:cx="25.759075"
     inkscape:cy="25.59908"
     inkscape:window-width="1857"
     inkscape:window-height="968"
     inkscape:window-x="14"
     inkscape:window-y="25"
     inkscape:window-maximized="0"
     inkscape:current-layer="svg5" /><defs
     id="defs2" /><path
     d="m 11.704307,16.040885 c -0.0392,0.06 -0.0991,0.0836 -0.17286,0.0759 -0.0833,-0.008 -0.13688,-0.0568 -0.17815,-0.11818 -0.10972,-0.16158 -0.20144,-0.33161 -0.26847,-0.51329 -0.0335,-0.091 -0.0653,-0.18204 -0.10054,-0.27235 -0.0226,-0.0575 -0.0649,-0.10266 -0.11077,-0.14534 -0.006,-0.005 -0.0113,-0.0162 -0.009,-0.0215 0.0349,-0.0804 0.0377,-0.1644 0.0353,-0.24871 -0.006,-0.21696 -0.0529,-0.4258 -0.14005,-0.62548 -0.0201,-0.0462 -0.0466,-0.0896 -0.0723,-0.13829 -0.0868,0.0914 -0.23812,0.0684 -0.28293,-0.03 -0.0258,-0.0557 -0.0229,-0.11113 0.0176,-0.16193 0.0406,-0.0504 0.0953,-0.0691 0.15981,-0.0642 0.0766,0.006 0.13159,0.0452 0.16969,0.1023 0.0575,0.0854 0.11042,0.17392 0.16086,0.26318 0.0854,0.15134 0.1397,0.31467 0.19509,0.4773 0.0268,0.0797 0.0709,0.14852 0.13547,0.20567 0.007,0.006 0.0116,0.0194 0.009,0.0261 -0.0272,0.0639 -0.0349,0.13088 -0.0342,0.19755 0.004,0.25789 0.0536,0.50589 0.17251,0.73802 0.012,0.0233 0.0268,0.0452 0.037,0.0621 0.0377,-0.0155 0.0705,-0.0353 0.10618,-0.0427 0.0706,-0.0145 0.12877,0.009 0.16898,0.0653 0.0388,0.0543 0.0388,0.11289 0.002,0.16863 m -3.1686502,-1.64183 c -0.0325,0.0635 -0.10654,0.10337 -0.1778,0.0949 -0.0176,-0.002 -0.0346,-0.008 -0.0579,-0.0145 -0.005,0.0459 -0.013,0.0914 -0.0152,0.13687 -0.009,0.18027 0.0169,0.35596 0.0649,0.52846 0.0272,0.0974 0.06,0.19297 0.11712,0.2787 0.007,0.01 0.0116,0.0219 0.0212,0.0286 0.0335,0.0243 0.031,0.0497 0.0134,0.085 -0.048,0.0949 -0.0399,0.19509 -0.0325,0.29457 0.0169,0.23142 0.002,0.46179 -0.0455,0.69074 -0.008,0.0406 -0.0219,0.0818 -0.0416,0.11889 -0.0409,0.078 -0.13053,0.11994 -0.21061,0.10442 -0.0959,-0.0187 -0.15099,-0.11148 -0.11959,-0.20144 0.03,-0.0864 0.13688,-0.13511 0.22437,-0.10265 0.004,0.001 0.007,0.003 0.0148,0.006 0.003,-0.0145 0.007,-0.0282 0.009,-0.042 0.0194,-0.13053 0.0138,-0.2607 -0.006,-0.38982 -0.0236,-0.15487 -0.0582,-0.30727 -0.12982,-0.44838 -0.0212,-0.0423 -0.054,-0.079 -0.0808,-0.11889 -0.004,-0.006 -0.008,-0.0173 -0.006,-0.0226 0.0575,-0.10302 0.0575,-0.21202 0.0487,-0.32244 -0.0191,-0.24024 -0.003,-0.47943 0.048,-0.71755 0.0162,-0.0773 0.048,-0.14641 0.12805,-0.18698 0.0674,-0.0342 0.14817,-0.0265 0.19968,0.0201 0.0497,0.0455 0.0639,0.1203 0.0335,0.18027 m 4.6351502,1.7967 c -0.0497,-0.56797 -0.22225,-1.09079 -0.5581,-1.55998 -0.0896,-0.12524 -0.15063,-0.14006 -0.26388,-0.0568 -0.1912,0.14111 -0.37182,0.084 -0.53904,-0.0455 -0.34043,-0.26423 -0.50518,-0.63147 -0.56409,-1.04422 -0.0374,-0.26 0.0794,-0.43568 0.32985,-0.49707 0.14428,-0.0353 0.19861,-0.10195 0.17356,-0.22754 -0.054,-0.27269 -0.085,-0.55844 -0.19332,-0.80962 -0.3108,-0.72143 -0.8442,-1.24601 -1.54023,-1.60338 -0.2741102,-0.1404 -0.5517402,-0.27375 -0.8311402,-0.4028698 -0.16616,-0.0765 -0.1591,-0.20637 -0.25224,-0.39299 -0.0399,-0.24836 -0.10795,-0.4826 -0.16333,-0.72708 -0.23778,-1.04634 -0.4445,-2.08597 -0.6149,-3.14678 -0.0215,-0.1344 -0.13617,-0.23459 0.0716,-0.15204 0.0437,0.0173 0.11465,0.0102 0.15381,-0.0155 0.0374,-0.0243 0.06,-0.0854 0.0684,-0.13405 0.003,-0.0169 -0.0564,-0.0653 -0.0857,-0.0639 -0.0815,0.004 -0.16192,0.0353 -0.24341,0.0367 -0.043,7.1e-4 -0.10584,-0.0268 -0.12665,-0.0614 -0.0575,-0.0949 -0.0572,-0.19015 0.0695,-0.2353 0.21696,-0.078 0.375,-0.19262 0.32385,-0.46143 -0.005,-0.0289 0.0303,-0.09 0.0571,-0.0974 0.3683,-0.0981 0.35948,-0.45297 0.47342,-0.71402 0.0783,-0.17992 -0.0444,-0.32244 -0.24341,-0.33056 -0.1397,-0.006 -0.28011,0.004 -0.42051,0.007 -0.16828,0.003 -0.3362,0.008 -0.50448,0.005 -0.0321,-3.5e-4 -0.0639,-0.0325 -0.096,-0.0501 -0.51407,-1.22428 0.2763,-2.26013 -2.5175,-0.70741 -0.0681,0.002 -0.37853,0.06 -0.43568,0.0935 -0.11748,0.0684 -0.0437,0.25047 -0.11712,0.3556 0.10912,0.72449 0.72137,1.01183 1.20435,1.31106 0.16016,-0.0709 0.23566,-0.0258 0.23178,0.15029 -0.004,0.1658 -0.0385,0.33125 -0.0617,0.49671 -0.0265,0.18803 0.0317,0.28822 0.20461,0.28469 0.24906,-0.005 0.49706,-0.0392 0.74613,-0.0579 0.13652,-0.0102 0.2734,-0.0194 0.41028,-0.0226 0.0441,0.11112 0.0755,0.19967 0.0561,0.20461 -0.0864,0.0229 -0.18168,0.0113 -0.26988,0.0296 -0.0236,0.005 -0.0526,0.0684 -0.0483,0.10089 0.004,0.0296 0.0452,0.0649 0.078,0.0776 0.0363,0.0141 0.0829,0.0127 0.12312,0.006 0.2614,-0.0406 0.22013,-0.0353 0.29068,0.20708 0.0392,0.1337 0.0688,0.2988 0.0935,0.43568 0.10548,0.59019 0.21872,1.10807 0.32526,1.69792 0.0889,0.49388 0.19509,1.05657 0.27834,1.55151 0.0268,0.15981 0.10513,0.2981 -0.0275,0.4469698 -0.13053,0.14605 -0.24271,0.30939 -0.37959,0.44838 -0.31715,0.32279 -0.57574,0.68898 -0.7867,1.08444 -0.369,0.69321 -0.34537,1.42769 -0.17145,2.16747 0.01,0.0406 0.10125,0.0878 0.15452,0.0875 0.37536,-0.002 0.47484,0.073 0.6036,0.41733 0.17251,0.46179 -0.006,0.85055 -0.23812,1.22626 -0.0356,0.0575 -0.14041,0.0843 -0.21837,0.10019 -0.11995,0.025 -0.28575,-0.0145 -0.35454,0.0526 -0.0698,0.0684 -0.0459,0.23319 -0.0635,0.3556 -0.002,0.0138 -0.006,0.0272 -0.009,0.0409 -0.14429,0.60078 0.0173,1.16523 0.22895,1.7145 0.1965,0.50941 0.56056,0.90488 0.97543,1.24531 0.55033,0.4512 1.19063,0.66005 1.90359,0.62406 0.12418,-0.006 0.2462402,-0.048 0.3707702,-0.0614 0.2413,-0.0257 0.30092,0.0233 0.33196,0.25753 0.0131,0.097 0.0148,0.19579 0.0349,0.29069 0.007,0.0328 0.0533,0.0571 0.0815,0.0854 0.0212,-0.0286 0.0522,-0.0543 0.0603,-0.0861 0.0102,-0.0392 10e-4,-0.0833 10e-4,-0.12524 -7e-4,-0.15345 -0.0571,-0.34466 0.0138,-0.44873 0.0695,-0.10195 0.26741,-0.11924 0.41134,-0.1658 0.49071,-0.15911 0.90664,-0.43851 1.24142,-0.82374 0.58879,-0.67698 0.84067,-1.4725 0.76236,-2.36855"
     style="display:none;fill:#000000;fill-opacity:1;fill-rule:nonzero;stroke:none;stroke-width:0.352778"
     id="path1835-0"
     inkscape:label="body"
     sodipodi:nodetypes="cccsccscsccccccccccsccsccsccscccccccccccccscscscccscccsccccccsscscscccccccccccccccsscccssccccsccccccsccsccccccscccsccc" /><path
     id="path1891"
     style="display:inline;fill:#000000;fill-opacity:1;fill-rule:nonzero;stroke:none;stroke-width:0.352778"
     inkscape:label="wings"
     d="M 11.309577,5.1552998e-6 C 11.090497,0.10583516 10.871487,0.21182516 10.652767,0.31730516 c 0.002,-0.0374 0.002,-0.0746 0.007,-0.11162 0.005,-0.0363 0.0177,-0.0721 0.0269,-0.10801 -0.0374,0.006 -0.0843,-0.001 -0.1111,0.0181 -0.15593,0.11677 -0.29847,0.25356 -0.46251,0.35657 -0.1608702,0.10125 -0.3487802,0.24633 -0.5121102,0.23151 -0.15946,-0.0141 -0.25972,0.0333 -0.37931,0.0904 -0.14958,0.0716 -0.29471,0.15508 -0.44958,0.21187004 -0.34008,0.12524 -0.68405,0.23917 -1.02836,0.35347 -0.47132,0.15592 -0.88968,0.38274 -1.22835,0.76584 -0.61903,0.54759 -1.94301,1.36975 -2.77709,1.50017 -0.27058,0.0466 -0.55127,0.13314 -0.78445,0.27389 -0.42863,0.25859 -0.8269,0.56779 -1.23507,0.85989 -0.39617,0.28363 -0.79344002,0.56672 -1.18184002,0.86093 -0.17392,0.13159 -0.32778,0.28992 -0.49041,0.43667 -0.0173,0.0159 -0.031,0.0357 -0.04650000161,0.0537 0.02470000161,0.01 0.05040000161,0.0292 0.07440000161,0.0274 0.0402,-0.003 0.0793,-0.022 0.11989,-0.0284 0.0497,-0.008 0.0999,-0.009 0.15038,-0.0134 -0.0293,0.0444 -0.0631,0.086 -0.0868,0.13333 -0.0646,0.12877 -0.037,0.16189 0.12454,0.15554 0.0494,-0.002 0.1407,-0.0162 0.14211,-0.009 0.0705,0.33867 0.26958,0.1295 0.35037,0.0501 0.21061002,-0.20743 0.50299002,-0.21355 0.73794002,-0.35502 0.14005,-0.084 0.30713,-0.14026 0.4687,-0.16743 0.5842,-0.0988 1.1228,-0.3105 1.62833,-0.61495 0.0462,-0.0279 0.10009,-0.0591 0.15089,-0.0594 0.32068,-0.001 0.58762,-0.15676 0.86455,-0.28835 0.35101,-0.16722 0.70463,-0.32978 1.05988,-0.48783 0.16016,-0.0709 0.45989,-0.36993 0.45601,-0.19385 0.54436,-0.34106 0.21507,-0.7184 1.50558,-0.80858 -0.0321,-3.5e-4 -0.064,-0.0325 -0.0961,-0.0501 0.0141,-0.0236 0.0249,-0.0505 0.0429,-0.0703 0.0282,-0.031 0.0567,-0.067 0.093,-0.0847 0.4258,-0.20567 0.81445,-0.47211 1.20251,-0.73845 0.1845,-0.12665 0.35032,-0.28305 0.54364,-0.39171 0.37006,-0.20778 0.6746602,-0.49089 0.9932202,-0.76429 0.23812,-0.2039 0.5259,-0.34993 0.79013,-0.52349004 0.10866,-0.0713 0.38067,-0.0763 0.13126,-0.30592 -0.004,-0.003 0.0462,-0.0627 0.0687,-0.0977 0.0459,-0.0706 0.007,-0.1144 -0.0563,-0.0925 -0.15734,0.054 -0.30641,0.13019 -0.46199,0.19017 -0.0452,0.0173 -0.0997,0.01 -0.14986,0.0134 0.0247,-0.0335 0.0474,-0.0689 0.0749,-0.10025 0.12877,-0.14499 0.34844,-0.21023 0.38654,-0.4346000047 z"
     sodipodi:nodetypes="cccccccccccccccccscccsccccsccccccscsccscccccccc"
     sodipodi:insensitive="true" /></svg>
