<?xml version="1.0" encoding="UTF-8" standalone="no"?>
<!-- Created with Inkscape (http://www.inkscape.org/) -->

<svg
   width="11.357117mm"
   height="4.3995056mm"
   viewBox="0 0 11.357117 4.3995057"
   version="1.1"
   id="svg3339"
   xml:space="preserve"
   xmlns="http://www.w3.org/2000/svg"
   xmlns:svg="http://www.w3.org/2000/svg"><defs
     id="defs3336" /><g
     id="layer2"
     style="display:none"
     transform="translate(-686.87927,-339.07914)"><path
       d="m 691.29783,346.63787 -0.0185,0.0253 0.0278,0.004 z m 0.15729,0.78598 c -0.0151,-0.0287 -0.0302,-0.057 -0.0453,-0.0852 -0.0292,0.018 -0.0584,0.0365 -0.0877,0.0545 0.0229,0.0341 0.0463,0.0682 0.0692,0.10276 0.0214,-0.0243 0.0424,-0.0482 0.0638,-0.0721 m 0.19041,-1.75215 c -0.0984,-0.0317 -0.16654,-0.0687 -0.23472,-0.0696 -0.0355,-4.9e-4 -0.10714,0.073 -0.10081,0.0959 0.0166,0.0599 0.0672,0.11055 0.10422,0.16509 0.0394,-0.0326 0.0784,-0.0648 0.23131,-0.19139 m 2.8498,12.12821 c 0.01,-0.46068 -0.30095,-0.76553 -0.79621,-0.7816 -0.46311,-0.0146 -0.84978,0.31215 -0.87072,0.7368 -0.0248,0.49136 0.25762,0.79669 0.75628,0.81666 0.46361,0.0195 0.9014,-0.3516 0.91065,-0.77186 m -3.14734,-10.73983 c 0.0536,-0.007 0.11493,-9.7e-4 0.15924,-0.0253 0.0516,-0.0292 0.0886,-0.0847 0.12954,-0.131 0.002,-0.003 -0.0239,-0.0419 -0.0302,-0.0399 -0.0623,0.0175 -0.13294,0.0278 -0.18115,0.0657 -0.0365,0.0287 -0.0438,0.095 -0.0643,0.14463 -0.0185,0.002 -0.039,0 -0.0545,0.008 -0.01,0.004 -0.0127,0.0243 -0.0185,0.037 0.02,-0.0195 0.0399,-0.0394 0.0599,-0.0589 m -0.92867,0.69687 c -0.25907,-0.28537 -0.11054,-0.52058 0.092,-0.74849 0.0385,-0.0433 0.0784,-0.0857 0.11931,-0.12661 0.67349,-0.6657 0.67398,-0.66619 0.0326,-1.38205 -0.12905,-0.14366 -0.25762,-0.28878 -0.39592,-0.42367 -0.47334,-0.46214 -1.0173,-0.4899 -1.55784,-0.10032 -0.14902,0.10762 -0.41199,0.29316 -0.4714,0.2469 -0.20842,-0.16168 0.0662,-0.32481 0.0915,-0.50208 0.0297,-0.20842 0.12711,-0.41636 0.11347,-0.61943 -0.0214,-0.31849 0.479,-0.97984 0.74002,-1.13762 0.36183,-0.21817 0.9732,-0.2911 1.31188,-0.29107 0.92101,6e-5 1.53591,0.065 2.40662,0.23491 0.18651,0.22401 0.75609,1.26254 0.74927,1.5893 -0.004,0.1948 0.16947,0.23424 0.32774,0.25908 0.7032,0.11103 1.40688,0.22011 2.1091,0.33504 0.0648,0.0102 0.1237,0.0565 0.18505,0.0857 -0.0404,0.0594 -0.0677,0.14755 -0.12369,0.17336 -0.48405,0.22742 -0.95496,0.53568 -1.4658,0.64184 -0.79232,0.1646 -1.61629,0.28878 -2.37938,-0.20502 -0.31605,-0.20404 -0.46945,-0.0731 -0.45581,0.31849 0.004,0.0974 -0.0321,0.20794 -0.0833,0.29218 -0.0818,0.13441 -0.10129,0.24982 0.0239,0.35939 0.10957,0.0959 0.1948,0.24641 0.38959,0.11444 0.0516,-0.0346 0.2503,0.0287 0.26102,0.0755 0.0385,0.16606 -0.0604,0.26054 -0.23278,0.21184 -0.14901,-0.0419 -0.23229,-0.0146 -0.20745,0.15048 0.02,0.13051 0.0881,0.21719 0.23911,0.13294 0.0336,-0.0185 0.0784,-0.0531 0.10372,-0.0433 0.0799,0.0312 0.15291,0.0794 0.2284,0.12126 -0.0653,0.0701 -0.12224,0.15242 -0.19967,0.20502 -0.0326,0.0224 -0.10811,-0.0185 -0.16411,-0.0307 -0.017,0.0876 -0.0341,0.17531 -0.0511,0.26297 0.0755,0.005 0.17142,0.0429 0.22304,0.01 0.1607,-0.10275 0.27611,-0.0502 0.31069,0.10373 0.0317,0.14074 -0.0219,0.28391 -0.22547,0.20745 -0.10957,-0.0409 -0.20161,-0.0317 -0.1982,0.10227 0.009,0.37741 -0.1125,0.73631 -0.007,1.13612 0.43731,1.66498 0.82007,3.34457 1.23206,5.01637 0.10178,0.41442 0.11639,0.40565 0.55564,0.33942 0.63697,-0.0964 1.22427,-0.0268 1.70443,0.47529 0.30144,0.31557 0.44217,0.67155 0.38714,1.1035 -0.0321,0.24884 -0.0472,0.50353 -0.11444,0.74313 -0.12417,0.4412 0.038,0.74215 0.3818,1.00123 0.32189,0.24251 0.63843,0.49671 0.92866,0.77575 1.19018,1.14246 1.01341,3.11131 -0.21816,4.17292 -1.28514,1.10739 -2.76604,1.39471 -4.37648,0.95156 -1.16875,-0.32092 -2.33117,-1.64794 -2.03801,-3.17559 0.0998,-0.52009 0.33748,-1.02898 0.59071,-1.50038 0.24398,-0.45338 0.2469,-0.82299 -0.0735,-1.22572 -0.17824,-0.22304 -0.33992,-0.47481 -0.44364,-0.73973 -0.27709,-0.70806 -0.0507,-1.40152 0.59216,-1.82373 0.22061,-0.14512 0.48163,-0.23862 0.73534,-0.31946 0.41345,-0.13197 0.43633,-0.14512 0.34868,-0.56343 -0.22206,-1.06016 -0.45094,-2.11933 -0.66862,-3.18046 -0.13636,-0.66375 -0.28586,-1.32702 -0.37546,-1.99759 -0.0507,-0.37887 -0.3516,-0.5907 -0.47627,-0.91114 -0.0112,-0.0282 -0.14025,-0.0448 -0.18554,-0.018 -0.14463,0.0862 -0.27319,0.0954 -0.31118,-0.0842 -0.0399,-0.18797 0.0862,-0.23911 0.24787,-0.18067 0.11834,0.0424 0.19772,0.0185 0.18213,-0.11201 -0.0365,-0.30387 -0.0876,-0.60677 -0.14171,-0.90821 -0.007,-0.0414 -0.0643,-0.0735 -0.0984,-0.11006 -0.0243,0.0487 -0.0769,0.10373 -0.0682,0.14512 0.036,0.16168 0.0701,0.30972 -0.15243,0.35501 z"
       style="display:inline;fill:#000000;fill-opacity:1;fill-rule:nonzero;stroke:none;stroke-width:0.486979"
       id="path4065-9" /></g><g
     id="g4174"
     style="display:inline"
     transform="translate(-686.87927,-339.07914)"><path
       id="path4172"
       style="display:inline;fill:#000000;fill-opacity:1;fill-rule:nonzero;stroke:none;stroke-width:0.486979"
       d="m 688.69026,339.07956 c -0.0682,0.0268 -0.15234,0.0364 -0.20154,0.0832 -0.15389,0.14609 -0.28609,0.31563 -0.44338,0.45734 -0.0945,0.0852 -0.21921,0.13583 -0.33073,0.20153 -0.0141,-0.1232 -0.0323,-0.24579 -0.0413,-0.36948 -0.003,-0.036 0.0324,-0.076 0.0284,-0.11111 -0.0117,-0.0823 -0.0363,-0.16311 -0.0563,-0.24391 -0.0526,0.0477 -0.12822,0.0853 -0.15452,0.1447 -0.19528,0.44265 -0.37763,0.89067 -0.56999,1.3348 -0.0803,0.18651 -0.0441,0.33963 0.10542,0.46819 0.131,0.11249 0.26302,0.22259 0.39791,0.33021 0.22304,0.17775 0.47092,0.33075 0.66766,0.53382 0.29462,0.30485 0.55942,0.63933 0.82579,0.97048 -0.50171,-0.60139 -0.20452,-0.26808 0.18517,0.24533 1.55278,0.49613 2.72675,0.41391 3.92634,0.10125 0.53665,-0.23424 1.42659,-0.48926 1.7178,-1.0449 0.0984,-0.18749 0.22141,-0.3642 0.35192,-0.53123 0.1047,-0.13441 0.21658,-0.28859 0.36122,-0.36019 0.48259,-0.23716 0.98104,-0.44305 1.47484,-0.65732 0.38861,-0.16898 0.78315,-0.32513 1.16737,-0.50385 0.0677,-0.0317 0.12264,-0.14141 0.13384,-0.22221 0.005,-0.0385 -0.10106,-0.12467 -0.16536,-0.13487 -0.26346,-0.0428 -0.53425,-0.10903 -0.79478,-0.0842 -0.43974,0.0414 -0.87126,0.1636 -1.31052,0.2191 -0.43584,0.0555 -0.87588,0.0916 -1.31465,0.0956 -0.32676,0.002 -0.59443,0.0691 -0.83354,0.3116 -0.46068,0.46798 -0.93847,0.91973 -1.42058,1.36581 -0.44996,0.41636 -0.49418,0.41202 -1.0542,0.11886 -0.13636,-0.0711 -0.2863,-0.11759 -0.42168,-0.19069 -0.0998,-0.0536 -0.25209,-0.11924 -0.26769,-0.20154 -0.0765,-0.39445 -0.37235,-0.44262 -0.68109,-0.49712 -0.18213,-0.0322 -0.30753,-0.0984 -0.12247,-0.29663 0.18456,-0.19676 0.0571,-0.28553 -0.1323,-0.27853 -0.2284,0.008 -0.45424,0.0695 -0.68264,0.0992 -0.0516,0.007 -0.151,-0.0168 -0.154,-0.0372 -0.009,-0.0648 -4.9e-4,-0.14587 0.0341,-0.19947 0.0511,-0.0794 0.1446,-0.13209 0.1943,-0.21239 0.0556,-0.0911 0.0826,-0.2005 0.12196,-0.30179 -0.10471,0.002 -0.20949,0.004 -0.31419,0.008 -0.018,10e-4 -0.0342,0.0193 -0.0522,0.0243 -0.10616,0.0288 -0.2132,0.0559 -0.31936,0.0837 0.037,-0.0998 0.0736,-0.19981 0.11162,-0.29921 0.0209,-0.0541 0.0611,-0.10661 0.0631,-0.16071 0.003,-0.0857 -0.0183,-0.1727 -0.0295,-0.2589 z" /></g></svg>
