<?xml version="1.0" encoding="UTF-8" standalone="no"?>
<!-- Created with Inkscape (http://www.inkscape.org/) -->

<svg
   width="3.6881804mm"
   height="4.2086201mm"
   viewBox="0 0 3.6881806 4.2086202"
   version="1.1"
   id="svg35731"
   xml:space="preserve"
   sodipodi:docname="bird-banjo-body.svg"
   xmlns:inkscape="http://www.inkscape.org/namespaces/inkscape"
   xmlns:sodipodi="http://sodipodi.sourceforge.net/DTD/sodipodi-0.dtd"
   xmlns="http://www.w3.org/2000/svg"
   xmlns:svg="http://www.w3.org/2000/svg"><sodipodi:namedview
     id="namedview35733"
     pagecolor="#ffffff"
     bordercolor="#000000"
     borderopacity="0.25"
     inkscape:showpageshadow="2"
     inkscape:pageopacity="0.0"
     inkscape:pagecheckerboard="0"
     inkscape:deskcolor="#d1d1d1"
     inkscape:document-units="mm"
     showgrid="false" /><defs
     id="defs35728" /><g
     inkscape:label="Ciseal 1"
     inkscape:groupmode="layer"
     id="layer1"
     transform="translate(-88.377127,-42.300943)"><g
       id="g35860"
       transform="matrix(0.1904398,0,0,0.1904398,47.596376,41.990008)"><path
         id="path3513"
         style="display:inline;fill:#000000;fill-opacity:1;fill-rule:nonzero;stroke:none;stroke-width:0.352778"
         d="m 222.49233,1.659908 c 0.38981,0.225072 -1.18625,0.536395 -1.4593,0.893406 -0.26493,0.346428 -0.55641,0.672324 -0.84181,1.002524 -0.8008,0.926391 -1.55766,1.884464 -2.16938,2.950205 -0.49212,0.858308 -0.85387,1.775382 -1.22111,2.688724 -0.67063,1.666876 -1.28751,3.354022 -1.87947,5.049821 -0.35278,1.011061 -0.78699,1.999682 -0.78135,3.10317 0.001,0.175683 0.0176,0.305657 0.15555,0.427365 0.30903,0.272698 0.43059,0.626675 0.42529,1.037661 -0.003,0.240594 -0.048,0.47051 -0.0966,0.702285 -0.11571,0.549624 -0.23641,1.098473 -0.34365,1.649511 -0.0607,0.311856 -0.0339,0.329198 0.27544,0.218073 0.24588,-0.08855 0.48298,-0.206805 0.7338,-0.275949 0.44309,-0.121709 0.66295,-0.02392 0.92295,0.350364 0.0871,0.125942 0.13864,0.257772 0.16898,0.408761 0.042,0.206374 0.0899,0.414189 0.19895,0.601514 0.11818,0.2032 0.28376,0.299857 0.524,0.286805 0.24236,-0.01305 0.47173,-0.07681 0.68058,-0.187586 0.31362,-0.166864 0.56266,-0.104497 0.80925,0.135392 0.30339,0.295275 0.62437,0.572745 0.94258,0.852145 0.21695,0.190144 0.29442,0.188204 0.51315,-0.0072 0.14851,-0.132644 0.28391,-0.275794 0.37775,-0.458886 0.1016,-0.198966 0.22192,-0.391417 0.38137,-0.550873 0.19791,-0.197908 0.41322,-0.216224 0.64182,-0.05994 0.11395,0.07832 0.19122,0.190426 0.2713,0.304373 0.17886,0.254353 0.31405,0.541211 0.54829,0.754994 0.32209,0.293158 0.64335,0.257951 0.8723,-0.113171 0.12418,-0.200731 0.22533,-0.41711 0.31988,-0.634069 0.21837,-0.50165 0.41677,-1.012355 0.64078,-1.511536 0.33444,-0.745772 0.79661,-1.351894 1.60094,-1.681035 0.99836,-0.408517 1.86131,-1.057141 2.69493,-1.732711 0.7754,-0.628649 1.49777,-1.316671 2.19521,-2.031399 0.54822,-0.561975 0.7453,-0.816744 1.70739,-1.621607 3.11975,-11.637673 0.29172,-12.793274 -9.80978,-12.551131 z" /><path
         d="m 266.49856,69.734767 c -0.10583,0.172862 -0.25894,0.172862 -0.39476,0.01905 -0.085,-0.09631 -0.12912,-0.205316 -0.1397,-0.336902 -0.0325,-0.409223 -0.0596,-0.819856 -0.11994,-1.22555 -0.0339,-0.227895 0.10936,-0.347486 0.22401,-0.484364 0.0399,-0.04763 0.14605,-0.03845 0.24447,-0.0011 0.0988,0.03704 0.18945,0.102306 0.19827,0.16757 0.0579,0.431094 0.10442,0.8636 0.15557,1.295753 0.0134,0.20955 -0.0639,0.395464 -0.16792,0.565502 m -0.0476,3.39972 c -0.0409,0.27305 -0.33161,0.358775 -0.43956,0.5842 -0.0116,0.02364 -0.0349,0.02928 -0.0596,0.02364 -0.0247,-0.0056 -0.0508,-0.02223 -0.0677,-0.04269 -0.0822,-0.09984 -0.16475,-0.190853 -0.18486,-0.319264 -0.007,-0.04269 -0.006,-0.08961 0.003,-0.14217 0.0515,-0.288572 0.0995,-0.577497 0.1397,-0.867833 0.0402,-0.290336 0.0727,-0.58173 0.0935,-0.874536 0.002,-0.02258 0.004,-0.0448 0.007,-0.06703 0.004,-0.02716 0.009,-0.05398 0.0166,-0.07973 0.0145,-0.04657 0.0367,-0.09031 0.0727,-0.129822 0.025,-0.02716 0.0519,-0.05292 0.0797,-0.0762 0.03,-0.02505 0.0617,-0.04621 0.0981,-0.05539 0.0236,-0.0056 0.0483,-0.0067 0.0755,-0.0018 0.0529,0.0095 0.0769,0.04304 0.0907,0.08396 0.0138,0.04092 0.0173,0.08925 0.0293,0.128059 0.0871,0.286102 0.1517,0.577144 0.1905,0.879122 -0.0476,0.317147 -0.096,0.637117 -0.14428,0.957439 m -0.70027,2.634191 c -0.009,0.05821 -0.0233,0.119239 -0.0413,0.182034 -0.036,0.125236 -0.0871,0.25788 -0.1464,0.391583 -0.0293,0.06668 -0.0607,0.133703 -0.0931,0.200025 -0.0268,0.05539 -0.0568,0.109008 -0.0878,0.162278 -0.0928,0.159808 -0.1972,0.313972 -0.27023,0.486128 -0.10266,0.242358 -0.36336,0.233186 -0.5588,0.323144 -0.0505,0.02328 -0.0833,-0.01834 -0.10336,-0.06562 -0.007,-0.01552 -0.012,-0.03175 -0.0162,-0.04657 -0.008,-0.0321 -0.012,-0.06385 -0.0113,-0.09454 10e-4,-0.06209 0.0176,-0.121708 0.0395,-0.179916 0.0109,-0.02893 0.0229,-0.05786 0.0346,-0.08608 0.16757,-0.40005 0.33549,-0.8001 0.51329,-1.195564 0.0709,-0.157692 0.1651,-0.2921 0.31926,-0.352425 0.0512,-0.02011 0.10936,-0.0321 0.17533,-0.03387 0.0593,-0.0018 0.10478,-0.0021 0.14006,0.0032 0.0702,0.01023 0.0977,0.04233 0.10583,0.129823 0.004,0.04339 0.003,0.100894 7.1e-4,0.176388 m -1.52332,-13.75897 c -0.007,0.122414 0.0127,0.27305 -0.14288,0.309386 -0.1651,0.0381 -0.27199,-0.05362 -0.35807,-0.202142 -0.15628,-0.268816 -0.33267,-0.525991 -0.50659,-0.784225 -0.0875,-0.130528 -0.17956,-0.25788 -0.27093,-0.385586 -0.0536,-0.07514 -0.10654,-0.150636 -0.1591,-0.22613 -0.0176,-0.02575 -0.0353,-0.05115 -0.0519,-0.07726 -0.0335,-0.05186 -0.0621,-0.105833 -0.0776,-0.165805 -0.008,-0.03034 -0.0124,-0.06209 -0.0124,-0.0956 0,-0.108656 0.0212,-0.179211 0.0688,-0.220133 0.0476,-0.04127 0.12135,-0.05256 0.22683,-0.04269 0.23883,0.02222 0.42827,0.09913 0.57044,0.263172 0.0473,0.05468 0.0892,0.118886 0.12595,0.194028 0.10865,0.22225 0.26176,0.424391 0.40675,0.626886 0.036,0.04974 0.0702,0.09948 0.10054,0.149577 0.0903,0.150284 0.14323,0.304095 0.0804,0.47237 0,0.08431 0.002,0.134055 -3.5e-4,0.18415 m -0.36689,17.649472 c -0.0356,0.07973 -0.0794,0.154869 -0.12735,0.227541 -0.048,0.07232 -0.10019,0.14217 -0.15276,0.210961 -0.0843,0.110067 -0.1905,0.208845 -0.27058,0.321028 -0.0268,0.0374 -0.0505,0.0762 -0.0699,0.117475 -0.0822,0.178153 -0.20567,0.234597 -0.34113,0.251884 -0.13547,0.01764 -0.28293,-0.0039 -0.41311,0.01905 -0.037,0.0067 -0.0691,-0.0085 -0.0945,-0.03704 -0.0251,-0.02858 -0.0434,-0.07056 -0.0533,-0.118886 -0.005,-0.02399 -0.007,-0.04974 -0.007,-0.07585 -3.5e-4,-0.05221 0.009,-0.106892 0.03,-0.155575 0.0106,-0.02469 0.024,-0.04762 0.0406,-0.06844 0.16299,-0.2032 0.32103,-0.40887 0.4752,-0.619125 0.16121,-0.220134 0.32526,-0.43815 0.48083,-0.66287 0.0494,-0.07126 0.10266,-0.142875 0.16651,-0.200378 0.0236,-0.02152 0.049,-0.04127 0.0751,-0.05786 0.0529,-0.03351 0.11042,-0.05468 0.17145,-0.05327 0.0307,7.06e-4 0.0621,0.0071 0.0945,0.02046 0.0875,0.03669 0.0868,0.113594 0.0861,0.189441 -3.5e-4,0.02505 -7e-4,0.05009 0.002,0.07373 0.001,0.0092 7.1e-4,0.01658 0.001,0.0254 10e-4,0.02611 -3.5e-4,0.04868 -3.5e-4,0.04727 0.005,0.05221 0.006,0.102306 0.004,0.150636 -0.007,0.145345 -0.043,0.274814 -0.097,0.394406 m 1.19904,-15.454828 c 0.084,-0.04445 0.13864,0.01023 0.19508,0.06209 0.0187,0.01764 0.0374,0.03457 0.0579,0.04727 0.0413,0.02646 0.079,0.05468 0.11289,0.08502 0.0674,0.06032 0.11959,0.130175 0.15628,0.214489 0.0183,0.04233 0.0328,0.08855 0.0434,0.138994 0.0293,0.141817 0.14252,0.258586 0.22049,0.385234 0.0995,0.161572 0.17603,0.330905 0.18027,0.509411 0.001,0.07161 -0.009,0.144639 -0.0335,0.219075 -0.0123,0.03739 -0.0286,0.07514 -0.0487,0.113241 -0.0698,0.131939 -0.13794,0.185209 -0.24024,0.165453 -0.0342,-0.0063 -0.0723,-0.02117 -0.11501,-0.04374 -0.0342,-0.01799 -0.066,-0.03881 -0.0935,-0.0635 -0.0275,-0.02505 -0.0508,-0.05397 -0.0677,-0.08819 -0.0565,-0.115358 -0.10548,-0.233539 -0.14958,-0.352425 -0.0882,-0.238125 -0.15734,-0.480483 -0.2293,-0.715786 -0.0356,-0.117475 -0.0723,-0.233186 -0.11219,-0.345722 0.007,-0.149225 0.0138,-0.27305 0.12348,-0.330906 m -3.29424,-5.411611 c -0.14782,0.146403 -0.43745,0.170392 -0.61137,0.03351 -0.24377,-0.192616 -0.48154,-0.3937 -0.71437,-0.599722 -0.18662,-0.165453 -0.37289,-0.328789 -0.57997,-0.468842 -0.18768,-0.127 -0.26211,-0.382411 -0.19685,-0.591608 0.0427,-0.136525 0.14958,-0.150636 0.26706,-0.14605 0.23353,0.006 0.44167,0.08819 0.6163,0.236714 0.34078,0.290689 0.67345,0.590903 1.00824,0.888647 0.0462,0.04092 0.0871,0.08925 0.12559,0.137936 0.13088,0.1651 0.17286,0.422628 0.0854,0.509411 m -0.55845,23.899636 c -0.0378,0.1016 -0.11571,0.186972 -0.23566,0.26423 -0.14499,0.09384 -0.27622,0.210609 -0.40816,0.323145 -0.0586,0.04974 -0.11607,0.09913 -0.17886,0.127 -0.0314,0.01376 -0.0639,0.02258 -0.0988,0.02328 -0.0346,7.06e-4 -0.0713,-0.0063 -0.11112,-0.02364 -0.0222,-0.0021 -0.0346,-0.0039 -0.0469,-0.0042 -0.10196,-0.0032 -0.22931,0.05503 -0.32985,0.04939 -0.0607,-0.0032 -0.11148,-0.02963 -0.14147,-0.106539 -0.0854,-0.219075 0.1009,-0.432506 0.24413,-0.579967 0.0635,-0.06562 0.13617,-0.122061 0.20531,-0.182386 0.19156,-0.167922 0.39441,-0.324908 0.59973,-0.475897 0.21096,-0.15487 0.42121,-0.02928 0.49565,0.225072 0.0416,0.141464 0.0437,0.258939 0.006,0.360539 m -2.72698,-26.640044 c -0.0159,0.0388 -0.0476,0.08043 -0.0938,0.128411 -0.0233,0.02399 -0.0501,0.04939 -0.0804,0.0769 -0.0296,0.02681 -0.0589,0.05009 -0.0878,0.0702 -0.0871,0.06032 -0.1718,0.09102 -0.25823,0.09701 -0.0864,0.006 -0.17498,-0.01305 -0.26917,-0.05256 -0.0314,-0.01305 -0.0632,-0.02858 -0.0963,-0.04586 -0.14782,-0.07937 -0.29881,-0.153458 -0.45156,-0.224014 -0.15275,-0.07056 -0.30727,-0.136878 -0.46284,-0.200731 -0.21872,-0.0896 -0.32844,-0.252588 -0.39406,-0.440266 -0.0219,-0.0628 -0.0392,-0.128058 -0.0536,-0.194028 -0.0243,-0.111125 -0.009,-0.1905 0.0459,-0.241653 0.055,-0.05151 0.14994,-0.07444 0.28575,-0.07373 v 0 c 0.0505,0.01517 0.13653,0.03245 0.2159,0.06597 0.25859,0.109714 0.51259,0.228953 0.76271,0.355953 0.25012,0.127 0.49636,0.261761 0.73942,0.402519 0.14252,0.08255 0.2092,0.147814 0.20991,0.220134 3.5e-4,0.01799 -0.004,0.03669 -0.0116,0.05574 m -2.3301,29.798432 c -0.71685,-0.478014 -0.85372,-0.896055 0.15169,-0.896055 1.00648,0 0.5648,1.373716 -0.15169,0.896055 m -1.3328,-31.175319 c -0.007,0.04022 -0.0332,0.08467 -0.0713,0.128058 -0.0381,0.04304 -0.0882,0.08572 -0.14358,0.122414 -0.11113,0.07373 -0.24412,0.124884 -0.34643,0.1143 v 0 c -0.0868,-0.0085 -0.17321,-0.02187 -0.25929,-0.03916 -0.0857,-0.01693 -0.1711,-0.03739 -0.25506,-0.06068 -0.45896,-0.126647 -0.92816,-0.19438 -1.39806,-0.259292 -0.0617,-0.0085 -0.12453,-0.01482 -0.18379,-0.03316 -0.13194,-0.04127 -0.36125,-0.301272 -0.40887,-0.44203 -0.007,-0.02011 -0.01,-0.03775 -0.008,-0.05221 0.005,-0.0508 0.0642,-0.118181 0.14428,-0.182034 0.0268,-0.02117 0.0557,-0.04198 0.0857,-0.06209 0.0603,-0.03951 0.12488,-0.07444 0.1838,-0.09878 0.0586,-0.0247 0.11183,-0.03881 0.14958,-0.03598 0.7373,0.09596 1.43545,0.234598 2.12513,0.41275 0.23495,0.06068 0.4191,0.310092 0.38629,0.487892 m -2.53153,31.896049 c -0.0624,0.137231 -0.19615,0.269875 -0.31891,0.286103 -0.28223,0.03775 -0.56692,0.06209 -0.85126,0.08361 -0.13582,0.01023 -0.2734,0.0018 -0.41028,0.0018 v 0.02893 c -0.16122,0 -0.32314,-0.0078 -0.48365,0.0018 -0.23249,0.01376 -0.40676,-0.09384 -0.55739,-0.25012 -0.0483,-0.05009 -0.0822,-0.09172 -0.10301,-0.128763 -0.0522,-0.09313 -0.0222,-0.159456 0.0713,-0.267406 0.0183,-0.02152 0.0395,-0.0448 0.0632,-0.0702 0.055,-0.05962 0.11218,-0.106539 0.17109,-0.14358 0.17674,-0.111125 0.37254,-0.130528 0.59443,-0.118534 0.22225,0.01199 0.44627,-0.0134 0.66958,-0.02646 0.12453,-0.0071 0.24835,-0.01552 0.37041,-0.01235 0.0811,0.0025 0.16157,0.0099 0.2406,0.02681 0.11888,0.02575 0.23459,0.07232 0.34642,0.153458 0.0572,0.04163 0.11713,0.07585 0.16193,0.119945 0.0448,0.0441 0.0744,0.09807 0.0709,0.179916 -0.002,0.04269 -0.0145,0.0889 -0.0353,0.135114 m -3.88796,-31.91263 c -0.14182,0.01764 -0.28364,0.03669 -0.42545,0.05644 -0.0734,0.0099 -0.1517,0.01517 -0.22261,-7.06e-4 -0.0819,-0.01834 -0.14816,-0.07197 -0.18873,-0.141111 -0.0406,-0.06879 -0.0557,-0.153458 -0.0356,-0.233186 0.0166,-0.06562 0.0469,-0.131586 0.0878,-0.194028 0.12171,-0.187677 0.33584,-0.345016 0.53939,-0.366536 0.12983,-0.01376 0.25965,-0.02681 0.39123,-0.03951 0.39547,-0.03845 0.80822,-0.07408 1.28905,-0.119239 0.0526,-0.0187 0.10513,-0.0187 0.15805,-0.0056 0.0529,0.01305 0.10619,0.03916 0.15981,0.07338 0.0536,0.03387 0.10759,0.07549 0.16228,0.118886 0.0427,0.03387 0.0861,0.06879 0.12982,0.102658 0.012,0.0092 0.0243,0.01905 0.0367,0.02822 0.0402,0.02999 0.0691,0.05962 0.0875,0.0889 0.0183,0.02963 0.0261,0.05891 0.024,0.08819 -0.005,0.05891 -0.0483,0.118886 -0.12594,0.182386 -0.17216,0.142169 -0.36478,0.222955 -0.57221,0.254 -0.0692,0.01058 -0.1397,0.01552 -0.21202,0.01552 -0.14358,-3.53e-4 -0.28645,0.0042 -0.42933,0.01164 -0.28575,0.01552 -0.57009,0.0448 -0.85372,0.07973 m -0.008,31.835725 c -0.009,0.03563 -0.0257,0.07161 -0.0501,0.108655 -0.0727,0.109361 -0.15381,0.182386 -0.27164,0.198261 -0.0392,0.0053 -0.0825,0.0042 -0.13088,-0.0039 -0.30621,-0.05151 -0.61137,-0.106892 -0.91511,-0.169334 -0.30374,-0.06244 -0.60607,-0.131586 -0.90628,-0.210961 -0.0628,-0.01693 -0.11148,-0.04586 -0.1517,-0.0829 -0.0402,-0.03669 -0.072,-0.08079 -0.10125,-0.128059 -0.0289,-0.04692 -0.055,-0.09631 -0.084,-0.14358 -0.0145,-0.02328 -0.0296,-0.04621 -0.0459,-0.06809 -0.0166,-0.02152 -0.0346,-0.04233 -0.0543,-0.06103 -7e-4,-3.53e-4 0,-0.0032 -3.5e-4,-0.0042 -0.0113,-0.01693 -0.002,-0.0762 0.018,-0.09525 0.0399,-0.03916 0.0804,-0.07761 0.12171,-0.1143 0.12453,-0.109009 0.25859,-0.198967 0.41981,-0.225072 v 0 c 0.20284,0.04198 0.38876,0.06632 0.5655,0.121002 0.29916,0.09207 0.60748,0.140053 0.91405,0.175331 0.28116,0.0321 0.4452,0.192617 0.59337,0.398286 0.0713,0.09842 0.10689,0.198967 0.079,0.305153 m -4.38044,-1.192036 c -0.0325,0.0314 -0.0628,0.05927 -0.091,0.08325 -0.0564,0.04798 -0.10584,0.08185 -0.15417,0.101953 -0.0243,0.01023 -0.0483,0.01693 -0.073,0.02046 -0.0494,0.0067 -0.10089,7.06e-4 -0.16086,-0.01764 -0.0603,-0.01834 -0.12877,-0.04868 -0.21273,-0.09031 -0.29915,-0.148872 -0.60148,-0.292805 -0.89747,-0.448028 -0.20813,-0.109361 -0.31644,-0.368652 -0.26317,-0.582789 0.0106,-0.04233 0.031,-0.07338 0.0586,-0.09454 0.0275,-0.02152 0.0621,-0.03316 0.1009,-0.03775 0.11077,-0.01305 0.2226,-0.01587 0.37324,-0.02575 0.036,-0.01482 0.0723,-0.02152 0.109,-0.02187 0.11078,-0.0011 0.22649,0.05398 0.34608,0.117122 0.12629,0.06667 0.25506,0.127706 0.38453,0.187325 0.12982,0.05997 0.25999,0.118533 0.38841,0.180269 0.16368,0.07832 0.25329,0.17145 0.26846,0.277284 0.0152,0.10548 -0.0437,0.223308 -0.17674,0.351014 m -2.67088,-1.696156 c -0.0152,0.01905 -0.0325,0.03634 -0.0522,0.05115 -0.0395,0.02999 -0.0875,0.05045 -0.14182,0.05574 -0.049,0.0046 -0.0988,0.0049 -0.14852,0.0042 -0.0497,-7.05e-4 -0.0998,-0.0028 -0.14922,-0.0028 -0.0691,0.0021 -0.13653,-0.0032 -0.20144,-0.01482 -0.26035,-0.04657 -0.48295,-0.197555 -0.62159,-0.406047 -0.10407,-0.156281 -0.16087,-0.345017 -0.15064,-0.546453 0.008,-0.1651 0.33232,-0.311503 0.50906,-0.192264 0.16404,0.110773 0.32561,0.226836 0.4826,0.348192 0.15698,0.121356 0.30974,0.248356 0.4572,0.380294 0.0402,0.03634 0.0628,0.07973 0.0709,0.125237 0.004,0.02258 0.004,0.04586 0.001,0.06879 -0.006,0.04586 -0.0257,0.09066 -0.0554,0.128764 m -2.16326,-24.624341 c -0.0384,0.01094 -0.0783,0.0187 -0.1203,0.02258 -0.25576,0.02434 -0.3309,-0.05045 -0.31785,-0.359481 -0.0205,-0.157691 0.0508,-0.32385 0.20038,-0.455436 0.53128,-0.467783 1.04775,-0.953911 1.64606,-1.338792 0.0409,-0.02646 0.084,-0.04339 0.12735,-0.0515 0.0871,-0.01588 0.17639,0.0035 0.25471,0.05327 0.0392,0.02469 0.0751,0.05715 0.10724,0.09701 0.0677,0.08396 0.10301,0.173214 0.10443,0.259997 0.002,0.08643 -0.03,0.170745 -0.0963,0.245534 -0.049,0.05539 -0.10725,0.104422 -0.16687,0.148872 -0.50059,0.370417 -0.97155,0.775758 -1.42945,1.196622 -0.0928,0.08537 -0.19403,0.14852 -0.30939,0.181328 m -0.18591,22.595765 c -0.008,0.04692 -0.0212,0.08819 -0.0384,0.123825 -0.0349,0.07267 -0.0892,0.119944 -0.16687,0.139347 -0.0367,0.0095 -0.078,0.01305 -0.12559,0.0088 -0.11571,-0.0032 -0.2226,-0.02928 -0.31785,-0.08608 -0.0318,-0.01905 -0.0624,-0.04128 -0.0917,-0.06703 -0.1584,-0.140406 -0.30762,-0.288925 -0.44556,-0.446969 -0.13793,-0.158045 -0.26458,-0.325967 -0.37782,-0.505531 -0.10301,-0.162983 -0.0875,-0.357011 -0.13406,-0.534811 -0.0289,-0.111125 0.0628,-0.170392 0.15805,-0.141111 0.18062,0.05574 0.37112,0.08467 0.53834,0.170039 0.10018,0.05151 0.19191,0.123472 0.26811,0.233539 0.0875,0.126647 0.18803,0.244122 0.2928,0.358775 0.10478,0.1143 0.21414,0.225777 0.31927,0.339725 0.10971,0.118886 0.15169,0.248002 0.12135,0.407458 m -2.08527,-2.351617 c -0.0642,0.08572 -0.14675,0.15487 -0.22119,0.17392 -0.0445,0.01164 -0.0843,0.01305 -0.1203,0.0067 -0.0363,-0.0063 -0.0688,-0.02046 -0.0984,-0.03986 -0.0593,-0.03916 -0.10654,-0.09948 -0.1471,-0.162984 -0.12771,-0.198966 -0.24801,-0.402166 -0.36301,-0.608541 -0.11501,-0.206375 -0.22472,-0.415573 -0.33126,-0.626534 -0.0727,-0.144286 -0.13829,-0.292452 -0.2152,-0.434269 -0.0437,-0.08079 -0.0483,-0.153106 -0.0296,-0.220486 0.0183,-0.06703 0.06,-0.129117 0.10866,-0.188736 0.0265,-0.03246 0.055,-0.05503 0.085,-0.0695 0.0296,-0.01482 0.061,-0.02152 0.0931,-0.02258 0.0642,-0.0028 0.13194,0.01658 0.19897,0.03881 0.12065,0.04057 0.23036,0.09913 0.2921,0.217311 0.27058,0.517525 0.59831,1.004711 0.81774,1.549048 0.009,0.02258 0.0176,0.04551 0.0247,0.06562 0.007,0.02011 0.013,0.03704 0.0169,0.04798 -0.001,0.08572 -0.0473,0.188383 -0.11113,0.274108 m -1.87501,-3.384197 c -0.0363,0.0074 -0.0981,-0.01552 -0.16369,-0.05503 -0.0434,-0.02575 -0.0889,-0.05927 -0.12912,-0.09525 -0.0603,-0.05362 -0.10936,-0.113595 -0.12559,-0.164747 -0.0963,-0.307623 -0.18556,-0.617714 -0.27234,-0.928511 -0.0367,-0.130881 -0.0614,-0.265289 -0.0892,-0.398639 -0.0152,-0.07267 -0.0363,-0.146403 -0.0356,-0.219781 0.001,-0.158044 0.21837,-0.402519 0.36689,-0.42545 0.15099,-0.02328 0.31961,0.100542 0.3683,0.304447 0.10936,0.458611 0.23777,0.911225 0.3757,1.362075 0.0141,0.04692 0.0215,0.09631 0.0289,0.12947 -0.003,0.113241 -0.24941,0.475191 -0.3242,0.491419 m -0.94862,-3.428294 c -0.0935,-0.103364 -0.17568,-0.213078 -0.18697,-0.355247 -0.0356,-0.445206 -0.0857,-0.889706 -0.0737,-1.337028 7e-4,-0.02081 0.006,-0.04586 0.0152,-0.07303 0.0367,-0.109008 0.13476,-0.258586 0.23742,-0.375003 0.0258,-0.02893 0.0515,-0.05609 0.0769,-0.07973 0.0504,-0.04762 0.0984,-0.08255 0.13688,-0.0949 0.13511,-0.04445 0.25259,0.03528 0.27058,0.220133 0.01,0.09807 0.0106,0.197203 0.009,0.291748 -0.001,0.09419 -0.005,0.183797 -0.005,0.262819 0.0205,0.211314 0.0296,0.413456 0.0416,0.610306 0.012,0.197202 0.0268,0.388761 0.0582,0.579261 0.0219,0.131939 0.0275,0.261761 -0.1009,0.372533 -0.1143,0.09843 -0.18379,0.148872 -0.24976,0.146756 -0.066,-0.0021 -0.12841,-0.0568 -0.22966,-0.168628 m -0.12488,-4.393847 c 0.0737,-0.391231 0.14146,-0.783873 0.22366,-1.173692 0.004,-0.02046 0.0145,-0.04339 0.0293,-0.06703 0.10336,-0.167922 0.4318,-0.395111 0.56797,-0.379236 0.14428,0.01658 0.22331,0.108303 0.19755,0.259292 -0.031,0.18415 -0.0769,0.36583 -0.1083,0.54998 -0.0589,0.343606 -0.11395,0.68827 -0.16651,1.032934 -0.0208,0.136877 -0.0409,0.271639 -0.14676,0.37465 -0.0219,0.02152 -0.0434,0.04516 -0.0653,0.06809 -0.066,0.06879 -0.13687,0.131233 -0.24271,0.108303 -0.13052,-0.02822 -0.13758,-0.157339 -0.16157,-0.268112 -0.009,-0.04198 -0.0233,-0.0829 -0.0388,-0.123472 -0.0473,-0.121708 -0.10795,-0.240947 -0.0885,-0.381705 m 1.2573,3.778602 -0.0201,-0.0039 0.0138,-0.0194 z m -0.43603,-7.120113 c 0.19156,-0.485775 0.36442,-0.98037 0.60607,-1.444625 0.0201,-0.0381 0.0416,-0.07197 0.0653,-0.102306 0.0469,-0.05997 0.10019,-0.104422 0.15699,-0.132644 0.0286,-0.01446 0.0579,-0.02434 0.0875,-0.03069 0.11924,-0.02434 0.24588,0.01623 0.35665,0.123119 0.0572,0.05539 0.0892,0.109714 0.0991,0.168628 0.005,0.02963 0.004,0.06033 -0.002,0.09278 -0.006,0.03281 -0.0173,0.06738 -0.0335,0.105128 -0.23283,0.536575 -0.46002,1.076325 -0.67027,1.622425 -0.0205,0.05292 -0.0441,0.09737 -0.0716,0.134408 -0.0279,0.03704 -0.0589,0.06667 -0.0942,0.0896 -0.0702,0.04586 -0.15628,0.06491 -0.2593,0.0635 -0.22154,-0.0028 -0.18415,-0.196497 -0.23142,-0.326319 -0.0212,-0.05821 -0.0349,-0.118533 -0.0515,-0.176742 0.0141,-0.06562 0.0194,-0.129469 0.042,-0.186266 m 1.58468,-3.267075 c 0.18168,-0.295981 0.36689,-0.591609 0.57044,-0.873125 0.13053,-0.180622 0.27693,-0.34925 0.38806,-0.545042 0.0265,-0.04621 0.0564,-0.08714 0.09,-0.123119 0.10054,-0.107598 0.23318,-0.168981 0.39335,-0.18415 0.11324,-0.0035 0.20566,0.02858 0.27269,0.103716 0.0226,0.02505 0.042,0.05503 0.0586,0.08996 0.06,0.126294 0.11395,0.25788 0.01,0.384527 -0.22119,0.26917 -0.42792,0.548217 -0.62724,0.832909 -0.19932,0.285044 -0.39087,0.575027 -0.58243,0.865716 -0.12489,0.189442 -0.27517,0.201789 -0.44838,0.08431 -0.0434,-0.02963 -0.0808,-0.07161 -0.11007,-0.121355 -0.0878,-0.149578 -0.10548,-0.366536 -0.0148,-0.51435 m 30.84512,7.843661 c -0.0998,-1.670756 -0.44026,-3.287536 -1.00612,-4.858103 -0.5782,-1.605492 -1.39065,-3.091744 -2.36396,-4.490155 -0.50694,-0.728487 -1.06821,-1.41605 -1.72932,-2.010834 -0.9278,-0.834672 -1.905,-1.606903 -2.97603,-2.255661 -1.60126,-0.969786 -3.29107,-1.728258 -5.12163,-2.145594 -1.72649,-0.3937 -3.4738,-0.517172 -5.24122,-0.376061 -0.74683,0.05997 -1.4926,0.12065 -2.23097,0.248355 -0.28292,0.04904 -0.48154,-0.03245 -0.61559,-0.296686 -0.11254,-0.221544 -0.24801,-0.430742 -0.34678,-0.661458 -0.58456,-1.363839 -1.19451,-2.717095 -1.75754,-4.0894 -1.00859,-2.457803 -2.17982,-4.843286 -3.19264,-7.299325 -0.4512,-1.094317 -0.9585,-2.165703 -1.43369,-3.250494 -0.97155,-2.21615 -1.93816,-4.43477 -2.90759,-6.651978 -0.87454,-1.999897 -1.7586,-3.995561 -2.62255,-6.000044 -0.73519,-1.706034 -1.26189,-3.468511 -1.36173,-5.339292 -0.0116,-0.215194 0.0138,-0.368653 0.21767,-0.504119 0.50129,-0.333022 0.52564,-0.56515 0.14922,-1.029053 -0.16475,-0.2032 -0.23213,-0.414514 -0.21449,-0.687211 0.0526,-0.822325 -0.28681,-1.451328 -1.01952,-1.848203 -0.1771,-0.09596 -0.35455,-0.185914 -0.47767,-0.351014 -0.20461,-0.274461 -0.18027,-0.451908 0.0875,-0.671336 0.0769,-0.06315 0.15805,-0.122414 0.2286,-0.192264 0.653,-0.646642 1.44181,-1.065389 2.3114,-1.322564 1.35432,-0.400755 2.71922,-0.314678 4.07141,0.01482 0.98319,0.239536 1.96956,0.458258 2.96722,0.626533 1.39065,0.233892 2.79223,0.402167 4.16842,0.719314 1.36842,0.315736 2.68746,0.760942 3.89325,1.497895 0.13265,0.08114 0.27623,0.118886 0.42157,0.146403 0.49601,0.09384 0.99519,0.03422 1.49331,0.01446 0.11042,-0.0042 0.20144,-0.04621 0.16898,-0.18415 -0.10098,-0.429301 -0.21351,-0.841346 -0.64955,-1.082646 -0.37041,-0.204964 -0.71755,-0.452614 -1.07173,-0.686153 -1.59209,-1.048455 -3.28684,-1.879952 -5.10188,-2.474383 -1.01882,-0.333728 -2.03905,-0.676628 -3.00496,-1.14688 -1.62666,-0.7923391 -3.17464,-1.7264947 -4.71911,-2.667353 -1.27776,-0.7785805 -2.55058,-1.5666861 -3.87244,-2.2711833 -1.78893,-0.9535583 -3.64525,-1.7462499 -5.58024,-2.3526749 -1.94909,-0.6106583 -3.94123,-1.000125 -5.97887,-1.1624028 -0.254,-0.020108 -2.5019,-1.20297219 -5.12939,-1.0929055 -2.62784,0.1104194 -4.44677,1.495425 -4.96076,1.7190861 -0.84667,0.3686527 -1.6764,0.7799916 -2.54882,1.0840861 -0.29986,0.1044222 -0.48507,0.2765777 -0.60537,0.5591527 -0.12524,0.2945695 -0.11536,0.3439583 0.1778,0.4843639 0.10266,0.049036 0.20743,0.075847 0.32279,0.084314 0.75742,0.055033 1.47391,0.2726972 2.1523,0.6007805 1.29293,0.625475 2.47156,1.450975 3.71263,2.1678195 0.38982,0.2250721 0.43004,0.4762499 0.15699,0.833261 0.77818,6.0823467 4.29663,11.6350057 11.26913,11.6578947 0.19579,-0.164042 0.18133,-0.159809 0.34572,0.05644 0.14958,0.197203 0.28928,0.411692 0.49954,0.550333 0.18168,0.119945 0.31432,0.266347 0.43003,0.451909 0.21202,0.340077 0.50377,0.533752 0.94192,0.436033 0.36266,-0.08114 0.51717,-0.01411 0.6671,0.34678 0.28222,0.680156 0.69815,1.295048 0.93839,1.995312 0.12947,0.377119 0.29704,0.740833 0.47907,1.097491 0.33373,0.654403 0.65476,1.317625 0.95109,1.98755 0.41275,0.933803 0.80257,1.880306 1.14582,2.844447 0.33479,0.940153 0.74825,1.851025 1.05305,2.80282 0.0674,0.210608 0.0854,0.409575 0.0127,0.621241 -0.0437,0.127 -0.009,0.651934 -0.28999,0.743303 -0.13793,-0.29598 -0.37535,-0.512586 -0.65652,-0.58808 -0.39581,-0.106187 -0.75812,0.08784 -0.82938,0.475544 -0.084,0.455083 0.0236,0.868186 0.38171,1.184981 0.25153,0.222955 0.55245,0.303741 0.86572,0.166158 0.30233,-0.132292 0.36089,-0.419453 0.36653,-0.645231 -3.5e-4,-0.153105 -0.0268,-0.296686 -0.0691,-0.430389 0.12453,-0.03739 0.25294,-0.05398 0.25718,0.05856 0.008,0.218369 0.10089,0.569383 0.24482,0.835025 0.14711,0.270933 0.24554,0.572911 0.33338,0.870655 0.15205,0.516114 0.31503,1.025172 0.59231,1.490486 0.09,0.150989 0.15381,0.311503 0.19227,0.48507 0.0378,0.170038 0.0744,0.345016 0.1464,0.502002 0.59902,1.30422 1.11513,2.643011 1.66441,3.968045 0.78881,1.902177 1.58115,3.802591 2.34032,5.717116 0.91088,2.296584 1.83692,4.58717 2.76508,6.876697 0.0998,0.246945 0.054,0.424745 -0.11783,0.609248 -0.14817,0.159102 -0.35737,0.234949 -0.50412,0.384527 -0.50871,0.518584 -1.10561,0.931334 -1.65488,1.400528 -1.26859,1.083028 -2.41406,2.270125 -3.2886,3.705225 -0.95885,1.573389 -1.60549,3.268486 -1.9879,5.061655 -0.38664,1.813278 -0.53552,3.645959 -0.38982,5.503686 0.16157,2.052109 0.67381,4.001206 1.53458,5.868459 0.74719,1.621719 1.70674,3.099858 2.91501,4.411133 0.71825,0.779991 1.51659,1.474611 2.36678,2.113844 1.36737,1.027642 2.84233,1.846086 4.45206,2.4257 0.21343,0.07691 0.46884,0.106186 0.59831,0.345017 0.0265,0.04904 0.0917,0.04445 0.13335,0.01164 0.12241,-0.09595 0.23812,-0.02575 0.35489,0.0067 0.9525,0.262114 1.91735,0.462492 2.90125,0.552803 0.83044,0.0762 1.65841,0.122414 2.49872,0.07338 1.07562,-0.06244 2.14066,-0.176389 3.18276,-0.430389 2.74038,-0.667808 5.16714,-1.952272 7.29474,-3.801886 0.24448,-0.212725 0.45897,-0.474133 0.73343,-0.633942 0.30692,-0.178153 0.42016,-0.496358 0.65546,-0.718961 0.40993,-0.386997 0.76482,-0.824794 1.09008,-1.280583 0.53517,-0.748947 1.03223,-1.522589 1.43793,-2.355497 0.58631,-1.203678 1.09643,-2.433814 1.40899,-3.737681 0.42757,-1.782586 0.59619,-3.58775 0.48719,-5.421841"
         style="display:none;opacity:1;fill:#000000;fill-opacity:1;fill-rule:nonzero;stroke:none;stroke-width:0.352778"
         id="path3510" /></g></g></svg>
