<?xml version="1.0" encoding="UTF-8" standalone="no"?>
<!-- Created with Inkscape (http://www.inkscape.org/) -->

<svg
   width="9.5698137mm"
   height="5.2754393mm"
   viewBox="0 0 9.5698137 5.2754393"
   version="1.1"
   id="svg5"
   xml:space="preserve"
   xmlns="http://www.w3.org/2000/svg"
   xmlns:svg="http://www.w3.org/2000/svg"><defs
     id="defs2" /><path
     id="path1070"
     style="display:none;fill:#000000;fill-opacity:1;fill-rule:nonzero;stroke:none;stroke-width:0.0901744"
     d="m 2.6450567,4.2546094 c -0.076293,0.028719 -0.1541155,0.081709 -0.234611,0.067696 -0.1336053,-0.023259 -0.154688,0.037548 -0.2165242,0.073381 -0.07416,0.042974 -0.1447664,0.09644 -0.223759,0.1276408 -0.110689,0.043644 -0.2085667,0.1027853 -0.3002401,0.1715658 -0.091673,0.06878 -0.260966,0.110932 -0.260966,0.2278931 v 5.14e-4 c 0,0.2171422 -0.2392254,0.3757729 -0.46560468,0.4594035 -0.015014,0.00555 -0.0307248,0.033729 -0.0408243,0.062528 -0.0100995,0.028799 -0.0144937,0.058235 -0.007235,0.065629 0.0389553,0.039586 0.10490968,0.079169 0.15657948,0.074931 0.2070402,-0.016953 0.4117973,-0.05493 0.6185669,-0.076481 0.1928827,-0.020199 0.3903535,-0.011226 0.5798096,-0.047026 0.088619,-0.01675 0.1759258,-0.024925 0.2614828,-0.025838 0.2566711,-0.00274 0.5012251,0.060577 0.7467244,0.160197 0.5229205,0.2120899 1.0483032,0.4199548 1.5807821,0.6061646 0.1137999,0.039767 0.2326012,0.065221 0.35295,0.0863 0.1203488,0.021081 0.2424553,0.037879 0.3622518,0.059431 0.061319,0.011001 0.094752,0.021395 0.073381,0.093534 C 5.5831845,6.5926676 5.5423325,6.7446359 5.5012132,6.896309 5.4722672,7.0033458 5.4501892,7.1122325 5.4164642,7.2177364 5.3569492,7.4042168 5.2877626,7.587721 5.2288788,7.7742915 c -0.016141,0.051039 -0.010814,0.1087422 -0.015503,0.1632975 0.025429,-0.052301 0.055429,-0.1028114 0.075448,-0.1570963 0.037062,-0.100905 0.067373,-0.2045686 0.1033528,-0.3059245 0.00478,-0.013436 0.026421,-0.020816 0.040308,-0.031006 0.00496,0.01533 0.015666,0.0319 0.013953,0.046509 -0.00983,0.081968 -0.015614,0.1655028 -0.036173,0.2449463 C 5.3458782,7.9840784 5.2756823,8.2316051 5.207691,8.4796745 5.1480858,8.6968141 5.0923316,8.9146741 5.027857,9.1302807 4.9624806,9.3489533 4.8793622,9.5628387 4.8201177,9.7829541 c -0.05672,0.2108274 -0.084315,0.4296899 -0.1400431,0.6407879 -0.049686,0.188284 -0.076169,0.38299 -0.1157552,0.574125 -0.019793,0.09557 -0.043001,0.190156 -0.073897,0.28267 -0.030896,0.09251 -0.069322,0.182801 -0.1204061,0.269751 -0.013706,0.02345 -0.011931,0.05576 -0.018603,0.08372 -0.02561,0.108119 -0.049987,0.216523 -0.078031,0.324011 -0.04157,0.158977 -0.08699,0.317143 -0.1291911,0.47594 -0.081878,0.307855 -0.1623051,0.61603 -0.2439128,0.923975 -0.054105,0.203974 -0.1829205,0.377902 -0.2139404,0.595312 -0.027954,0.1964 -0.1062485,0.385377 -0.1607137,0.578259 -0.027909,0.0987 -0.048722,0.15567 -0.082166,0.189136 -0.033443,0.03347 -0.079588,0.04332 -0.1581298,0.04909 -0.02561,0.0019 -0.070537,-0.004 -0.074414,-0.01654 -0.0083,-0.02687 -0.00526,-0.0671 0.010335,-0.08992 0.032012,-0.0468 0.081167,-0.08192 0.1111044,-0.129708 0.018305,-0.02931 0.028602,-0.08014 0.014986,-0.108003 -0.013797,-0.02823 -0.060777,-0.05379 -0.094051,-0.05478 -0.024798,-7.22e-4 -0.058273,0.03554 -0.074414,0.06305 -0.017223,0.02958 -0.017379,0.06857 -0.027389,0.102836 -0.014022,0.04806 -0.021845,0.102038 -0.03359,0.152446 -0.011745,0.05041 -0.027354,0.09722 -0.057878,0.130224 -0.059515,0.06429 -0.08007,0.131546 -0.085266,0.199988 -0.0052,0.06844 0.00496,0.138125 0.00672,0.207739 7.214e-4,0.02865 0.00737,0.05258 0.018604,0.07131 0.022473,0.03746 0.06267,0.05415 0.1085205,0.04702 0.022925,-0.0036 0.047214,-0.013 0.071314,-0.02894 0.065106,-0.0431 0.1333282,-0.08644 0.206189,-0.112137 0.078948,-0.02791 0.1232472,-0.04175 0.1570964,-0.06666 0.033849,-0.02491 0.057374,-0.06085 0.093534,-0.133842 0.083501,-0.168175 0.1630856,-0.340803 0.2196249,-0.519348 0.1068565,-0.337252 0.2001085,-0.679186 0.291455,-1.021126 0.080255,-0.300551 0.1497675,-0.603468 0.2247925,-0.905372 0.029487,-0.118488 0.056119,-0.237814 0.091467,-0.3545 0.105053,-0.34663 0.2189721,-0.690894 0.3198771,-1.038696 C 4.9184863,10.701096 5.043375,10.234447 5.1735866,9.7695082 5.2124516,9.630685 5.2583696,9.4935145 5.2986436,9.3550632 5.3389176,9.2166119 5.3735156,9.0768091 5.3911446,8.93235 5.3957446,8.894206 5.4170976,8.858488 5.4299016,8.8212457 5.4961796,8.6289942 5.5707246,8.4388206 5.626272,8.2435032 5.711757,7.9433131 5.7825805,7.639158 5.8634668,7.3376153 c 0.011182,-0.041751 0.044275,-0.077678 0.067179,-0.116272 0.027413,0.033815 0.065736,0.063635 0.080615,0.1023193 0.077099,0.2000967 0.1483144,0.4022876 0.2211751,0.6040976 0.035348,0.098019 0.075087,0.1948888 0.1023193,0.2950724 0.03341,0.1227497 0.061998,0.2416734 0.014986,0.3576009 -0.015671,0.038642 -0.039898,0.077253 -0.074931,0.1152384 -0.124711,0.1353516 -0.2252635,0.2942148 -0.3260783,0.449585 -0.040488,0.06222 -0.048676,0.1445722 -0.079065,0.2144572 -0.055457,0.1276417 -0.094538,0.2577119 -0.1167888,0.3906738 -0.022251,0.132962 -0.027479,0.2689281 -0.013953,0.4072101 0.016051,0.164117 0.048701,0.326383 0.065112,0.49041 0.00803,0.0803 0.016735,0.122184 0.041341,0.151412 0.024606,0.02923 0.065299,0.0458 0.1369426,0.07493 0.1398602,0.0569 0.2796138,0.132055 0.3937744,0.229444 0.046237,0.03945 0.082428,0.08453 0.1121379,0.133325 0.089129,0.146391 0.1189229,0.326034 0.1793171,0.486792 0.039496,0.105143 0.051614,0.223827 0.056844,0.337447 0.00451,0.09712 0.00742,0.209445 -0.03514,0.290422 -0.064565,0.122727 -0.1145367,0.273981 -0.2837035,0.312125 -0.0312,0.007 -0.060694,0.04959 -0.078548,0.08268 -0.032147,0.05952 -0.046969,0.120113 -0.047025,0.180868 -5.63e-5,0.06076 0.014674,0.121862 0.040824,0.183451 0.019297,0.04536 0.030021,0.09447 0.042375,0.142627 0.039857,0.15528 0.061876,0.318038 0.1224731,0.464571 0.031516,0.07624 0.062142,0.152587 0.097152,0.227893 0.03501,0.07531 0.074251,0.149577 0.12299,0.221176 0.058703,0.08634 0.1059935,0.179209 0.1627807,0.2651 0.056787,0.08589 0.1231384,0.164722 0.2196249,0.222208 0.065872,0.03927 0.1275206,0.08705 0.1901692,0.132292 0.062649,0.04524 0.1259479,0.08802 0.1953369,0.117822 0.071373,0.03066 0.1472878,0.05234 0.2247925,0.06925 0.077505,0.01691 0.1568356,0.02892 0.234611,0.04082 0.1372452,0.02092 0.28089,0.04037 0.4165121,0.0217 0.1631251,-0.02241 0.3259618,-0.05032 0.4847249,-0.09198 0.079381,-0.02083 0.1574825,-0.04511 0.234611,-0.0739 0.077129,-0.02879 0.1532756,-0.06193 0.2273763,-0.100769 0.045448,-0.0239 0.087562,-0.05576 0.1266072,-0.0894 0.1409424,-0.121826 0.2452857,-0.269154 0.3048909,-0.447518 0.00992,-0.02967 0.037387,-0.05313 0.050643,-0.08217 0.020109,-0.0441 0.045323,-0.08953 0.050643,-0.136426 0.023535,-0.209114 0.044098,-0.418459 0.059428,-0.628385 0.020289,-0.27927 -0.030218,-0.55073 -0.097668,-0.820622 -0.045989,-0.183955 -0.09676,-0.369756 -0.1131713,-0.557588 -0.00476,-0.05485 -0.014267,-0.10176 -0.028939,-0.14056 -0.029343,-0.0776 -0.079695,-0.122614 -0.155546,-0.132809 -0.037925,-0.0051 -0.082061,-0.0012 -0.1333253,0.01137 -0.081472,0.01993 -0.1600923,0.02226 -0.2315104,0.0036 -0.071418,-0.01864 -0.1354369,-0.0582 -0.1891357,-0.121957 C 8.8295055,11.496948 8.7394894,11.349661 8.6441752,11.207637 8.5969242,11.137257 8.5575762,11.065012 8.526353,10.991112 8.49513,10.917212 8.471786,10.841425 8.456073,10.764253 8.424647,10.609908 8.423919,10.449628 8.451423,10.283662 8.458903,10.238662 8.488332,10.186922 8.52377,10.158605 8.577469,10.115665 8.62,10.072635 8.618855,10.013911 8.6184763,9.994338 8.613005,9.972829 8.601802,9.949316 8.5284871,9.7951547 8.448178,9.6443518 8.3764895,9.4894324 8.174229,9.0523574 7.8136215,8.7775163 7.3977379,8.5814775 7.2205455,8.4979536 7.0784977,8.3967059 6.9801923,8.2497148 6.9474238,8.2007178 6.9196946,8.1467438 6.8969933,8.0864173 6.7620925,7.727704 6.6269345,7.3691439 6.4975345,7.0084469 6.4168285,6.783372 6.3469624,6.5540495 6.2706749,6.3273515 6.2456967,6.2531381 6.2478257,6.2042889 6.3347537,6.1656043 6.4369661,6.1200662 6.5407396,6.0796694 6.645329,6.0441647 6.7499184,6.0086599 6.8557264,5.978074 6.9626223,5.9532141 c 0.2137919,-0.04972 0.4321453,-0.07766 0.6547404,-0.081132 0.1429262,-0.00221 0.2857966,0.00639 0.4289144,0.01757 0.1431178,0.011182 0.2862795,0.024978 0.4294311,0.03359 0.1769219,0.010641 0.3513119,0.1282277 0.5317505,0.013436 0.00721,-0.0046 0.020636,-4.83e-5 0.031006,0.00103 0.025339,0.00252 0.073518,0.033553 0.075964,0.00827 0.00281,-0.029059 -0.046377,-0.036829 -0.072347,-0.049092 -0.018518,-0.00868 -0.045101,0.00187 -0.063045,-0.00982 -0.019217,-0.012523 -0.023266,-0.043432 -0.03514,-0.064596 C 8.9317232,5.8007743 8.9182077,5.7824562 8.9004885,5.7759637 8.7664896,5.726999 8.6287339,5.6854955 8.4891441,5.6555576 8.2329591,5.6005514 7.9738902,5.5604318 7.717615,5.505696 7.4510599,5.448796 7.2036342,5.0761637 7.0482766,4.8207117 6.0574496,3.1915115 4.255449,3.865659 2.6450567,4.2546094 Z m 2.7998291,3.0649292 c 0.00415,0.00469 0.011459,0.00917 0.011369,0.013953 0,0.00451 -0.00765,0.00935 -0.011886,0.013953 -0.00406,-0.00478 -0.011459,-0.00978 -0.011369,-0.014469 0,-0.0046 0.00765,-0.00893 0.011886,-0.013436 z M 5.0909022,8.2884717 c -3.634e-4,0.00137 -6.7e-4,0.00276 -0.00103,0.00413 6.502e-4,-8.765e-4 0.00143,-0.0017 0.00207,-0.00258 z m -0.00103,0.00413 c -0.027385,0.036918 -0.064731,0.070134 -0.078031,0.1116211 -0.063843,0.1994656 -0.1218103,0.4014341 -0.1788005,0.6030639 -0.00757,0.026601 0.00148,0.058027 0.0031,0.087333 0.021191,-0.024257 0.052297,-0.045763 0.061495,-0.073897 0.025519,-0.07755 0.041272,-0.1581119 0.062012,-0.2371948 0.042923,-0.1639145 0.086848,-0.3271905 0.1302245,-0.4909262 z M 4.8118495,9.1979769 c -0.0083,0.0083 -0.020951,0.014886 -0.024288,0.024805 -0.038324,0.1156032 -0.077511,0.2310063 -0.1121378,0.347782 -0.060868,0.2047859 -0.1148426,0.4118527 -0.1793172,0.6154661 -0.038414,0.121465 -0.1028151,0.235054 -0.135909,0.357601 -0.089273,0.329858 -0.1681697,0.662323 -0.2495972,0.994255 -0.00543,0.02242 0.00405,0.04844 0.00672,0.07286 0.022511,-0.0019 0.059488,-2.43e-4 0.061495,-0.0078 0.044997,-0.169438 0.091914,-0.339208 0.1260905,-0.51108 0.050768,-0.255283 0.1179915,-0.503337 0.208256,-0.748791 0.1018068,-0.276655 0.171031,-0.5653071 0.2501139,-0.8500777 0.023896,-0.086116 0.034165,-0.1762125 0.050126,-0.2645833 0.0018,-0.00983 -8.287e-4,-0.020299 -0.00155,-0.030489 z M 4.1173182,11.610749 c -7.574e-4,6.4e-5 -0.00187,-7.2e-5 -0.00258,0 5.32e-4,0.0016 0.00104,0.0031 0.00155,0.0047 3.967e-4,-0.0012 6.402e-4,-0.0024 0.00103,-0.0036 -3.35e-5,-3.25e-4 3.6e-5,-7.04e-4 0,-10e-4 z m -0.00103,0.0047 c -0.062228,0.188646 -0.1207159,0.379111 -0.1881022,0.565857 -0.088912,0.246085 -0.1638349,0.494929 -0.1979208,0.754992 -0.0028,0.02119 0.0063,0.04405 0.00982,0.06615 0.010911,-0.01749 0.021465,-0.03479 0.032556,-0.05219 0.033635,-0.05284 0.077421,-0.102329 0.098702,-0.15968 0.02588,-0.06971 0.037672,-0.145658 0.046509,-0.220142 0.00478,-0.04094 -0.024059,-0.08923 -0.011886,-0.125574 0.056449,-0.169167 0.1147731,-0.338316 0.1865519,-0.501261 0.04873,-0.11071 0.060044,-0.215862 0.023771,-0.328145 z M 5.058863,9.4708287 c 0.00541,0.0028 0.011036,0.00599 0.016536,0.00878 -0.00893,0.017381 -0.017926,0.034374 -0.026872,0.051676 0.00351,-0.020142 0.00677,-0.040319 0.010335,-0.060461 z M 5.04336,9.5457597 C 5.03436,9.5958577 5.026853,9.6464958 5.014421,9.6956214 5.011351,9.7076144 4.990199,9.7145754 4.977214,9.7240434 4.973064,9.7081724 4.960254,9.6880194 4.965845,9.6770174 4.988839,9.6318914 5.017031,9.5892494 5.04336,9.5457597 Z m 3.0437416,1.4226513 c 0.020672,-0.0067 0.045173,-0.0055 0.071314,10e-4 0.026141,0.0065 0.053984,0.01868 0.081132,0.03462 0.054296,0.03189 0.1058983,0.07868 0.1374593,0.125574 0.057847,0.08607 0.1006152,0.178247 0.1364258,0.272851 0.03581,0.0946 0.064672,0.191442 0.095601,0.287838 0.018756,0.05825 0.036274,0.117243 0.053227,0.176217 0.00262,0.0091 0.057329,0.01828 0.059945,0.02739 0.00379,0.01317 -0.044612,0.02611 -0.040824,0.03927 0.047612,0.168265 0.093482,0.337127 0.1560629,0.499711 0.021371,0.05555 0.051165,0.109486 0.079582,0.153479 0.028416,0.04399 0.055596,0.07833 0.072864,0.0956 0.034447,0.03445 0.066471,0.08187 0.1302246,0.06925 0.063753,-0.01262 0.1085205,-0.123506 0.1085205,-0.123506 0,0 0.00286,-0.05459 -0.018604,-0.06253 -0.010686,-0.004 -0.040653,-0.01646 -0.065112,-0.03824 -0.01223,-0.01089 -0.022938,-0.02424 -0.029456,-0.03979 -0.00652,-0.01555 -0.00891,-0.03339 -0.00362,-0.05374 0.0312,-0.0211 0.062606,-0.04684 0.096635,-0.05788 0.034029,-0.01103 0.070613,-0.0076 0.1121379,0.03049 0.026444,0.02423 0.046356,0.05182 0.059945,0.08113 0.040764,0.08792 0.023423,0.191445 -0.053744,0.26665 -0.050768,0.04946 -0.1015967,0.09839 -0.1596802,0.127641 -0.058084,0.02925 -0.1230829,0.03899 -0.2025716,0.01085 -0.041841,-0.01479 -0.088623,-0.03003 -0.1193726,-0.05943 -0.04272,-0.04071 -0.077571,-0.08422 -0.1064534,-0.129708 -0.086648,-0.136457 -0.1219872,-0.29294 -0.1731161,-0.45992 -0.02065,-0.06727 -0.040928,-0.167771 -0.063562,-0.28112 -0.00289,-0.01443 -0.055419,-0.02914 -0.058394,-0.04392 -0.00442,-0.02191 0.040256,-0.0281 0.035657,-0.05064 -0.026105,-0.127687 -0.055522,-0.266452 -0.091467,-0.386023 -0.017973,-0.05978 -0.037358,-0.114666 -0.058911,-0.16123 -0.021553,-0.04656 -0.044917,-0.08471 -0.070797,-0.110588 -0.1027986,-0.102798 -0.1172288,-0.125383 -0.1803507,-0.06821 -0.031606,0.02863 -0.010824,0.06818 0.00413,0.10542 0.014958,0.03724 0.024403,0.07215 -0.029972,0.09095 -0.05442,0.0188 -0.088609,0.002 -0.1100709,-0.02997 -0.021461,-0.03196 -0.030298,-0.07904 -0.03359,-0.11989 -0.00739,-0.09135 0.1026032,-0.195187 0.1788004,-0.219625 z m -0.9384439,0.280603 c 0.056945,0.0056 0.1150057,0.02886 0.164331,0.06511 0.020875,0.01538 0.0398,0.03961 0.053743,0.06615 0.013943,0.02653 0.022755,0.05539 0.024288,0.08113 0.00171,0.02831 -0.062858,0.08821 -0.1054199,0.08785 -0.047702,-3.61e-4 -0.066304,-0.0094 -0.072864,-0.02687 -0.00656,-0.01749 -0.00103,-0.04368 -0.00103,-0.07803 0,-0.03436 -0.03535,-0.03727 -0.07338,-0.02429 -0.038031,0.01299 -0.078916,0.04214 -0.089917,0.07235 -0.081157,0.03102 0.035681,0.38973 0.088884,0.497128 0.00911,0.03463 0.017747,0.0663 0.025321,0.0956 0.00243,0.0091 0.079582,0.02687 0.079582,0.02687 0,0 -0.060794,0.0476 -0.055294,0.06925 0.044817,0.177373 0.065396,0.271224 0.1281575,0.522449 0.039947,0.159699 0.1250989,0.323733 0.085783,0.487309 -0.014473,0.06033 -0.038964,0.111915 -0.074414,0.151412 -0.017725,0.01975 -0.038184,0.03642 -0.061495,0.04961 -0.023311,0.01319 -0.049939,0.02321 -0.079065,0.02894 -0.070156,0.0138 -0.1418001,0.02328 -0.2108398,0.01499 -0.06904,-0.0083 -0.135489,-0.03463 -0.1937866,-0.09198 -0.055728,-0.05483 -0.066323,-0.230522 -0.00672,-0.250631 0.079353,-0.02669 0.090083,-0.01805 0.1746663,-0.0015 0.00996,0.0019 0.015051,0.02709 0.01912,0.05839 0.00407,0.0313 0.00681,0.06882 0.012402,0.0956 0.00368,0.01778 0.097764,0.03495 0.1043864,0.05219 0.016927,-0.01207 0.046895,-0.02326 0.048059,-0.03669 0.045177,-0.02719 0.065598,-0.07581 0.074931,-0.12454 0.00933,-0.04873 0.00775,-0.0974 0.00775,-0.124541 0,-0.04364 -0.1351489,-0.465176 -0.2211752,-0.774112 -0.00298,-0.01046 -0.070585,-0.0203 -0.07338,-0.03049 -0.00343,-0.01262 0.058023,-0.02503 0.054777,-0.03721 -0.013075,-0.0486 -0.024416,-0.09338 -0.033073,-0.131258 -0.01817,-0.0798 -0.03417,-0.160709 -0.045475,-0.242362 -0.011306,-0.08165 -0.017931,-0.163609 -0.01757,-0.244947 3.607e-4,-0.08936 0.043883,-0.209049 0.1100708,-0.260449 0.022949,-0.01779 0.04857,-0.02985 0.075448,-0.03669 0.026878,-0.0068 0.054727,-0.0085 0.083199,-0.0057 z m -3.4700725,1.842782 c -0.014157,0.02453 -0.034283,0.04757 -0.041858,0.0739 -0.065016,0.226338 -0.1265235,0.453388 -0.1917196,0.679545 -0.028315,0.0982 -0.062917,0.194674 -0.094568,0.291972 0.0037,0.0014 0.00758,0.0028 0.011369,0.0041 0,0.01434 -0.00282,0.02937 5.14e-4,0.04289 0.00658,0.02624 0.016238,0.05181 0.024805,0.07752 0.018937,-0.02146 0.047358,-0.04013 0.055294,-0.06511 0.03111,-0.09793 0.051794,-0.199055 0.083716,-0.296623 0.055006,-0.168536 0.1202566,-0.334318 0.1715658,-0.503845 0.021822,-0.07214 0.023789,-0.151089 0.025321,-0.227377 5.411e-4,-0.02525 -0.028661,-0.0513 -0.044442,-0.077 z" /><g
     id="layer1"
     style="display:inline"
     transform="translate(-554.67236,-318.54736)"><path
       id="path324-4"
       style="display:inline;fill:#000000;fill-opacity:1;fill-rule:nonzero;stroke:none;stroke-width:0.0901744"
       d="m 563.32277,318.54823 c -0.0136,-0.002 -0.0272,0.002 -0.0377,0.0124 -0.0481,0.0461 -0.10084,0.0901 -0.14314,0.14159 -0.0212,0.0258 -0.0398,0.0536 -0.0538,0.0842 -0.0139,0.0307 -0.023,0.0644 -0.0258,0.10232 9e-5,-7.6e-4 -2e-5,-0.002 0,-0.002 -0.0238,0.0151 -0.0529,0.026 -0.0708,0.0465 -0.10478,0.12083 -0.20458,0.24598 -0.31161,0.36483 -0.0252,0.0279 -0.0718,0.0368 -0.10852,0.0543 -0.0142,-0.0345 -0.044,-0.0716 -0.0393,-0.10335 0.0171,-0.11605 0.0404,-0.23203 0.0713,-0.3452 0.015,-0.0549 0.004,-0.1035 -0.0305,-0.11782 -0.0116,-0.005 -0.026,-0.006 -0.0429,-0.002 -0.0302,0.007 -0.0615,0.0201 -0.0904,0.0372 -0.029,0.0171 -0.0558,0.0383 -0.0754,0.062 -0.11993,0.14464 -0.22217,0.30391 -0.3421,0.44855 -0.12273,0.14797 -0.26054,0.28331 -0.38706,0.4284 -0.0559,0.0642 -0.0949,0.14356 -0.15141,0.20722 -0.12092,0.13616 -0.24932,0.26537 -0.37259,0.39946 -0.0698,0.076 -0.13336,0.15801 -0.2036,0.23358 -0.085,0.0913 -0.17203,0.18033 -0.26149,0.26716 -0.0949,0.0922 -0.18053,0.20595 -0.29352,0.2651 -0.18368,0.096 -0.34501,0.20557 -0.48937,0.35761 -0.0955,0.10054 -0.1988,0.1939 -0.29611,0.29248 -0.0486,0.0493 -0.096,0.1 -0.14004,0.15348 -0.044,0.0535 -0.0849,0.11014 -0.12093,0.17105 -0.0541,0.0915 -0.11372,0.1014 -0.21084,0.0413 -0.23663,-0.14642 -0.461,-0.3166 -0.71675,-0.42736 -0.0852,-0.0369 -0.17395,-0.0673 -0.26768,-0.0879 v 10e-4 c -0.0994,-0.0404 -0.20071,-0.0765 -0.29766,-0.12195 -0.16853,-0.0791 -0.33558,-0.1628 -0.47129,-0.28784 -0.0452,-0.0417 -0.0868,-0.0878 -0.12402,-0.14004 -0.10108,-0.1423 -0.18574,-0.29651 -0.28629,-0.43925 -0.0947,-0.13427 -0.19267,-0.26771 -0.30385,-0.38809 -0.10551,-0.11425 -0.15101,-0.1054 -0.25219,0.007 -0.0681,0.0757 -0.10599,0.0616 -0.15658,-0.0315 -0.0971,-0.17891 -0.20375,-0.35226 -0.30799,-0.5271 -0.0106,-0.0178 -0.031,-0.0301 -0.047,-0.0444 -0.0315,-0.0283 -0.0624,-0.0399 -0.091,-0.0357 -0.0286,0.004 -0.0548,0.0244 -0.0765,0.0605 -0.0582,0.097 -0.0826,0.0922 -0.14728,-0.008 -0.0757,-0.11723 -0.15407,-0.23478 -0.2465,-0.33848 -0.0343,-0.0385 -0.12924,-0.0704 -0.1664,-0.0501 -0.0999,0.0545 -0.17247,0.0366 -0.25786,-0.0222 -0.0385,-0.0266 -0.0773,-0.0305 -0.10749,-0.016 -0.0302,0.0145 -0.0516,0.0473 -0.0558,0.0941 -0.005,0.0588 0.013,0.11945 0.0217,0.17932 0.006,0.0386 0.0174,0.0771 0.0191,0.11576 0.008,0.17854 0.0178,0.35725 0.0181,0.53588 2.7e-4,0.13815 0.0258,0.29471 -0.0289,0.41031 -0.0756,0.15979 -0.0983,0.28221 -0.0388,0.45941 0.0382,0.11384 0.0863,0.21805 0.14572,0.31367 0.0594,0.0956 0.13015,0.1827 0.21446,0.26097 0.15149,0.14067 0.32355,0.25933 0.48938,0.38395 0.0684,0.0514 0.14817,0.088 0.21652,0.13953 0.0664,0.05 0.1292,0.10569 0.19327,0.15916 0.0641,0.0535 0.12945,0.10477 0.2005,0.14625 0.2038,0.11884 0.42297,0.21157 0.63614,0.31419 0.0988,0.0475 0.2047,0.082 0.29146,0.14934 0.68422,0.34205 1.2471,0.5335 1.68296,0.13032 0.35259,0.85307 1.49892,1.04974 2.97679,0.3709 0.17169,-0.0789 0.34275,-0.22943 0.4753,-0.36235 0.24951,-0.24996 0.46708,-0.52239 0.65319,-0.82113 0.13454,-0.21588 0.27615,-0.42793 0.4005,-0.64958 0.1257,-0.2239 0.26459,-0.44727 0.34313,-0.68884 0.062,-0.19068 0.13383,-0.37623 0.21394,-0.55759 0.0801,-0.18136 0.16871,-0.35893 0.26406,-0.53382 0.0393,-0.0721 0.0951,-0.1351 0.13075,-0.20877 0.015,-0.0311 0.007,-0.0835 -0.0103,-0.11628 -0.008,-0.0157 -0.0674,-0.0214 -0.0915,-0.009 -0.0401,0.0212 -0.0786,0.0554 -0.10335,0.0935 -0.0758,0.11732 -0.23071,0.16729 -0.36173,0.10904 -0.0394,-0.0175 -0.063,-0.0465 -0.0677,-0.0899 -0.005,-0.0434 0.01,-0.10103 0.0465,-0.17673 0.076,-0.15636 0.17477,-0.30166 0.2589,-0.45423 0.0159,-0.0288 0.01,-0.0701 0.0134,-0.10542 -0.0406,-0.004 -0.0858,-0.0203 -0.1204,-0.008 -0.0319,0.0115 -0.0508,0.0564 -0.0785,0.0832 -0.0536,0.0517 -0.10541,0.1063 -0.15865,0.15865 -0.0532,0.0523 -0.10789,0.10247 -0.16795,0.14521 -0.0476,0.0339 -0.0936,0.0339 -0.12454,0.0109 -0.0154,-0.0115 -0.0272,-0.0288 -0.0336,-0.0506 -0.006,-0.0219 -0.007,-0.0485 -0.002,-0.078 0.0176,-0.0897 0.0646,-0.17319 0.0977,-0.25993 0.0242,-0.0633 0.056,-0.12556 0.0677,-0.19121 0.003,-0.0171 5.8e-4,-0.0339 -0.006,-0.0491 -0.007,-0.0152 -0.0176,-0.0288 -0.03,-0.0388 -0.0123,-0.01 -0.0262,-0.0166 -0.0398,-0.0181 z" /></g></svg>
