<?xml version="1.0" encoding="UTF-8" standalone="no"?>
<!-- Created with Inkscape (http://www.inkscape.org/) -->

<svg
   width="3.4238467mm"
   height="3.9069922mm"
   viewBox="0 0 1.7 2"
   version="1.1"
   id="svg35731"
   xml:space="preserve"
   inkscape:export-filename="bird-banjo-wing.svg"
   inkscape:export-xdpi="300"
   inkscape:export-ydpi="300"
   xmlns:inkscape="http://www.inkscape.org/namespaces/inkscape"
   xmlns:sodipodi="http://sodipodi.sourceforge.net/DTD/sodipodi-0.dtd"
   xmlns="http://www.w3.org/2000/svg"
   xmlns:svg="http://www.w3.org/2000/svg"><sodipodi:namedview
     id="namedview35733"
     pagecolor="#ffffff"
     bordercolor="#000000"
     borderopacity="0.25"
     inkscape:showpageshadow="2"
     inkscape:pageopacity="0.0"
     inkscape:pagecheckerboard="0"
     inkscape:deskcolor="#d1d1d1"
     inkscape:document-units="mm"
     showgrid="false" /><defs
     id="defs35728" /><g
     inkscape:label="Ciseal 1"
     inkscape:groupmode="layer"
     id="layer1"
     transform="translate(-66.069984,-22.856878)"><g
       id="g36246"
       transform="matrix(0.172966,0,0,0.172966,66.122899,22.89921)"><path
         id="path3513-1"
         style="display:inline;fill:#000000;fill-opacity:1;fill-rule:nonzero;stroke:none;stroke-width:0.352778"
         d="M 8.3524668,0.02718868 C 8.7422827,0.25226098 7.1662233,0.56358378 6.8931733,0.92059488 6.6282372,1.2670226 6.3367617,1.5929187 6.0513644,1.9231187 5.2505589,2.8495096 4.4937024,3.8075833 3.8819858,4.8733253 3.3898608,5.7316333 3.0281154,6.6487073 2.6608737,7.5620493 1.9902432,9.2289243 1.3733619,10.91607 0.78140077,12.611869 0.428623,13.62293 -0.00558999,14.611551 5.4462592e-5,15.71504 0.00111246,15.890723 0.01765806,16.020697 0.15560123,16.142405 c 0.3090298,0.272698 0.43058643,0.626675 0.42529477,1.037661 -0.003175,0.240594 -0.0479496,0.47051 -0.0966329,0.702285 -0.11571111,0.549624 -0.23640697,1.098473 -0.34365141,1.649511 -0.0606778,0.311856 -0.0339372,0.329198 0.2754383,0.218073 0.2458861,-0.08855 0.48298099,-0.206805 0.73380251,-0.275949 0.4430888,-0.121709 0.662947,-0.02392 0.9229442,0.350364 0.087136,0.125942 0.1386417,0.257772 0.1689806,0.408761 0.041981,0.206374 0.089944,0.414189 0.1989525,0.601514 0.1181806,0.2032 0.2837604,0.299857 0.524002,0.286805 0.2423583,-0.01305 0.4717344,-0.07681 0.6805789,-0.187586 0.3136159,-0.166864 0.5626594,-0.104497 0.809251,0.135392 0.3033889,0.295275 0.6243743,0.572745 0.9425799,0.852145 0.2169548,0.190144 0.2944248,0.188204 0.513147,-0.0072 0.1485159,-0.132644 0.2839156,-0.275794 0.3777544,-0.458886 0.1016,-0.198966 0.2219149,-0.391417 0.3813705,-0.550873 0.1979083,-0.197908 0.4132227,-0.216224 0.6418227,-0.05994 0.1139472,0.07832 0.1912196,0.190426 0.2713002,0.304373 0.1788583,0.254353 0.3140427,0.541211 0.5482872,0.754994 0.3220861,0.293158 0.6433467,0.257951 0.8722995,-0.113171 0.1241777,-0.200731 0.2253297,-0.41711 0.3198742,-0.634069 0.2183694,-0.50165 0.4167751,-1.012355 0.640789,-1.511536 0.3344337,-0.745772 0.7966037,-1.351894 1.6009377,-1.681035 0.998357,-0.408517 1.861312,-1.057141 2.694925,-1.732711 0.775402,-0.62865 1.497771,-1.316672 2.195213,-2.0314 0.548217,-0.561975 0.745296,-0.816744 1.707392,-1.621607 C 21.282001,0.94064678 18.453969,-0.21495442 8.3524668,0.02718868 Z" /><path
         d="m 59.326671,62.051267 c -0.105833,0.172862 -0.258939,0.172862 -0.394758,0.01905 -0.08502,-0.09631 -0.129117,-0.205316 -0.1397,-0.336902 -0.03246,-0.409223 -0.05962,-0.819856 -0.119945,-1.22555 -0.03387,-0.227895 0.109361,-0.347486 0.224014,-0.484364 0.03986,-0.04763 0.14605,-0.03845 0.244475,-0.0011 0.09878,0.03704 0.189442,0.102306 0.198261,0.16757 0.05786,0.431094 0.104422,0.8636 0.155575,1.295753 0.01341,0.20955 -0.06385,0.395464 -0.167922,0.565502 m -0.04762,3.39972 c -0.04092,0.27305 -0.331611,0.358775 -0.439561,0.5842 -0.01164,0.02364 -0.03493,0.02928 -0.05962,0.02364 -0.02469,-0.0056 -0.0508,-0.02223 -0.06773,-0.04269 -0.0822,-0.09984 -0.164747,-0.190853 -0.184856,-0.319264 -0.0067,-0.04269 -0.0063,-0.08961 0.0028,-0.14217 0.0515,-0.288572 0.09948,-0.577497 0.1397,-0.867833 0.04022,-0.290336 0.07267,-0.58173 0.09349,-0.874536 0.0018,-0.02258 0.0039,-0.0448 0.0071,-0.06703 0.0039,-0.02716 0.0088,-0.05398 0.01658,-0.07973 0.01446,-0.04657 0.03669,-0.09031 0.07267,-0.129822 0.02505,-0.02716 0.05186,-0.05292 0.07973,-0.0762 0.02999,-0.02505 0.06174,-0.04621 0.09807,-0.05539 0.02364,-0.0056 0.04833,-0.0067 0.07549,-0.0018 0.05292,0.0095 0.07691,0.04304 0.09066,0.08396 0.01376,0.04092 0.01729,0.08925 0.02928,0.128059 0.08714,0.286102 0.151694,0.577144 0.1905,0.879122 -0.04763,0.317147 -0.09596,0.637117 -0.144286,0.957439 m -0.700264,2.634191 c -0.0092,0.05821 -0.02328,0.119239 -0.04127,0.182034 -0.03598,0.125236 -0.08714,0.25788 -0.146403,0.391583 -0.02928,0.06668 -0.06068,0.133703 -0.09313,0.200025 -0.02681,0.05539 -0.0568,0.109008 -0.08784,0.162278 -0.09278,0.159808 -0.197203,0.313972 -0.270228,0.486128 -0.102658,0.242358 -0.363361,0.233186 -0.5588,0.323144 -0.05045,0.02328 -0.08326,-0.01834 -0.103363,-0.06562 -0.0067,-0.01552 -0.01199,-0.03175 -0.01623,-0.04657 -0.0085,-0.0321 -0.01199,-0.06385 -0.01129,-0.09454 0.0011,-0.06209 0.01764,-0.121708 0.03951,-0.179916 0.01094,-0.02893 0.02293,-0.05786 0.03457,-0.08608 0.16757,-0.40005 0.335492,-0.8001 0.513292,-1.195564 0.07091,-0.157692 0.1651,-0.2921 0.319264,-0.352425 0.05115,-0.02011 0.109361,-0.0321 0.17533,-0.03387 0.05927,-0.0018 0.104775,-0.0021 0.140053,0.0032 0.0702,0.01023 0.09772,0.04233 0.105833,0.129823 0.0042,0.04339 0.0035,0.100894 7.06e-4,0.176388 m -1.52332,-13.75897 c -0.0071,0.122414 0.0127,0.27305 -0.142875,0.309386 -0.1651,0.0381 -0.271992,-0.05362 -0.35807,-0.202142 -0.15628,-0.268816 -0.332669,-0.525991 -0.506589,-0.784225 -0.08749,-0.130528 -0.179564,-0.25788 -0.270933,-0.385586 -0.05362,-0.07514 -0.106539,-0.150636 -0.159103,-0.22613 -0.01764,-0.02575 -0.03528,-0.05115 -0.05186,-0.07726 -0.03351,-0.05186 -0.06209,-0.105833 -0.07761,-0.165805 -0.0078,-0.03034 -0.01235,-0.06209 -0.01235,-0.0956 0,-0.108656 0.02117,-0.179211 0.06879,-0.220133 0.04762,-0.04127 0.121356,-0.05256 0.226836,-0.04269 0.238831,0.02222 0.428273,0.09913 0.570442,0.263172 0.04727,0.05468 0.08925,0.118886 0.125942,0.194028 0.108655,0.22225 0.261761,0.424391 0.406752,0.626886 0.03598,0.04974 0.0702,0.09948 0.100542,0.149577 0.09031,0.150284 0.143228,0.304095 0.08043,0.47237 0,0.08431 0.0021,0.134055 -3.52e-4,0.18415 M 56.688591,71.97561 c -0.03563,0.07973 -0.07938,0.154869 -0.127353,0.227541 -0.04798,0.07232 -0.100189,0.14217 -0.152753,0.210961 -0.08431,0.110067 -0.1905,0.208845 -0.27058,0.321028 -0.02681,0.0374 -0.05045,0.0762 -0.06985,0.117475 -0.0822,0.178153 -0.20567,0.234597 -0.341136,0.251884 -0.135467,0.01764 -0.282928,-0.0039 -0.413103,0.01905 -0.03704,0.0067 -0.06914,-0.0085 -0.09454,-0.03704 -0.02505,-0.02858 -0.04339,-0.07056 -0.05327,-0.118886 -0.0046,-0.02399 -0.0074,-0.04974 -0.0074,-0.07585 -3.53e-4,-0.05221 0.0088,-0.106892 0.02999,-0.155575 0.01058,-0.02469 0.02399,-0.04762 0.04057,-0.06844 0.162983,-0.2032 0.321028,-0.40887 0.475192,-0.619125 0.161219,-0.220134 0.325261,-0.43815 0.480836,-0.66287 0.04939,-0.07126 0.102658,-0.142875 0.166511,-0.200378 0.02364,-0.02152 0.04904,-0.04127 0.07514,-0.05786 0.05292,-0.03351 0.110419,-0.05468 0.17145,-0.05327 0.03069,7.06e-4 0.06209,0.0071 0.09454,0.02046 0.08749,0.03669 0.08678,0.113594 0.08608,0.189441 -3.53e-4,0.02505 -7.06e-4,0.05009 0.0021,0.07373 0.0011,0.0092 7.06e-4,0.01658 0.0011,0.0254 0.0011,0.02611 -3.53e-4,0.04868 -3.53e-4,0.04727 0.0049,0.05221 0.006,0.102306 0.0039,0.150636 -0.0067,0.145345 -0.04304,0.274814 -0.09701,0.394406 M 57.88769,56.52077 c 0.08396,-0.04445 0.138642,0.01023 0.195086,0.06209 0.0187,0.01764 0.03739,0.03457 0.05786,0.04727 0.04128,0.02646 0.07902,0.05468 0.112889,0.08502 0.06738,0.06032 0.119592,0.130175 0.15628,0.214489 0.01834,0.04233 0.03281,0.08855 0.04339,0.138994 0.02928,0.141817 0.142522,0.258586 0.220486,0.385234 0.09948,0.161572 0.176036,0.330905 0.18027,0.509411 0.0014,0.07161 -0.0085,0.144639 -0.03351,0.219075 -0.01235,0.03739 -0.02858,0.07514 -0.04868,0.113241 -0.06985,0.131939 -0.137936,0.185209 -0.240241,0.165453 -0.03422,-0.0063 -0.07232,-0.02117 -0.115006,-0.04374 -0.03422,-0.01799 -0.06597,-0.03881 -0.09349,-0.0635 -0.02752,-0.02505 -0.0508,-0.05397 -0.06773,-0.08819 -0.05645,-0.115358 -0.105481,-0.233539 -0.149578,-0.352425 -0.08819,-0.238125 -0.157339,-0.480483 -0.229306,-0.715786 -0.03563,-0.117475 -0.07232,-0.233186 -0.112183,-0.345722 0.0074,-0.149225 0.01376,-0.27305 0.123472,-0.330906 m -3.294238,-5.411611 c -0.147814,0.146403 -0.437445,0.170392 -0.611364,0.03351 -0.24377,-0.192616 -0.481542,-0.3937 -0.714375,-0.599722 -0.18662,-0.165453 -0.372886,-0.328789 -0.579967,-0.468842 -0.187678,-0.127 -0.262114,-0.382411 -0.19685,-0.591608 0.04269,-0.136525 0.149578,-0.150636 0.267053,-0.14605 0.233539,0.006 0.441678,0.08819 0.616303,0.236714 0.340783,0.290689 0.673452,0.590903 1.008238,0.888647 0.04621,0.04092 0.08714,0.08925 0.125589,0.137936 0.130881,0.1651 0.172861,0.422628 0.08537,0.509411 M 54.03501,75.008799 c -0.03775,0.1016 -0.115711,0.186972 -0.235655,0.26423 -0.144992,0.09384 -0.276225,0.210609 -0.408164,0.323145 -0.05856,0.04974 -0.116064,0.09913 -0.178858,0.127 -0.0314,0.01376 -0.06385,0.02258 -0.09878,0.02328 -0.03457,7.06e-4 -0.07126,-0.0063 -0.111125,-0.02364 -0.02222,-0.0021 -0.03457,-0.0039 -0.04692,-0.0042 -0.101952,-0.0032 -0.229305,0.05503 -0.329847,0.04939 -0.06068,-0.0032 -0.111478,-0.02963 -0.141464,-0.106539 -0.08537,-0.219075 0.100895,-0.432506 0.244122,-0.579967 0.0635,-0.06562 0.136173,-0.122061 0.205317,-0.182386 0.191558,-0.167922 0.394406,-0.324908 0.599722,-0.475897 0.210961,-0.15487 0.421217,-0.02928 0.495653,0.225072 0.04163,0.141464 0.04375,0.258939 0.006,0.360539 M 51.308032,48.368782 c -0.01587,0.0388 -0.04762,0.08043 -0.09384,0.128411 -0.02328,0.02399 -0.05009,0.04939 -0.08043,0.0769 -0.02963,0.02681 -0.05891,0.05009 -0.08784,0.0702 -0.08714,0.06032 -0.171802,0.09102 -0.258233,0.09701 -0.08643,0.006 -0.174978,-0.01305 -0.269169,-0.05256 -0.0314,-0.01305 -0.06315,-0.02858 -0.09631,-0.04586 -0.147814,-0.07937 -0.298803,-0.153458 -0.451555,-0.224014 -0.152753,-0.07056 -0.30727,-0.136878 -0.462845,-0.200731 -0.218722,-0.0896 -0.328436,-0.252588 -0.394053,-0.440266 -0.02187,-0.0628 -0.03916,-0.128058 -0.05362,-0.194028 -0.02434,-0.111125 -0.0092,-0.1905 0.04586,-0.241653 0.05503,-0.05151 0.149931,-0.07444 0.28575,-0.07373 v 0 c 0.05045,0.01517 0.136525,0.03245 0.2159,0.06597 0.258586,0.109714 0.512586,0.228953 0.762706,0.355953 0.250119,0.127 0.496358,0.261761 0.739422,0.402519 0.142522,0.08255 0.209197,0.147814 0.209903,0.220134 3.53e-4,0.01799 -0.0039,0.03669 -0.01164,0.05574 m -2.330097,29.798432 c -0.716844,-0.478014 -0.853722,-0.896055 0.151694,-0.896055 1.006475,0 0.564798,1.373716 -0.151694,0.896055 m -1.3328,-31.175319 c -0.0074,0.04022 -0.03316,0.08467 -0.07126,0.128058 -0.0381,0.04304 -0.08819,0.08572 -0.14358,0.122414 -0.111125,0.07373 -0.244122,0.124884 -0.346428,0.1143 v 0 c -0.08678,-0.0085 -0.173214,-0.02187 -0.259292,-0.03916 -0.08572,-0.01693 -0.171097,-0.03739 -0.255058,-0.06068 -0.458964,-0.126647 -0.928158,-0.19438 -1.398058,-0.259292 -0.06174,-0.0085 -0.124531,-0.01482 -0.183797,-0.03316 -0.131939,-0.04127 -0.361245,-0.301272 -0.40887,-0.44203 -0.0067,-0.02011 -0.0099,-0.03775 -0.0085,-0.05221 0.0049,-0.0508 0.06421,-0.118181 0.144286,-0.182034 0.02681,-0.02117 0.05574,-0.04198 0.08573,-0.06209 0.06032,-0.03951 0.124883,-0.07444 0.183797,-0.09878 0.05856,-0.0247 0.11183,-0.03881 0.149578,-0.03598 0.737305,0.09596 1.435452,0.234598 2.125133,0.41275 0.23495,0.06068 0.4191,0.310092 0.386292,0.487892 M 45.11358,78.887937 c -0.06244,0.137231 -0.196144,0.269875 -0.318911,0.286103 -0.282222,0.03775 -0.566914,0.06209 -0.851253,0.08361 -0.135819,0.01023 -0.273402,0.0018 -0.41028,0.0018 v 0.02893 c -0.16122,0 -0.323145,-0.0078 -0.483658,0.0018 -0.232481,0.01376 -0.406753,-0.09384 -0.557389,-0.25012 -0.04833,-0.05009 -0.0822,-0.09172 -0.103011,-0.128763 -0.05221,-0.09313 -0.02222,-0.159456 0.07126,-0.267406 0.01834,-0.02152 0.03951,-0.0448 0.06315,-0.0702 0.05503,-0.05962 0.112183,-0.106539 0.171097,-0.14358 0.176742,-0.111125 0.372533,-0.130528 0.594431,-0.118534 0.22225,0.01199 0.446264,-0.0134 0.669572,-0.02646 0.12453,-0.0071 0.248355,-0.01552 0.370417,-0.01235 0.08114,0.0025 0.161572,0.0099 0.240594,0.02681 0.118886,0.02575 0.234597,0.07232 0.346428,0.153458 0.05715,0.04163 0.117122,0.07585 0.161925,0.119945 0.0448,0.0441 0.07444,0.09807 0.07091,0.179916 -0.0018,0.04269 -0.01446,0.0889 -0.03528,0.135114 M 41.225618,46.97538 c -0.141816,0.01764 -0.283633,0.03669 -0.425449,0.05644 -0.07338,0.0099 -0.151695,0.01517 -0.222603,-7.06e-4 -0.08185,-0.01834 -0.148167,-0.07197 -0.188736,-0.141111 -0.04057,-0.06879 -0.05574,-0.153458 -0.03563,-0.233186 0.01658,-0.06562 0.04692,-0.131586 0.08784,-0.194028 0.121708,-0.187677 0.335844,-0.345016 0.539397,-0.366536 0.129822,-0.01376 0.259644,-0.02681 0.39123,-0.03951 0.395464,-0.03845 0.808214,-0.07408 1.28905,-0.119239 0.05256,-0.0187 0.105128,-0.0187 0.158045,-0.0056 0.05292,0.01305 0.106186,0.03916 0.159808,0.07338 0.05362,0.03387 0.107597,0.07549 0.162278,0.118886 0.04269,0.03387 0.08608,0.06879 0.129822,0.102658 0.01199,0.0092 0.02434,0.01905 0.03669,0.02822 0.04022,0.02999 0.06915,0.05962 0.08749,0.0889 0.01834,0.02963 0.02611,0.05891 0.02399,0.08819 -0.0046,0.05891 -0.04833,0.118886 -0.125942,0.182386 -0.172155,0.142169 -0.364772,0.222955 -0.572205,0.254 -0.06915,0.01058 -0.1397,0.01552 -0.21202,0.01552 -0.14358,-3.53e-4 -0.286455,0.0042 -0.42933,0.01164 -0.28575,0.01552 -0.570089,0.0448 -0.853723,0.07973 m -0.0081,31.835725 c -0.0092,0.03563 -0.02575,0.07161 -0.05009,0.108655 -0.07267,0.109361 -0.153811,0.182386 -0.271639,0.198261 -0.03916,0.0053 -0.08255,0.0042 -0.13088,-0.0039 -0.306211,-0.05151 -0.611364,-0.106892 -0.915106,-0.169334 -0.303741,-0.06244 -0.606072,-0.131586 -0.906286,-0.210961 -0.06279,-0.01693 -0.111478,-0.04586 -0.151694,-0.0829 -0.04022,-0.03669 -0.07197,-0.08079 -0.101248,-0.128059 -0.02893,-0.04692 -0.05503,-0.09631 -0.08396,-0.14358 -0.01446,-0.02328 -0.02963,-0.04621 -0.04586,-0.06809 -0.01658,-0.02152 -0.03457,-0.04233 -0.05433,-0.06103 -7.05e-4,-3.53e-4 0,-0.0032 -3.52e-4,-0.0042 -0.01129,-0.01693 -0.0018,-0.0762 0.01799,-0.09525 0.03986,-0.03916 0.08043,-0.07761 0.121709,-0.1143 0.12453,-0.109009 0.258586,-0.198967 0.419805,-0.225072 v 0 c 0.202847,0.04198 0.388761,0.06632 0.565503,0.121002 0.299156,0.09207 0.607483,0.140053 0.914047,0.175331 0.281164,0.0321 0.445206,0.192617 0.593372,0.398286 0.07126,0.09842 0.106892,0.198967 0.07902,0.305153 m -4.380442,-1.192036 c -0.03246,0.0314 -0.06279,0.05927 -0.09102,0.08325 -0.05644,0.04798 -0.105833,0.08185 -0.154164,0.101953 -0.02434,0.01023 -0.04833,0.01693 -0.07303,0.02046 -0.04939,0.0067 -0.100894,7.06e-4 -0.160866,-0.01764 -0.06032,-0.01834 -0.128764,-0.04868 -0.212725,-0.09031 -0.299156,-0.148872 -0.601486,-0.292805 -0.897467,-0.448028 -0.208139,-0.109361 -0.316441,-0.368652 -0.263172,-0.582789 0.01058,-0.04233 0.03104,-0.07338 0.05856,-0.09454 0.02752,-0.02152 0.06209,-0.03316 0.100895,-0.03775 0.110772,-0.01305 0.222602,-0.01587 0.373238,-0.02575 0.03598,-0.01482 0.07232,-0.02152 0.109009,-0.02187 0.110772,-0.0011 0.226483,0.05398 0.346075,0.117122 0.126294,0.06667 0.255058,0.127706 0.384527,0.187325 0.129823,0.05997 0.259998,0.118533 0.388409,0.180269 0.163689,0.07832 0.253294,0.17145 0.268464,0.277284 0.01517,0.10548 -0.04375,0.223308 -0.176742,0.351014 m -2.67088,-1.696156 c -0.01517,0.01905 -0.03246,0.03634 -0.05221,0.05115 -0.03951,0.02999 -0.08749,0.05045 -0.141816,0.05574 -0.04904,0.0046 -0.09878,0.0049 -0.14852,0.0042 -0.04974,-7.05e-4 -0.09984,-0.0028 -0.149225,-0.0028 -0.06914,0.0021 -0.136525,-0.0032 -0.201436,-0.01482 -0.26035,-0.04657 -0.482953,-0.197555 -0.621594,-0.406047 -0.10407,-0.156281 -0.160867,-0.345017 -0.150636,-0.546453 0.0081,-0.1651 0.332316,-0.311503 0.509058,-0.192264 0.164042,0.110773 0.325614,0.226836 0.4826,0.348192 0.156986,0.121356 0.309739,0.248356 0.4572,0.380294 0.04022,0.03634 0.06279,0.07973 0.07091,0.125237 0.0039,0.02258 0.0039,0.04586 0.0011,0.06879 -0.0064,0.04586 -0.02575,0.09066 -0.05539,0.128764 M 32.002974,51.298601 c -0.03845,0.01094 -0.07832,0.0187 -0.120297,0.02258 -0.255764,0.02434 -0.330906,-0.05045 -0.317853,-0.359481 -0.02046,-0.157691 0.0508,-0.32385 0.200378,-0.455436 0.531283,-0.467783 1.04775,-0.953911 1.646061,-1.338792 0.04092,-0.02646 0.08396,-0.04339 0.127353,-0.0515 0.08714,-0.01588 0.176389,0.0035 0.254705,0.05327 0.03916,0.02469 0.07514,0.05715 0.107245,0.09701 0.06773,0.08396 0.103011,0.173214 0.104422,0.259997 0.0018,0.08643 -0.02999,0.170745 -0.09631,0.245534 -0.04904,0.05539 -0.107245,0.104422 -0.166864,0.148872 -0.500592,0.370417 -0.97155,0.775758 -1.429456,1.196622 -0.09278,0.08537 -0.194027,0.14852 -0.309386,0.181328 M 31.81706,73.89437 c -0.0085,0.04692 -0.02117,0.08819 -0.03845,0.123825 -0.03492,0.07267 -0.08925,0.119944 -0.166864,0.139347 -0.03669,0.0095 -0.07796,0.01305 -0.125589,0.0088 -0.115711,-0.0032 -0.222603,-0.02928 -0.317853,-0.08608 -0.03175,-0.01905 -0.06244,-0.04128 -0.09172,-0.06703 -0.158397,-0.140406 -0.307622,-0.288925 -0.445558,-0.446969 -0.137937,-0.158045 -0.264584,-0.325967 -0.377825,-0.505531 -0.103012,-0.162983 -0.08749,-0.357011 -0.134056,-0.534811 -0.02893,-0.111125 0.06279,-0.170392 0.158044,-0.141111 0.180623,0.05574 0.371123,0.08467 0.538339,0.170039 0.100189,0.05151 0.191911,0.123472 0.268111,0.233539 0.08749,0.126647 0.188031,0.244122 0.292806,0.358775 0.104775,0.1143 0.214136,0.225777 0.319264,0.339725 0.109714,0.118886 0.151694,0.248002 0.121355,0.407458 m -2.085269,-2.351617 c -0.06421,0.08572 -0.146756,0.15487 -0.221192,0.17392 -0.04445,0.01164 -0.08431,0.01305 -0.120297,0.0067 -0.03634,-0.0063 -0.06879,-0.02046 -0.09842,-0.03986 -0.05927,-0.03916 -0.106539,-0.09948 -0.147108,-0.162984 -0.127706,-0.198966 -0.248003,-0.402166 -0.363009,-0.608541 -0.115005,-0.206375 -0.224719,-0.415573 -0.331258,-0.626534 -0.07267,-0.144286 -0.138289,-0.292452 -0.215194,-0.434269 -0.04375,-0.08079 -0.04833,-0.153106 -0.02963,-0.220486 0.01835,-0.06703 0.05997,-0.129117 0.108656,-0.188736 0.02646,-0.03246 0.05503,-0.05503 0.08502,-0.0695 0.02963,-0.01482 0.06103,-0.02152 0.09313,-0.02258 0.06421,-0.0028 0.131939,0.01658 0.198966,0.03881 0.12065,0.04057 0.230364,0.09913 0.2921,0.217311 0.270581,0.517525 0.598311,1.004711 0.817739,1.549048 0.0092,0.02258 0.01764,0.04551 0.0247,0.06562 0.0071,0.02011 0.01305,0.03704 0.01693,0.04798 -0.0011,0.08572 -0.04727,0.188383 -0.111125,0.274108 m -1.875014,-3.384197 c -0.03634,0.0074 -0.09807,-0.01552 -0.163689,-0.05503 -0.04339,-0.02575 -0.0889,-0.05927 -0.129116,-0.09525 -0.06032,-0.05362 -0.109362,-0.113595 -0.125589,-0.164747 -0.09631,-0.307623 -0.185561,-0.617714 -0.272345,-0.928511 -0.03669,-0.130881 -0.06138,-0.265289 -0.08925,-0.398639 -0.01517,-0.07267 -0.03634,-0.146403 -0.03563,-0.219781 0.0011,-0.158044 0.218369,-0.402519 0.366889,-0.42545 0.150989,-0.02328 0.319616,0.100542 0.3683,0.304447 0.109361,0.458611 0.237772,0.911225 0.375708,1.362075 0.01411,0.04692 0.02152,0.09631 0.02893,0.12947 -0.0032,0.113241 -0.249414,0.475191 -0.324203,0.491419 m -0.948619,-3.428294 c -0.09349,-0.103364 -0.175684,-0.213078 -0.186973,-0.355247 -0.03563,-0.445206 -0.08573,-0.889706 -0.07373,-1.337028 7.05e-4,-0.02081 0.006,-0.04586 0.01517,-0.07303 0.03669,-0.109008 0.134761,-0.258586 0.23742,-0.375003 0.02575,-0.02893 0.0515,-0.05609 0.07691,-0.07973 0.05045,-0.04762 0.09842,-0.08255 0.136878,-0.0949 0.135114,-0.04445 0.252589,0.03528 0.270581,0.220133 0.0095,0.09807 0.01058,0.197203 0.0092,0.291748 -0.0011,0.09419 -0.0049,0.183797 -0.0049,0.262819 0.02046,0.211314 0.02963,0.413456 0.04163,0.610306 0.01199,0.197202 0.02681,0.388761 0.05821,0.579261 0.02187,0.131939 0.02752,0.261761 -0.100894,0.372533 -0.1143,0.09843 -0.183798,0.148872 -0.249767,0.146756 -0.06597,-0.0021 -0.128411,-0.0568 -0.229658,-0.168628 m -0.124884,-4.393847 c 0.07373,-0.391231 0.141464,-0.783873 0.223661,-1.173692 0.0042,-0.02046 0.01446,-0.04339 0.02928,-0.06703 0.103364,-0.167922 0.4318,-0.395111 0.567972,-0.379236 0.144286,0.01658 0.223309,0.108303 0.197556,0.259292 -0.03104,0.18415 -0.07691,0.36583 -0.108303,0.54998 -0.05891,0.343606 -0.113947,0.68827 -0.166511,1.032934 -0.02081,0.136877 -0.04092,0.271639 -0.146756,0.37465 -0.02187,0.02152 -0.04339,0.04516 -0.06526,0.06809 -0.06597,0.06879 -0.136877,0.131233 -0.242711,0.108303 -0.130527,-0.02822 -0.137583,-0.157339 -0.161572,-0.268112 -0.0092,-0.04198 -0.02328,-0.0829 -0.0388,-0.123472 -0.04727,-0.121708 -0.10795,-0.240947 -0.08855,-0.381705 m 1.2573,3.778602 -0.02011,-0.0039 0.01376,-0.0194 z m -0.436033,-7.120113 c 0.191558,-0.485775 0.364419,-0.98037 0.606072,-1.444625 0.02011,-0.0381 0.04163,-0.07197 0.06526,-0.102306 0.04692,-0.05997 0.100189,-0.104422 0.156986,-0.132644 0.02858,-0.01446 0.05786,-0.02434 0.08749,-0.03069 0.119239,-0.02434 0.245886,0.01623 0.356658,0.123119 0.05715,0.05539 0.08925,0.109714 0.09913,0.168628 0.0049,0.02963 0.0042,0.06033 -0.0018,0.09278 -0.006,0.03281 -0.01729,0.06738 -0.03351,0.105128 -0.232833,0.536575 -0.460022,1.076325 -0.670278,1.622425 -0.02046,0.05292 -0.0441,0.09737 -0.07161,0.134408 -0.02787,0.03704 -0.05891,0.06667 -0.09419,0.0896 -0.0702,0.04586 -0.156281,0.06491 -0.259292,0.0635 -0.221544,-0.0028 -0.18415,-0.196497 -0.231422,-0.326319 -0.02117,-0.05821 -0.03493,-0.118533 -0.05151,-0.176742 0.01411,-0.06562 0.0194,-0.129469 0.04198,-0.186266 m 1.584678,-3.267075 c 0.18168,-0.295981 0.366889,-0.591609 0.570441,-0.873125 0.130528,-0.180622 0.276931,-0.34925 0.388056,-0.545042 0.02646,-0.04621 0.05644,-0.08714 0.08996,-0.123119 0.100542,-0.107598 0.233186,-0.168981 0.393348,-0.18415 0.113241,-0.0035 0.205669,0.02858 0.272697,0.103716 0.02258,0.02505 0.04198,0.05503 0.05856,0.08996 0.05997,0.126294 0.113947,0.25788 0.0099,0.384527 -0.221192,0.26917 -0.42792,0.548217 -0.627239,0.832909 -0.19932,0.285044 -0.390878,0.575027 -0.582436,0.865716 -0.124884,0.189442 -0.275167,0.201789 -0.448381,0.08431 -0.04339,-0.02963 -0.08079,-0.07161 -0.110067,-0.121355 -0.08784,-0.149578 -0.10548,-0.366536 -0.01482,-0.51435 m 30.845124,7.843661 c -0.09984,-1.670756 -0.440267,-3.287536 -1.006122,-4.858103 -0.578203,-1.605492 -1.39065,-3.091744 -2.363964,-4.490155 -0.506942,-0.728487 -1.068211,-1.41605 -1.729317,-2.010834 -0.927805,-0.834672 -1.905,-1.606903 -2.976033,-2.255661 -1.601258,-0.969786 -3.291064,-1.728258 -5.121628,-2.145594 -1.726494,-0.3937 -3.473802,-0.517172 -5.241219,-0.376061 -0.74683,0.05997 -1.492603,0.12065 -2.230966,0.248355 -0.282928,0.04904 -0.481542,-0.03245 -0.615598,-0.296686 -0.112536,-0.221544 -0.248002,-0.430742 -0.34678,-0.661458 -0.584553,-1.363839 -1.194506,-2.717095 -1.757539,-4.0894 -1.008592,-2.457803 -2.179814,-4.843286 -3.192639,-7.299325 -0.451203,-1.094317 -0.958497,-2.165703 -1.433689,-3.250494 -0.97155,-2.21615 -1.938161,-4.43477 -2.907594,-6.651978 -0.874536,-1.999897 -1.758597,-3.995561 -2.62255,-6.000044 -0.735189,-1.706034 -1.261886,-3.468511 -1.361722,-5.339292 -0.01164,-0.215194 0.01376,-0.368653 0.217664,-0.504119 0.501297,-0.333022 0.525639,-0.56515 0.149225,-1.029053 -0.164748,-0.2032 -0.232128,-0.414514 -0.214489,-0.6872107 0.05256,-0.822325 -0.286809,-1.451328 -1.019528,-1.848203 -0.177094,-0.09596 -0.354542,-0.185914 -0.477661,-0.351014 -0.204611,-0.274461 -0.18027,-0.451908 0.08749,-0.671336 0.07691,-0.06315 0.158044,-0.122414 0.2286,-0.192264 0.652991,-0.646642 1.441803,-1.065389 2.3114,-1.322564 1.354314,-0.400755 2.719211,-0.314678 4.071408,0.01482 0.983192,0.239536 1.969558,0.458258 2.967214,0.626533 1.39065,0.233892 2.792236,0.402167 4.168422,0.719314 1.368425,0.315736 2.687461,0.760942 3.893255,1.497895 0.132645,0.08114 0.276225,0.118886 0.42157,0.146403 0.496005,0.09384 0.995186,0.03422 1.493308,0.01446 0.11042,-0.0042 0.201436,-0.04621 0.168981,-0.18415 C 43.492946,7.8949413 43.38041,7.4828963 42.944377,7.2415963 42.57396,7.0366323 42.226827,6.7889823 41.872638,6.5554433 40.280552,5.5069883 38.585807,4.6754913 36.770766,4.0810603 35.751944,3.7473323 34.73171,3.4044323 33.765805,2.9341798 32.139146,2.141841 30.591158,1.2076854 29.046697,0.26682708 27.768935,-0.51175342 26.496113,-1.299859 25.174255,-2.0043562 c -1.788936,-0.9535583 -3.645253,-1.7462499 -5.580239,-2.3526749 -1.949097,-0.6106583 -3.941233,-1.000125 -5.978877,-1.1624028 -0.254,-0.020108 -2.5019,-1.2029722 -5.1293892,-1.0929055 -2.6278416,0.1104194 -4.4467638,1.495425 -4.960761,1.7190861 -0.8466667,0.3686527 -1.6764,0.7799916 -2.54881942,1.0840861 -0.29986111,0.1044222 -0.48506944,0.2765777 -0.60536666,0.5591527 -0.12523611,0.2945695 -0.11535833,0.3439583 0.1778,0.4843639 0.10265833,0.049036 0.20743333,0.075847 0.32279166,0.084314 0.75741392,0.055033 1.47390552,0.2726972 2.15229722,0.6007805 1.2929305,0.625475 2.471561,1.45097498 3.7126332,2.16781948 0.3898194,0.2250721 0.4300361,0.4762499 0.1569861,0.833261 C 7.6714963,7.0028713 11.189947,12.55553 18.162444,12.578419 c 0.195792,-0.164042 0.181328,-0.159809 0.345722,0.05644 0.149578,0.197203 0.289278,0.411692 0.499534,0.550333 0.18168,0.119945 0.314325,0.266347 0.430036,0.451909 0.212019,0.340077 0.503766,0.533752 0.941916,0.436033 0.362656,-0.08114 0.517173,-0.01411 0.667103,0.34678 0.282222,0.680156 0.698147,1.295048 0.938389,1.995312 0.129469,0.377119 0.297039,0.740833 0.479072,1.097491 0.333728,0.654403 0.654756,1.317625 0.951089,1.98755 0.41275,0.933803 0.802569,1.880306 1.145822,2.844447 0.334786,0.940153 0.748242,1.851025 1.053042,2.80282 0.06738,0.210608 0.08537,0.409575 0.0127,0.621241 -0.04374,0.127 -0.0092,0.651934 -0.289983,0.743303 -0.137937,-0.29598 -0.375356,-0.512586 -0.65652,-0.58808 -0.395817,-0.106187 -0.758119,0.08784 -0.82938,0.475544 -0.08396,0.455083 0.02364,0.868186 0.381705,1.184981 0.251531,0.222955 0.55245,0.303741 0.865717,0.166158 0.30233,-0.132292 0.360891,-0.419453 0.366536,-0.645231 -3.53e-4,-0.153105 -0.02681,-0.296686 -0.06914,-0.430389 0.124531,-0.03739 0.252942,-0.05398 0.257175,0.05856 0.0081,0.218369 0.100895,0.569383 0.244828,0.835025 0.147108,0.270933 0.245533,0.572911 0.333375,0.870655 0.152047,0.516114 0.315031,1.025172 0.592314,1.490486 0.08996,0.150989 0.153811,0.311503 0.192264,0.48507 0.03775,0.170038 0.07444,0.345016 0.146403,0.502002 0.599016,1.30422 1.11513,2.643011 1.664405,3.968045 0.788811,1.902177 1.58115,3.802591 2.340328,5.717116 0.910872,2.296584 1.836914,4.58717 2.765072,6.876697 0.09984,0.246945 0.05397,0.424745 -0.117828,0.609248 -0.148166,0.159102 -0.357364,0.234949 -0.504119,0.384527 -0.508706,0.518584 -1.105606,0.931334 -1.654881,1.400528 -1.268588,1.083028 -2.414058,2.270125 -3.288594,3.705225 -0.95885,1.573389 -1.605492,3.268486 -1.987903,5.061655 -0.386644,1.813278 -0.535516,3.645959 -0.389819,5.503686 0.161572,2.052109 0.673805,4.001206 1.534583,5.868459 0.747183,1.621719 1.706739,3.099858 2.915003,4.411133 0.718255,0.779991 1.516591,1.474611 2.366786,2.113844 1.367367,1.027642 2.84233,1.846086 4.452055,2.4257 0.213431,0.07691 0.468842,0.106186 0.598311,0.345017 0.02646,0.04904 0.09172,0.04445 0.13335,0.01164 0.122414,-0.09595 0.238125,-0.02575 0.354895,0.0067 0.9525,0.262114 1.917347,0.462492 2.901244,0.552803 0.830439,0.0762 1.658409,0.122414 2.498725,0.07338 1.07562,-0.06244 2.140656,-0.176389 3.182761,-0.430389 2.740378,-0.667808 5.167136,-1.952272 7.294739,-3.801886 0.244475,-0.212725 0.458964,-0.474133 0.733425,-0.633942 0.306917,-0.178153 0.420158,-0.496358 0.655461,-0.718961 0.409928,-0.386997 0.764822,-0.824794 1.090083,-1.280583 0.535164,-0.748947 1.032228,-1.522589 1.437923,-2.355497 0.586316,-1.203678 1.096433,-2.433814 1.408994,-3.737681 0.427567,-1.782586 0.596194,-3.58775 0.487186,-5.421841"
         style="display:none;opacity:1;fill:#000000;fill-opacity:1;fill-rule:nonzero;stroke:none;stroke-width:0.352778"
         id="path3510-8" /></g></g></svg>
