<?xml version="1.0" encoding="UTF-8" standalone="no"?>
<!-- Created with Inkscape (http://www.inkscape.org/) -->

<svg
   version="1.1"
   id="svg4649"
   width="37.598854"
   height="51.759983"
   viewBox="0 0 37.598853 51.759982"
   sodipodi:docname="bird-mando-body.svg"
   inkscape:version="1.3 (0e150ed, 2023-07-21)"
   xmlns:inkscape="http://www.inkscape.org/namespaces/inkscape"
   xmlns:sodipodi="http://sodipodi.sourceforge.net/DTD/sodipodi-0.dtd"
   xmlns="http://www.w3.org/2000/svg"
   xmlns:svg="http://www.w3.org/2000/svg">
  <sodipodi:namedview
     id="namedview1"
     pagecolor="#ffffff"
     bordercolor="#000000"
     borderopacity="0.25"
     inkscape:showpageshadow="2"
     inkscape:pageopacity="0.0"
     inkscape:pagecheckerboard="0"
     inkscape:deskcolor="#d1d1d1"
     inkscape:zoom="7.9257735"
     inkscape:cx="18.799427"
     inkscape:cy="33.561393"
     inkscape:window-width="1392"
     inkscape:window-height="1027"
     inkscape:window-x="2001"
     inkscape:window-y="44"
     inkscape:window-maximized="0"
     inkscape:current-layer="svg4649" />
  <defs
     id="defs4653" />
  <path
     d="m 13.1784,22.420786 c -0.1747,-0.048 -0.3147,-0.1093 -0.4587,-0.1173 -0.088,0 -0.1813,0.073 -0.272,0.1133 0.152,0.065 0.3014,0.152 0.4614,0.1853 0.063,0.012 0.1506,-0.097 0.2693,-0.1813 m 10.2027,15.564001 c 0.099,-0.604 -0.028,-1.0947 -0.432,-1.612 -2.5014,-3.2053 -4.9374,-6.4627 -7.444,-9.664 -0.4414,-0.5613 -0.7534,-0.9987 -1.4814,-0.508 -0.036,0.024 -0.9013,-1.844001 -1.372,-2.117301 -0.4706,-0.2747 -1.3333,-0.2747 -1.412,-0.5494 -0.079,-0.2746 -0.039,-0.4706 0.079,-0.8626 0.1173,-0.392 0.1667,-0.9534 -0.1893,-0.444 -0.021,0.031 -0.184,-0.04 -0.2814,-0.063 0.236,-0.9587 -0.612,-0.7373 -1.0413,-0.9693 -0.2787,-0.1494 -0.5707,-0.276 -0.8507,-0.424 -1.0706,-0.568 -2.1773,-1.0174 -3.356,-1.328 -1.0053,-0.2667 -1.9866,-0.6534 -2.9413,-1.072 -0.7427,-0.3267 -1.4653,-0.4254 -2.2493,-0.2614 -0.12,0.024 -0.272,-0.1106 -0.4094,-0.172 0.064,-0.128 0.104,-0.348 0.1947,-0.3706 0.9307,-0.2334 1.7173,-0.708 2.5187,-1.2414 0.8,-0.5333 1.8213,-0.4106 2.7706,-0.4266 1.1738,-0.2303 1.1614,-0.2271 1.6752,-0.2754 4.7084,-0.4428 7.4497,1.4707 8.6785,2.4443 0.6152,0.4874 0.7129,0.9444 1.5556,0.9977 0.7373,0.047 1.4813,0.056 2.2173,0.012 1.4573,-0.085 2.6747,0.5 3.744,1.3894 0.6467,0.5386 1.176,1.2213 1.74,1.8546 0.34,0.3827 0.2987,0.7334 -0.1,1.0947 -0.576,0.5213 -1.188,0.8213 -1.9933,0.788 -1.2414,-0.051 -2.4427,-0.3653 -3.4467,-1.0133 -1.5453,-0.9974 -3.176,-0.9947 -4.8707,-0.868 -0.1013,0.01 -0.2,0.048 -0.2986,0.073 0.087,0.083 0.1693,0.1693 0.26,0.2467 0.4013,0.3453 0.908,1.5573 1.7453,2.1786 0.1347,0.316 -0.052,0.3587 0.104,0.868001 0.1573,0.5107 0.4493,0.572 1.14,1.4307 2.1533,2.676 6.2427,7.5213 6.6107,7.8893 0.368,0.3667 0.74,0.696 0.8866,0.7667 0.1467,0.071 0.7374,0.3613 1.1027,0.5613 0.74,0.404 1.4693,0.6 2.1707,-0.084 0.2746,-0.268 0.568,-0.2906 0.8013,0.037 0.6093,0.852 1.584,1.004 2.4653,1.3173 1.92,0.6853 3.6174,1.6427 4.7987,3.4107 2.2747,3.4013 0.8027,7.376 -1.6947,9.1546 -1.4293,1.0187 -2.8813,1.6974 -4.668,1.572 -2.2013,-0.1546 -3.9293,-1.1466 -5.1213,-2.9773 -1.0587,-1.6253 -1.5787,-3.4547 -1.5787,-5.416 0,-0.32 0.011,-0.6413 -0.021,-0.9587 -0.061,-0.6146 -0.328,-1.0906 -0.9067,-1.3853 -0.468,-0.236 -0.9266,-0.5053 -1.3493,-0.8147 -0.9867,-0.72 -1.1,-1.6293 -0.3653,-2.592 0.508,-0.664 1.084,-0.7733 1.7906,-0.3133 0.304,0.196 0.5814,0.4347 0.872,0.6547 -0.011,0.1026 0,0.2173 -0.035,0.308 -0.2254,0.5133 -0.4654,1.0066 -1.0014,0.2386 -0.033,-0.048 -0.2053,-0.069 -0.232,-0.036 -0.088,0.1094 -0.224,0.28 -0.1906,0.372 0.1973,0.5387 0.7933,0.8414 1.228,0.66 0.52,-0.2173 0.5733,-0.6466 0.184,-1.5013"
     style="display:inline;fill:#000000;fill-opacity:1;fill-rule:nonzero;stroke:none;stroke-width:1.33333"
     id="path4720" />
  <path
     id="path4673-9"
     style="display:inline;fill:#000000;fill-opacity:1;fill-rule:nonzero;stroke:none;stroke-width:1.33333"
     d="m 7.8252,0.00198663 c -0.079,0.012 -0.1881,0.1085 -0.2071,0.1855 -0.047,0.2053 -0.049,0.4202 -0.074,0.6309 C 7.4295,1.7636866 7.3187,2.7096866 7.1867,3.6523866 c -0.013,0.093 -0.1493,0.1973 -0.2519,0.2343 -0.041,0.016 -0.1901,-0.122 -0.2071,-0.207 -0.061,-0.3094 -0.064,-0.6308 -0.1328,-0.9375 -0.104,-0.46 -0.2375,-0.9158 -0.3789,-1.3652 -0.02,-0.062 -0.1623,-0.1311 -0.2383,-0.1211 -0.081,0.011 -0.1947,0.097 -0.2187,0.1738 -0.042,0.148 -0.053,0.312 -0.053,0.4707 -0.026,1.0653 -0.036,2.1313 -0.08,3.1953 -0.01,0.14 -0.1565,0.3816 -0.2579,0.3926 -0.7026,0.071 -0.7168,0.057 -0.6738,0.6796997 0.024,0.368 0.052,0.745 0.1543,1.0957 0.488,1.668 1.0099,3.3274997 1.5059,4.9940997 0.196,0.6574 0.3702,1.3236 0.5234,1.9883 0.2227,0.9666 0.05,0.5255 -0.049,1.6523 2.6113,1.7799 3.7232,2.214 8.4959,2.9604 0.8819,0.1195 0.7752,-0.6515 0.8195,-1.0957 0.2333,-1.544 -0.3205,-2.996 -0.3965,-4.5 -0.012,-0.2387 -0.1558,-0.5054 -0.3144,-0.6934 -0.2,-0.2373 -0.6105,-0.3652 -0.6895,-0.6172 -0.093,-0.304 0.1116,-0.6878 0.1016,-1.0371 0,-0.252 -0.1381,-0.5005 -0.2031,-0.7539 C 14.2277,8.5588863 12.9316,7.3895863 12.5369,5.7669863 12.3049,4.8149866 11.9118,3.9012866 11.6932,2.9466866 c -0.098,-0.4227 0.055,-0.904 0.094,-1.3574 -0.672,0.043 -0.6381,0.7458 -0.9941,1.0898 -0.1453,0.14 -0.2104,0.3643 -0.3184,0.5469 -0.079,0.1347 -0.1689,0.2625 -0.2539,0.3945 -0.054,-0.1933 -0.1543,-0.3854 -0.1543,-0.5801 -0.01,-0.3173 -0.068,-0.7109 0.088,-0.9375 0.3857,-0.5654 -0.061,-1.0156 -0.09,-1.51559997 0,-0.08 -0.099,-0.1574 -0.1524,-0.2344 -0.084,0.061 -0.2041,0.1045 -0.2441,0.1875 -0.089,0.1867 -0.1392,0.3925 -0.2032,0.58989997 -0.212,0.6506 -0.4158,1.3052 -0.6464,1.9492 -0.031,0.088 -0.1961,0.1619 -0.3028,0.1719 -0.064,0 -0.1953,-0.1377 -0.1953,-0.2207 -0.015,-0.3054 -0.066,-0.6407 0.033,-0.9141 0.2627,-0.7333 -0.1272,-1.34529997 -0.2832,-1.99999997 -0.015,-0.059 -0.1681,-0.1272 -0.2441,-0.1152 z" />
</svg>
