<?xml version="1.0" encoding="UTF-8" standalone="no"?>
<!-- Created with Inkscape (http://www.inkscape.org/) -->

<svg
   width="9.0014038mm"
   height="11.688263mm"
   viewBox="0 0 9.0014038 11.688263"
   version="1.1"
   id="svg5"
   xml:space="preserve"
   xmlns="http://www.w3.org/2000/svg"
   xmlns:svg="http://www.w3.org/2000/svg"><defs
     id="defs2" /><path
     id="path1070"
     style="display:inline;fill:#000000;fill-opacity:1;fill-rule:nonzero;stroke:none;stroke-width:0.0901744"
     d="M 1.7533812,0.59582936 C 1.6770887,0.62454866 1.5992657,0.67753876 1.5187702,0.66352547 1.3851649,0.64026642 1.3640822,0.7010732 1.302246,0.736906 1.2280862,0.77988006 1.1574796,0.83334647 1.078487,0.86454682 0.96779806,0.90819106 0.8699203,0.96733214 0.7782469,1.0361126 0.6865735,1.1048931 0.51728093,1.1470446 0.51728093,1.2640057 v 5.14e-4 c 0,0.2171422 -0.23922537,0.3757729 -0.46560467,0.4594035 -0.01501395,0.00555 -0.03072477,0.033729 -0.04082431,0.062528 -0.0100995326,0.028799 -0.01449373,0.058235 -0.00723469,0.065629 0.03895526,0.039586 0.10490965,0.079169 0.15657951,0.074931 0.20704013,-0.016953 0.41179732,-0.05493 0.61856692,-0.076481 0.19288266,-0.020199 0.39035351,-0.011226 0.57980961,-0.047026 0.088619,-0.01675 0.1759257,-0.024925 0.2614827,-0.025838 0.2566712,-0.00274 0.5012251,0.060577 0.7467245,0.160197 0.5229204,0.2120899 1.0483032,0.4199548 1.580782,0.6061646 0.1137999,0.039767 0.2326013,0.065221 0.3529501,0.0863 0.1203488,0.021081 0.2424553,0.037879 0.3622518,0.059431 0.061318,0.011001 0.094752,0.021395 0.07338,0.093534 -0.044636,0.1505944 -0.085488,0.3025627 -0.1266073,0.4542358 -0.028946,0.1070368 -0.051024,0.2159235 -0.084749,0.3214274 -0.059515,0.1864804 -0.1287017,0.3699846 -0.1875855,0.5565551 -0.016141,0.051039 -0.010814,0.1087422 -0.015503,0.1632975 0.025429,-0.052301 0.055429,-0.1028114 0.075448,-0.1570963 0.037062,-0.100905 0.067373,-0.2045686 0.1033529,-0.3059245 0.00478,-0.013436 0.026421,-0.020816 0.040308,-0.031006 0.00496,0.01533 0.015666,0.031901 0.013953,0.046509 -0.00983,0.081968 -0.015614,0.1655028 -0.036173,0.2449463 C 4.4542027,4.3252984 4.3840069,4.5728251 4.3160155,4.8208945 4.2564103,5.0380341 4.2006561,5.2558941 4.1361815,5.4715007 4.0708052,5.6901733 3.9876867,5.9040587 3.9284423,6.1241741 3.8717227,6.3350015 3.8441268,6.5538639 3.7883991,6.7649619 3.7387131,6.9532456 3.7122304,7.1479515 3.6726439,7.339087 3.6528509,7.434655 3.6296429,7.5292425 3.5987469,7.6217571 3.5678509,7.7142721 3.5294249,7.8045575 3.4783408,7.891508 3.4646348,7.914953 3.4664098,7.94727 3.4597378,7.975224 3.4341288,8.0833429 3.4097508,8.1917476 3.3817068,8.2992352 3.3401368,8.4582125 3.2947168,8.6163783 3.2525157,8.7751752 3.1706377,9.0830299 3.0902107,9.3912048 3.008603,9.6991498 2.954498,9.9031239 2.8256824,10.077052 2.7946625,10.294462 c -0.027954,0.1964 -0.1062485,0.385377 -0.1607136,0.578259 -0.027909,0.0987 -0.048722,0.15567 -0.082166,0.189136 -0.033443,0.03347 -0.079588,0.04332 -0.1581299,0.04909 -0.025609,0.0019 -0.070537,-0.004 -0.074414,-0.01654 -0.0083,-0.02687 -0.00526,-0.0671 0.010335,-0.08992 0.032012,-0.0468 0.081166,-0.08192 0.1111044,-0.129708 0.018305,-0.02931 0.028602,-0.08014 0.014986,-0.108003 -0.013797,-0.02823 -0.060777,-0.05379 -0.094051,-0.05478 -0.024798,-7.22e-4 -0.058273,0.03554 -0.074414,0.06304 -0.017223,0.02958 -0.017379,0.06857 -0.027389,0.102836 -0.014022,0.04806 -0.021845,0.102038 -0.03359,0.152446 -0.011745,0.05041 -0.027354,0.09722 -0.057878,0.130224 -0.059515,0.06429 -0.08007,0.131546 -0.085266,0.199988 -0.0052,0.06844 0.00496,0.138125 0.00672,0.207739 7.213e-4,0.02865 0.00737,0.05258 0.018604,0.07131 0.022473,0.03746 0.06267,0.05415 0.1085205,0.04702 0.022925,-0.0036 0.047214,-0.013 0.071313,-0.02894 0.065106,-0.0431 0.1333283,-0.08644 0.206189,-0.112137 0.078948,-0.02791 0.1232473,-0.04175 0.1570964,-0.06666 0.033849,-0.02491 0.057375,-0.06085 0.093534,-0.133842 0.083502,-0.168175 0.1630856,-0.340803 0.2196249,-0.519348 C 3.0715334,10.488444 3.1647854,10.14651 3.2561319,9.8045696 3.336387,9.5040188 3.4058994,9.2011019 3.4809244,8.8991985 3.5104114,8.7807096 3.5370434,8.6613837 3.5723917,8.5446982 3.6774447,8.1980684 3.7913639,7.8538039 3.8922688,7.5060019 4.0268088,7.0423259 4.1516975,6.5756766 4.2819091,6.1107382 4.3207742,5.971915 4.366692,5.8347445 4.4069661,5.6962932 4.4472402,5.5578419 4.4818379,5.4180391 4.4994669,5.27358 4.5040658,5.2354363 4.5254195,5.1997176 4.5382242,5.1624757 4.6045022,4.9702242 4.6790473,4.7800506 4.7345946,4.5847332 4.8200798,4.2845431 4.8909031,3.980388 4.9717894,3.6788453 c 0.011182,-0.041751 0.044275,-0.077678 0.067179,-0.116272 0.027413,0.033815 0.065736,0.063635 0.080615,0.1023193 0.077099,0.2000967 0.1483144,0.4022876 0.2211752,0.6040976 0.035348,0.098019 0.075087,0.1948888 0.1023193,0.2950724 0.033409,0.1227497 0.061998,0.2416734 0.014986,0.3576009 -0.015671,0.038642 -0.039898,0.077253 -0.074931,0.1152384 -0.1247109,0.1353516 -0.2252634,0.2942148 -0.3260783,0.449585 -0.040488,0.06222 -0.048676,0.1445722 -0.079065,0.2144572 -0.055457,0.1276417 -0.094538,0.2577119 -0.1167887,0.3906738 -0.022251,0.132962 -0.027479,0.2689281 -0.013953,0.4072103 0.016051,0.1641172 0.048701,0.3263824 0.065112,0.4904094 0.00803,0.0803 0.016735,0.1221842 0.041341,0.1514119 0.024606,0.029228 0.065299,0.045805 0.1369425,0.074931 0.1398603,0.0569 0.2796138,0.1320552 0.3937745,0.2294434 0.046237,0.039451 0.082428,0.084528 0.1121378,0.1333252 0.089129,0.1463909 0.118923,0.3260338 0.1793172,0.486792 0.039496,0.1051432 0.051614,0.2238275 0.056844,0.337447 0.00451,0.097118 0.00742,0.2094451 -0.03514,0.2904217 -0.064565,0.122727 -0.1145367,0.2739818 -0.2837036,0.3121256 -0.0312,0.00703 -0.060694,0.049588 -0.078548,0.082682 -0.032147,0.059515 -0.046969,0.1201126 -0.047026,0.1808675 -5.64e-5,0.060755 0.014674,0.1218622 0.040824,0.1834513 0.019297,0.045358 0.030021,0.094474 0.042375,0.142627 0.039857,0.15528 0.061876,0.318038 0.1224732,0.4645708 0.031516,0.07624 0.062142,0.152587 0.097152,0.227893 0.03501,0.07531 0.074251,0.149577 0.12299,0.221176 0.058703,0.08634 0.1059936,0.179209 0.1627807,0.2651 0.056787,0.08589 0.1231384,0.164722 0.2196249,0.222208 0.065872,0.03927 0.1275206,0.08705 0.1901692,0.132292 0.062649,0.04524 0.1259479,0.08802 0.195337,0.117822 0.071373,0.03066 0.1472877,0.05234 0.2247925,0.06925 0.077505,0.01691 0.1568356,0.02892 0.2346109,0.04082 0.1372452,0.02092 0.28089,0.04037 0.4165121,0.0217 0.1631252,-0.02241 0.3259618,-0.05032 0.4847249,-0.09198 0.079381,-0.02083 0.1574825,-0.04511 0.234611,-0.0739 0.077129,-0.02879 0.1532757,-0.06193 0.2273763,-0.100769 0.045448,-0.0239 0.087562,-0.05577 0.1266073,-0.0894 0.1409423,-0.121826 0.2452857,-0.269154 0.3048909,-0.447518 0.00992,-0.02967 0.037387,-0.05313 0.050643,-0.08217 0.020109,-0.0441 0.045323,-0.08953 0.050643,-0.136426 0.023535,-0.209114 0.044098,-0.4184595 0.059428,-0.6283852 C 9.017156,9.4477852 8.9666486,9.1763248 8.8991983,8.9064332 8.8532094,8.7224778 8.8024387,8.5366775 8.7860269,8.3488445 8.7812702,8.293996 8.7717597,8.2470849 8.7570881,8.2082846 8.7277448,8.130684 8.6773927,8.0856714 8.601542,8.0754761 8.563617,8.0703761 8.519481,8.0742861 8.4682168,8.0868451 8.3867448,8.1067731 8.3081244,8.1091051 8.2367064,8.0904651 8.1652884,8.0718192 8.1012694,8.0322597 8.0475707,7.9685064 7.9378286,7.8382047 7.8478125,7.6909183 7.7524983,7.5488938 7.705247,7.4785128 7.6658988,7.4062687 7.634676,7.3323695 7.6034531,7.2584703 7.5801089,7.1826823 7.564396,7.10551 7.5329703,6.9511655 7.5322424,6.7908848 7.5597448,6.6249192 c 0.00748,-0.044997 0.036909,-0.096742 0.072347,-0.125057 0.053699,-0.042946 0.09623,-0.085974 0.095085,-0.144694 -3.787e-4,-0.019573 -0.00585,-0.041083 -0.017053,-0.064595 C 7.6368116,6.1363747 7.5565025,5.9855718 7.484814,5.8306524 7.2825535,5.3935774 6.9219461,5.1187363 6.5060624,4.9226975 6.32887,4.8391736 6.1868222,4.7379259 6.0885168,4.5909348 6.0557483,4.5419378 6.0280192,4.4879638 6.0053178,4.4276373 5.8704171,4.068924 5.735259,3.7103639 5.605859,3.3496669 5.5251531,3.124592 5.4552869,2.8952695 5.3789994,2.6685715 5.3540212,2.5943581 5.3561502,2.5455089 5.4430782,2.5068243 5.5452906,2.4612862 5.6490642,2.4208894 5.7536535,2.3853847 5.858243,2.3498799 5.964051,2.319294 6.0709469,2.2944341 c 0.2137918,-0.04972 0.4321452,-0.07766 0.6547404,-0.081132 0.1429262,-0.00221 0.2857966,0.00639 0.4289144,0.01757 0.1431177,0.011182 0.2862795,0.024978 0.4294311,0.03359 0.1769219,0.010641 0.3513118,0.1282277 0.5317505,0.013436 0.00721,-0.0046 0.020636,-4.83e-5 0.031006,0.00103 0.025339,0.00252 0.073518,0.033553 0.075964,0.00827 0.00281,-0.029059 -0.046377,-0.036829 -0.072347,-0.049092 -0.018518,-0.00868 -0.045101,0.00187 -0.063045,-0.00982 -0.019217,-0.012523 -0.023266,-0.043432 -0.03514,-0.064596 C 8.0400478,2.1419943 8.0265322,2.1236762 8.0088131,2.1171837 7.8748141,2.068219 7.7370584,2.0267155 7.5974687,1.9967776 7.3412837,1.9417714 7.0822148,1.9016518 6.8259395,1.846916 6.5593844,1.790016 6.3119588,1.4173837 6.1566011,1.1619317 5.1657741,-0.46726846 3.3637735,0.206879 1.7533812,0.59582936 Z M 4.5532103,3.6607586 c 0.00415,0.00469 0.011459,0.00917 0.011369,0.013953 0,0.00451 -0.00765,0.00935 -0.011885,0.013953 -0.00406,-0.00478 -0.011459,-0.00978 -0.011369,-0.014469 0,-0.0046 0.00765,-0.00893 0.011886,-0.013436 z M 4.1992268,4.6296917 c -3.634e-4,0.00137 -6.7e-4,0.00276 -0.00103,0.00413 6.501e-4,-8.765e-4 0.00143,-0.0017 0.00207,-0.00258 z m -0.00103,0.00413 c -0.027385,0.036918 -0.064731,0.070134 -0.078031,0.1116211 -0.063843,0.1994656 -0.1218102,0.4014341 -0.1788004,0.6030639 -0.00757,0.026601 0.00148,0.058027 0.0031,0.087333 0.021191,-0.024257 0.052297,-0.045763 0.061495,-0.073897 0.025519,-0.07755 0.041272,-0.1581119 0.062012,-0.2371948 0.042924,-0.1639145 0.086848,-0.3271905 0.1302244,-0.4909262 z M 3.920174,5.5391969 c -0.0083,0.0083 -0.020951,0.014886 -0.024288,0.024805 C 3.857562,5.6796051 3.8183752,5.7950082 3.7837482,5.9117839 3.7228806,6.1165698 3.6689057,6.3236366 3.604431,6.5272502 3.5660168,6.6487151 3.501616,6.7623042 3.468522,6.8848512 3.3792494,7.2147089 3.3003523,7.547174 3.2189248,7.8791057 c -0.00543,0.022422 0.00405,0.04844 0.00672,0.072864 0.02251,-0.00191 0.059488,-2.435e-4 0.061495,-0.00775 0.044997,-0.1694376 0.091914,-0.3392077 0.1260905,-0.5110799 0.050768,-0.2552837 0.1179915,-0.503337 0.208256,-0.7487916 0.1018069,-0.2766548 0.1710311,-0.5653067 0.250114,-0.8500773 0.023896,-0.086117 0.034165,-0.1762125 0.050126,-0.2645833 0.0018,-0.00983 -8.287e-4,-0.020299 -0.00155,-0.030489 z M 3.2256428,7.9519695 c -7.575e-4,6.39e-5 -0.00187,-7.3e-5 -0.00258,0 5.32e-4,0.00158 0.00104,0.00307 0.00155,0.00465 3.968e-4,-0.00119 6.402e-4,-0.00243 0.00103,-0.00362 -3.36e-5,-3.247e-4 3.6e-5,-7.034e-4 0,-0.00103 z m -0.00103,0.00465 c -0.062228,0.1886467 -0.1207159,0.379111 -0.1881022,0.565857 -0.088912,0.2460858 -0.1638348,0.4949299 -0.1979207,0.7549927 -0.0028,0.021191 0.0063,0.044053 0.00982,0.066146 0.010911,-0.017494 0.021465,-0.03479 0.032556,-0.052193 0.033635,-0.052842 0.077421,-0.1023293 0.098702,-0.1596802 0.02588,-0.069705 0.037672,-0.1456576 0.046509,-0.2201416 0.00478,-0.040939 -0.024059,-0.089233 -0.011885,-0.1255737 C 3.0707355,8.6168603 3.1290595,8.447711 3.2008382,8.2847659 3.2495684,8.1740561 3.2608818,8.0689044 3.2246094,7.9566206 Z M 4.1671876,5.8120487 c 0.00541,0.0028 0.011036,0.00599 0.016536,0.00878 -0.00893,0.017381 -0.017926,0.034374 -0.026872,0.051676 0.00351,-0.020142 0.00677,-0.040319 0.010335,-0.060461 z m -0.015503,0.074931 c -0.009,0.050098 -0.016507,0.1007361 -0.028939,0.1498617 -0.00307,0.011993 -0.024222,0.018954 -0.037207,0.028422 -0.00415,-0.015871 -0.01696,-0.036024 -0.011369,-0.047026 0.022994,-0.045126 0.051186,-0.087768 0.077515,-0.1312577 z m 3.0437417,1.422652 c 0.020672,-0.00665 0.045173,-0.0055 0.071313,0.00103 0.026141,0.00653 0.053984,0.018679 0.081132,0.034623 0.054296,0.031888 0.1058983,0.078683 0.1374593,0.1255737 0.057847,0.086071 0.1006153,0.1782475 0.1364258,0.2728516 0.03581,0.094604 0.064672,0.1914414 0.095601,0.2878377 0.018756,0.058253 0.036274,0.1172427 0.053227,0.1762166 0.00262,0.00911 0.05733,0.018281 0.059945,0.027389 0.00379,0.013165 -0.044612,0.026109 -0.040824,0.039274 0.047612,0.1682652 0.093482,0.337127 0.1560629,0.4997111 0.021371,0.055547 0.051166,0.1094852 0.079582,0.153479 0.028416,0.043994 0.055595,0.078333 0.072864,0.095601 0.034447,0.034447 0.066472,0.081871 0.1302246,0.069246 0.063753,-0.012624 0.1085205,-0.1235066 0.1085205,-0.1235066 0,0 0.00286,-0.054593 -0.018604,-0.062529 -0.010686,-0.00401 -0.040653,-0.016463 -0.065112,-0.038241 -0.01223,-0.010889 -0.022938,-0.024241 -0.029456,-0.039791 -0.00652,-0.01555 -0.00891,-0.033387 -0.00362,-0.053744 0.0312,-0.021101 0.062606,-0.046843 0.096635,-0.057878 0.034029,-0.011035 0.070613,-0.00761 0.1121378,0.030489 0.026444,0.024234 0.046356,0.051824 0.059945,0.081132 0.040764,0.087924 0.023423,0.1914451 -0.053744,0.2666504 C 8.3843732,9.1445072 8.3335446,9.1934372 8.2754611,9.222687 8.2173771,9.251937 8.1523781,9.261673 8.0728894,9.233539 8.0310508,9.2187564 7.9842685,9.2035138 7.9535191,9.174117 7.910799,9.1334033 7.8759482,9.0898951 7.8470656,9.0444091 7.760418,8.9079516 7.7250784,8.7514691 7.6739496,8.584489 7.6532997,8.5172189 7.6330214,8.4167182 7.6103876,8.3033691 7.607502,8.2889413 7.554969,8.2742328 7.5519933,8.2594441 7.5475747,8.2375319 7.5922489,8.2313448 7.58765,8.2088013 7.5615445,8.0811145 7.5321285,7.9423494 7.4961827,7.8227783 7.4782098,7.7629928 7.4588247,7.7081116 7.4372716,7.6615478 7.4157185,7.6149842 7.3923549,7.5768403 7.3664748,7.5509602 7.2636762,7.4481617 7.2492461,7.4255769 7.1861241,7.4827474 c -0.031606,0.02863 -0.010824,0.068178 0.00413,0.1054199 0.014958,0.037242 0.024403,0.072149 -0.029972,0.090951 -0.05442,0.018801 -0.088609,0.00198 -0.1100709,-0.029972 C 7.0287502,7.6171903 7.0199132,7.5701063 7.0166212,7.529257 7.0092312,7.43791 7.1192243,7.3340694 7.1954216,7.3096322 Z m -0.938444,0.280603 c 0.056945,0.00558 0.1150057,0.028862 0.164331,0.065112 0.020875,0.015375 0.0398,0.039612 0.053744,0.066146 0.013943,0.026534 0.022755,0.055387 0.024288,0.081132 0.00171,0.028315 -0.062858,0.088211 -0.10542,0.08785 -0.047702,-3.606e-4 -0.066304,-0.00938 -0.072864,-0.026872 -0.00656,-0.017494 -0.00103,-0.043675 -0.00103,-0.078031 0,-0.034357 -0.03535,-0.037273 -0.07338,-0.024288 -0.038031,0.012985 -0.078916,0.042139 -0.089917,0.072347 -0.081157,0.03102 0.035681,0.3897297 0.088883,0.4971272 0.00911,0.034627 0.017747,0.066295 0.025321,0.095602 0.00243,0.00911 0.079582,0.026872 0.079582,0.026872 0,0 -0.060794,0.047605 -0.055294,0.069246 0.044817,0.1773727 0.065396,0.2712233 0.1281576,0.5224487 0.039947,0.1596986 0.1250989,0.3237327 0.085783,0.4873088 -0.014473,0.060327 -0.038964,0.1119155 -0.074414,0.1514119 -0.017725,0.019748 -0.038184,0.036421 -0.061495,0.049609 -0.023311,0.013188 -0.049939,0.023213 -0.079065,0.028939 -0.070156,0.013797 -0.1418001,0.023282 -0.2108398,0.014986 C 6.01431,9.768885 5.9478607,9.7425478 5.889563,9.685197 5.8338353,9.6303711 5.82324,9.4546752 5.882845,9.4345663 c 0.079353,-0.026692 0.090083,-0.018052 0.1746663,-0.00155 0.00996,0.00194 0.015051,0.027093 0.01912,0.058394 0.00407,0.031302 0.00681,0.06882 0.012402,0.095601 0.00368,0.017784 0.097764,0.034952 0.1043863,0.052193 0.016927,-0.012074 0.046895,-0.023256 0.048059,-0.03669 0.045177,-0.027188 0.065598,-0.075812 0.074931,-0.1245402 0.00933,-0.048728 0.00775,-0.097398 0.00775,-0.1245402 0,-0.043644 -0.1351489,-0.465176 -0.2211751,-0.774113 -0.00298,-0.01046 -0.070585,-0.020299 -0.07338,-0.030489 -0.00343,-0.012624 0.058023,-0.025033 0.054777,-0.037207 C 6.0713078,8.4630215 6.0599668,8.4182405 6.0513101,8.3803673 6.03314,8.3005631 6.0171404,8.2196576 6.0058348,8.1380048 5.9945292,8.056352 5.9879042,7.9743957 5.9882649,7.8930585 c 3.607e-4,-0.089363 0.043883,-0.2090499 0.1100708,-0.2604492 0.022949,-0.017787 0.04857,-0.029847 0.075448,-0.03669 0.026878,-0.00684 0.054727,-0.00847 0.083199,-0.00568 z M 2.7869098,9.433016 c -0.014157,0.024527 -0.034283,0.047566 -0.041858,0.073897 -0.065016,0.2263377 -0.1265234,0.4533879 -0.1917195,0.679545 -0.028315,0.0982 -0.062917,0.194674 -0.094568,0.291972 0.0037,0.0014 0.00758,0.0028 0.011369,0.0041 0,0.01434 -0.00282,0.02937 5.14e-4,0.04289 0.00658,0.02624 0.016238,0.05181 0.024805,0.07752 0.018937,-0.02146 0.047358,-0.04013 0.055294,-0.06511 0.03111,-0.09793 0.051794,-0.199055 0.083716,-0.296623 C 2.6894683,10.072671 2.7547189,9.9068891 2.806028,9.7373613 2.82785,9.6652223 2.829816,9.5862724 2.83135,9.509985 2.831891,9.484736 2.802689,9.458687 2.786908,9.432987 Z" /><g
     id="layer1"
     style="display:none"
     transform="translate(-555.56404,-322.20614)"><path
       id="path324-4"
       style="display:inline;fill:#550000;fill-opacity:0.675565;fill-rule:nonzero;stroke:none;stroke-width:0.0901744"
       d="m 563.32277,318.54823 c -0.0136,-0.002 -0.0272,0.002 -0.0377,0.0124 -0.0481,0.0461 -0.10084,0.0901 -0.14314,0.14159 -0.0212,0.0258 -0.0398,0.0536 -0.0538,0.0842 -0.0139,0.0307 -0.023,0.0644 -0.0258,0.10232 9e-5,-7.6e-4 -2e-5,-0.002 0,-0.002 -0.0238,0.0151 -0.0529,0.026 -0.0708,0.0465 -0.10478,0.12083 -0.20458,0.24598 -0.31161,0.36483 -0.0252,0.0279 -0.0718,0.0368 -0.10852,0.0543 -0.0142,-0.0345 -0.044,-0.0716 -0.0393,-0.10335 0.0171,-0.11605 0.0404,-0.23203 0.0713,-0.3452 0.015,-0.0549 0.004,-0.1035 -0.0305,-0.11782 -0.0116,-0.005 -0.026,-0.006 -0.0429,-0.002 -0.0302,0.007 -0.0615,0.0201 -0.0904,0.0372 -0.029,0.0171 -0.0558,0.0383 -0.0754,0.062 -0.11993,0.14464 -0.22217,0.30391 -0.3421,0.44855 -0.12273,0.14797 -0.26054,0.28331 -0.38706,0.4284 -0.0559,0.0642 -0.0949,0.14356 -0.15141,0.20722 -0.12092,0.13616 -0.24932,0.26537 -0.37259,0.39946 -0.0698,0.076 -0.13336,0.15801 -0.2036,0.23358 -0.085,0.0913 -0.17203,0.18033 -0.26149,0.26716 -0.0949,0.0922 -0.18053,0.20595 -0.29352,0.2651 -0.18368,0.096 -0.34501,0.20557 -0.48937,0.35761 -0.0955,0.10054 -0.1988,0.1939 -0.29611,0.29248 -0.0486,0.0493 -0.096,0.1 -0.14004,0.15348 -0.044,0.0535 -0.0849,0.11014 -0.12093,0.17105 -0.0541,0.0915 -0.11372,0.1014 -0.21084,0.0413 -0.23663,-0.14642 -0.461,-0.3166 -0.71675,-0.42736 -0.0852,-0.0369 -0.17395,-0.0673 -0.26768,-0.0879 v 10e-4 c -0.0994,-0.0404 -0.20071,-0.0765 -0.29766,-0.12195 -0.16853,-0.0791 -0.33558,-0.1628 -0.47129,-0.28784 -0.0452,-0.0417 -0.0868,-0.0878 -0.12402,-0.14004 -0.10108,-0.1423 -0.18574,-0.29651 -0.28629,-0.43925 -0.0947,-0.13427 -0.19267,-0.26771 -0.30385,-0.38809 -0.10551,-0.11425 -0.15101,-0.1054 -0.25219,0.007 -0.0681,0.0757 -0.10599,0.0616 -0.15658,-0.0315 -0.0971,-0.17891 -0.20375,-0.35226 -0.30799,-0.5271 -0.0106,-0.0178 -0.031,-0.0301 -0.047,-0.0444 -0.0315,-0.0283 -0.0624,-0.0399 -0.091,-0.0357 -0.0286,0.004 -0.0548,0.0244 -0.0765,0.0605 -0.0582,0.097 -0.0826,0.0922 -0.14728,-0.008 -0.0757,-0.11723 -0.15407,-0.23478 -0.2465,-0.33848 -0.0343,-0.0385 -0.12924,-0.0704 -0.1664,-0.0501 -0.0999,0.0545 -0.17247,0.0366 -0.25786,-0.0222 -0.0385,-0.0266 -0.0773,-0.0305 -0.10749,-0.016 -0.0302,0.0145 -0.0516,0.0473 -0.0558,0.0941 -0.005,0.0588 0.013,0.11945 0.0217,0.17932 0.006,0.0386 0.0174,0.0771 0.0191,0.11576 0.008,0.17854 0.0178,0.35725 0.0181,0.53588 2.7e-4,0.13815 0.0258,0.29471 -0.0289,0.41031 -0.0756,0.15979 -0.0983,0.28221 -0.0388,0.45941 0.0382,0.11384 0.0863,0.21805 0.14572,0.31367 0.0594,0.0956 0.13015,0.1827 0.21446,0.26097 0.15149,0.14067 0.32355,0.25933 0.48938,0.38395 0.0684,0.0514 0.14817,0.088 0.21652,0.13953 0.0664,0.05 0.1292,0.10569 0.19327,0.15916 0.0641,0.0535 0.12945,0.10477 0.2005,0.14625 0.2038,0.11884 0.42297,0.21157 0.63614,0.31419 0.0988,0.0475 0.2047,0.082 0.29146,0.14934 0.68422,0.34205 1.2471,0.5335 1.68296,0.13032 0.35259,0.85307 1.49892,1.04974 2.97679,0.3709 0.17169,-0.0789 0.34275,-0.22943 0.4753,-0.36235 0.24951,-0.24996 0.46708,-0.52239 0.65319,-0.82113 0.13454,-0.21588 0.27615,-0.42793 0.4005,-0.64958 0.1257,-0.2239 0.26459,-0.44727 0.34313,-0.68884 0.062,-0.19068 0.13383,-0.37623 0.21394,-0.55759 0.0801,-0.18136 0.16871,-0.35893 0.26406,-0.53382 0.0393,-0.0721 0.0951,-0.1351 0.13075,-0.20877 0.015,-0.0311 0.007,-0.0835 -0.0103,-0.11628 -0.008,-0.0157 -0.0674,-0.0214 -0.0915,-0.009 -0.0401,0.0212 -0.0786,0.0554 -0.10335,0.0935 -0.0758,0.11732 -0.23071,0.16729 -0.36173,0.10904 -0.0394,-0.0175 -0.063,-0.0465 -0.0677,-0.0899 -0.005,-0.0434 0.01,-0.10103 0.0465,-0.17673 0.076,-0.15636 0.17477,-0.30166 0.2589,-0.45423 0.0159,-0.0288 0.01,-0.0701 0.0134,-0.10542 -0.0406,-0.004 -0.0858,-0.0203 -0.1204,-0.008 -0.0319,0.0115 -0.0508,0.0564 -0.0785,0.0832 -0.0536,0.0517 -0.10541,0.1063 -0.15865,0.15865 -0.0532,0.0523 -0.10789,0.10247 -0.16795,0.14521 -0.0476,0.0339 -0.0936,0.0339 -0.12454,0.0109 -0.0154,-0.0115 -0.0272,-0.0288 -0.0336,-0.0506 -0.006,-0.0219 -0.007,-0.0485 -0.002,-0.078 0.0176,-0.0897 0.0646,-0.17319 0.0977,-0.25993 0.0242,-0.0633 0.056,-0.12556 0.0677,-0.19121 0.003,-0.0171 5.8e-4,-0.0339 -0.006,-0.0491 -0.007,-0.0152 -0.0176,-0.0288 -0.03,-0.0388 -0.0123,-0.01 -0.0262,-0.0166 -0.0398,-0.0181 z" /></g></svg>
