<?xml version="1.0" encoding="UTF-8" standalone="no"?>
<!-- Created with Inkscape (http://www.inkscape.org/) -->

<svg
   version="1.1"
   id="svg4649"
   width="11.415828"
   height="17.082964"
   viewBox="0 0 11.415828 17.082964"
   sodipodi:docname="bird-mandolin.ai"
   inkscape:version="1.2 (dc2aeda, 2022-05-15)"
   xmlns:inkscape="http://www.inkscape.org/namespaces/inkscape"
   xmlns:sodipodi="http://sodipodi.sourceforge.net/DTD/sodipodi-0.dtd"
   xmlns="http://www.w3.org/2000/svg"
   xmlns:svg="http://www.w3.org/2000/svg">
  <defs
     id="defs4653" />
  <sodipodi:namedview
     id="namedview4651"
     pagecolor="#ffffff"
     bordercolor="#000000"
     borderopacity="0.25"
     inkscape:showpageshadow="2"
     inkscape:pageopacity="0.0"
     inkscape:pagecheckerboard="0"
     inkscape:deskcolor="#d1d1d1"
     showgrid="false"
     inkscape:zoom="24.72283"
     inkscape:cx="1365.6001"
     inkscape:cy="1337.1649"
     inkscape:window-width="1920"
     inkscape:window-height="1027"
     inkscape:window-x="0"
     inkscape:window-y="25"
     inkscape:window-maximized="1"
     inkscape:current-layer="svg4649" />
  <path
     d="m 8.4980957,22.420787 c -0.1747,-0.048 -0.3147,-0.1093 -0.4587,-0.1173 -0.088,0 -0.1813,0.073 -0.272,0.1133 0.152,0.065 0.3014,0.152 0.4614,0.1853 0.063,0.012 0.1506,-0.097 0.2693,-0.1813 m 10.2027003,15.564 c 0.099,-0.604 -0.028,-1.0947 -0.432,-1.612 -2.5014,-3.2053 -4.9374,-6.4627 -7.444,-9.664 -0.4414,-0.5613 -0.7534,-0.9987 -1.4814003,-0.508 -0.036,0.024 -0.9013,-1.844 -1.372,-2.1173 -0.4706,-0.2747 -1.3333,-0.2747 -1.412,-0.5494 -0.079,-0.2746 -0.039,-0.4706 0.079,-0.8626 0.1173,-0.392 0.1667,-0.9534 -0.1893,-0.444 -0.021,0.031 -0.184,-0.04 -0.2814,-0.063 0.236,-0.9587 -0.612,-0.7373 -1.0413,-0.9693 -0.2787,-0.1494 -0.5707,-0.276 -0.8507,-0.424 -1.0706,-0.568 -2.1773,-1.0174 -3.356,-1.328 -1.0053,-0.2667 -1.9866,-0.6534 -2.9413,-1.072 -0.7427,-0.3267 -1.4653,-0.4254 -2.2493,-0.2614 -0.12,0.024 -0.272,-0.1106 -0.4094,-0.172 0.064,-0.128 0.104,-0.348 0.1947,-0.3706 0.9307,-0.2334 1.7173,-0.708 2.5187,-1.2414 0.8,-0.5333 1.8213,-0.4106 2.7706,-0.4266 1.4787,-0.023 1.6174,-0.1694 1.3947,-1.6534 -0.1013,-0.6746 -0.328,-1.3306 -0.524,-1.988 -0.496,-1.6666 -1.0173,-3.3253004 -1.5053,-4.9933004 -0.1027,-0.3507 -0.132,-0.7293 -0.156,-1.0973 -0.043,-0.6227 -0.028,-0.608 0.6746,-0.6787 0.1014,-0.011 0.252,-0.2533 0.2574,-0.3933 0.044,-1.064 0.055,-2.1294 0.081,-3.1947 0,-0.1587 0.01,-0.3227 0.052,-0.4707 0.024,-0.077 0.1373,-0.1626 0.2187,-0.1733 0.076,-0.01 0.2186,0.059 0.2386,0.1213 0.1414,0.4494 0.2747,0.904 0.3787,1.364 0.069,0.3067 0.072,0.628 0.1333,0.9374 0.017,0.085 0.1654,0.2226 0.2067,0.2066 0.1027,-0.037 0.2387,-0.14 0.252,-0.2333 0.132,-0.9427 0.2427,-1.888 0.3573,-2.83329997 0.025,-0.2107 0.028,-0.4267 0.075,-0.632 0.019,-0.077 0.128,-0.1734 0.2067,-0.1854 0.076,-0.012 0.2293,0.057 0.244,0.116 0.156,0.6547 0.5453,1.26669997 0.2826,1.99999997 -0.099,0.2734 -0.048,0.608 -0.033,0.9134 0,0.083 0.132,0.2253 0.196,0.2213 0.1067,-0.01 0.272,-0.084 0.3027,-0.172 0.2306,-0.644 0.4333,-1.2987 0.6453,-1.9493 0.064,-0.19739997 0.1147,-0.40269997 0.204,-0.58939997 0.04,-0.083 0.16,-0.1266 0.244,-0.188 0.053,0.077 0.1493,0.1534 0.1533,0.2334 0.029,0.49999997 0.4747,0.95059997 0.089,1.51599997 -0.156,0.2266 -0.096,0.6213 -0.087,0.9386 0,0.1947 0.099,0.3867 0.1533,0.58 0.085,-0.132 0.1747,-0.2613 0.2534,-0.396 0.108,-0.1826 0.1733,-0.4053 0.3186,-0.5453 0.356,-0.344 0.3227,-1.048 0.9947,-1.0907 -0.039,0.4534 -0.1907,0.9347 -0.093,1.3574 0.2186,0.9546 0.6106,1.868 0.8426,2.82 0.3947,1.6226 1.6907,2.792 2.1054,4.3946004 0.065,0.2534 0.2000003,0.5027 0.2026003,0.7547 0.01,0.3493 -0.1933003,0.7333 -0.1,1.0373 0.079,0.252 0.4894,0.3787 0.6894,0.616 0.1586,0.188 0.3026,0.4547 0.3146,0.6934 0.076,1.504 0.628,2.956 0.3947,4.5 -0.1133,0.7546 0.408,1.2493 1.2507,1.3026 0.7373,0.047 1.4813,0.056 2.2173,0.012 1.4573,-0.085 2.6747,0.5 3.744,1.3894 0.6467,0.5386 1.176,1.2213 1.74,1.8546 0.34,0.3827 0.2987,0.7334 -0.1,1.0947 -0.576,0.5213 -1.188,0.8213 -1.9933,0.788 -1.2414,-0.051 -2.4427,-0.3653 -3.4467,-1.0133 -1.5453,-0.9974 -3.176,-0.9947 -4.8707,-0.868 -0.1013003,0.01 -0.2000003,0.048 -0.2986003,0.073 0.087,0.083 0.1693,0.1693 0.26,0.2467 0.4013003,0.3453 0.9080003,1.5573 1.7453003,2.1786 0.1347,0.316 -0.052,0.3587 0.104,0.868 0.1573,0.5107 0.4493,0.572 1.14,1.4307 2.1533,2.676 6.2427,7.5213 6.6107,7.8893 0.368,0.3667 0.74,0.696 0.8866,0.7667 0.1467,0.071 0.7374,0.3613 1.1027,0.5613 0.74,0.404 1.4693,0.6 2.1707,-0.084 0.2746,-0.268 0.568,-0.2906 0.8013,0.037 0.6093,0.852 1.584,1.004 2.4653,1.3173 1.92,0.6853 3.6174,1.6427 4.7987,3.4107 2.2747,3.4013 0.8027,7.376 -1.6947,9.1546 -1.4293,1.0187 -2.8813,1.6974 -4.668,1.572 -2.2013,-0.1546 -3.9293,-1.1466 -5.1213,-2.9773 -1.0587,-1.6253 -1.5787,-3.4547 -1.5787,-5.416 0,-0.32 0.011,-0.6413 -0.021,-0.9587 -0.061,-0.6146 -0.328,-1.0906 -0.9067,-1.3853 -0.468,-0.236 -0.9266,-0.5053 -1.3493,-0.8147 -0.9867,-0.72 -1.1,-1.6293 -0.3653,-2.592 0.508,-0.664 1.084,-0.7733 1.7906,-0.3133 0.304,0.196 0.5814,0.4347 0.872,0.6547 -0.011,0.1026 0,0.2173 -0.035,0.308 -0.2254,0.5133 -0.4654,1.0066 -1.0014,0.2386 -0.033,-0.048 -0.2053,-0.069 -0.232,-0.036 -0.088,0.1094 -0.224,0.28 -0.1906,0.372 0.1973,0.5387 0.7933,0.8414 1.228,0.66 0.52,-0.2173 0.5733,-0.6466 0.184,-1.5013"
     style="display:none;fill:#550000;fill-opacity:1;fill-rule:nonzero;stroke:none;stroke-width:1.33333"
     id="path4720"
     inkscape:label="body"
     sodipodi:insensitive="true" />
  <path
     id="path4673-9"
     style="display:inline;fill:#000000;fill-opacity:1;fill-rule:nonzero;stroke:none;stroke-width:1.33333"
     inkscape:label="wings"
     d="m 3.1448957,0.00198663 c -0.079,0.012 -0.1881,0.1085 -0.2071,0.1855 -0.047,0.2053 -0.049,0.4202 -0.074,0.6309 -0.1146,0.94529997 -0.2254,1.89129997 -0.3574,2.83399997 -0.013,0.093 -0.1493,0.1973 -0.2519,0.2343 -0.041,0.016 -0.1901,-0.122 -0.2071,-0.207 -0.061,-0.3094 -0.064,-0.6308 -0.1328,-0.9375 -0.104,-0.46 -0.2375,-0.9158 -0.3789,-1.3652 -0.02,-0.062 -0.1623,-0.1311 -0.2383,-0.1211 -0.081,0.011 -0.1947,0.097 -0.2187,0.1738 -0.042,0.148 -0.053,0.312 -0.053,0.4707 -0.026,1.0653 -0.036,2.1313 -0.08,3.1953 -0.01,0.14 -0.1565,0.3816 -0.2579,0.3926 -0.7026,0.071 -0.7168,0.057 -0.6738,0.6797 0.024,0.368 0.052,0.745 0.1543,1.0957 0.488,1.668 1.0099,3.3275004 1.5059,4.9941004 0.196,0.6574 0.3702,1.3236 0.5234,1.9883 0.2227,0.9666 0.05,0.5255 -0.049,1.6523 4.485,1.2824 6.6417,1.5404 8.7896003,0.6917 0.9479,-0.3746 0.2053,-1.823 0.1293,-3.327 -0.012,-0.2387 -0.1558,-0.5054 -0.3144,-0.6934 -0.2,-0.2373 -0.6105,-0.3652 -0.6895,-0.6172 -0.093,-0.304 0.1116,-0.6878 0.1016,-1.0371 0,-0.252 -0.1381,-0.5005 -0.2031003,-0.7539 -0.4147,-1.6026004 -1.7108,-2.7719004 -2.1055,-4.3945004 -0.232,-0.952 -0.6251,-1.8657 -0.8437,-2.8203 -0.098,-0.4227 0.055,-0.904 0.094,-1.3574 -0.672,0.043 -0.6381,0.7458 -0.9941,1.0898 -0.1453,0.14 -0.2104,0.3643 -0.3184,0.5469 -0.079,0.1347 -0.1689,0.2625 -0.2539,0.3945 -0.054,-0.1933 -0.1543,-0.3854 -0.1543,-0.5801 -0.01,-0.3173 -0.068,-0.7109 0.088,-0.9375 0.3857,-0.5654 -0.061,-1.0156 -0.09,-1.51559997 0,-0.08 -0.099,-0.1574 -0.1524,-0.2344 -0.084,0.061 -0.2041,0.1045 -0.2441,0.1875 -0.089,0.1867 -0.1392,0.3925 -0.2032,0.58989997 -0.212,0.6506 -0.4158,1.3052 -0.6464,1.9492 -0.031,0.088 -0.1961,0.1619 -0.3028,0.1719 -0.064,0 -0.1953,-0.1377 -0.1953,-0.2207 -0.015,-0.3054 -0.066,-0.6407 0.033,-0.9141 0.2627,-0.7333 -0.1272,-1.34529997 -0.2832,-1.99999997 -0.015,-0.059 -0.1681,-0.1272 -0.2441,-0.1152 z"
     sodipodi:nodetypes="cccsccccsccccccsscsssccccccsccccccccccccccc" />
</svg>
