<?xml version="1.0" encoding="UTF-8" standalone="no"?>
<!-- Created with Inkscape (http://www.inkscape.org/) -->

<svg
   width="15.841903mm"
   height="23.492771mm"
   viewBox="0 0 15.841903 23.492771"
   version="1.1"
   id="svg1095"
   inkscape:version="1.2.1 (9c6d41e4, 2022-07-14)"
   sodipodi:docname="birds-all.svg"
   inkscape:export-filename="birds/mando-body.svg"
   inkscape:export-xdpi="96"
   inkscape:export-ydpi="96"
   xmlns:inkscape="http://www.inkscape.org/namespaces/inkscape"
   xmlns:sodipodi="http://sodipodi.sourceforge.net/DTD/sodipodi-0.dtd"
   xmlns="http://www.w3.org/2000/svg"
   xmlns:svg="http://www.w3.org/2000/svg">
  <sodipodi:namedview
     id="namedview1097"
     pagecolor="#ffffff"
     bordercolor="#000000"
     borderopacity="0.25"
     inkscape:showpageshadow="2"
     inkscape:pageopacity="0.0"
     inkscape:pagecheckerboard="0"
     inkscape:deskcolor="#d1d1d1"
     inkscape:document-units="mm"
     showgrid="false"
     inkscape:zoom="1.1438552"
     inkscape:cx="193.20627"
     inkscape:cy="81.303996"
     inkscape:window-width="1390"
     inkscape:window-height="792"
     inkscape:window-x="29"
     inkscape:window-y="65"
     inkscape:window-maximized="0"
     inkscape:current-layer="layer1" />
  <defs
     id="defs1092" />
  <g
     inkscape:label="Layer 1"
     inkscape:groupmode="layer"
     id="layer1"
     transform="translate(18.436101,-84.394138)">
    <path
       id="path2777-8"
       style="display:none;fill:#800000;fill-opacity:1;fill-rule:nonzero;stroke:none;stroke-width:0.144883"
       d="m 172.9419,79.958944 c -0.3751,0.201651 -0.74991,0.402962 -1.125,0.604614 4e-5,-0.06553 -0.002,-0.131554 0.005,-0.196371 0.007,-0.06429 0.0257,-0.127146 0.0393,-0.190686 -0.0653,0.01248 -0.14753,0.0033 -0.19276,0.04031 -0.26426,0.215834 -0.5037,0.465896 -0.78289,0.658875 -0.27368,0.189261 -0.59091,0.457913 -0.87747,0.444417 -0.28016,-0.01306 -0.452,0.07729 -0.65681,0.186552 -0.25625,0.136589 -0.50387,0.294146 -0.77049,0.40566 -0.58539,0.24474 -1.17867,0.470434 -1.77199,0.696081 -0.81302,0.309168 -1.52761,0.737691 -2.09134,1.433505 -0.613,0.756691 -1.34973,1.025237 -2.37505,1.098124 -0.11885,0.0081 -0.65775,0.133898 -0.75551,0.196887 -0.19989,0.12877 -0.057,0.441394 -0.17777,0.630969 -0.34397,0.540516 -0.82783,0.777692 -1.43609,0.910022 -0.46991,0.102065 -0.95543,0.275022 -1.35288,0.538985 -0.73026,0.484957 -1.40303,1.056708 -2.09497,1.598869 -0.67188,0.526361 -1.34513,1.051337 -2.00246,1.595768 -0.29423,0.243669 -0.55128,0.532736 -0.82424,0.802019 -0.0292,0.02883 -0.0514,0.06411 -0.077,0.09663 0.0443,0.01552 0.0899,0.0476 0.13178,0.04289 0.0703,-0.0079 0.13693,-0.04519 0.20722,-0.05943 0.0864,-0.01745 0.17484,-0.02338 0.26252,-0.03462 -0.0477,0.07984 -0.1038,0.155852 -0.1416,0.240295 -0.10295,0.230279 -0.0528,0.286002 0.22893,0.262 0.0865,-0.0076 0.24509,-0.0382 0.24805,-0.02687 0.14925,0.587212 0.48114,0.206081 0.6165,0.06098 0.35305,-0.378625 0.8651,-0.411929 1.26555,-0.677478 0.23822,-0.157843 0.52577,-0.268586 0.80667,-0.328662 1.01483,-0.217011 1.94104,-0.628045 2.80242,-1.198893 0.0785,-0.05217 0.17084,-0.111842 0.25941,-0.116272 0.56119,-0.02731 1.01606,-0.319369 1.49035,-0.571025 0.60157,-0.319107 1.20742,-0.62978 1.81694,-0.933276 0.27452,-0.136661 0.41044,-0.06309 0.41703,0.244946 0.005,0.290794 -0.0415,0.582727 -0.0698,0.873849 -0.0321,0.331313 0.0767,0.501909 0.3793,0.482658 0.43516,-0.0276 0.86702,-0.105848 1.3007,-0.157613 0.23833,-0.02849 0.47705,-0.0552 0.71623,-0.0708 0.0861,0.190583 0.14768,0.343536 0.11421,0.353983 -0.14953,0.0465 -0.31684,0.03299 -0.46974,0.07183 -0.0412,0.01047 -0.0869,0.123644 -0.077,0.18035 0.009,0.05155 0.0836,0.110038 0.1416,0.129708 0.0653,0.02213 0.14636,0.01617 0.21652,0.0021 0.45402,-0.09077 0.38262,-0.07846 0.52452,0.340031 0.0784,0.230939 0.1431,0.517594 0.19637,0.754993 0.22991,1.024711 0.46696,1.921861 0.69815,2.946073 0.19349,0.857209 0.42201,1.834125 0.60513,2.693376 0.0592,0.277605 0.20714,0.513424 -0.014,0.783931 -0.21716,0.26541 -0.40098,0.560017 -0.62993,0.813904 -0.53056,0.588509 -0.95545,1.249146 -1.29398,1.957508 -0.59285,1.24031 -0.49542,2.524 -0.13488,3.80493 0.0197,0.0701 0.18395,0.14571 0.27699,0.14108 0.65611,-0.0324 0.83668,0.0921 1.08779,0.68419 0.3374,0.79526 0.0536,1.48869 -0.3235,2.16421 -0.0575,0.10329 -0.23953,0.15756 -0.37465,0.19172 -0.20757,0.0525 -0.50037,-0.004 -0.61598,0.11886 -0.11712,0.1246 -0.0625,0.41142 -0.0837,0.62683 -0.002,0.0243 -0.008,0.0482 -0.0124,0.0724 -0.20685,1.06227 0.11831,2.03726 0.53072,2.98225 0.38239,0.87625 1.04994,1.5405 1.80144,2.10426 0.9972,0.74786 2.13324,1.06403 3.37809,0.94723 0.21679,-0.0201 0.42735,-0.10264 0.64388,-0.13539 0.4204,-0.0637 0.52887,0.0176 0.601,0.4253 0.0297,0.16852 0.0407,0.34097 0.0827,0.50591 0.0145,0.0568 0.0978,0.096 0.14935,0.14314 0.0346,-0.0515 0.087,-0.0987 0.0992,-0.15503 0.0148,-0.0693 -0.005,-0.14609 -0.008,-0.21962 -0.0126,-0.26788 -0.12592,-0.59836 -0.01,-0.786 0.11369,-0.18331 0.4585,-0.22868 0.70693,-0.32143 0.84623,-0.31569 1.55282,-0.83603 2.10944,-1.53531 0.97847,-1.22925 1.35884,-2.64093 1.15341,-4.20284 v -5.2e-4 c -0.13028,-0.98989 -0.47192,-1.89093 -1.09502,-2.68665 -0.16629,-0.21218 -0.27445,-0.23291 -0.46612,-0.0785 -0.32394,0.26091 -0.64445,0.1748 -0.94671,-0.0393 -0.61573,-0.43612 -0.93199,-1.06608 -1.06661,-1.78387 -0.0849,-0.45181 0.10617,-0.76835 0.53951,-0.89452 0.24989,-0.0728 0.33942,-0.19403 0.28628,-0.41186 -0.11528,-0.47253 -0.1914,-0.9704 -0.39997,-1.40146 -0.59886,-1.238521 -1.57153,-2.115967 -2.81688,-2.687693 -0.48994,-0.224926 -0.98577,-0.437589 -1.48467,-0.641822 -0.29619,-0.121113 -0.29366,-0.348962 -0.47129,-0.668693 -0.0883,-0.431503 -0.22516,-0.83595 -0.34106,-1.259871 -0.49534,-1.812219 -0.93675,-3.615337 -1.31568,-5.458582 -0.048,-0.233414 -0.25575,-0.400327 0.11368,-0.271818 0.0782,0.02715 0.20116,0.0094 0.26769,-0.03824 0.064,-0.04557 0.0989,-0.154686 0.11007,-0.240296 0.004,-0.03002 -0.10323,-0.109455 -0.15451,-0.104903 -0.14247,0.01198 -0.28105,0.07358 -0.42323,0.08217 -0.0753,0.0052 -0.18745,-0.0381 -0.22686,-0.09715 -0.10768,-0.1618 -0.11444,-0.328585 0.10387,-0.417546 0.37404,-0.152593 0.64139,-0.365154 0.53175,-0.83199 -0.0119,-0.05008 0.046,-0.159658 0.0925,-0.17415 0.63707,-0.199846 0.59458,-0.820387 0.77359,-1.285709 0.12323,-0.320639 -0.10151,-0.560461 -0.4501,-0.559656 -0.24521,5.48e-4 -0.49018,0.02893 -0.73535,0.04393 -0.29404,0.01761 -0.58833,0.0395 -0.88264,0.04806 -0.0565,0.0015 -0.11436,-0.05237 -0.17156,-0.08062 0.0226,-0.04242 0.039,-0.08964 0.0692,-0.126091 0.0469,-0.05639 0.0945,-0.121588 0.15658,-0.155029 0.7295,-0.392256 1.38826,-0.888632 2.04742,-1.384412 0.31272,-0.235201 0.59161,-0.521788 0.92191,-0.72657 0.63134,-0.391322 1.14316,-0.910649 1.67949,-1.412834 0.4009,-0.375205 0.89352,-0.651843 1.34307,-0.975651 0.18435,-0.13273 0.65946,-0.162671 0.20515,-0.545186 -0.005,-0.0055 0.0767,-0.113557 0.11369,-0.176217 0.0752,-0.126543 0.004,-0.200156 -0.10594,-0.157096 -0.27105,0.106521 -0.52685,0.25131 -0.79426,0.367936 -0.0775,0.03373 -0.17391,0.02416 -0.26149,0.03462 0.041,-0.06047 0.0781,-0.124485 0.12403,-0.180867 0.21418,-0.263536 0.59386,-0.394167 0.64337,-0.789616 z m -91.931341,4.455542 c -0.08402,0.03846 -0.189147,0.05658 -0.248047,0.119372 -0.18449,0.196549 -0.340337,0.420865 -0.529166,0.612366 -0.11318,0.114483 -0.267754,0.187553 -0.403593,0.279053 -0.0265,-0.156057 -0.05718,-0.311835 -0.07648,-0.468706 -0.0058,-0.04586 0.03542,-0.09882 0.02842,-0.143143 -0.0198,-0.104213 -0.05723,-0.205265 -0.08733,-0.307475 -0.0634,0.06435 -0.156318,0.11733 -0.185518,0.19482 -0.2167,0.577232 -0.417433,1.160261 -0.630453,1.738912 -0.08951,0.24327 -0.0327,0.435717 0.164332,0.589628 0.172369,0.134693 0.346372,0.266816 0.523482,0.394808 0.29287,0.211728 0.615829,0.389808 0.876949,0.63562 0.391699,0.36879 0.748306,0.777378 1.105876,1.18184 0.335519,0.379535 0.340106,0.427646 -0.101803,0.730188 -0.31887,0.218474 -0.464412,0.453749 -0.416512,0.858346 0.03038,0.257738 -0.0781,0.529725 -0.101803,0.797367 -0.0202,0.227289 -0.355455,0.453197 -0.08217,0.645439 0.0783,0.05508 0.397139,-0.199123 0.578259,-0.346232 0.655719,-0.532462 1.343497,-0.53328 1.971456,0.02429 0.1831,0.162564 0.354453,0.338417 0.526583,0.513147 0.856289,0.869331 0.856082,0.869929 0.05064,1.763199 -0.04926,0.05465 -0.09631,0.111292 -0.14211,0.168982 -0.237058,0.299346 -0.405666,0.604021 -0.08113,0.944129 0.268263,-0.074 0.216569,-0.258357 0.16123,-0.45992 -0.0143,-0.05187 0.04898,-0.125893 0.07648,-0.189653 0.04524,0.04422 0.118041,0.08189 0.130741,0.133842 0.08793,0.380774 0.173062,0.762582 0.239262,1.147734 0.0283,0.165326 -0.07008,0.201359 -0.222208,0.155029 -0.20761,-0.06333 -0.363457,0.0094 -0.300757,0.246496 0.05961,0.22642 0.221202,0.206104 0.397392,0.08682 0.05535,-0.03749 0.219227,-0.02438 0.235127,0.01085 0.1786,0.400014 0.572042,0.649077 0.660942,1.128613 0.15733,0.848732 0.389888,1.683939 0.605648,2.520773 0.345049,1.33785 0.703773,2.67198 1.053682,4.00854 0.13788,0.52708 0.11003,0.54559 -0.402559,0.74104 -0.31483,0.12004 -0.637905,0.25625 -0.906405,0.45579 -0.782649,0.5814 -1.022548,1.48003 -0.626318,2.36419 0.14815,0.33052 0.369072,0.6405 0.608231,0.91313 0.43097,0.49147 0.45189,0.96232 0.17415,1.55701 -0.28846,0.61754 -0.554455,1.28159 -0.645955,1.9513 -0.26856,1.966 1.284836,3.57939 2.779675,3.91087 2.060618,0.45677 3.909256,-0.008 5.456514,-1.50533 1.482739,-1.43465 1.575522,-3.95575 -5.16e-4,-5.33249 -0.38463,-0.33588 -0.800578,-0.63845 -1.222148,-0.92604 -0.45079,-0.30775 -0.675537,-0.68013 -0.548287,-1.25057 0.0684,-0.30963 0.07149,-0.63538 0.09509,-0.95447 0.04132,-0.55431 -0.159967,-0.99872 -0.561206,-1.38079 -0.63854,-0.60787 -1.3836,-0.65679 -2.180229,-0.49145 -0.549609,0.11399 -0.56747,0.12567 -0.72347,-0.39532 -0.629769,-2.103 -1.223297,-4.217847 -1.885156,-6.310206 -0.1582,-0.502839 -0.02871,-0.967785 -0.06511,-1.448491 -0.01288,-0.170395 0.102,-0.18868 0.24288,-0.14366 0.261739,0.08349 0.319884,-0.101914 0.270784,-0.279053 -0.05372,-0.193599 -0.202535,-0.253356 -0.398425,-0.111621 -0.06265,0.04538 -0.186137,0.004 -0.281637,0.0021 0.0156,-0.112826 0.03091,-0.22565 0.04651,-0.338481 0.07169,0.01173 0.169606,0.05862 0.209806,0.02791 0.09408,-0.07169 0.160112,-0.180562 0.237712,-0.274402 -0.09795,-0.04803 -0.193149,-0.104623 -0.295589,-0.138493 -0.03293,-0.01086 -0.08716,0.03595 -0.128158,0.06201 -0.18487,0.11696 -0.276558,0.01158 -0.310058,-0.153479 -0.0426,-0.208654 0.06087,-0.248962 0.251147,-0.205672 0.22052,0.05019 0.338969,-0.07663 0.27957,-0.285771 -0.01668,-0.05848 -0.27093,-0.126448 -0.33383,-0.07855 -0.23683,0.180848 -0.354468,-0.0051 -0.498678,-0.11989 -0.16553,-0.131533 -0.14856,-0.279711 -0.05426,-0.456819 0.0589,-0.110582 0.09718,-0.253668 0.08578,-0.377238 -0.04368,-0.498062 0.141495,-0.675438 0.553454,-0.436149 0.995329,0.577984 2.026108,0.364224 3.014287,0.101802 0.637699,-0.169387 1.210402,-0.593728 1.806091,-0.915706 0.06866,-0.03721 0.09759,-0.150637 0.144694,-0.228927 -0.07964,-0.03346 -0.157162,-0.08805 -0.239262,-0.09715 -0.893339,-0.09929 -1.787551,-0.191491 -2.68149,-0.285771 -0.20147,-0.02129 -0.422465,-0.06007 -0.430465,-0.309025 -0.01304,-0.416698 -0.271665,-0.666969 -0.521415,-0.939478 -0.359239,-0.39206 -0.353275,-0.420809 0.127124,-0.663525 0.66107,-0.333942 1.292151,-0.693358 1.62264,-1.420585 0.1116,-0.245613 0.255958,-0.479006 0.409278,-0.700733 0.123089,-0.177756 0.253618,-0.382197 0.431498,-0.482658 0.592849,-0.334874 1.20734,-0.630948 1.81591,-0.936893 0.479319,-0.240899 0.966665,-0.466164 1.439705,-0.719336 0.08311,-0.04443 0.144479,-0.189322 0.153479,-0.293006 0.0041,-0.04919 -0.135241,-0.151713 -0.217041,-0.160713 -0.33502,-0.03679 -0.680901,-0.10324 -1.00769,-0.05426 -0.55181,0.08259 -1.088114,0.266666 -1.638143,0.366903 -0.54572,0.09942 -1.099076,0.175666 -1.652096,0.209806 -0.411449,0.02531 -0.744948,0.128009 -1.030428,0.453203 -0.550279,0.626714 -1.122859,1.233876 -1.701188,1.834513 -0.54008,0.560932 -0.596164,0.558353 -1.321883,0.222209 -0.17672,-0.08183 -0.368096,-0.130658 -0.543636,-0.214457 -0.12943,-0.0619 -0.3259,-0.13535 -0.3514,-0.239262 -0.12216,-0.49786 -0.498469,-0.538731 -0.891419,-0.587561 -0.231829,-0.02892 -0.394729,-0.105278 -0.174149,-0.370004 0.21963,-0.263206 0.05294,-0.367578 -0.185518,-0.346748 -0.28739,0.02519 -0.568412,0.120006 -0.854212,0.173116 -0.06453,0.01207 -0.19137,-0.01243 -0.19637,-0.03824 -0.0157,-0.0817 -0.01035,-0.185518 0.02945,-0.255798 0.05954,-0.105045 0.174194,-0.178442 0.230994,-0.284221 0.06439,-0.119818 0.09094,-0.260643 0.133842,-0.392224 -0.13194,0.01005 -0.264182,0.01868 -0.395842,0.03152 -0.0223,0.0022 -0.04148,0.02702 -0.06408,0.03462 -0.13207,0.0438 -0.264812,0.08566 -0.397392,0.128158 0.04032,-0.129825 0.07932,-0.260332 0.120923,-0.389641 0.0226,-0.07039 0.06946,-0.139613 0.06925,-0.208773 -0.0018,-0.10942 -0.03488,-0.218061 -0.05478,-0.327111 z m 2.739885,10.925948 c -0.0027,7.5e-4 -0.005,0.0019 -0.0078,0.0026 l 0.02222,0.01344 c -0.0054,-0.0054 -0.0094,-0.01067 -0.01447,-0.01602 z M 34.340023,85.029435 c -0.03732,-6.03e-4 -0.07507,-5.2e-5 -0.113172,0.0016 -0.609669,0.0255 -1.031584,0.347075 -1.150834,0.398942 -0.19646,0.08563 -0.389145,0.18059 -0.591695,0.251147 -0.0695,0.02434 -0.112233,0.06423 -0.140043,0.129708 -0.0291,0.06839 -0.02656,0.08006 0.04134,0.112654 0.0238,0.01145 0.04823,0.01776 0.07493,0.01964 0.17559,0.01275 0.341844,0.06294 0.499194,0.139009 0.30005,0.145172 0.57305,0.337005 0.86093,0.503329 0.0904,0.05216 0.09999,0.110398 0.03669,0.193269 -0.0615,0.08027 -0.129127,0.156046 -0.195337,0.232544 -0.18573,0.215005 -0.361479,0.437027 -0.503328,0.684196 -0.11417,0.199068 -0.197857,0.412289 -0.283187,0.624252 -0.15546,0.38669 -0.29881,0.778004 -0.436149,1.171504 -0.0818,0.23442 -0.182685,0.46333 -0.181385,0.719336 1.5e-4,0.04086 0.0041,0.07149 0.03617,0.09974 0.0717,0.06331 0.0998,0.144962 0.0987,0.240295 -6.8e-4,0.05593 -0.01082,0.109547 -0.02222,0.163298 -0.0268,0.127497 -0.05488,0.254475 -0.07958,0.382405 -0.0142,0.07229 -0.0083,0.07643 0.06356,0.05064 0.0569,-0.02057 0.112303,-0.048 0.170532,-0.06408 0.10273,-0.02825 0.153671,-0.0053 0.213941,0.08165 0.0204,0.02912 0.03217,0.0595 0.03927,0.09457 0.01,0.04795 0.02079,0.09606 0.04599,0.139527 0.0273,0.04723 0.06622,0.06971 0.121956,0.06666 0.0562,-0.0031 0.109074,-0.01812 0.157614,-0.04392 0.0727,-0.03869 0.130365,-0.02412 0.187585,0.03152 0.0706,0.06839 0.145218,0.13316 0.219108,0.19792 0.0503,0.04419 0.06821,0.04381 0.118856,-0.0015 0.0345,-0.03071 0.06573,-0.064 0.08733,-0.106453 0.0236,-0.04622 0.05137,-0.09122 0.08837,-0.128158 0.0459,-0.04593 0.09631,-0.05017 0.149345,-0.01395 0.0265,0.01811 0.04393,0.04428 0.06253,0.0708 0.0414,0.05897 0.07334,0.125634 0.127641,0.175183 0.0748,0.0681 0.148885,0.0597 0.202055,-0.02635 0.0288,-0.04666 0.05261,-0.09649 0.07441,-0.146761 0.0508,-0.116486 0.09626,-0.234978 0.148311,-0.350883 0.0777,-0.172989 0.184954,-0.313804 0.371554,-0.390157 0.231679,-0.0949 0.431875,-0.245281 0.625285,-0.402042 0.179949,-0.145752 0.347173,-0.3054 0.509012,-0.471289 0.1272,-0.130249 0.256559,-0.258994 0.396359,-0.376205 0.0456,-0.03811 0.042,-0.03683 0.0801,0.01344 0.0347,0.04564 0.06746,0.09548 0.116272,0.127641 0.0422,0.02767 0.07294,0.06187 0.09974,0.104903 0.0493,0.07896 0.116881,0.123516 0.218591,0.100769 0.084,-0.01869 0.119742,-0.0031 0.154512,0.08061 0.0655,0.157776 0.161788,0.300607 0.217558,0.463021 0.03,0.08736 0.06878,0.172038 0.111105,0.254765 0.0774,0.151837 0.151978,0.305495 0.220658,0.460954 0.0958,0.216598 0.186454,0.436356 0.266134,0.659908 0.0777,0.218192 0.173202,0.429144 0.243912,0.650089 0.0157,0.04882 0.02,0.09507 0.0031,0.144177 -0.0103,0.02985 -0.02619,0.06077 -0.01809,0.0925 0.0275,0.108081 0.02563,0.222613 0.08113,0.325045 0.0341,0.06288 0.0567,0.132947 0.077,0.202055 0.0353,0.119673 0.07316,0.237777 0.137459,0.345715 0.0209,0.03507 0.03586,0.07237 0.04496,0.112655 0.009,0.0394 0.01699,0.07977 0.03359,0.116272 0.13909,0.302515 0.25904,0.613579 0.38654,0.920874 0.18284,0.441311 0.366423,0.881954 0.542603,1.326017 0.21124,0.532878 0.426531,1.064484 0.641821,1.595768 0.0232,0.05723 0.01251,0.0982 -0.02739,0.141077 -0.0345,0.03694 -0.08277,0.05463 -0.116789,0.0894 -0.11808,0.120253 -0.256973,0.215721 -0.384473,0.324528 -0.29425,0.251371 -0.559904,0.526956 -0.762744,0.859896 -0.22254,0.365104 -0.372274,0.757984 -0.460954,1.174086 -0.0897,0.42059 -0.124334,0.84589 -0.09043,1.27692 0.0373,0.47593 0.156045,0.92796 0.355534,1.36116 0.17343,0.37626 0.396235,0.71946 0.676445,1.02371 0.16675,0.18081 0.35198,0.3422 0.54932,0.49041 0.31714,0.23848 0.658986,0.4283 1.032495,0.56276 0.0496,0.0178 0.10902,0.0248 0.13901,0.0801 0.005,0.0113 0.02131,0.01 0.03101,0.003 0.0284,-0.0223 0.05496,-0.006 0.08216,10e-4 0.22094,0.0609 0.444995,0.10767 0.673344,0.12868 0.19254,0.0177 0.3848,0.028 0.57981,0.0165 0.24948,-0.0145 0.49613,-0.0408 0.737939,-0.0997 0.63575,-0.15488 1.198784,-0.45246 1.692403,-0.8816 0.0566,-0.0493 0.106406,-0.11019 0.170016,-0.14728 0.0712,-0.0413 0.09783,-0.11533 0.152445,-0.16691 0.095,-0.0898 0.177218,-0.19152 0.252698,-0.29714 0.12432,-0.17386 0.23965,-0.35294 0.33383,-0.54622 0.13604,-0.27919 0.254015,-0.56461 0.326595,-0.86713 0.0992,-0.41349 0.138521,-0.83229 0.113171,-1.25781 -0.023,-0.38756 -0.102317,-0.76283 -0.233577,-1.127059 -0.13417,-0.372492 -0.322417,-0.71726 -0.548287,-1.041796 -0.11764,-0.168933 -0.247719,-0.328194 -0.401009,-0.466122 -0.21529,-0.193707 -0.442294,-0.372949 -0.690914,-0.523482 -0.37148,-0.225002 -0.763252,-0.400718 -1.188041,-0.497644 -0.40046,-0.09128 -0.805937,-0.120076 -1.215947,-0.08733 -0.17329,0.01391 -0.345891,0.02766 -0.517281,0.05736 -0.0656,0.0113 -0.112144,-0.0074 -0.143144,-0.06873 -0.0261,-0.05143 -0.05752,-0.100018 -0.08062,-0.153479 -0.13546,-0.316423 -0.277197,-0.630328 -0.407727,-0.948779 -0.23399,-0.570112 -0.505673,-1.123245 -0.740523,-1.69292 -0.10475,-0.25398 -0.22202,-0.502961 -0.33228,-0.754476 -0.225429,-0.514332 -0.449894,-1.028727 -0.674894,-1.543059 -0.20284,-0.464056 -0.407712,-0.927091 -0.608231,-1.392163 -0.17067,-0.395818 -0.29308,-0.804762 -0.31626,-1.238684 -0.003,-0.04999 0.003,-0.08535 0.05064,-0.116788 0.11634,-0.07722 0.121913,-0.131243 0.03462,-0.238746 -0.0382,-0.04723 -0.05381,-0.09636 -0.04961,-0.15968 0.0121,-0.19081 -0.06678,-0.336397 -0.236678,-0.428397 -0.0411,-0.02231 -0.08206,-0.04325 -0.110588,-0.08165 -0.0475,-0.0636 -0.04185,-0.105065 0.02015,-0.156063 0.0178,-0.01463 0.03693,-0.02821 0.05323,-0.04444 0.151549,-0.150097 0.334571,-0.246749 0.536401,-0.306441 0.31411,-0.09301 0.630459,-0.07342 0.944128,0.0031 0.22804,0.05564 0.456821,0.106753 0.68833,0.145727 0.32266,0.05433 0.648054,0.09331 0.967383,0.166915 0.31743,0.07316 0.623535,0.176305 0.903304,0.347266 0.0307,0.01883 0.06397,0.0276 0.09767,0.03411 0.11505,0.02173 0.230602,0.0075 0.346232,0.0031 0.0256,-0.0011 0.04677,-0.01036 0.03927,-0.04237 -0.0235,-0.09954 -0.04916,-0.195595 -0.150379,-0.251664 -0.0859,-0.04752 -0.166423,-0.104606 -0.248563,-0.158647 -0.36946,-0.243257 -0.762878,-0.436196 -1.183907,-0.574125 -0.2363,-0.07737 -0.473126,-0.157038 -0.697115,-0.266134 -0.37742,-0.183856 -0.736217,-0.400889 -1.094507,-0.619083 -0.29644,-0.180667 -0.591934,-0.363156 -0.898653,-0.526583 -0.41494,-0.221236 -0.845655,-0.405023 -1.294495,-0.545703 -0.452189,-0.141696 -0.914236,-0.232226 -1.386995,-0.269751 -0.05522,-0.0043 -0.517077,-0.246228 -1.076937,-0.255282 z m -42.1106081,0.0036 c -0.019528,-0.0022 -0.038609,0.003 -0.053744,0.01757 -0.1380889,0.132393 -0.3035921,0.253405 -0.3198771,0.471289 l -0.00155,0.0093 c 0,0 0.00155,-0.01171 0.00155,-0.01188 -0.03419,0.02165 -0.076151,0.03651 -0.1018026,0.06615 -0.1504589,0.173589 -0.2939531,0.353856 -0.4475179,0.524515 -0.03615,0.04006 -0.1029951,0.05227 -0.1555461,0.07752 -0.02034,-0.04967 -0.063444,-0.102721 -0.056844,-0.148311 0.02446,-0.166752 0.058366,-0.332896 0.1028361,-0.495577 0.02867,-0.105035 -0.00873,-0.195044 -0.10542,-0.172083 -0.08678,0.02035 -0.1817204,0.07456 -0.2382283,0.142627 -0.1722858,0.20779 -0.3196748,0.436261 -0.4919597,0.643889 -0.1763638,0.212507 -0.3737873,0.407188 -0.5555213,0.615466 -0.0803,0.09217 -0.136463,0.205784 -0.217558,0.297139 -0.173594,0.195575 -0.357837,0.381647 -0.534851,0.574125 -0.100101,0.109273 -0.191689,0.22641 -0.292488,0.334864 -0.121966,0.13109 -0.247207,0.259219 -0.375688,0.383956 -0.136293,0.132394 -0.258812,0.295333 -0.421163,0.380338 -0.263812,0.137928 -0.495852,0.295808 -0.703316,0.514181 -0.274222,0.288884 -0.592458,0.535784 -0.799434,0.885734 -0.0777,0.131415 -0.163264,0.145738 -0.302824,0.05943 -0.453134,-0.280202 -0.876028,-0.622108 -1.414384,-0.740007 v 0.0015 c -0.142493,-0.058 -0.287784,-0.109889 -0.426848,-0.175183 -0.322753,-0.151446 -0.641753,-0.31415 -0.855245,-0.614432 -0.14509,-0.20437 -0.266385,-0.425596 -0.410827,-0.630453 -0.135817,-0.192805 -0.276569,-0.384649 -0.436149,-0.557589 -0.151605,-0.164144 -0.217515,-0.150662 -0.362769,0.01085 -0.09772,0.108947 -0.152161,0.08836 -0.224792,-0.04547 -0.139401,-0.256804 -0.293049,-0.505957 -0.442867,-0.75706 -0.01515,-0.02557 -0.04372,-0.0434 -0.06666,-0.06408 -0.09068,-0.08125 -0.178764,-0.06792 -0.240812,0.03566 -0.08355,0.139394 -0.118695,0.132096 -0.211357,-0.01137 -0.108778,-0.168218 -0.22126,-0.33692 -0.353983,-0.485759 -0.04913,-0.05537 -0.185333,-0.100986 -0.238745,-0.07183 -0.143306,0.07816 -0.247389,0.05195 -0.370004,-0.03256 -0.110734,-0.07637 -0.222567,-0.02169 -0.234611,0.112654 -0.0075,0.08435 0.01794,0.171884 0.03049,0.257866 0.0075,0.05536 0.02499,0.110356 0.02739,0.165881 0.01136,0.256478 0.02581,0.512821 0.02635,0.769462 3.24e-4,0.198343 0.03681,0.423175 -0.04186,0.589111 -0.10862,0.229446 -0.14074,0.405548 -0.05529,0.659909 0.109756,0.327151 0.275136,0.600385 0.517281,0.825272 0.217562,0.202088 0.464559,0.372424 0.7028,0.551388 0.09837,0.07394 0.212383,0.126574 0.310575,0.200504 0.190692,0.143628 0.361306,0.319532 0.56534,0.438733 0.292628,0.17066 0.608013,0.303764 0.914156,0.451135 0.189069,0.09103 0.396128,0.148423 0.532268,0.329179 0.05963,0.07915 0.06451,0.142767 -0.01654,0.195854 -0.102911,0.06742 -0.207417,0.138317 -0.320911,0.182935 -0.31771,0.125552 -0.564329,0.341613 -0.806152,0.574641 -0.224713,0.216744 -0.342975,0.53973 -0.668176,0.659908 -0.04318,0.01596 -0.09013,0.1628 -0.06925,0.183969 0.05605,0.05683 0.150538,0.114026 0.224793,0.108003 0.297183,-0.02427 0.591976,-0.07861 0.888835,-0.109554 0.277001,-0.02899 0.560395,-0.01691 0.832507,-0.06821 0.50905,-0.09625 0.977846,0.0026 1.447974,0.19327 0.751027,0.304517 1.505431,0.603005 2.270145,0.870231 0.326823,0.114317 0.682211,0.147247 1.026294,0.20929 0.08797,0.0158 0.136219,0.0313 0.10542,0.134875 -0.06395,0.216256 -0.12244,0.433755 -0.181384,0.65164 -0.04167,0.153724 -0.121957,0.461988 -0.121957,0.461988 0,0 -0.284779,0.955553 -0.291455,1.034045 0.03646,-0.07506 0.02507,-0.08013 0.05374,-0.15813 0.14362,-0.369982 0.156101,-0.44562 0.186552,-0.499194 0.0303,-0.05358 0.07441,-0.05219 0.07441,-0.05219 0,0 0.198761,-0.03072 0.09819,0.314192 -0.09253,0.357604 -1.221277,4.095229 -1.465544,4.957319 -0.244268,0.86209 -1.401678,4.67996 -1.480013,4.9568 -0.08008,0.28351 -0.08236,0.36996 -0.258382,0.29456 -0.03679,0.003 -0.09498,-0.10265 -0.09715,-0.16485 -0.0021,-0.062 0.100252,-0.35553 0.100252,-0.35553 0,0 0.03972,-0.0937 0.08268,-0.24805 -0.03549,-0.001 -0.315743,0.83664 -0.315743,0.83664 0,0 -0.09632,0.35139 -0.04341,0.29456 0.04653,-0.0396 0.05028,-0.0753 0.07906,-0.0646 0.02511,-0.0754 0.292252,-0.0177 0.395325,-0.061 0.04318,-0.20112 0.344681,-1.14928 0.344681,-1.14928 l 2.730066,-9.023737 c 0,0 0.154947,-0.683577 0.293522,-0.827857 0.02186,-0.07816 0.05859,-0.154089 0.106971,-0.224275 0.0033,-0.0083 0.0065,-0.01649 0.0098,-0.02481 -0.0119,0.01206 -0.02176,0.02558 -0.02739,0.04186 -0.01266,0.03029 -0.01417,0.0299 -0.0036,-0.0021 0.0021,-0.0311 0.01885,-0.06876 0.02687,-0.09922 0.02088,-0.08126 0.04547,-0.156418 0.07752,-0.234094 0.03311,-0.07979 0.06986,-0.157614 0.10697,-0.235128 0.01169,-0.04152 0.02638,-0.0823 0.04651,-0.120406 0.04448,-0.0837 0.08886,-0.167309 0.132291,-0.251664 0.0225,-0.04332 0.04482,-0.08729 0.06615,-0.131258 0.01721,-0.03566 0.08482,-0.190508 0.01189,-0.01757 0.04134,-0.09836 0.08751,-0.17903 0.153479,-0.248564 0.219347,0.907526 0.437696,1.809687 0.655257,2.709395 -0.139561,0.06661 -0.26988,0.122696 -0.394291,0.189136 -0.73671,0.393267 -1.256759,1.203997 -0.862997,2.174544 0.109103,0.269016 0.237725,0.53096 0.372071,0.788578 0.09847,0.18841 0.120312,0.37854 0.07441,0.57981 -0.03679,0.16105 0.07731,0.29059 0.240295,0.26665 0.06991,-0.0102 0.140137,-0.0204 0.210323,-0.0264 0.171149,-0.0145 0.2878,0.0587 0.34985,0.22015 0.173106,0.44994 0.2210877,0.91653 0.139009,1.38699 -0.07001,0.40238 -0.282819,0.55185 -0.672827,0.51212 -0.0033,0.0715 -0.03749,0.16776 -0.0041,0.20928 0.192964,0.23971 0.190364,0.50978 0.1757,0.79427 -0.01698,0.3322 -0.03853,0.66893 -0.0031,0.99787 0.06709,0.62092 0.316597,1.16006 0.8319903,1.54926 0.4603566,0.3475 0.9932409,0.47214 1.5539103,0.51367 0.3038607,0.0226 0.6066669,0.0355 0.9043376,-0.0563 0.08007,-0.0247 0.1685286,-0.0306 0.2532145,-0.0305 0.1423219,1.6e-4 0.2740368,-0.009 0.3601848,-0.14728 0.01493,-0.0241 0.060634,-0.032 0.093534,-0.0424 0.2123458,-0.0673 0.4374096,-0.10775 0.6351034,-0.20464 0.4465155,-0.21853 0.7691991,-0.58632 1.0836547,-0.96118 0.2825308,-0.33676 0.3891907,-0.72632 0.3844727,-1.15704 -0.0043,-0.43169 -0.1426268,-0.82854 -0.3364136,-1.20406 -0.1830408,-0.35468 -0.3949873,-0.69411 -0.5916951,-1.04179 -0.06611,-0.11675 -0.1380043,-0.2439 -0.084749,-0.37776 0.058,-0.14591 -0.026924,-0.1988 -0.1235066,-0.26768 -0.1802709,0.15714 -0.3831066,0.23491 -0.5978964,0.10904 -0.1512918,-0.0889 -0.3036272,-0.2003 -0.4097941,-0.33693 -0.2568097,-0.33057 -0.4103693,-0.71284 -0.4619873,-1.13119 -0.04285,-0.346537 0.091967,-0.502728 0.4439006,-0.510056 -0.0033,-0.08957 0.1120737,-0.176576 0.00465,-0.269234 -0.1584448,-0.135974 -0.2275364,-0.304706 -0.2423624,-0.513147 -0.02294,-0.323406 -0.041981,-0.65076 -0.1100708,-0.966349 -0.1376029,-0.637696 -0.537531,-1.067519 -1.1591024,-1.256254 -0.3704646,-0.112524 -0.7601709,-0.143928 -1.1477336,-0.02635 -0.2869357,-0.912412 -0.5726638,-1.822285 -0.8604126,-2.737301 0.4093906,-0.126529 0.830842,-0.198995 1.2640056,-0.205672 0.4105246,-0.0064 0.8212983,0.04862 1.2324829,0.07338 0.2540287,0.0153 0.5046959,0.183919 0.7637777,0.01912 0.01079,-0.0067 0.029612,-3.93e-4 0.044442,10e-4 0.03646,0.0038 0.0727,0.0078 0.1090373,0.01189 -0.03419,-0.0241 -0.06613,-0.05322 -0.1033529,-0.0708 -0.0264,-0.01254 -0.059914,-0.0099 -0.090434,-0.01395 -0.03646,-0.0557 -0.062809,-0.140762 -0.1131713,-0.159163 -0.1924879,-0.07035 -0.3903719,-0.129445 -0.5906617,-0.172599 -0.3680306,-0.07882 -0.7404398,-0.137353 -1.1084594,-0.216008 -0.2097468,-0.04478 -0.4185891,-0.0928 -0.6273519,-0.142627 -3.25e-4,-0.0054 2.952e-4,-0.0115 -5.168e-4,-0.01654 -0.01861,-0.110902 -0.1617545,-0.22264 -0.2930054,-0.233061 -0.1031239,-0.0081 -0.1712435,0.02758 -0.1984375,0.129191 -0.0075,-0.0019 -0.015981,-0.0038 -0.023771,-0.0057 -0.1091029,-0.02768 -0.1894106,-0.112758 -0.2180746,-0.212907 0.05573,-0.01466 0.1120481,-0.0269 0.1731161,-0.02739 0.1240879,-0.0011 0.2497441,-0.09641 0.3684529,-0.16123 0.02165,-0.01188 0.025126,-0.08342 0.013436,-0.11989 -0.0065,-0.01955 -0.063361,-0.03497 -0.095601,-0.03204 -0.1095989,0.01034 -0.2181629,0.02954 -0.3271118,0.04599 -0.02316,0.0035 -0.04644,0.0079 -0.06873,0.01499 -0.0054,0.0018 -0.01163,0.004 -0.01757,0.0057 0.04382,-0.107474 0.094048,-0.213516 0.1591665,-0.307475 0.1547008,-0.222934 0.3103898,-0.450614 0.5007446,-0.641305 0.3582586,-0.359068 0.6705345,-0.750681 0.9379272,-1.179773 0.1931259,-0.310054 0.3960052,-0.614403 0.574642,-0.932759 0.1804328,-0.321616 0.3801392,-0.642748 0.4929931,-0.989604 0.1781499,-0.547642 0.4123563,-1.064621 0.6862631,-1.566829 0.05648,-0.103574 0.1371352,-0.194391 0.1881022,-0.30024 0.02165,-0.04461 0.00942,-0.1195 -0.014986,-0.166398 -0.01158,-0.02264 -0.096746,-0.03115 -0.1312581,-0.01292 -0.05768,0.03029 -0.1129694,0.07965 -0.1483114,0.134359 -0.1089349,0.168543 -0.3312643,0.239601 -0.5193481,0.156063 -0.1131789,-0.05032 -0.1366328,-0.16569 -0.031006,-0.382922 0.1091149,-0.224562 0.2512404,-0.433133 0.3720703,-0.652157 0.02283,-0.04136 0.01339,-0.100091 0.01912,-0.150895 -0.05843,-0.0055 -0.1232841,-0.02944 -0.1731161,-0.01137 -0.04588,0.01661 -0.072794,0.08095 -0.1126546,0.119373 -0.1540498,0.148513 -0.2960844,0.313364 -0.4687052,0.436149 -0.1369539,0.09738 -0.2628273,9.87e-4 -0.2294434,-0.168982 0.02544,-0.12881 0.093033,-0.249046 0.1405599,-0.373621 0.03473,-0.09087 0.080272,-0.180114 0.097152,-0.274402 0.013222,-0.07389 -0.05097,-0.145409 -0.109554,-0.151928 z M 131.03955,86.647424 c -0.0356,0.0055 -0.0849,0.0488 -0.093,0.08372 -0.0213,0.09287 -0.0225,0.190293 -0.0341,0.285771 -0.0519,0.427112 -0.10205,0.854444 -0.16174,1.280542 -0.005,0.04173 -0.0673,0.08862 -0.11318,0.10542 -0.0188,0.0069 -0.0863,-0.0553 -0.094,-0.09354 -0.0278,-0.139665 -0.0292,-0.284949 -0.0605,-0.423746 -0.0469,-0.207906 -0.10701,-0.413229 -0.17105,-0.6165 -0.009,-0.02855 -0.0735,-0.05861 -0.108,-0.05426 -0.0368,0.0045 -0.0875,0.0434 -0.0982,0.07803 -0.0209,0.06693 -0.022,0.140963 -0.0238,0.21239 -0.0116,0.4813 -0.0171,0.962975 -0.0367,1.44384 -0.003,0.06346 -0.0709,0.173131 -0.11679,0.177767 -0.31758,0.03217 -0.32349,0.0253 -0.30437,0.306958 0.0112,0.16618 0.0239,0.337075 0.0703,0.495577 0.2208,0.753967 0.45616,1.503755 0.68058,2.256709 0.0884,0.296863 0.1909,0.593966 0.23668,0.898653 0.10098,0.670805 0.0377,0.736812 -0.63046,0.747242 -0.42885,0.0069 -0.89035,-0.04833 -1.25212,0.192753 -0.36177,0.241084 -0.7174,0.455587 -1.13843,0.561206 -0.0405,0.01014 -0.0586,0.109479 -0.0873,0.167431 0.062,0.02753 0.13059,0.08867 0.18448,0.07752 0.35438,-0.07389 0.68131,-0.02916 1.017,0.118339 0.43145,0.189362 0.87505,0.3641 1.32911,0.484208 0.53259,0.140971 1.03294,0.344038 1.51671,0.60048 0.12662,0.06694 0.25842,0.12377 0.38447,0.19172 0.19385,0.104314 0.57741,0.0047 0.47077,0.437699 0.0437,0.01057 0.11705,0.04218 0.12661,0.02842 0.1614,-0.230218 0.13893,0.02331 0.0858,0.200505 -0.0532,0.177191 -0.071,0.265619 -0.0357,0.38964 0.0356,0.124019 0.42552,0.124401 0.63821,0.248564 0.21254,0.12402 0.6039,0.968057 0.62012,0.957047 0.32874,-0.22138 0.4703,-0.02468 0.66921,0.229444 1.13298,1.446647 2.23362,2.918787 3.36413,4.367177 0.17531,0.22471 0.23403,0.43856 0.19896,0.6966 -0.12474,-0.0956 -0.24495,-0.19733 -0.37621,-0.28267 -0.31947,-0.20747 -0.58018,-0.15831 -0.80925,0.14159 -0.3325,0.43523 -0.2808,0.84604 0.16485,1.17202 0.1911,0.13967 0.39855,0.26073 0.60978,0.36794 0.2618,0.13271 0.38211,0.34843 0.40979,0.62631 0.0143,0.14314 0.01,0.28824 0.01,0.43254 1.5e-4,0.88654 0.23525,1.71365 0.71365,2.44791 0.53897,0.82728 1.31968,1.27581 2.31459,1.34565 0.80729,0.0566 1.46355,-0.25003 2.10943,-0.71003 1.12878,-0.8038 1.79401,-2.60024 0.76636,-4.13773 h -0.001 c -0.53389,-0.79873 -1.30065,-1.23153 -2.16834,-1.54099 -0.39828,-0.14213 -0.83887,-0.2108 -1.11415,-0.59532 -0.1059,-0.14821 -0.23809,-0.13845 -0.36225,-0.0171 -0.31686,0.30933 -0.64651,0.22072 -0.98133,0.0377 -0.16474,-0.09 -0.43182,-0.22133 -0.49817,-0.25321 -0.0665,-0.0319 -0.23496,-0.18123 -0.401,-0.34727 -0.16603,-0.16603 -2.01439,-2.35515 -2.98742,-3.564635 -0.31222,-0.387994 -0.44371,-0.416109 -0.5147,-0.646472 -0.0709,-0.230363 0.0134,-0.249805 -0.0475,-0.392225 -0.37799,-0.28107 -0.60742,-0.829058 -0.7891,-0.984952 -0.0408,-0.03506 -0.0784,-0.07425 -0.1173,-0.111621 0.0451,-0.01116 0.0897,-0.02923 0.13539,-0.03256 0.76571,-0.0578 1.50271,-0.05888 2.2009,0.391708 0.45406,0.292806 0.99676,0.435478 1.55804,0.45837 0.3638,0.01492 0.64015,-0.12099 0.90021,-0.356568 0.18037,-0.163282 0.19937,-0.321408 0.0455,-0.494543 -0.25484,-0.286432 -0.49407,-0.595224 -0.786,-0.838192 -0.48347,-0.402482 -1.03339,-0.666406 -1.69188,-0.627868 -0.33308,0.01957 -0.66945,0.01602 -1.00253,-0.0052 -0.38061,-0.02434 -0.61677,-0.247769 -0.56534,-0.589111 0.10533,-0.697175 -0.14386,-1.354342 -0.17776,-2.033985 -0.005,-0.107793 -0.0708,-0.228113 -0.14263,-0.313159 -0.0904,-0.107068 -0.27588,-0.164576 -0.31109,-0.278019 -0.0425,-0.137493 0.047,-0.311219 0.045,-0.468705 -0.002,-0.114023 -0.062,-0.226607 -0.0915,-0.341065 -0.18748,-0.724555 -0.77338,-1.252966 -0.95188,-1.985925 -0.1049,-0.430446 -0.28176,-0.843545 -0.38086,-1.274858 -0.0438,-0.1911 0.0248,-0.408617 0.0424,-0.613916 -0.30382,0.01956 -0.28906,0.337826 -0.44959,0.492993 -0.0656,0.0636 -0.095,0.164348 -0.14366,0.246497 -0.0361,0.06099 -0.0763,0.119769 -0.11472,0.179317 -0.0245,-0.08722 -0.0675,-0.174056 -0.0698,-0.261999 -0.004,-0.143288 -0.0308,-0.321542 0.0393,-0.424264 0.17443,-0.255282 -0.0267,-0.459358 -0.0398,-0.685229 -0.002,-0.03651 -0.0456,-0.07059 -0.0698,-0.105937 -0.0378,0.02796 -0.0919,0.04825 -0.11007,0.08578 -0.0402,0.08418 -0.0629,0.176742 -0.092,0.266133 -0.0959,0.294112 -0.18744,0.589354 -0.29145,0.880567 -0.0142,0.03955 -0.0885,0.07527 -0.13694,0.07803 -0.029,0.0016 -0.0865,-0.06264 -0.0884,-0.09973 -0.007,-0.137928 -0.0301,-0.289537 0.0145,-0.413412 0.11881,-0.331055 -0.0574,-0.607454 -0.12764,-0.903304 -0.007,-0.02666 -0.0753,-0.05806 -0.11007,-0.05271 z m -142.808341,8.983948 c 0.05248,0 0.05248,0.08113 0,0.08113 -0.05248,0 -0.05248,-0.08113 0,-0.08113 z m 145.020601,1.095024 c 0.0163,8.91e-4 0.0322,0.0033 0.0486,0.0067 0.0326,0.0069 0.0658,0.01802 0.1018,0.02945 0.0181,0.0057 0.0366,0.01118 0.0563,0.01654 -0.027,0.01898 -0.0502,0.04099 -0.0703,0.05736 -0.0101,0.0083 -0.0194,0.01514 -0.0279,0.01964 -0.009,0.0043 -0.0168,0.0061 -0.0238,0.0046 -0.018,-0.0036 -0.0356,-0.0088 -0.0532,-0.01499 -0.0525,-0.01869 -0.10316,-0.04604 -0.15503,-0.06821 0.0207,-0.0091 0.0412,-0.02287 0.062,-0.03359 0.0207,-0.01058 0.0415,-0.01873 0.0615,-0.01757 z m -91.07764,0.492476 c 0.04285,-0.0012 0.08609,0.04302 0.131775,0.077 0.0375,0.02796 0.03302,0.05365 -0.0026,0.0832 -0.0534,0.0439 -0.115478,0.06267 -0.182418,0.06253 -0.1333,-1.45e-4 -0.264798,0.01637 -0.396358,0.03462 -0.0169,0.0023 -0.03528,0.0031 -0.05168,-5.17e-4 -0.038,-0.0086 -0.06159,-0.04973 -0.05219,-0.08682 0.0152,-0.0607 0.08268,-0.123044 0.145728,-0.129708 0.12041,-0.01275 0.241,-0.02293 0.38964,-0.03669 0.0061,-0.0022 0.01196,-0.0034 0.01809,-0.0036 z m 0.555005,0.03876 c 0.1711,0.02245 0.333033,0.0543 0.492993,0.0956 0.0545,0.0142 0.097,0.07188 0.0894,0.113171 -0.007,0.03738 -0.08267,0.08953 -0.130224,0.08475 -0.0401,-0.004 -0.08029,-0.01253 -0.119373,-0.02326 -0.10634,-0.02927 -0.214921,-0.04487 -0.324011,-0.05994 -0.0143,-0.0021 -0.02887,-0.0036 -0.04237,-0.0078 -0.0351,-0.01087 -0.09975,-0.08835 -0.09715,-0.114722 0.003,-0.03144 0.09586,-0.09018 0.130742,-0.08785 z m 0.98857,0.272852 c 0.0116,0.0035 0.03131,0.0076 0.04961,0.0155 0.12011,0.05085 0.23557,0.110359 0.348299,0.1757 0.0662,0.03825 0.06217,0.06113 0.0052,0.112138 h 10e-4 c -0.0551,0.04956 -0.104375,0.0481 -0.165365,0.0155 -0.0687,-0.03665 -0.139873,-0.06877 -0.211873,-0.09819 -0.0677,-0.02781 -0.09039,-0.086 -0.10387,-0.147278 -0.0112,-0.05158 0.0139,-0.07382 0.077,-0.07338 z m -3.678328,0.428914 c 0.0303,-0.0056 0.06208,0.0071 0.08423,0.03462 0.0315,0.03912 0.03287,0.08268 0.0021,0.117305 -0.0114,0.01289 -0.02496,0.02448 -0.03876,0.03462 -0.1162,0.08606 -0.225563,0.18037 -0.331763,0.278019 -0.0287,0.02637 -0.06083,0.04342 -0.09973,0.04703 -0.0593,0.0057 -0.0769,-0.01148 -0.0739,-0.0832 -0.005,-0.03651 0.01181,-0.07537 0.04651,-0.105937 0.1233,-0.108517 0.243089,-0.221183 0.381889,-0.310575 0.0095,-0.0061 0.01936,-0.01003 0.02946,-0.01189 z m 4.459159,0.05116 c 0.0542,0.0014 0.102197,0.02016 0.142627,0.05478 0.0791,0.06737 0.156434,0.137081 0.234094,0.206189 0.0107,0.0095 0.02004,0.02074 0.02894,0.03204 0.0304,0.03825 0.04035,0.0982 0.02015,0.118339 -0.0344,0.0339 -0.101691,0.0396 -0.142111,0.0078 -0.0566,-0.04462 -0.111831,-0.09172 -0.165881,-0.139526 -0.0433,-0.0384 -0.08617,-0.07592 -0.134359,-0.108521 -0.0434,-0.02942 -0.06048,-0.08892 -0.04548,-0.137459 0.01,-0.03159 0.03471,-0.03461 0.06201,-0.03359 z m -5.134054,0.618567 c 0.0349,-0.0014 0.0618,0.01265 0.077,0.04496 0.014,0.02942 0.02647,0.05999 0.0021,0.0894 -0.10273,0.124888 -0.191793,0.258888 -0.280603,0.393774 -0.029,0.04391 -0.06426,0.04689 -0.104386,0.01964 -0.0404,-0.02752 -0.05684,-0.10164 -0.02894,-0.147278 h 5.17e-4 c 0.0422,-0.06867 0.08502,-0.137229 0.132291,-0.202571 0.0304,-0.04187 0.06412,-0.08126 0.08992,-0.126608 0.0244,-0.04288 0.0626,-0.06681 0.112138,-0.07131 z m 5.833236,0.100252 c 0.0739,0.0069 0.127557,0.03624 0.161747,0.105937 0.0252,0.05158 0.06035,0.09878 0.09405,0.145727 0.0332,0.04622 0.06136,0.09217 0.04186,0.144178 0,0.01955 5.8e-4,0.0313 0,0.04289 -0.002,0.02839 0.0031,0.06342 -0.03307,0.07183 -0.0382,0.009 -0.0633,-0.01269 -0.0832,-0.04702 -0.0362,-0.06245 -0.077,-0.122064 -0.117305,-0.181901 -0.0323,-0.04795 -0.06684,-0.09459 -0.09974,-0.14211 -0.0166,-0.02362 -0.03297,-0.04726 -0.03307,-0.07855 0,-0.05028 0.01983,-0.06562 0.06873,-0.06098 z m -6.301941,0.659908 c 0.02114,0.0014 0.04278,0.01134 0.06201,0.02997 0.0264,0.02579 0.03009,0.05049 0.01499,0.08527 -0.054,0.124453 -0.106716,0.249431 -0.155546,0.376204 -0.0188,0.04897 -0.0508,0.06739 -0.0987,0.06666 -0.0513,-5.8e-4 -0.04284,-0.04546 -0.05374,-0.07545 -0.005,-0.01348 -0.0078,-0.02786 -0.01188,-0.04134 0.003,-0.01521 0.0048,-0.03008 0.0098,-0.04341 0.0445,-0.112718 0.08442,-0.227216 0.14056,-0.334864 0.023,-0.0441 0.05727,-0.06541 0.0925,-0.06305 z m 6.810437,0.284221 c 0.01574,0.0024 0.0268,0.02004 0.04082,0.02894 0.0384,0.02463 0.06265,0.05501 0.07235,0.101803 0.007,0.03303 0.03358,0.05999 0.05168,0.0894 0.0368,0.05998 0.05992,0.124491 0.02222,0.195331 -0.0215,0.0407 -0.04227,0.049 -0.08217,0.0279 -0.0157,-0.008 -0.02941,-0.0193 -0.03721,-0.0351 -0.0525,-0.107067 -0.07708,-0.223312 -0.114205,-0.327627 0.002,-0.03463 0.0032,-0.06352 0.02894,-0.077 0.0065,-0.0034 0.01232,-0.0044 0.01757,-0.0036 z m -7.044014,0.513664 c 0.0335,0.004 0.05179,0.025 0.04599,0.0599 -0.008,0.0427 -0.01812,0.0849 -0.02532,0.12764 -0.0137,0.0797 -0.02614,0.1598 -0.03824,0.23978 -0.005,0.0317 -0.01011,0.0629 -0.03411,0.0868 -0.0206,0.0199 -0.03913,0.048 -0.07183,0.0408 -0.0303,-0.007 -0.03181,-0.0368 -0.03721,-0.0625 -0.009,-0.039 -0.03556,-0.0732 -0.02946,-0.11679 0.0171,-0.0908 0.03248,-0.18192 0.05168,-0.27233 0.008,-0.0384 0.102423,-0.10755 0.138493,-0.10335 z m 7.283793,0.29455 c 0.03054,5.9e-4 0.07606,0.0231 0.07906,0.046 0.0133,0.10012 0.02427,0.20051 0.03617,0.30076 0.003,0.0487 -0.01466,0.0919 -0.03876,0.13126 v 5.2e-4 c -0.0245,0.0401 -0.05997,0.0402 -0.09147,0.004 -0.0197,-0.0223 -0.03006,-0.0476 -0.03256,-0.078 -0.008,-0.0949 -0.01391,-0.19019 -0.02791,-0.28422 -0.008,-0.053 0.02559,-0.0809 0.05219,-0.11266 0.0046,-0.005 0.01308,-0.008 0.02325,-0.008 z m -53.449451,0.31575 c 0.062316,-0.003 0.1243592,0.0168 0.1793173,0.0568 0.1281568,0.0931 0.2210036,0.21715 0.2924886,0.35915 0.0422,0.0839 0.072582,0.17272 0.1178222,0.25528 0.02381,0.043 0.039681,0.0911 0.055811,0.13798 0.01287,0.0366 0.027278,0.0685 0.075448,0.0661 -0.01266,0.0262 -0.018962,0.0475 -0.00775,0.0713 0.0087,0.0187 0.014958,0.0394 0.022738,0.0589 0.05162,0.12832 0.1001039,0.2581 0.1560629,0.38447 0.06796,0.15356 0.1531966,0.29655 0.2883544,0.40256 0.07185,0.0563 0.1507947,0.0921 0.2444296,0.0729 0.03094,-0.079 0.031081,-0.11151 0.0031,-0.17208 -0.0883,-8.5e-4 -0.1440506,-0.0542 -0.1477946,-0.14107 -0.0021,-0.0571 0.024894,-0.10453 0.071313,-0.12765 0.05736,-0.0283 0.099612,-0.0112 0.1431438,0.0289 0.1160998,0.10682 0.116422,0.32863 0.00413,0.44132 -0.03549,0.0357 -0.081378,0.046 -0.1281576,0.0506 -0.1654568,0.0161 -0.2996674,-0.0508 -0.4180623,-0.15968 -0.07834,-0.072 -0.130046,-0.1616 -0.1777669,-0.25425 -0.06547,-0.12751 -0.1348048,-0.25375 -0.1782837,-0.39119 -0.0098,-0.03 -0.029175,-0.0408 -0.063045,-0.0434 0.0277,-0.027 0.03083,-0.0542 0.01602,-0.0863 -0.05865,-0.12816 -0.1051067,-0.26121 -0.1674316,-0.38758 -0.03809,-0.0772 -0.072315,-0.15612 -0.107487,-0.23461 -0.04545,-0.10079 -0.1031145,-0.1933 -0.1855184,-0.2682 -0.0435,-0.0394 -0.059256,-0.0449 -0.1312581,-0.0527 -0.02813,0.0326 -0.066105,0.0619 -0.059945,0.11007 0.0119,0.0199 0.026757,0.0157 0.038757,0.0191 0.0607,0.0168 0.090294,0.0565 0.088883,0.11989 -0.0011,0.0565 -0.031245,0.0997 -0.079065,0.11369 -0.05941,0.0174 -0.1213631,-0.002 -0.146761,-0.0558 -0.07316,-0.15649 -0.055623,-0.26993 0.089917,-0.34468 0.035831,-0.0185 0.073198,-0.0283 0.1105875,-0.03 z m 46.074707,0.24494 c 0.02108,0.003 0.03723,0.0215 0.04031,0.0537 0.005,0.0456 5.16e-4,0.0919 5.16e-4,0.12868 0.01,0.0979 0.0091,0.18757 0.02325,0.27595 0.005,0.0307 0.0072,0.0605 -0.02325,0.0863 -0.053,0.0456 -0.06427,0.0466 -0.111104,-0.005 -0.0218,-0.0241 -0.04081,-0.0494 -0.04341,-0.0822 -0.009,-0.1033 -0.01975,-0.2067 -0.01705,-0.31058 6.8e-4,-0.039 0.07289,-0.13258 0.10852,-0.14417 0.0078,-0.003 0.0152,-0.004 0.02222,-0.003 z m 7.401615,0.23099 c 0.0247,0.004 0.02221,0.0314 0.02791,0.0496 0.0201,0.0663 0.03493,0.13363 0.04393,0.20361 -0.0112,0.0736 -0.02239,0.14789 -0.03359,0.22221 -0.01,0.0633 -0.0767,0.0831 -0.101803,0.13539 -0.005,0.011 -0.02175,0.005 -0.02946,-0.004 -0.0253,-0.031 -0.05117,-0.058 -0.04237,-0.10697 0.0239,-0.13388 0.04456,-0.26835 0.05426,-0.40411 0.002,-0.0236 0.0049,-0.0463 0.02222,-0.0646 0.0161,-0.0174 0.03391,-0.0355 0.05891,-0.031 z m -55.2653601,0.0289 c 0.032212,-0.002 0.063898,0.003 0.093534,0.0155 0.05746,0.0244 0.1037644,0.0575 0.1219564,0.12247 0.01169,0.0422 0.036189,0.0807 0.028939,0.12764 -0.0098,0.0625 -0.048117,0.10288 -0.1116211,0.11266 -0.05421,0.008 -0.1061379,-0.0228 -0.1297079,-0.078 -0.02381,-0.0562 -0.010834,-0.0959 0.047026,-0.14004 0.0021,-0.002 0.00358,-0.004 0.00568,-0.007 0.0033,-0.0572 -0.043075,-0.0661 -0.080615,-0.0796 -0.03668,-0.013 -0.057341,0.0146 -0.076481,0.0403 -0.01904,0.0256 -0.031084,0.0546 -0.040824,0.0847 -0.03484,0.10894 -0.032021,0.22042 -0.025321,0.33279 0.0075,0.13011 0.026746,0.25902 0.034107,0.38913 0.0054,0.0936 0.026034,0.18574 0.037724,0.27905 0.0033,0.0249 0.021054,0.0341 0.037724,0.0481 -0.0033,0.0207 -0.0249,0.0329 -0.02067,0.061 0.02413,0.15975 0.029222,0.32093 0.029972,0.48214 0.001,0.17327 -0.03191,0.3363 -0.1467611,0.47439 -0.06201,0.0746 -0.142814,0.12052 -0.2325439,0.15244 -0.0249,0.009 -0.050908,0.006 -0.076998,-0.002 -0.1853248,-0.0581 -0.2412503,-0.2464 -0.2191083,-0.37879 0.0098,-0.0585 0.067469,-0.1114 0.1152387,-0.11059 0.06526,0.001 0.1265215,0.0452 0.1369425,0.10749 0.0098,0.0588 0.018413,0.11983 -0.053227,0.15451 -0.02327,0.0111 -0.027539,0.0372 -0.012919,0.0615 0.01353,0.0221 0.025728,0.0454 0.041858,0.0656 0.02738,0.034 0.042755,0.0366 0.080615,0.0155 0.06926,-0.0384 0.114286,-0.0982 0.142627,-0.17053 0.04221,-0.1083 0.056014,-0.2223 0.053744,-0.33693 -0.0043,-0.20649 -0.032449,-0.4109 -0.062529,-0.61495 -0.0043,-0.0278 -0.016452,-0.0472 -0.045992,-0.0651 0.0303,-0.0174 0.044384,-0.0313 0.040824,-0.0605 -0.0087,-0.0723 -0.014621,-0.14528 -0.02067,-0.21807 -0.01256,-0.1503 -0.033669,-0.30004 -0.00982,-0.45165 0.01471,-0.0909 0.040465,-0.17754 0.080615,-0.25994 0.041632,-0.0852 0.1400426,-0.14847 0.236678,-0.15348 z m 47.9092201,0.54416 c 0.0351,-0.005 0.07387,0.0234 0.08527,0.0708 0.0254,0.10635 0.05543,0.21114 0.08733,0.31575 0.003,0.0109 0.0047,0.0223 0.0067,0.03 -5.78e-4,0.0263 -0.05686,0.10981 -0.07442,0.1142 h -5.16e-4 c -0.02278,0.004 -0.0868,-0.0415 -0.09663,-0.0729 -0.0223,-0.0714 -0.04265,-0.14334 -0.06305,-0.21549 -0.009,-0.0304 -0.01469,-0.0617 -0.02119,-0.0925 -0.004,-0.0169 -0.0088,-0.0342 -0.0088,-0.0512 2.9e-4,-0.0367 0.05087,-0.0934 0.08527,-0.0987 z m 7.174756,0.44183 c 0.0551,-0.001 0.05976,0.002 0.05736,0.0713 v 5.2e-4 c -0.009,0.0542 -0.03511,0.1176 -0.06511,0.17932 -0.025,0.0513 -0.0608,0.0972 -0.0832,0.15038 -0.0239,0.0562 -0.0842,0.054 -0.129708,0.0749 -0.0155,0.007 -0.02369,-0.012 -0.02739,-0.0258 -0.008,-0.0297 0.0038,-0.0573 0.01447,-0.0837 0.0388,-0.0927 0.07808,-0.18579 0.119372,-0.2775 0.0219,-0.0488 0.053,-0.0876 0.114205,-0.0894 z m -6.922575,0.36535 c 0.01491,-6.2e-4 0.03049,0.004 0.04599,0.009 0.028,0.009 0.0533,0.0231 0.0677,0.0506 0.0627,0.12011 0.138803,0.23281 0.189653,0.35915 0.005,0.0104 0.0083,0.0212 0.01033,0.0264 -5.9e-4,0.0397 -0.0424,0.0956 -0.077,0.10438 l -5.16e-4,-5.1e-4 c -0.0411,0.0106 -0.06585,-0.016 -0.08475,-0.0455 -0.0593,-0.0921 -0.11182,-0.18835 -0.16123,-0.28629 -0.0168,-0.0335 -0.03223,-0.0677 -0.05013,-0.10077 -0.0203,-0.0374 -0.0037,-0.0673 0.0186,-0.0951 0.01235,-0.0151 0.02643,-0.0206 0.04134,-0.0212 z m 6.520533,0.39998 c 0.0071,1.7e-4 0.01425,0.002 0.0217,0.005 0.0273,0.0113 0.01787,0.0393 0.02067,0.061 6.8e-4,0.009 0,0.0174 0,0.017 0.009,0.0969 -0.0372,0.164 -0.0863,0.22789 -0.0261,0.0339 -0.06127,0.0634 -0.07906,0.10181 -0.0382,0.0826 -0.114387,0.0524 -0.174667,0.063 -0.0345,0.006 -0.05105,-0.0674 -0.02015,-0.10594 0.0378,-0.0472 0.07483,-0.0948 0.110588,-0.14366 0.0373,-0.051 0.07557,-0.10132 0.111621,-0.15347 0.0114,-0.0165 0.02354,-0.0332 0.03824,-0.0465 0.01658,-0.0149 0.0361,-0.0264 0.05736,-0.0258 z m -6.122624,0.30282 c 0.005,-7.2e-4 0.01055,-6.6e-4 0.01602,10e-4 0.0671,0.0206 0.139838,0.0259 0.187068,0.0941 0.0406,0.0587 0.09348,0.10901 0.14211,0.16174 0.0256,0.0277 0.03481,0.0575 0.02791,0.0946 h 5.16e-4 c -0.008,0.0433 -0.0309,0.0671 -0.077,0.0631 -0.0358,-8.9e-4 -0.06799,-0.0116 -0.09508,-0.0357 -0.0735,-0.0652 -0.138236,-0.13735 -0.190686,-0.22066 -0.0238,-0.0378 -0.02062,-0.0833 -0.03152,-0.12454 -0.0053,-0.0193 0.0057,-0.0314 0.02067,-0.0336 z m 98.823946,0.43718 c -0.002,0.0206 -0.002,0.0418 -0.003,0.0631 0.0192,0.0443 0.0352,0.0863 0.0486,0.12557 0.0133,0.0388 0.0239,0.0759 0.0315,0.11007 1.4e-4,5.8e-4 3.8e-4,0.001 5.2e-4,0.002 0.008,0.0333 0.0122,0.0644 0.0139,0.0935 1.4e-4,0.002 0,0.003 0,0.005 6.8e-4,0.0278 5.8e-4,0.0539 -0.003,0.078 -4.4e-4,0.003 -0.002,0.005 -0.002,0.008 -0.005,0.0222 -0.01,0.0434 -0.0186,0.0625 -0.002,0.005 -0.005,0.008 -0.008,0.0124 -0.009,0.0165 -0.0179,0.0328 -0.0305,0.047 h -5.2e-4 c -0.007,0.007 -0.0153,0.0129 -0.0227,0.0196 -0.0112,0.01 -0.0213,0.0211 -0.0346,0.03 -0.0223,0.0151 -0.0474,0.0284 -0.076,0.0403 -0.049,0.0204 -0.10292,0.0272 -0.1571,0.0222 -0.0649,-0.006 -0.12967,-0.031 -0.18965,-0.0682 -0.0901,-0.0561 -0.16774,-0.14236 -0.20774,-0.25218 -0.005,-0.0155 -7.5e-4,-0.0363 0.01,-0.0584 0.008,-0.0149 0.0169,-0.0306 0.0274,-0.046 0.008,-0.0114 0.0163,-0.0222 0.0248,-0.0331 0.009,-0.0109 0.0164,-0.0212 0.0238,-0.0305 0.002,-0.002 0.004,-0.003 0.008,-0.005 0.003,-0.001 0.008,-0.002 0.0119,-0.002 0.009,-8.9e-4 0.0206,-4.1e-4 0.032,10e-4 0.005,7.5e-4 0.011,0.002 0.0165,0.003 0.0166,0.004 0.0311,0.0105 0.0367,0.0186 0.0456,0.065 0.086,0.1098 0.12299,0.13849 0.0123,0.01 0.0243,0.0177 0.0357,0.0238 0.023,0.0122 0.0446,0.0172 0.0646,0.0171 0.0299,-2.9e-4 0.0564,-0.0132 0.0811,-0.0351 0.0577,-0.0511 0.10369,-0.15063 0.14831,-0.25219 0.005,-0.011 0.008,-0.0227 0.01,-0.0351 5.8e-4,-0.004 9.2e-4,-0.007 0.001,-0.0109 6.8e-4,-0.01 0.002,-0.0198 0.002,-0.03 -0.007,-0.0151 -0.0109,-0.0283 -0.0181,-0.0439 z m -93.376217,0.0217 c 0.03512,-0.004 0.0661,0.0229 0.07906,0.0672 0.0192,0.0656 0.0017,0.10928 -0.05374,0.14521 -0.0336,0.0217 -0.06397,0.0488 -0.09457,0.0749 -0.0273,0.023 -0.05312,0.0451 -0.08992,0.0289 -0.005,-4.3e-4 -0.008,-3.8e-4 -0.01085,-5.2e-4 -0.0378,-0.001 -0.09102,0.0341 -0.109554,-0.0134 -0.0199,-0.0507 0.02364,-0.10017 0.05684,-0.13436 0.0556,-0.0574 0.121632,-0.10545 0.186552,-0.15297 0.0122,-0.009 0.02447,-0.0136 0.03617,-0.015 z m -4.785754,0.10904 c 0.01284,8e-5 0.02541,0.003 0.03566,0.01 0.0762,0.0514 0.149168,0.10821 0.217557,0.1695 0.0373,0.0336 0.0093,0.0949 -0.04082,0.0997 -0.0229,0.002 -0.04615,0 -0.06925,0 -0.12807,0.004 -0.232046,-0.0998 -0.225826,-0.22428 0.0015,-0.0288 0.04417,-0.055 0.08268,-0.0548 z m 132.786211,0.16846 c 0.13387,0.004 0.23382,0.069 0.30489,0.16588 0.10667,0.14531 0.20617,0.29607 0.30127,0.44855 0.16088,0.25795 0.26846,0.5396 0.37724,0.82011 0.0534,0.13734 0.13539,0.25453 0.25322,0.34933 0.0116,0.009 0.0217,0.0332 0.017,0.0455 -0.0425,0.11366 -0.0511,0.23089 -0.0444,0.34778 0.0264,0.45073 0.1319,0.88106 0.3576,1.27847 0.0226,0.0398 0.0501,0.077 0.0692,0.10594 0.0648,-0.0302 0.12111,-0.0678 0.18294,-0.0832 0.12208,-0.0306 0.22628,0.006 0.30076,0.10129 0.0724,0.0924 0.0762,0.19473 0.0165,0.29507 -0.0642,0.10794 -0.1676,0.1538 -0.29714,0.14624 -0.1461,-0.008 -0.24305,-0.0897 -0.32039,-0.19378 -0.2038,-0.27421 -0.37792,-0.56442 -0.50901,-0.87747 -0.0653,-0.15624 -0.12798,-0.3136 -0.19637,-0.4687 -0.0436,-0.0992 -0.1219,-0.17521 -0.20516,-0.24598 -0.0101,-0.008 -0.0208,-0.0271 -0.0171,-0.0367 0.0551,-0.14335 0.0531,-0.29069 0.0424,-0.4377 -0.0275,-0.37948 -0.12471,-0.74125 -0.29249,-1.08417 -0.0387,-0.0791 -0.0885,-0.15329 -0.13694,-0.23617 -0.14518,0.16628 -0.41178,0.13743 -0.49816,-0.0315 -0.0489,-0.0956 -0.0483,-0.19211 0.0191,-0.28422 0.0669,-0.0913 0.16122,-0.128 0.27492,-0.12454 z m -132.190382,0.22066 c 0.02567,-4.4e-4 0.05278,0.0124 0.08061,0.0274 0.0586,0.031 0.119638,0.0566 0.179318,0.0853 0.076,0.0364 0.08299,0.0865 0.02119,0.14573 -0.0606,0.0582 -0.08302,0.0614 -0.160714,0.0227 -0.0695,-0.0345 -0.139436,-0.0678 -0.208256,-0.10387 -0.0482,-0.0253 -0.07328,-0.0857 -0.06098,-0.13539 0.005,-0.0199 0.01941,-0.0285 0.03721,-0.0305 0.0258,-0.003 0.0514,-0.004 0.0863,-0.006 0.0083,-0.003 0.01676,-0.005 0.02532,-0.005 z m 101.003142,0.009 c 0.0381,0.001 0.0752,0.0116 0.11058,0.0284 0.10649,0.0513 0.21066,0.10794 0.31265,0.16691 0.17226,0.0998 0.32116,0.22947 0.47025,0.35812 0.0732,0.0632 0.15638,0.10533 0.25373,0.12402 0.01,0.002 0.0226,0.0127 0.0238,0.0212 0.0103,0.0788 0.0412,0.14948 0.0811,0.21497 0.15359,0.25281 0.34729,0.46889 0.59996,0.62942 0.0254,0.0161 0.0531,0.029 0.0729,0.0398 0.0283,-0.0374 0.0491,-0.0764 0.0801,-0.10438 0.0611,-0.0552 0.13272,-0.0658 0.20516,-0.0336 0.0701,0.0313 0.10403,0.089 0.10025,0.16536 -0.004,0.0821 -0.05,0.14021 -0.12713,0.1757 v 5.2e-4 c -0.087,0.04 -0.16829,0.0231 -0.24494,-0.0134 -0.20211,-0.0959 -0.39181,-0.21072 -0.56379,-0.3514 -0.0859,-0.0703 -0.17065,-0.14165 -0.25787,-0.21032 -0.0558,-0.0439 -0.12433,-0.0637 -0.1943,-0.0791 -0.009,-0.002 -0.0204,-0.009 -0.0212,-0.016 -0.0123,-0.0998 -0.0587,-0.18442 -0.11007,-0.26614 -0.13241,-0.21094 -0.29989,-0.39015 -0.50229,-0.53692 -0.0467,-0.0339 -0.0984,-0.0615 -0.15193,-0.0946 -0.033,0.14083 -0.19566,0.206 -0.29766,0.13487 -0.0577,-0.0403 -0.0871,-0.0964 -0.0765,-0.17053 0.0106,-0.0733 0.0541,-0.12369 0.12092,-0.15658 0.0394,-0.0195 0.0782,-0.0275 0.11628,-0.0264 z m -97.87155,0.16899 c 0.23355,0 0.13104,0.31872 -0.03514,0.20774 -0.16632,-0.11083 -0.19811,-0.20774 0.03514,-0.20774 z m -2.333708,0.12557 c 0.047,0.01 0.08973,0.0153 0.130742,0.0279 0.0694,0.0214 0.14125,0.0327 0.21239,0.0408 0.0651,0.008 0.103119,0.0444 0.137459,0.092 0.0221,0.0304 0.02963,0.0619 0.0072,0.0961 h -5.17e-4 c -0.0224,0.0339 -0.04812,0.053 -0.09302,0.0455 -0.142129,-0.0239 -0.283333,-0.0516 -0.422713,-0.0884 -0.058,-0.0155 -0.06437,-0.0775 -0.101286,-0.11214 -0.003,-0.003 -0.0011,-0.0186 0.0036,-0.0233 0.0373,-0.0362 0.07623,-0.0705 0.12609,-0.0785 z m 1.192176,0.10749 c 0.05715,-0.001 0.113015,0.004 0.164847,0.0413 0.0264,0.0194 0.05534,0.0313 0.05374,0.0692 -0.002,0.0398 -0.04427,0.0931 -0.08217,0.0982 l -5.16e-4,-5.2e-4 c -0.0657,0.009 -0.131464,0.0145 -0.197404,0.0196 -0.0316,0.002 -0.0638,0 -0.0956,0 v 0.007 c -0.0375,0 -0.07495,-0.002 -0.112138,5.2e-4 -0.0539,0.003 -0.09435,-0.0222 -0.129191,-0.0584 -0.0449,-0.0464 -0.03623,-0.0609 0.0083,-0.10801 0.0511,-0.0553 0.10843,-0.0647 0.17725,-0.061 0.0514,0.003 0.103816,-0.003 0.155546,-0.006 0.01928,-0.001 0.03831,-0.002 0.05736,-0.003 z M 168.94266,104.96 c 0.0617,0.003 0.12064,0.0251 0.16743,0.0641 0.0905,0.0755 0.12005,0.20542 0.0718,0.31213 -0.0521,0.11328 -0.17827,0.18907 -0.30334,0.17931 -0.0309,-0.003 -0.0613,-0.0122 -0.10232,-0.0207 -0.005,0.0803 -0.0162,0.16073 -0.0165,0.24081 -0.002,0.31578 0.0571,0.62147 0.154,0.91933 0.0549,0.16873 0.11967,0.33344 0.22634,0.47904 0.0123,0.0167 0.0227,0.0371 0.0393,0.0481 0.0603,0.04 0.058,0.0846 0.0294,0.14779 -0.0764,0.16937 -0.0545,0.34476 -0.0341,0.51832 0.0477,0.40326 0.0387,0.8074 -0.0269,1.21181 -0.0116,0.0717 -0.0323,0.14473 -0.0636,0.21136 -0.0656,0.13931 -0.2194,0.21918 -0.3607,0.19792 -0.16947,-0.0254 -0.27278,-0.18283 -0.22479,-0.34313 0.0459,-0.15312 0.22966,-0.24689 0.38499,-0.19637 0.005,0.002 0.0123,0.004 0.0258,0.009 0.005,-0.0258 0.0108,-0.0501 0.0134,-0.0744 0.024,-0.23018 0.004,-0.4573 -0.0403,-0.68161 -0.053,-0.26946 -0.12544,-0.53349 -0.26096,-0.77515 -0.0406,-0.0721 -0.10101,-0.13409 -0.1509,-0.20153 -0.008,-0.0106 -0.0163,-0.0293 -0.0114,-0.0388 0.0924,-0.18485 0.0843,-0.37608 0.0605,-0.56793 -0.0516,-0.41902 -0.0412,-0.83854 0.0294,-1.25883 0.0229,-0.13645 0.0727,-0.2606 0.20929,-0.33745 0.0577,-0.0325 0.12228,-0.0469 0.18397,-0.0434 z m -29.8819,0.84129 c 0.0299,-0.002 0.0597,0.003 0.0868,0.0155 0.0703,0.0325 0.11148,0.1096 0.0987,0.18552 -0.0136,0.0806 -0.081,0.14977 -0.16175,0.16484 -0.02,0.004 -0.0408,0.003 -0.0682,0.004 0.01,0.0517 0.0172,0.10433 0.0305,0.15503 0.0525,0.20009 0.14137,0.38355 0.25321,0.55552 0.0634,0.0974 0.13214,0.19055 0.22428,0.26458 0.0106,0.008 0.0202,0.0201 0.0326,0.0243 0.0451,0.0151 0.0512,0.0437 0.0439,0.0884 -0.0197,0.12011 0.0238,0.22697 0.0662,0.33331 0.0985,0.24703 0.16168,0.50451 0.18862,0.77153 0.005,0.0474 0.004,0.0967 -0.005,0.14418 l 5.2e-4,5.1e-4 c -0.0178,0.0992 -0.1013,0.17597 -0.19431,0.18655 -0.11142,0.0127 -0.20368,-0.0692 -0.2005,-0.1788 0.003,-0.10475 0.1034,-0.1953 0.21032,-0.18965 0.004,1.5e-4 0.009,4.7e-4 0.0181,0.001 -6.9e-4,-0.0171 -0.002,-0.0333 -0.004,-0.0491 -0.0239,-0.14981 -0.0752,-0.28981 -0.14107,-0.42426 -0.0792,-0.16154 -0.17,-0.31601 -0.29663,-0.44597 -0.038,-0.0388 -0.0862,-0.068 -0.12919,-0.10232 -0.007,-0.005 -0.0157,-0.0157 -0.0145,-0.0227 0.0273,-0.13257 -0.0103,-0.25198 -0.0579,-0.36948 -0.1036,-0.2563 -0.16817,-0.52362 -0.19482,-0.8015 -0.009,-0.0903 0.002,-0.17671 0.076,-0.24857 0.0387,-0.0379 0.0887,-0.0596 0.13849,-0.0625 z m -50.547816,1.13844 c 0.626089,-0.0126 1.037849,0.35526 1.055749,0.94309 0.01633,0.53571 -0.511398,1.03738 -1.097607,1.04438 -0.62986,0.007 -1.005691,-0.36213 -1.007691,-0.99012 -0.0015,-0.54251 0.464759,-0.98545 1.049549,-0.99735 z"
       inkscape:label="all birds"
       sodipodi:insensitive="true" />
    <path
       d="m -5.405048,84.395917 c -0.02046,-0.0033 -0.04102,0.0033 -0.05676,0.01842 -0.07251,0.06865 -0.151915,0.134103 -0.215631,0.210736 -0.03192,0.03834 -0.05998,0.07979 -0.08108,0.125321 -0.02099,0.04574 -0.0347,0.09585 -0.03888,0.152279 1.39e-4,-0.0011 -3.2e-5,-0.0033 0,-0.0033 -0.03588,0.02249 -0.07968,0.03866 -0.106674,0.06919 -0.157849,0.179836 -0.308189,0.366099 -0.469422,0.542986 -0.03791,0.0416 -0.108152,0.0547 -0.163471,0.0809 -0.02142,-0.0513 -0.0663,-0.106563 -0.05923,-0.153817 0.0257,-0.172725 0.06083,-0.345343 0.107414,-0.513774 0.0226,-0.08172 0.0064,-0.154045 -0.04595,-0.175359 -0.01746,-0.0075 -0.0392,-0.0085 -0.06458,-0.0033 -0.04552,0.01071 -0.09264,0.02988 -0.136182,0.05537 -0.0437,0.0255 -0.08408,0.05698 -0.113582,0.09233 -0.180662,0.215266 -0.334686,0.452316 -0.515348,0.66758 -0.184881,0.22024 -0.392478,0.42167 -0.583068,0.63761 -0.08418,0.0955 -0.142962,0.21366 -0.2280969,0.30841 -0.182151,0.20265 -0.37558,0.39495 -0.561274,0.59453 -0.105176,0.11311 -0.200893,0.23517 -0.306701,0.34765 -0.128052,0.13588 -0.259156,0.26839 -0.393913,0.39762 -0.142961,0.13722 -0.271957,0.30652 -0.442164,0.39455 -0.2767011,0.14289 -0.5197391,0.30596 -0.7372011,0.53225 -0.14386,0.14963 -0.299481,0.28859 -0.446062,0.4353 -0.07325,0.0734 -0.144621,0.14884 -0.210961,0.22843 -0.06629,0.0796 -0.127891,0.16393 -0.182171,0.25458 -0.08151,0.13618 -0.171311,0.15092 -0.317613,0.0615 -0.35646,-0.21792 -0.694457,-0.4712 -1.079726,-0.63605 -0.128342,-0.0549 -0.262039,-0.10014 -0.403244,-0.13083 v 10e-4 c -0.149729,-0.0601 -0.302351,-0.11385 -0.448397,-0.18149 -0.253876,-0.11773 -0.505526,-0.2423 -0.709953,-0.4284 -0.06811,-0.0621 -0.130761,-0.13068 -0.18683,-0.20844 -0.152268,-0.21178 -0.279806,-0.4413 -0.431272,-0.65374 -0.142661,-0.19985 -0.290238,-0.39845 -0.457725,-0.57761 -0.158941,-0.17005 -0.227487,-0.15687 -0.379905,0.0107 -0.102605,0.11266 -0.159669,0.0917 -0.235873,-0.0469 -0.14627,-0.26628 -0.306936,-0.52428 -0.463959,-0.7845 -0.01596,-0.0264 -0.0467,-0.0448 -0.0708,-0.0661 -0.04744,-0.0421 -0.09403,-0.0593 -0.137081,-0.0531 -0.04305,0.006 -0.08257,0.0363 -0.115243,0.0901 -0.08771,0.14438 -0.124432,0.13724 -0.221864,-0.0119 -0.114043,-0.17448 -0.232092,-0.34943 -0.371336,-0.50376 -0.05162,-0.0573 -0.194692,-0.104752 -0.250664,-0.07456 -0.15049,0.08109 -0.25981,0.05452 -0.388452,-0.03298 -0.05805,-0.03963 -0.116441,-0.04541 -0.161918,-0.02378 -0.04551,0.02153 -0.07776,0.07037 -0.08408,0.140055 -0.0075,0.0875 0.0196,0.17778 0.03267,0.26688 0.0085,0.0574 0.02624,0.11475 0.02881,0.1723 0.01199,0.26572 0.02678,0.5317 0.02731,0.79756 4.07e-4,0.20562 0.03888,0.43863 -0.04348,0.61068 -0.113882,0.23782 -0.148079,0.42002 -0.05848,0.68376 0.05751,0.16942 0.130001,0.32453 0.219507,0.46684 0.08953,0.14229 0.196063,0.27192 0.323066,0.38841 0.228214,0.20936 0.487404,0.38596 0.737211,0.57145 0.103032,0.0765 0.223212,0.13097 0.326171,0.20766 0.10003,0.0744 0.194638,0.1573 0.291149,0.23689 0.09661,0.0796 0.195002,0.15593 0.30204,0.21766 0.307,0.17687 0.637167,0.31489 0.958293,0.46762 0.148831,0.0707 0.30836,0.12205 0.439058,0.22227 1.030715,0.50909 1.87865,0.79402 2.535244,0.19396 0.531146,1.26965 2.2579981,1.56236 4.484284,0.55202 0.258643,-0.11743 0.516332,-0.34147 0.716005,-0.5393 0.375867,-0.37202 0.703623,-0.77748 0.983976,-1.22211 0.20267,-0.32131 0.415998,-0.63691 0.603321,-0.96679 0.189358,-0.33323 0.398584,-0.66569 0.5169,-1.02522 0.09339,-0.2838 0.2016,-0.55996 0.322284,-0.82988 0.120662,-0.26992 0.254144,-0.53421 0.39778,-0.7945 0.05923,-0.10731 0.143261,-0.20108 0.196962,-0.31072 0.0226,-0.0463 0.01071,-0.12428 -0.01553,-0.17307 -0.0121,-0.0234 -0.101533,-0.0318 -0.137841,-0.0134 -0.06041,0.0316 -0.118402,0.0825 -0.155685,0.13916 -0.114193,0.17462 -0.347549,0.24899 -0.544918,0.1623 -0.05934,-0.026 -0.09489,-0.0692 -0.101962,-0.13381 -0.0075,-0.0646 0.0151,-0.15036 0.07005,-0.26303 0.114493,-0.232715 0.26328,-0.448966 0.390015,-0.676047 0.02399,-0.04284 0.0151,-0.104318 0.02014,-0.156894 -0.06116,-0.0064 -0.129241,-0.0302 -0.181368,-0.01189 -0.04809,0.01713 -0.07647,0.08396 -0.118252,0.123832 -0.08076,0.0769 -0.158791,0.158201 -0.23899,0.236119 -0.08011,0.07787 -0.162529,0.152514 -0.253009,0.216123 -0.07165,0.05044 -0.141001,0.05044 -0.187612,0.01628 -0.02324,-0.01713 -0.04091,-0.04284 -0.05066,-0.0753 -0.0086,-0.03256 -0.01071,-0.07219 -0.0032,-0.116089 0.02656,-0.133503 0.09736,-0.257764 0.147181,-0.386866 0.03642,-0.09425 0.0844,-0.186873 0.101962,-0.284584 0.0043,-0.02549 8.78e-4,-0.05044 -0.0086,-0.07304 -0.01071,-0.0226 -0.02656,-0.04284 -0.0452,-0.05773 -0.01853,-0.01489 -0.03941,-0.02474 -0.05998,-0.02699 z"
       style="display:none;fill:#000000;fill-opacity:1;fill-rule:nonzero;stroke:none;stroke-width:0.135022"
       id="path1-6"
       sodipodi:nodetypes="ccsccccsccsccccsccccccssssssccccccsccsccsscccccccssssssccccccscccsssccccsccccccsccccsccccc"
       inkscape:label="fid wing" />
    <path
       id="path3"
       style="display:inline;fill:#000000;fill-opacity:1;fill-rule:nonzero;stroke:none;stroke-width:0.137864"
       inkscape:label="fiddle"
       d="m -11.456502,90.19691 c -1.592441,0.40466 -2.502902,0.70262 -2.802021,0.70268 -0.122232,0.005 -0.162958,0.0714 -0.240295,0.11628 -0.113379,0.0657 -0.221331,0.14763 -0.342098,0.19533 -0.169228,0.0667 -0.318733,0.15684 -0.458887,0.262 -0.140151,0.10515 -0.399459,0.16949 -0.399459,0.3483 v 0.001 c 0,0.33197 -0.365483,0.57442 -0.711584,0.70228 -0.02294,0.008 -0.0471,0.0516 -0.06253,0.0956 -0.01544,0.044 -0.02154,0.0889 -0.01034,0.10025 0.05956,0.0605 0.160783,0.1212 0.239779,0.11472 0.316529,-0.0259 0.62956,-0.0839 0.945679,-0.11679 0.294887,-0.0309 0.596601,-0.0176 0.88625,-0.0723 0.135487,-0.0256 0.269172,-0.0379 0.399976,-0.0393 0.392413,-0.004 0.766204,0.0926 1.141532,0.24495 0.799469,0.32425 1.602829,0.64187 2.416907,0.92656 0.173982,0.0608 0.355507,0.10005 0.5395021,0.13229 0.183995,0.0322 0.370302,0.058 0.553455,0.091 0.09375,0.0168 0.145326,0.0323 0.112654,0.14263 -0.0017,0.005 -0.0036,0.0109 -0.0052,0.0165 0.103199,0.0144 0.204732,0.037 0.307474,0.0548 0.02339,0.003 0.04686,0.004 0.07028,0.006 0.0297,0.10628 0.02036,0.12745 -0.07235,0.15451 -0.05996,0.0175 -0.150573,0.0127 -0.201021,-0.0103 -0.181512,-0.0825 -0.417834,0.0658 -0.369486,0.23151 0.04709,0.16144 0.239869,0.19987 0.361735,0.10697 -0.192414,0.54581 -0.67979,2.09552 -2.0360521,6.43785 -1.736396,5.55943 -2.093093,6.73161 -2.054138,6.74378 0.02595,0.008 0.08014,-0.0383 0.120406,-0.10336 0.06303,-0.10192 0.09995,-0.12003 0.26665,-0.1297 0.26452,-0.0153 0.348698,-0.062 0.487826,-0.27182 0.09511,-0.14341 0.140394,-0.26509 0.223242,-0.5979 0.619642,-2.4891 1.828062,-6.59576 2.8974981,-9.84901 0.223964,-0.6813 0.398808,-1.22938 0.547253,-1.70274 l 10e-4,-5.1e-4 0.121439,-0.0357 0.05271,0.26923 c 0.02898,0.14795 0.170193,0.70852 0.313676,1.24592 0.1434212,0.53741 0.2891022,1.11413 0.3240112,1.28158 l 0.06408,0.30489 -0.189652,0.12557 c -0.6455182,0.428 -1.0069002,1.0167 -1.0428312,1.69809 -0.0305,0.57847 0.369773,1.39694 0.699182,1.4304 0.4028182,0.0409 0.7000742,0.43422 0.7756642,1.0263 0.07995,0.62638 -0.17609,1.3107 -0.529684,1.41386 -0.1579902,0.0461 -0.1604742,0.0489 -0.2175582,0.36794 -0.08911,0.49815 -0.06779,0.80093 0.08837,1.2485 0.1366652,0.39172 0.2601852,0.59321 0.5524212,0.90279 0.51451,0.54504 1.418571,0.8592 2.298051,0.79737 0.170541,-0.0119 0.42984,-0.072 0.730188,-0.16898 0.390498,-0.12606 0.517383,-0.18642 0.788582,-0.37259 0.177817,-0.12208 0.410586,-0.31117 0.516765,-0.42013 0.289104,-0.29666 0.600171,-0.85661 0.681095,-1.22628 0.118471,-0.5412 0.111884,-0.73072 -0.03979,-1.25057 -0.148467,-0.50903 -0.252888,-0.68933 -0.600997,-1.0356 -0.177777,-0.17683 -0.196669,-0.18549 -0.340031,-0.14366 -0.34103,0.0995 -0.912873,-0.32385 -1.187524,-0.87901 -0.258774,-0.5231 -0.243542,-1.00475 0.03979,-1.26298 0.136664,-0.12455 0.164471,-0.18293 0.188102,-0.39377 0.0412,-0.367509 -0.09228,-0.8966 -0.304374,-1.21078 -0.381717,-0.56546 -1.024996,-0.88551 -1.803508,-0.89762 l -0.228409,-0.004 -0.133326,-0.36794 c -0.07345,-0.20257 -0.245839,-0.71486 -0.382405,-1.13843 -0.136497,-0.42358 -0.319157,-0.97204 -0.40566,-1.21905 l -0.157096,-0.44958 0.110587,-0.0315 c 0.06066,-0.0177 0.165463,-0.012 0.233061,0.0134 0.260382,0.0975 0.437894,-0.24039 0.192753,-0.3669 -0.111592,-0.0576 -0.227844,-0.0165 -0.29869,0.10542 -0.03245,0.0558 -0.1051,0.11437 -0.16123,0.13074 -0.09979,0.0291 -0.102978,0.0232 -0.1860362,-0.26148 l -0.05374,-0.18242 c 0.01053,5.5e-4 0.021,9.9e-4 0.03152,0.002 -0.0127,-0.0391 -0.02582,-0.0779 -0.03876,-0.11679 l 0.1136882,-0.0336 c 0.07582,-0.0221 0.168382,-0.0206 0.205673,0.003 0.145041,0.0929 0.375706,-0.0787 0.327628,-0.2434 -0.0488,-0.16724 -0.32922,-0.18333 -0.421679,-0.0243 -0.0496,0.0853 -0.2184112,0.14533 -0.2852542,0.11679 -10e-4,-0.003 -0.0021,-0.006 -0.0031,-0.009 -0.0073,-0.0215 -0.01133,-0.0406 -0.01499,-0.0594 0.01113,-0.0175 0.03011,-0.0328 0.05581,-0.0403 0.0442,-0.0129 0.05861,-0.0374 0.03979,-0.13642 0.0067,-0.004 0.0096,-0.008 0.01705,-0.0114 0.1562702,-0.0696 0.3150042,-0.13123 0.4749072,-0.18552 0.159901,-0.0543 0.321814,-0.101 0.485242,-0.13901 0.326856,-0.076 0.660661,-0.11871 1.000972,-0.12402 0.218514,-0.003 0.436967,0.01 0.655774,0.0269 0.218805,0.0171 0.437433,0.0381 0.656291,0.0512 0.270486,0.0163 0.53701,0.1962 0.81287,0.0207 0.01101,-0.007 0.03169,5e-5 0.04754,0.002 0.03874,0.004 0.112542,0.051 0.116272,0.0124 0.0043,-0.0444 -0.07088,-0.0561 -0.110587,-0.0749 -0.02831,-0.0133 -0.0692,0.003 -0.09663,-0.015 -0.02939,-0.0191 -0.03559,-0.0663 -0.05374,-0.0987 -0.01861,-0.0332 -0.03906,-0.0614 -0.06615,-0.0713 -0.204866,-0.0748 -0.415489,-0.1382 -0.628902,-0.18396 -0.391667,-0.0841 -0.78797,-0.14577 -1.179773,-0.22945 -0.384118,-0.082 -0.737398,-0.58915 -0.976167,-0.97461 0.0011,-5.1e-4 0.0019,-0.001 0.0031,-0.002 -0.791337,-1.01783 -2.6047832,-2.00282 -4.4300183,-1.539 z m 2.1749371,5.20288 0.10697,0.0331 c 0.0588,0.0184 0.104374,0.0459 0.101286,0.061 -0.0031,0.0151 -0.377979,1.21326 -0.833541,2.66237 -0.4555621,1.449111 -1.0491201,3.40146 -1.3187831,4.33875 -0.463853,1.61224 -1.154715,4.15343 -1.167887,4.29793 -0.0053,0.0574 -0.03477,0.0574 -0.216524,5.1e-4 l -0.209807,-0.0656 1.768885,-5.66426 z m 3.9191402,6.60839 c 0.0038,-7.5e-4 0.0064,-10e-4 0.0083,0 v 0.001 c 0.006,0.002 0.0145,0.002 0.01912,0 0.01499,-0.006 0.07874,0.008 0.116788,0.0279 0.04559,0.023 0.102543,0.0654 0.165882,0.12402 0.02647,0.0245 0.05809,0.0527 0.07028,0.063 0.02354,0.0199 0.181445,0.18367 0.211873,0.21963 0.04198,0.0496 0.05146,0.0604 0.07855,0.0946 0.0343,0.0435 0.05659,0.0728 0.08682,0.11472 0.01254,0.0174 0.03079,0.0415 0.04031,0.0537 0.0095,0.0121 0.02019,0.0283 0.02377,0.0362 0.01193,0.0258 0.09187,0.11697 0.129191,0.14727 0.02086,0.0169 0.101036,0.0654 0.120406,0.0729 0.01633,0.006 0.01684,0.007 0.01499,0.0289 -0.01667,0.18322 0.110913,0.50772 0.315226,0.80046 0.05825,0.0834 0.148939,0.18534 0.203088,0.22893 0.02457,0.0199 0.0343,0.0221 0.03617,0.008 5.13e-4,-0.004 0.01035,-0.0176 0.02222,-0.031 0.03768,-0.0426 0.116271,-0.0712 0.176733,-0.0641 0.07308,0.009 0.140256,0.0662 0.153479,0.13178 0.01468,0.0728 -0.0028,0.12593 -0.0615,0.18293 -0.0043,0.004 -0.03155,0.0165 -0.06046,0.0284 -0.06574,0.0268 -0.104232,0.0282 -0.172083,0.005 -0.03809,-0.0133 -0.0641,-0.0295 -0.116272,-0.0708 -0.03706,-0.0293 -0.08072,-0.0661 -0.09715,-0.0816 -0.01634,-0.0156 -0.03624,-0.0339 -0.04341,-0.0403 -0.03206,-0.0284 -0.09114,-0.0858 -0.116788,-0.11368 -0.0087,-0.01 -0.02898,-0.0304 -0.04444,-0.0465 -0.03325,-0.0345 -0.09044,-0.10092 -0.112655,-0.13023 -0.0743,-0.0981 -0.155577,-0.2073 -0.199987,-0.26872 -0.05923,-0.082 -0.14769,-0.15484 -0.227377,-0.18655 -0.01483,-0.006 -0.01588,-0.007 -0.01188,-0.0269 0.0053,-0.0254 -0.0043,-0.13143 -0.01654,-0.18035 -0.03833,-0.15373 -0.159213,-0.41852 -0.253731,-0.55552 -0.01101,-0.0161 -0.03239,-0.0472 -0.04754,-0.0692 -0.01513,-0.022 -0.04239,-0.0566 -0.05994,-0.0775 -0.01755,-0.0209 -0.03813,-0.0464 -0.04599,-0.0563 -0.034,-0.0428 -0.115912,-0.11495 -0.125574,-0.11059 -0.0033,9.2e-4 -0.0048,0.005 -0.0036,0.007 0.0011,0.003 -0.009,0.0166 -0.02222,0.031 -0.02704,0.0301 -0.100868,0.0665 -0.135909,0.0677 -0.09711,0.004 -0.177718,-0.053 -0.194303,-0.13591 -0.01239,-0.0614 -0.0011,-0.10841 0.03721,-0.15658 0.01531,-0.0192 0.02835,-0.0277 0.077,-0.0496 0.01955,-0.009 0.03534,-0.0152 0.04703,-0.0191 h 5.17e-4 c 0.0058,-0.002 0.01065,-0.003 0.01447,-0.004 z m -1.521871,0.46095 c 0.0135,8e-5 0.023,0.003 0.03462,0.006 0.05825,0.02 0.09258,0.0543 0.115238,0.11265 0.03048,0.0788 -0.0068,0.16924 -0.09043,0.21859 -0.03019,0.0178 -0.112974,0.0268 -0.151929,0.016 -0.01879,-0.006 -0.03428,-0.0119 -0.03462,-0.0145 -3.41e-4,-0.003 -0.0036,-0.005 -0.0072,-0.004 -0.01055,9.2e-4 -0.04086,0.10682 -0.04651,0.16123 -0.0012,0.0125 -0.0053,0.0448 -0.0088,0.0718 -0.0036,0.027 -0.0069,0.0715 -0.0078,0.0982 -9.19e-4,0.0267 -0.0025,0.0642 -0.0031,0.0837 -0.006,0.16633 0.03386,0.45492 0.08423,0.60513 0.01602,0.0478 0.06503,0.14173 0.0832,0.1602 0.01423,0.0145 0.01418,0.0155 0.0047,0.0284 -0.05013,0.0696 -0.08611,0.17864 -0.09198,0.27957 -0.0044,0.0757 -0.01329,0.21166 -0.02325,0.33434 -0.0031,0.0367 -0.01684,0.1236 -0.02636,0.17054 -0.0044,0.0219 -0.0096,0.0504 -0.01189,0.063 -0.0066,0.0373 -0.02547,0.11847 -0.03721,0.15968 -0.0026,0.009 -0.0097,0.0343 -0.01499,0.0563 -0.0053,0.022 -0.02225,0.0768 -0.03772,0.12144 -0.02177,0.0628 -0.03497,0.0903 -0.05994,0.12196 -0.04447,0.0565 -0.07743,0.0766 -0.147278,0.0894 -0.0307,0.006 -0.06044,0.009 -0.06615,0.008 -0.08009,-0.0165 -0.123624,-0.0516 -0.150378,-0.12093 -0.02408,-0.0623 9.06e-4,-0.14665 0.05788,-0.19327 0.04715,-0.0386 0.129272,-0.057 0.183968,-0.0413 0.01734,0.006 0.03328,0.0111 0.03566,0.014 0.0087,0.0101 0.01534,0.004 0.02532,-0.0269 0.02219,-0.0659 0.04381,-0.20061 0.04806,-0.3023 0.01483,-0.35669 -0.05175,-0.69836 -0.164331,-0.84388 -0.01331,-0.0175 -0.0136,-0.019 -0.0031,-0.0331 0.01239,-0.0166 0.05302,-0.10011 0.0615,-0.12558 0.01514,-0.0456 0.03366,-0.16607 0.02997,-0.1943 -0.0012,-0.008 4.58e-4,-0.0286 0.0021,-0.0439 0.0015,-0.0153 0.0036,-0.0448 0.0047,-0.0662 0.0029,-0.0516 0.0053,-0.088 0.01085,-0.14314 0.0044,-0.0435 0.0063,-0.058 0.01499,-0.12248 0.0063,-0.0467 0.05186,-0.26866 0.06098,-0.29817 0.0046,-0.0154 0.01514,-0.056 0.02429,-0.0909 0.02186,-0.0835 0.04725,-0.15047 0.07338,-0.1943 0.02181,-0.0366 0.06745,-0.0834 0.08372,-0.0858 0.0051,-6.4e-4 0.013,-0.006 0.01705,-0.0109 0.0025,-0.003 0.0091,-0.006 0.02119,-0.008 v -0.001 c 0.01193,-0.004 0.02837,-0.006 0.04961,-0.009 0.02641,-0.004 0.04437,-0.006 0.05788,-0.006 z"
       sodipodi:nodetypes="scccssscccccccccccccccscccscccccsccccccccsccscssccccscsscscsccccccccccscccccccscccscccccccsccccccccccscccssccccccccccssscsccccccccccscccccccccccccccscccccccccccccccccccccccsccsccccssccccccccccccccccsccsccccccc" />
  </g>
</svg>
